<svg xmlns="http://www.w3.org/2000/svg" viewBox="0 0 200 200"><path d="M 100.00 4.00 L 114.05 29.38 L 136.74 11.31 L 140.00 40.13 L 167.88 32.12 L 159.87 60.00 L 188.69 63.26 L 170.62 85.95 L 196.00 100.00 L 170.62 114.05 L 188.69 136.74 L 159.87 140.00 L 167.88 167.88 L 140.00 159.87 L 136.74 188.69 L 114.05 170.62 L 100.00 196.00 L 85.95 170.62 L 63.26 188.69 L 60.00 159.87 L 32.12 167.88 L 40.13 140.00 L 11.31 136.74 L 29.38 114.05 L 4.00 100.00 L 29.38 85.95 L 11.31 63.26 L 40.13 60.00 L 32.12 32.12 L 60.00 40.13 L 63.26 11.31 L 85.95 29.38 Z" fill="#1F33B9" stroke="#1F33B9" stroke-width="4" stroke-linejoin="round"/></svg>