<svg xmlns="http://www.w3.org/2000/svg" viewBox="0 0 200 200"><path d="M 100.00 12.00 A 21.06 21.06 0 0 1 140.90 22.08 A 21.06 21.06 0 0 1 172.42 50.01 A 21.06 21.06 0 0 1 187.36 89.39 A 21.06 21.06 0 0 1 182.28 131.21 A 21.06 21.06 0 0 1 158.35 165.87 A 21.06 21.06 0 0 1 121.06 185.44 A 21.06 21.06 0 0 1 78.94 185.44 A 21.06 21.06 0 0 1 41.65 165.87 A 21.06 21.06 0 0 1 17.72 131.21 A 21.06 21.06 0 0 1 12.64 89.39 A 21.06 21.06 0 0 1 27.58 50.01 A 21.06 21.06 0 0 1 59.10 22.08 A 21.06 21.06 0 0 1 100.00 12.00 Z" fill="#FFFFFF" stroke="#D27400" stroke-width="4" stroke-linejoin="round"/></svg>