<svg xmlns="http://www.w3.org/2000/svg" viewBox="0 0 222 222"><path d="M 111.00 23.00 A 21.06 21.06 0 0 1 151.90 33.08 A 21.06 21.06 0 0 1 183.42 61.01 A 21.06 21.06 0 0 1 198.36 100.39 A 21.06 21.06 0 0 1 193.28 142.21 A 21.06 21.06 0 0 1 169.35 176.87 A 21.06 21.06 0 0 1 132.06 196.44 A 21.06 21.06 0 0 1 89.94 196.44 A 21.06 21.06 0 0 1 52.65 176.87 A 21.06 21.06 0 0 1 28.72 142.21 A 21.06 21.06 0 0 1 23.64 100.39 A 21.06 21.06 0 0 1 38.58 61.01 A 21.06 21.06 0 0 1 70.10 33.08 A 21.06 21.06 0 0 1 111.00 23.00 Z" fill="#FFFFFF" stroke="#1F33B9" stroke-width="4" stroke-linejoin="round"/></svg>