<?xml version="1.0" encoding="UTF-8"?>
<svg id="Layer_2" data-name="Layer 2" xmlns="http://www.w3.org/2000/svg" viewBox="0 0 1241.9 476.47">
  <g id="Layer_1-2" data-name="Layer 1">
    <path d="M1111.13,1.23c-1.76,3.09-3.16,6.18-4.31,9.57-3.61,10.58-6.12,21.58-9.16,32.16-.78,2.71-2.96,5.79-3.54,8.78l3.4-1.68,1.96,1.83-23.14,37.8,6.29-5.18c9.65-15.57,19.16-30.64,32.33-43.52l2.72,2.91c-8.15,6.47-12.66,16.66-18.64,25.15-7.17,10.19-15,19.09-20.85,30.14-.72,1.37-.57,1.74.79.49,4.37-4.01,8.56-8.23,12.79-12.39,1.52-1.09,3.03-1.06,4.68-.18.55,1.14-5.09,4.33-6.21,5.35-2.98,2.71-12.48,12.15-13.66,15.33-.93,2.49-.75,6.35-2.56,8.95l2.22,2.44c-.43,2.21-.89,1.66-2.65.94-1.28.52.71,12.17-2.98,12.33l6.66,5.88-2.32,9.48c-16.12,29.15-35.42,57.04-46.56,88.6-1.36,1.89-4.31,1.16-4.81-1.03-.63-2.69.03-13.64.76-16.47.75-2.92,2.86-9.95,6.05-6.44-1.33,3.63-2.42,7.74-2.7,11.62-.07,1.02-.69,2.13.52,2.84,1.73-5.83,4.33-11.43,7.07-16.86,5.42-10.74,11.48-21.41,17.14-32.07.83-1.57,2.07-2.86,3.05-4.32-1.33-1.1-2.08-.93-1.84-3,3.78-1.22,4.54-.29,6.19-4.61l-3.95-3.82c-6.84-.6-3.91-4.26.75-3.15l5.57,3.62c4.76-7.94,9.16-15.13,10.88-24.4-3.15.06-5.47-3.38-7.28-4.12-1.73-.71-5.17-.08-7.18-1.05l-4.38,5.19c8.43,8.42,4.96,7.12-.04,14.36-13.81,20.02-20.4,47.03-33.25,68.79-4.6,7.79-11.15,13.86-15.85,21.52l-5.33-1.24c2.64-2.2,1.64-5.69,2.43-8.69,1.51-5.68,3.86-11.84,5.64-17.48-3.46,1.5-3.75,5.78-7.43,7.56-1.42.69-4.25,1.08-5.86.64-1.34-.77,2.29-11.46,2.8-13.2,5.96-20.53,12.41-41.25,17.32-61.87,2.42-10.13,2.71-17.25,6.96-27.41.7-1.67-.4-3.33,1.88-4.67,3.33-1.96,11.25,2.37,12.94,1.31l10.38-16.36,2.49-1.54c.09-6.29,1.14-12.03,1.04-18.41-.12-7.64-1.76-15.26-1.76-22.9l3.05,1.09c1.15,7.79,1.75,15.66,2.66,23.48.13,1.09.17,1.85,1.38,1.06,1.61-1.38,2.91-10.3,3.11-12.67.09-1.05-.66-3.07-.4-3.61.31-.63,1.97-.67,2.48-1.47.47-.74.42-4.66.96-6.43,2.3-7.4,5.7-15.38,9.56-21.87l2.17.46c-3.52,9.35-8.02,18.05-10.06,27.93-.75,3.66.16,7.89,1.8,11.22,1.21-3.08,1.31-6.54,2.1-9.71.5-2.03,1.17-5.1,1.69-6.9.84-2.88,7.47-18.76,9.28-20.04l3.3.48c-4.87,12.58-6.77,25.81-8.6,39.05-.11.8-.79,2.19.27,2.38,7.18-9.62,7.21-22.05,11.59-32.81,1.86-4.56,3.91-8.92,5.81-13.34,5.35-12.49,11.83-24.51,17.04-37.07l3.37,1.23ZM1085.64,60.13c2.69-3.08,3.28-6.31,4.84-9.78.26-.59,1.36-1.08,1.75-2.03.56-1.36,3-10.01,1.95-10.37-3.15,6.37-6.14,12.78-8.35,19.58-.27.83-1.43,2.33-.2,2.6ZM1088.95,63.66c-3.61-1.01-3.4,5.16-5.67,7.12,2.87-.84,3.55-5.11,5.67-7.12ZM1066.71,90.76l4.15-14.66.18-7.52c-2.24,5.35-3.48,11.12-4.31,16.85-.19,1.3-.89,4.35-.02,5.33ZM1058.18,86.86l-4.84,13.18c-.9,2.46-7.72,9.81-9.73,12.91-1.32,2.03-2.72,4.07-3.5,6.39l9.21,4.16c-1.26,2.78-.39,5.99-2.97,8.1,1.92,1.09,1.27-.11,1.97-1.14,1.92-2.83,11.59-22.55,11.38-24.79-.09-.96-1.17-1.2-1.21-2.95-.11-4.42,2.08-8.86.91-14.44-.18-.87.47-1.16-1.21-1.42ZM1056.57,129.47c3.29-1.38,9.77,3.54,11.15.41l4.08-34.17c-1.19-.13-2.83,2.17-3.35,3.04-6.74,11.12-11.48,23.51-18.17,34.67,1.3,3.39,3.94-2.96,6.29-3.95ZM1043.96,130.5c-.16-1.93.12-3.15.45-5.01l-.59-.84c-3.07-2.49-6.53-.95-7.81-1.44-.91-.35-1.17-1.81-2.19-2.27-1-.45-6.24-1.36-7.1-.84-3.27,5.34-5.22,12.74-6.82,18.97-5.73,22.37-10.51,45.01-17.14,67.39-1.38,4.65-3.7,9.21-5.12,13.87,1.35.74,1.07.48,1.82-.3,1.93-1.98,3.17-5.26,5.8-6.89l3.17.79c-.61-2.74,1.58-4.14,2.13-6.03,1.55-5.34,1.74-12.88,3.6-17.95,1.35-3.67,3.63-6.98,4.88-11.22,4.52-15.4,3.19-28.84,13.09-43.34.37-.54.71-1.12,1.23-1.54l2.64.86-4.82,8.96c5.51.35,8.75-.14,13.08,4.05-1.63,4.33-2.2,1.04-4.26,0-4.2-2.12-7.05-1.6-10.69,1.01l-2.35,6.43c.35.88,11.45-1.16,13.44,3.04.78,1.65.35,5.76-1.89,3.71-.92-.84-.5-2-.87-2.41-2.54-2.85-8.19-.66-11.44-2.31-.93,5.6-1.22,12.39-2.72,17.8s-4.57,11.25-6.18,16.88c-3.85,13.4-7.14,27.01-11.04,40.45-.23.8-1.6,2.8.14,2.73.82-.03,9.57-11.12,10.51-12.57,2.64-4.11,4.66-10.42,7.03-15.03,3.08-6,7.55-11.1,8.8-17.96l-8.23-2.63c2.24-2.37,5.95-1.42,8.46.05,3.93-2.91,4.9-7.18,1.1-10.67-2.34-2.15-3.86-1-6.19-2.72,4.69-2.61,7.02-1.19,10.75,2.03,1.3-4.21,3.14-9.74,5.14-13.75,2.91-5.83,8.71-12.02,11.92-17.89-3.33-1.94-5.57-7.39-8.86-8.92-2.23-1.04-6.92.54-9.5-.59-2.24-4.02,4.31-2.22,6.61-2.55,2.15-.3.04-1.16.03-1.35Z"/>
    <path d="M320.15,366.18l10.82,1.79,7.76,4.48c-.61,2.36-13.15-4.65-15.86-2.89-1.31,1-.49,1.29-.04,2.22,1.02,2.13,4.05,5.37,5.47,7.52l-1.08,1.44-9.37-10.8c.65,3.54-2.57,7.04-3.28,10.76-1.18,6.24,1.08,8.94,2.93,14.42.75,2.21.63,8.68,3.99,7.52-.93-3.51,6.19-7.97,6.35-8.65.18-.77-1.64-4.05-.94-7.1,1.65-7.17,5.93-5.87,12.01-5.42,2.03,3.38,6.71,5.01,7.02,9.35l3.61-1.8-.52-1.8c-5.21-1.72-8.24-7.93-7.37-13.29l-2.21-.39c-.6-2.53,1.82-.87,2.79-1.53.48-.32.31-2.89,1.96-4.16,4.68-3.59,14.22-.96,14.7,5.69,5.55-2.66,7.99-5.2,13.91-1.32,11.07,7.24,2.12,20.76-9.6,15.01l.71,4.31c2.32.32,4.46-.96,6.77-.7,1.69.19,5.53,2.71,5.85,2.7.63-.02,3.71-4.39,7.01-4.02,3.58.39,8.11,7.08,6.29,10.67,4.66-.26,8.65,2.53,11.14,6.32,8.66-4.66,14.77,1.61,13.35,10.24,7.15-1.4,10.02,6.63,7.92,12.24,6.5-.12,12.28-.76,12.16,7.49-.15,10.78-12.47,14.16-15.77,4.04h-1.07c-1.54,2.82-4.85,4.5-7.95,5.09-2.47.47-5.21-.62-7.09.05-1.18.42-2.65,6.73-7.91,6.37-6.81-.47-9.91-7.68-7.66-13.66-3.87-.61-2.13,2.94-3.05,5.21-1.46,3.61-5.61,5.91-9.54,5.63s-10.44-6.34-9.74-10.84c-1.65,1.29-2.29,3.49-4.51,4.48-7.5,3.36-13.86-1.39-12.88-9.42l-3.15-1.36c-5.69,7.61-20.76,4.18-18.92-6.15.16-.88,1.27-2.09,1.25-2.34-.05-.55-6.24-3.79-4.82-9.16.47-1.78,3.18-3.19,2.71-5.58-3.01,1.1-2.22,3.75-5.73,5.45-8.55,4.13-20.69-7.79-10.46-15.53,3.19-2.41,4.47-1.62,8.28-1.45l-6.41-14.78c1.77-4.32,5.07-7.9,5.56-12.75-3.7-5.26-8.4-26.75-15.38-27.17l-20.13,2.92c-4.94-1.79-9.54-2.42-14.75-2.95.41-5.21,4.66-3.2,8.27-3.6,9.49-1.05,19-3.19,28.44-.71.58-4.08,1.72-7.99,2.84-11.95.36-1.28-.65-3.88,1.84-3.88,1.95,0,2.26,17.56,2.09,20.15l11.37,23.6ZM306.32,333.93h-1.43v4.31h1.43v-4.31ZM293.36,339.69l-14.39,1.79c3.07,1.83,9.63.31,13.31-.38,1.17-.22,1.25.47,1.08-1.41ZM354.4,370.81c-2.07-2.08-8.16-1.18-9.03,2.5-2.91,12.34,13.14,16.76,11.19,3.62-.13-.85-1.77-5.74-2.16-6.13ZM365.16,374.4c-8.47,2,.22,14.98,7.84,9.99,2.78-5.95-.86-11.64-7.84-9.99ZM332.75,383.72c-8.33,5.02,2.42,18.87,9.58,14.65,3.79-2.23-.2-13.11-4.11-14.65h-5.47ZM354.36,388.8c-4.56,1.05-8.59,9.26-1.73,12.22,10.43,4.51,11.08-4.97,6.99-12.03-1.13-.68-3.94-.5-5.26-.19ZM373.29,405.92c2.9.79,4.87-1.3,7.03-1.96,1.28-.4,2.74.01,3.99-.33,3.45-.95,2.37-9.6-1.33-9.97-2.73-.28-2.23,1.85-3.18,3.11-2.1,2.77-1.31,2.37-2.59,4.8-.93,1.77-2.72,2.86-3.91,4.35ZM368.36,405.08c4.82,2.22,10.02-15.84-3.76-9.51l.16,6.28c.45,1.36,2.03,1.29,2.98,1.92.5.33.52,1.26.62,1.31ZM332.97,406.65c2.14-11.57-11.1-11.15-7.1-.1l7.1.1ZM347.36,402.32c-.96-5.78-6.82.13-10.8-.71,2.78,3.38-1.46,6.13-1.46,7.54,0,1.28,3.05,4.34,2.49,8.37-.96,6.8-7.53,4.49-8.21,9.71-.89,6.85,9.56,8.22,10.66,2.64.48-2.44-1.08-5.34-.56-8.43.32-1.89,2.13-3.26,2.14-4.37.01-1.78-3.55-2.59-4.16-5.22-1.36-5.91,4.53-10.2,9.9-9.54ZM311.17,400.27c-5.27,1.4-3.72,10.1,1.6,11.81,11.14,3.58,5.87-13.8-1.6-11.81ZM388.41,413.12c1.52.1,2.23-1.28,3.56-1.83,2.19-.9,4.99.58,4.36-3.54-.37-2.38-3.74-4.06-5.99-3.85-2.46.23-2.22,3.42-4.82,3.46l2.89,5.75ZM348.68,404.58c-1.2-.7-7,1.08-7.65,3.3-1.63,5.57,4.83,8.45,9.44,8.73,2.93-.69,2.05-5.89,1.06-8.01-.16-.34-2.63-3.9-2.85-4.02ZM356.01,405.21l-4.32-.72,2.52,2.86,1.8-2.14ZM360.83,406.08c-4.38,1.31-4.7,8.93-.33,10.82,9.48,4.1,9.41-13.54.33-10.82ZM383.25,408.21c-7.68-1.53-15.36,2.39-9.24,10.31,7.59,9.81,14.63-2.2,9.24-10.31ZM403.7,408.98c-2.78,4.04.72,12.46,5.87,9.11,5.03-3.27.59-13.26-5.87-9.11ZM333.68,410.25c-3.37,1.07-8.33,1.56-8.97,5.66-.92,5.86,6.63,3.2,9.69,4.43,1.53-3.58.14-6.59-.72-10.08ZM394.64,414c-5.25.46-4.76,9.48,1.16,11.53,9.69,3.35,5.46-12.1-1.16-11.53ZM355.15,418.06l-.95-2.04c-3.1,5.46-9.11-.4-10.84,4.99-2.38,7.46,8.45,13.87,10.31,4.55.52-2.61-.99-7.1,1.47-7.5ZM369.68,418.17c-2.56-.07-3.41,1.93-6.11,2.18-2.88.27-3.68-.6-6.12-1.47-.92,4.6,2.64,12.28,8.12,10.65,4.95-1.47,1.36-7.61,2-9.48.42-1.23,2.26-.66,2.12-1.88ZM418.54,421.15c-1.8-.24-5.24-1.51-6.44.38-1.66,4.01-.75,10.14,4.59,9.5,3.51-2.17,2.65-6.47,1.85-9.88ZM407.12,421.77c-3.68.14-2.52,5.9.72,5.75l-.72-5.75ZM379.05,424.65l-7.2-2.16c1.94,3.56-.18,6.51-2.16,9.35h8.64s.72-7.19.72-7.19ZM383.6,433.78c1.34,1.47,6.17,2.71,7.37.99.59-.84.46-4.23.27-5.4-.84-5.1-4.7-3.52-8.48-3.18-1.34,2.25-.89,5.69.84,7.59ZM404.06,435.27c1.95-2.02.21-5.84-1.94-6.62-1.12-.41-5.47.92-7.24.32l.12,3.49c2.71.3,6.71,5.24,9.06,2.82ZM352.58,439.59c1.3,1.29,5.08,1.14,6.61.11,4.32-2.99-.23-11.69-4.29-9.34-.27.16-3.17,2.5-3.23,2.7-.34,1.24-.02,5.61.9,6.52ZM366.81,432.57c-2.2-.21-2.36,1.81-2.15,3.59.4.87,1.7-2.87,2.15-3.59ZM423.43,433.39c-2.51.82-1.67,11,3.16,9.69,2.66-.72,5.03-6.18,4.23-8.61-.55-1.65-6-1.53-7.39-1.08ZM371.57,434.19c-4.27.79-3.2,9.5,1.68,11.02,9.48,2.94,9-8.29,3.67-10.14-.74-.26-4.81-.97-5.35-.87ZM412.78,434.83c-4.42-1.29-5.37,5.23-10.69,4.21,1.11,7.49,14.8,3.15,10.69-4.21ZM390.73,440.66c-3.11,3.47,4.13,12.71,7.66,5.86,1.91-3.71.79-9.04-3.5-10.35,1.03,4.37-3.03,3.23-4.16,4.49Z"/>
    <path d="M352.44,153.99l.17,1.97,1.98.16c1.59,1.57-4.35,9.31-5.69,10.93-8.8,10.69-28.16,25.32-41.45,29.31-55.36,16.61-92.78-28.61-85.1-81.5.51-3.49,3.93-19.52,6.67-20.69,1.18-.14,1.18-.11,1.04,1.03-.75,6.16-3.78,12.82-4.29,19.12,4.16-5.38,4.91-14.11,6.57-20.78l2.12-.45,118.01,57.58c-1.35,2.23-4.23.73-5.7,1.43-1.64.78-6.68,6.88-8.68,8.66-23.81,21.24-52.05,39.13-81.38,14.4-21.67-18.27-20.7-48.21-13.76-73.37l-6.76-4.02c-7.9,19.97-5.05,45.18,2.89,64.77,11.36,28.04,42.56,31.59,68.72,23.38,8.57-2.69,18.37-9.21,25.24-15.08,2.72-2.32,16.22-20.06,19.39-16.87ZM343.12,149.61l-97.91-46.81c-7.59,27.97-5.47,64.19,24.93,76.94,18.11,7.6,29.02,4.69,45.12-5.08,7.17-4.35,18.67-13.45,24.28-19.64.62-.68,4.12-4.83,3.58-5.41ZM325.84,182.73l-12.88,5.47-5.84,4.59c6.47-2.04,14.24-4.77,18.72-10.07ZM292.36,192.81c-6.29.33-13.08,0-19.44,0-.51,0-2.07-1.26-3.24-.71-.13,1.05,1.89,1.3,2.58,1.37,2.18.23,5.95.68,7.94.71,3.78.05,11.17-.3,14.98-.72.7-.08,2.71-.32,2.58-1.37-1.85-.74-4.2.65-5.4.71Z"/>
    <path d="M818.01,152.69c4.67,2.83,7.76,8.47,11.11,12.45,12.59,14.95,15.99,21.73,24.23,39.3,9,19.21,25.75,37.44,34.48,58.18.27.65,1.79,8.53,1.39,8.78l-4.98-2.88c-1.26-7.95-5.78-14.84-8.52-22.31-1.11,3.76-3.97,1.48-4.89,2.07-.73.47-1.54,4.63-1.28,5.61,1.18,4.47,16.51,14.08,19.67,17.5.66.84-2.16.13-4.98-.77s-5.61-2.53-7.84-4.66c-4.04-3.86-8.25-7.2-12.09-11.49-7.33-8.18-18.87-27.19-26.95-32.05-8.61-5.17-15.38-9.25-23.04-16.22-5.62-5.12-9.36-11.22-14.76-16.26-2.54-2.37-5.3-3.58-7.82-6.39-1.34-1.49-6.39-7.3-4.44-8.98,3.71-3.19,4.17,2.38,5.3,4.17,1.7,2.67,4.83,4.64,6.71,7.16,1.41-.25,1.12-.92,1.33-1.92.54-2.51.25-5.68,1.44-8.22,2.31-4.96,8.89-8.95,14.34-7.88,3.14,4.03-3.85,3.09-6.53,4.46-7.87,4.01-8.11,15.71-1.96,21.38,2.47,2.28,1.34-2.73,1.97-4.8,1.1-3.6,4.64-6.48,8.13-7.7,2.85-.99,4.98.41,3.57,2.37-.75,1.05-6.82,2.41-8.46,5.58-.75,1.45-.98,9.09,0,10.51.76,1.09,8.09,7.04,9.22,7.07-1.23-3.02,3.57-11.32,6.49-9.7,1.58.88-2.48,4.05-3.02,5.63-.69,2.04-.94,6.2.4,7.92,5.17,6.69,12.14,6.86,17.3,11.53,4.07,3.68,20.49,27.72,22.22,28.2,2.01-3.76,3.98-7.1,8.75-5.18l-8.61-15.14c-.5-.21-2.34,2.51-3.46,1.03-1.94-2.55.8-3.58.61-4.2-.28-.91-5.2-8.29-6.04-7.94-2.28,6.89-6.15-.29-.5-2.16l-7.43-9.31c-1.58.23-5.12,5.89-6.55,3.79-.13-3.82,3.87-6.25,7.13-7.23l-9.05-18.07c-2.31,3.13-4.26-.33-6.5.34-1.85.55-7.52,7.6-8.93,5.65-.84-1.16-.58-1.65.25-2.64.52-.61,5.6-5.3,6.22-5.71,2.08-1.36,3.61-1.49,5.97-1.09.2-.8-7.12-9.73-8.31-11.2-3.14-3.88-11.39-14.37-15.24-16.42-2.67-1.42-10.41-.99-12.92.65-1.36.89-1.34,2.42-2.31,3.47-.77.84-2.05,1.3-2.7,2.19-2.44,3.32-3.57,6.98-4.09,11.02l-2.78.64c-3.44-2.12,3.82-11.34,4.16-13.35.65-3.86-10.99-8.4-14.2-8.31-3.44.1-8.43,1.92-11.89,2.76l-.85-2.28c-.19-2.75,5.62-2.78,7.67-2.87l-.21-1.47c-1.2.36-2.37.29-3.55-.09-5.2-1.67-15.56-5.26-19.71-8.29-1.82-1.33-6.62-5.01-2.8-6.57.64-.26,9.33,2,11.21,2.23.72.09,2.28.76,2.38-.43-12.98-8.25-23.17-20.22-37.4-26.6l1.04-2.29c2.01-1.55,12.19,5,15.5,4.77,8.54,3.2,14.51,10.16,22.34,14.54-8.1-11.22-18.06-20.8-27.88-30.48-.76-.97,1.17-3.81,2.06-3.68,8.71,8.42,18.06,16.21,26.72,24.69,5.21,5.1,12.19,11.5,16.63,17.05,3.42,4.28,6.01,11.15,8.89,14.47.81.93,2.42.23,3.35,1.22,1.32,1.38,2.29,4.92,3.96,6.42l.93.35c3.27-5.45,15.81-4.68,20.37-1.92ZM764.31,130.72c-6.59-5.07-13.15-10.65-20.4-14.61l27.81,21.98c1.34-.45,0-1.51-.53-2.06-2.05-2.13-4.73-3.65-6.88-5.31ZM765.03,139.58c-3.1-1.1-6.27-1.18-9.44-1.81-.54.1-.16.88.09,1.12,1.47,1.38,17.78,6.7,18.51,5.19-2.83-1.08-6.51-3.56-9.15-4.5Z"/>
    <path d="M952.19,162.87l16.48-41.31,3.68-.45-1.24,8.49-21.8,63.89c2.88-.03,2.28,2.34,3.36,3.28.87.76,4.01,1.63,5.63,2.83,3.74,2.76,6.03,6.5,5.85,11.27-.35,9.32-6.32,31.88-9.79,40.95-1.61,4.22-4.67,8.64-6,12.72-2.98,9.2-3.93,20.38-7.35,29.37-2.82,7.42-7.94,12.45-10.39,20.57-.96,3.16-2.31,14.74-6.16,15.44-1.7.31-3.88-.2-5.68.04-1.86-.5-1.11-21.67-1.13-24.91-.02-2.11-.85-4.05-.8-6.45.14-5.66,3.8-10.59,4.37-15.83,2.37-21.61-5.04-46.52,1.37-68.48-.21-3.02-.65-11.74.19-14.2.75-2.21,13-3.85,15.72-4.08-1.58-5.78-1.76-11.16-4.26-16.8,5.4-5.6,4.94,4.05,7.85,6.73,1.42-12.18,1.21-25.09,2.75-37.16.85-6.64,2.74-18,4.82-24.04,1.17-3.42,3.8-9.14,6.86-3.97l-4.34,42.12ZM948.57,159.27c1.88-8.54,2.31-17.19,2.88-25.91l-3.58,16.93c0,2.15-.1,4.33-.01,6.48.04.87-.54,2.68.71,2.51ZM948.57,159.99c-2.95-.34-.82,5.64-1.43,7.19l1.43-7.19ZM924.1,229.11v12.6c.55.69.6.84,1.49.81,5.21-.18,9.63-5.08,14.35,2.09-1.53,4.41-4.3-.22-6.82-.44-1.31-.11-7.77,1.16-8.36,1.97-1.73,6.03.26,12.21.4,18.29.77,1.37,4.01-1.09,5.25-1.31,1.91-.35,6.12.32,7.9,1.12,2.05.92,2.94,3.7,5.23,3.77.51-7.03,10.08-20.36,9.24-26.84-.44-3.41-6.75-5.06-9.71-5.28-.69-.05-5.5,1.4-4.55-.62,1.77-3.78,13.23-2.06,15.82,1.07,2.08-5.7,3.14-10.34-.38-15.8-.79-1.22-5.3-5.07-6.45-5.07h-12.96l-.73-1.44c4.57-3.28,14.92-2.08,19.33.84,1.01.67,4.68,4.98,5.52,4.2.26-3.43,1.97-6.86,1.41-10.39-.55-3.51-6.77-9.28-10.25-8.21-1.41.43-2.5,3.29-4.9,1.73l-1.1-2.62c-5.76-.12-11.68-.08-16.89,2.65l-2.12,24.04c1.18,1.17,11.37-3.06,12.78,1.06l-1.01,1.85-12.49-.03ZM936.83,267.52c-3.58-1.79-9.38-.34-11.28,3.15-1.46,2.68.13,3.94.06,6.33-.06,2.24-1.21,4.47-.78,6.84,2.89-2.12,5.93-1.6,8.92.1.26.15,3.18,2.85,2.59,3.49-1.69,1.87-4.97-2.06-6.89-2.16s-3.34,2.04-5.31.75c-.73,3.83-3.29,8.03-3.65,11.85-.29,3.06.72,5.27.75,7.89.08,7.06-.67,14.38.7,21.27,4.48-5.12,4.19-12.93,7.06-19.21,3.05-6.64,7.68-11.02,9.86-18.94,1.52-5.52,1.46-11.52,3.86-16.86-1.61-.66-4.95-4.02-5.9-4.51Z"/>
    <path d="M42.56,189.86c1.72,1.18-4.38,10.53-5.36,12.99-1.48,3.7-2.54,7.57-3.27,11.48,10.82-2.52,23.11-12.77,32.27-.95,7.39,9.54,9.43,26.3,7.13,37.84-3.58,17.96-11.67,38.39-33.92,35.76-2.91-.34-6.18-2.26-8.69-2.44-6.05-.43-18.9,5.03-23.76-1.11-6.05-7.64-9.1-20.48-5.23-29.67.71-1.68,3.42-5.39,5.48-4.06l2.19,7.39,1.47.44c5.08-7.3,3.86-15-.85-22.17-2.37-1.39-6.02,2.72-7.43.59-2.44-11.31-4.93-24.03,10.17-25.85,8.1-.98,10.52,2.77,17.56,4.24.23-5.57,2.27-11.52,4.77-16.48.75-1.49,5.29-9.5,7.47-8ZM4.41,257.54c-.93,5.61-.61,13.76,2.56,18.68.47.74,4.26,5.02,4.8,5.28,5.94,2.78,15.4-2.01,20.98-1.42,1.7.18,5.54,2.8,8.18,3.22,11.28,1.8,20.8-6.29,24.11-16.58,4.97-15.44,8.26-34.47-1-49.01-7.34-11.54-18.7-2.64-27.98.62l-.04,4.2c-3.54,3.94-3.62-2.16-4.43-2.97-.41-.41-4.08-.9-5.37-1.47-6.2-2.71-10.29-7.06-17.77-2.92-7.07,3.92-1.72,10.29-2.61,16.46,4.53-1.65,9.86-2.87,14.71-2.11,3.92.61,6.36,4.3,9.36,6.41,5.79-8.43,21-9.8,25.04.94,2.28,6.04-.53,18.22-4.02,23.65-7.07,10.99-19.16,13.42-26.08.74-7.35,1.65-10.19,4.7-16.8-.53-1.64-1.3-1.76-3.27-3.65-3.19ZM31.59,241.51c-3.18,3.8-4.57-2.42-5.57-3.78-3.31-4.48-7.65-5.53-12.96-4.67,3.17,6.69,6.93,14.53,3.52,21.88-1.05,2.25-3.09,3.2-3.52,5.48,3.77,1.82,11.41-4.36,13.34-4.32,2.72.06,2.74,8.29,7.49,9.76,7.25,2.25,13.21-4.36,15.68-10.31,2.65-6.38,1.36-11.6,1.24-18.2-5.03-6.79-13.86-5.5-18.22,1.23-.6.92-.56,2.42-1,2.94Z"/>
    <path d="M95.19,317.01c1.54.89,7.66,14.71,8.49,14.9,10.42-2.76,12.23-14.4,24.54-7.99,10.67,5.56,14.74,21.38,12,32.43-2.22,8.96-7.99,24.55-16.33,29.04-13.3,7.16-27.63,6.96-40.83-.47-14.56-8.19-24.37-34.25-13.97-48.58,7.64-10.52,19.45-3.15,29.83-4.37-.42-5.55-6.38-9.31-5.75-15.11.66.05,1.4-.19,2.02.16ZM124.59,379.95c4.76-4.84,11.23-22.1,11.76-28.91.62-7.9-2.39-18.51-8.99-23.39-7.92-5.86-9.78,2.43-14.94,5.25-1.52.83-8.01,2.44-8.32,2.81-.51.61-.32,4.8-2.67,5.62l-1.75-1.11.68-4.64c-10.05,1.37-23.05-7.28-28.93,4.55-5.94,11.94,1.93,32.19,12.03,40.07,5.46,4.26,15.38,7.38,22.31,7.27,4.85-.08,15.43-4.07,18.82-7.51Z"/>
    <path d="M606.87,309.31c.22,1.02-.04,1.88-.39,2.83-1.34,3.68-7.22,13.31-10.45,15.48-2.25,1.51-4.85,1.37-6.43,3.28.99-.04,1.93.04,2.88.37,2.97,1.02,11.27,4.3,13.72,5.73,1.72,1,3.22,1.63,2.85,3.99-6.49.12-12.49,4.51-18.53,5.6-5.58,1.01-15.68,1.4-21.07-.2-4.34-1.29-9.81-5.98-10.85-10.41-7.29,1.32-13.83.6-20.34-3.04-4.17-2.34-9.7-5.52-4.37-9.87,9.5-3.2,19.1-9.17,29.47-8.75,2.86.12,8.02,2.19,9.34,2.17.8-.02,6.25-3.47,8.07-4.14,8.13-2.98,17.54-3.44,26.11-3.03ZM599.68,312.19c-8.54-.97-16,3.04-23.76,5.76-.4,1.71.3,1.16.94,1.59,1.23.85,2.7,1.38,4.06,2.44.53.42.73,1.55.86,1.61.2.1,3.77-1.62,4.22.48.37,1.7-4.99,4.65-5.76,6.1,2.45-.33,5.87.5,8.14,0,.58-.13.57-1.14,1.04-1.4,5.28-2.89,9.16-5.92,10.26-12.27-.22-.27-7.09,4.94-5.75,1.81l5.75-6.12ZM577.11,323.23c-11.55-11.6-29.5-3.34-41.5,2.99,7.25,7.48,16.44,7.49,26.26,6.83,6.83-.46,11.32-2.2,16.9-6.14.88-.62,1.02-.44.28-1.06-1.67-1.42-1.42-2.1-1.94-2.62ZM580.24,333.79c-5.05-.28-8.92-.42-13.68,1.44,3.97,5.08,11.33,5.19,17.27,5.04-.08.99-3.32,1.32-4.07,1.38-5.62.44-10.36-1.3-15.36-3.54,2.73,4.77,8.17,6.1,13.29,6.5,6.24.49,13.41.42,19.1-2.19l-1.43-1.79,4.31-1.81c.33-1.88-.27-1.11-1.02-1.5-5.21-2.68-11.02-4.66-16.98-4.25-1.3.94,6.94,3.41,7.58,3.6,1.09.33,2.16-.83,1.78,1.43-4.37.21-7.51.69-11.5-1.47l.7-2.84Z"/>
    <path d="M366.15,230.32c1.19,2.01,5.27.69,7.28,1,9.27,1.41,6,18.16,4.65,24.48-1.88,8.79-8.08,33.06-20.92,22.06-4.29-3.67-13.68-24.86-14.07-30.59-.23-3.34.55-5.93,3.56-7.79,1.66-1.03,3.54-.61,4.28-1.82-4.23-.51-14.95-9.3-8.41-12.15l9.13,4.94c-1.27-5.62-3.91-11.68-1.08-17.29,3.31-3.42,5.99,6.59,6.78,8.36.38.85-.34,1.3,1.5,1.01-.23-3.03,4.98-18.77,8.48-11.72,2.63,5.29-1.96,18.18-1.18,19.5ZM361.72,231.88c1.07-4.88,3.07-9.35,2.16-14.39-1.33.52-1.71,3.6-1.96,4.87-.38,1.94-.83,5.02-.94,6.98-.05.78-.46,2.73.74,2.54ZM355.24,229l-2.15-7.91c-.2,1.45.18,2.8.47,4.2.2.94.51,3.59,1.68,3.71ZM353.08,234.06l-6.47-2.88c.67,1.36,2.17,2.7,3.56,3.27.61.25,3.06.99,2.91-.39ZM374.57,234.9c-4.46-2.72-10.74,5.48-14.07,6.21s-12.38-1.82-13.73,2.81c-1.74,5.96,3.71,13.52,5.62,18.93,2.2.46,1.38-3.06,3.59-3.96,2.22-.89,1.27,4.37.35,5.42-.82.93-2.39.6-2.52.72-1.17,1.12,7.63,18.51,14.01,10.76,4.37-5.3,10-29.88,8.44-36.39-.19-.79-1.36-4.29-1.69-4.49Z"/>
    <path d="M453.94,295.09c2.23-.97,7.34-7.07,9.03-7.24,8.49-.83-4.77,10.99-5.43,12.99,14.21.74,15.25,5.62,12.05,18.17-1.55,6.08-4.26,11.41-8.43,16.05-11.73,13.08-18.29,11.28-24.32-4.52-1.4-3.68-6.82-18.6-6.73-21.42.2-6.04,4.68-8.51,10.14-9-1.44-1.97-6.62-3.82-4.35-6.89s11.02,6.17,11.54,5.46c.06-3.23.54-12.1,2.11-14.64.9-1.45,4.38-1.44,4.38-.12v11.16ZM444.58,303.73c-4.16.2-10.15-.12-10.11,5.35.02,2.36,6.75,21.43,8.16,24.32,2.93,5.97,4.59,8.42,10.95,4.17,7.24-4.85,14.16-19.75,13.28-28.38-.37-3.56-5.43-5.1-8.59-4.01,2.53,1.97,1.05,12.07-2.43,11.47-1.49-.25-4.63-8.19-5.5-10.04-2.18-1.65-5.97,10.01-9.03,5.79-1.51-2.08,3.56-6.17,3.27-8.66Z"/>
    <path d="M537.76,275.46c2.15-.18,3.55-1.89,5.56-2.72,3.01-1.25,12.33-4.64,15.14-5.06.8-.12,2.95.26,3.12,1.04-4.17,13.98-15.34,26.78-30.88,27.75-1.46,4.82-5.14,9-7.15,13.37-1.18,2.58-.54,7.13-4.05,5.84-1.81-.66-3.22-12.34-3.36-14.64-1.22-19.47,2.09-22.04,12.43-36.59,1.84-2.58,3.02-8.35,6.73-5.62.58.43,2.46,4.26,2.46,4.73v11.88ZM533.33,267.44c.46-.5-.04-2.59.1-3.5-12.07,11.49-16.3,25.13-12.95,41.76,1.37-.5,2.67-3.64,2.77-4.87.14-1.62-1.21-2.21-1.19-3.28.02-1.66,1.44-5.76,2.74-6.96h-1.43s1.44-1.81,1.44-1.81l-1.44-.71c2.04-4.05,3.79-8.39,5.36-12.64.69-1.85.94-5.49,1.88-6.77s2.45-.93,2.72-1.22ZM524.08,298.5c1.48.31,1.67-.73,2.3-1.66,3.91-5.78,5.22-13.49,6.54-20.1.33-1.66,2.19-3.69,1.23-6.32-1.07.18-1.39,1.32-1.79,2.16-3.81,7.93-5.65,17.53-8.28,25.92ZM555.03,272.59c-2.38.45-4.71,1.13-6.97,2.03-1.59.63-11.02,5.97-11.59,6.77-.8,1.13-2.05,8.75-3.76,10.63,3.63.03,8.2-1.44,11.16-3.6,1.98-1.45,12.55-14.31,11.16-15.83Z"/>
    <path d="M293.34,241.97c7.46-6.52,12.22-5.96,12.94,4.69.28,4.13-1.86,18.72-3.24,22.65-3.28,9.36-8.43,7.93-14.75,2.55-2.41-2.06-11.33-11.41-12.83-13.81-2.47-3.96-.72-6.77,3.06-8.94,1.28-.73,3.21-.15,3.29-1.37-1.98-.48-4.3-1.14-5.99-2.29-8.62-5.84,4.55-5.38,8.15-2.04,1.04-1.24-7.17-9.75-1.5-11.18,3.01-.76,2.47,3.76,4.38,4.69-.34-3.75-.37-4.47,3.26-5.57,3.43,2.22,2.4,7.04,3.24,10.61ZM297.59,272.15c3-8.15,4.59-19.02,3.7-27.7-.11-1.08-.08-1.8-1.11-2.46l-4.61,4.09,1.99,3.57c.98,3.36-5.47,2.64-7.3,3.29-2.11.75-2.53,3.3-6.29,1.27l.72-2.87c-6.86.12-8.4,1.71-3.97,7.2,1.92,2.38,14.49,15.29,16.86,13.62Z"/>
    <path d="M516.87,224.34c1.4,4.84,3.65,7.99,3.65,13.32,0,10.46-7.55,25.42-14.43,33.14-3.31,3.72-9.2,8.85-14.42,8.27.68-3.76-.78-7.65-.78-11.16,0-8.91,5.96-27.17,11.83-33.96,1.19-1.37,9.14-8.09,10.55-6.73l1.44,2.88-.03-5.41,2.18-.34ZM495.28,260.7c-.55,4.06.4,9.13,0,13.32,3.01.53,4.08-4.01,4.59-4.35,1.11-.76,2.49-.5,3.67-1.43,1.65-1.29,7.75-11.37,8.17-13.49.51-2.51-.76-5.34.98-8.32.65-1.12,1.96-1.24,2.59-2.45,1.02-1.95,1.96-10.25-.55-11.72-.85,4.8-3.25,9.05-4.68,13.68-2.06,6.64-2.31,13.95-6.84,19.8-.67.86-4.05,4.27-3.61,1.44l11.52-35.64c-6.41,4.61-9.59,10.37-12.24,17.63-.95,2.6-3.26,9.14-3.59,11.53Z"/>
    <path d="M406.79,300.99c.64,3.55-2.97,2.85-4.32,5.03,5.04-.13,12.48,3.97,10.25,9.88-1.06,2.79-14.16,19.07-16.8,21.38-3.93,3.43-8.81,4.99-12.49.39-1.66-2.08-6.51-15.52-7.27-18.65-2.28-9.47-1.99-19.03,10.47-17.31l-.35-2.18c3.51-4.57,7.7,3.2,10.78,3.34,2.03.1,6.53-3.31,9.73-1.88ZM388.8,305.31c-7.52-1.36-10.79-.75-10.11,7.59.29,3.55,4.87,16.72,6.59,20.04,2.5,4.82,3.95,5.14,8.17,1.87,2.29-1.78,14.03-16.52,14.94-18.9,1.95-5.08-3.3-6.39-7.27-4.75-.31,8.28-5.25,3.31-6.93-1.52-1.06,2.97-12.71,4.99-11.87,1.09.25-1.16,4.41-2.87,5.56-3.77.59-.46,1.31.01.91-1.65Z"/>
    <path d="M508.58,342.8c-4.16-4.24-8.83-12.58-10.01-18.43-1.8-8.95,6.25-5.87,11.15-3.23,6.69,3.6,15.66,11.5,19.15,18.29.87,1.69,4.43,10.51,3.63,11.58-.87,1.17-10.89.07-12.71-.35-2.43-.55-9.31-5.92-11.22-7.86ZM526.93,343.16l-9.62-2.98-14.75-17.28c2.35,12.27,12.1,26.5,25.91,25.91l-1.55-5.65ZM525.6,340.89c-3.82-6.47-9.58-11.47-15.82-15.49-.96-.62-1.43-1.42-2.9-1.05,6.79,5.35,9.1,16.03,18.72,16.55Z"/>
    <g>
      <path d="M243.94,361.78l.49-1.39c11.03,1.65,13.78,13.78,10.91,23.24-.71,2.33-1.53,4.49-4.45,4.17-3.16-.34-4.27-9.55-5.41-12.62-.87-2.34-2.35-4.37-2.91-6.82-6.4,1.81-10.29,7.83-14.59,12.03-.71.69-2.35.65-2.58,1.02-.37.58,0,2.96-.41,4.28-.67,2.17-2.35,3.53-2.57,5.71,8.78-5.08,13.63,1.59,12.97,10.46-.11,1.49-1.31,3.21-1.28,3.59.06.68,1.61,1.32,1.87,2.29.1.38-.5,6.96-.65,7.75-.77,4.25-5.45,6.24-9.33,5.43-.38.38-.54,8.56-1.04,10.12-.92,2.89-4.93,2.99-5.39,3.65-.21.29.32,5.12-.39,7.14-2.48,7.03-11.78,6.2-16.22,1.41-1.78,6.41-8.85,7.04-14.44,5.34-1.06.83-.45,6.39-4.08,7.47-2.35.7-9.3-.71-11.32-2.09-1.28-.87-.63-2.61-2.57-2.08,0,9.08-11.2,8.83-16.91,4.31-1.49,4.7-6.23,4.93-10.69,4.77-11.76-.43-10.44-12.78-2.73-18.18-3.47-7.76-.09-16.01,9.44-15.39.19-1.42-1.14-1.85-1.42-3.25-1.36-6.93,3.54-11.23,10.06-11.15-2.69-3.51,1.69-9.82,1.3-11.78-.19-.93-2.14-2-2.58-3.85-1.12-4.75,1.4-8.52,4.87-11.39,1.25-1.03,3.49-1.66,3.61-1.82.24-.32-1.34-3.99.58-7.67,1.38-2.63,4.15-3.41,5.11-4.97,1.69-2.73.08-5.29,4.03-8.21,6.22-4.6,15.96-2.46,18.8,5.02,5.65-2.45,13.93,0,15.41,6.51,5.62-2.47,11.69-3.13,15.81,2.16.82-2.12,2.9-5.17,5.05-5.78l-.09-1.36-1.33-1.12c2.91-4.17,9.98-10.51,15.02-6.96ZM251.94,384.91c3.5-9.2.7-26.13-12.23-20.15.77,1.88,4.76,1.38,5.81,2.64.65.78,2.76,6.13,3.17,7.45,1,3.22.53,7.89,3.25,10.06ZM176.57,366.41c-.72.99-1.05,3.87-.97,5.16.62,10.63,17.09,10.16,14.28-1.99-1.23-5.31-10.28-7.33-13.31-3.17ZM192.18,379.87c3.06-.86,3.9,2.43,6.14,2.87,8.73,1.72,9.94-7.79,4.45-10.93-6.21-3.55-10.41,2.22-10.59,8.06ZM174.41,378.94c-.81-.89-1.38-2.88-1.67-4.1-3.15.4-4.85,7.01-2.88,9.02,1.4,1.43,6.62,1.68,8,.04,2.49-2.95-2.21-3.61-3.44-4.96ZM216.51,375.72c-11.2,1.27-4.34,13.83,3.28,11.24,2.72-.92,3.58-12.02-3.28-11.24ZM194.99,394.2c1.21-1.06-.11-9.03-1.33-10.4-2.01-2.26-9.68-3.23-11.52-.63-1.36,1.94-.42,3.59-4.36,4.99,1.63.78,2.81-.44,4.81.16.91.27,4.98,2.75,5.98,3.46,2.11,1.49,1.34,3.76,6.41,2.42ZM212.35,390.67l-4.79-6.41-8.89,1.38c.39,2.56-.61,6.62.13,8.91.35,1.09,6.39,5.6,4.92,9.09,3.7-.15,1.14-3.59,1.44-6.05.39-3.18,4.04-6.44,7.2-6.91ZM172.75,397.16c2.55-12.47-11.78-13.43-12-1.65-.11,5.92,8.53.15,12,1.65ZM186.3,394.4l-5.9-2.92c-8.5,5.61-2.62,7.22-.31,13.09.69,1.76.76,3.75,1.3,5.56l3.59-.73c-.83-1.83-2.21-3.96-2.12-6.05.13-3.08,4.68-6.81,3.43-8.94ZM214.12,393.2c-2.98.24-6.06,3.05-5.08,6.15.12.39,3.44,5.48,3.72,5.67,2.72,1.9,7.03,2.13,8.59-1.38,3.07-6.91.34-11.06-7.23-10.44ZM231.78,402.91c.59-4.72-.34-11.4-6.46-9.33l-.02,10.04c2.67-.19,3.62-2.23,6.47-.72ZM192.91,397.16c-12.77,2.71-1.82,19.5,5.43,10.11,3.45-4.47.17-11.75-5.08-7.97l-.35-2.13ZM166.78,400.18c-6.97,1.54-6.76,16.61,1.3,17.18,12.8.89,11.56-20.02-1.3-17.18ZM215.04,409.58c-1.11-1.14-6.37-2.62-7.99-4.46l-6.21,4.99c5.92-1.83,7.59,1.32,9.04,6.51,3.57.36,8-4.14,5.16-7.04ZM230.9,416.42c1.31-1.31,1.09-5.92.49-7.71-2.22-6.63-10.72-.32-7.86,6.43,1.04,2.46,5.69,2.96,7.37,1.28ZM181.39,426.67c11.75-.38,9.21-16.59-.94-13.52-4.57,1.38.33,4.86.78,6.84.48,2.11,0,4.53.15,6.69ZM196.69,422.89c.79.91,3.97,1.11,5.19.9,4.17-.74,4.38-7.48,2.6-10.48-3.78-.91-9.72-.72-9.47,4.35.04.7,1.38,4.89,1.68,5.23ZM156.71,416c-6.6,1.4-5.25,12.32,1.93,11.38,7.01-.92,4.33-12.7-1.93-11.38ZM166.98,420.2c-.55,12.57,15.72,10.9,9.36-1.12l-9.36,1.12ZM210.9,420.93c1.04.99-6.44,11.88,6.12,10.79,5.65-.49,6.36-3.78,5.38-8.99-.88-4.67-10.46-3.94-13.66-2.17l2.15.37ZM197.92,430.97c1.92-2.01-5.71-11.59-7.59-3.62-1.53,6.51,3.36,4.02,7.59,3.62ZM205.87,425.95l-4.24.8c.3,1.46-.76,4.79-.41,5.72.23.6,1.6,1.34,2.09,2.17,1.88,3.17,3.53,8.24,7.58,9.04s6.16-3.51,5.71-7.19c-.47-1.37-4.59-1.65-6.2-2.47-2.95-1.52-5.08-4.67-4.54-8.07ZM184.09,452.42c1.82-2.21,1.04-12.32,1.62-15.29.32-1.62,1.88-2.18,2.04-2.99.12-.6-1.82-5.15-2.45-5.29l-6.8,1.43c2.97,4.45,2.86,7.93-.42,12.17-2.36,3.04-5.37,2.49-3.35,7.09,1.19,2.71,7.86,4.7,9.36,2.88ZM151.87,430.28c-6.53-.84-9.64,2.42-8.6,8.95,1.02,6.35,12.11,6.44,10.72-2.78-.44-2.94-3.64-3.54-2.13-6.17ZM164.29,431.17c-2.57,2.68.59,10.92,3.94,11.92,3.82,1.15,7.89-2.09,8.17-5.99.48-6.7-3.01-4.94-7.45-5.55-1.31-.18-2.94-2.17-4.66-.38ZM159.06,430.99l-2.87,1.07c2.64,2.2,2.23,5.18,2.16,8.3h2.16s-1.45-9.37-1.45-9.37ZM198.49,445.21c1.94-1.88,3.5-7.93.58-9.96-1.75-1.29-7.18.93-9.44,1.46-1.04,1.45-.13,7.57,1.42,8.75,1.45,1.1,6.18.98,7.45-.25ZM158.86,444.11c-3.18.93-3.25,5.68-2.13,8.3,2.25,5.26,13.09,4.07,9.81-4.05-1.52-3.77-3.32-5.53-7.69-4.25ZM139.8,456.75c13.7,6.09,14.51-14.23,1.78-10.48-3.63,1.07-3.86,7.75-1.78,10.48Z"/>
      <path d="M243.82,357.33c-.34.31-.8.42-1.2.61l-1.47-.76c1.25-3.21,2.28-6.84.9-10.24-.85-2.08-7.95-7.39-7.37-5.59,2.44,4.25,5.13,8.77,5.73,13.73.24,1.98-2.31.77-3.57,1.04-.33-5.97-3.45-11.68-6.9-16.5-.8-1.12-4.46-3.47-2.48-4.76,5.82-.69,14.85,5.48,17.6,10.52,1.77,3.25,1.55,9.42-1.22,11.96Z"/>
    </g>
    <g>
      <path d="M41.49,85.86c3.98,22.73,26.52,45.12,49.95,46.76,32.97,2.31,67.08-19.26,76.36-51.14.9-3.1,1.63-11.27,3.19-13.18,1.67-2.03,8.49-.81,6.46-7.26-.42-1.34-2.71-.51-2.09-2.6,7.96-1.05,3.79,6.48,5.14,10.35.51,1.45,2.8.09,1.88,4.22-1.87,8.45-10.22,30.56-15.37,37.2-23,29.59-68.88,42.01-102.81,24.45-12.83-6.64-26.33-25.78-30.32-39.52-1.05-3.62-4.32-14.31,2.51-9.36.56-6.63,3.03-2.87,6.9-3.49,16.41-2.62,35.15-12.03,51.98-15.04,26.1-4.59,52.3-8.42,78.65-11.37,2.24,2.92-3.43,3.64-5.5,3.88-24.3,2.88-48.98,5.37-73.01,10.51-18.12,3.87-36.09,10.52-53.91,15.57ZM161.68,110.27c1.5-.72,2.91-2.62,2.87-4.32-1.29.79-2.78,2.78-2.87,4.32ZM95.43,136.92c-7.2.81-13.82-2.24-20.87-2.88-.17,1.04,1.21.94,1.98,1.24,5.37,2.13,12.05,3.8,17.83,3.07,1.05-.13,2.23-.55,1.06-1.44Z"/>
      <path d="M96.72,98.6c-6.25,3.54-.51-9.81,1.22-11.37,1.6-1.44,4.29-1.02,3.66,1.47-.2.78-4.4,9.62-4.88,9.89Z"/>
      <path d="M83.19,83.64c2.18,4.46-9.81,11.16-11.51,7.55l7.93-7.17,3.58-.37Z"/>
      <path d="M113.49,95.09c-.85-3.74-2.22-7.7-.77-11.45,2.66-1.88,7.84,13.59.77,11.45Z"/>
      <path d="M135.03,85.07c-1.9,1.76-10.18-6.3-7.23-8.31,3.43-2.33,7.42,5.45,7.23,8.31Z"/>
      <path d="M139.21,70.86c.23.08,2.27,2.6,1.58,3.41l-4.3-2.52c.81-1.07,1.38-1.37,2.73-.89Z"/>
    </g>
    <path d="M283.36,143.13c1.07,1.09-3.01,8.51-3.95,9.36-1.81,1.63-4.6.95-3.4-1.95.61-1.48,5.23-9.57,7.35-7.41Z"/>
    <path d="M276.88,133.05c.33,2.6-.2,2.87-2.12,4-2.79,1.64-5.93,3.01-8.68,1.02-.21-2.76,10.02-5.79,10.8-5.02Z"/>
    <path d="M294.16,148.17l-.84,8.16-2.29,1.1c-3.68-.95-1.64-10.93,3.12-9.26Z"/>
    <path d="M307.84,155.36c-5.63.99-5.73-12.65-.66-9.05l.66,9.05Z"/>
    <path d="M320.61,145.46c1.5,1.42.25,3.51-1.98,3.15-2.54-.42-5.85-2.32-4.97-5.42,1.13-1.55,5.91,1.28,6.95,2.27Z"/>
    <path d="M261.04,125.12c-2-2.66,9.44-3.08,10.07-1.07,1.31,4.21-8.13,1.26-10.07,1.07Z"/>
    <g>
      <path d="M170.21,216.78c1.03,1.16-4.93,7.14-5.91,8.84-.49.85-3,6.73-2.73,6.99,12.84-2.42,25-3.79,33.82,7.58,13.77,17.76-6.94,57.35-28.62,59.9-11.24,1.32-29.35-4.37-36.37-13.67-9.69-12.82-10.27-36.48-2.33-50.23,7.6-13.16,17.37-6.4,29.17-3.58,1.12-5.03,3.7-10.24,7.23-14.01,2.23-2.39,2.22-2.78,5.74-1.82ZM156.43,236.31c-.62-1-15.62-4.4-17.58-4.32-4.76.18-9.43,10.79-10.23,14.83-3.48,17.68-1.11,38.79,17.64,46.1,16.69,6.51,26.89,5.24,38.33-8.85,7.86-9.68,15.45-30.9,7.2-41.72-8.14-10.68-18.66-7.42-30.22-6.14-.6,3.01.65,4.86,1.44,7.53-5.21,4.11-6.62-3.28-6.58-7.43Z"/>
      <path d="M149.08,242.79c4.28-1.37,7.25,4.24,13.5,3.44,2.35-.3,6.63-3.37,7.62.4-6.57,5.66-16.38,3.2-22.31-2.16-.17-.8.49-1.46,1.19-1.69Z"/>
    </g>
    <path d="M109.52,342.92c1.43-.33,4.96-.42,4.52,1.64-2.23,4.84-18.16,6.05-19.41,2.15-1.57-4.88,7.99-.89,9.64-1.06,2.1-.22,3.39-2.3,5.25-2.73Z"/>
    <path d="M573.75,323.71c-.2,3.94-4.91.93-7.56.72-2.12-.16-5.09-.2-7.19,0-6.22.6-11.53,4.42-17.65,4.31l.42-2.22c5.46-.74,10.34-3.69,15.87-4.16s10.46,1.12,16.1,1.35Z"/>
    <path d="M361.37,257.1c1.52.73,3.47,5.89,1.43,6.46-2.92.81-4.41-5.29-1.43-6.46Z"/>
    <polygon points="361.66 252.69 358.94 252.31 358.85 247.01 361.38 247.71 361.66 252.69"/>
    <path d="M354.46,252.71l-2.09.06c-.33-6.55,5.82-8.02,2.09-.06Z"/>
    <path d="M369.64,247.72c-1.23,1.29-3.51-2.06-3.98-2.89l1.47-2.13c1.24.64,3.54,3.95,2.52,5.02Z"/>
    <path d="M367.14,254.21c2.29-.59,4.48,2.99,2.14,3.6s-4.48-2.99-2.14-3.6Z"/>
    <path d="M361.01,269.32c.81-1.9,2.84-3.18,4.31-1.06l-4.31,1.06Z"/>
    <path d="M371.09,242.68v-2.15c3.6-.27,3.6,2.42,0,2.15Z"/>
    <g>
      <path d="M425.51,220.66c1.5-1.68,7.52-9.04,9.75-5.8,2.3,3.35-4.63,13.1-3.99,13.71,2.99-.53,6.16-1.66,8.24,1.48.52.79,2.46,6.63,2.51,7.57.23,4.99-3.76,12.28-6.56,16.38s-18.97,18.82-23.67,12.94c-3.43-4.3-3.5-13.91-4.45-19.12-1.34-7.39-8.07-20.01,5.93-17.1l-4.32-7.57,1.88-1.82,6.75,4.35c.47-3.06,3.51-17.24,6.86-17.15,3.12.09,1.38,9.98,1.08,12.11ZM408.22,233.62l4.37,25.52c2.03,5.71,1.89,7.48,7.83,4.32,9.71-5.16,21.67-20.06,15.58-31.36-1.81-1.51-10.45,1.16-10.26,4.04,7.79,6.95-3.67,13.38-7.05,8.25-2.82-4.27-.22-12.08-10.47-10.77Z"/>
      <path d="M434.86,243.71l-2.78-.1c-.07-1.03-.8-2.3-.78-3.21.02-1.04,1.91-2.46,2.49-2.44,1.45.06,1.11,4.71,1.07,5.75Z"/>
      <path d="M416.86,240.11c.43,2.27-1.07,4.84-3.59,5.03l.31-4.36,3.28-.67Z"/>
      <path d="M426.23,254.5l-.67-3.85c1.1-3.78,7.15,1.79.67,3.85Z"/>
      <path d="M418.66,247.32c1.46.03,1.55,6.17-1.44,5.02-2.36-2.11-.92-4.02,1.44-5.02Z"/>
    </g>
    <path d="M420.04,277.25c.85,3.97-3.42,5.36-3.59,1.08l3.59-1.08Z"/>
    <path d="M537.76,283.38c-1.48-1.52,8.08-5.51,9.18-5.63,7.61-.82-5.93,8.94-9.18,5.63Z"/>
    <path d="M501.75,255.3c-1.9,1.31-1.75-10.79,1.8-10.07,3.17.64-1.06,8.62-1.8,10.07Z"/>
    <path d="M647.95,244.04c1.19-.2,6.16-.18,7.04.5,6.19,7.92,12.77,15.53,20.11,22.41,18.54,17.4,57.68,43.4,53.59,73-.39,2.82-2.32,5.17-2.76,7.98-11.85,4.85-26.04-2.9-35.86-9.56-23.69-16.06-45.14-37.04-64.26-58.14-2.93-3.23-7.5-4.77-6.37-10.6,1.72-8.92,19.59-24.11,28.5-25.59ZM643.09,264.05c.9.71,12.83-13.92,9.42-16.98-2.48-3.1-10.56,2.7-13.75,3.31,2.1,2.07,1.36,4.98-.37,7.19-3.33.44.4-6.08-2.14-5.03-3.16,1.3-15.06,15.51-13.94,19.63.26.95,2.71,3.31,3.82,3.37,4.19.21,12.79-6.27,15.4-9.68-4.68-4.7.22-9.95,1.57-1.81ZM718.67,314.45c.19-1.31-.91-2.1-1.58-3.09-13.28-19.79-34.62-32.71-51.26-49.54-3.54-3.58-6.42-8.02-10.16-11.44l-2.22,6.49c4.84,3.22,10.22,7.46,14.48,11.49,2.92,2.76,5.45,6.33,8.24,9.04,3.86,3.75,30.98,29.32,30.96,31.66,0,1.07-1.51.94-2.33.35-1.41-1-3.54-3.74-5.22-5.02-3.99-3.05-8.03-5.59-11.88-9-12.57-11.15-23.86-24.98-36.35-36.36l-11.86,13.31c3.79,4.6,9.55,6.89,14.01,10.46,4.8,3.84,14.05,11.53,18.04,15.8,7.1,7.6,14.83,22.14,21.95,31.33,1.73,2.24,4.96,3.45,4.3,6.85-.84.88-4.95-2.49-5.8-3.21-9.49-8.02-17.21-20.72-25.86-29.56-5.92-6.07-13.26-11.08-19.21-17.15-3.44-3.52-6.67-8.26-10.01-11.99-.99-1.1-1.31.09-2.47,0l6.73,8.38c11.49,10.23,22.76,20.79,32.13,33.02l-1.77,1.09c-2.32-1.33-4.74-2.46-7.09-3.73-.95-.51-4.02-4.07-3.01-.59,14.15,9.61,38.07,33.93,55.53,34.47.88.03,5.35-.17,4.6-2.08-1,.07-1.79.84-2.86.39-.41-.17-6.35-4.49-7.15-5.13-3.63-2.94-8.46-7.72-11.96-11.08-1.63-1.57-3.75-3.32-4.67-5.41l1.76-.33,1.49-1.51c9.68,4.71,16.17,15.19,24.12,21.28.72.55.91,1.39,2.16,1.07,2.02-4.23,2.01-12.07.09-16.28-1.54-3.37-9.87-9.78-11.64-12.84-3.6-6.25,3.19-3.58,5.79-1.12ZM651.47,300.3c-6.43-6.45-12.63-11.74-19.17-18.63-.66-.7-4.26-4.7-5.06-3.93,9.07,12.06,20.12,22.36,31.33,32.39l1.07-.35c-3.12-2.65-5.35-6.64-8.17-9.47ZM656.75,290.69l-1.43-2.53-9.37-6.82,2.87,3.24,7.93,6.11ZM661.08,293.56c.49-.37-2.59-2.58-3.6-2.15v1.43s3.6.72,3.6.72ZM670.02,301.91c-.63-.7-1.02-1.58-1.7-2.25l-7.24-5.37c-.31,1.35.76,1.71,1.44,2.52,3.87,4.63,9.15,8.23,12.6,13.32.56-1.15-1.3-3.56-1.94-4.53-1.03-1.54-2.01-2.41-3.16-3.68Z"/>
    <path d="M534.68,122.72h1.06c1.68-.61,8.97-10.22,10.34-6,.4,1.24-.39,7.61-.78,9.07-1.04,3.83-3.65,6.12-7.75,5.58.34.85.68,1.52.74,2.49.54,7.97,3.66,17.98,6.83,25.57,1.27,3.06,6.27,13.61,8.27,15.49.51.48.8,1.23,1.7,1.03,8.97-7.61,18.3-10.02,21.17,4.18,3.17,15.69-4.68,29.33-22.19,25.79-4.41-.89-6.13-4.02-9.65-6.13-12.3,5.17-27.73-1.7-29.11-15.59-1.13-11.29,6.19-13.75,15.84-14.38,1.04-4.87.68-9.97,1.55-14.87.57-3.19,2.24-6.46,2.62-9.62.69-5.85.03-11.83-1.48-17.44-6.84-1.22-16.03-4.71-19.22-11.38-1.26-2.63-.54-5.25-3.68-7.11,2.85-3.1,5.99,1.62,8.58,2.92,5.26,2.64,13.58,3.7,15.17,10.4ZM533.23,125.59c-2.52-6.63-9.95-8.4-15.84-10.79,3.11,5.59,9.82,9.15,15.84,10.79ZM542.59,121.29c-.81-.91-8.98,6.29-4.68,8.62,3.62-1.55,4.33-5.02,4.68-8.62ZM546.91,170.24l-9.35-21.59c-2.07,7.32-3.44,14.74-4.33,22.31,4.7-.41,8.95-1.7,13.67-.72ZM563.47,194c2.11,2.18,6.43-10.69,1.08-11.53-1.54-.24-1.17.61-1.02,1.73.51,3.7,1.67,5.9-.07,9.8Z"/>
    <path d="M653.26,79.27c.26,4.77-2.87,9.68-5.77,13.3-6.1,7.63-8.75,4.76-4.11,16.38,4.61,11.56,12.03,21.57,15.85,33.83.55,1.76,1.21,7.27,1.56,7.8,2.01,3.02,9.59-5.72,13.76,1.36,2.36,4.02,2.92,10.96,2.47,15.52-.89,9.02-7.4,15.14-16.28,16.12s-14.99-.35-17.56-9.27c-2.83,2.91-5.8,6.01-10.03,6.88-6.65,1.37-16.57-.41-20.08-6.64-6.84-12.13-6.06-26.28,11.41-24-.1-5.39.42-11.33,1.79-16.57,2.15-8.2,8.39-15.56,9.54-24.3.4-3.02.06-9.36-1.23-12.08-1.88-3.99-15.94-14-15.85-15.1.06-.79,1.67-1.13,2.49-1.13,2.39,0,14.94,7.85,16.26,10.82l1.02.03c2.44-2.67,4.22-5.75,6.84-8.28,1.17-1.13,6.65-5.94,7.92-4.67ZM638.87,97.98c3.93-3.59,8.44-8.51,10.07-13.68-4.09,3.44-8.37,8.56-10.07,13.68ZM657.58,149.1l-5.62-16.33-13.09-26.14c-.47,13.5-10.91,23.28-11.52,37.09-.06,1.43-.62,5.52,1.67,5.29,2.78-1.45,5.46-3,8.74-2.81,2.67.15,4.19,1.97,5.85,2.19,2.36.31,4.8-1.63,7.83-1.47,2.63.14,3.86,1.63,6.14,2.18ZM626.63,159.18c-1.18-8.89-14.81-6.73-14.36,2.43.52,10.54,8.76,18.65,19.59,16.84,15.67-2.62,16.57-41.48-3.7-24.51l.63,5.24c.88.94,6.34-5.42,6.48-1.78.09,2.39-5.1,5.35-7.55,5.45s-4.79-.48-6.04-2.7l.99-2.41,3.94,1.44ZM658.3,161.35c-.28-2.32.78-5.75-.72-7.56-1.98-2.39-8.95-4.78-11.55-2.05-.21,2.44.84,4.66.82,7.08-.02,3.06-2.42,10.16-2.09,12.1.13.8,3.17,6.04,3.89,6.93,4.63,5.77,18.26,3.14,22.62-2.47,3.71-4.77,3.6-13.57,1.81-19.09-2.17-6.7-6.34-2.22-11.08-1.35l-.08,6.4,5.03-.71c.64,2.4-1.42,2.76-3.44,3.39-4.82,1.5-10.11,1.52-12.39-3.74,2.55-3.12,4.02,2.12,7.19,1.07Z"/>
    <path d="M446.19,83.64c5.67-5.95,12.35-10.34,18.72-15.47,1.47-.69,3.24-.78,4.29.7-4.69,5.48-8.02,15.39-15.13,18-1.35.49-6.33.58-6.51,1.55l6.54,44.18c8.21-4.2,18.39-6.96,20.09,5.46,2.82,20.66-23.92,35.08-34.96,14.02-10.6,5.05-23.32,4.72-26.7-8.52-1.81-7.07-1.46-14.77,6.29-17.8,5.77-2.26,5.97-.36,10.43.72,1.3.31,4.2-1.69,3.99,2.16l-1.47.71c.97,1.22,1.2,1.3,2.17.01,2.12-2.82,5.98-13.49,7.2-17.28,5.66-17.54,4.28-23.53-8.28-37.11-2.14-2.31-9.04-5.39-3.75-7.08,6.71,5.07,15.74,5.48,17.06,15.74ZM449.78,85.8c5.16-1.11,9.06-6.02,10.79-10.8-1.01.81-12.08,9.62-10.79,10.8ZM442.57,82.92c-.56-3.21-2.97-6.84-6.47-7.19l6.47,7.19ZM451.22,135.48l-5.75-28.79c-.91,7.11-4.91,13.09-7.16,19.75.23,1.06,6.46,2.19,7.89,3.64,1.38,1.39.09,4.19,1.38,5.1l3.64.31ZM438.26,139.09c-6.68-.47-8.07-10.3-14.04-10.84-10.19-.92-10.5,12.07-6.13,18.39,4.98,7.19,13.18,5.67,20.11,2.44-.33-3.74-2.41-6.41.06-9.99ZM436.11,129.72c-1.71,3.88.1,6.94,4.48,6.34,8.38-1.15-.37-6.33-4.48-6.34ZM456.98,136.2c-1.41,6.22-8.75.81-12.43,1.56-7.7,1.57-.87,16.11,3.42,19.32,5.66,4.24,15.45,1.85,19.4-3.65,3.12-4.35,5.13-12.8,2.72-17.74-3.62-7.41-9.85-1.21-15.27-.2l2.16.71Z"/>
    <path d="M1172.21,207.41l9.96-29.28,6.97-12.47c.98,1.53-1.57,3.33-2.17,5.03-.62,1.76-.69,3.99-1.27,5.93-.53,1.78-1.89,3.05-1.95,4.88,2.79-1.55,4.81-4.12,7.19-6.13.57-.48,1.45-1.89,2.16-.72-2.43,4.67-7.05,7.68-10.08,11.52-4.75,6.02-5.9,14.63-7.91,21.96l4.87-8.44c.55.1,2.97-5.8,3.04-2.74-3.94,7.68-8.04,15.8-10.44,24.14-2.88,9.98-2.78,21.39-4.68,31.69-1.79.61-2.19-2.03-2.19-3.26-.03-4.37,3.14-15.08,2.21-18.55-.16-.62-1.55-.61-2.19-2.28-.98-2.54-3.19-15.61-3.49-18.84-1.56-16.83,6.54-38.58,18.7-50.24,11.31-10.84,26.47-16.84,25.88,5.72-.41,15.65-7.48,28.33-16.01,40.87-5.76,8.47-13.58,16.36-17.88,25.69-1.31.18-.6-1.5-.4-2.2,2.79-9.8,14.21-20.93,19.86-29.82,8.85-13.92,14.2-30.06,9.01-46.48-5.89-5.92-22.65,12-25.88,16.65-12.46,17.96-10.9,35.21-8.14,55.53.11.8.2,3.51,1.22,3.44.47-3.37,2.14-7.9,2.19-11.19.04-2.64-1.43-5.41-1.45-7.89-.1-9.69,1.84-23.36,5.96-32.19.12-.25,3.17-6.62,3.38-3.82-1.53,2.82-2.93,6.1-3.78,9.19-.61,2.22-2.69,10.03-2.69,11.71v12.6Z"/>
    <path d="M1082.45,243.65c3.75-3.63,11.7-1.83,15.57.86,1.14.79,8.49,8.93,9.68,10.48,15.66,20.14,15.28,41.63,22.51,64.61,2.44,7.75,8.07,16.62,10.14,24.42.3,1.15,1.07,4.98-.19,5.94l-12.69-28.34c-16.98-12.21-32.01-28.33-41.35-47.21-3.6-7.28-10.48-24.16-3.68-30.75ZM1123.96,306.76c-2.58-10.89-3.59-21.49-8.08-31.87-4.03-9.32-16.87-29.67-27.63-30.73-3.35-.33-5.21,1.58-5.87,4.81-1.92,9.41,6.2,24.5,11.06,32.53,7.92,13.11,17.66,25.44,30.53,33.9,1.34-1.65-13.92-32.12-21.59-30.97.85-2.63,2.77-.38,4.31-1.07l-18.71-23.05.35-1.07,13.69,15.11c1.58.3,1.07-.73,1.1-1.81.09-3.04-1.37-5.96-1.11-8.98l6.44,15.16,15.51,28.03Z"/>
    <path d="M1240.68,250.54c3.18,3.62-.65,11.6-2.83,15.18-12.42,20.34-40.97,24.3-60.84,34.22l-.95-1.32c15.64-8.87,34.24-12.02,48.9-22.75,6.02-4.41,14.01-13.05,14.4-20.91.18-3.63-5.21-5.29-8.21-5.32-4.95-.05-27.86,9.24-32.3,12.36-5.68,4-14.7,14.35-18.76,20.12-.56.8-2.46,2.58-1.52,3.52,6.14-6.35,12.69-12.48,20.15-17.29,6.91-4.45,12.22-7.04,20.35-8.47,1.44-.25,1.29.88.9,1.27-.55.56-12.43,3.81-14.89,4.92-5.74,2.58-11.79,8.01-16.45,12.35-5.22,4.87-9.85,10.31-14.74,15.5l9.35-2.89-12.02,8.51-5.98,8.81,1.44,1.4c-3.81,3.7-4.18,10.13-5.65,15.21-.51,1.75-1.14,2.03-1.75,5.47-.16.88-.18,3.47-1.23,3.44-.41-3.81.35-7.14,1.07-10.8.82-4.18,4.27-11.89,4.45-14.85.11-1.79-.65-4-.48-6.37,1.91-25.96,40.8-51.07,64.49-54.3,2.69-.37,11.46,1.13,13.09,2.99ZM1184.69,271.97c-2.39.38-4.31,3.27-5.76,5.03l2.17.38c.17-.12,1.29-3.42,1.54-3.81.07-.11,2.53.79,2.05-1.59ZM1179.65,278.45c-1.56-1.4-7.96,5.64-5.75,7.9-2.72.16-3.74,1.63-3.6,4.33l2.28-1.67,7.07-10.56ZM1170.3,292.13c-2.35-1.8-3.72,4.55-3.59,5.75l3.59-5.75Z"/>
    <path d="M888.25,147.9c13.55-4.49,25.9-13.53,27.91-28.62,1.83-13.75-2.76-41.35-10.96-52.78-7.82-10.9-9.05-.1-13.32,5.46-6.24,8.13-19.76,13.19-24.38,21.7-2.02,3.71-4.79,15-5.16,19.32-1.1,12.8,8.15,26.86,18.7,33.48.97-4.76-1.35-8.42-1.95-12.8-1.77-12.78-.9-24.95,1.24-37.6,1.22-.02,1.57-.41,1.39,1.01-1.66,13.14-2.13,25.4.06,38.58l3.42-12.05,2.34-16.75c1.24.04,1.51-.48,1.27.9-.55,3.16-1.65,6.74-.92,9.89,4.66-5.93,7.84-12.52,8.29-20.15,1.24-.18.77,1.71.71,2.5-.17,2.21-1.19,4.46-.71,6.85l6.47-8.64c-.89,11.99-15.04,18.58-15.83,30.96.25.34,5.58-5.27,7.19-3.96-.76,3.27-8.17,7.16-8.99,9.01-.3.68-1.06,6.47-1.09,7.57-.21,9.48,2.76,22.13,6.69,30.74,1.69,3.7,7.73,8.44.53,10.31-6.51,1.69-5.72-5.2-7.36-9.24-1.1-2.7-2.87-4.73-3.72-7.8-1.56-5.64-.02-12.32-1.32-16.68-.6-2.02-5.75-5.17-7.43-6.97-5.17-5.53-11.89-18.59-11.81-26.18.05-4.8,3.88-19.08,6.06-23.51,4.12-8.34,15.19-13.16,21.97-19.79,3.91-3.83,6.61-8.85,10.96-12.41,6.2-2.65,12.88,12.08,14.43,16.52,8.76,25.08,12.7,52.89-12.49,69.28-2.73,1.78-9.71,4.7-12.19,1.85Z"/>
    <path d="M759.25,285.96l.48-2.17,7.43-2.86c-8.8,1.67-18.34,2.06-26.14-3.03-9.76-6.38-12.16-20.53-7.71-30.82-3.66,2.16-5.33,6.38-5.74,10.45-1.74,17.19,8.7,30.58,26.59,28.74.98-.1,1.71-1.03,1.47.76-5.97,4.15-16.43.64-21.6-3.58-8.43-6.87-12.41-24.09-6.93-33.59,6.23-10.8,30.42-21.19,41.99-15.87,6.42,2.96,14.27,14.84,13.94,22.05-.19,4.04-4.04,15.54-6.15,19.05-3.45,5.78-10.85,10.46-17.64,10.86ZM757.55,235.1c-7.13.99-19.52,8.27-20.57,16.01-2.73,20.11,12.36,31.62,31.08,24.6,10.7-4.01,14.3-19.09,9.68-28.78-1.93-4.06-8.29-10.92-12.72-11.79-1.07-.21-6.38-.19-7.47-.04Z"/>
    <path d="M1136.21,211c2.05-4.95,6.83-8.35,8.14-13.81,2.57-10.7-3.28-37.7-9.93-46.69-1-1.35-7.75-7.95-9.01-8.34-5.38-1.67-10.13,9.66-11.56,13.73-6.2,17.66-4.71,44.39,12.64,55.1l1.78-1.43.72,5.03c-16.26-5.37-22.43-27.26-20.68-42.64.85-7.48,6.9-31.63,16.06-32.23,3.77-.25,11.39,8.59,13.4,11.73,6.62,10.32,11.93,35.49,8.73,47.18-.54,1.99-8.23,14.36-10.31,12.36Z"/>
    <path d="M1131.18,187.96c2.11-1.5,1.34-5.54,1.88-8,.56-2.59,1.3-7.55,4.59-7.83-2.88,7.56-2.54,15.57-4.33,23.39,1.7.47,2.01-5.14,4.32-3.6-1.91,3.56-4.53,8.7-5.44,12.56-2.48,10.54,1.58,20.51,2.56,31l-2.22-.41c-.79-1.13-2.58-14.3-2.75-16.63-.54-7.3,1.23-19.27-.21-25.64-.75-3.34-7.29-12.02-9.12-16.08-.34-.75-4.53-11.97-1.54-9.63l2.76,8.41,6.6,11.75-5.4-38.16h1.44s6.85,38.88,6.85,38.88Z"/>
    <path d="M1128.29,208.84c-2.25.37-1.12-.63-1.4-1.81-.66-2.8-1.39-5.65-2.55-8.27-1.16-2.61-3.82-4.88-3.96-7.91,1.83-1.92,6.75,10.18,7.03,11.32.5,2.02-.05,4.53.88,6.67Z"/>
    <path d="M1036.6,244.42h-.7c-.04-1.54-.42-3.73,1.43-4.32l-.72,4.32Z"/>
    <path d="M648.7,267.82c.23.14.53,1.44,1.2,1.99,22.49,18.51,44.52,32.32,64.11,54.72,1.42,1.62,7.71,8.14,6.48,10.1l-2.53.36c-24.4-21.7-49.5-42.56-75.43-62.43l-.17-2.01,2.14.37c19.91,15.87,39.47,31.95,58.72,48.56.7.6,4.85,4.1,5.38,3.61-1.69-1.7-3.04-4.09-4.68-5.75-5.15-5.2-12.03-11.43-17.63-16.21-12.91-11.04-28.6-19.44-39.6-32.4-.42-1.51,1.3-1.33,2.01-.9Z"/>
    <path d="M642.36,256.84c-1.46-2,6.2-3.46,6.47-1.78.4,2.44-4.92,2.93-6.47,1.78Z"/>
    <path d="M634.81,264.77c3.51-.12,0,6.44-.73,6.46-2.17-.88-.37-6.21.73-6.46Z"/>
    <path d="M635.87,260.46c.08,2.97-3.33,2.45-5.05,1.07l.39-1.81,4.66.74Z"/>
    <path d="M648.12,249.66c-1,2.12-1.45,4.45-4.32,4.31-.3-2.38,1.92-4.58,4.32-4.31Z"/>
    <path d="M630.83,265.49c.55,3.1-1.97,3.09-4.31,2.87-.69-1.92,4.04-3.17,4.31-2.87Z"/>
    <path d="M759.06,257.7c-5.25,5.25-16.85-14.81-7.55-13.36,4.2.65,10.17,10.74,7.55,13.36ZM757.08,255.72c.8-2.13-4.28-10.35-6.47-8.63.98,3.73,3.34,6.46,6.47,8.63Z"/>
    <path d="M769.82,259.55c5.43,4.8,1.25,13.91-6.28,7.36-8.39-7.29.2-12.74,6.28-7.36ZM762.84,260.05c-.04,1.8,6.49,9.04,7.2,5.38.43-2.18-4.71-6.39-7.2-5.38Z"/>
    <path d="M753.48,261.48h4.32c.44,4.52-8.42,11.19-12.05,7.74-.46-.44-1.53-2.99-1.47-3.66.27-3.14,10.04-9.62,9.21-4.07ZM754.2,264.37l-4.58-1.37-2.61,2.45,1.94,1.7c1.17.31,4.55-1.49,5.24-2.77Z"/>
    <path d="M766.23,246.5c7.87-2.36,2.49,11.3-4.1,8.15-3.51-1.68,2.33-7.62,4.1-8.15Z"/>
    <g>
      <path d="M823.79,288.38c10.81,11.45,13.27,35.29-1.68,44.26-6.14,3.68-18.78,6.65-25.22,3.16-1.86-1.01-9.28-8.4-10.61-10.27-8.35-11.73-7.87-34.32,6.3-41.13,10.74-5.15,22.73-4.98,31.2,3.98ZM821.63,323.16c10.28-11.91,3.07-33.2-11.83-37.71-8.27-2.5-21.07,1.14-24.54,9.62-4.39,10.72-2.15,24.83,7.09,32.32,7.66,6.21,23.17,2.86,29.29-4.22ZM827.63,319.08c.96-3.1,2.72-5.93,2.16-9.35l-2.55,7.17.38,2.18Z"/>
      <path d="M806.06,304.68c-1.51,5.38-14.37,3.8-15.08-2.44.57-2.52,11.15-2.53,13.46-1.33,1.79.93,1.04,2.79,3.05,2.33-.69-3.1.63-9.74,4.65-9.39,6.73.58.53,17.14-6.07,10.84ZM811.07,301.08c.3-.32.77-2.86.72-3.59-1.65.46-1.53,2.28-1.43,3.6.23-.04.61.1.7,0ZM803.16,303.25l-7.91.35c.83,1.22,1.95,1.01,3.2,1.12.79.07,6.92.2,4.72-1.47Z"/>
      <path d="M806.04,308.28c4.81-.36,10.14.1,10.1,6.13-.06,9.07-13.13,1.36-10.1-6.13ZM812.52,314.76c.34-2.3-1.36-3.9-3.6-3.59-.21.16,2.05,4.28,3.6,3.59Z"/>
      <path d="M793.18,318.99c-3.5-5.51,14.48-14.54,9.79-3.34-1.22,2.92-8.23,5.79-9.79,3.34ZM801,313.33c-1.22-.51-5.28,2.57-4.31,3.59,1.7-.74,3.48-1.85,4.31-3.59Z"/>
    </g>
    <g>
      <path d="M958.6,445.38c-2.99-2.89-14.21-13.76-14.97-17.07-1.14-4.98.75-11.35,3.86-15.28.9-1.14,2.38-3.05,3.91-1.85-5.59,6.32-4.61,17.11.97,23.16,5.21,5.64,24.94,15.7,32.51,15.94,8.79.28,23.47-1.27,31.88-3.96,31.9-10.22,57.39-41.22,53.23-75.96-2.81-23.52-29.93-39.81-49.49-23.25-2.41,2.04-3.29,5.45-6.47,4.68l.72-2.15c-7.14.05-16-3.35-19.07-10.1-1.48-3.26-5.43-14.76.35-14.39-.46,9.65,4.33,19.48,14.09,22.27,7.84,2.24,7.45-2.43,13.52-5.83,12.86-7.23,30.39-4.23,39.66,7.38,20.44,25.61,6.33,65.03-16.52,84.16-21.62,18.09-57.59,26.78-83.86,15.14-.24-.25-.44-.51-.72-.72-.53-.41-1.24-.55-1.44-.72-.12-.05-.84-.86-2.16-1.44Z"/>
      <path d="M962.92,448.26c.44.47.68,1.74,1.42,2.52,2.55,2.7,5.64,4.12,6.46,8.68.73,4.05.32,15.75-4.65,16.87-4.58,1.03.57-4.12.93-4.83,1.46-2.86,1.48-9.58.71-12.63-.99-3.9-10.24-10.52-13.95-11.97-11.65-4.56-21.93,6.39-33.77,4.97s-11.57-27.83-6.45-35.3c3.43-5.01,14.47-7.55,19.84-4.67.9.82-1.84,5.5,3.6,9.31,1.32.92,6.05,2.07,5.71,3.64-.68,3.08-8.19-1.64-9.38-2.84-2.27-2.29-3.23-5.1-2.85-8.31-4.65-.36-11.29.96-14.42,4.67-3.44,4.08-2.89,16.92-1.82,22.02,3.5,16.73,21.76,2.68,31.7,2.09,4.42-.26,8.64,1.16,12.63,2.9,1.19,1.15,1.75,1.1,2.16,1.44.44.19.89.49,1.44.72.23.1.45.6.72.72Z"/>
      <path d="M947.8,409.37c-6.23-2.69-9.46-5.95-16.77-3.45-4.24,1.45-4.79,1.2-8.73,2.07-9.92,2.19-14.56,6.14-16.79,16.33-2.78,12.69,1.66,30.84,16.18,33.85,11.49,2.38,17.35-9.16,29.9-7.57,9.29,1.17,18.61,9.17,12.66,18.77-.8,1.28-6,6.7-4.78,2.42,1.22-4.29,5.01-7.96.89-12.69-8.75-10.05-22.25,3.1-31.82,4.14-33.03,3.59-36.6-55.71-6.66-58.63,1.87-.18,3.22.62,4.64.45s3.59-2.3,5.98-2.72c5.22-.9,15.23.24,15.3,7.02Z"/>
      <path d="M1003.11,360.55c-.26,4.28-2.44,8.04-2.77,12.44-.59,7.9,2.35,15.6,2.18,23.43-2.64-.57-6.36-1.42-8.99-1.5s-8.44.49-11.17,1.14c-7.11,1.71-14.51,6.89-20.87,10.44-1.23-1.27,7.35-7.17,8.4-7.79,9.38-5.55,19.6-8.11,30.47-5.89-5.8-8.69-4.3-20.98-1.38-30.48-9.25-5.57-13.88-20.09-13.05-30.39.13-1.66.2-3.03,1.45-4.3,3.11-1.92,2.14,8.06,2.38,9.9,1.1,8.51,5.72,18.51,13.35,23.01Z"/>
      <path d="M1044.86,399.67c1.68.18,2.12,4.64,3.02,5.88,1.08,1.48,5.15,2.9,2.33,4.56-2.73.74-4.42-2.78-5.46-2.86-3.66,2.38-11.45,6.53-15.8,6.05-1.63-.18-8.99-2.13-8.81-3.81.3-2.84,8,1.03,10.27,1.08,2.82.06,12.89-3.71,13.34-6.96.08-.58-1.44-4.2,1.1-3.94Z"/>
      <path d="M1022.87,394.07c1.95,2.08,7.22,1.61,9.89,1.63,2.55,2.31-8.7,3.18-11.48,1.04-.92-.7-1.87-3.32-2.03-4.47-1.48-10.22,15.78-12.11,16.4-9.17.51,2.44-4.56,1.62-5.95,1.96-3.4.84-11.15,4.39-6.82,9.01Z"/>
      <path d="M1012.6,386.33c-1.71-1.69,3.62-8.61,3.66-2.52.02,2.46-2.77,3.4-3.66,2.52Z"/>
      <path d="M1052.92,382.73c-.13-1.29-.38-5.48,1.79-5.03,2.09,1.69,1.52,5.74-1.79,5.03Z"/>
      <path d="M1006.01,383.81c7.27-.18,14.51-.87,21.7-1.99l-2.82-3.67c-.27.58-.59,1.19-1.09,1.57-1.08.81-1.64,2.16-.9,3.42.62,1.06,2.34,1.72,3.42.9,1.22-.92,2.24-1.97,2.89-3.37.96-2.08-.61-4.02-2.82-3.67-6.74,1.05-13.55,1.64-20.37,1.82-3.21.08-3.22,5.08,0,5h0Z"/>
      <path d="M1003.91,383.56c.97,1.93,2.25,3.9,3.87,5.34,1.81,1.62,4.04,2.36,6.46,2.29,1.12-.03,2.25-.21,3.35-.41,1.39-.25,2.47-.78,3.11-2.1.21-.43.43-.84.69-1.24.12-.19-.09.07.16-.21.17-.19.35-.38.53-.56.39-.38,1.32-.96,1.73-1.11,1.16-.43,1.99-1.45,1.79-2.74s-1.18-2.1-2.46-2.17c-4.91-.24-9.85.29-14.61,1.52-2.68.69-2.2,5.06.66,4.91.88-.05,1.5.02,2.34.23.42.1.83.23,1.24.36.21.07.41.13.61.2.1.03.2.07.3.1.39.14.22.04-.52-.31l-.73-1.77.02.17.34-1.26-.08.15,1.49-1.15-.15.04c-1.31.32-2.1,1.8-1.75,3.08.37,1.34,1.76,2.06,3.08,1.75,1.39-.33,2.24-1.71,2.01-3.1s-1.28-2.04-2.52-2.47c-1.82-.63-3.74-1.13-5.68-1.02l.66,4.91c4.37-1.13,8.76-1.56,13.28-1.34l-.66-4.91c-1.79.67-3.41,1.68-4.64,3.16-.46.56-1.41,1.61-1.52,2.39-.13.24-.04.19.29-.17.44-.28.46-.36.06-.23-.18,0-.38.07-.56.1-.23.04-.47.08-.7.12-.51.07.57-.04-.33.04-.42.03-.84.06-1.27.06-.23,0-.46,0-.7-.03.26.03-.07,0-.15-.03-.48-.11-.71-.16-.96-.3-.16-.09-.31-.18-.46-.28-.65-.43.09.11-.24-.19-1.33-1.2-2.26-2.69-3.08-4.33-.61-1.21-2.31-1.55-3.42-.9-1.23.72-1.51,2.21-.9,3.42h0Z"/>
      <path d="M1036.75,379.23c2.4,6.06,8.03,10.82,14.85,10.23s11.89-6.82,14.06-13.08c.51-1.47-.85-3.28-2.41-3.16-4.15.29-8.3.59-12.45.88s-8.33.39-12.41,1.12c-1.78.32-2.49,3.02-1.1,4.18,1.91,1.59,3.82,3.17,5.8,4.66s4.02,3.08,6.58,3.04c2.26-.03,4.62-1.28,6.45-2.51s3.36-2.62,4.66-4.31.6-4.27-1.77-4.27c-4.29,0-8.56.79-12.55,2.37-1.25.5-2.13,1.67-1.75,3.08.33,1.19,1.81,2.25,3.08,1.75,3.6-1.43,7.34-2.19,11.22-2.19l-1.77-4.27c-.96,1.24-2.05,2.41-3.33,3.31-1.13.8-2.81,1.98-4.25,2.04-.7.03-1.3-.42-1.87-.79-.87-.57-1.72-1.21-2.55-1.84-1.51-1.16-2.97-2.39-4.43-3.61l-1.1,4.18c3.78-.68,7.73-.7,11.56-.98s7.98-.57,11.98-.85l-2.41-3.16c-1.4,4.02-4.65,8.87-9.24,9.41s-8.44-2.54-10.03-6.56c-.5-1.25-1.67-2.13-3.08-1.75-1.19.33-2.25,1.81-1.75,3.08h0Z"/>
      <path d="M1005.49,383.45c12.79-1.61,25.62-2.9,38.47-3.88,1.35-.1,2.5-1.08,2.5-2.5,0-1.27-1.15-2.6-2.5-2.5-12.85.98-25.68,2.28-38.47,3.88-1.34.17-2.5,1.03-2.5,2.5,0,1.22,1.15,2.67,2.5,2.5h0Z"/>
      <path d="M1004.99,378.86c-3.96.02-7.92.48-11.79,1.36-1.28.29-2.15,1.83-1.75,3.08.43,1.34,1.71,2.06,3.08,1.75.91-.21,1.83-.39,2.75-.55.43-.07.85-.14,1.28-.2.6-.09-.36.04.19-.03.25-.03.5-.06.75-.09,1.82-.2,3.65-.3,5.49-.31,1.31,0,2.56-1.15,2.5-2.5s-1.1-2.51-2.5-2.5h0Z"/>
      <path d="M1064.2,378.06c1.09.76,2.16,1.53,3.23,2.31.52.38,1.03.76,1.55,1.15.26.19.51.39.77.58.13.1.25.2.38.29.35.27-.45-.35.16.12,2.09,1.63,4.14,3.31,6.15,5.03.99.85,2.57,1.05,3.54,0,.86-.94,1.06-2.63,0-3.54-4.24-3.64-8.67-7.08-13.25-10.28-1.08-.75-2.82-.23-3.42.9-.68,1.28-.25,2.62.9,3.42h0Z"/>
    </g>
  </g>
</svg>