<?xml version="1.0" encoding="UTF-8"?>
<svg id="Layer_2" data-name="Layer 2" xmlns="http://www.w3.org/2000/svg" viewBox="0 0 179.27 151.34">
  <g id="Layer_1-2" data-name="Layer 1">
    <path d="M57.17,120.25c-2.99-2.89-14.21-13.76-14.97-17.07-1.14-4.98.75-11.35,3.86-15.28.9-1.14,2.38-3.05,3.91-1.85-5.59,6.32-4.61,17.11.97,23.16,5.21,5.64,24.94,15.7,32.51,15.94,8.79.28,23.47-1.27,31.88-3.96,31.9-10.22,57.39-41.22,53.23-75.96-2.81-23.52-29.93-39.81-49.49-23.25-2.41,2.04-3.29,5.45-6.47,4.68l.72-2.15c-7.14.05-16-3.35-19.07-10.1-1.48-3.26-5.43-14.76.35-14.39-.46,9.65,4.33,19.48,14.09,22.27,7.84,2.24,7.45-2.43,13.52-5.83,12.86-7.23,30.39-4.23,39.66,7.38,20.44,25.61,6.33,65.03-16.52,84.16-21.62,18.09-57.59,26.78-83.86,15.14-.24-.25-.44-.51-.72-.72-.53-.41-1.24-.55-1.44-.72-.12-.05-.84-.86-2.16-1.44Z"/>
    <path d="M61.49,123.13c.44.47.68,1.74,1.42,2.52,2.55,2.7,5.64,4.12,6.46,8.68.73,4.05.32,15.75-4.65,16.87-4.58,1.03.57-4.12.93-4.83,1.46-2.86,1.48-9.58.71-12.63-.99-3.9-10.24-10.52-13.95-11.97-11.65-4.56-21.93,6.39-33.77,4.97-11.95-1.43-11.57-27.83-6.45-35.3,3.43-5.01,14.47-7.55,19.84-4.67.9.82-1.84,5.5,3.6,9.31,1.32.92,6.05,2.07,5.71,3.64-.68,3.08-8.19-1.64-9.38-2.84-2.27-2.29-3.23-5.1-2.85-8.31-4.65-.36-11.29.96-14.42,4.67-3.44,4.08-2.89,16.92-1.82,22.02,3.5,16.73,21.76,2.68,31.7,2.09,4.42-.26,8.64,1.16,12.63,2.9,1.19,1.15,1.75,1.1,2.16,1.44.44.19.89.49,1.44.72.23.1.45.6.72.72Z"/>
    <path d="M46.37,84.24c-6.23-2.69-9.46-5.95-16.77-3.45-4.24,1.45-4.79,1.2-8.73,2.07-9.92,2.19-14.56,6.14-16.79,16.33-2.78,12.69,1.66,30.84,16.18,33.85,11.49,2.38,17.35-9.16,29.9-7.57,9.29,1.17,18.61,9.17,12.66,18.77-.8,1.28-6,6.7-4.78,2.42,1.22-4.29,5.01-7.96.89-12.69-8.75-10.05-22.25,3.1-31.82,4.14-33.03,3.59-36.6-55.71-6.66-58.63,1.87-.18,3.22.62,4.64.45s3.59-2.3,5.98-2.72c5.22-.9,15.23.24,15.3,7.02Z"/>
    <path d="M101.68,35.42c-.26,4.28-2.44,8.04-2.77,12.44-.59,7.9,2.35,15.6,2.18,23.43-2.64-.57-6.36-1.42-8.99-1.5-2.73-.09-8.44.49-11.17,1.14-7.11,1.71-14.51,6.89-20.87,10.44-1.23-1.27,7.35-7.17,8.4-7.79,9.38-5.55,19.6-8.11,30.47-5.89-5.8-8.69-4.3-20.98-1.38-30.48-9.25-5.57-13.88-20.09-13.05-30.39.13-1.66.2-3.03,1.45-4.3,3.11-1.92,2.14,8.06,2.38,9.9,1.1,8.51,5.72,18.51,13.35,23.01Z"/>
    <path d="M143.44,74.54c1.68.18,2.12,4.64,3.02,5.88,1.08,1.48,5.15,2.9,2.33,4.56-2.73.74-4.42-2.78-5.46-2.86-3.66,2.38-11.45,6.53-15.8,6.05-1.63-.18-8.99-2.13-8.81-3.81.3-2.84,8,1.03,10.27,1.08,2.82.06,12.89-3.71,13.34-6.96.08-.58-1.44-4.2,1.1-3.94Z"/>
    <path d="M121.44,68.94c1.95,2.08,7.22,1.61,9.89,1.63,2.55,2.31-8.7,3.18-11.48,1.04-.92-.7-1.87-3.32-2.03-4.47-1.48-10.22,15.78-12.11,16.4-9.17.51,2.44-4.56,1.62-5.95,1.96-3.4.84-11.15,4.39-6.82,9.01Z"/>
    <path d="M111.18,61.2c-1.71-1.69,3.62-8.61,3.66-2.52.02,2.46-2.77,3.4-3.66,2.52Z"/>
    <path d="M151.5,57.6c-.13-1.29-.38-5.48,1.79-5.03,2.09,1.69,1.52,5.74-1.79,5.03Z"/>
    <path d="M104.58,58.68c7.27-.18,14.51-.87,21.7-1.99l-2.82-3.67c-.27.58-.59,1.19-1.09,1.57-1.08.81-1.64,2.16-.9,3.42.62,1.06,2.34,1.72,3.42.9,1.22-.92,2.24-1.97,2.89-3.37.96-2.08-.61-4.02-2.82-3.67-6.74,1.05-13.55,1.64-20.37,1.82-3.21.08-3.22,5.08,0,5h0Z"/>
    <path d="M102.49,58.43c.97,1.93,2.25,3.9,3.87,5.34,1.81,1.62,4.04,2.36,6.46,2.29,1.12-.03,2.25-.21,3.35-.41,1.39-.25,2.47-.78,3.11-2.1.21-.43.43-.84.69-1.24.12-.19-.09.07.16-.21.17-.19.35-.38.53-.56.39-.38,1.32-.96,1.73-1.11,1.16-.43,1.99-1.45,1.79-2.74s-1.18-2.1-2.46-2.17c-4.91-.24-9.85.29-14.61,1.52-2.68.69-2.2,5.06.66,4.91.88-.05,1.5.02,2.34.23.42.1.83.23,1.24.36.21.07.41.13.61.2.1.03.2.07.3.1.39.14.22.04-.52-.31l-.73-1.77.02.17.34-1.26-.08.15,1.49-1.15-.15.04c-1.31.32-2.1,1.8-1.75,3.08.37,1.34,1.76,2.06,3.08,1.75,1.39-.33,2.24-1.71,2.01-3.1s-1.28-2.04-2.52-2.47c-1.82-.63-3.74-1.13-5.68-1.02l.66,4.91c4.37-1.13,8.76-1.56,13.28-1.34l-.66-4.91c-1.79.67-3.41,1.68-4.64,3.16-.46.56-1.41,1.61-1.52,2.39-.13.24-.04.19.29-.17.44-.28.46-.36.06-.23-.18,0-.38.07-.56.1-.23.04-.47.08-.7.12-.51.07.57-.04-.33.04-.42.03-.84.06-1.27.06-.23,0-.46,0-.7-.03.26.03-.07,0-.15-.03-.48-.11-.71-.16-.96-.3-.16-.09-.31-.18-.46-.28-.65-.43.09.11-.24-.19-1.33-1.2-2.26-2.69-3.08-4.33-.61-1.21-2.31-1.55-3.42-.9-1.23.72-1.51,2.21-.9,3.42h0Z"/>
    <path d="M135.32,54.1c2.4,6.06,8.03,10.82,14.85,10.23s11.89-6.82,14.06-13.08c.51-1.47-.85-3.28-2.41-3.16-4.15.29-8.3.59-12.45.88s-8.33.39-12.41,1.12c-1.78.32-2.49,3.02-1.1,4.18,1.91,1.59,3.82,3.17,5.8,4.66s4.02,3.08,6.58,3.04c2.26-.03,4.62-1.28,6.45-2.51s3.36-2.62,4.66-4.31.6-4.27-1.77-4.27c-4.29,0-8.56.79-12.55,2.37-1.25.5-2.13,1.67-1.75,3.08.33,1.19,1.81,2.25,3.08,1.75,3.6-1.43,7.34-2.19,11.22-2.19l-1.77-4.27c-.96,1.24-2.05,2.41-3.33,3.31-1.13.8-2.81,1.98-4.25,2.04-.7.03-1.3-.42-1.87-.79-.87-.57-1.72-1.21-2.55-1.84-1.51-1.16-2.97-2.39-4.43-3.61l-1.1,4.18c3.78-.68,7.73-.7,11.56-.98s7.98-.57,11.98-.85l-2.41-3.16c-1.4,4.02-4.65,8.87-9.24,9.41s-8.44-2.54-10.03-6.56c-.5-1.25-1.67-2.13-3.08-1.75-1.19.33-2.25,1.81-1.75,3.08h0Z"/>
    <path d="M104.06,58.32c12.79-1.61,25.62-2.9,38.47-3.88,1.35-.1,2.5-1.08,2.5-2.5,0-1.27-1.15-2.6-2.5-2.5-12.85.98-25.68,2.28-38.47,3.88-1.34.17-2.5,1.03-2.5,2.5,0,1.22,1.15,2.67,2.5,2.5h0Z"/>
    <path d="M103.57,53.73c-3.96.02-7.92.48-11.79,1.36-1.28.29-2.15,1.83-1.75,3.08.43,1.34,1.71,2.06,3.08,1.75.91-.21,1.83-.39,2.75-.55.43-.07.85-.14,1.28-.2.6-.09-.36.04.19-.03.25-.03.5-.06.75-.09,1.82-.2,3.65-.3,5.49-.31,1.31,0,2.56-1.15,2.5-2.5s-1.1-2.51-2.5-2.5h0Z"/>
    <path d="M162.77,52.93c1.09.76,2.16,1.53,3.23,2.31.52.38,1.03.76,1.55,1.15.26.19.51.39.77.58.13.1.25.2.38.29.35.27-.45-.35.16.12,2.09,1.63,4.14,3.31,6.15,5.03.99.85,2.57,1.05,3.54,0,.86-.94,1.06-2.63,0-3.54-4.24-3.64-8.67-7.08-13.25-10.28-1.08-.75-2.82-.23-3.42.9-.68,1.28-.25,2.62.9,3.42h0Z"/>
  </g>
</svg>