<?xml version="1.0" encoding="UTF-8"?>
<svg id="Layer_2" data-name="Layer 2" xmlns="http://www.w3.org/2000/svg" viewBox="0 0 496.47 273.82">
  
  <g id="Layer_1-2" data-name="Layer 1">
    <g>
      <path fill="#fff" d="M188.14,259.3l8.77-35.3c1.6-6.61,1.3-8.63-4.96-6.74l.69-2.54,21.51-7.83c9.23-3.36,18.23-3.35,15.48,8.47-1.6,6.99-8.31,12.25-14.64,15.47,7.02-1.71,13.65,1.82,11.36,11.65-2.36,10.17-10.98,17.73-23.34,22.22l-25.02,9.11.61-2.51c6.56-2.77,7.86-5.22,9.53-12.01ZM202.4,261.96c7.47-2.72,13.88-8.94,15.94-18,2.14-9.09-1.68-12.28-9.3-9.5l-8.85,3.22-5.57,22.62c-1.3,5.12,4.27,2.94,7.78,1.67ZM222.38,216.48c1.3-5.5-.69-9.36-8.08-6.67l-7.93,2.89-5.42,21.72,8.16-2.97c8.24-3,12.05-9.57,13.27-14.97Z"/>
      <path fill="#fff" d="M231.84,242.18c0-10.91,9.15-29.79,23.64-35.07,7.47-2.72,12.58.07,12.58,8.23,0,11.44-9.46,29.91-23.57,35.04-7.47,2.72-12.66-.04-12.66-8.2ZM239.46,240.77c0,5.03,1.68,8.16,6.1,6.55,9.46-3.44,14.95-22.45,14.95-30.68,0-4.96-1.68-8.08-6.1-6.47-9.38,3.41-14.95,22.45-14.95,30.61Z"/>
      <path fill="#fff" d="M268.98,234.83c0-3.97,2.44-6.68,4.73-7.44,1.98-.72,3.89.03,3.89,2.7,0,1.75-1.37,4.16-4.35,6.46.92.51,2.29.23,3.43-.26,3.58-1.53,7.17-7.34,10.6-20.48l1.6-6.15c1.83-7,1.37-10.95-2.06-10.39-4.12.66-6.64,7.83-8.39,12.66l-2.36-.21c2.82-7.66,5.64-14.18,12.28-16.6,3.66-1.33,7.7-.59,8.39,3.28,2.36-5.06,5.19-8.22,8.77-9.52,5.19-1.89,7.32,1.15,7.32,4.58-.08,3.61-2.52,6.25-4.96,7.14-1.98.72-3.97.15-3.97-2.37,0-2.06,1.53-4.9,4.81-7.16-.69-.36-1.75-.43-3.13.07-3.89,1.42-7.17,6.19-10.98,20.7l-1.6,6.07c-1.83,7-1.6,11.26,1.83,10.7,3.97-.6,6.64-8.06,8.39-12.89l2.36.21c-2.82,7.66-5.72,14.59-12.36,16.62-2.97.93-7.32.45-8.24-3.18-2.59,5.06-5.64,8.23-8.77,9.37-4.35,1.58-7.25-.34-7.25-3.92Z"/>
    </g>
    <g>
      <g>
        <path fill="#fff" d="M46.23,174.83c-6.18,2.18-10.08,6.93-10.29,12.24-.2,5.1,3.07,6.56,11.11,7.86,12.02,1.76,18.4,6.56,17.99,16.86-.57,14.42-10.73,30.46-30.83,37.88-18.65,6.89-30.48.36-28.71-17.82l18.17-6.71c-.92,11.24,2.81,15.52,11.89,12.17,7.34-2.71,10.53-8.48,10.72-13.25s-2.86-6.96-11-8.22c-10.88-1.75-17.18-6.16-16.73-17.43.65-16.37,13.38-30.05,29.14-35.87,16.43-6.07,26.74-1.97,26.31,15.93l-17.68,6.53c.36-9-2.44-12.88-10.07-10.17Z"/>
        <path fill="#fff" d="M21.08,253.7c-4.37,0-8.05-1.11-10.93-3.33-4.74-3.66-6.81-10.1-5.97-18.64l.08-.82,20.89-7.71-.17,2.07c-.47,5.75.31,9.45,2.32,10.97,1.6,1.22,4.23,1.17,7.8-.15,7.01-2.59,9.69-7.93,9.85-12.07.14-3.43-1.4-5.54-9.89-6.86-8.61-1.39-18.4-4.77-17.85-18.79.63-15.77,12.68-30.66,30-37.05,9.64-3.56,16.98-3.61,21.82-.16,4.36,3.12,6.47,8.96,6.27,17.35l-.02.9-20.38,7.53.08-1.98c.19-4.75-.54-7.77-2.17-8.97-1.27-.93-3.33-.9-6.13.09h0c-5.61,1.98-9.22,6.21-9.41,11.05-.14,3.58,1.35,5.1,10,6.51,13.44,1.96,19.52,7.75,19.1,18.22-.67,16.87-13.11,32.21-31.7,39.07-5.03,1.86-9.59,2.79-13.58,2.79ZM6.74,232.81c-.54,7.17,1.19,12.51,5.03,15.47,4.68,3.61,12.48,3.66,21.98.16,17.58-6.49,29.34-20.9,29.97-36.7.36-9.08-4.68-13.72-16.86-15.5-7.11-1.15-12.51-2.56-12.24-9.22.24-5.94,4.52-11.09,11.18-13.44,3.73-1.32,6.53-1.24,8.58.27,2.13,1.57,3.21,4.6,3.27,9.24l15.03-5.55c.02-6.98-1.72-11.77-5.18-14.25-4.08-2.92-10.6-2.75-19.37.49-16.32,6.03-27.69,19.96-28.27,34.68-.38,9.57,4.14,14.23,15.62,16.08,7.45,1.16,12.37,3.24,12.11,9.58-.3,7.61-6.43,12.54-11.58,14.44-4.47,1.65-7.94,1.58-10.31-.22-2.52-1.92-3.67-5.61-3.48-11.25l-15.49,5.72Z"/>
      </g>
      <g>
        <path fill="#fff" d="M133.64,131.65l-1.79,80.79-18.36,6.78.49-21.76-25.03,9.24-13.53,26.58-12.85,4.75,50.2-98.67,20.87-7.71ZM114.36,185.35l.72-30.08-18.7,36.71,17.97-6.64Z"/>
        <path fill="#fff" d="M59.85,240.44l51.97-102.14,23.18-8.56-1.85,83.63-21.03,7.76.49-21.76-22.72,8.39-13.53,26.58-16.5,6.09ZM113.71,140.42l-48.44,95.2,9.2-3.4,13.53-26.58,27.34-10.09-.49,21.76,15.69-5.8,1.73-77.95-18.57,6.86ZM93.68,194.4l22.87-44.9-.88,36.78-21.98,8.12ZM113.62,161.06l-14.53,28.52,13.97-5.16.56-23.37Z"/>
      </g>
      <g>
        <path fill="#fff" d="M190.45,110.67l-6.25,58.82,31.66-68.21,26.38-9.74-27.11,90.14-18.84,6.96,20.52-68.26-34.34,73.37-17.01,6.28,6.31-62.8-20.51,68.05-11.98,4.42,27.01-90.1,24.16-8.92Z"/>
        <path fill="#fff" d="M137.26,211.85l27.96-93.27,26.77-9.89-5.63,53.02,28.54-61.48,29.38-10.85-28.06,93.31-21.95,8.11,16.07-53.47-26.9,57.47-19.5,7.2,5.15-51.3-16.76,55.59-15.08,5.57ZM167.37,120.6l-26.06,86.94,8.88-3.28,20.32-67.42,2.58.51-6.1,60.7,14.52-5.36,34.11-72.88,2.46.94-19.76,65.73,15.74-5.81,26.15-86.97-23.38,8.63-34.78,74.94,6.86-64.63-21.54,7.96Z"/>
      </g>
      <g>
        <path fill="#fff" d="M281.19,77.17c16.43-6.07,26.02-3.2,25.49,10.35-.76,19.08-15.08,34.52-36.34,42.37l-12.27,4.53-10.55,35.31-19.33,7.14,27.01-90.1,25.99-9.6ZM287.89,95.31c.24-5.96-3.23-7.35-9.99-4.86l-7.44,2.75-8.34,27.65,9.86-3.64c9.37-3.46,15.51-11.6,15.92-21.9Z"/>
        <path fill="#fff" d="M226.16,179.03l27.96-93.27,26.61-9.83c10.43-3.85,18.04-4.12,22.6-.8,3.32,2.42,4.89,6.6,4.66,12.45-.75,18.95-14.66,35.24-37.21,43.56l-11.65,4.3-10.55,35.31-22.43,8.28ZM256.27,87.78l-26.06,86.94,16.22-5.99,10.55-35.31,12.89-4.76c21.51-7.94,34.77-23.34,35.48-41.19.2-4.91-1.01-8.34-3.57-10.21-3.76-2.73-10.72-2.33-20.14,1.14l-25.38,9.37ZM260.09,123.01l9.29-30.82,8.06-2.98c4.36-1.61,7.45-1.68,9.47-.22,1.65,1.2,2.42,3.34,2.3,6.36h0c-.43,10.74-6.7,19.37-16.78,23.09l-12.34,4.56ZM271.53,94.21l-7.38,24.48,7.37-2.72c9.04-3.34,14.67-11.08,15.05-20.72.08-2.09-.33-3.47-1.22-4.12-1.21-.88-3.63-.69-7,.56l-6.82,2.52Z"/>
      </g>
      <g>
        <path fill="#fff" d="M343.03,54.33l-22.95,76.53,29.38-10.85-4.16,13.61-48.61,17.95,27.01-90.1,19.33-7.14Z"/>
        <path fill="#fff" d="M294.66,153.73l27.96-93.27,22.43-8.28-22.95,76.53,29.39-10.85-5.13,16.78-51.71,19.09ZM324.78,62.48l-26.06,86.94,45.51-16.81,3.19-10.43-29.36,10.84,22.95-76.53-16.22,5.99Z"/>
      </g>
      <g>
        <path fill="#fff" d="M430.19,22.14l-4.06,13.57-28.6,10.56-6.8,22.6,27.06-9.99-4.07,13.68-27.06,9.99-8.01,26.68,32.08-11.85-4.06,13.57-51.41,18.98,27.01-90.1,47.93-17.7Z"/>
        <path fill="#fff" d="M353.22,132.1l27.96-93.27,51.03-18.84-5.01,16.74-28.6,10.56-5.85,19.43,27.05-9.99-5.01,16.85-27.06,9.99-7.06,23.51,32.08-11.85-5.01,16.74-54.51,20.13ZM383.33,40.85l-26.06,86.94,48.31-17.84,3.12-10.41-32.08,11.85,8.96-29.85,27.05-9.99,3.13-10.52-27.07,10,7.76-25.77,28.6-10.56,3.12-10.41-44.83,16.55Z"/>
      </g>
      <g>
        <path fill="#fff" d="M448.7,61.68l-11.41,37.98-19.33,7.14,27.01-90.1,25.61-9.46c15.17-5.6,25.08-3.49,24.55,9.84-.38,9.65-5.52,21.48-21.22,30.7,10.13-.96,13.16,4.22,8.99,18.05l-5.81,19.13-19.33,7.14,6.68-22.02c4.29-14.4,0-14.21-9.38-10.75l-6.38,2.35ZM476.04,25.51c.22-5.53-2.86-7.17-9.52-4.71l-6.28,2.32-7.68,25.59,8.41-3.1c9.47-3.5,14.72-11.1,15.08-20.1Z"/>
        <path fill="#fff" d="M415.93,108.95l27.96-93.27,26.23-9.69c10.07-3.72,17.42-3.97,21.85-.75,3.19,2.32,4.7,6.32,4.48,11.88-.27,6.71-3.05,19.01-18.05,29.36,2.53.34,4.41,1.29,5.7,2.87,2.57,3.14,2.59,8.49.07,16.85l-6,19.76-22.44,8.29,7.46-24.56c2.21-7.42,1.75-9.84.97-10.57-1.33-1.25-6.26.57-8.63,1.45l-5.76,2.13-11.41,37.98-22.43,8.28ZM446.04,17.7l-26.06,86.94,16.23-5.99,11.41-37.98,7-2.58c4.65-1.72,9.03-3.08,11.35-.9,2.02,1.9,1.95,5.86-.25,13.26l-5.91,19.48,16.22-5.99,5.62-18.5c2.18-7.23,2.32-12.08.41-14.41-1.38-1.68-4-2.32-8.02-1.94l-5.94.56,5.14-3.02c7.41-4.35,19.94-13.99,20.57-29.61.18-4.63-.96-7.87-3.39-9.64-3.62-2.63-10.33-2.25-19.38,1.09l-24.99,9.23ZM450.52,50.87l8.63-28.76,6.9-2.55c4.15-1.53,7.12-1.59,9.06-.18,1.6,1.17,2.36,3.25,2.24,6.18-.39,9.79-6.35,17.74-15.95,21.29l-10.89,4.02ZM461.31,24.13l-6.73,22.43,5.92-2.19c8.69-3.21,13.87-10.1,14.22-18.91.08-2-.31-3.32-1.15-3.94-1.14-.83-3.42-.65-6.59.52l-5.66,2.09Z"/>
      </g>
    </g>
    <g>
      <g>
        <path fill="#a82e4a" d="M42.23,171.83c-6.18,2.18-10.08,6.93-10.29,12.24-.2,5.1,3.07,6.56,11.11,7.86,12.02,1.76,18.4,6.56,17.99,16.86-.57,14.42-10.73,30.46-30.83,37.88-18.65,6.89-30.48.36-28.71-17.82l18.17-6.71c-.92,11.24,2.81,15.52,11.89,12.17,7.34-2.71,10.53-8.48,10.72-13.25s-2.86-6.96-11-8.22c-10.88-1.75-17.18-6.16-16.73-17.43.65-16.37,13.38-30.05,29.14-35.87,16.43-6.07,26.74-1.97,26.31,15.93l-17.68,6.53c.36-9-2.44-12.88-10.07-10.17Z"/>
        <path fill="#fff" d="M17.08,250.7c-4.37,0-8.05-1.11-10.93-3.33-4.74-3.66-6.81-10.1-5.97-18.64l.08-.82,20.89-7.71-.17,2.07c-.47,5.75.31,9.45,2.32,10.97,1.6,1.22,4.23,1.17,7.8-.15,7.01-2.59,9.69-7.93,9.85-12.07.14-3.43-1.4-5.54-9.89-6.86-8.61-1.39-18.4-4.77-17.85-18.79.63-15.77,12.68-30.66,30-37.05,9.64-3.56,16.98-3.61,21.82-.16,4.36,3.12,6.47,8.96,6.27,17.35l-.02.9-20.38,7.53.08-1.98c.19-4.75-.54-7.77-2.17-8.97-1.27-.93-3.33-.9-6.13.09h0c-5.61,1.98-9.22,6.21-9.41,11.05-.14,3.58,1.35,5.1,10,6.51,13.44,1.96,19.52,7.75,19.1,18.22-.67,16.87-13.11,32.21-31.7,39.07-5.03,1.86-9.59,2.79-13.58,2.79ZM2.74,229.81c-.54,7.17,1.19,12.51,5.03,15.47,4.68,3.61,12.48,3.66,21.98.16,17.58-6.49,29.34-20.9,29.97-36.7.36-9.08-4.68-13.72-16.86-15.5-7.11-1.15-12.51-2.56-12.24-9.22.24-5.94,4.52-11.09,11.18-13.44,3.73-1.32,6.53-1.24,8.58.27,2.13,1.57,3.21,4.6,3.27,9.24l15.03-5.55c.02-6.98-1.72-11.77-5.18-14.25-4.08-2.92-10.6-2.75-19.37.49-16.32,6.03-27.69,19.96-28.27,34.68-.38,9.57,4.14,14.23,15.62,16.08,7.45,1.16,12.37,3.24,12.11,9.58-.3,7.61-6.43,12.54-11.58,14.44-4.47,1.65-7.94,1.58-10.31-.22-2.52-1.92-3.67-5.61-3.48-11.25l-15.49,5.72Z"/>
      </g>
      <g>
        <path fill="#a82e4a" d="M129.64,128.65l-1.79,80.79-18.36,6.78.49-21.76-25.03,9.24-13.53,26.58-12.85,4.75,50.2-98.67,20.87-7.71ZM110.36,182.35l.72-30.08-18.7,36.71,17.97-6.64Z"/>
        <path fill="#fff" d="M55.85,237.44l51.97-102.14,23.18-8.56-1.85,83.63-21.03,7.76.49-21.76-22.72,8.39-13.53,26.58-16.5,6.09ZM109.71,137.42l-48.44,95.2,9.2-3.4,13.53-26.58,27.34-10.09-.49,21.76,15.69-5.8,1.73-77.95-18.57,6.86ZM89.68,191.4l22.87-44.9-.88,36.78-21.98,8.12ZM109.62,158.06l-14.53,28.52,13.97-5.16.56-23.37Z"/>
      </g>
      <g>
        <path fill="#a82e4a" d="M186.45,107.67l-6.25,58.82,31.66-68.21,26.38-9.74-27.11,90.14-18.84,6.96,20.52-68.26-34.34,73.37-17.01,6.28,6.31-62.8-20.51,68.05-11.98,4.42,27.01-90.1,24.16-8.92Z"/>
        <path fill="#fff" d="M133.26,208.85l27.96-93.27,26.77-9.89-5.63,53.02,28.54-61.48,29.38-10.85-28.06,93.31-21.95,8.11,16.07-53.47-26.9,57.47-19.5,7.2,5.15-51.3-16.76,55.59-15.08,5.57ZM163.37,117.6l-26.06,86.94,8.88-3.28,20.32-67.42,2.58.51-6.1,60.7,14.52-5.36,34.11-72.88,2.46.94-19.76,65.73,15.74-5.81,26.15-86.97-23.38,8.63-34.78,74.94,6.86-64.63-21.54,7.96Z"/>
      </g>
      <g>
        <path fill="#a82e4a" d="M277.19,74.17c16.43-6.07,26.02-3.2,25.49,10.35-.76,19.08-15.08,34.52-36.34,42.37l-12.27,4.53-10.55,35.31-19.33,7.14,27.01-90.1,25.99-9.6ZM283.89,92.31c.24-5.96-3.23-7.35-9.99-4.86l-7.44,2.75-8.34,27.65,9.86-3.64c9.37-3.46,15.51-11.6,15.92-21.9Z"/>
        <path fill="#fff" d="M222.16,176.03l27.96-93.27,26.61-9.83c10.43-3.85,18.04-4.12,22.6-.8,3.32,2.42,4.89,6.6,4.66,12.45-.75,18.95-14.66,35.24-37.21,43.56l-11.65,4.3-10.55,35.31-22.43,8.28ZM252.27,84.78l-26.06,86.94,16.22-5.99,10.55-35.31,12.89-4.76c21.51-7.94,34.77-23.34,35.48-41.19.2-4.91-1.01-8.34-3.57-10.21-3.76-2.73-10.72-2.33-20.14,1.14l-25.38,9.37ZM256.09,120.01l9.29-30.82,8.06-2.98c4.36-1.61,7.45-1.68,9.47-.22,1.65,1.2,2.42,3.34,2.3,6.36h0c-.43,10.74-6.7,19.37-16.78,23.09l-12.34,4.56ZM267.53,91.21l-7.38,24.48,7.37-2.72c9.04-3.34,14.67-11.08,15.05-20.72.08-2.09-.33-3.47-1.22-4.12-1.21-.88-3.63-.69-7,.56l-6.82,2.52Z"/>
      </g>
      <g>
        <path fill="#a82e4a" d="M339.03,51.33l-22.95,76.53,29.38-10.85-4.16,13.61-48.61,17.95,27.01-90.1,19.33-7.14Z"/>
        <path fill="#fff" d="M290.66,150.73l27.96-93.27,22.43-8.28-22.95,76.53,29.39-10.85-5.13,16.78-51.71,19.09ZM320.78,59.48l-26.06,86.94,45.51-16.81,3.19-10.43-29.36,10.84,22.95-76.53-16.22,5.99Z"/>
      </g>
      <g>
        <path fill="#a82e4a" d="M426.19,19.14l-4.06,13.57-28.6,10.56-6.8,22.6,27.06-9.99-4.07,13.68-27.06,9.99-8.01,26.68,32.08-11.85-4.06,13.57-51.41,18.98,27.01-90.1,47.93-17.7Z"/>
        <path fill="#fff" d="M349.22,129.1l27.96-93.27,51.03-18.84-5.01,16.74-28.6,10.56-5.85,19.43,27.05-9.99-5.01,16.85-27.06,9.99-7.06,23.51,32.08-11.85-5.01,16.74-54.51,20.13ZM379.33,37.85l-26.06,86.94,48.31-17.84,3.12-10.41-32.08,11.85,8.96-29.85,27.05-9.99,3.13-10.52-27.07,10,7.76-25.77,28.6-10.56,3.12-10.41-44.83,16.55Z"/>
      </g>
      <g>
        <path fill="#a82e4a" d="M444.7,58.68l-11.41,37.98-19.33,7.14,27.01-90.1,25.61-9.46c15.17-5.6,25.08-3.49,24.55,9.84-.38,9.65-5.52,21.48-21.22,30.7,10.13-.96,13.16,4.22,8.99,18.05l-5.81,19.13-19.33,7.14,6.68-22.02c4.29-14.4,0-14.21-9.38-10.75l-6.38,2.35ZM472.04,22.51c.22-5.53-2.86-7.17-9.52-4.71l-6.28,2.32-7.68,25.59,8.41-3.1c9.47-3.5,14.72-11.1,15.08-20.1Z"/>
        <path fill="#fff" d="M411.93,105.95l27.96-93.27,26.23-9.69c10.07-3.72,17.42-3.97,21.85-.75,3.19,2.32,4.7,6.32,4.48,11.88-.27,6.71-3.05,19.01-18.05,29.36,2.53.34,4.41,1.29,5.7,2.87,2.57,3.14,2.59,8.49.07,16.85l-6,19.76-22.44,8.29,7.46-24.56c2.21-7.42,1.75-9.84.97-10.57-1.33-1.25-6.26.57-8.63,1.45l-5.76,2.13-11.41,37.98-22.43,8.28ZM442.04,14.7l-26.06,86.94,16.23-5.99,11.41-37.98,7-2.58c4.65-1.72,9.03-3.08,11.35-.9,2.02,1.9,1.95,5.86-.25,13.26l-5.91,19.48,16.22-5.99,5.62-18.5c2.18-7.23,2.32-12.08.41-14.41-1.38-1.68-4-2.32-8.02-1.94l-5.94.56,5.14-3.02c7.41-4.35,19.94-13.99,20.57-29.61.18-4.63-.96-7.87-3.39-9.64-3.62-2.63-10.33-2.26-19.38,1.09l-24.99,9.23ZM446.52,47.87l8.63-28.76,6.9-2.55c4.15-1.53,7.12-1.59,9.06-.18,1.6,1.17,2.36,3.25,2.24,6.18-.39,9.79-6.35,17.74-15.95,21.29l-10.89,4.02ZM457.31,21.13l-6.73,22.43,5.92-2.19c8.69-3.21,13.87-10.1,14.22-18.91.08-2-.31-3.32-1.15-3.94-1.14-.83-3.42-.65-6.59.52l-5.66,2.09Z"/>
      </g>
    </g>
  </g>
</svg>