<?xml version="1.0" encoding="UTF-8"?>
<svg id="Layer_2" data-name="Layer 2" xmlns="http://www.w3.org/2000/svg" viewBox="0 0 308.52 214.11">
  <defs>
    <style>
      .cls-1, .cls-2 {
        fill: #c11209;
      }

      .cls-2, .cls-3 {
        stroke: #c11209;
        stroke-miterlimit: 10;
        stroke-width: 2.64px;
      }

      .cls-3 {
        fill: #fff;
      }
    </style>
  </defs>
  <g id="Layer_1-2" data-name="Layer 1">
    <g>
      <path class="cls-1" d="M59.07,212.45c3.34-1.44,4.5-2.62,5.43-6.52l5.16-21.15c.89-3.66.49-4.5-2.98-3.46l.4-1.66,12.82-4.67c5.56-2.03,10.28-1.61,9.12,4.91-.85,4.76-4.27,8.1-8.86,10.48,4.81-.33,5.79,1.72,4.76,5.7l-.67,2.83c-.53,2.02-1.07,4.79.71,4.15,1.42-.52,2.63-3.45,3.87-7.2l1.6.04c-1.25,3.57-2.4,8.09-6.72,9.52-4.01,1.32-4.81-1.46-4.14-4.1l.67-2.65c1.56-6.13.22-7.6-4.5-6.02-1.47.49-2.89.96-4.36,1.63l-2.45,10.01c-.89,3.66-.45,4.48,3.03,3.44l-.4,1.66-12.91,4.7.4-1.66ZM84.43,181.36c.76-4.06-.89-5.91-5.61-4.19l-3.56,1.3-3.29,13.53c1.29-.29,2.31-.58,3.52-1.01,4.54-1.65,7.97-4.28,8.95-9.62Z"/>
      <path class="cls-1" d="M92.98,190.63c1.91-7.86,7.48-14.43,13.13-16.26,4.01-1.28,5.07.78,4.76,3.03-.49,3.47-4.27,8.46-13.57,12.51-.04.19,0,.09-.04.28-.93,5.42.94,7.36,3.78,6.5,2.58-.76,4.9-3.47,7.34-9.17l1.33-.04c-2.54,6.53-5.56,10.53-9.97,12.13-5.43,1.98-8.68-1.16-6.77-8.98ZM97.65,188.35c6.5-2.94,8.81-7.04,9.39-9.25.45-1.68.31-3.81-1.91-3-3.29,1.2-6.19,7.06-7.48,12.07l.04-.02-.04.2Z"/>
      <path class="cls-1" d="M107.71,205.52c2.23-1.12,3.65-2,4.27-4.45l6.5-24.93c.27-1.03.62-2.28.62-3.17,0-.93-.4-1.32-1.11-1.06-1.51.55-2.72,3.3-4.18,7.35l-1.38-.12c1.47-3.96,2.8-8.1,6.41-9.41,2.31-.84,3.87.06,3.74,2.51l.18-.02c1.82-2.89,3.69-5.26,6.68-6.35,4.01-1.46,6.14.79,6.14,5.2,0,6.01-4.01,16.95-11.62,19.72-2.8,1.02-4.41.31-5.25-1.34l-.09.03-2.63,10.12c-.62,2.36.13,2.53,2.71,1.9l-.36,1.55-10.99,4,.36-1.55ZM131.16,171.88c0-2.36-.62-4.13-2.76-3.54-1.87.55-4.32,2.77-6.36,8.01l-2.58,9.98c-.04,2.46,1.56,4.06,4.05,3.15,5.43-1.98,7.66-13.2,7.66-17.61ZM121.28,178.45c-.13.36-.04.19-.18.55l.18-.55Z"/>
      <path class="cls-1" d="M138.68,178.89l6.41-24.63c.58-2.21.04-2.33-1.74-1.82l-2.05.61.36-1.55c2.71-1.03,6.23-2.62,8.99-4.47l.27.17c-.49,1.29-1.25,3.44-1.6,4.86l-6.72,25.68c-.71,2.66-1.02,4.33,0,4.32,1.51-.06,3.16-3.69,4.67-7.04l1.29.15c-1.78,3.76-3.56,8.28-7.17,9.29-2.58.72-3.92-.93-2.71-5.55Z"/>
      <path class="cls-1" d="M150.74,173.25c0-6.45,4.9-16.92,12.02-19.51,2.76-1,4.63-.39,5.07,1.4l.09-.03.8-3.09,4.01-1.46-4.67,17.9c-.27,1.03-.58,2.26-.58,3.02,0,.93.44,1.4,1.2,1.12,1.42-.52,2.67-3.42,4.05-7.22l1.38.08c-1.51,4.07-2.85,8.11-6.41,9.41-2.27.83-3.87-.06-3.74-2.51l-.18.02c-1.25,2.54-2.89,4.97-6.23,6.18-4.54,1.65-6.81-.9-6.81-5.31ZM155.46,171.36c-.27,4.06,1.02,5.73,3.16,4.95,2.89-1.05,5.25-5.78,6.05-8.84l2.36-9.05c.09-2.66-.98-4.36-3.38-3.49-4.72,1.72-7.83,10.77-8.19,16.42Z"/>
      <path class="cls-1" d="M177.13,165.07l4.18-15.9-4.58,1.67.49-1.91,4.54-1.65,1.83-7.16,4.05-1.47-1.82,7.16,5.56-2.03-.53,1.93-5.47,1.99-4.05,15.45c-.62,2.45-.98,4.41.36,4.5,2.4.19,4.14-4.67,5.16-7.49l1.38.12c-1.65,4.47-2.89,8.35-7.21,9.7-2.36.72-5.12-.09-3.87-4.91Z"/>
      <path class="cls-1" d="M191.82,154.65c1.91-7.86,7.48-14.43,13.13-16.26,4.01-1.28,5.07.78,4.76,3.03-.49,3.47-4.27,8.45-13.57,12.51-.04.19,0,.09-.04.28-.93,5.41.93,7.36,3.78,6.5,2.58-.76,4.9-3.47,7.34-9.17l1.34-.04c-2.54,6.53-5.56,10.53-9.97,12.13-5.43,1.98-8.68-1.16-6.77-8.98ZM196.49,152.37c6.5-2.94,8.81-7.04,9.39-9.25.44-1.68.31-3.81-1.91-3-3.29,1.2-6.19,7.06-7.48,12.07l.04-.02-.04.19Z"/>
      <path class="cls-1" d="M211.71,150.97c0-6.5,4.76-16.78,11.71-19.3,2.71-.99,4.32-.28,5.16,1.37l.09-.03,2.58-10.11c.58-2.21.04-2.33-1.74-1.82l-2.05.61.36-1.55c2.71-1.03,6.23-2.62,8.99-4.47l.27.17c-.49,1.29-1.25,3.44-1.6,4.86l-6.68,25.66c-.27,1.03-.62,2.27-.62,3.16,0,.94.4,1.32,1.11,1.07,1.51-.55,2.71-3.3,4.18-7.35l1.38.12c-1.47,4.01-2.85,8.16-6.54,9.5-2.18.79-3.87.16-3.6-2.61l-.18.02c-1.29,2.52-3.12,5.05-6.28,6.2-4.27,1.56-6.54-1.05-6.54-5.5ZM225.42,145.4l2.4-9.24c.04-2.38-1.42-4.07-3.78-3.21-4.45,1.62-7.88,10.61-7.97,16.61-.04,3.31,1.07,5.31,3.47,4.43,2.98-1.08,5.12-5.65,5.88-8.59Z"/>
    </g>
    <g>
      <path class="cls-2" d="M80.77,82.76l-3.97,13.54-28.51,10.53-7.36,24.62,25.99-9.6-4.07,13.68-26.09,9.63-11.42,38.19-19.33,7.14,27.01-90.1,47.74-17.63Z"/>
      <path class="cls-2" d="M112.37,71.09l-27.11,90.14-19.42,7.17,27.01-90.1,19.52-7.21Z"/>
      <path class="cls-2" d="M149.37,57.43c15.27-5.64,23.81-2.49,23.32,9.77-.44,11.17-7.77,20.71-18.62,27.71,7.54-.33,11.98,2.84,11.64,11.3-.6,15.07-12.72,30.02-37.65,39.22l-29.47,10.88,27.01-90.1,23.77-8.78ZM147.1,112.12c.27-6.72-3.39-8.04-11.51-5.05l-5.7,2.11-7.91,26.43,7.15-2.64c11.31-4.17,17.61-11.74,17.97-20.84ZM154.64,75.78c.22-5.64-3.24-7.03-9.33-4.78l-4.45,1.64-7.02,23.32,6.47-2.39c8.31-3.07,14-9.77,14.32-17.79Z"/>
      <path class="cls-2" d="M242.24,23.14l-4.06,13.57-28.6,10.56-6.8,22.6,27.06-9.99-4.07,13.68-27.06,9.99-8.01,26.68,32.08-11.85-4.06,13.57-51.41,18.98,27.01-90.1,47.93-17.7Z"/>
      <path class="cls-2" d="M260.75,62.67l-11.41,37.98-19.33,7.14,27.01-90.1,25.61-9.46c15.17-5.6,25.08-3.49,24.55,9.84-.38,9.65-5.52,21.48-21.22,30.7,10.13-.96,13.16,4.22,8.99,18.05l-5.81,19.13-19.33,7.14,6.68-22.02c4.29-14.4,0-14.21-9.38-10.75l-6.38,2.36ZM288.08,26.51c.22-5.53-2.86-7.17-9.52-4.71l-6.28,2.32-7.68,25.59,8.41-3.1c9.47-3.5,14.72-11.1,15.08-20.1Z"/>
    </g>
    <g>
      <path class="cls-3" d="M76.77,78.76l-3.97,13.54-28.51,10.53-7.36,24.62,25.99-9.6-4.07,13.68-26.09,9.63-11.42,38.19-19.33,7.14,27.01-90.1,47.74-17.63Z"/>
      <path class="cls-3" d="M108.37,67.09l-27.11,90.14-19.42,7.17,27.01-90.1,19.52-7.21Z"/>
      <path class="cls-3" d="M145.37,53.43c15.27-5.64,23.81-2.49,23.32,9.77-.44,11.17-7.77,20.71-18.62,27.71,7.54-.33,11.98,2.84,11.64,11.3-.6,15.07-12.72,30.02-37.65,39.22l-29.47,10.88,27.01-90.1,23.77-8.78ZM143.1,108.12c.27-6.72-3.39-8.04-11.51-5.05l-5.7,2.11-7.91,26.43,7.15-2.64c11.31-4.17,17.61-11.74,17.97-20.84ZM150.64,71.78c.22-5.64-3.24-7.03-9.33-4.78l-4.45,1.64-7.02,23.32,6.47-2.39c8.31-3.07,14-9.77,14.32-17.79Z"/>
      <path class="cls-3" d="M238.24,19.14l-4.06,13.57-28.6,10.56-6.8,22.6,27.06-9.99-4.07,13.68-27.06,9.99-8.01,26.68,32.08-11.85-4.06,13.57-51.41,18.98,27.01-90.1,47.93-17.7Z"/>
      <path class="cls-3" d="M256.75,58.67l-11.41,37.98-19.33,7.14,27.01-90.1,25.61-9.46c15.17-5.6,25.08-3.49,24.55,9.84-.38,9.65-5.52,21.48-21.22,30.7,10.13-.96,13.16,4.22,8.99,18.05l-5.81,19.13-19.33,7.14,6.68-22.02c4.29-14.4,0-14.21-9.38-10.75l-6.38,2.36ZM284.08,22.51c.22-5.53-2.86-7.17-9.52-4.71l-6.28,2.32-7.68,25.59,8.41-3.1c9.47-3.5,14.72-11.1,15.08-20.1Z"/>
    </g>
  </g>
</svg>