<svg id="_j0tvqs0" xmlns="http://www.w3.org/2000/svg" viewBox="179.757 0 190.175 248.006" width="190.16065705128204" height="248" style="flex-shrink: 0">
  <g id="_j0tvqs1">
    <g>
      <path d="M283.924 1.029c0.402 0.197 1.263 1.071 1.874 1.07 0.542 0 1.986-0.897 2.715-1.07 1.077-0.258 4.985-0.353 5.584 0.611 1.179 1.899-0.595 9.454-0.368 11.976 0.079 0.269 1.346 0.099 1.786 0.62 0.929 1.098 0.216 5.986-0.349 7.353 2.991 0.16 6.673-0.163 7.768 3.267 0.307 0.961 0.735 4.63 0.743 5.67 0.019 2.253-1.725 9.891-2.699 11.974-0.861 1.843-4.822 2.932-6.657 3.547l-0.107 5.956c-0.428 0.44-3.488-1.591-4.337-1.39-0.5 0.118-2.597 3.012-3.249 3.524 1.368 0.509 2.892 0.418 4.273 0.833 0.857 0.254 1.387 0.828 2.225 0.85 1.456-4.668 5.046-6.655 3.935 0.22l2.37 0.476c0.141-0.912 1.065-6.381 2.608-5.6 1.171 0.592 0.33 5.614 0.956 6.841 2.43 1.819 4.292 4.536 6.044 7.073 0.345 0.087 0.391-0.216 0.552-0.391 1.065-1.14 3.606-5.625 5.718-3.992 0.66 0.513 0.338 1.896 1.194 1.77 0.231-0.745 0.861-1.743 1.323-2.359 0.982-1.299 3.226-4.231 4.789-4.486 1.441-0.235 2.54 1.158 2.654 2.481 0.091 1.056-0.827 4.265-0.682 4.691 0.19 0.574 1.266 0.269 1.811 0.695 2.699 2.101 0.709 8.341-0.83 10.791-1.179 1.877-3.2 2.366-4.219 3.612-0.508 0.619-0.129 2.815 0.257 3.347 0.125 0.171 2.855 1.455 3.564 2.13 6.066 5.755 8.022 17.841 3.155 24.796-0.47 0.668-2.529 2.291-2.575 2.466-0.546 2.036 1.179 4.706-0.827 6.244-0.318-0.938-0.796-0.543-0.351 0.236-0.554-0.008-1.054 0.19-1.43 0.589l-7.226 7.748c-0.315 0.707 0.834 4.144 1.012 5.143-0.303 1.519 0.963 3.859 0.762 5.155-0.212 1.371-4.181 4.175-4.216 4.527 1.013 1.721 1.403 3.643 2.078 5.474 0.77 2.089 1.854 4.299 2.589 6.233 2.067 5.424 3.749 11.065 5.949 16.568 0.33 0.824 1.562 2.788 1.649 3.336 0.33 2.074-0.182 4.342-0.235 6.392-0.334 12.778 0.053 25.404 0 38.03-0.011 2.819 0.444 5.717 0 8.531-0.193 1.234-1.839 2.082-2.896 2.561-2.889 1.311-7.022 2.377-10.138 3.387-0.311 0.103-0.618 0.145-0.945 0.122 2.726 2.629 5.945 4.657 8.667 7.354 1.194 1.181 4.095 4.163 4.667 5.542 0.254 0.615 0.125 1.501-0.458 1.846-1.229 0.726-6.961-1.087-8.785-1.376-3.26-0.521-6.248-0.475-9.493-1.42-2.332-0.676-6.646-1.918-8.72-2.906-3.465-1.649-1.031-4.091-1.054-6.902-0.982 0.11-2.02-0.107-2.965-0.106-1.418 0-6.188 1.033-6.722-0.531-0.06-0.179 0.159-3.263 0.205-3.757 0.974-10.697 2.555-21.883 4.322-32.496 0.709-4.262 1.998-7.274 0.421-11.699-0.216-2.943-0.357-5.849-0.474-8.793-0.011-0.289 0.178-0.882-0.235-0.828-1.85 12.379-3.529 24.845-6.002 37.11-1.092 5.413-2.597 10.639-4.03 15.919-0.41 1.508-1.312 6.742-1.953 7.548-1.248 1.569-2.259-0.437-2.415-0.475-1.171-0.289-3.734 0.141-5.167 0-0.686-0.064-3.856-1.021-4.151-0.71-0.053 0.057 0.045 0.965-0.266 1.519-0.353 0.626-3.401 1.964-4.261 2.381-6.844 3.297-13.929 6.438-21.129 9.006-0.929 0.331-2.741 1.755-3.538 0.775-0.485-0.592-0.114-1.155 0.262-1.682 1.638-2.325 5.6-5.132 7.731-7.335 1.858-1.918 3.89-4.262 5.542-6.199 0.466-0.547 0.812-1.215 1.426-1.671-1.137-0.387-2.332-0.695-3.495-1.011-2.214-0.6-4.428-1.204-6.549-2.229-1.133-0.551-2.305-0.95-2.206-2.495 0.163-2.606 1.464-5.74 1.687-8.414 4.777-19.965 10.259-39.933 12.466-60.448 0.671-6.233 1.312-12.414 1.892-18.65-0.982 0.372-1.956 0.156-2.942 0.254-0.83 0.083-1.547 0.824-2.476 0.183-0.527-3.24-0.648-6.533-1.012-9.796-0.079-0.711-0.364-1.44-0.443-2.169-0.19-1.728 0.607-2.614-1.047-3.822-2.366-1.736-3.962-3.35-5.703-5.811-2.097-2.97-1.926-4.262-5.091-6.78-0.898-0.714-1.467-0.87-2.476-1.561-2.984-2.036-5.084-4.999-5.186-8.699-2.877-0.547-5.744-0.874-5.157-4.668 0.459-2.951 2.942-2.397 5.191-2.283 0.133-1.288 0.451-2.556 0.849-3.779 1.509-4.634 4.076-10.719 6.34-15.034 0.345-0.657 1.96-2.776 2.02-3.191 0.114-0.767-1.445-1.819-1.365-3.031 0.038-0.547 1.418-2.78 1.873-3.114 0.895-0.665 1.399-0.015 1.805-0.316 0.353-0.262 0.398-0.851 0.656-1.143 1.638-1.869 4.11-4.163 6.119-5.629 4.508-3.293 9.236-1.854 14.437-1.809 0.235-0.197-1.789-2.332-1.998-2.628-1.684-2.377-3.473-5.352-3.692-8.299-2.476 0.882-4.822-0.414-5.532-2.891-0.205-0.711-0.042-1.994-0.209-2.286-0.057-0.099-1.323-0.984-1.714-1.49-2.013-2.625-2.46-7.627-1.409-10.696 0.258-0.76 0.538-1.785 1.273-1.166-0.573-0.623 0.58-1.299 0.709-1.185 0.087 0.076-0.193 0.566 0.239 0.474-0.129-1.044 0.167-0.425 0.735-0.778 0.299-0.186 2.21-1.8 2.253-1.945 0.015-0.057 0.095-1.113 0.086-1.17-0.019-0.163-0.41-0.11-0.503-0.467-0.747-2.804-2.214-7.988-2.112-10.719 0.015-0.369 0.118-0.608 0.284-0.923s3.67-2.928 4.156-3.198c1.714-0.957 7.481-2.446 9.478-2.621 0.868-0.076 2.343 0.247 2.763 0.16 0.276-0.057 1.183-0.741 1.676-0.946 4.436-1.843 9.694-3.802 14.293-1.523ZM283.785 3.06c0.311-0.452-1.6-1.367-1.96-1.473-2.798-0.832-9.247 1.23-11.792 2.799 1.607 1.914 0.705 4.95-1.8 5.31-0.785 0.114-3.465 0.079-3.913-0.607-0.947-1.47 0.754-2.67 1.205-3.882-0.299-0.269-6.938 1.44-7.821 1.785-0.534 0.209-3.749 2.264-4.034 2.613-0.372 0.455-0.144 0.991-0.474 1.428l0.466-0.125 1.665 10.454c2.939-1.17 5.857-3.031 8.823-4.107 6.195-2.241 11.23-1.379 17.174-2.298 1.577-0.243 2.999-0.699 4.492-0.942 1.903-0.308 3.894-0.156 5.805-0.361 0.519-0.361-0.042-4.577 0.932-5.242 0.079-0.213-0.455-0.042-0.455-0.216 0-1.234 1.3-4.991-0.246-5.496-2.002-0.653-3.67 0.615-5.463 0.368-0.11 0.391 0.349 0.126 0.429 0.346 0.804 2.207-2.639 4.984-4.584 3.46-0.963-0.76-1.02-1.698-0.251-2.632 0.353-0.425 1.733-1.087 1.794-1.178ZM283.075 5.678c0.11 0.122 2.267-0.608 2.131-1.303-0.083-0.414-0.361-0.266-0.633-0.168-0.303 0.11-2.002 0.919-1.502 1.471ZM265.764 8.291c1.387 0.452 4.258-0.619 3.204-2.378-0.857-1.428-3.518 1.048-3.204 2.378ZM293.979 15.425c-0.573-0.023-0.827-0.152-0.708 0.47l0.708-0.239v-0.231ZM275.246 17.324h-0.708s0 0.711 0 0.709c0.58 0.156 0.462-0.254 0.708-0.709ZM283.546 17.794c0.171-0.335-0.152-0.634-0.231-0.47-0.171 0.335 0.152 0.634 0.231 0.47ZM272.877 17.559c-0.295-0.16-0.827 0.38-0.713 0.471 0.295 0.16 0.827-0.38 0.713-0.471ZM285.68 17.798h-0.709v0.472h0.709v-0.472ZM270.03 18.033c-1.312 0.072-0.778 0.54-0.94 1.266-0.064 0.296-0.58 0-0.479 0.395 0.94 0.057 1.191-0.901 1.422-1.661ZM281.173 18.983c-0.391-0.41-0.402 0.129-0.494 0.335-0.387 0.854-0.5 1.93-0.966 2.83-0.785 1.516-2.969 3.597-4.698 3.866-0.936 0.145-4.955-0.444-5.854-0.812-1.847-0.752-3.041-1.808-4.208-3.385-0.33-0.444-0.701-1.66-1.198-1.668l-8.193 3.461c-0.88 1.238 0.705 1.846 1.202 2.852 0.137 0.277 0.307 0.54-0.133 0.6-0.345 0.049-1.202-0.711-1.717-0.888-1.82-0.634-4.208-0.308-4.694 1.823-0.406 1.789-0.417 5.094 0.394 6.761 0.125 0.262 1.3 2.191 1.403 2.279 0.455 0.38 0.675-0.95 1.194-1.291s1.971-0.619 1.411 0.224c-0.432 0.653-1.266 0.828-0.952 2.017 0.891-0.045 1.816 0.083 2.704-0.027 0.793-0.099 2.991-1.254 3.358-0.699 0.599 0.912-0.428 1.835-1.289 1.941 0.504 2.526 0.785 5.842 1.828 8.212 0.974 2.215 3.863 6.404 5.956 7.575 5.668 3.16 12.682 2.655 17.879-1.121 1.547-1.124 2.646-2.537 3.708-4.122-0.015-0.224-3.749-1.785-4.125-1.766-1.395 0.064-4.963 2.313-6.649 2.845-0.978 0.308-1.971 0.695-2.954 0.205l1.801-8.44-0.159-1.272c0.376-0.38 3.397 1.303 4.034 1.538 4.576 1.694 8.974 2.393 13.849 1.531 1.986-0.353 5.228-1.485 5.908-3.585 0.819-2.533 1.107-5.602 1.937-8.156-0.515-1.58 0.675-7.088 0.004-8.196-0.288-0.475-2.73-1.029-3.382-1.125-5.615-0.816-11.484 1.478-17.133 1.125-0.11-0.611 0.098-0.425 0.474-0.582 0.812-0.335 1.736-0.414 2.604-0.368 0.019-0.756-0.932-0.835-1.433-1.296-1.031-0.946-1.251-3.046-1.414-3.217ZM266.234 19.223c-0.334-0.171-0.633 0.152-0.47 0.232 0.334 0.171 0.633-0.152 0.47-0.232ZM293.153 21.597v0.239c0.156-0.079 0.156-0.16 0-0.239ZM276.433 23.025c-0.496-0.068-0.538-0.023-0.47 0.471l0.47-0.471ZM274.299 23.97c-0.079-0.342-0.383-0.543-0.709-0.47v0.47s0.709 0 0.709 0ZM288.053 23.5c-0.334-0.171-0.633 0.152-0.47 0.231 0.334 0.171 0.633-0.152 0.47-0.231ZM252.957 25.399c-0.334-0.171-0.633 0.152-0.469 0.232 0.334 0.171 0.633-0.152 0.469-0.232ZM254.262 25.399v0.239c0.156-0.079 0.156-0.16 0-0.239ZM254.735 38.701v0.239c0.156-0.079 0.156-0.16 0-0.239ZM257.227 39.89h-4.031c0.398 3.513 4.769 4.683 4.031 0ZM276.789 43.217v0.24c0.156-0.079 0.156-0.16 0-0.24ZM256.157 55.33v0.24c0.156-0.079 0.156-0.16 0-0.24ZM301.528 65.263c-0.087-2.53 0.406-5.094 0.201-7.62-0.049-0.6-0.026-1.747-0.626-2.073-0.387 1.736-0.83 3.536-0.815 5.344 0.008 0.953 0.326 1.952 0.349 2.841 0.049 1.706-0.182 3.973 0.091 5.591 0.034 0.201 0.091 0.543 0.368 0.475l0.716-4.273-0.716-0.122 0.432-0.163ZM295.166 56.283c-0.671-0.137-0.379 0.194-0.55 0.51-0.705 1.322-2.15 4.023-2.476 5.367-0.273 1.117 0.079 2.796-1.683 1.098l-1.456-4.361c-0.019 1.493-0.22 3.396 0.015 4.85 0.148 0.908 1.433 2.633 0.452 3.123-0.656 0.327-1.866-1.094-2.385-1.425-1.395-0.885-2.753-1.777-4.489-1.443 2.21 1.485 5.486 6.473 8.523 4.976 1.763-0.866 2.138-5.96 2.586-7.863 0.368-1.576 0.925-3.301 1.459-4.832ZM287.814 56.52c-1.206-0.277-0.951 0.676-1.781 1.424-3.64 3.286-13.126 4.288-17.512 2.343-0.747-0.331-1.657-1.147-2.226-1.333-1.668-0.543 0.087 1.379 0.383 1.991 0.538 1.121 1.334 3.031 1.74 4.197 0.276 0.798 0.913 4.186 1.24 4.471 0.459 0.406 2.078-0.611 2.882-0.719 0.868-0.114 2.813-0.129 3.59 0.164 0.523 0.197 1.547 1.303 2.047 1.204 0.538-0.103 3.279-3.658 4.659-3.532 0.322-0.421-4.652-2.541-2.123-4.145 1.661-1.052 3.871-0.369 5.498 0.406 0.694 0.331 1.122 0.98 1.842 1.125-0.315-2.59-0.682-4.991-0.239-7.6ZM292.076 57.72c-0.057-0.079-1.793-0.577-1.888-0.487l0.952 2.849 0.838-1.656c0.068-0.186 0.193-0.574 0.098-0.71ZM323.138 57.477c-0.315-0.068-0.595 0.038-0.876 0.17-0.675 0.323-3.155 3.532-3.722 4.349-1.543 2.215-2.858 4.657-3.682 7.24-3.48 0.931 0.205-5.667-0.963-6.544-1.653 1.242-2.809 2.819-3.833 4.592-0.588 1.018-1.532 2.887-1.972 3.961-0.216 0.528-1.471 4.346-1.308 4.51 1.831-0.057 3.792-0.596 5.562-0.722 1.96-0.141 4.057 0.114 5.911 0.25 0.554 0.042 1.054 0.528 1.634 0.43 0.364-0.06 3.059-1.96 3.378-2.329 1.141-1.322 2.672-6.031 2.195-7.681-0.129-0.452-0.77-0.942-1.247-0.899-0.751 0.068-1.941 3.544-2.533 4.383-1.02 1.447-4.159 3.673-4.249 0.505-0.053-1.846 1.395-4.068 2.71-5.264 0.546-0.498 1.888-1.037 2.245-1.672s1.312-4.9 0.746-5.291ZM258.61 57.746c-3.352-0.095-7.006-0.403-9.85 1.698-0.148 0.11-0.216 0.463-0.424 0.63-1.05 0.858-5.096 4.303-5.308 5.409-0.167 0.87 2.18 3.575 2.809 4.46 0.432 0.604 0.686 1.569 1.183 2.139 0.754 0.866 3.841 3.054 4.91 3.634 2.317 1.257 1.266 0.148 0.902-1.143-0.318-1.132-1.304-5.363-0.724-6.192 1.27-1.823 3.548 3.707 3.807 3.575 0.913-1.136 1.922-2.928 3.086-3.806 0.527-0.399 0.898-0.243 1.008-0.315 0.542-0.35 1.206-1.348 2.188-1.353-0.88-3.039-2.169-5.926-3.591-8.743ZM266.948 67.447c-1.054-2.393-1.657-6.302-3.114-8.402-0.531-0.767-2.169-0.794-3.055-0.859 0.599 0.953 1.221 1.899 1.702 2.926 0.633 1.348 1.357 4.133 2.12 5.241 0.394 0.574 1.657 0.961 2.343 1.094ZM299.2 59.132l-2.844-0.714-2.582 11.293c2.078 0.828 2.965 1.766 3.648 3.913 0.087-0.308 0.781-0.972 0.785-1.064 0-0.163-1.414-2.291-1.653-2.815-0.413-0.916-2.415-6.328 0.272-5.033 0.739 0.357 0.19 1.033 0.235 1.072 0.049 0.042 0.447-0.114 0.733 0.156 0.451 0.429 0.754 1.858 1.402 2.221 0.159-3.031-0.44-6.051 0-9.025ZM305.038 63.258c-0.558-0.711-1.361-1.629-2.043-2.226l-0.239 5.701c4.633-2.001 2.586 2.169 1.657 4.619l1.422 2.981c0.28-2.37 1.414-4.505 2.134-6.753-0.026-0.452-2.441-3.703-2.935-4.326ZM319.597 68.397c0.573-0.266 0.994-1.048 1.066-1.66-0.455 0.448-1.077 0.95-1.066 1.66ZM243.354 68.397v0.239c0.156-0.079 0.156-0.16 0-0.239ZM288.053 78.85c-0.637-2.275-0.861-4.645-0.72-7.012 0.03-0.475 0.477-1.113 0.379-1.306-0.087-0.175-2.605-2.009-2.854-2.033-1.383-0.11-5.224 2.496-5.343 4.175 3.742-0.103 6.464 2.462 8 5.656 0.156 0.323-0.152 0.653 0.535 0.52ZM266.932 74.33c0.137-0.197 0.739-2.567 0.622-2.833-0.148-0.335-2.279-1.831-2.726-2.04-1.831-0.851-2.582-0.509-4.409-0.072 0.231 0.634-0.489 0.555-0.88 0.907-0.459 0.414-2.426 2.575-2.498 3.016-0.06 0.353 2.203 3.97 2.589 4.44 0.94 1.143 1.736-1.128 2.453-1.754 0.485-0.425 2.203-1.356 2.836-1.542 0.504-0.148 1.956-0.042 2.013-0.126ZM303.465 69.821l0.125-0.706c-0.361 0.243-0.588 0.748-0.125 0.706ZM271.452 69.59c-0.334-0.171-0.633 0.152-0.471 0.231 0.334 0.171 0.633-0.152 0.471-0.231ZM299.673 71.721l-1.069-1.418c-0.102 0.323 0.697 1.774 1.069 1.418ZM292.679 70.775v0.239c0.156-0.079 0.156-0.16 0-0.239ZM258.36 85.216c0.231-0.395-0.034-2.606 0.072-3.377 0.098-0.707 0.709-1.459 0.591-2.039l-5.592-8.79c0.455 1.854 0.72 4.581 1.793 6.161 0.406 0.6 1.827 1.269 0.93 1.918-3.029-1.675-6.256-3.145-9.835-2.495 1.729 1.189 3.685 1.952 5.432 3.11 0.477 0.316 4.273 2.993 3.58 3.658l-10.434-1.067c1.118 0.748 2.54 1.44 3.799 1.896 1.414 0.513 3.336 0.372 4.246 1.701 0.216 1.277-4.421 0.991-4.485 2.697 2.892-0.107 4.617 0.429 7.188-1.231 0.342-0.22 2.631-1.994 2.719-2.142ZM240.859 71.249l-0.488 0.148c-1.206 2.499-2.787 4.915-3.89 7.457s-2.514 6.176-3.447 8.899c-0.511 1.497-0.959 4.459-1.555 5.569-0.99 1.843-4.728-0.676-4.511 2.161 0.205 2.674 3.962 1.181 4.758 2.143 0.584 0.703 0.44 2.617 0.713 3.562s1.968 3.354 2.676 4.034c0.406 0.391 3.792 2.712 4.213 2.845 0.648 0.205 0.167-0.672 0.242-0.979 0.648-2.742 4.247-3.699 6.749-3.53 0.122 0.672-0.159 0.391-0.519 0.536-2.415 0.965-5.884 1.724-4.478 5.303 0.364 0.927 1.342 1.071 1.565 1.527 0.307 0.626-0.114 1.048-0.052 1.508 0.227 1.747 5.998 8.376 7.757 9.063 0.731 0.285 3.287 0.745 3.518-0.259 0.023-0.103-0.417-1.839-0.497-1.937s-1.748-0.984-2.149-1.291c-1.357-1.044-5.331-4.368-5.399-6.021-0.148-3.753 5.08 1.09 5.941 2.15 1.509 1.858 1.823 4.524 4.648 4.368 1.695-0.095 1.334-5.443 0.091-6.267-0.481-0.319-2.422-0.68-3.234-1.037-1.479-0.649-5.641-2.845-4.319-4.888 0.895-1.382 3.803 0.06 4.884 0.759 2.514 1.626 3.279 5.128 6.949 3.495 1.839-0.82 1.039-2.347 0.095-3.666-2.221-3.099-9.569-7.297-13.383-6.811-0.891 0.114-1.93 0.634-2.677 1.132-0.55 0.361-1.278 1.314-1.823 1.505-0.778 0.269-0.345-1.226-0.175-1.607 0.827-1.835 3.495-2.769 5.395-2.792 0.095-0.083-1.005-2.048-1.179-2.26-0.55-0.665-2.858-1.762-2.859-2.609 0-0.645 2.745-2.655 3.091-3.442-0.827-0.148-2.999 0.521-2.856-0.824 0.11-1.029 4.292-2.401 4.99-3.452-2.07-0.509-4.493-1.47-6.324-2.576-1.653-0.999-1.983-1.884 0.277-2.199l7.707 0.615c-1.194-1.664-6.915-3.597-7.711-4.865-0.675-1.079 1.315-0.916 1.304-1.311-1.509-1.068-3.226-2.48-4.03-4.156ZM296.356 77.661c-0.318-1.242-0.459-4.536-1.429-5.337-1.289-1.064-4.129-0.862-5.683-0.6l-0.239 6.887 7.355-0.953ZM296.235 72.913v0.239c0.156-0.079 0.156-0.16 0-0.239ZM302.957 72.951c-0.379-0.239-2.969 0.342-3.287 0.577-0.25 0.186-0.334 0.619-0.584 0.813-1.528 1.192-1.782 0.532-1.308 3.08l6.638-1.188c-0.523-0.463-1.13-3.077-1.459-3.282ZM284.399 77.057c-1.964-1.933-4.208-2.811-6.908-1.778-0.766 0.293-4.409 2.663-4.341 3.411 0.057 0.615 1.24 2.108 1.171 2.99 3.894-0.517 7.723-1.747 11.598-2.355-0.376-0.897-0.842-1.599-1.52-2.268ZM254.023 76.236v0.24c0.156-0.079 0.156-0.16 0-0.24ZM318.88 76.24c-0.087-0.079-0.887-0.148-0.709 0.354 0.261 0.733 0.955-0.122 0.709-0.354ZM270.659 78.937c-0.197-0.224-1.596-1.459-1.835-1.606-4.379-2.738-8.99 3.278-8.515 7.46l11.863-2.488c0.322-0.235 0.201-0.316 0.129-0.611-0.156-0.615-1.187-2.241-1.642-2.759ZM318.873 77.197c-0.656-0.049-1.319 0.042-1.979-0.034-4.617-0.551-12.325 1.257-17.285 1.979-12.273 1.785-24.658 4.558-36.574 6.48-1.005 0.163-2.263 0.764-3.45 0.707-0.394 0.224 0.391 2.522 0.462 3.119 0.629 5.025 0.868 10.131 1.464 15.163 1.289 2.484 3.78 4.391 1.501 7.244-0.235 0.296-0.778 0.429-0.929 0.728-0.477 0.957 1.084 9.082 1.304 10.819 0.141 1.121-0.075 2.325 0.243 3.441l8.538-2.143c-0.584-2.966-1.383-5.963-1.866-8.948-1.024-6.347-1.054-12.865-2.168-19.209-0.122-1.068 1.532-1.796 2.373-2.131 4.864-1.941 3.375 2.211 3.557 5.458 0.33 5.834 1.282 12.193 2.191 17.997 0.307 1.96 0.663 3.951 1.13 5.884l3.302-0.729c-0.633-10.069-2.582-20.059-3.014-30.107 1.107-0.969 5.675-2.868 6.298-0.827l3.601 29.422c0.47-0.034 3.052-0.406 3.105-0.756-0.701-3.43-0.823-6.928-1.232-10.396-0.641-5.443-1.843-11.456-2.116-16.888-0.023-0.44-0.079-1.967 0.061-2.219 0.098-0.175 2.18-0.893 2.495-0.945 3.711-0.585 2.768 1.724 3.203 4.285 1.133 6.697 2.95 14.263 3.5 20.963 0.079 0.987-0.201 2.731 0.037 3.525s2.809-0.281 3.504-0.338c-0.357-2.625-0.565-5.291-0.963-7.909-1.013-6.685-2.388-13.15-2.594-19.979-0.015-0.494-0.079-1.014 0.232-1.451 0.917-1.284 5.384-1.653 5.895 0.543 0.955 4.087 0.785 8.775 1.843 12.885 0.197 3.236 0.588 6.605 1.08 9.845 0.25 1.653 0.925 3.168 0.683 4.899 0.8-0.145 3.204 0.072 3.332-0.839-0.595-4.094-0.982-8.216-1.463-12.318s-0.902-7.43-1.161-11.669c-0.064-1.083-0.637-3.358-0.47-4.269 0.288-1.603 5.918-3.396 6.108-0.429 0.864 9.469 2.593 18.859 3.143 28.332 2.635-0.335 5.153-1.405 7.825-1.424 0.212-1.371-0.637-2.738 0-4.038-3.332-0.3-3.988-3.935-3.495-6.712 0.098-0.547 0.868-2.602 0.774-2.803-0.114-0.243-2.191-1.409-2.734-2.245s-0.197-1.003-0.314-1.496c-0.011-0.042-0.364 0.03-0.417-0.391-0.28-2.191 1.202-3.855 1.182-5.01-0.011-0.498-1.24-2.951-1.475-3.959-0.398-1.706-0.808-5.128 0.539-6.503 0.413-0.421 1.789-0.699 1.892-0.843 0.201-0.277-0.804-3.126-0.706-3.764ZM260.426 80.514v0.239c0.156-0.079 0.156-0.16 0-0.239ZM322.478 101.698c-0.22 0.129-1.156 3.187-1.202 3.669-0.508 5.435 3.613 4.908 5.866 0.881 3.446-6.165 1.816-18.559-4.485-22.51-1.342-0.843-3.749-1.937-4.194 0.274-0.353 1.759-0.064 3.575 0.611 5.219 0.944 2.291 0.947 1.033 2.756 1.276 3.537 0.467 5.023 6.34 0.978 5.675-1.357-0.22-2.086-1.653-3.097-2.358-1.028 1.478-1.111 3.594 0.189 4.914 0.064 0.064 1.43 0.969 1.521 0.98 1.27 0.145 0.864-0.638 1.505-1.253 2.866-2.765 4.478 2.044 0.762 3.145-0.379 0.11-0.974-0.049-1.21 0.091ZM258.766 83.127v0.239c0.156-0.079 0.156-0.16 0-0.239ZM259.831 103.084l-1.774-15.201c-0.793 1.311-8.276 8.296-8.341 8.903-0.019 0.182 0.459 1.542 0.633 1.668 0.558 0.399 2.676 0.547 3.405 1.105l6.081 3.529ZM307.969 89.303c0.171-0.335-0.152-0.634-0.231-0.471-0.171 0.335 0.152 0.634 0.231 0.471ZM250.497 93.736c0.303-0.471 0.197-3.191-0.016-3.495-0.231-0.335-1.721-0.331-2.039-0.113-0.163 0.11-1.6 2.959-1.873 3.433 1.043 0.319 1.729 1.189 2.476 1.918 0.345-0.524 1.156-1.284 1.452-1.743ZM299.196 90.017h-0.47c-0.098 0.103 0.148 1.348 0.47 1.185v-1.185ZM329.314 91.445c-0.334-0.171-0.633 0.152-0.47 0.233 0.334 0.171 0.633-0.152 0.47-0.233ZM323.858 94.769c0.656-1.386-1.74-3.699-2.851-2.974-0.652 0.425 0.542 1.451 0.782 1.858 0.148 0.25-0.057 0.509-0.046 0.532 0.064 0.145 0.417-0.114 0.675 0 0.451 0.194 0.793 0.748 1.44 0.584ZM291.132 92.391c0.171-0.335-0.152-0.634-0.231-0.471-0.171 0.335 0.152 0.634 0.231 0.471ZM260.07 94.055c0.171-0.335-0.152-0.634-0.231-0.471-0.171 0.335 0.152 0.634 0.231 0.471ZM259.713 95.244v0.239c0.156-0.079 0.156-0.16 0-0.239ZM270.151 96.669v0.239c0.156-0.079 0.156-0.16 0-0.239ZM272.285 96.908v0.239c0.156-0.079 0.156-0.16 0-0.239ZM324.81 98.097c-0.334-0.171-0.633 0.152-0.47 0.231 0.334 0.171 0.633-0.152 0.47-0.231ZM324.337 99.285c-0.496-0.068-0.538-0.023-0.471 0.472l0.471-0.472ZM324.927 99.521v0.24c0.156-0.079 0.156-0.16 0-0.24ZM271.099 100.235v0.239c0.156-0.079 0.156-0.16 0-0.239ZM272.638 104.037c-0.496-0.068-0.538-0.023-0.47 0.471l0.47-0.471ZM298.604 104.748v0.239c0.156-0.079 0.156-0.16 0-0.239ZM291.371 107.596c-0.019-0.528 0.148-1.656-0.47-1.899l0.47 1.899ZM327.657 106.172c-0.361 0.361 0.705 1.014 0.705 0.353 0-0.156-0.569-0.49-0.705-0.353ZM310.938 106.647v0.239c0.156-0.079 0.156-0.16 0-0.239ZM255.092 110.21c-1.198-1.39-3.093-2.932-4.978-3.085-0.747 0.665 4.348 3.187 4.978 3.085ZM302.991 107.836s-0.5-0.091-0.47 0.117c0.372 0.649 0.739 0.16 0.47-0.117ZM291.61 108.546c0.171-0.335-0.152-0.634-0.232-0.471-0.171 0.335 0.152 0.634 0.232 0.471ZM300.739 108.31v0.239c0.156-0.079 0.156-0.16 0-0.239ZM291.371 109.025c-0.334-0.171-0.633 0.152-0.47 0.231 0.334 0.171 0.633-0.152 0.47-0.231ZM291.727 109.974v0.239c0.156-0.079 0.156-0.16 0-0.239ZM285.919 110.928c-0.334-0.171-0.633 0.152-0.47 0.231 0.334 0.171 0.633-0.152 0.47-0.231ZM309.516 111.638v0.239c0.156-0.079 0.156-0.16 0-0.239ZM249.791 113.385c-0.315-0.289-1.858-1.409-2.172-1.504-0.299-0.091-0.474 0.057-0.348 0.35 0.156 0.365 2.794 3.084 3.264 3.448 0.432 0.335 1.175 0.828 1.714 0.946 0.152-0.137-2.195-2.997-2.458-3.24ZM294.218 113.062v-1.185c-0.322-0.163-0.569 1.083-0.47 1.185h0.47ZM260.782 112.823h-1.66c0.614 3.404 0.846 8.056-4.034 7.13 1.164 2.83-1.782 3.673-4.03 3.323l1.661 12.592c0.269-0.145 0.603-0.171 0.857-0.327 1.024-0.626 4.299-3.419 5.277-4.345 1.141-1.083 1.873-2.514 3.074-3.536-0.614-4.912-0.955-9.875-1.145-14.833ZM292.557 112.827c-0.496-0.068-0.538-0.023-0.47 0.471l0.47-0.471ZM325.284 112.827h-0.709v0.471h0.709v-0.471ZM312.227 115.687c-0.083-0.068-0.5 0.019-0.698-0.008-0.144 0.57 0.406 1.653 0.948 1.186 0.045-0.038-0.205-1.14-0.25-1.178ZM321.015 117.339c-4.019 1.565-8.451 1.478-12.655 2.165-10.464 1.713-20.738 4.277-31.154 6.324-4.015 0.79-8.208 1.079-12.154 2.314-2.537 0.794-3.545 2.993-5.448 4.755-1.445 1.341-3.174 2.283-4.508 3.677 0.932-0.205 1.85-0.471 2.798-0.642 16.11-2.883 32.222-5.982 48.54-7.672 1.702-0.175 3.238-0.745 4.94-0.753 2.942-3.628 6.809-6.446 9.648-10.168ZM301.452 117.814v0.239c0.156-0.079 0.156-0.16 0-0.239ZM302.165 120.188v0.239c0.156-0.079 0.156-0.16 0-0.239ZM296.948 121.141v0.24c0.156-0.079 0.156-0.16 0-0.24ZM275.485 123.276c-0.042-0.494 0.06-1.641-0.47-1.899-0.186 0.638-0.652 1.858 0.47 1.899ZM284.732 122.326l-0.47-0.47c-0.068 0.498-0.023 0.54 0.47 0.47ZM285.563 121.852v0.239c0.156-0.079 0.156-0.16 0-0.239ZM273.347 122.565c-0.637-0.692-0.489 1.736-0.47 1.904 0.235-0.042 0.872 0.06 0.948 0s-0.41-1.827-0.475-1.9ZM258.655 143.225c3.124 0.285 6.233 0.714 9.362 0.958 11.321 0.878 25.042 0.057 35.926-3.438 2.135-0.684 7.783-2.72 9.357-3.928 0.269-0.205 1.573-1.467 1.664-1.663 0.144-0.316-0.091-3.043-0.152-3.662-0.141-1.455-0.519-2.943-0.682-4.406-0.58 0.277-0.754 1.405-1.168 1.793-0.697 0.649-1.479 0.205-2.267 0.342-5.205 0.889-10.548 0.942-15.821 1.728-7.731 1.155-15.469 3.035-23.127 4.387-3.969 0.703-8 1.158-11.977 1.781-0.175 0.045-0.322 0.137-0.436 0.278-0.515 0.645-0.311 4.786-0.679 5.834ZM290.662 131.116c0.254-0.228-0.485-0.965-0.709-0.71-0.357 0.406 0.311 1.068 0.709 0.71ZM315.206 131.355v0.239c0.156-0.079 0.156-0.16 0-0.239ZM283.785 132.305s-0.5-0.091-0.47 0.118c0.372 0.649 0.739 0.16 0.47-0.118ZM257.462 138.724c-0.334-0.171-0.633 0.152-0.47 0.232 0.334 0.171 0.633-0.152 0.47-0.232ZM312.003 141.334c0.159-0.296-0.379-0.828-0.47-0.715-0.159 0.296 0.379 0.828 0.47 0.715ZM315.901 154.321c-1.623-4.334-3.355-8.645-4.963-12.991-0.66-0.623-3.272 1.09-4.167 1.329 2.024 5.113 4.132 10.218 5.949 15.418 2.089 5.975 5.183 14.016 5.232 20.192 0.075 9.804-1.118 20.051-1.453 29.932-0.156 4.589 0.137 9.264-0.045 13.796-0.064 1.618-0.144 3.304-0.534 4.865l5.512-2.435c0.515-0.444 0.531-5.706 0.546-6.723 0.141-10.355 0.209-20.944 0.463-31.352 0.057-2.328 0.125-4.786 0.227-7.137 0.182-4.16 0.838-3.852-0.592-8.177-1.823-5.527-4.197-11.433-6.171-16.717ZM304.891 143.472h-0.475s0.239 0.711 0.239 0.711h0.232s0-0.711 0-0.711ZM302.4 144.183v0.239c0.156-0.079 0.156-0.16 0-0.239ZM300.857 144.422l-4.732 1.2c0.22 1.728-0.504 3.68-0.504 5.337 0 2.435 4.698 9.48 5.99 12.075 1.63 3.274 3.591 7.919 4.773 11.372 1.888 5.523 0.246 13.435-0.068 19.319-0.542 10.127-0.898 19.809-2.138 29.927-0.201 1.626-0.462 3.267-0.857 4.859l0.269 0.486c0.8-0.455 5.44-0.269 5.577-0.866 0.25-1.071-0.106-3.419-0.019-4.722 1.028-15.455 1.642-30.812 3.113-46.321 0.045-0.976-0.697-1.709-1.012-2.564-1.361-3.699-2.851-7.783-4.027-11.182-2.172-6.283-4.144-12.653-6.365-18.916ZM247.737 225.909c0.531-3.043 1.031-6.1 1.687-9.124 2.855-13.158 5.6-26.285 7.981-39.518 1.721-9.568 4.386-19.543 5.679-28.998 0.049-0.365 0.326-1.926 0.288-2.039-0.148-0.49-3.704-1.006-3.969-0.221-1.46 7.274-2.191 14.673-3.424 21.99-0.633 3.741-1.308 7.741-2.131 11.383-0.205 0.908-0.584 3.152-0.879 3.848-0.125 0.289-1.164 0.015-0.716 0.623 0.015 0.019 0.425-0.076 0.481 0.156 0.091 0.357-0.171 1.401-0.273 1.839-2.65 11.22-5.539 22.893-7.625 34.173-0.175 0.946-1.065 3.658-0.861 4.297 0.163 0.502 3.583 1.774 3.766 1.587ZM294.692 150.123c-0.068-1.561 0.731-2.925 0.474-4.513-0.436 0.091-0.44 0.467-0.482 0.825-0.098 0.816-0.212 2.04-0.239 2.852-0.008 0.266-0.148 0.901 0.247 0.84ZM293.388 146.086v0.239c0.156-0.079 0.156-0.16 0-0.239ZM265.287 146.321c-0.785-0.194-0.432 1.2-0.709 1.664l1.179-0.114c-0.515-0.395-0.519-0.938-0.47-1.546ZM291.136 146.325c-1.877-0.034-3.529 0.729-5.44 0.486-1.733 12.561-3.34 25.134-5.767 37.578-1.535 7.859-3.575 15.399-4.895 23.132-1.263 7.403-1.759 16.109-3.598 23.242-0.102 0.395-0.303 0.528-0.459 0.848l4.269 0.242 0.964-8.181c1.922-8.311 3.033-16.914 4.662-25.264 0.425-2.165 0.959-7.468 1.733-9.146 0.095-0.201 0.28-0.201 0.463-0.175v-0.232c-1.148 0.026 0.167-0.688 0.189-0.752 0.045-0.126-0.227-0.555-0.143-0.961 1.919-9.496 3.678-18.985 5.485-28.503 0.785-4.117 1.763-8.197 2.533-12.307ZM292.318 146.796c0.171-0.335-0.152-0.634-0.231-0.471-0.171 0.335 0.152 0.634 0.231 0.471ZM269.267 149.121c0.209-0.243 0.436-1.865 0.528-2.325-1.206 0.726-1.668 1.709-1.658 3.088 0.368 0.083 0.171-0.319 0.399-0.486 0.197-0.145 0.588-0.107 0.731-0.277ZM276.433 147.274l-5.691-0.239c-0.239 2.636-0.391 5.299-0.743 7.927-2.07 15.323-5.455 30.63-8.341 45.809-1.721 9.055-3.734 18.05-5.072 27.174l0.159 0.22c0.812 0.186 6.165 1.762 6.415 1.546-0.269-1.238 0.299-2.636 0.447-3.947 1.387-12.177 3.302-24.568 5.543-36.734 1.255-6.83 3.226-13.435 4.375-20.321 1.191-7.122 1.558-14.351 2.916-21.431ZM278.329 147.753c-0.645-0.49-0.477 1.025-0.471 1.421 0.55 0.057 1.058-0.194 1.422-0.593-0.778-0.03-0.898-0.786-0.951-0.824ZM284.02 149.409l0.124-0.707c-0.361 0.243-0.588 0.748-0.124 0.707ZM265.995 149.884c0.118-0.987-0.349-0.987-0.231 0h0.231ZM294.692 150.363c-0.622-0.118-0.496 0.137-0.47 0.71h0.231s0.239-0.711 0.239-0.71ZM293.388 152.023v0.239c0.156-0.079 0.156-0.16 0-0.239ZM295.64 153.211c0.269-0.277-0.102-0.764-0.47-0.118-0.03 0.205 0.455 0.133 0.47 0.118ZM293.861 152.976v0.239c0.156-0.079 0.156-0.16 0-0.239ZM277.976 153.211v0.24c0.156-0.079 0.156-0.16 0-0.24ZM295.522 154.4v0.239c0.156-0.079 0.156-0.16 0-0.239ZM266.356 154.875v0.24c0.156-0.079 0.156-0.16 0-0.24ZM297.065 157.724c0.209-0.186-0.58-1.371-0.709-1.185v1.188s0.709 0 0.709 0ZM267.895 157.249c0.171-0.335-0.152-0.634-0.231-0.471-0.171 0.335 0.152 0.634 0.231 0.471ZM267.778 157.488v0.239c0.156-0.079 0.156-0.16 0-0.239ZM311.412 157.963v0.24c0.156-0.079 0.156-0.16 0-0.24ZM294.692 158.442c-0.678-0.114-0.394 0.145-0.504 0.547-0.269 0.969-0.318 1.812 0.034 2.772l0.47-3.323ZM295.761 158.438v0.239c0.156-0.079 0.156-0.16 0-0.239ZM267.183 160.337l0.238-1.66c-0.361 0.015-0.724 1.649-0.238 1.66ZM298.248 160.102c0.095-0.308-0.357-1.192-0.47-0.95-0.064 0.425 0.015 0.832 0.47 0.95ZM266.709 163.19l0.359-2.606c-0.41 0.414-0.47 1.288-0.526 1.85-0.026 0.262-0.28 0.809 0.167 0.76ZM291.136 160.58c-0.334-0.171-0.633 0.152-0.47 0.232 0.334 0.171 0.633-0.152 0.47-0.232ZM281.767 161.052v0.239c0.156-0.079 0.156-0.16 0-0.239ZM262.325 162.001v0.239c0.156-0.079 0.156-0.16 0-0.239ZM310.816 167.941l-0.64-2.799-1.252-2.902c-0.087 1.322 0.663 2.431 1.066 3.563 0.239 0.676 0.075 1.766 0.826 2.138ZM277.616 185.995c1.058-7.787 3.272-15.417 3.795-23.28-0.588 0.243-0.72 1.09-0.841 1.649-0.459 2.142-0.705 4.543-1.119 6.719-0.079 0.414-0.357 0.786-0.402 1.025-0.03 0.167 0.812 0.201 0.66 0.642-0.66 4.163-1.941 8.235-2.302 12.444-0.023 0.266-0.22 0.854 0.205 0.801ZM293.506 163.19c-0.383-0.425-0.406 0.079-0.467 0.357-0.216 0.935-1.179 5.082-1.123 5.671 0.034 0.376 0.466 0.976 0.573 1.527 0.709 3.692 2.225 13.135 1.964 16.557-0.444 5.728-1.881 11.934-2.578 17.609-0.523 4.247-0.641 8.504-1.054 12.729-0.379 3.855-1.387 8.277-1.486 12.06-0.023 0.82 1.937 0.034 2.635 0.015 0.584-0.015 2.419 0.726 2.676-0.145 0.318-7.259 2.101-14.373 2.893-21.593 0.269-2.439 0.269-4.919 0.478-7.362 0.569-6.601 1.919-15.212 1.05-21.545-0.781-5.687-2.544-8.072-4.727-13.023-0.186-0.421-0.72-2.727-0.834-2.849ZM261.966 164.853c0.118-0.987-0.349-0.987-0.232 0h0.232ZM264.339 166.517c-0.079-0.779 0.731-1.911-0.231-2.374 0.243 0.775-0.697 1.96 0.231 2.374ZM261.491 166.513c0.171-0.335-0.152-0.634-0.231-0.47-0.171 0.335 0.152 0.634 0.231 0.47ZM261.139 167.702v0.239c0.156-0.079 0.156-0.16 0-0.239ZM264.1 168.416c0.118-0.987-0.349-0.987-0.231 0h0.231ZM309.99 167.941v0.24c0.156-0.079 0.156-0.16 0-0.24ZM278.685 168.177v0.239c0.156-0.079 0.156-0.16 0-0.239ZM310.938 168.416v0.239c0.156-0.079 0.156-0.16 0-0.239ZM263.861 170.316c-0.148-0.581 0.508-1.432-0.231-1.664 0.122 0.399-0.292 1.542 0.231 1.664ZM310.938 169.366v0.239c0.156-0.079 0.156-0.16 0-0.239ZM302.043 171.74c-0.072-0.889 0.614-1.706-0.47-2.139l0.47 2.139ZM288.766 174.592c0.361 0.361 1.013-0.707 0.356-0.706-0.156 0-0.489 0.57-0.356 0.706ZM273.59 179.344c1.171-0.912 1.122-2.701 1.179-4.037-0.466 0.095-0.406 0.486-0.47 0.831-0.205 1.094-0.303 2.15-0.709 3.206ZM316.507 175.781c-0.766-0.205-0.595 0.767-0.117 1.185l0.117-1.185ZM305.842 177.206c0.994-0.296 0.064-1.242-0.238-0.95-0.156 0.152 0.299 0.726 0.238 0.95ZM259.596 177.68c0.118-0.987-0.349-0.987-0.231 0h0.231ZM316.39 177.445v0.239c0.156-0.079 0.156-0.16 0-0.239ZM316.507 178.395c0.171-0.335-0.152-0.634-0.231-0.472-0.171 0.335 0.152 0.634 0.231 0.472ZM259.24 178.156v0.239c0.156-0.079 0.156-0.16 0-0.239ZM259.24 178.869v0.24c0.156-0.079 0.156-0.16 0-0.24ZM258.883 182.907l0.474-3.323c-0.326-0.057-0.361 0.425-0.409 0.653-0.106 0.494-0.227 1.356-0.27 1.869-0.023 0.266-0.22 0.851 0.205 0.797ZM279.159 180.533v0.239c0.156-0.079 0.156-0.16 0-0.239ZM305.838 183.386l-0.625 0.459-1.035 13.318 0.47-1.786c0.026-4.015 0.739-8.007 1.187-11.991ZM303.7 184.81l0.239-1.189c-0.785 0.452-1.623 0.741-0.239 1.189ZM303.112 184.81v0.24c0.156-0.079 0.156-0.16 0-0.24ZM264.1 185.05c-0.334-0.171-0.633 0.152-0.47 0.232 0.334 0.171 0.633-0.152 0.47-0.232ZM288.528 185.76c-0.334-0.171-0.633 0.152-0.471 0.231 0.334 0.171 0.633-0.152 0.471-0.231ZM303.465 190.508c0.246-0.231-0.447-1.087-0.709-0.354-0.178 0.502 0.622 0.433 0.709 0.354ZM261.252 190.747c0.171-0.335-0.152-0.634-0.231-0.471-0.171 0.335 0.152 0.634 0.231 0.471ZM261.491 190.986c-0.334-0.171-0.633 0.152-0.47 0.233 0.334 0.171 0.633-0.152 0.47-0.233ZM260.305 195.973l0.712-4.512-0.917 3.711 0.209 0.801ZM314.137 191.7c-0.258-0.258-0.731 0.213-0.47 0.472s0.731-0.213 0.47-0.472ZM315.441 192.176v0.239c0.156-0.079 0.156-0.16 0-0.239ZM313.186 196.213l0.239-3.088-0.534 2.427 0.295 0.661ZM257.932 208.326c0.77-4.023 1.763-8.022 2.134-12.113-0.342-0.06-0.307 0.448-0.357 0.706-0.656 3.263-1.175 6.545-1.834 9.804-0.079 0.384-1.009 1.728 0.06 1.607ZM313.072 196.923v0.24c0.156-0.079 0.156-0.16 0-0.24ZM304.178 205.002c-0.22-2.552 0.542-5.063 0.121-7.604-0.444-0.004-0.379 6.225-0.356 6.776 0.011 0.289-0.178 0.885 0.235 0.828ZM316.155 199.062v0.239c0.156-0.079 0.156-0.16 0-0.239ZM312.833 199.301v0.239c0.156-0.079 0.156-0.16 0-0.239ZM284.854 200.725v0.239c0.156-0.079 0.156-0.16 0-0.239ZM283.781 203.574c0.171-0.335-0.152-0.634-0.231-0.471-0.171 0.335 0.152 0.634 0.231 0.471ZM270.268 205.242h-0.708v0.471h0.708v-0.471ZM304.178 205.952c0.118-0.987-0.349-0.987-0.232 0h0.232ZM301.213 205.478v0.239c0.156-0.079 0.156-0.16 0-0.239ZM301.926 206.192v0.239c0.156-0.079 0.156-0.16 0-0.239ZM256.631 206.666v0.239c0.156-0.079 0.156-0.16 0-0.239ZM268.843 208.33c-0.276-0.269-0.762 0.103-0.118 0.471 0.205 0.03 0.133-0.455 0.118-0.471ZM253.666 208.569h-0.474s0 0.946 0 0.946h0.232s0.239-0.946 0.238-0.946ZM270.151 209.28v0.239c0.156-0.079 0.156-0.16 0-0.239ZM253.431 210.229c-0.72-0.11-0.391 0.171-0.462 0.597-0.489 2.845-1.315 5.587-1.669 8.428 0.368-0.213 0.531-1.189 0.641-1.611 0.629-2.431 1.062-4.938 1.49-7.414ZM257.817 210.943v0.24c0.156-0.079 0.156-0.16 0-0.24ZM303.704 210.943c-0.057-0.049-0.515 0.026-0.709 0 0 0.604-0.311 3.745 0 4.041 0.8 0.752 0.25-1.629 0.258-1.754 0.019-0.403 0.58-2.161 0.447-2.283ZM267.66 217.83c0.455-0.083 0.391-0.498 0.485-0.821 0.436-1.523 0.504-2.853 0.224-4.406-0.322 0.133-0.402 1.223-0.444 1.573-0.144 1.166-0.178 2.473-0.261 3.654ZM280.463 215.216l0.235-1.659c-0.303 0-0.671 1.66-0.235 1.659ZM299.435 213.557c-0.334-0.171-0.633 0.152-0.47 0.231 0.334 0.171 0.633-0.152 0.47-0.231ZM301.569 214.271c-0.334-0.171-0.633 0.152-0.47 0.232 0.334 0.171 0.633-0.152 0.47-0.232ZM315.559 214.984c-0.334-0.171-0.633 0.152-0.47 0.232 0.334 0.171 0.633-0.152 0.47-0.232ZM280.228 216.88l-0.117-0.71c-0.25 0.216-0.432 0.361-0.357 0.71h0.47ZM314.259 216.406v0.239c0.156-0.079 0.156-0.16 0-0.239ZM315.559 216.88c0.171-0.335-0.152-0.634-0.231-0.471-0.171 0.335 0.152 0.634 0.231 0.471ZM279.872 217.355v0.239c0.156-0.079 0.156-0.16 0-0.239ZM267.542 219.968v0.239c0.156-0.079 0.156-0.16 0-0.239ZM279.398 219.968v0.239c0.156-0.079 0.156-0.16 0-0.239ZM243.354 220.207v0.24c0.156-0.079 0.156-0.16 0-0.24ZM268.964 220.682v0.239c0.156-0.079 0.156-0.16 0-0.239ZM322.319 221.871v0.239c0.156-0.079 0.156-0.16 0-0.239ZM252.484 223.535c-0.712-0.118-0.383 0.171-0.482 0.574-0.276 1.147-0.402 2.123-0.94 3.225l2.843 0.235c-0.171-0.551-0.913-0.076-1.259-0.771-0.406-0.824-0.588-2.412-0.162-3.263ZM288.883 225.195v0.239c0.156-0.079 0.156-0.16 0-0.239ZM278.329 227.573c-0.118-0.414 0.284-1.569-0.232-1.66-0.023 0.6-0.577 1.371 0.232 1.66ZM310.938 226.148v0.24c0.156-0.079 0.156-0.16 0-0.24ZM314.376 226.858c0.023 0.026 0.584 0.152 0.71 0.122-0.402-0.235-0.342-0.889-0.706-0.832 0.026 0.19-0.057 0.653 0 0.714ZM263.747 226.623v0.239c0.156-0.079 0.156-0.16 0-0.239ZM271.69 227.094c0.171-0.335-0.152-0.634-0.231-0.471-0.171 0.335 0.152 0.634 0.231 0.471ZM299.2 227.573l-0.239-0.472c0.224 0.665 0.515 1.846-0.413 2.105-0.075 0.023-2.082-0.19-1.252 0.505 0.091 0.076 2.287-0.152 2.37-0.235 0.141-0.137-0.25-1.922 0-2.375-0.481-0.053-0.004 0.581-0.47 0.476ZM263.982 227.573v0.239c0.156-0.079 0.156-0.16 0-0.239ZM311.173 227.808v0.239c0.156-0.079 0.156-0.16 0-0.239ZM265.287 230.182v-0.71s-0.231 0-0.232 0l-0.238 0.71h0.473ZM269.317 231.375l-0.466-1.189-0.479 0.945 0.949 0.24ZM255.566 231.135c-0.444-0.06-0.819 0-0.948 0.472h0.948s0-0.471 0-0.472ZM307.26 231.614c-0.342-0.269-0.917 0.482-0.709 0.95 0.292 0 0.754-0.912 0.709-0.95ZM299.2 232.564c-0.496-0.068-0.538-0.023-0.47 0.47l0.47-0.47ZM298.483 236.123c0.118-0.987-0.349-0.987-0.231 0h0.231ZM310.225 235.887v0.239c0.156-0.079 0.156-0.16 0-0.239ZM302.991 238.501c0.269-0.277-0.102-0.764-0.47-0.118-0.03 0.205 0.455 0.133 0.47 0.118ZM316.746 241.349c-0.079-0.342-0.383-0.543-0.709-0.471v0.471s0.709 0 0.709 0ZM246.08 243.009c-0.44-0.999-0.986-0.064-1.418 0.361l1.418-0.361Z" fill="#4C9E3C" />
      <path d="M225.364 224.188c-0.03 0.122-0.334 1.151-0.458 1.531-1.706 5.155-3.696 8.402-8.732 10.738-0.58 0.269-1.437 0.231-1.861 0.513-0.349 0.228-0.345 0.82-0.895 1.006-1.543 0.521-4.531 0.353-6.321 0.563-7.734 0.908-15.396 1.948-23.206 0.611-2.881-0.494-6.267-1.591-1.38-3.152 3.375-0.604 6.775-0.908 10.21-1.06-0.334-0.718-1.319-0.699-1.952-1.011-1.956-0.961-7.336-3.904-8.606-5.393-0.496-0.581-1.096-1.238-1.073-2.01 0.034-1.147 0.626-4.611 2.206-4.368 1.077 0.167 3.363 1.341 4.66 1.706 5.649 1.584 9.933 2.036 15.73 0.805 4.841-1.029 14.79-4.953 16.826-9.751 0.94-2.215 0.645-4.178 0.966-6.396 0.095-0.657 0.626-1.717 0.633-1.968 0.019-0.459-2.206-4.205-2.711-4.638-0.641-0.547-1.748-0.524-1.509-1.721 0.318-1.61 6.092-3.274 7.424-1.591 1.118 1.416 2.472 7.673 1.979 9.326-0.129 0.437-0.785 0.672-0.849 1.025s0.292 0.854 0.291 1.242c0.023 4.038-0.466 10.119-1.376 13.997ZM225.664 208.303c-0.611-1.93-0.561-4.004-0.99-5.967-0.095-0.429-0.611-2.366-0.762-2.564-0.444-0.562-2.495 0.376-3.2 0.483 0.891 1.831 2.775 4.615 2.525 6.727-0.28 2.355-0.152 4.387-0.394 6.688-0.091 0.87-0.534 2.287-0.985 3.05-1.646 2.788-5.797 6.013-8.853 7.069-0.534 0.186-0.778 0.152-1.304-0.015-0.053 0.479 0.584 0.008 0.47 0.471-5.638 2.56-12.132 4.041-18.362 3.313l-10.194-2.853c-0.91 1.96-0.197 2.625 1.308 3.677 7.002 4.892 15.385 6.966 23.813 7.027 5.425 0.038 10.016-0.923 12.609-6.131 2.707-5.435 3.116-12.17 3.397-18.217 0.045-1.01-0.808-2.218 0.925-2.758ZM223.908 223.056v0.24c0.156-0.079 0.156-0.16 0-0.24ZM220.349 233.274v0.24c0.156-0.079 0.156-0.16 0-0.24ZM192.13 235.173v0.24c0.156-0.079 0.156-0.16 0-0.24Z" fill="#4C9E3C" />
      <path d="M358.958 222.106c2.263 0.076 5.702 0.011 7.67 1.232 5.335 3.304 3.359 12.39-0.788 15.998-0.565 0.49-2.032 1.23-2.37 1.668-0.303 0.391-0.193 0.858-0.477 1.185-3.132 3.528-18.831 1.633-23.112 0.098-2.483-0.889-1.103-2.366 0.652-3.122 2.138-0.919 4.523-1.106 6.805-0.904-0.724-1.948-1.892-3.73-2.116-5.849-0.273-2.548 1.315-9.815 4.376-10.313 0.588-0.095 0.148 0.555 0.587 0.483-0.558-0.953 0.243-0.767 1.107-0.908 1.85-0.308 3.446 0.114 5.278 0.178 0.338-1.914 3.174-5.208 5.171-5.147 0.986 0.03 0.637 0.953 0.349 1.531-0.72 1.436-2.388 2.42-3.128 3.87ZM352.024 223.831c-2.753 0.376-4.091 3.084-4.629 5.576-0.842 3.912 1.646 9.926 5.812 10.932 4.095 0.991 10.059-0.319 12.727-3.76 2.074-2.674 3.591-10.134-0.519-11.559-0.774-0.269-3.097-0.513-3.977-0.547s-2.225 0.376-3.242 0.202c-0.796-0.137-1.49-0.775-2.214-0.889-0.929-0.148-2.991-0.083-3.954 0.045ZM347.221 226.384v0.239c0.156-0.079 0.156-0.16 0-0.239ZM347.456 238.505c-0.235 0.167 0.129 0.327 0.242 0.466 0.235-0.156-0.11-0.316-0.242-0.466ZM341.529 239.925v0.239c0.156-0.079 0.156-0.16 0-0.239ZM349.946 241.11l-0.591-0.706c-0.648 0.448-0.087 0.798 0.591 0.706Z" fill="#4C9E3C" />
    </g>
  </g>
</svg>