<svg id="_oicoja0" xmlns="http://www.w3.org/2000/svg" viewBox="-0.227 0 522.007 263.123" width="522" height="263.08648255813955" style="flex-shrink: 0">
  <g id="_oicoja1">
    <g>
      <path d="M40.667 220.797l-1.337 33.506-17.549 6.458 1.328-33.217-17.699-32.946 18.776-6.91 11.574 22.594 13.833-31.947 11.963-4.404-20.88 46.866Z" fill="#4C9E3C" stroke="#4C9E3C" stroke-width="2.64" stroke-miterlimit="10" />
      <path d="M123.477 185.112l-0.172 4.297c-0.923 23.055-16.436 41.091-33.376 47.325-16.942 6.235-31.461-0.738-30.541-23.793l0.173-4.298c0.94-23.639 16.517-40.83 33.366-47.036 16.851-6.209 31.489-0.144 30.55 23.495ZM77.305 201.625l-0.234 5.866c-0.687 17.189 4.301 21.514 13.3 18.207 8.909-3.279 14.485-11.495 15.171-28.685l0.234-5.865c0.714-17.783-4.374-21.874-13.282-18.595-8.991 3.315-14.475 11.297-15.181 29.072Z" fill="#4C9E3C" stroke="#4C9E3C" stroke-width="2.64" stroke-miterlimit="10" />
      <path d="M189.02 127.002l-2.005 50.217c-0.578 14.46-10.915 27.794-28.815 34.388-17.81 6.558-27.467 0.585-26.889-13.874l2.006-50.217 17.636-6.495-1.979 49.622c-0.353 8.892 2.251 12.649 9.67 9.92 7.599-2.794 10.41-8.548 10.76-17.442l1.979-49.624 17.637-6.495Z" fill="#4C9E3C" stroke="#4C9E3C" stroke-width="2.64" stroke-miterlimit="10" />
      <path d="M226.654 113.146c15.541-5.721 26.592-4.397 25.986 10.64-0.308 7.721-4.22 15.226-14.024 21.532 9.777-1.488 13.508 2.153 13.065 13.188l-0.713 17.876-17.637 6.496 0.714-17.875c0.523-13.092-4.978-11.063-11.177-8.685l-6.813 2.504-1.23 30.875-17.546 6.46 2.928-73.271 26.454-9.74ZM235.409 130.804c0.28-6.937-3.001-8.91-10.337-6.207l-7.77 2.864-0.831 20.811 7.77-2.863c7.337-2.704 10.888-7.666 11.168-14.605Z" fill="#4C9E3C" stroke="#4C9E3C" stroke-width="2.64" stroke-miterlimit="10" />
      <path d="M319.376 104.704c0.1-11.108-3.73-14.315-10.717-11.747-8.647 3.181-13.644 11.954-14.312 28.755l-0.235 5.867c-0.669 16.702 3.605 21.776 12.596 18.459 7.599-2.794 12.658-8.892 14.004-23.351l15.453-5.694c-2.376 22.82-14.367 34.352-29.99 40.109-17.546 6.459-30.677-1.028-29.754-24.082l0.171-4.298c0.94-23.639 15.641-40.504 32.402-46.676 15.45-5.694 27.043-2.927 27.477 16.351l-17.113 6.3Z" fill="#4C9E3C" stroke="#4C9E3C" stroke-width="2.64" stroke-miterlimit="10" />
      <path d="M380.483 56.506l19.074 65.161-17.637 6.496-5.061-17.575-22.696 8.36-6.642 21.884-11.177 4.116 24.929-81.371 19.21-7.071ZM374.067 100.831l-7.029-24.271-9.208 30.245 16.237-5.983Z" fill="#4C9E3C" stroke="#4C9E3C" stroke-width="2.64" stroke-miterlimit="10" />
      <path d="M435.492 36.253c15.541-5.721 26.592-4.397 25.984 10.648-0.308 7.721-4.22 15.226-14.022 21.533 9.777-1.488 13.508 2.153 13.066 13.19l-0.714 17.874-17.638 6.495 0.714-17.874c0.523-13.092-4.978-11.063-11.177-8.685l-6.814 2.504-1.228 30.874-17.547 6.461 2.929-73.272 26.455-9.74ZM444.247 53.911c0.28-6.937-3.001-8.91-10.337-6.207l-7.772 2.865-0.83 20.811 7.77-2.866c7.337-2.704 10.888-7.666 11.169-14.603Z" fill="#4C9E3C" stroke="#4C9E3C" stroke-width="2.64" stroke-miterlimit="10" />
      <path d="M519.485 5.324l-0.443 11.037-17.204 6.332-2.484 62.227-17.466 6.433 2.485-62.225-17.112 6.296 0.442-11.035 51.772-19.065Z" fill="#4C9E3C" stroke="#4C9E3C" stroke-width="2.64" stroke-miterlimit="10" />
    </g>
    <g>
      <path d="M37.098 217.21l-1.338 33.507-17.547 6.458 1.328-33.216L1.841 191.012l18.775-6.91 11.575 22.595 13.834-31.946 11.962-4.406-20.881 46.865Z" fill="#FFFFFF" stroke="#4C9E3C" stroke-width="2.64" stroke-miterlimit="10" />
      <path d="M119.907 181.526l-0.171 4.296c-0.923 23.055-16.436 41.091-33.377 47.326-16.942 6.235-31.461-0.738-30.54-23.793l0.171-4.297c0.94-23.639 16.517-40.83 33.37-47.037 16.851-6.209 31.489-0.144 30.547 23.495ZM73.737 198.04l-0.235 5.865c-0.687 17.189 4.301 21.514 13.3 18.207 8.909-3.279 14.485-11.495 15.171-28.686l0.235-5.864c0.714-17.783-4.374-21.874-13.283-18.595-8.991 3.315-14.475 11.297-15.179 29.073Z" fill="#FFFFFF" stroke="#4C9E3C" stroke-width="2.64" stroke-miterlimit="10" />
      <path d="M185.451 123.406l-2.006 50.218c-0.578 14.46-10.915 27.794-28.814 34.389-17.81 6.558-27.467 0.585-26.889-13.875l2.006-50.217 17.637-6.494-1.978 49.621c-0.353 8.892 2.251 12.649 9.666 9.919 7.599-2.794 10.41-8.548 10.762-17.441l1.98-49.623 17.636-6.497Z" fill="#FFFFFF" stroke="#4C9E3C" stroke-width="2.64" stroke-miterlimit="10" />
      <path d="M223.085 109.551c15.541-5.721 26.592-4.397 25.985 10.641-0.308 7.721-4.22 15.226-14.023 21.531 9.777-1.488 13.508 2.153 13.066 13.191l-0.714 17.873-17.637 6.495 0.714-17.874c0.523-13.092-4.978-11.063-11.179-8.685l-6.812 2.505-1.229 30.874-17.546 6.459 2.928-73.27 26.456-9.74ZM231.84 127.219c0.28-6.937-3.001-8.91-10.337-6.208l-7.77 2.865-0.832 20.81 7.771-2.864c7.337-2.704 10.888-7.666 11.168-14.603Z" fill="#FFFFFF" stroke="#4C9E3C" stroke-width="2.64" stroke-miterlimit="10" />
      <path d="M315.807 101.111c0.1-11.108-3.73-14.315-10.717-11.75-8.647 3.181-13.644 11.954-14.311 28.759l-0.236 5.863c-0.669 16.702 3.605 21.776 12.595 18.46 7.599-2.794 12.658-8.892 14.007-23.351l15.45-5.693c-2.376 22.82-14.367 34.352-29.99 40.108-17.546 6.459-30.677-1.028-29.753-24.08l0.171-4.3c0.94-23.639 15.641-40.504 32.402-46.677 15.45-5.694 27.043-2.927 27.477 16.354l-17.113 6.297Z" fill="#FFFFFF" stroke="#4C9E3C" stroke-width="2.64" stroke-miterlimit="10" />
      <path d="M376.914 52.912l19.073 65.163-17.636 6.495-5.06-17.578-22.698 8.361-6.641 21.883-11.178 4.118 24.931-81.37 19.209-7.072ZM370.499 97.245l-7.03-24.272-9.207 30.245 16.237-5.982Z" fill="#FFFFFF" stroke="#4C9E3C" stroke-width="2.64" stroke-miterlimit="10" />
      <path d="M431.923 32.657c15.541-5.721 26.592-4.397 25.984 10.65-0.308 7.721-4.22 15.226-14.022 21.532 9.777-1.488 13.508 2.153 13.066 13.189l-0.714 17.874-17.638 6.495 0.714-17.874c0.523-13.092-4.978-11.063-11.178-8.683l-6.811 2.505-1.23 30.872-17.547 6.46 2.928-73.271 26.456-9.74ZM440.678 50.326c0.28-6.937-3.001-8.91-10.337-6.208l-7.771 2.865-0.831 20.811 7.772-2.865c7.337-2.704 10.888-7.666 11.167-14.603Z" fill="#FFFFFF" stroke="#4C9E3C" stroke-width="2.64" stroke-miterlimit="10" />
      <path d="M515.916 1.738l-0.443 11.037-17.203 6.334-2.486 62.226-17.465 6.432 2.486-62.225-17.114 6.296 0.443-11.035 51.774-19.065Z" fill="#FFFFFF" stroke="#4C9E3C" stroke-width="2.64" stroke-miterlimit="10" />
    </g>
  </g>
</svg>