<?xml version="1.0" encoding="UTF-8"?>
<svg id="Layer_2" data-name="Layer 2" xmlns="http://www.w3.org/2000/svg" viewBox="0 0 590.18 485.4">
  <defs>
    <style>
      .cls-1, .cls-2, .cls-3 {
        fill: #d27400;
      }

      .cls-1, .cls-3, .cls-4 {
        stroke: #d27400;
        stroke-miterlimit: 10;
      }

      .cls-1, .cls-4 {
        stroke-width: 4.31px;
      }

      .cls-4 {
        fill: #fff;
      }
    </style>
  </defs>
  <g id="Layer_1-2" data-name="Layer 1">
    <g>
      <g>
        <path class="cls-2" d="M54.18,425.53l8.5-33.69c1.6-6.18,1.23-7.94-4.72-6.13l.65-2.71,19.77-7.19c15.19-5.53,26.09-.05,21.58,19.69-4.72,20.61-18.17,30.3-33.35,35.83l-22.09,8.04.65-2.71c6.25-2.64,7.27-4.46,9.01-11.13ZM65.45,428.77l1.09-.4c15.41-5.61,22.6-17.74,25.65-30.85,2.98-13.07-.15-23.71-15.33-18.18l-4.87,1.77-11.34,44.75c-.87,3.59.87,4.33,4.8,2.91Z"/>
        <path class="cls-2" d="M103.08,400.1c3.12-12.84,12.21-23.56,21.44-26.55,6.54-2.09,8.28,1.27,7.78,4.95-.8,5.67-6.98,13.8-22.16,20.42-.07.32,0,.15-.07.46-1.53,8.84,1.53,12.02,6.18,10.61,4.21-1.24,7.99-5.67,11.99-14.97l2.18-.07c-4.14,10.66-9.08,17.19-16.28,19.81-8.87,3.23-14.17-1.89-11.04-14.66ZM110.71,396.38c10.61-4.81,14.39-11.49,15.33-15.1.73-2.74.51-6.22-3.12-4.89-5.38,1.96-10.1,11.52-12.21,19.7l.07-.03-.07.32Z"/>
        <path class="cls-2" d="M133.89,398.56c-.22-3.84,2.04-6.41,4.21-7.28,2.03-.81,4-.07,4,2.47,0,1.89-1.38,4.35-4.65,6.27,1.45,2.09,4.43,2.17,7.34,1.18,4-1.31,7.92-4.85,7.92-8.84s-3.56-4.74-7.12-5.76c-3.27-.92-6.61-2.17-7.05-6.96-.51-5.63,4.65-12.96,12.35-15.69,8.07-2.86,10.25,1.65,10.46,4.26.29,3.38-1.82,5.82-3.85,6.71-1.96.86-3.92.34-3.92-2.06-.07-1.65,1.16-4.06,4.07-6.28-1.45-1.43-3.63-1.44-6.68-.26-3.71,1.42-6.76,5.44-6.69,8.76.07,2.95,2.76,3.43,5.59,4.36,3.63,1.15,8.28,1.78,8.5,7.66.29,7.6-6.47,13.84-13.01,16.29-5.59,2.11-11.12,1.14-11.48-4.83Z"/>
        <path class="cls-2" d="M164.77,377.65c3.13-12.84,12.21-23.56,21.44-26.55,6.54-2.09,8.28,1.27,7.78,4.95-.8,5.67-6.98,13.8-22.16,20.42-.07.32,0,.15-.07.46-1.53,8.84,1.53,12.02,6.18,10.61,4.21-1.24,7.99-5.67,11.99-14.97l2.18-.07c-4.14,10.67-9.08,17.19-16.28,19.81-8.87,3.23-14.17-1.89-11.05-14.66ZM172.4,373.93c10.61-4.81,14.39-11.49,15.33-15.1.73-2.73.51-6.22-3.13-4.89-5.38,1.96-10.1,11.52-12.21,19.7l.07-.03-.07.32Z"/>
        <path class="cls-2" d="M206.26,354.05c.73-2.88,1.74-7.1-.15-7-2.54.13-5.09,5.99-7.49,11.45l-2.11-.25c2.18-4.72,5.52-13.57,11.26-15,4.14-1,5.6,1.74,3.71,9.33l.36-.06c2.91-7.67,6.03-13.24,11.84-15.07,4.36-1.37,6.47.99,6.1,4.76-.29,3.16-2.47,5.26-4.51,6-2.11.7-4.07-.04-4-2.47.07-1.55,1.02-3.71,3.63-6.34-.51.04-1.09.11-1.6.29-2.18.72-4.29,2.8-5.89,5.48-4.36,7.47-7.92,20.03-9.45,25.53l-2.83,10.19-6.54,2.38,7.63-29.23Z"/>
        <path class="cls-2" d="M234.31,360.7c0-6.25,4-14.75,9.96-23.97l-.22-.28c-2.76,2.46-6.61,3.93-9.3,3.6l-2.83,8.88-2.11.04,4.36-14.59,1.53-.55c4.94.38,9.45-.53,14.39-5.96l1.16.88c-4.65,7.14-10.46,20.52-10.54,27.45-.07,4.82,2.62,6.24,6.25,4.92,5.09-1.85,12.21-9.53,14.24-22.92-3.56-2.77-5.3-4.76-5.38-7.56-.15-3.36,2.03-5.54,4.07-6.28,3.42-1.24,4,2.32,4.14,5.4.73,14.13-7.19,33.07-19.26,37.46-5.52,2.01-10.46.39-10.46-6.51Z"/>
        <path class="cls-2" d="M268.38,339.94c3.12-12.84,12.21-23.56,21.44-26.55,6.54-2.09,8.28,1.27,7.78,4.95-.8,5.67-6.98,13.8-22.16,20.42-.07.32,0,.15-.07.46-1.53,8.84,1.53,12.02,6.18,10.61,4.21-1.24,7.99-5.67,11.99-14.97l2.18-.07c-4.14,10.67-9.08,17.19-16.28,19.81-8.87,3.23-14.17-1.89-11.05-14.66ZM276.01,336.22c10.61-4.81,14.39-11.49,15.33-15.1.73-2.74.51-6.22-3.12-4.89-5.38,1.96-10.1,11.52-12.21,19.7l.07-.03-.07.32Z"/>
        <path class="cls-2" d="M300.86,333.93c0-10.61,7.78-27.39,19.11-31.52,4.43-1.61,7.05-.46,8.43,2.24l.15-.05,4.21-16.5c.94-3.61.07-3.81-2.83-2.97l-3.34,1,.58-2.54c4.43-1.69,10.17-4.28,14.68-7.3l.44.28c-.8,2.11-2.03,5.61-2.62,7.93l-10.9,41.9c-.44,1.69-1.02,3.71-1.02,5.17,0,1.53.65,2.16,1.82,1.74,2.47-.9,4.43-5.39,6.83-12.01l2.25.2c-2.4,6.54-4.65,13.32-10.68,15.52-3.56,1.3-6.32.27-5.89-4.25l-.29.04c-2.11,4.11-5.09,8.25-10.25,10.12-6.98,2.54-10.68-1.71-10.68-8.98ZM323.25,324.84l3.92-15.09c.07-3.88-2.33-6.64-6.18-5.24-7.27,2.65-12.86,17.33-13.01,27.12-.07,5.41,1.74,8.67,5.67,7.24,4.87-1.77,8.36-9.22,9.59-14.03Z"/>
        <path class="cls-2" d="M363.79,312.85l8.36-33.64c1.53-6.3,1.23-8.23-4.72-6.42l.65-2.42,20.49-7.46c8.79-3.2,17.37-3.2,14.75,8.07-1.53,6.66-7.92,11.68-13.95,14.74,6.69-1.63,13.01,1.73,10.83,11.1-2.25,9.68-10.46,16.89-22.24,21.17l-23.83,8.67.58-2.39c6.25-2.64,7.48-4.98,9.08-11.45ZM377.38,315.38c7.12-2.59,13.23-8.52,15.19-17.15,2.03-8.66-1.6-11.7-8.87-9.05l-8.43,3.07-5.3,21.55c-1.23,4.88,4.07,2.81,7.41,1.59ZM396.42,272.05c1.23-5.25-.65-8.92-7.7-6.35l-7.56,2.75-5.16,20.7,7.78-2.83c7.85-2.86,11.48-9.12,12.64-14.27Z"/>
        <path class="cls-2" d="M406,289.85c3.13-12.84,12.21-23.56,21.44-26.55,6.54-2.09,8.28,1.27,7.78,4.95-.8,5.67-6.98,13.8-22.16,20.42-.07.32,0,.15-.07.46-1.53,8.84,1.53,12.02,6.18,10.61,4.21-1.24,7.99-5.67,11.99-14.97l2.18-.07c-4.14,10.66-9.08,17.19-16.28,19.8-8.87,3.23-14.17-1.89-11.05-14.66ZM413.63,286.13c10.61-4.81,14.39-11.49,15.33-15.1.73-2.74.51-6.22-3.13-4.9-5.38,1.96-10.1,11.52-12.21,19.7l.07-.03-.07.32Z"/>
        <path class="cls-2" d="M440.01,285.76l6.83-25.96-7.49,2.72.8-3.13,7.41-2.7,2.98-11.7,6.61-2.41-2.98,11.7,9.08-3.31-.87,3.15-8.94,3.25-6.61,25.23c-1.02,4-1.6,7.2.58,7.35,3.92.32,6.76-7.62,8.43-12.22l2.25.2c-2.69,7.3-4.72,13.64-11.77,15.84-3.85,1.18-8.36-.15-6.32-8.02Z"/>
        <path class="cls-2" d="M465.15,276.61l6.83-25.96-7.49,2.72.8-3.13,7.41-2.7,2.98-11.7,6.61-2.41-2.98,11.7,9.08-3.31-.87,3.15-8.94,3.25-6.61,25.23c-1.02,4.01-1.6,7.2.58,7.35,3.92.32,6.76-7.62,8.43-12.23l2.25.2c-2.69,7.3-4.72,13.64-11.77,15.84-3.85,1.18-8.36-.15-6.32-8.02Z"/>
        <path class="cls-2" d="M489.13,259.59c3.13-12.84,12.21-23.56,21.44-26.55,6.54-2.09,8.28,1.27,7.78,4.95-.8,5.67-6.98,13.8-22.16,20.42-.07.32,0,.15-.07.46-1.53,8.84,1.53,12.02,6.18,10.61,4.21-1.24,7.99-5.67,11.99-14.97l2.18-.07c-4.14,10.66-9.08,17.19-16.28,19.81-8.87,3.23-14.17-1.89-11.05-14.66ZM496.76,255.87c10.61-4.81,14.39-11.49,15.33-15.1.73-2.74.51-6.22-3.13-4.89-5.38,1.96-10.1,11.52-12.21,19.7l.07-.03-.07.32Z"/>
        <path class="cls-2" d="M530.62,235.99c.73-2.88,1.74-7.1-.15-7-2.54.13-5.09,5.99-7.49,11.45l-2.11-.25c2.18-4.72,5.52-13.57,11.26-15,4.14-1,5.6,1.74,3.71,9.33l.36-.06c2.91-7.67,6.03-13.24,11.84-15.07,4.36-1.37,6.47.99,6.1,4.75-.29,3.16-2.47,5.26-4.51,6-2.11.7-4.07-.04-4-2.47.07-1.55,1.02-3.71,3.63-6.34-.51.04-1.09.11-1.6.29-2.18.72-4.29,2.8-5.89,5.48-4.36,7.47-7.92,20.04-9.45,25.53l-2.83,10.19-6.54,2.38,7.63-29.23Z"/>
      </g>
      <g>
        <path class="cls-1" d="M154.91,200.26l-.8,20.01-48.75,18-1.45,36.29,43.23-15.96-.8,20.18-43.23,15.96-2.24,56.3-31.71,11.71,5.29-132.78,80.47-29.71Z"/>
        <path class="cls-1" d="M203.97,182.14l-5.29,132.78-31.56,11.65,5.29-132.78,31.56-11.65Z"/>
        <path class="cls-1" d="M269.6,157.9c32.34-11.94,47.86-7.38,46.88,17.23-.58,14.52-8.97,26.17-22.4,35.48,15.93-1.87,26.29,3.55,25.57,21.43-.92,23.19-14.96,43.73-52.98,57.77l-46.39,17.13,5.29-132.78,44.02-16.25ZM287.67,242.99c.55-13.81-6.17-16.74-21.95-10.91l-11.36,4.2-1.55,38.95,11.36-4.2c15.94-5.89,22.95-14.23,23.5-28.04ZM284.38,188.91c.49-12.22-5.79-14.61-17.63-10.24l-10.25,3.79-1.37,34.35,10.25-3.79c11.83-4.37,18.51-11.89,18.99-24.11Z"/>
        <path class="cls-1" d="M420.9,102.03l-.8,20.01-50.65,18.7-1.33,33.28,44.97-16.6-.8,20.18-44.97,16.6-1.56,39.31,52.38-19.34-.8,20.01-84.09,31.05,5.29-132.78,82.36-30.41Z"/>
        <path class="cls-1" d="M489.21,76.81c28.08-10.37,48.04-7.97,46.96,19.29-.56,13.99-7.63,27.59-25.34,39.02,17.67-2.69,24.41,3.89,23.61,23.9l-1.29,32.4-31.87,11.77,1.29-32.4c.94-23.72-9-20.05-20.21-15.74l-12.31,4.54-2.23,55.95-31.71,11.71,5.29-132.78,47.81-17.65ZM505.04,108.82c.5-12.57-5.42-16.14-18.67-11.25l-14.04,5.19-1.5,37.71,14.04-5.19c13.25-4.89,19.67-13.89,20.17-26.46Z"/>
      </g>
      <g>
        <path class="cls-4" d="M148.38,193.73l-.8,20.01-48.75,18-1.45,36.29,43.23-15.96-.8,20.18-43.23,15.96-2.24,56.3-31.71,11.71,5.29-132.78,80.47-29.71Z"/>
        <path class="cls-4" d="M197.44,175.61l-5.29,132.78-31.56,11.65,5.29-132.78,31.56-11.65Z"/>
        <path class="cls-4" d="M263.07,151.37c32.34-11.94,47.86-7.38,46.88,17.23-.58,14.52-8.97,26.17-22.4,35.48,15.93-1.87,26.29,3.55,25.57,21.43-.92,23.19-14.96,43.73-52.98,57.77l-46.39,17.13,5.29-132.78,44.02-16.25ZM281.14,236.46c.55-13.81-6.17-16.74-21.95-10.91l-11.36,4.2-1.55,38.95,11.36-4.2c15.94-5.89,22.95-14.23,23.5-28.04ZM277.85,182.37c.49-12.22-5.79-14.61-17.63-10.24l-10.25,3.79-1.37,34.35,10.25-3.79c11.83-4.37,18.51-11.89,18.99-24.11Z"/>
        <path class="cls-4" d="M414.37,95.5l-.8,20.01-50.65,18.7-1.33,33.28,44.97-16.6-.8,20.18-44.97,16.6-1.56,39.31,52.38-19.34-.8,20.01-84.09,31.05,5.29-132.78,82.36-30.41Z"/>
        <path class="cls-4" d="M482.68,70.28c28.08-10.37,48.04-7.97,46.96,19.29-.56,13.99-7.63,27.59-25.34,39.02,17.67-2.69,24.41,3.89,23.61,23.9l-1.29,32.4-31.87,11.77,1.29-32.4c.94-23.72-9-20.05-20.21-15.74l-12.31,4.54-2.23,55.95-31.71,11.71,5.29-132.78,47.81-17.65ZM498.51,102.29c.5-12.57-5.42-16.14-18.67-11.25l-14.04,5.19-1.5,37.71,14.04-5.19c13.25-4.89,19.67-13.89,20.17-26.46Z"/>
      </g>
    </g>
    <g>
      <line class="cls-3" x1="1.11" y1="217.34" x2="589.07" y2="1.91"/>
      <rect class="cls-3" x="-18" y="108.27" width="626.19" height="2.71" transform="translate(-19.7 108.16) rotate(-20.11)"/>
    </g>
    <g>
      <line class="cls-3" x1="1.11" y1="483.48" x2="589.07" y2="268.05"/>
      <rect class="cls-3" x="-18" y="374.41" width="626.19" height="2.71" transform="translate(-111.22 124.4) rotate(-20.11)"/>
    </g>
  </g>
</svg>