<?xml version="1.0" encoding="UTF-8"?>
<svg id="Layer_2" data-name="Layer 2" xmlns="http://www.w3.org/2000/svg" viewBox="0 0 590.18 455.23">
  <defs>
    <style>
      .cls-1, .cls-2, .cls-3 {
        fill: #b12a1d;
      }

      .cls-1, .cls-3, .cls-4 {
        stroke: #b12a1d;
        stroke-miterlimit: 10;
      }

      .cls-3, .cls-4 {
        stroke-width: 2.64px;
      }

      .cls-4 {
        fill: #fff;
      }
    </style>
  </defs>
  <g id="Layer_1-2" data-name="Layer 1">
    <g>
      <path class="cls-2" d="M170.24,349.56c7.1-3.06,9.56-5.56,11.55-13.86l13.35-54.56-9.37,3.41c-9.09,3.31-12.4,9.63-15.43,19.82l-3.22,1.17,4.92-20.16,58.79-21.4-4.92,20.16-3.12,1.14c1.14-9.5,1.61-14.79-9.28-10.82l-8.8,3.21-13.35,54.56c-1.89,7.79-.95,9.53,6.44,7.31l-.85,3.53-27.55,10.03.85-3.53Z"/>
      <path class="cls-2" d="M223.62,318.39c0-13.54,11.36-36.98,29.35-43.53,9.28-3.38,15.62.09,15.62,10.22,0,14.2-11.74,37.12-29.25,43.5-9.28,3.38-15.71-.06-15.71-10.18ZM233.09,316.65c0,6.25,2.08,10.13,7.57,8.13,11.74-4.27,18.55-27.86,18.55-38.09,0-6.15-2.08-10.03-7.57-8.04-11.64,4.24-18.55,27.86-18.55,37.99Z"/>
      <path class="cls-2" d="M274.83,298.9c0-13.82,10.13-35.68,24.9-41.06,5.77-2.1,9.18-.6,10.98,2.91l.19-.07,5.49-21.5c1.23-4.71.09-4.96-3.69-3.86l-4.35,1.3.76-3.3c5.77-2.2,13.25-5.58,19.12-9.52l.57.36c-1.04,2.75-2.65,7.31-3.41,10.33l-14.2,54.58c-.57,2.2-1.33,4.84-1.33,6.73,0,1.99.85,2.81,2.37,2.26,3.22-1.17,5.77-7.02,8.9-15.64l2.93.26c-3.12,8.52-6.06,17.35-13.92,20.21-4.64,1.69-8.24.35-7.67-5.54l-.38.04c-2.75,5.35-6.63,10.74-13.35,13.19-9.09,3.31-13.92-2.22-13.92-11.69ZM303.99,287.06l5.11-19.66c.09-5.05-3.03-8.65-8.05-6.82-9.47,3.45-16.76,22.57-16.94,35.33-.09,7.04,2.27,11.29,7.38,9.43,6.34-2.31,10.89-12.01,12.5-18.28Z"/>
      <path class="cls-2" d="M328.22,279.66c0-13.73,10.41-35.98,25.56-41.49,5.87-2.14,9.84-.84,10.79,2.98l.19-.07,1.7-6.58,8.52-3.1-9.94,38.08c-.57,2.19-1.23,4.8-1.23,6.41,0,1.99.95,2.97,2.56,2.38,3.03-1.1,5.68-7.27,8.61-15.35l2.93.16c-3.22,8.65-6.06,17.26-13.63,20.01-4.83,1.76-8.24-.13-7.95-5.34l-.38.04c-2.65,5.41-6.15,10.57-13.25,13.15-9.66,3.51-14.48-1.92-14.48-11.29ZM338.25,275.63c-.57,8.63,2.18,12.18,6.72,10.52,6.15-2.24,11.17-12.3,12.87-18.79l5.02-19.24c.19-5.65-2.08-9.28-7.19-7.42-10.03,3.65-16.66,22.91-17.42,34.93Z"/>
      <path class="cls-2" d="M375.07,288.73c-.19-5.33,3.31-9.25,6.72-10.4,2.93-.97,5.02.45,5.02,3.1-.09,2.59-1.89,6.46-6.44,9.92,1.8,2.28,5.59,3.27,10.89,1.34,11.93-4.34,16.66-21.49,20.54-33.89l3.12-10.04-.19-.03c-4.64,10.3-10.7,19.89-18.27,22.65-8.71,3.17-11.26-3.28-8.52-12.23l6.91-22.68c1.04-3.31,2.84-8.99.57-9.2-3.98-.35-7.86,8.92-10.79,15.95l-2.75-.33c2.65-6.46,7-18.45,15.43-20.48,5.96-1.41,8.99,1.74,5.87,11.78l-5.49,17.62c-1.04,3.22-2.18,7.04-2.18,9.69,0,2.46.85,3.95,3.69,3.29,7.1-1.64,15.43-17.83,19.69-34.43l4.26-16.51,8.33-3.03-11.64,44.09c-4.64,17.4-11.26,34.77-28.68,41.11-8.52,3.1-15.81.07-16.09-7.3Z"/>
    </g>
    <g>
      <path class="cls-3" d="M83.41,257.51l-1.76,44.24-10.53,3.89-2.52-8.36c-4.27,9.27-11.25,14.62-20.52,18.05-17.59,6.49-32.01-1.85-30.99-27.44l.19-4.77c1.04-26.24,17.21-44.92,35.77-51.78,16.43-6.07,30.14-3.76,30.26,17.24l-19.04,7.03c.09-11.89-4.26-14.88-11.7-12.13-9.57,3.53-14.9,13.19-15.64,31.85l-.26,6.51c-.74,18.54,4.09,24.13,14.52,20.28,7.73-2.86,12.66-9.59,13.01-18.27l.29-7.27-14.01,5.17.49-12.25,32.47-11.99Z"/>
      <path class="cls-3" d="M147.69,197.23l-.49,12.25-31.02,11.46-.81,20.39,27.54-10.17-.49,12.36-27.54,10.17-.96,24.07,32.08-11.85-.49,12.25-51.51,19.02,3.24-81.33,50.44-18.63Z"/>
      <path class="cls-3" d="M213.3,173l-.49,12.25-19.04,7.03-2.75,69.07-19.33,7.14,2.75-69.07-18.94,6.99.49-12.25,57.3-21.16Z"/>
      <path class="cls-3" d="M272.8,194.51l-1.48,37.19-19.42,7.17,1.47-36.87-19.59-36.57,20.78-7.67,12.81,25.08,15.31-35.46,13.24-4.89-23.11,52.02Z"/>
      <path class="cls-3" d="M364.45,154.9l-.19,4.77c-1.02,25.59-18.19,45.61-36.94,52.53-18.75,6.92-34.82-.82-33.8-26.41l.19-4.77c1.04-26.24,18.28-45.32,36.93-52.21,18.65-6.89,34.85-.16,33.81,26.08ZM313.35,173.23l-.26,6.51c-.76,19.09,4.76,23.88,14.72,20.21,9.86-3.64,16.03-12.76,16.79-31.84l.26-6.51c.79-19.73-4.84-24.28-14.7-20.64-9.95,3.68-16.02,12.54-16.81,32.27Z"/>
      <path class="cls-3" d="M436.99,90.4l-2.22,55.74c-.64,16.05-12.08,30.85-31.89,38.17-19.71,7.28-30.4.65-29.76-15.4l2.22-55.74,19.52-7.21-2.19,55.08c-.39,9.87,2.49,14.04,10.7,11.01,8.41-3.1,11.52-9.49,11.91-19.35l2.19-55.08,19.52-7.21Z"/>
      <path class="cls-3" d="M478.64,75.02c17.2-6.35,29.43-4.88,28.76,11.82-.34,8.57-4.67,16.9-15.52,23.9,10.82-1.65,14.95,2.38,14.46,14.64l-.79,19.84-19.52,7.21.79-19.84c.58-14.53-5.51-12.28-12.37-9.64l-7.54,2.78-1.36,34.27-19.42,7.17,3.24-81.33,29.28-10.81ZM488.33,94.62c.31-7.7-3.32-9.89-11.44-6.89l-8.6,3.18-.92,23.1,8.6-3.18c8.12-3,12.05-8.51,12.36-16.21Z"/>
      <path class="cls-3" d="M533.13,74.24c-.25,6.18,3.76,5.98,14.55,5.2,19.1-1.5,26.29,2.15,25.67,17.77-.54,13.66-10.64,28.07-29.19,34.93-17.78,6.57-30.42,1.3-30.06-17.32l18.36-6.78c.03,11.32,4.26,14.88,12.86,11.7,7.15-2.64,10.78-7.61,10.99-12.93.23-5.86-3.15-7.06-14.6-6.25-16.71,1.26-25.15-2.15-24.57-16.57.6-15.18,12.08-28.5,26.68-33.89,17.49-6.46,27.88-1.85,28.35,15.07l-17.78,6.57c-.46-9.87-4.38-12.06-11.14-9.56-5.89,2.18-9.86,6.1-10.1,12.06Z"/>
    </g>
    <g>
      <path class="cls-4" d="M79.41,252.51l-1.76,44.24-10.53,3.89-2.52-8.36c-4.27,9.27-11.25,14.62-20.52,18.05-17.59,6.5-32.01-1.85-30.99-27.44l.19-4.77c1.04-26.24,17.21-44.93,35.77-51.78,16.43-6.07,30.14-3.76,30.26,17.25l-19.04,7.03c.09-11.89-4.26-14.88-11.7-12.13-9.57,3.53-14.9,13.2-15.64,31.85l-.26,6.51c-.74,18.54,4.09,24.13,14.52,20.28,7.73-2.86,12.66-9.59,13.01-18.27l.29-7.27-14.01,5.17.49-12.25,32.47-11.99Z"/>
      <path class="cls-4" d="M143.69,192.23l-.49,12.25-31.02,11.46-.81,20.39,27.54-10.17-.49,12.36-27.54,10.17-.96,24.07,32.08-11.85-.49,12.25-51.51,19.02,3.24-81.33,50.44-18.63Z"/>
      <path class="cls-4" d="M209.3,168l-.49,12.25-19.04,7.03-2.75,69.07-19.33,7.14,2.75-69.07-18.94,6.99.49-12.25,57.3-21.16Z"/>
      <path class="cls-4" d="M268.8,189.51l-1.48,37.19-19.42,7.17,1.47-36.87-19.59-36.57,20.78-7.67,12.81,25.08,15.31-35.46,13.24-4.89-23.11,52.02Z"/>
      <path class="cls-4" d="M360.45,149.9l-.19,4.77c-1.02,25.59-18.19,45.61-36.94,52.53-18.75,6.92-34.82-.82-33.8-26.41l.19-4.77c1.04-26.24,18.28-45.32,36.93-52.2,18.65-6.89,34.85-.16,33.81,26.08ZM309.35,168.23l-.26,6.51c-.76,19.08,4.76,23.88,14.72,20.21,9.86-3.64,16.03-12.76,16.79-31.84l.26-6.51c.79-19.73-4.84-24.28-14.7-20.64-9.95,3.68-16.02,12.54-16.81,32.27Z"/>
      <path class="cls-4" d="M432.99,85.4l-2.22,55.74c-.64,16.05-12.08,30.85-31.89,38.17-19.71,7.28-30.4.65-29.76-15.4l2.22-55.74,19.52-7.21-2.19,55.08c-.39,9.87,2.49,14.04,10.7,11.01,8.41-3.1,11.52-9.49,11.91-19.35l2.19-55.08,19.52-7.21Z"/>
      <path class="cls-4" d="M474.64,70.02c17.2-6.35,29.43-4.88,28.76,11.82-.34,8.57-4.67,16.9-15.52,23.9,10.82-1.65,14.95,2.38,14.46,14.64l-.79,19.84-19.52,7.21.79-19.84c.58-14.53-5.51-12.28-12.37-9.64l-7.54,2.78-1.36,34.27-19.42,7.17,3.24-81.33,29.28-10.81ZM484.33,89.62c.31-7.7-3.32-9.89-11.44-6.89l-8.6,3.18-.92,23.1,8.6-3.18c8.12-3,12.05-8.51,12.36-16.21Z"/>
      <path class="cls-4" d="M529.13,69.24c-.25,6.18,3.76,5.98,14.55,5.2,19.1-1.5,26.29,2.15,25.67,17.77-.54,13.66-10.64,28.07-29.19,34.93-17.78,6.57-30.42,1.3-30.06-17.32l18.36-6.78c.03,11.32,4.26,14.88,12.86,11.7,7.15-2.64,10.78-7.61,10.99-12.93.23-5.86-3.15-7.06-14.6-6.25-16.71,1.26-25.15-2.15-24.57-16.57.6-15.18,12.08-28.5,26.68-33.89,17.49-6.46,27.88-1.85,28.35,15.07l-17.78,6.57c-.46-9.87-4.38-12.06-11.14-9.56-5.89,2.18-9.86,6.1-10.1,12.06Z"/>
    </g>
    <g>
      <line class="cls-1" x1="1.11" y1="217.34" x2="589.07" y2="1.91"/>
      <rect class="cls-1" x="-18" y="108.27" width="626.19" height="2.71" transform="translate(-19.7 108.16) rotate(-20.11)"/>
    </g>
    <g>
      <line class="cls-1" x1="1.11" y1="453.31" x2="589.07" y2="237.88"/>
      <rect class="cls-1" x="-18" y="344.24" width="626.19" height="2.71" transform="translate(-100.85 122.56) rotate(-20.11)"/>
    </g>
  </g>
</svg>