<?xml version="1.0" encoding="UTF-8"?>
<svg fill="#C11209" id="Layer_2" data-name="Layer 2" xmlns="http://www.w3.org/2000/svg" viewBox="0 0 242.49 242.49">
  <defs>
    <style>
      .cls-1 {
        fill: #fff;
        stroke: #C11209;
        stroke-miterlimit: 10;
        stroke-width: 4px;
      }
    </style>
  </defs>
  <g id="Layer_1-2" data-name="Layer 1">
    <rect class="cls-1" x="2" y="2" width="238.49" height="238.49" rx="119.24" ry="119.24"/>
    <path d="M206.78,135.51c-.6-1.08-1.79-2.52-2.63-3.09,0,0,.93-4.4,1.04-6.35.41-6.88.21-20.67-8.88-21.51-1.19-.11-4.69.42-4.91.3-1.6-.9-1.17-7.28-1.11-9.19.44-13.74,2.58-27.54,2.88-41.3.07-3.03.55-8.38-1.9-10.49-.78-.68-1.05-.85-1.25-.95-.14-.06-.35-.3-1.18-.85-3.92-2.61-16.33-2.81-21.22-2.36-3.34.31-11.39,2.62-13.75,2.31-1.36-.18-2.32-2.02-3.56-2.79-1.23-.76-4.61-2.41-5.56-2.71-6.14-1.92-23.03-.22-29.79,1.03-2.93.54-8.3,2.97-10.57,3.17-.87.08-3.04-1.41-5.03-1.61-12.4-1.25-31.55,5.93-42.13,12.44-.78.48-5.67,3.73-5.87,4.03-1.23,1.84-.58,5.47-.47,7.52.19,3.53.39,7.05.51,10.6.27,7.6.78,15.19,1.53,22.76.14,1.4.26,2.75-.63,3.86-.78.98-1.82,1.81-2.75,2.64-1.51,1.35-4.16,3.19-4.46,5.37-.12.88.52,2.02.28,2.56-.11.26-3.26,2.64-4.2,3.79-6.97,8.52-6.69,19.33-5.11,29.58.24,1.55,1.58,4.31,1.53,5.34-.04.98-2.25,3.64-2.69,5.29-2.02,7.44,1.99,13.97,9.83,15.05,6.65.92,11.89-3.77,13.53-8.04.7-1.84-1.39-3.49-3-2.36-.76.54-3.51,4.74-7.21,5.51-5.39,1.12-10.58-1.85-8.99-7.74,1.44-5.32,2.53-1.35,4.18.02,5.04,4.16,8.61,4.72,15.03,3.44,1.72,9.11,5.98,20.53,10.43,28.76,3.51,6.5,17.8,16.98,18.67,17.37,2.53,1.15,42.86,15.89,74.27-2.21-.01-.1-.03-.2-.05-.31.14.04.27.08.37.12,12.75-9.12,14.89-17.07,16.94-20.97,2.87-5.44,6.76-16.06,8.36-22.05.51-1.94,2.04-13.3,2.55-13.77,1.07-.98,3.86-1.39,5.33-1.85,1.51-.46,3.79-1.95,4.88-3.18,1.26-1.44,2.94-6.01,3.48-1.74,1.45,11.44-9.66,3.77-12.69,4.88-4.51,1.66,9.21,12.27,16.03,1.39,1.79-2.85,1.54-8.82-.07-11.73ZM153.83,46.72c.07.02.14.05.2.09,1.19.8.16,4.56-.62,5.4-1.46,1.58-4.89,1.16-6.61.39-.31-.14-.66-.39-.61-.72.02-.15.12-.27.21-.39,1.03-1.26,2.27-2.35,3.64-3.21.72-.45,2.78-1.86,3.79-1.56ZM101.85,47.98c.67-.39.79-1.22,1.5-.24,1.6,5.13-1.83,5.51-6.03,5.17-.88-.73,3.86-4.54,4.53-4.93ZM57.26,55.64c.78-.58,1.91-.76,2.78-1.07,1.63-.57,3.25-1.19,4.85-1.82,3.23-1.26,6.44-2.6,9.68-3.85,6.41-2.47,13.03-4.63,19.92-5.09.56-.04,3.68.26,3.97-.07l-5.99,6.91c-2.7,8.57,10.12,9.35,14.27,4.52,2.97-3.45.61-9.84.92-10.27.15-.21,4.41-1.28,5.15-1.45,6-1.39,26.28-2.34,31.7-.14.27.11,2.63,1.46,2.73,1.58.72.88-1.61,1.96-2.12,2.32-.97.69-1.88,1.51-2.38,2.61-.35.75-.49,1.59-.55,2.41-.05.68-.04,1.38.14,2.03.34,1.18,1.36,1.93,2.42,2.44,1.75.85,3.81,1.16,5.74,1.16,5.03-.04,7-3.53,7.43-8.13.21-2.28-1.67-3.39,1.48-4.44,3.73-1.23,15.1-1.48,19.13-1,2.46.29,4.82,1.4,7.18,2.4,2.92,1.24,3.47,4.1,2.93,7.23-2.43,14.01-2.67,28.43-3.52,42.6-1.02.98-7.79-5.08-9.07-6.01-5.51-4-10.73-7.72-16.18-11.96-2.22-1.05-3.83-.69-3.99-.7-1.85-.04-3.29.15-5.47.07-8.88-.36-17.02,1.35-25.83,1.61-2.67.08-5.28.86-7.55,2.26-.89.55-1.52.97-1.64.97-.16,0-1.5-1.65-2.55-2.03-6.91-2.44-33.11,1.84-40.4,4.99-5.63,2.42-9.2,6.71-14.71,9.09.37-.16-.04-2.29-.06-2.62-.11-1.53.06-3.08.1-4.62.15-6.62-.9-13.16-.9-19.75-.16-3.07-.05-6.13-.4-9.2-.08-.74-.18-1.52.15-2.19.16-.33.39-.58.66-.78ZM159.27,154.72c-.29.14-.61.24-.92.34-20.93,6.43-44.12,5.3-65.49,1.9-2.5-.4-5.02-.67-7.52-1.02-.46-.06-.94-.13-1.35-.37-.51-.3-.84-.83-1.14-1.34-5.6-9.47-7.6-20.61-6.76-31.59.47-6.15,1.55-9.2,7.89-10.47,11.13-2.24,22.33-3.83,33.71-4.42,9.42-.48,22.55-1.22,31.72,1.02,3.19.8,8.46,1.43,10.3,4.42.78,1.26,1.1,2.74,1.33,4.2,1.7,10.99.12,23.41-.36,34.51-.03.79-.09,1.64-.61,2.24-.22.26-.5.44-.81.58ZM122.7,100.3c-.65.57-4.77.16-5.57.22-1.94.16-3.86.19-6.08.33,1.66-3.33,2.15-4.24,2.98-6.62l1.65-7.45c-.6,2.48,7.56,13.06,7.02,13.52ZM55.59,106.56c-.36,2.69-.81,5.54-.15,8.27-.9-2.59-1.47-2.78-2.75-3.7-1.23-.88-1.81-.61-3.41-.56.63-1.26,5.3-4.55,6.31-4ZM197.95,130.31c-2.34.78-5.88-.52-8.49,2.4-.84.93-1.53,3.15.54,2.28,1.31-.55,7.65-2.45,7.73-.31,0,.28-1.71,4.53-1.87,4.73-1.99,2.46-6.83,2.25-8.86,3.46-3.58,2.13-2.97,6.93-3.74,10.04-4.06,16.48-9.2,28.89-19.4,42.44-2.8,3.72-9.22,6.71-13.55,8.23-15.75,5.51-28.06,5.73-45.19,3.11-9.12-1.39-15.39-4.12-22.11-10.06-10.89-9.62-18.19-21.66-20.6-36.27-.47-2.85,4.15-5.84-1.52-6.45-5.32-.57-12.75,2.38-14.54-4.79.24-.35,6.33-1.34,5.55-2.47-.52-3.9-7.82-1.03-8.45-1.42-.49-.3-1.29-5.72-1.24-6.8,0,0-1.4-7.69-.28-12.08.79-3.09,3.48-10.83,7.35-10.23,4.19.81,5.62,4.78,6.8,5.87.52.49,5.3,4.21,5.66,3.8.86-2.28-1.45-5.95-1.71-7.15-.16-.78-.72-1.43-1.01-4.25l-.64-11.71c4.24-3.52,7.86-7.88,12.53-10.74,1.87,6,4.16,11.91,8.01,16.93-4.23,3.06-6.21,3.27-7.28,8.75-2.13,11-2.93,36.67,8.89,42.46,1.35.66,5.1,1.11,5.29,1.31.73.77-.07,18.64-.2,21.21-.06,1.23-.33,5.62,3.56,4.2,6.25-2.28,10.19-6.06,16.18-8.49,3.39-1.37,12.3-5.84,15.38-5.89,2.77-.06,15.47,5.69,19.06,7.01,3.87,1.42,8.09,5.41,12.07,6.57,1.2.36,2.41-.52,2.45-1.77l.41-21.11c5.46-1.3,10.26-2.37,11.89-8.49,1.48-5.53.38-11.39.73-16.47.62-8.94,1.55-28.74-3.76-31.3-2.17-1.05-5.56-2.37-5.97-3.82-.34-1.18,4.96-14.93,3.4-17.99,4.62,3.09,9.3,6.41,13.57,9.96,2.17,1.8,6.91,5.45,8.61,7.46,1.32,1.57,2.06,6.55,1.95,8.67-.11,1.95-2,4.26-1.68,5.76,1.33,6.25,7.34-5.54,9.12-6.3,1.99-.85,3.87-.57,5.07,1.21,1.62,2.39,2.94,17.61.29,18.5Z"/>
  </g>
</svg>