<?xml version="1.0" encoding="UTF-8"?>
<svg id="Layer_2" data-name="Layer 2" xmlns="http://www.w3.org/2000/svg" viewBox="0 0 555.98 137.05">
  <defs>
    <style>
      .cls-1 {
        fill: #fff;
      }

      .cls-2 {
        fill: #221f20;
      }
    </style>
  </defs>
  <g id="Layer_1-2" data-name="Layer 1">
    <g>
      <polygon class="cls-2" points="3.42 123.1 3.73 123.41 3.01 123.52 3.42 123.1"/>
      <path class="cls-2" d="M72.65,16.4H28.91c-11.7-.98-13.16,13.28-12.5,21.62v48.24c0,16.38,3.05,21.18,12.5,19.81,14.58-2.1,29.16-4.21,43.74-6.32,9.45-1.37,12.5-6.49,12.5-21.08v-43c0-14.6-3.05-19.27-12.5-19.27ZM64.45,85.56c-10.94,1.3-16.41,1.95-27.34,3.24v-56.31c10.93-.29,16.4-.44,27.34-.72v53.79Z"/>
      <path class="cls-2" d="M111.31,30.53v18.6c9.95-.61,19.89-1.21,29.84-1.82v12.53c-9.95.86-19.89,1.71-29.84,2.56v31.75c-8.28,1.2-12.42,1.8-20.7,3V16.4h60.85v13.08c-13.38.35-26.77.7-40.15,1.05Z"/>
      <path class="cls-2" d="M177.62,28.79v16.3c9.95-.6,19.9-1.21,29.84-1.82v10.9c-9.94.85-19.89,1.7-29.84,2.55,0,11.14,0,16.7,0,27.84-8.28,1.19-12.42,1.79-20.7,2.99-.01-23.72-.01-47.43-.01-71.15h60.85v11.33c-13.38.36-26.76.71-40.15,1.06Z"/>
      <path class="cls-2" d="M321.19,16.4v61.56c-8.28-1.2-12.42-1.8-20.7-3v-37.02c-.16-.01-.23-.01-.39-.02-7.53,11.37-15.17,22.64-23.28,33.62-2.87-.42-4.31-.71-7.18-.3-6.84-11.04-13.38-22.27-19.69-33.62-.19.01-.28.01-.47.02v36.52c-4.25.61-6.37.92-10.62,1.54V16.4h23.2c5.88,10.43,12.05,20.69,17.73,31.24.12.01.19.02.31.03,7.25-10.24,14.22-20.68,20.94-31.27h20.15Z"/>
      <path class="cls-2" d="M347.35,28.28v13.8c9.95.56,19.89,1.13,29.84,1.7v11.88c-9.95-.81-19.89-1.62-29.84-2.43v16.63c13.38,1.59,26.77,3.17,40.15,4.76v12.93c-20.28-2.93-40.57-5.87-60.85-8.8V16.4h60.85v12.93c-13.38-.35-26.76-.7-40.15-1.05Z"/>
      <path class="cls-2" d="M455.22,16.4v80.95c-3.56-.52-5.34-.77-8.9-1.29-13.38-14.77-27-29.31-41.33-43.18-.12-.01-.18-.01-.31-.02v37.18c-4.69-.68-7.03-1.02-11.72-1.7,0-23.98.01-47.96.01-71.94h8.9c14.17,12.89,27.86,26.17,41.24,39.88.16.01.24.01.39.02,0-13.3,0-26.6,0-39.9h11.71Z"/>
      <path class="cls-2" d="M528.01,16.4v69.86c0,16.38-3.04,21.18-12.49,19.81-14.12-2.04-28.23-4.08-42.34-6.12-9.45-1.37-12.5-6.5-12.5-21.13V16.4h20.7v69.33c10.38,1.23,15.56,1.84,25.94,3.07V16.4h20.69Z"/>
      <polygon class="cls-2" points="544.41 4 544.41 5.67 542.41 3.67 541.6 2.86 542.41 2.05 542.41 2 542.44 2.03 544.41 4"/>
    </g>
    <g>
      <polygon class="cls-2" points="3.42 123.1 3.73 123.41 3.01 123.52 3.42 123.1"/>
      <path class="cls-2" d="M72.65,16.4H28.91c-11.7-.98-13.16,13.28-12.5,21.62v48.24c0,16.38,3.05,21.18,12.5,19.81,14.58-2.1,29.16-4.21,43.74-6.32,9.45-1.37,12.5-6.49,12.5-21.08v-43c0-14.6-3.05-19.27-12.5-19.27ZM64.45,85.56c-10.94,1.3-16.41,1.95-27.34,3.24v-56.31c10.93-.29,16.4-.44,27.34-.72v53.79Z"/>
      <path class="cls-2" d="M111.31,30.53v18.6c9.95-.61,19.89-1.21,29.84-1.82v12.53c-9.95.86-19.89,1.71-29.84,2.56v31.75c-8.28,1.2-12.42,1.8-20.7,3V16.4h60.85v13.08c-13.38.35-26.77.7-40.15,1.05Z"/>
      <path class="cls-2" d="M177.62,28.79v16.3c9.95-.6,19.9-1.21,29.84-1.82v10.9c-9.94.85-19.89,1.7-29.84,2.55,0,11.14,0,16.7,0,27.84-8.28,1.19-12.42,1.79-20.7,2.99-.01-23.72-.01-47.43-.01-71.15h60.85v11.33c-13.38.36-26.76.71-40.15,1.06Z"/>
      <path class="cls-2" d="M321.19,16.4v61.56c-8.28-1.2-12.42-1.8-20.7-3v-37.02c-.16-.01-.23-.01-.39-.02-7.53,11.37-15.17,22.64-23.28,33.62-2.87-.42-4.31-.71-7.18-.3-6.84-11.04-13.38-22.27-19.69-33.62-.19.01-.28.01-.47.02v36.52c-4.25.61-6.37.92-10.62,1.54V16.4h23.2c5.88,10.43,12.05,20.69,17.73,31.24.12.01.19.02.31.03,7.25-10.24,14.22-20.68,20.94-31.27h20.15Z"/>
      <path class="cls-2" d="M347.35,28.28v13.8c9.95.56,19.89,1.13,29.84,1.7v11.88c-9.95-.81-19.89-1.62-29.84-2.43v16.63c13.38,1.59,26.77,3.17,40.15,4.76v12.93c-20.28-2.93-40.57-5.87-60.85-8.8V16.4h60.85v12.93c-13.38-.35-26.76-.7-40.15-1.05Z"/>
      <path class="cls-2" d="M455.22,16.4v80.95c-3.56-.52-5.34-.77-8.9-1.29-13.38-14.77-27-29.31-41.33-43.18-.12-.01-.18-.01-.31-.02v37.18c-4.69-.68-7.03-1.02-11.72-1.7,0-23.98.01-47.96.01-71.94h8.9c14.17,12.89,27.86,26.17,41.24,39.88.16.01.24.01.39.02,0-13.3,0-26.6,0-39.9h11.71Z"/>
      <path class="cls-2" d="M528.01,16.4v69.86c0,16.38-3.04,21.18-12.49,19.81-14.12-2.04-28.23-4.08-42.34-6.12-9.45-1.37-12.5-6.5-12.5-21.13V16.4h20.7v69.33c10.38,1.23,15.56,1.84,25.94,3.07V16.4h20.69Z"/>
      <polygon class="cls-2" points="542.41 2.05 542.41 3.67 541.6 2.86 542.41 2.05"/>
      <path class="cls-2" d="M542.44,2.03l-.03-.03v.05l-.81.81.81.81,2,2V.05l-1.97,1.98ZM3.01,123.52l.72-.11-.31-.31-.41.42Z"/>
    </g>
    <g>
      <path d="M72.65,16.4H28.91c-11.7-.98-13.16,13.28-12.5,21.62v48.24c0,16.38,3.05,21.18,12.5,19.81,14.58-2.1,29.16-4.21,43.74-6.32,9.45-1.37,12.5-6.49,12.5-21.08v-43c0-14.6-3.05-19.27-12.5-19.27ZM64.45,85.56c-10.94,1.3-16.41,1.95-27.34,3.24v-56.31c10.93-.29,16.4-.44,27.34-.72v53.79Z"/>
      <path d="M151.46,29.48v-13.08h-60.85v80.75c8.28-1.2,12.42-1.8,20.7-3v-31.75c9.95-.85,19.89-1.7,29.84-2.56v-12.53c-9.95.61-19.89,1.21-29.84,1.82v-18.6c13.38-.35,26.77-.7,40.15-1.05Z"/>
      <path d="M217.77,27.73v-11.33h-60.85c0,23.72,0,47.43.01,71.15,8.28-1.2,12.42-1.8,20.7-2.99,0-11.14,0-16.7,0-27.84,9.95-.85,19.9-1.7,29.84-2.55v-10.9c-9.94.61-19.89,1.22-29.84,1.82v-16.3c13.39-.35,26.77-.7,40.15-1.06Z"/>
      <path d="M301.04,16.4c-6.72,10.59-13.69,21.03-20.94,31.27-.12-.01-.19-.02-.31-.03-5.68-10.55-11.85-20.81-17.73-31.24h-23.2v59.3c4.25-.62,6.37-.93,10.62-1.54v-36.52c.19-.01.28-.01.47-.02,6.31,11.35,12.85,22.58,19.69,33.62,2.87-.41,4.31-.12,7.18.3,8.11-10.98,15.75-22.25,23.28-33.62.16.01.23.01.39.02v37.02c8.28,1.2,12.42,1.8,20.7,3V16.4h-20.15Z"/>
      <path d="M387.5,29.33v-12.93h-60.85v62.35c20.28,2.93,40.57,5.87,60.85,8.8v-12.93c-13.38-1.59-26.77-3.17-40.15-4.76v-16.63c9.95.81,19.89,1.62,29.84,2.43v-11.88c-9.95-.57-19.89-1.14-29.84-1.7v-13.8c13.39.35,26.77.7,40.15,1.05Z"/>
      <path d="M443.51,16.4c0,13.3,0,26.6,0,39.9-.15-.01-.23-.01-.39-.02-13.38-13.71-27.07-26.99-41.24-39.88h-8.9c0,23.98-.01,47.96-.01,71.94,4.69.68,7.03,1.02,11.72,1.7v-37.18c.13.01.19.01.31.02,14.33,13.87,27.95,28.41,41.33,43.18,3.56.52,5.34.77,8.9,1.29V16.4h-11.71Z"/>
      <path d="M507.32,16.4v72.4c-10.38-1.23-15.56-1.84-25.94-3.07V16.4h-20.7v62.42c0,14.63,3.05,19.76,12.5,21.13,14.11,2.04,28.22,4.08,42.34,6.12,9.45,1.37,12.49-3.43,12.49-19.81V16.4h-20.69Z"/>
    </g>
    <g>
      <path class="cls-1" d="M4.02,4l.52,117.28,267.68-37.88,268.19,38.81V4H4.02ZM85.15,78.67c0,14.59-3.05,19.71-12.5,21.08-14.58,2.11-29.16,4.22-43.74,6.32-9.45,1.37-12.5-3.43-12.5-19.81v-48.24c-.66-8.34.8-22.6,12.5-21.62h43.74c9.45,0,12.5,4.67,12.5,19.27v43ZM151.46,29.48c-13.38.35-26.77.7-40.15,1.05v18.6c9.95-.61,19.89-1.21,29.84-1.82v12.53c-9.95.86-19.89,1.71-29.84,2.56v31.75c-8.28,1.2-12.42,1.8-20.7,3V16.4h60.85v13.08ZM217.77,27.73c-13.38.36-26.76.71-40.15,1.06v16.3c9.95-.6,19.9-1.21,29.84-1.82v10.9c-9.94.85-19.89,1.7-29.84,2.55,0,11.14,0,16.7,0,27.84-8.28,1.19-12.42,1.79-20.7,2.99-.01-23.72-.01-47.43-.01-71.15h60.85v11.33ZM321.19,77.96c-8.28-1.2-12.42-1.8-20.7-3v-37.02c-.16-.01-.23-.01-.39-.02-7.53,11.37-15.17,22.64-23.28,33.62-2.87-.42-4.31-.71-7.18-.3-6.84-11.04-13.38-22.27-19.69-33.62-.19.01-.28.01-.47.02v36.52c-4.25.61-6.37.92-10.62,1.54V16.4h23.2c5.88,10.43,12.05,20.69,17.73,31.24.12.01.19.02.31.03,7.25-10.24,14.22-20.68,20.94-31.27h20.15v61.56ZM387.5,29.33c-13.38-.35-26.76-.7-40.15-1.05v13.8c9.95.56,19.89,1.13,29.84,1.7v11.88c-9.95-.81-19.89-1.62-29.84-2.43v16.63c13.38,1.59,26.77,3.17,40.15,4.76v12.93c-20.28-2.93-40.57-5.87-60.85-8.8V16.4h60.85v12.93ZM455.22,97.35c-3.56-.52-5.34-.77-8.9-1.29-13.38-14.77-27-29.31-41.33-43.18-.12-.01-.18-.01-.31-.02v37.18c-4.69-.68-7.03-1.02-11.72-1.7,0-23.98.01-47.96.01-71.94h8.9c14.17,12.89,27.86,26.17,41.24,39.88.16.01.24.01.39.02,0-13.3,0-26.6,0-39.9h11.71v80.95ZM528.01,86.26c0,16.38-3.04,21.18-12.49,19.81-14.12-2.04-28.23-4.08-42.34-6.12-9.45-1.37-12.5-6.5-12.5-21.13V16.4h20.7v69.33c10.38,1.23,15.56,1.84,25.94,3.07V16.4h20.69v69.86Z"/>
      <path class="cls-1" d="M64.45,31.77v53.79c-10.94,1.3-16.41,1.95-27.34,3.24v-56.31c10.93-.29,16.4-.44,27.34-.72Z"/>
      <path d="M555.01,10.61L544.43.03l-.02.02v-.05H0l.56,125.88h.1s-.06.05-.06.05l10.7,10.71,270.91-39.2,273.77,39.61-.97-126.44ZM540.41,122.21l-268.19-38.81L4.54,121.28,4.02,4h536.39v118.21ZM542.41,2.05v-.05l.03.03-.03.02Z"/>
    </g>
  </g>
</svg>