<?xml version="1.0" encoding="UTF-8"?>
<svg fill="#ffffff" id="Layer_2" data-name="Layer 2" xmlns="http://www.w3.org/2000/svg" viewBox="0 0 476.15 507.62">
  <g id="Layer_1-2" data-name="Layer 1">
    <g>
      <path d="M299.26,346.42c9.37.92,3.92,12.06.51,16.93-1.06,1.51-4.66,5.69-6.05,6.94-2.26,2.04-9.26,5.46-10.24,7.13-1.18,2.01-1.47,8.66.47,10.32s10.7.81,12.08-.57c.27-.27,1.77-6.02,2.31-7.29,2.14-5.03,5.4-11.55,9.9-14.88,9.99-7.39,10.15,4.66,7.24,11.58-.98,2.33-4.28,6.97-6.07,8.8-2.35,2.41-7.84,4.24-8.5,6.99-.37,1.52.68,7.43,1.39,8.93,1.91,4,6.62,2.73,9.97,1.8,11.84-3.26,13.7-24.51,17.13-25.65,4.11-1.36,2.52,3.97,2.71,4.23.1.14,2.08.49,3.1,1.58,1.57,1.68,1.88,5.01,4.01,6.52,1.38-1.49.11-3.33.41-5.1.87-5.05,6.71-4.53,6.71-.78v8.98c2.5-.35,3.27-2.16,2.48-4.33,5.74-.99,11.34-.01,17.01.02,33.06.19,67.56-1.36,100.38.6,1.28.08,9.24.92,9.61,1.24,1.2,1.04-1.3,1.52-1.73,1.65-10.6,3.22-29.74.87-41.22,1.06-5.07.08-10.68,1-15.64,1.01-20.54.07-41.16-.34-61.59-2.49.39.86-.72,2.95-.62,3.08.19.25,3.85,1.76,5.28,3.11.84.79,7.05,8.46,7.13,9.03.7,4.89-7.96,4.49-7.45,6.77.15.65,5.53,5.49,5.88,7.13,1.2-.78,1.08-2.23,1.61-3.24.33-.63,1.1-2.34,1.22-2.53,1.01-1.57,4.02-4.36,5.86-2.97,3.04,2.28-.76,10.45-.94,13.69,1.25-.28,5.63-4.86,6.01-4.94,3-.66,7.44,1.05,6.96,4.7-.3,2.33-1.11,1.53-1.61,2.31-1.64,2.54-2.08,4.18-5.78,4.76-.16,1.06,1.48.67,2.15.61,1.68-.15,6.53-1.8,7.04,1.02.55,3.07-4.55,3.23-5.21,4.56-.33.67.45,3.98.82,4.79,8.14,7.62,15.37,18.83,23.34,26.22,1.32,1.23,4.01,1.82,4.71,2.88.86,1.31,3.07,7.4,3.64,9.21,1.86,5.94,4.74,16.53-2.89,19.34-2.04.75-2.67.05-4.04.27-34.28,5.47-74.1,2.44-109.21,2.91-62.42.84-125.19,4.88-187.71,2.54-14.43-.54-35.23-4.73-48.84-1.83-3,.64-4.48,3.42-7.6.34s.26-10.71.94-14.42c.57-3.11,1.26-10.99,2.26-13.22.61-1.36,4.79-4.69,5.87-6.07,2.65-3.38,5.06-6.68,7.75-10.04,5.97-7.46,11.47-15.21,18.26-22-4.8-3.63-14.52-4.96-11.26-12.51,4.87-11.31,15.45-17.23,24.28-24.96-9.87-.89-19.66,1-29.44,1.28-16.13.46-33.17-1.01-49.58-1.25-4.37-.07-8.82.72-14.26.61-1.91-.04-10.91-.23-10.18-3.4.37-1.62,6.24-1.83,7.85-1.96,20.13-1.65,39.89.02,59.96.41,10.68.21,21.35-1.24,31.93.59-.77-1.47-.77-2.97-.57-4.58,1.22-9.88,8.5-24.99,11.75-34.72,3-9,5.36-18.26,8.53-27.21-.11-.59-8.61-6.14-9.87-6.82-5.89-3.19-12.48-5.55-18.34-8.92-4.82-2.78-6.04-3.19-5.78-9.14.22-5.15,4.92-16.89,8.42-20.69,1.22-1.33,5.5-3.05,5.23-4.06l-23.32-22.22c-3.83-4.66-8.06-9.18-10.78-14.65-6.42,3.83-23.42-.23-21.64-9.58.52-2.75,5.94-7.05,8.43-8.32,1.31-.67,3.98-.77,4.63-1.73,1.6-2.36,2.75-9.64,3.85-12.73.84-2.37,1.92-5.29,3.01-7.52,2.76-5.66,15.12-22.58,20.15-25.7,2.4-1.49,4.91-2.06,7.64-1.35-1.23-2.86-9.66-1.51-9.96-4.65-.23-2.42,2.46-2.38,3.58-3.58,9.39-10.1,27.37-18.29,41.39-19.02,7.32-.38,11.41,1.46,18.11,2.95,2.76.61,2.81-1.6,4.79,3.25,9.3,22.81,6.59,59,3.38,83.26-.69,5.17-2.75,10.67-2.96,16.01,2.3,2.82,4.38,5.89,6.77,8.62,7.86,8.98,16.29,17.69,24.11,26.83,5,5.85,11.7,12.64,16,18.69,2.48,3.48,10.63,16.72,10.59,20.24-.02,2.07-1.8,7.59-.89,9.07,4.96,3.2,9.27,7.3,14,10.79,34.93,25.77,68.42,52.52,102.47,79.04,2.12,1.65,9.15,5.22,9.93,7.1,1.78,4.3-2.58,3.5-4.04,4.36-.73.43-.95,2.31-2.65,3.54-9.95,7.19-39.38,7.34-51.37,4.63-5.57-1.26-17.73-6.05-22.82-8.78-1.73-.93-7.39-5.91-8.33-5.91-3.06,1.28-5.14,4.06-7.95,5.7-4.14,2.43-14.96,7.75-19.35,7.94-15.34.66-6.24-23.11-5.56-31.63-.54-1.19-9.47-5.22-11.42-6.51-1.21-.79-4.17-3.04-5.3-3.99-1.33-1.11-7.78-7.28-8.39-8.33-2.12-3.64,2.64-8.1.68-9.35-.3-.19-6.08-.86-7.12-.93-9.94-.62-29.13-.89-38.65.43-2.45.34-6.17.93-8.1,2.42-2.73,2.11-8.96,9.86-10.38,12.63-.33.64-1.16,1.08-1.34,1.7-.29,1.04,3.14,12.31,3.58,14.84.23,1.35.36,3.77.59,5.54.59,4.44,2.6,20.92-.08,23.65-1.58,1.61-12.66-.83-15.25-1.49-5.1-1.3-9.44-4.44-14.52-5.71l-27.08,35.23c2.89.43,5.48-1.27,8.21.04.59.28.32,1.22.77,1.21,2.07-.04.82-1.8.93-1.87.5-.29,9.9-.1,11.49-.03,17.92.72,35.87,2.64,53.84,3.15,3.71.11,7.74-1.49,10.57.58l-.32-1.22c4.85.95,9.67.04,14.54-.03,59.02-.81,117.92-5.2,177.17-6.81,9.7-.26,19.46.31,29.18.03,8.94-.26,17.92-1.78,26.92-1.26l-14.26-18.57-1.23.31c-.37,2.97,1.35,7-3.16,7.45-9.23-3.7-21.41-6.07-29.52-11.94-1.26-.91-1.73-2.38-2.65-2.92-1.5-.87-5.26-.36-4-4.02.1-.29,2.77-4.48,3.14-4.94,2.93-3.69,5.92-5.3,10.8-5-1.79-2.66-8.11-2.84-7.34-6.96.54-2.87,3-2.72,5.31-1.84,2.61,1,4.69,3.92,6.97,5.41-.64-2.5-2.72-3.02-4.31-4.98-2.2-2.73-3.66-6.2-6.23-8.69-1.2-.58-21.54,5.82-25.57,4.57-3.33-1.03-2.53-9.96-.98-12.52.71-1.17,1.93-1.34,2.22-1.75.12-.17,1-3.03,1.43-3.57-2.03-.63-4.56-2.11-4.96-4.35-3.8,3.89-5.3,7.87-10.49,10.25-13.53,6.21-19.66-.6-20.48-13.95-10.17,2.41-19.68-.31-17.95-12.4-5.44,1.49-11.55,3.03-16.7-.33-2.48-1.62-3.92-7.65-3.72-10.44.08-1.06,3.07-10.66,3.62-11.92.5-1.14,1.2-2.54,1.76-3.74.73-1.56,6.48-12.12,7.08-12.51.18-.12,1.09.59,1.14.54.84-4.28,6.73-9.22,10.24-11.76,7.7-5.58,14.98-7.71,24.43-5,3.22-8.16,8.88-15.79,13.58-23.32-5.88-6.58-6.45-15.68-8.77-23.87-3.9-13.79-9.28-29.02-8.91-43.46.02-.83.5-1.9,1.02-2.57l-1.22.33c-.3-3.5-.15-6.85-.09-10.28.01-.7-.53-1.98-.46-2.06.24-.28,1.45.4,1.15-.66-2.45.2-.9-4.6-.96-6.51-.31-9.87-1.47-19.82-1.54-29.71-.05-7.55.67-15.12,1.26-22.64-2.16,1.48-3.18,4.05-4.93,5.9-1.44,1.52-5.64,4.47-6.24,5.52-1.25,2.17-2.85,23.35-3.06,27.3-.28,5.14,0,10.27.04,15.41-5.22,1.91-.22,1.83,0,2.62.21,5.17.14,10.92.59,16.03.29,3.39,2.61,12,1.52,14.56-1.19,2.78-10.69,5.34-13.77,6.04-27.26,6.21-58.59,6.87-85.18-2.46-1.97-.69-9.46-3.36-10.64-4.24-1.05-.78-.78-2.02-1.1-2.3-.36-.31-1.7-.09-2.67-.73s-4.57-3.53-4.93-4.37c-.42-1-.87-9.33-.94-11.4-.69-18.25-.12-36.21-2.54-54.49-.28-2.08-1.08-8.57-1.72-10.05-.79-1.82-5.97-5.58-7.5-7.37-2.56-2.99-5.82-7.72-6.82-11.46-2.09-.23-3.38,1.91-5.4,2.33-5.99,1.26-12.53-2.48-14.24-8.39-.96-3.31-.21-7.21-.92-9.61-.35-1.19-2.46-2.37-3.26-3.56-5.35-7.99-9.22-18.24-6.87-27.89,1.13-4.66,2.94-6.18,6.92-8.27.27-.14.4-.95.99-1.18,5.76-2.29,8.65,2.79,11.2,2.58,1.18-.1,5.3-4.44,6.66-5.23-1.62-5.59-3.43-11.2-4.8-16.85-2.83-11.68-5.87-24.6-7.53-36.45-.74-5.32-3-13.4,1.92-17.12,3.53-2.67,14.38-5.59,19.06-6.96,14.57-4.26,33.46-8.85,48.33-4.95,1.89.5,8.49,4.02,8.98,4.02.83,0,4.51-2.32,5.9-2.76,7.97-2.56,17.31-4.32,25.67-4.69,11.4-.5,28.59,1.05,38.3,8.09.56.4.42,1.18.48,1.22.44.29,8.12-3.7,10.21-1.23l-.33-1.22c8.51-.47,17.75-.42,26.16,1.42,1.66.36,7.88,2.24,8.57,3.33,1.32,2.08.06,3.77.02,5.54-.4,19.08-7.01,38.97-8.77,58.2-.34,1.75,1.68,2.34,2.19,3.38,2.14,4.35-3,1.55-3.38,1.85-.27.21-1.66,4.71-.24,5,1.61.33,6.03-1.94,8.58-1.95,4.46-.02,8.26,2,9.88,6.27s.12,19.41-1.08,24.25c-.79,3.19-3.88,8.8-4.15,11.39-.22,2.2,1.47,4.17,1.28,6.75-.08,1.07-1.39,5.75-2,6.71-3.74,5.91-13.03,5.53-18.48,2.28l-3.1,6.81c3.59.91,6.98.51,10.66,1.43,6.65,1.66,18.18,8,24.22,11.71,8.23,5.06,13.05,9.35,16.84,18.47.63,1.51,2.7,7.11,2.71,8.35.02,3.75-3.55,4.38-4.14,5.38-.74,1.26,4.84,11.9,5.75,14.16,2.97,7.4,5.77,15.13,8.42,22.61,4.4,12.44,8.62,25.17,11.39,38.12,6.54,1.35,9.29,2.74,10.09,9.73s-2.53,11.62-9.1,14.1c-1.22.46-3.2-.11-4.06.89-.62.72-1.23,4.7-1.85,6.2-3.95,9.57-14.01,22.45-20.49,30.93-3.58,4.68-7.66,8.92-11.15,13.65,3.56,8.01,7.77,15.79,10.71,24.08,1.12,3.15,3.66,9.86,3.69,12.92.07,7.63-5.67,5.01-7.55-.39l-11.45-30.37c-1.42-.98-4.99,3.88-5.81,5.01-1.41,1.96-2.57,4.59-3.98,6.55-.55.77-.65,1.72-1.96,1.44-.69-.82,1.62-7.35,2.17-8.67,4.26-10.11,12.87-17.72,19.63-26.25,9.05-11.43,18.21-23.07,24.93-36.38.5-1,.25-2.19.94-3.39,1.86-3.21,11.75-4.67,8.56-11.56-1.68-3.61-3.78.49-7.12-1.54-1.75-1.07-3.64-9.3-4.35-11.8-.34-1.2-.05-2.6-.43-3.91-6.19-21.13-14.94-41.6-21.71-62.55l-1.34-.1c-9.21,6.09-19.32,7.86-25.39,17.99-2.16,3.6-3.5,8.28-5.47,11.88-2.61,4.78-6.8,8.7-8.38,13.98,2.7,6.1,5.2,12.23,8.54,18.01,4.09,7.08,10.18,13.17,12.24,21.22.22.86-.4,1.85-.21,2.67.44,1.84,2.52,2.11,1.45,5.44l-24.44,40.04c-.09,1.04,5.48,4.35,6.76,5.46,6.42,5.6,13.6,14.59,11.77,23.53-1.28,1.87-3.72-5.39-4.24-6.28-3.81-6.55-16.57-20.44-24.1-21.74-13.09-2.26-25.66,13.58-31.02,23.82-1.59,3.04-6.01,12-6.69,14.88-.6,2.59.29,8.46,3.29,9.35,2.46.73,7.7-.98,10.09-2.05,4.56-2.04,2.24-2.6,3.84-5.48.91-1.63.66-.67,1.53-2.86.52-1.3,1.82-6.02,2.09-6.21.1-.08,1.77.9,2.47.62.35-1.21-1.32-1.68-1.16-2.68.43-2.67,8.84-11.04,11.56-12.04.89-.33,1.77-.08,2.61-.15-.26.57.88.57.62,0ZM275.72,10.03c-6.53-2.97-13.68-4.11-20.76-4.96-1.61-.19-7.62-1.29-8.03-1.28-.32,0-.26,1.16-.74,1.27-2.36.56-7.47.29-10.35.7-7.04,1.02-13.5,2.42-20.16,4.94,1,4.71,1.95,7.03-.43,11.65-5.13,9.94-25.15,8.02-16.64-4.87,1.29-1.95,6.67-5.72,7.09-6.54.51-1-.44-.82-.85-.98-10.07-3.93-20.38-2.16-30.87-1l-36.43,9.41-.61.64c2.55,5.35,2.21,11.56,3.16,17.27,2.05,12.23,4.9,24.41,6.67,36.7.5,3.49,1.3,8.17.7,11.38l13.83-7.54c12.52-7.11,25.73-6.43,39.73-6.73,27.67-.59,55.54.34,83.04-.54,5.16-.17,17.42-2.83,21.63-.57,1.02.55.44,1.61.64,1.66.12.03,1.06-.51,2.05-.13,1.63.61,2.77,1.97,4.48,2.09l10.46-57.53c-.27-.43-7.94-2.33-8.97-2.5-3.99-.65-11.66-1.52-15.65-1.55-2.73-.02-9.63.3-12.07.96-.59.16-.93.45-.75,1.18.32,1.3,1.74,2.92,2.06,4.77,2.13,12.18-12.46,12.11-20.57,9.42-9.77-3.24-2.28-11.29,3.34-14.54.67-.39,5.57-1.88,4.98-2.75ZM310.41,10.65c-.87-.45-1.65.39-1.23.61.87.45,1.65-.39,1.23-.61ZM207.27,12.5v.62c.4-.21.4-.41,0-.62ZM213.04,18.58c.24-.53-.98-3.78-1.42-4.23-2.02-2.05-2.67.21-3.27.61-1.44.95-3.6,1.99-4.74,3.18-1.32,1.38-4.26,5.59-1.3,6.13,5.5,1,7.14-.99,9.62-5.12.25-.42,1.06-.45,1.12-.56ZM282.39,23.51c2.55-2.56.52-9.71-2.63-9.75-2.19-.03-11,4.11-12.38,6.21-.79,1.2-1.86,3.12-.1,3.78,2.63.98,13.31,1.57,15.11-.23ZM308.92,75.33c-1.12-.83-6.75-5.36-7.45-5.21-1.44,3.51-7.17,8.5-8.03,11.74-.26.97.36,1.88-.21,3.56-1.21,3.57-9.82,11.42-13.22,12.83-5.35,2.22-16.76,2.78-22.25,1.29-3.43-.93-13.71-7.27-16.11-9.91-1.92-2.13-5.69-13.8-8.56-9.17-2.53,4.08-2.69,7.95-6.69,11.9-13.16,12.97-36.18,18.23-48.22,1.27-3.19-4.49-5.51-9.6-6.92-14.87-10.02,4.16-18.78,10.8-27.83,16.76l-.29.32c1.89,2.8,5.08,5.21,4.32,8.98-1.86,1.88-9.74-6.81-11.46-8.05-.77-.55-4.5-2.92-5.05-2.97-1.66-.17-5.54,4.14-6.08,5.47-1.56,3.87.82,12.72,2.64,16.52.58,1.21,4.43,7.04,5.37,7.65,1.96,1.29,2.11-1,4.01-1.62,3.68-1.2,6.43.53,8.08,3.75-2.08,2.21-2.88-1.36-5.77-.27-2.38.9-3.25,2.16-.64,3.59,5.52,3.03,17.97-4.87,20.05-1.77,1.08,1.61-4.08,5.46-5.36,6.09-5.78,2.82-13.22,3.79-18.79.1-.66,6.26,5.81,11.68,11.59,8.81,1.25-.62,3.33-3.48,4.52-2.94,9.46,13.19,21.15,24.71,36.8,30.09l2.84-7.75c-.12-.56-8.22-3.91-9.52-4.75-.53-.34-4.53-3.45-4.7-3.7-.29-.44.61-1.47.6-2.05,0-.37-1.07-.25-1.24-.79-2.21-7.4,6.91-37.23,13.66-41.95.75-.53,2.72-1.97,2.43-.05-.31,2.04-2.92,6.27-3.74,8.66-3.89,11.27-5.56,23.2-6.55,35.05,7.42,2.21,15.15,5.99,22.64,7.74,4.39,1.02,9.84,1.69,14.37,2.35,2.11.31,6.19-.76,7.03,1.65l.59-1.14c16.86.53,35.22-1.65,50.94-8.04,1.59-.65,10.2-4.59,10.79-5.35,1.12-1.46-1.67-5.95-2.23-7.77-.71-2.3-1.12-5.16-1.85-7.44-2.23-6.93-8.66-20.33-9.49-26.49-.59-4.37,2.57-2.6,4.34.04,7.41,11.09,11.52,27.84,15.95,40.43.15,2.97-2.78,5.04-4.97,6.72-3.68,2.82-7.96,4.39-12.26,6.02-.24,4.54-.18,9.13.85,13.54.86-1.49,2.63-1.63,3.72-2.48,6.07-4.7,11.87-10.83,16.3-17.15,1.63-2.32,12.54-19.74,12.44-20.96-2.21-1.92-5.56-2.48-7.26-5.02-1.57-2.35-3.87-8.96.24-9.54,3.65-.51,3.61,5.19,7.53,6.08,2.42.55,9.79.05,11.05-2.34,1.5-2.84-5.89-6.63-5.9-7.13-.04-2.42,5.51-.86,6.94-.12.95.5,1.51,2.56,2.93,1.64,1.24-.8,3.67-14.71,3.78-16.99.61-12.6-3.36-13.23-14.42-8.84-1.84.73-3.07,2.89-5.41,2.29-2.76-4.24,2.6-14.03,1.79-17.03-.11-.39-1.12.17-1.66-.09-.72-.36-.73-.96-1.03-1.18ZM258.38,71.36h-1.86s0,1.85,0,1.85c1.51.4,1.21-.66,1.86-1.85ZM296.16,71.98c-2.58-.31-2.58.91,0,.61v-.61ZM217.48,75.07s-1.31-.22-1.23.31l1.55,2.16c-.05-.53-.24-2.38-.32-2.47ZM245.98,79.41c.27-.9-2.09-5.33-3.09-4.33.82,1.53,1.36,3.55,3.09,4.33ZM209.43,75.7l-1.86.3c.83,1.17,1.33,1.05,1.86-.3ZM193.32,80.65c-.09-1.6-.91-3.67-2.47-4.34-.13,1.76.87,3.58,2.47,4.34ZM209.12,77.55v.62c.4-.21.4-.41,0-.62ZM276.03,78.17v.62c.4-.21.4-.41,0-.62ZM318.78,115.96v.62c.4-.21.4-.41,0-.62ZM311.96,127.11v.62c.4-.21.4-.41,0-.62ZM325.28,130.21c-.72-.71-9.31,3.4-11.15,3.4-3.35,7.26,9.89,6.26,11.02,1.12.33-1.48.09-3.03.13-4.52ZM180.01,153.13v.62c.4-.21.4-.41,0-.62ZM325.46,197.92c3.54-3.27,11.13-8.67,15.34-11.61,1.59-1.11,9.38-4.96,9.2-6.13-.05-.31-2.85-4.78-3.34-5.38-6.83-8.32-27.92-17.5-38.27-19.96-.93-.22-3.53-1.71-3.88-1.68-1.73.15-.63,6.37-.64,7.75-.1,18.64,1.31,38.47,2.17,57.61.07,1.49.71,9.72.94,10.21.13.26.73.76.93.61,2.74-6.89,4.85-14.34,8.8-20.63,1.59-2.52,6.73-8.93,8.73-10.78ZM144.38,251.01c.08-1.3-.17-2.7.06-3.98,3.65-20.48,6.14-40.95,4.28-62-.26-2.97-2.59-22.96-3.39-23.86l-15.93-2.97c-5.76,0-23.11,4.5-28.19,7.19-.45.24-1.72.98-1.42,1.36,7.52,1.98,12.11,8.8,15.32,15.39,4.7,9.66,10.68,31.08,9.39,41.86-.18,1.54-2.13,6.36-1.7,7.09.08.14,1.53.66,2.11,1.3,2.8,3.02,5.27,5.57,8.32,8.42,3.67,3.43,7.87,6.22,11.15,10.21ZM197.05,163.67c-.11-.12-2.98-.74-3.09-.62-1.48,1.5,4.91,2.6,3.09.62ZM269.84,163.04v.62c.4-.21.4-.41,0-.62ZM265.8,166.14l.32-1.85-1.55.61,1.23,1.23ZM186.52,173.58c-6.54-.09-11.87-4.44-17.34-7.44,2.06,10.95,3.55,21.61,4.94,32.53l1.26,37.15c2.71,4.2,7.65,6.32,12.22,8.22,24.33,10.11,55.47,10.17,80.83,5.56,5.12-.93,10.2-2.19,15.35-2.93-4.15-24.16-1.67-48.99,1.85-73.1-.26-.34-7.52,3.34-7.76,3.7-1.8,2.63,2.31,13.38-3.11,14.28-3.1.51-9.74-3.61-12.61-5.32-.92-.55-3.24-2.71-3.46-2.71-.27,0-2.04,2.24-2.84,2.72-8.18,4.9-31,3.53-40.35,1.41-2.68-.61-7.04-2.91-9.41-2.86-3.13.06-12.35,5.17-15.21,7.11-3.26,2.22-5.75,7.28-7.49-.64l3.12-17.67ZM204.48,166.15l-1.86.3c.83,1.17,1.33,1.05,1.86-.3ZM260.85,167.37l-1.23-1.23c-.18,1.29-.06,1.41,1.23,1.23ZM210.67,167.38c-.68-.68-1.91.56-1.23,1.23s1.91-.56,1.23-1.23ZM87.08,168v.62c.4-.21.4-.41,0-.62ZM242.27,170.47c-.18-2.51-6.36-1.98-6.81-.91-.72,1.73,2.1.25,2.77.29,1.36.08,2.63.82,4.04.63ZM215.32,169.24v.62c.4-.21.4-.41,0-.62ZM243.82,170.48v.62c.4-.21.4-.41,0-.62ZM182.17,171.1c-.87-.45-1.65.39-1.23.61.87.45,1.65-.39,1.23-.61ZM247.22,171.1h-1.85s0,.61,0,.61l1.85.63v-1.24ZM234.83,171.72c-.68-.68-1.91.56-1.23,1.23s1.91-.56,1.23-1.23ZM84.6,172.34v.62c.4-.21.4-.41,0-.62ZM220.58,174.19v-1.85s-.61,0-.61,0l-.63,1.85h1.24ZM213.77,182.86c7.03.68,14.28,2.46,21.37,2.13,4.74-.22,12.08-1.59,16.74-2.73.82-.2,1.58.04,2.15-.94l-17.02-7.7c-4.22,1.65-8.43,3.75-12.71,5.21-2.77.94-7.72,1.37-9.73,2.64-.63.4-1.09-.04-.79,1.39ZM213.77,175.44c-1.29-.18-1.41-.06-1.23,1.23l1.23-1.23ZM262.09,179.15l-.92-3.09-1.55,1.84,2.47,1.25ZM286.87,176.68c-.87-.45-1.65.39-1.23.61.87.45,1.65-.39,1.23-.61ZM203.24,179.76c1.17.2,2.06-.72,1.85-1.85l-1.85,1.85ZM97.66,182.51c-.87-.77-4.75-4.05-5.54-3.92-1.28,1.42-3.11,2.31-4.45,3.63-6.41,6.3-19.22,24.57-22.26,32.87-1.4,3.81-3.12,15.09-7.11,16.43-2.04.69-3.52.24-5.93,1.51-1.08.57-3.25,2.23-4.25,3.07-1.11.92,1.02,3.15,1.87,3.68,2.45,1.55,9.38,2.37,12.36,2.5.26.01.08-2.07,2.15-.9,2.05,2.82,5.06,4.92,7.41,7.43,3.76,4.02,6.8,8.26,10.82,11.48,11.34,9.08,21.04,20.35,32.24,29.12,7.33,5.74,15.16,9.57,22.92,14.25,2,1.21,11.18,8.13,12.28,7.93,1.4-.25,4.04-3.45,6.62-2.35-.61,1.29-1.96,1.96-2.72,3.16-6.06,9.57-16.69,35.2-17.07,46.17-.04,1.17.4,6.85,1.17,7.38,1.78,1.23,10.09-3.58,10.86-5.31.83-1.87.64-8.11,1.09-10.68,1.05-6,3.76-14.02,6.65-19.37.7-1.3,4.73-7.63,5.57-8.05,6.8-3.38,6.5,8.16,6.19,11.76-.65,7.58-5.66,16.15-9.67,22.55-2.2,3.52-4.93,4.14-2.55,9.51s7.76,3.37,11.2.38c3.12-2.71,1.38-7.17,1.72-11.29.46-5.45,4.9-21.64,11.44-22.08.78-.05,1.24.08,1.85.57,3.99,3.15-.71,18.77-2.54,22.97-1.23,2.83-5.19,7.47-5.29,9.62-.16,3.33,1.87,8.73,5.45,9.49,4.74,1.01,8.59-6.36,10.79-9.43.61-.85,3.98-4.51,4.13-4.81.09-.17-.55-1.31-.26-2.38,1.35-5.13,4.61-10.98,6.04-17.01.81-3.41,2.41-10.28,1.49-13.38-.77-2.58-7.05-11.35-9.02-13.9-3.11-4.03-13.47-16.63-16.89-19.35-1.43-1.14-3.72-1.28-5.73-3.26-3.05-2.99-5.59-8.57-8.36-12.09-12.11-15.39-27.4-31.15-41.93-43.72-3.55-3.07-13.55-9.79-15.74-13.29-.61-.98.12-2.1-.54-2.5-.74-.44-1.53.34-2.45.01-6.03-2.16-5.48-6.09,1.87-4.37,3.99.93,7.36,5.17,11.11,6.54-.3-.72-.61-1.32-.63-2.15-.43-14.16-5.35-28.67-16.36-38.47ZM197.97,179.77v.62c.4-.21.4-.41,0-.62ZM287.49,179.78c-1.29-.18-1.41-.06-1.23,1.23l1.23-1.23ZM197.66,181.01c-.15-.16-4.15.49-4.3.65-.28.28.09,2.34-.03,3.06.98-.49,5.92-2.04,4.33-3.71ZM268.28,182.87c.2-1.17-.72-2.06-1.85-1.85l1.85,1.85ZM272.62,185.34c.31-2.58-.91-2.58-.61,0h.61ZM173.81,213.22v.62c.4-.21.4-.41,0-.62ZM57.96,224.99v.62c.4-.21.4-.41,0-.62ZM328,286.11c-3.07-5.75-5.36-9.14-8.82-14.44-1.97-3.02-3.32-7.41-6.29-9.5l9.29,34.07c1.43.35,1.02-.28,1.41-.78,1.27-1.62,5.7-7.25,5.42-8.73-.08-.44-.92-.44-1.02-.61ZM314.74,277.65c.45-.87-.39-1.65-.61-1.23-.45.87.39,1.65.61,1.23ZM156.77,351.99c.3-.3,3.55-6.58,3.97-7.5,1.75-3.89,4.29-11.78,3.98-15.9-.07-.9.25-1.33-.82-1.98-1.32.9-1.05,2.63-2.77,2.14-.91,6.75-5.22,13.81-5.59,21.1-.03.59-.15,3.5,1.22,2.15ZM350.99,330.93v.62c.4-.21.4-.41,0-.62ZM135.06,340.26c-3.74.03-6.99-3.82-10.09-5.1-.66-.27-.63-.87-1.34.1-2.49,7.86-3.93,16.17-6.32,24.04-3.26,10.74-7.43,24.74-11.48,34.99-.61,1.55-1.38,2.83-2.33,4.17,5.9,4.02,11.54-5.2,15.18,1.23,2.53-3.74,6.95-13.9,11.32-15.29,1.59-.5,8.08-1.69,9.82-1.85,3.15-.29,7.94-.15,11.04-.23,12.56-.34,25.7-.33,38.11,1.25.2-2.97,2.99-4.87,2.5-8.02-2.7,1.07-4.41,3.68-7.28,4.79-4.83,1.86-10.21-.54-12.67-4.97-.92-1.65-.84-3.42-2.04-4.76-6.56,6.84-17.04,4.56-18.9-4.97-13.55,8.92-19.27,6.73-17.95-10.21.4-5.14,2.8-10.01,2.43-15.15ZM274.17,337.74v.62c.4-.21.4-.41,0-.62ZM179.85,341.36c-.56-.88.3-2.37-.46-2.99-1.88,1.45-1.23,4.94-4.03,4.34,1.77,2.04-.28,5.55-.54,8.44-.16,1.73-.08,3.46-.07,5.19,2.53-1.91,2.52-6.18,3.51-8.55.33-.79,1.43-.66,1.44-1.11.03-1.62-1.47-3.91,1.25-4.9.09-.57-.9-.12-1.09-.42ZM273.55,340.84v.62c.4-.21.4-.41,0-.62ZM182.17,345.17c.45-.87-.39-1.65-.61-1.23-.45.87.39,1.65.61,1.23ZM231.31,367.91c-.4-.32-.56-1.22-1.11-1.65-7.89-6.25-16.22-11.94-23.23-19.22-1.9,6.48-2.92,13.2-4.78,19.69-2.77,9.64-7.62,19.53-9.99,29.09-.43,1.75,1.96,1.3,1.14,3.87l.92-1.23c2.32,1.49,16.92,14.01,18.27,13.01.22-1.19.58-2.44,1.14-3.52,2.14-4.16,5.41-10.03,8.44-13.23.89-.94,2.77-1.49,3.76-2.47,1.13,3.22,1.61,0,1.91-.04,2.99-.39,11.45,6.26,13.88,8.4,3,2.65,13.68,13.72,14.57,17.02,1.91,7.1-4.78,9.1-8.71,13.62l-.29,1.88c11.11,3.33,24.18,9.93,35.69,11.08,8.38.84,22.41.42,30.61-1.45,1.35-.31,9.07-2.94,9.27-3.75.21-.88-.77-1.32-1.29-1.8-7.27-6.73-17.61-13.49-25.59-19.67-21.35-16.54-43.41-32.86-64.63-49.65ZM298.64,350.76c-6.87,2.89-10.42,11.17-12.38,17.96,5.45-4.77,11.35-10.5,12.38-17.96ZM298.33,356.95v.62c.4-.21.4-.41,0-.62ZM263.64,357.57v.62c.4-.21.4-.41,0-.62ZM303.61,382.97c4.45-3.64,8.32-8.87,8.66-14.87-4.89,3.3-7.06,9.39-8.66,14.87ZM284.7,370.58v.62c.4-.21.4-.41,0-.62ZM180.31,379.25c.45-.87-.39-1.65-.61-1.23-.45.87.39,1.65.61,1.23ZM270.46,378.63v.62c.4-.21.4-.41,0-.62ZM298.33,382.35v.62c.4-.21.4-.41,0-.62ZM146.55,386.69v.62c.4-.21.4-.41,0-.62ZM327.14,394.11c1.54-1.7,7.33,1.83,7.42-.3.02-.38-3.35-5.65-4.01-6.5l-3.41,6.8ZM467.46,390.4v.62c.4-.21.4-.41,0-.62ZM232.81,399.86c-.67-.66-4.94-1.2-5.72-3.25-7.91,13.97-11.5,29.87-13.27,45.78,3.74,1.46,4.91.31,8.01-.9.64-.25,1.42.25,1.57.21.47-.13,4.45-5.23,7.68-5.18l19.78-16.19-.54-2.84c-5.05-5.27-11.03-9.75-16.15-14.95-.96-.98-1-2.32-1.35-2.67ZM358.74,405.88c.1-2.13-3.45-6.03-5.3-6.22-3.21-.33-3.2,3.92-4.13,4.85-.28.28-6.49,3.02-7.15,3.11-5.4.72-2.53-4.17-6.84-3.42-3.08,3.45-6.75,6.43-5.69,11.6,9.03-4.98,19.39-6.72,29.11-9.92ZM115.27,400.94c-.76-.62-2.44,1.26-1.86,1.85.95.96,1.98-1.75,1.86-1.85ZM329.31,408.37v.62c.4-.21.4-.41,0-.62ZM120.23,421.39c-.07-.08-1.18.08-1.74-1.05-1.16-2.35-.86-5.92-2.29-8.25-2.09,1.33-1.5,3.93-4.03,2.48.03.86.71,1.55.33,2.46-.79,1.93-11.8,10.51-14.17,11.89-2.78,1.62-5.47,2.32-8.22,3.55-.58.26-1.79.2-.86,1.29,1.16,1.36,18.04,6.85,21.06,8.07-.46,2.12-1.55,2.79,1.23,2.47l-.3-1.86c9.71,2.53,10.34,3.71,9.62-7.14-.22-3.34-2-8.28-1.92-11.16.04-1.36,1.39-2.6,1.27-2.74ZM87.38,427.57c.14-.14.69-1.99.62-2.47-1.19.3-1.39,1.37-1.23,2.47.2-.03.52.09.61,0ZM210.36,425.71v.62c.4-.21.4-.41,0-.62ZM123.32,431.3c-.87-.45-1.65.39-1.23.61.87.45,1.65-.39,1.23-.61ZM356.26,436.87c-.86-.17-.79-.13-1.29.39-.72.77-3.78,4.99-3.39,5.81,9.13,5.62,20.04,8.05,30.08,11.75-.56-2.34-2.47-14.97-3.68-15.83-.27-.19-6.1-.79-6.57-.75-1.03.08-.67,2.82-.91,3.58-3.1,1.25-3.64-3.02-4.07-3.14-3.05-.85-11.17,6.8-10.17-1.81ZM98.85,440.58v.62c.4-.21.4-.41,0-.62ZM115.88,445.54c.45-.87-.39-1.65-.61-1.23-.45.87.39,1.65.61,1.23ZM299.57,444.92v.62c.4-.21.4-.41,0-.62ZM309.48,447.4v.62c.4-.21.4-.41,0-.62ZM371.44,454.21v.62c.4-.21.4-.41,0-.62ZM378.05,497.12l32.77-2.31c.69-.38-.2-7.23-.47-8.27-.23-.88-3.3-8.42-3.6-8.79-.89-1.07-11.81-.65-14.16-.52-17.91,1.03-35.55,1.27-53.37,1.76-74.79,2.03-149.67,8.81-224.26,4.47-11.2-.65-22.83-1.83-34.04-1.96-5.91-.07-11.83-.52-17.65.62.46,2.73-1.97,14.73-1,16.12s10.78.26,13.05.31c15.99.33,32.69,2.3,48.92,2.78,56.64,1.65,113-2.95,169.74-3.77,22.86-.33,46.25.1,68.78.09,2.48,0,12.95-1.12,14.29-.55.53.22-.01,1.17.59,1.13.57.09.12-.9.42-1.09ZM69.42,477.76c-.87-.45-1.65.39-1.23.61.87.45,1.65-.39,1.23-.61ZM166.68,482.71c.45-.87-.39-1.65-.61-1.23-.45.87.39,1.65.61,1.23ZM56.73,498.2v.62c.4-.21.4-.41,0-.62ZM277.89,502.53v.62c.4-.21.4-.41,0-.62ZM158.33,503.77v.62c.4-.21.4-.41,0-.62ZM183.72,505.01v.62c.4-.21.4-.41,0-.62Z"/>
      <path d="M299.26,346.42s-.61-.03-.62,0c.37-.03.22-.04.62,0Z"/>
      <path d="M183.34,426.28c-.14.15-.83.02-1.16.06-.28,1.04,1.19.28,1.28.98.38,2.74-2.59,7.68-4.71,9.52-6.69,5.85-25.17,13.09-33.91,11.64-5.94-.99-8.62-5.52-8.45-11.24.24-7.99,7.93-33.63,12.66-40.01,4.18-5.65,12.86-1.72,17.58,1.59,6.01,4.21,11.24,10.83,13.93,17.66.43,1.1,3.13,9.43,2.78,9.8ZM151.19,406.51c-.94-.99-1.06.22-1.3.86-3.76,10.32-6.18,23.08-6.78,34.04.45,1.93,9.99.76,11.92.23l15.98-6.02c1.26-1.36-7.68-5.55-8.71-6.47-2.01-1.79-2.68-3.49-3.22-5.63-.05-.18-.97.26-1.63-.62-1-1.33-2.59-4.99-3.29-6.69-.66-1.6-2.64-9.35-2.99-9.71ZM161.42,416.43c.13,1.62,1.31,3.26,2.49,4.31-.87-2.04-.11-3.38-2.49-4.31ZM176.6,429.44c-.87-.45-1.65.39-1.23.61.87.45,1.65-.39,1.23-.61Z"/>
      <path d="M188.37,447.39c3.97.06,9.13-6.83,11.36-1.22,1.19,2.98-3.2,5.05-3.2,5.87,0,.43,3.77,5.92,4.35,7.32,5.77,14.07-7.05,12.55-16.88,10.68-3.27-.62-17.62-5.46-19.03-7.91-1.09-1.9,1-5.55,2.34-6.99s5.36-3.19,5.54-3.46c.48-.71-2.05-2.8-.3-4.29,3.29-2.8,5.75,3.55,8.83,1.07,1.63-1.31,1.95-12.76,6.59-9.67,2.49,1.65,1.09,6.22.39,8.6ZM183.61,460.21c-1.18-.77-2.62-1.56-3.63-2.25-1.13-.78-2.79-3.57-4.3-3.52-1.02.04-7.26,3.83-7.75,5.05-.45,1.13.72.94,1.21,1.22,1.23.68,2.52,1.3,3.86,1.75,2.03.68,23.94,5.87,24.05,3.83.01-1.84-3.47-11.17-4.66-11.45-3.46-.81,1.39,6.14-2.18,7.74-2.52,1.13-4.54-1.02-6.6-2.37ZM193.02,467.22v.62c.4-.21.4-.41,0-.62Z"/>
      <path d="M267.02,106.08c1.26,1.94-2.5,3.01-4.03,3.09-2.25.11-3.22-.77-5.01-1.07-.73-.12-1.69.57-2.33.47-.48-.07-.32-1.39-.68-1.29-1.16.35-1.59,1.36-3.74,1.32-1.86-.04-3.48-.6-6.15-.67-12.85-.31-25.85-.53-38.45,2.47-5.16-2.76,4.01-6.33,6.53-7.12,11.71-3.7,35.14-1.92,47.34.33.73.13,6.33,2.19,6.51,2.48Z"/>
    </g>
  </g>
</svg>