<?xml version="1.0" encoding="UTF-8"?>
<svg fill="#72441E" id="Layer_2" data-name="Layer 2" xmlns="http://www.w3.org/2000/svg" viewBox="0 0 500.67 652.92">
  <g id="Layer_1-2" data-name="Layer 1">
    <g>
      <path d="M274,2.71c1.06.52,3.33,2.82,4.94,2.82,1.43,0,5.24-2.36,7.16-2.82,2.84-.68,13.15-.93,14.73,1.61,3.11,5-1.57,24.89-.97,31.53.21.71,3.55.26,4.71,1.63,2.45,2.89.57,15.76-.92,19.36,7.89.42,17.6-.43,20.49,8.6.81,2.53,1.94,12.19,1.96,14.93.05,5.93-4.55,26.04-7.12,31.52-2.27,4.85-12.72,7.72-17.56,9.34l-.28,15.68c-1.13,1.16-9.2-4.19-11.44-3.66-1.32.31-6.85,7.93-8.57,9.28,3.61,1.34,7.63,1.1,11.27,2.19,2.26.67,3.66,2.18,5.87,2.24,3.84-12.29,13.31-17.52,10.38.58l6.25,1.25c.37-2.4,2.81-16.8,6.88-14.74,3.09,1.56.87,14.78,2.52,18.01,6.41,4.79,11.32,11.94,15.94,18.62.91.23,1.03-.57,1.46-1.03,2.81-3,9.51-14.81,15.08-10.51,1.74,1.35.89,4.99,3.15,4.66.61-1.96,2.27-4.59,3.49-6.21,2.59-3.42,8.51-11.14,12.63-11.81,3.8-.62,6.7,3.05,7,6.53.24,2.78-2.18,11.23-1.8,12.35.5,1.51,3.34.71,4.78,1.83,7.12,5.53,1.87,21.96-2.19,28.41-3.11,4.94-8.44,6.23-11.13,9.51-1.34,1.63-.34,7.41.68,8.81.33.45,7.53,3.83,9.4,5.61,16,15.15,21.16,46.97,8.32,65.28-1.24,1.76-6.67,6.03-6.79,6.49-1.44,5.36,3.11,12.39-2.18,16.44-.84-2.47-2.1-1.43-.93.62-1.46-.02-2.78.5-3.77,1.55l-19.06,20.4c-.83,1.86,2.2,10.91,2.67,13.54-.8,4,2.54,10.16,2.01,13.57-.56,3.61-11.03,10.99-11.12,11.92,2.67,4.53,3.7,9.59,5.48,14.41,2.03,5.5,4.89,11.32,6.83,16.41,5.45,14.28,9.89,29.13,15.69,43.62.87,2.17,4.12,7.34,4.35,8.78.87,5.46-.48,11.43-.62,16.83-.88,33.64.14,66.88,0,100.12-.03,7.42,1.17,15.05,0,22.46-.51,3.25-4.85,5.48-7.64,6.74-7.62,3.45-18.52,6.26-26.74,8.92-.82.27-1.63.38-2.49.32,7.19,6.92,15.68,12.26,22.86,19.36,3.15,3.11,10.8,10.96,12.31,14.59.67,1.62.33,3.95-1.21,4.86-3.24,1.91-18.36-2.86-23.17-3.62-8.6-1.37-16.48-1.25-25.04-3.74-6.15-1.78-17.53-5.05-23-7.65-9.14-4.34-2.72-10.77-2.78-18.17-2.59.29-5.33-.28-7.82-.28-3.74,0-16.32,2.72-17.73-1.4-.16-.47.42-8.59.54-9.89,2.57-28.16,6.74-57.61,11.4-85.55,1.87-11.22,5.27-19.15,1.11-30.8-.57-7.75-.94-15.4-1.25-23.15-.03-.76.47-2.32-.62-2.18-4.88,32.59-9.31,65.41-15.83,97.7-2.88,14.25-6.85,28.01-10.63,41.91-1.08,3.97-3.46,17.75-5.15,19.87-3.29,4.13-5.96-1.15-6.37-1.25-3.09-.76-9.85.37-13.63,0-1.81-.17-10.17-2.69-10.95-1.87-.14.15.12,2.54-.7,4-.93,1.65-8.97,5.17-11.24,6.27-18.05,8.68-36.74,16.95-55.73,23.71-2.45.87-7.23,4.62-9.33,2.04-1.28-1.56-.3-3.04.69-4.43,4.32-6.12,14.77-13.51,20.39-19.31,4.9-5.05,10.26-11.22,14.62-16.32,1.23-1.44,2.14-3.2,3.76-4.4-3-1.02-6.15-1.83-9.22-2.66-5.84-1.58-11.68-3.17-17.27-5.87-2.99-1.45-6.08-2.5-5.82-6.57.43-6.86,3.86-15.11,4.45-22.15,12.6-52.56,27.06-105.13,32.88-159.14,1.77-16.41,3.46-32.68,4.99-49.1-2.59.98-5.16.41-7.76.67-2.19.22-4.08,2.17-6.53.48-1.39-8.53-1.71-17.2-2.67-25.79-.21-1.87-.96-3.79-1.17-5.71-.5-4.55,1.6-6.88-2.76-10.06-6.24-4.57-10.45-8.82-15.04-15.3-5.53-7.82-5.08-11.22-13.43-17.85-2.37-1.88-3.87-2.29-6.53-4.11-7.87-5.36-13.41-13.16-13.68-22.9-7.59-1.44-15.15-2.3-13.6-12.29,1.21-7.77,7.76-6.31,13.69-6.01.35-3.39,1.19-6.73,2.24-9.95,3.98-12.2,10.75-28.22,16.72-39.58.91-1.73,5.17-7.31,5.33-8.4.3-2.02-3.81-4.79-3.6-7.98.1-1.44,3.74-7.32,4.94-8.2,2.36-1.75,3.69-.04,4.76-.83.93-.69,1.05-2.24,1.73-3.01,4.32-4.92,10.84-10.96,16.14-14.82,11.89-8.67,24.36-4.88,38.08-4.76.62-.52-4.72-6.14-5.27-6.92-4.44-6.26-9.16-14.09-9.74-21.85-6.53,2.32-12.72-1.09-14.59-7.61-.54-1.87-.11-5.25-.55-6.02-.15-.26-3.49-2.59-4.52-3.92-5.31-6.91-6.49-20.08-3.72-28.16.68-2,1.42-4.7,3.36-3.07-1.51-1.64,1.53-3.42,1.87-3.12.23.2-.51,1.49.63,1.25-.34-2.75.44-1.12,1.94-2.05.79-.49,5.83-4.74,5.94-5.12.04-.15.25-2.93.23-3.08-.05-.43-1.08-.29-1.33-1.23-1.97-7.38-5.84-21.03-5.57-28.22.04-.97.31-1.6.75-2.43s9.68-7.71,10.96-8.42c4.52-2.52,19.73-6.44,25-6.9,2.29-.2,6.18.65,7.29.42.73-.15,3.12-1.95,4.42-2.49,11.7-4.85,25.57-10.01,37.7-4.01ZM273.63,8.06c.82-1.19-4.22-3.6-5.17-3.88-7.38-2.19-24.39,3.24-31.1,7.37,4.24,5.04,1.86,13.03-4.75,13.98-2.07.3-9.14.21-10.32-1.6-2.5-3.87,1.99-7.03,3.18-10.22-.79-.71-18.3,3.79-20.63,4.7-1.41.55-9.89,5.96-10.64,6.88-.98,1.2-.38,2.61-1.25,3.76l1.23-.33,4.39,27.52c7.75-3.08,15.45-7.98,23.27-10.81,16.34-5.9,29.62-3.63,45.3-6.05,4.16-.64,7.91-1.84,11.85-2.48,5.02-.81,10.27-.41,15.31-.95,1.37-.95-.11-12.05,2.46-13.8.21-.56-1.2-.11-1.2-.57,0-3.25,3.43-13.14-.65-14.47-5.28-1.72-9.68,1.62-14.41.97-.29,1.03.92.33,1.13.91,2.12,5.81-6.96,13.12-12.09,9.11-2.54-2-2.69-4.47-.66-6.93.93-1.12,4.57-2.86,4.73-3.1ZM271.76,14.95c.29.32,5.98-1.6,5.62-3.43-.22-1.09-.95-.7-1.67-.44-.8.29-5.28,2.42-3.96,3.87ZM226.1,21.83c3.66,1.19,11.23-1.63,8.45-6.26-2.26-3.76-9.28,2.76-8.45,6.26ZM300.52,40.61c-1.51-.06-2.18-.4-1.87,1.24l1.87-.63v-.61ZM251.11,45.61h-1.87s0,1.87,0,1.87c1.53.41,1.22-.67,1.87-1.87ZM273,46.85c.45-.88-.4-1.67-.61-1.24-.45.88.4,1.67.61,1.24ZM244.86,46.23c-.78-.42-2.18,1-1.88,1.24.78.42,2.18-1,1.88-1.24ZM278.63,46.86h-1.87v1.24h1.87v-1.24ZM237.35,47.48c-3.46.19-2.05,1.42-2.48,3.33-.17.78-1.53,0-1.26,1.04,2.48.15,3.14-2.37,3.75-4.37ZM266.74,49.98c-1.03-1.08-1.06.34-1.3.88-1.02,2.25-1.32,5.08-2.55,7.45-2.07,3.99-7.83,9.47-12.39,10.18-2.47.38-13.07-1.17-15.44-2.14-4.87-1.98-8.02-4.76-11.1-8.91-.87-1.17-1.85-4.37-3.16-4.39l-21.61,9.11c-2.32,3.26,1.86,4.86,3.17,7.51.36.73.81,1.42-.35,1.58-.91.13-3.17-1.87-4.53-2.34-4.8-1.67-11.1-.81-12.38,4.8-1.07,4.71-1.1,13.41,1.04,17.8.33.69,3.43,5.77,3.7,6,1.2,1,1.78-2.5,3.15-3.4s5.2-1.63,3.72.59c-1.14,1.72-3.34,2.18-2.51,5.31,2.35-.12,4.79.22,7.13-.07,2.09-.26,7.89-3.3,8.86-1.84,1.58,2.4-1.13,4.83-3.4,5.11,1.33,6.65,2.07,15.38,4.82,21.62,2.57,5.83,10.19,16.86,15.71,19.94,14.95,8.32,33.45,6.99,47.16-2.95,4.08-2.96,6.98-6.68,9.78-10.85-.04-.59-9.89-4.7-10.88-4.65-3.68.17-13.09,6.09-17.54,7.49-2.58.81-5.2,1.83-7.79.54l4.75-22.22-.42-3.35c.99-1,8.96,3.43,10.64,4.05,12.07,4.46,23.67,6.3,36.53,4.03,5.24-.93,13.79-3.91,15.58-9.44,2.16-6.67,2.92-14.75,5.11-21.47-1.36-4.16,1.78-18.66.01-21.58-.76-1.25-7.2-2.71-8.92-2.96-14.81-2.15-30.29,3.89-45.19,2.96-.29-1.61.26-1.12,1.25-1.53,2.14-.88,4.58-1.09,6.87-.97.05-1.99-2.46-2.2-3.78-3.41-2.72-2.49-3.3-8.02-3.73-8.47ZM227.34,50.61c-.88-.45-1.67.4-1.24.61.88.45,1.67-.4,1.24-.61ZM298.34,56.86v.63c.41-.21.41-.42,0-.63ZM254.24,60.62c-1.31-.18-1.42-.06-1.24,1.24l1.24-1.24ZM248.61,63.11c-.21-.9-1.01-1.43-1.87-1.24v1.24s1.87,0,1.87,0ZM284.89,61.87c-.88-.45-1.67.4-1.24.61.88.45,1.67-.4,1.24-.61ZM192.32,66.87c-.88-.45-1.67.4-1.24.61.88.45,1.67-.4,1.24-.61ZM195.76,66.87v.63c.41-.21.41-.42,0-.63ZM197.01,101.89v.63c.41-.21.41-.42,0-.63ZM203.58,105.02h-10.63c1.05,9.25,12.58,12.33,10.63,0ZM255.18,113.78v.63c.41-.21.41-.42,0-.63ZM200.76,145.67v.63c.41-.21.41-.42,0-.63ZM320.43,171.82c-.23-6.66,1.07-13.41.53-20.06-.13-1.58-.07-4.6-1.65-5.46-1.02,4.57-2.19,9.31-2.15,14.07.02,2.51.86,5.14.92,7.48.13,4.49-.48,10.46.24,14.72.09.53.24,1.43.97,1.25l1.89-11.25-1.89-.32,1.14-.43ZM303.65,148.18c-1.77-.36-1,.51-1.45,1.34-1.86,3.48-5.67,10.59-6.53,14.13-.72,2.94.21,7.36-4.44,2.89l-3.84-11.48c-.05,3.93-.58,8.94.04,12.77.39,2.39,3.78,6.93,1.19,8.22-1.73.86-4.92-2.88-6.29-3.75-3.68-2.33-7.26-4.68-11.84-3.8,5.83,3.91,14.47,17.04,22.48,13.1,4.65-2.28,5.64-15.69,6.82-20.7.97-4.15,2.44-8.69,3.85-12.72ZM284.26,148.8c-3.18-.73-2.51,1.78-4.7,3.75-9.6,8.65-34.62,11.29-46.19,6.17-1.97-.87-4.37-3.02-5.87-3.51-4.4-1.43.23,3.63,1.01,5.24,1.42,2.95,3.52,7.98,4.59,11.05.73,2.1,2.41,11.02,3.27,11.77,1.21,1.07,5.48-1.61,7.6-1.89,2.29-.3,7.42-.34,9.47.43,1.38.52,4.08,3.43,5.4,3.17,1.42-.27,8.65-9.63,12.29-9.3.85-1.11-12.27-6.69-5.6-10.91,4.38-2.77,10.21-.97,14.5,1.07,1.83.87,2.96,2.58,4.86,2.96-.83-6.82-1.8-13.14-.63-20.01ZM295.5,151.96c-.15-.21-4.73-1.52-4.98-1.28l2.51,7.5,2.21-4.36c.18-.49.51-1.51.26-1.87ZM377.43,151.32c-.83-.18-1.57.1-2.31.45-1.78.85-8.32,9.3-9.82,11.45-4.07,5.83-7.54,12.26-9.71,19.06-9.18,2.45.54-14.92-2.54-17.23-4.36,3.27-7.41,7.42-10.11,12.09-1.55,2.68-4.04,7.6-5.2,10.43-.57,1.39-3.88,11.44-3.45,11.87,4.83-.15,10-1.57,14.67-1.9,5.17-.37,10.7.3,15.59.66,1.46.11,2.78,1.39,4.31,1.13.96-.16,8.07-5.16,8.91-6.13,3.01-3.48,7.05-15.88,5.79-20.22-.34-1.19-2.03-2.48-3.29-2.37-1.98.18-5.12,9.33-6.68,11.54-2.69,3.81-10.97,9.67-11.21,1.33-.14-4.86,3.68-10.71,7.15-13.86,1.44-1.31,4.98-2.73,5.92-4.4s3.46-12.9,1.97-13.93ZM207.23,152.03c-8.84-.25-18.48-1.06-25.98,4.47-.39.29-.57,1.22-1.12,1.66-2.77,2.26-13.44,11.33-14,14.24-.44,2.29,5.75,9.41,7.41,11.74,1.14,1.59,1.81,4.13,3.12,5.63,1.99,2.28,10.13,8.04,12.95,9.57,6.11,3.31,3.34.39,2.38-3.01-.84-2.98-3.44-14.12-1.91-16.3,3.35-4.8,9.36,9.76,10.04,9.41,2.41-2.99,5.07-7.71,8.14-10.02,1.39-1.05,2.37-.64,2.66-.83,1.43-.92,3.18-3.55,5.77-3.56-2.32-8-5.72-15.6-9.47-23.02ZM229.22,177.57c-2.78-6.3-4.37-16.59-8.21-22.12-1.4-2.02-5.72-2.09-8.06-2.26,1.58,2.51,3.22,5,4.49,7.7,1.67,3.55,3.58,10.88,5.59,13.8,1.04,1.51,4.37,2.53,6.18,2.88ZM314.29,155.68l-7.5-1.88-6.81,29.73c5.48,2.18,7.82,4.65,9.62,10.3.23-.81,2.06-2.56,2.07-2.8,0-.43-3.73-6.03-4.36-7.41-1.09-2.41-6.37-16.66.72-13.25,1.95.94.5,2.72.62,2.82.13.11,1.18-.3,1.93.41,1.19,1.13,1.99,4.89,3.7,5.85.42-7.98-1.16-15.93,0-23.76ZM329.69,166.54c-1.47-1.87-3.59-4.29-5.39-5.86l-.63,15.01c12.22-5.27,6.82,5.71,4.37,12.16l3.75,7.85c.74-6.24,3.73-11.86,5.63-17.78-.07-1.19-6.44-9.75-7.74-11.39ZM368.09,180.07c1.51-.7,2.62-2.76,2.81-4.37-1.2,1.18-2.84,2.5-2.81,4.37ZM166.99,180.07v.63c.41-.21.41-.42,0-.63ZM284.89,207.59c-1.68-5.99-2.27-12.23-1.9-18.46.08-1.25,1.26-2.93,1-3.44-.23-.46-6.87-5.29-7.53-5.35-3.65-.29-13.78,6.57-14.09,10.99,9.87-.27,17.05,6.48,21.1,14.89.41.85-.4,1.72,1.41,1.37ZM229.18,195.69c.36-.52,1.95-6.76,1.64-7.46-.39-.88-6.01-4.82-7.19-5.37-4.83-2.24-6.81-1.34-11.63-.19.61,1.67-1.29,1.46-2.32,2.39-1.21,1.09-6.4,6.78-6.59,7.94-.16.93,5.81,10.45,6.83,11.69,2.48,3.01,4.58-2.97,6.47-4.62,1.28-1.12,5.81-3.57,7.48-4.06,1.33-.39,5.16-.11,5.31-.33ZM325.54,183.82l.33-1.86c-.95.64-1.55,1.97-.33,1.86ZM241.1,183.21c-.88-.45-1.67.4-1.24.61.88.45,1.67-.4,1.24-.61ZM315.54,188.82l-2.82-3.73c-.27.85,1.84,4.67,2.82,3.73ZM297.09,186.33v.63c.41-.21.41-.42,0-.63ZM206.57,224.35c.61-1.04-.09-6.86.19-8.89.26-1.86,1.87-3.84,1.56-5.37l-14.75-23.14c1.2,4.88,1.9,12.06,4.73,16.22,1.07,1.58,4.82,3.34,2.45,5.05-7.99-4.41-16.5-8.28-25.94-6.57,4.56,3.13,9.72,5.14,14.33,8.19,1.26.83,11.27,7.88,9.44,9.63l-27.52-2.81c2.95,1.97,6.7,3.79,10.02,4.99,3.73,1.35,8.8.98,11.2,4.48.57,3.36-11.66,2.61-11.83,7.1,7.63-.28,12.18,1.13,18.96-3.24.9-.58,6.94-5.25,7.17-5.64ZM160.41,187.58l-1.29.39c-3.18,6.58-7.35,12.94-10.26,19.63s-6.63,16.26-9.09,23.43c-1.35,3.94-2.53,11.74-4.1,14.66-2.61,4.85-12.47-1.78-11.9,5.69.54,7.04,10.45,3.11,12.55,5.64,1.54,1.85,1.16,6.89,1.88,9.38s5.19,8.83,7.06,10.62c1.07,1.03,10,7.14,11.11,7.49,1.71.54.44-1.77.64-2.58,1.71-7.22,11.2-9.74,17.8-9.29.32,1.77-.42,1.03-1.37,1.41-6.37,2.54-15.52,4.54-11.81,13.96.96,2.44,3.54,2.82,4.13,4.02.81,1.65-.3,2.76-.14,3.97.6,4.6,15.82,22.05,20.46,23.86,1.93.75,8.67,1.96,9.28-.68.06-.27-1.1-4.84-1.31-5.1s-4.61-2.59-5.67-3.4c-3.58-2.75-14.06-11.5-14.24-15.85-.39-9.88,13.4,2.87,15.67,5.66,3.98,4.89,4.81,11.91,12.26,11.5,4.47-.25,3.52-14.33.24-16.5-1.27-.84-6.39-1.79-8.53-2.73-3.9-1.71-14.88-7.49-11.39-12.87,2.36-3.64,10.03.16,12.88,2,6.63,4.28,8.65,13.5,18.33,9.2,4.85-2.16,2.74-6.18.25-9.65-5.86-8.16-25.24-19.21-35.3-17.93-2.35.3-5.09,1.67-7.06,2.98-1.45.95-3.37,3.46-4.81,3.96-2.05.71-.91-3.23-.46-4.23,2.18-4.83,9.22-7.29,14.23-7.35.25-.22-2.65-5.39-3.11-5.95-1.45-1.75-7.54-4.64-7.54-6.87,0-1.7,7.24-6.99,8.15-9.06-2.18-.39-7.91,1.37-7.53-2.17.29-2.71,11.32-6.32,13.16-9.09-5.46-1.34-11.85-3.87-16.68-6.78-4.36-2.63-5.23-4.96.73-5.79l20.33,1.62c-3.15-4.38-18.24-9.47-20.34-12.81-1.78-2.84,3.47-2.41,3.44-3.45-3.98-2.81-8.51-6.53-10.63-10.94ZM306.79,204.46c-.84-3.27-1.21-11.94-3.77-14.05-3.4-2.8-10.89-2.27-14.99-1.58l-.63,18.13,19.4-2.51ZM306.47,191.96v.63c.41-.21.41-.42,0-.63ZM324.2,192.06c-1-.63-7.83.9-8.67,1.52-.66.49-.88,1.63-1.54,2.14-4.03,3.14-4.7,1.4-3.45,8.11l17.51-3.13c-1.38-1.22-2.98-8.1-3.85-8.64ZM275.25,202.87c-5.18-5.09-11.1-7.4-18.22-4.68-2.02.77-11.63,7.01-11.45,8.98.15,1.62,3.27,5.55,3.09,7.87,10.27-1.36,20.37-4.6,30.59-6.2-.99-2.36-2.22-4.21-4.01-5.97ZM195.13,200.71v.63c.41-.21.41-.42,0-.63ZM366.2,200.72c-.23-.21-2.34-.39-1.87.93.69,1.93,2.52-.32,1.87-.93ZM239.01,207.82c-.52-.59-4.21-3.84-4.84-4.23-11.55-7.21-23.71,8.63-22.46,19.64l31.29-6.55c.85-.62.53-.83.34-1.61-.41-1.62-3.13-5.9-4.33-7.26ZM366.18,203.24c-1.73-.13-3.48.11-5.22-.09-12.18-1.45-32.51,3.31-45.59,5.21-32.37,4.7-65.04,12-96.47,17.06-2.65.43-5.97,2.01-9.1,1.86-1.04.59,1.03,6.64,1.22,8.21,1.66,13.23,2.29,26.67,3.86,39.92,3.4,6.54,9.97,11.56,3.96,19.07-.62.78-2.05,1.13-2.45,1.92-1.26,2.52,2.86,23.91,3.44,28.48.37,2.95-.2,6.12.64,9.06l22.52-5.64c-1.54-7.81-3.65-15.7-4.92-23.56-2.7-16.71-2.78-33.87-5.72-50.57-.32-2.81,4.04-4.73,6.26-5.61,12.83-5.11,8.9,5.82,9.38,14.37.87,15.36,3.38,32.1,5.78,47.38.81,5.16,1.75,10.4,2.98,15.49l8.71-1.92c-1.67-26.51-6.81-52.81-7.95-79.26,2.92-2.55,14.97-7.55,16.61-2.18l9.5,77.46c1.24-.09,8.05-1.07,8.19-1.99-1.85-9.03-2.17-18.24-3.25-27.37-1.69-14.33-4.86-30.16-5.58-44.46-.06-1.16-.21-5.18.16-5.84.26-.46,5.75-2.35,6.58-2.49,9.79-1.54,7.3,4.54,8.45,11.28,2.99,17.63,7.78,37.55,9.23,55.19.21,2.6-.53,7.19.1,9.28s7.41-.74,9.24-.89c-.94-6.91-1.49-13.93-2.54-20.82-2.67-17.6-6.3-34.62-6.84-52.6-.04-1.3-.21-2.67.61-3.82,2.42-3.38,14.2-4.35,15.55,1.43,2.52,10.76,2.07,23.1,4.86,33.92.52,8.52,1.55,17.39,2.85,25.92.66,4.35,2.44,8.34,1.8,12.9,2.11-.38,8.45.19,8.79-2.21-1.57-10.78-2.59-21.63-3.86-32.43s-2.38-19.56-3.06-30.72c-.17-2.85-1.68-8.84-1.24-11.24.76-4.22,15.61-8.94,16.11-1.13,2.28,24.93,6.84,49.65,8.29,74.59,6.95-.88,13.59-3.7,20.64-3.75.56-3.61-1.68-7.21,0-10.63-8.79-.79-10.52-10.36-9.22-17.67.26-1.44,2.29-6.85,2.04-7.38-.3-.64-5.78-3.71-7.21-5.91s-.52-2.64-.83-3.94c-.03-.11-.96.08-1.1-1.03-.74-5.77,3.17-10.15,3.12-13.19-.03-1.31-3.27-7.77-3.89-10.42-1.05-4.49-2.13-13.5,1.42-17.12,1.09-1.11,4.72-1.84,4.99-2.22.53-.73-2.12-8.23-1.86-9.91ZM212.02,211.97v.63c.41-.21.41-.42,0-.63ZM375.69,267.74c-.58.34-3.05,8.39-3.17,9.66-1.34,14.31,9.53,12.92,15.47,2.32,9.09-16.23,4.79-48.86-11.83-59.26-3.54-2.22-9.89-5.1-11.06.72-.93,4.63-.17,9.41,1.61,13.74,2.49,6.03,2.5,2.72,7.27,3.36,9.33,1.23,13.25,16.69,2.58,14.94-3.58-.58-5.5-4.35-8.17-6.21-2.71,3.89-2.93,9.46.5,12.94.17.17,3.77,2.55,4.01,2.58,3.35.38,2.28-1.68,3.97-3.3,7.56-7.28,11.81,5.38,2.01,8.28-1,.29-2.57-.13-3.19.24ZM207.64,218.85v.63c.41-.21.41-.42,0-.63ZM210.45,271.39l-4.68-40.02c-2.09,3.45-21.83,21.84-22,23.44-.05.48,1.21,4.06,1.67,4.39,1.47,1.05,7.06,1.44,8.98,2.91l16.04,9.29ZM337.42,235.11c.45-.88-.4-1.67-.61-1.24-.45.88.4,1.67.61,1.24ZM185.83,246.78c.8-1.24.52-8.4-.04-9.2-.61-.88-4.54-.87-5.38-.3-.43.29-4.22,7.79-4.94,9.04,2.75.84,4.56,3.13,6.53,5.05.91-1.38,3.05-3.38,3.83-4.59ZM314.28,236.99h-1.24c-.26.27.39,3.55,1.24,3.12v-3.12ZM393.72,240.75c-.88-.45-1.67.4-1.24.61.88.45,1.67-.4,1.24-.61ZM379.33,249.5c1.73-3.65-4.59-9.74-7.52-7.83-1.72,1.12,1.43,3.82,2.06,4.89.39.66-.15,1.34-.12,1.4.17.38,1.1-.3,1.78,0,1.19.51,2.09,1.97,3.8,1.54ZM293.01,243.24c.45-.88-.4-1.67-.61-1.24-.45.88.4,1.67.61,1.24ZM211.08,247.62c.45-.88-.4-1.67-.61-1.24-.45.88.4,1.67.61,1.24ZM210.14,250.75v.63c.41-.21.41-.42,0-.63ZM237.67,254.5v.63c.41-.21.41-.42,0-.63ZM243.3,255.13v.63c.41-.21.41-.42,0-.63ZM381.84,258.26c-.88-.45-1.67.4-1.24.61.88.45,1.67-.4,1.24-.61ZM380.59,261.39c-1.31-.18-1.42-.06-1.24,1.24l1.24-1.24ZM382.15,262.01v.63c.41-.21.41-.42,0-.63ZM240.17,263.89v.63c.41-.21.41-.42,0-.63ZM244.23,273.9c-1.31-.18-1.42-.06-1.24,1.24l1.24-1.24ZM312.72,275.77v.63c.41-.21.41-.42,0-.63ZM293.64,283.27c-.05-1.39.39-4.36-1.24-5l1.24,5ZM389.35,279.52c-.95.95,1.86,2.67,1.86.93,0-.41-1.5-1.29-1.86-.93ZM345.25,280.77v.63c.41-.21.41-.42,0-.63ZM197.95,290.15c-3.16-3.66-8.16-7.72-13.13-8.12-1.97,1.75,11.47,8.39,13.13,8.12ZM324.29,283.9s-1.32-.24-1.24.31c.98,1.71,1.95.42,1.24-.31ZM294.27,285.77c.45-.88-.4-1.67-.61-1.24-.45.88.4,1.67.61,1.24ZM318.35,285.15v.63c.41-.21.41-.42,0-.63ZM293.64,287.03c-.88-.45-1.67.4-1.24.61.88.45,1.67-.4,1.24-.61ZM294.58,289.53v.63c.41-.21.41-.42,0-.63ZM279.26,292.04c-.88-.45-1.67.4-1.24.61.88.45,1.67-.4,1.24-.61ZM341.5,293.91v.63c.41-.21.41-.42,0-.63ZM183.97,298.51c-.83-.76-4.9-3.71-5.73-3.96-.79-.24-1.25.15-.92.92.41.96,7.37,8.12,8.61,9.08,1.14.88,3.1,2.18,4.52,2.49.4-.36-5.79-7.89-6.48-8.53ZM301.15,297.66v-3.12c-.85-.43-1.5,2.85-1.24,3.12h1.24ZM212.96,297.03h-4.38c1.62,8.96,2.23,21.21-10.64,18.77,3.07,7.45-4.7,9.67-10.63,8.75l4.38,33.15c.71-.38,1.59-.45,2.26-.86,2.7-1.65,11.34-9,13.92-11.44,3.01-2.85,4.94-6.62,8.11-9.31-1.62-12.93-2.52-26-3.02-39.05ZM296.77,297.04c-1.31-.18-1.42-.06-1.24,1.24l1.24-1.24ZM383.09,297.04h-1.87v1.24h1.87v-1.24ZM348.65,304.57c-.22-.18-1.32.05-1.84-.02-.38,1.5,1.07,4.35,2.5,3.12.12-.1-.54-3-.66-3.1ZM371.83,308.92c-10.6,4.12-22.29,3.89-33.38,5.7-27.6,4.51-54.7,11.26-82.17,16.65-10.59,2.08-21.65,2.84-32.06,6.09-6.69,2.09-9.35,7.88-14.37,12.52-3.81,3.53-8.37,6.01-11.89,9.68,2.46-.54,4.88-1.24,7.38-1.69,42.49-7.59,84.99-15.75,128.03-20.2,4.49-.46,8.54-1.96,13.03-1.98,7.76-9.55,17.96-16.97,25.45-26.77ZM320.23,310.17v.63c.41-.21.41-.42,0-.63ZM322.11,316.42v.63c.41-.21.41-.42,0-.63ZM308.35,318.93v.63c.41-.21.41-.42,0-.63ZM251.74,324.55c-.11-1.3.16-4.32-1.24-5-.49,1.68-1.72,4.89,1.24,5ZM276.13,322.05l-1.24-1.24c-.18,1.31-.06,1.42,1.24,1.24ZM278.32,320.8v.63c.41-.21.41-.42,0-.63ZM246.1,322.68c-1.68-1.82-1.29,4.57-1.24,5.01.62-.11,2.3.16,2.5,0s-1.08-4.81-1.25-5ZM207.35,377.07c8.24.75,16.44,1.88,24.69,2.52,29.86,2.31,66.05.15,94.76-9.05,5.63-1.8,20.53-7.16,24.68-10.34.71-.54,4.15-3.86,4.39-4.38.38-.83-.24-8.01-.4-9.64-.37-3.83-1.37-7.75-1.8-11.6-1.53.73-1.99,3.7-3.08,4.72-1.84,1.71-3.9.54-5.98.9-13.73,2.34-27.82,2.48-41.73,4.55-20.39,3.04-40.8,7.99-61,11.55-10.47,1.85-21.1,3.05-31.59,4.69-.46.12-.85.36-1.15.73-1.36,1.7-.82,12.6-1.79,15.36ZM291.77,345.19c.67-.6-1.28-2.54-1.87-1.87-.94,1.07.82,2.81,1.87,1.87ZM356.51,345.82v.63c.41-.21.41-.42,0-.63ZM273.63,348.32s-1.32-.24-1.24.31c.98,1.71,1.95.42,1.24-.31ZM204.2,365.22c-.88-.45-1.67.4-1.24.61.88.45,1.67-.4,1.24-.61ZM348.06,372.09c.42-.78-1-2.18-1.24-1.88-.42.78,1,2.18,1.24,1.88ZM358.34,406.28c-4.28-11.41-8.85-22.76-13.09-34.2-1.74-1.64-8.63,2.87-10.99,3.5,5.34,13.46,10.9,26.9,15.69,40.59,5.51,15.73,13.67,36.9,13.8,53.16.2,25.81-2.95,52.79-3.83,78.8-.41,12.08.36,24.39-.12,36.32-.17,4.26-.38,8.7-1.41,12.81l14.54-6.41c1.36-1.17,1.4-15.02,1.44-17.7.37-27.26.55-55.14,1.22-82.54.15-6.13.33-12.6.6-18.79.48-10.95,2.21-10.14-1.56-21.53-4.81-14.55-11.07-30.1-16.28-44.01ZM329.3,377.72h-1.25s.63,1.87.63,1.87h.61s0-1.87,0-1.87ZM322.73,379.59v.63c.41-.21.41-.42,0-.63ZM318.66,380.22l-12.48,3.16c.58,4.55-1.33,9.69-1.33,14.05,0,6.41,12.39,24.96,15.8,31.79,4.3,8.62,9.47,20.85,12.59,29.94,4.98,14.54.65,35.37-.18,50.86-1.43,26.66-2.37,52.15-5.64,78.79-.53,4.28-1.22,8.6-2.26,12.79l.71,1.28c2.11-1.2,14.35-.71,14.71-2.28.66-2.82-.28-9-.05-12.43,2.71-40.69,4.33-81.12,8.21-121.95.12-2.57-1.84-4.5-2.67-6.75-3.59-9.74-7.52-20.49-10.62-29.44-5.73-16.54-10.93-33.31-16.79-49.8ZM178.55,594.75c1.4-8.01,2.72-16.06,4.45-24.02,7.53-34.64,14.77-69.2,21.05-104.04,4.54-25.19,11.57-51.45,14.98-76.34.13-.96.86-5.07.76-5.37-.39-1.29-9.77-2.65-10.47-.58-3.85,19.15-5.78,38.63-9.03,57.89-1.67,9.85-3.45,20.38-5.62,29.97-.54,2.39-1.54,8.3-2.32,10.13-.33.76-3.07.04-1.89,1.64.04.05,1.12-.2,1.27.41.24.94-.45,3.69-.72,4.84-6.99,29.54-14.61,60.27-20.11,89.97-.46,2.49-2.81,9.63-2.27,11.31.43,1.32,9.45,4.67,9.93,4.18ZM302.4,395.23c-.18-4.11,1.93-7.7,1.25-11.88-1.15.24-1.16,1.23-1.27,2.17-.26,2.15-.56,5.37-.63,7.51-.02.7-.39,2.37.65,2.21ZM298.96,384.6v.63c.41-.21.41-.42,0-.63ZM224.84,385.22c-2.07-.51-1.14,3.16-1.87,4.38l3.11-.3c-1.36-1.04-1.37-2.47-1.24-4.07ZM293.02,385.23c-4.95-.09-9.31,1.92-14.35,1.28-4.57,33.07-8.81,66.17-15.21,98.93-4.05,20.69-9.43,40.54-12.91,60.9-3.33,19.49-4.64,42.41-9.49,61.19-.27,1.04-.8,1.39-1.21,2.23l11.26.64,2.54-21.54c5.07-21.88,8-44.53,12.3-66.51,1.12-5.7,2.53-19.66,4.57-24.08.25-.53.74-.53,1.22-.46v-.61c-3.03.07.44-1.81.5-1.98.12-.33-.6-1.46-.38-2.53,5.06-25,9.7-49.98,14.47-75.04,2.07-10.84,4.65-21.58,6.68-32.4ZM296.14,386.47c.45-.88-.4-1.67-.61-1.24-.45.88.4,1.67.61,1.24ZM235.34,392.59c.55-.64,1.15-4.91,1.39-6.12-3.18,1.91-4.4,4.5-4.37,8.13.97.22.45-.84,1.05-1.28.52-.38,1.55-.28,1.93-.73ZM254.24,387.73l-15.01-.63c-.63,6.94-1.03,13.95-1.96,20.87-5.46,40.34-14.39,80.64-22,120.6-4.54,23.84-9.85,47.52-13.38,71.54l.42.58c2.14.49,16.26,4.64,16.92,4.07-.71-3.26.79-6.94,1.18-10.39,3.66-32.06,8.71-64.68,14.62-96.71,3.31-17.98,8.51-35.37,11.54-53.5,3.14-18.75,4.11-37.78,7.69-56.42ZM259.24,388.99c-1.7-1.29-1.26,2.7-1.24,3.74,1.45.15,2.79-.51,3.75-1.56-2.05-.08-2.37-2.07-2.51-2.17ZM274.25,393.35l.33-1.86c-.95.64-1.55,1.97-.33,1.86ZM226.71,394.6c.31-2.6-.92-2.6-.61,0h.61ZM302.4,395.86c-1.64-.31-1.31.36-1.24,1.87h.61s.63-1.87.63-1.87ZM298.96,400.23v.63c.41-.21.41-.42,0-.63ZM304.9,403.36c.71-.73-.27-2.01-1.24-.31-.08.54,1.2.35,1.24.31ZM300.21,402.74v.63c.41-.21.41-.42,0-.63ZM258.31,403.36v.63c.41-.21.41-.42,0-.63ZM304.59,406.49v.63c.41-.21.41-.42,0-.63ZM227.66,407.74v.63c.41-.21.41-.42,0-.63ZM308.66,415.24c.55-.49-1.53-3.61-1.87-3.12v3.13s1.87,0,1.87,0ZM231.72,413.99c.45-.88-.4-1.67-.61-1.24-.45.88.4,1.67.61,1.24ZM231.41,414.62v.63c.41-.21.41-.42,0-.63ZM346.5,415.87v.63c.41-.21.41-.42,0-.63ZM302.4,417.13c-1.79-.3-1.04.38-1.33,1.44-.71,2.55-.84,4.77.09,7.3l1.24-8.75ZM305.22,417.12v.63c.41-.21.41-.42,0-.63ZM229.84,422.12l.63-4.37c-.95.04-1.91,4.34-.63,4.37ZM311.78,421.5c.25-.81-.94-3.14-1.24-2.5-.17,1.12.04,2.19,1.24,2.5ZM228.59,429.63l.95-6.86c-1.08,1.09-1.24,3.39-1.39,4.87-.07.69-.74,2.13.44,2ZM293.02,422.76c-.88-.45-1.67.4-1.24.61.88.45,1.67-.4,1.24-.61ZM268.31,424v.63c.41-.21.41-.42,0-.63ZM217.03,426.5v.63c.41-.21.41-.42,0-.63ZM344.93,442.14l-1.69-7.37-3.3-7.64c-.23,3.48,1.75,6.4,2.81,9.38.63,1.78.2,4.65,2.18,5.63ZM257.36,489.67c2.79-20.5,8.63-40.59,10.01-61.29-1.55.64-1.9,2.87-2.22,4.34-1.21,5.64-1.86,11.96-2.95,17.69-.21,1.09-.94,2.07-1.06,2.7-.08.44,2.14.53,1.74,1.69-1.74,10.96-5.12,21.68-6.07,32.76-.06.7-.58,2.25.54,2.11ZM299.27,429.63c-1.01-1.12-1.07.21-1.23.94-.57,2.46-3.11,13.38-2.96,14.93.09.99,1.23,2.57,1.51,4.02,1.87,9.72,5.87,34.58,5.18,43.59-1.17,15.08-4.96,31.42-6.8,46.36-1.38,11.18-1.69,22.39-2.78,33.51-1,10.15-3.66,21.79-3.92,31.75-.06,2.16,5.11.09,6.95.04,1.54-.04,6.38,1.91,7.06-.38.84-19.11,5.54-37.84,7.63-56.85.71-6.42.71-12.95,1.26-19.38,1.5-17.38,5.06-40.05,2.77-56.72-2.06-14.97-6.71-21.25-12.47-34.29-.49-1.11-1.9-7.18-2.2-7.5ZM216.08,434.01c.31-2.6-.92-2.6-.61,0h.61ZM222.34,438.39c-.21-2.05,1.93-5.03-.61-6.25.64,2.04-1.84,5.16.61,6.25ZM214.83,438.38c.45-.88-.4-1.67-.61-1.24-.45.88.4,1.67.61,1.24ZM213.9,441.51v.63c.41-.21.41-.42,0-.63ZM221.71,443.39c.31-2.6-.92-2.6-.61,0h.61ZM342.75,442.14v.63c.41-.21.41-.42,0-.63ZM260.18,442.76v.63c.41-.21.41-.42,0-.63ZM345.25,443.39v.63c.41-.21.41-.42,0-.63ZM221.08,448.39c-.39-1.53,1.34-3.77-.61-4.38.32,1.05-.77,4.06.61,4.38ZM345.25,445.89v.63c.41-.21.41-.42,0-.63ZM321.79,452.14c-.19-2.34,1.62-4.49-1.24-5.63l1.24,5.63ZM286.77,459.65c.95.95,2.67-1.86.94-1.86-.41,0-1.29,1.5-.94,1.86ZM246.74,472.16c3.09-2.4,2.96-7.11,3.11-10.63-1.23.25-1.07,1.28-1.24,2.19-.54,2.88-.8,5.66-1.87,8.44ZM359.94,462.78c-2.02-.54-1.57,2.02-.31,3.12l.31-3.12ZM331.81,466.53c2.62-.78.17-3.27-.63-2.5-.41.4.79,1.91.63,2.5ZM209.83,467.78c.31-2.6-.92-2.6-.61,0h.61ZM359.63,467.16v.63c.41-.21.41-.42,0-.63ZM359.94,469.66c.45-.88-.4-1.67-.61-1.24-.45.88.4,1.67.61,1.24ZM208.89,469.03v.63c.41-.21.41-.42,0-.63ZM208.89,470.91v.63c.41-.21.41-.42,0-.63ZM207.95,481.54l1.25-8.75c-.86-.15-.95,1.12-1.08,1.72-.28,1.3-.6,3.57-.71,4.92-.06.7-.58,2.24.54,2.1ZM261.43,475.29v.63c.41-.21.41-.42,0-.63ZM331.8,482.8l-1.65,1.21-2.73,35.06,1.24-4.7c.07-10.57,1.95-21.08,3.13-31.57ZM326.16,486.55l.63-3.13c-2.07,1.19-4.28,1.95-.63,3.13ZM324.61,486.55v.63c.41-.21.41-.42,0-.63ZM221.71,487.18c-.88-.45-1.67.4-1.24.61.88.45,1.67-.4,1.24-.61ZM286.14,489.05c-.88-.45-1.67.4-1.24.61.88.45,1.67-.4,1.24-.61ZM325.54,501.55c.65-.61-1.18-2.86-1.87-.93-.47,1.32,1.64,1.14,1.87.93ZM214.2,502.18c.45-.88-.4-1.67-.61-1.24-.45.88.4,1.67.61,1.24ZM214.83,502.81c-.88-.45-1.67.4-1.24.61.88.45,1.67-.4,1.24-.61ZM211.7,515.94l1.88-11.88-2.42,9.77.55,2.11ZM353.69,504.69c-.68-.68-1.93.56-1.24,1.24s1.93-.56,1.24-1.24ZM357.13,505.94v.63c.41-.21.41-.42,0-.63ZM351.18,516.57l.63-8.13-1.41,6.39.78,1.74ZM205.44,548.46c2.03-10.59,4.65-21.12,5.63-31.89-.9-.16-.81,1.18-.94,1.86-1.73,8.59-3.1,17.23-4.84,25.81-.21,1.01-2.66,4.55.16,4.23ZM350.88,518.44v.63c.41-.21.41-.42,0-.63ZM327.42,539.71c-.58-6.72,1.43-13.33.32-20.02-1.17-.01-1,16.39-.94,17.84.03.76-.47,2.33.62,2.18ZM359.01,524.07v.63c.41-.21.41-.42,0-.63ZM350.25,524.7v.63c.41-.21.41-.42,0-.63ZM276.45,528.45v.63c.41-.21.41-.42,0-.63ZM273.62,535.95c.45-.88-.4-1.67-.61-1.24-.45.88.4,1.67.61,1.24ZM237.98,540.34h-1.87v1.24h1.87v-1.24ZM327.42,542.21c.31-2.6-.92-2.6-.61,0h.61ZM319.6,540.96v.63c.41-.21.41-.42,0-.63ZM321.48,542.84v.63c.41-.21.41-.42,0-.63ZM202.01,544.09v.63c.41-.21.41-.42,0-.63ZM234.22,548.47c-.73-.71-2.01.27-.31,1.24.54.08.35-1.2.31-1.24ZM194.19,549.1h-1.25s0,2.49,0,2.49h.61s.63-2.49.63-2.49ZM237.67,550.97v.63c.41-.21.41-.42,0-.63ZM193.57,553.47c-1.9-.29-1.03.45-1.22,1.57-1.29,7.49-3.47,14.71-4.4,22.19.97-.56,1.4-3.13,1.69-4.24,1.66-6.4,2.8-13,3.93-19.52ZM205.14,555.35v.63c.41-.21.41-.42,0-.63ZM326.17,555.35c-.15-.13-1.36.07-1.87,0,0,1.59-.82,9.86,0,10.64,2.11,1.98.66-4.29.68-4.62.05-1.06,1.53-5.69,1.18-6.01ZM231.1,573.48c1.2-.22,1.03-1.31,1.28-2.16,1.15-4.01,1.33-7.51.59-11.6-.85.35-1.06,3.22-1.17,4.14-.38,3.07-.47,6.51-.69,9.62ZM264.87,566.6l.62-4.37c-.8,0-1.77,4.37-.62,4.37ZM314.91,562.23c-.88-.45-1.67.4-1.24.61.88.45,1.67-.4,1.24-.61ZM320.54,564.11c-.88-.45-1.67.4-1.24.61.88.45,1.67-.4,1.24-.61ZM357.44,565.99c-.88-.45-1.67.4-1.24.61.88.45,1.67-.4,1.24-.61ZM264.25,570.98l-.31-1.87c-.66.57-1.14.95-.94,1.87h1.24ZM354.01,569.73v.63c.41-.21.41-.42,0-.63ZM357.44,570.98c.45-.88-.4-1.67-.61-1.24-.45.88.4,1.67.61,1.24ZM263.31,572.23v.63c.41-.21.41-.42,0-.63ZM230.79,579.11v.63c.41-.21.41-.42,0-.63ZM262.06,579.11v.63c.41-.21.41-.42,0-.63ZM166.99,579.74v.63c.41-.21.41-.42,0-.63ZM234.54,580.99v.63c.41-.21.41-.42,0-.63ZM375.27,584.12v.63c.41-.21.41-.42,0-.63ZM191.07,588.5c-1.88-.31-1.01.45-1.27,1.51-.73,3.02-1.06,5.59-2.48,8.49l7.5.62c-.45-1.45-2.41-.2-3.32-2.03-1.07-2.17-1.55-6.35-.43-8.59ZM287.08,592.87v.63c.41-.21.41-.42,0-.63ZM259.24,599.13c-.31-1.09.75-4.13-.61-4.37-.06,1.58-1.52,3.61.61,4.37ZM345.25,595.38v.63c.41-.21.41-.42,0-.63ZM354.32,597.25c.06.07,1.54.4,1.87.32-1.06-.62-.9-2.34-1.86-2.19.07.5-.15,1.72,0,1.88ZM220.78,596.63v.63c.41-.21.41-.42,0-.63ZM241.73,597.87c.45-.88-.4-1.67-.61-1.24-.45.88.4,1.67.61,1.24ZM314.29,599.13l-.63-1.24c.59,1.75,1.36,4.86-1.09,5.54-.2.06-5.49-.5-3.3,1.33.24.2,6.03-.4,6.25-.62.37-.36-.66-5.06,0-6.25-1.27-.14-.01,1.53-1.24,1.25ZM221.4,599.13v.63c.41-.21.41-.42,0-.63ZM345.87,599.75v.63c.41-.21.41-.42,0-.63ZM224.84,606v-1.87s-.61,0-.61,0l-.63,1.87h1.25ZM235.47,609.14l-1.23-3.13-1.26,2.49,2.5.63ZM199.2,608.51c-1.17-.16-2.16,0-2.5,1.24h2.5s0-1.24,0-1.24ZM335.55,609.77c-.9-.71-2.42,1.27-1.87,2.5.77,0,1.99-2.4,1.87-2.5ZM314.29,612.27c-1.31-.18-1.42-.06-1.24,1.24l1.24-1.24ZM312.4,621.64c.31-2.6-.92-2.6-.61,0h.61ZM343.37,621.02v.63c.41-.21.41-.42,0-.63ZM324.29,627.9c.71-.73-.27-2.01-1.24-.31-.08.54,1.2.35,1.24.31ZM360.57,635.4c-.21-.9-1.01-1.43-1.87-1.24v1.24s1.87,0,1.87,0ZM174.18,639.77c-1.16-2.63-2.6-.17-3.74.95l3.74-.95Z"/>
      <path d="M119.54,590.22c-.08.32-.88,3.03-1.21,4.03-4.5,13.57-9.75,22.12-23.03,28.27-1.53.71-3.79.61-4.91,1.35-.92.6-.91,2.16-2.36,2.65-4.07,1.37-11.95.93-16.67,1.48-20.4,2.39-40.61,5.13-61.21,1.61-7.6-1.3-16.53-4.19-3.64-8.3,8.9-1.59,17.87-2.39,26.93-2.79-.88-1.89-3.48-1.84-5.15-2.66-5.16-2.53-19.35-10.28-22.7-14.2-1.31-1.53-2.89-3.26-2.83-5.29.09-3.02,1.65-12.14,5.82-11.5,2.84.44,8.87,3.53,12.29,4.49,14.9,4.17,26.2,5.36,41.49,2.12,12.77-2.71,39.01-13.04,44.38-25.67,2.48-5.83,1.7-11,2.55-16.84.25-1.73,1.65-4.52,1.67-5.18.05-1.21-5.82-11.07-7.15-12.21-1.69-1.44-4.61-1.38-3.98-4.53.84-4.24,16.07-8.62,19.58-4.19,2.95,3.73,6.52,20.2,5.22,24.55-.34,1.15-2.07,1.77-2.24,2.7s.77,2.25.77,3.27c.06,10.63-1.23,26.64-3.63,36.85ZM120.33,548.4c-1.61-5.08-1.48-10.54-2.61-15.71-.25-1.13-1.61-6.23-2.01-6.75-1.17-1.48-6.58.99-8.44,1.27,2.35,4.82,7.32,12.15,6.66,17.71-.74,6.2-.4,11.55-1.04,17.61-.24,2.29-1.41,6.02-2.6,8.03-4.34,7.34-15.29,15.83-23.35,18.61-1.41.49-2.05.4-3.44-.04-.14,1.26,1.54.02,1.24,1.24-14.87,6.74-32,10.64-48.43,8.72l-26.89-7.51c-2.4,5.16-.52,6.91,3.45,9.68,18.47,12.88,40.58,18.34,62.81,18.5,14.31.1,26.42-2.43,33.26-16.14,7.14-14.31,8.22-32.04,8.96-47.96.12-2.66-2.13-5.84,2.44-7.26ZM115.7,587.24v.63c.41-.21.41-.42,0-.63ZM106.31,614.14v.63c.41-.21.41-.42,0-.63ZM31.88,619.14v.63c.41-.21.41-.42,0-.63Z"/>
      <path d="M471.91,584.74c5.97.2,15.04.03,20.23,3.24,14.07,8.7,8.86,32.62-2.08,42.12-1.49,1.29-5.36,3.24-6.25,4.39-.8,1.03-.51,2.26-1.26,3.12-8.26,9.29-49.67,4.3-60.96.26-6.55-2.34-2.91-6.23,1.72-8.22,5.64-2.42,11.93-2.91,17.95-2.38-1.91-5.13-4.99-9.82-5.58-15.4-.72-6.71,3.47-25.84,11.54-27.15,1.55-.25.39,1.46,1.55,1.27-1.47-2.51.64-2.02,2.92-2.39,4.88-.81,9.09.3,13.92.47.89-5.04,8.37-13.71,13.64-13.55,2.6.08,1.68,2.51.92,4.03-1.9,3.78-6.3,6.37-8.25,10.19ZM453.62,589.28c-7.26.99-10.79,8.12-12.21,14.68-2.22,10.3,4.34,26.13,15.33,28.78,10.8,2.61,26.53-.84,33.57-9.9,5.47-7.04,9.47-26.68-1.37-30.43-2.04-.71-8.17-1.35-10.49-1.44s-5.87.99-8.55.53c-2.1-.36-3.93-2.04-5.84-2.34-2.45-.39-7.89-.22-10.43.12ZM440.95,596v.63c.41-.21.41-.42,0-.63ZM441.57,627.91c-.62.44.34.86.64,1.23.62-.41-.29-.83-.64-1.23ZM425.94,631.65v.63c.41-.21.41-.42,0-.63ZM448.14,634.77l-1.56-1.86c-1.71,1.18-.23,2.1,1.56,1.86Z"/>
    </g>
  </g>
</svg>