<?xml version="1.0" encoding="UTF-8"?>
<svg fill="#C11209" id="Layer_2" data-name="Layer 2" xmlns="http://www.w3.org/2000/svg" viewBox="0 0 496.16 649.11">
  <g id="Layer_1-2" data-name="Layer 1">
    <g>
      <path d="M148.3,17.58c-.1.13.38.72.15,1.03-.3-.25-.8-.47-1.17-.38-1.85.45-8.81,5.03-9.5,6.84-1.62,4.24,4.15,4.04,4.64,5.65.08.27-1,5.25-1.22,5.43-.5.4-7.65-.95-9.12-1.03-5.55-.33-20.17-1.37-21.38,5.62-1.61,9.32,21.19,12.19,27.77,14.17-.62,1.92.23,7.69-.99,8.53-1.39.96-2.35-1.01-1.25,2.61-2.23.57-.84-1.96-1.24-2.34-.36-.34-8.88-.27-10.32-.25-1.72.02-6.93-.02-8.04.25-.64.16-.14,1.07-.72,1.19-1.41.28-.71-.74-1.06-1.03-1.28-1.08-7.96,2.11-9.9,1.96-5.44-.42-18.73-5.94-25.01-7.66-14.22-3.89-28.75-7.26-43.15-10.54-10.24-2.33-19.28-5.21-30.27-3.76-4.99.66-7.96,5.07-5.82,9.46,2.81,5.79,14.93,2.37,20.16,2.21,6.69-.21,13.03,3.12,19.42,4.65,4.57,1.09,9.66,1.56,14.05,2.66,13.7,3.41,27,8.14,40.66,11.73l.52.62c-2.46,8.07.99,14.94,2.74,22.65.74,1.69,7.42,2.82,9.71,3.21,14.11,2.38,29.01,2.66,43.29,3.68-3.46,2.61-7.77,4.28-11.47,6.53-11.41,6.93-29.8,19.29-36.3,30.42-1.07,1.83-2.14,6.24-3.07,7.37-.66.79-2.88,1.19-3.87,1.94-17.7,13.37-38.93,30.24-54.42,45.66-1.62,1.61-7.6,8.9-8.57,10.72-3.27,6.2-1.77,11.39,6.55,10.22,10.15-1.42,9.39-7.2,12.71-13.86,3.85-7.73,22.48-20.25,29.98-26.97,5.4-4.84,11.44-10.49,16.58-15.52,1.24-1.21.92-3.43,3.7-3.22,2.26,5.11,3.7,10.58,6.17,15.61,2.59,5.26,6.76,9.67,8.24,15.41-4.62.58-9.33,1.05-13.9,1.92-5.24,1-13.21,2.24-18.03,3.63-1.28.37-1.24,1.43-1.49,1.41-.94-.08-1.42-.68-3-.41-2.61.44-9.8,2.58-6.79,6.1.97,1.13,3.57.81,4.27,2.36.16.36.2,4.41.21,5.22.18,9.61.02,22.43.64,33.28,1.88,33.06,8.71,65.78,11.81,98.44.77,8.06.53,16.23,1.58,24.28,1.19,2.65,15.61,8.48,19.06,9.68,31.13,10.82,88.02,6.29,120.23-1.03,5.5-1.25,11.2-2.33,16.1-5.12.04.6-.1,1.38.14,1.91.81,1.78,10.27,6.21,13,5.7-2.26,8.85-3.23,18.19-3.65,27.31-.26,5.46-.08,11.05,1.25,16.2.27,1.07,2.32,1.54,3.17,2.91,6.76,10.85,10.5,27.59,16.92,39.2,1.82,3.3,4.93,5.86,6.11,9.49l-23.23,16.39-18.11,10.02c-.83.49.22,1.67,0,1.96-.68.89-12.99,7.3-14.96,8.58-.92.6-1.15,1.8-1.36,1.93-.12.07-1.25-.55-2.62.16-6.93,3.59-14.12,9.13-20.85,13.31-13.53,8.4-26.77,17.35-40.07,25.88-3.05,1.96-20.4,11.54-21.27,13.01-.38.64.03,1.72-.28,2.36-.47.98-1.64,1.43-1.77,2.51-.2,1.7,8.64,13.18,10.4,15.45,4.47,5.78,10.11,11.13,14.28,17.08.41.58,1.4,1.51.38,2.02-.71.36-5.17.78-6.08.44-1.13-.42-2.34-2.01-3.58-2.55-16.87-7.41-33.39-16.04-49.59-25-2.73-1.48-8.86-.73-6.91,2.93,5.13,6.1,10.89,11.7,16.1,17.74,9.03,10.46,20.29,22.48,27.92,33.58,3.95,5.74,7.02,12.11,11.3,17.68.63.35,4.16,1.08,4.97,1.09,3.26.07,12.87-8.16,16.11-10.26,4.26-2.76,9.66-5.03,13.76-8.41,1.22.23,8.36,10.73,9.89,12.47.91,1.04,5.3,5.47,6.09,5.98,7.83,5.03,12.6-6.1,16.99-10.51,11.4-11.48,31.41-29.37,44.63-38.43,11.93-8.18,21.85-15.73,33.07-24.37,9.54-7.35,19.72-13.92,29.79-20.7,4.77,8.02,9.42,16.89,14.76,24.55,6.59,9.45,12.47,15.2,22.75,21.45,17.3,10.51,36.22,19.63,54.41,29.27,1.57,4.15,4.26,2.69,7.86,4.36,3.47-.05,19.33-21.62,22.8-24.59-.05,2.65,3.3,10.33,1.93,12.04l-15.73,9.87c-6.79,2.49-13.99,5.48-19.92,9.45-2.38,1.6-8.13,5.93-3.17,8.16,2.81,1.26,11.2-1.58,14.78-1.98,10.22-1.14,20.89-.75,31.09-.88,1.84-.02,8.65-.22,9.79-.67,4.07-1.6,7.39-14.73,10.64-18.15l-1.24-.87c2.57.55,1.95-1.74,2.82-3.51,2.44-4.98,5.03-10.18,7.16-13.91,1.7-2.99,6.13-9.03,5.25-12.31-1.12-4.2-7.38-6.47-10.54-8.91-2.97-2.3-5.86-5.56-8.95-7.9,1.71-1.53,2.85-4.39,4.25-5.87,1.66-1.77,4.09-2.83,5.9-5.02,2.67-3.22,4.23-7.63,7.42-10.67,2.61-6.09-11.63-9.48-15.62-11.42-9.2-4.49-16.41-8.68-26.58-12-7.75-2.53-15.89-4.05-23.64-6.57-2.14-1.97-3.46-4.38-4.97-6.58-7.25-10.57-13.07-22.05-21.8-31.62-.49-2.07,2.02-3.74,2.84-5.85,3.68-9.49,5.92-28.05,3.75-37.75-.16-.73-.58-1.34-1.06-1.92,8.64-3.66,12.79-2.29,9.46-12.37-2.85-8.61-6.2-18.34-8.08-27.58-.44-2.17-.43-4.92-.77-7.18.39-.43,4.12,2.5,4.67,2.94,15.23,12.22,14.83,24.18,21.13,39.94,3.54,8.86,3.66.5,3.61-3.98-.17-13.78-9.57-32.13-21.25-40.39-1.92-1.36-4.82-1.86-6.28-3.78,6.98-1.09,14.11-3.47,19.68-7.63,3.2-2.39,10.64-10.49,12.02-13.92,4.15-10.29-9.65-7.34-15.24-3.73l-8.96,5.95c4.04-7.13,10.79-17.03,11.63-25.17.11-1.09-.7-6.93-1.13-7.49-1.29-1.68-5.86-.37-7.58.55-5.58,3.01-11.8,10.85-13.93,16.24l-3.99,6.5c-1.86-11.86-4.8-23.43-8.75-34.81l-1.89.26c-.17-1.09,1.37.02,1.26-1.4-.14-1.88-2.31-4.28-2.42-5.43-.07-.76,6.33-6.74,7.4-8.1,11.86-15.12,6.59-37.32-6.21-50.4-.83-.85-2.29-.51-1.89-1.69,10.49-7.96,14.55-18.56,19.41-29.9.5-1.17,2.09-6.94,2.48-7.3.31-.29,1.42-.36,1.15.78-1.04,4.33-4.41,10.12,1.52,12.81s12.47-.03,15.35-5.2c.97-1.75,1.15-4.9,1.47-5.36.18-.26,4.82-2.19,5.84-3.02.74-.61,4.33-4.49,4.95-5.32,4.77-6.35,6.89-21.13-.24-26.63-5.43-4.19-10.21.51-13.79-3.77,2.61,1.25,1.95-.57,3.02-2.74,6.1-12.46,12.48-24.6,18.3-37.2.69-1.5,2.76-1.3,1.54-5.17-1.63-5.16-17.83-16.56-23.33-18.56-4.68-1.7-13.79-1.33-15.74-2.19-1.61-.71-6.49-6.29-8.66-7.89-5.13-3.79-13.2-7.72-19.36-9.85-4.42-1.52-11.05-2.29-15.01-4.1-3.43-1.57-8.21-5.89-12.26-7.85-3.45-1.67-11.86-5.2-15.43-3.69-.27.11-4.21,3.4-4.41,3.64-4.38,5.4-6.94,15.28-9.32,21.1-.32.78-1.15,2.78-1.29,3.38-.12.54,1.59-.13,1.23.85-.46-.06-.98,0-1.23.43-.9,1.55-1.78,7.39-2.81,8.38-2.05,1.99-6.77-2.76-10.96-.9-3.65,1.62-2.65,18.9-1.88,22.54-7.52-.13-12.04,2.7-15.12,8.97s-7.14,21.3-6.86,28.24c.01.3-1.04.21-1.12.69-.95,5.69-1.77,10.84,1.31,16.17.59,1.03,4.11,4.46,4.13,4.77.05.61-5.74,8.77-6.64,10.63-.55,1.14-3.31,7.97-3.14,8.58.29,1.08,2.26,1.97,3.4,2.13,2.82.4,17.11.38,17.83.87,1.6,4.58,1.73,10.52,4.21,14.8,1.72,2.97,6.74,5.96,8.26,9.54-1.76-.03-3.54.09-5.31,0-1.57-.07-3.74-1.62-3.45.58h-.61c.05-.39.1-1.05-.41-1.18-2.13-.53-8.38.12-11.21.02-3.69-.13-7.25-.4-10.11-1.13-4.68-1.2-7.27.49-6.42,5.23-3.26.35-5.45-2.64-8.72-2.37l.6-57.36c4.06,1.25,10.27.59,4.96-3.77-5.03-4.14-23.1-6.46-30.32-7.93-.58-.12-2.11.33-1.53-.88s8.71-6.6,10.41-8.11c1.32-1.17,3.04-2.7,4.3-3.88,9.76-9.19,18.08-20.95,27.25-30.69,1.87-6.24-1.04-11.06-5.07-15.73-1.82-2.1-8.24-7.04-9.1-8.66-.44-.83.01-1.27.43-1.94,6.73-7.51,14.36-14.34,21.17-21.77,11.85-12.95,22.86-29.37,37.58-39.77,7.09-5.01,20.36-11.63,22.3-20.11.65-2.86,1.51-5.25-1.47-7.08-2.58-1.59-4.4-1.31-7.1-.36-4.14,1.46-12.22,5.93-16.22,8.23-14.03,8.09-18.28,15.35-28.5,26.6-9.58,10.56-19.17,21.37-28.45,31.89-4.1,4.64-8.2,9.31-12.52,13.77.07-1.7,1.93-2.18,2.36-3.93.93-3.7,1.42-16.04-1.45-18.89l-17.93-7.83c-.95-.92-4.09.35-4.25.2-.14-.14.33-1.37-.37-1.82-1.46-.95-11.62-1.75-12.13-2.3l1.95-14.54c3.97-.54,8.54.87,12.44.24,5.7-.92,12.96-4.16,10.13-10.72-3.24-7.51-14.75-7.55-21.77-9.49.37-1.65-.26-4.63.36-5.99.53-1.15,3.64-1.48,3.81-4.28.17-2.98-4.86-7.41-7.63-8.72-7.36-3.47-16.17-4.41-24.27-5.09-.21-1.82-.95-3.42-1.81-5.03-3.19-5.97-9.37-11.52-17.01-8.67-.82.31-4.16,2.14-4.66,2.66-1.45,1.48-3.32,7.43-4.1,7.87-1.53.86-7.73,1.19-10.02,1.74-1.91.46-13.6,3.81-14.18,4.53ZM179.39,10.42c2.68-9.5,13.42-4.48,15,2.93l-15-2.93ZM142.48,25.07c.1-.1,1.93,0,2.95-.46,3.12-1.4,5.55-3.47,9.24-4.83,2.42-.89,16.78-4.91,17.84-3.5.33.44-2.24,5.35,1.7,6.35,4.37,1.11,3.55-5.39,3.93-5.76.87-.84,16.15,2.26,18.76,1.75v5.27c2.43.1,3.08-4.03,3.5-4.14,1.73-.45,14.95,2.4,17.27,3.13.81.25,11.23,4.12,9.24,5.69-17.61,1.46-35.28.19-52.84-.47-7.22-.27-15.02.11-22.29-.43-1.4-.1-6.46-1.86-7.11-1.82-.47.03-1.65,1.53-2.18.97-.06-.07-.07-1.69,0-1.75ZM151.88,19.21c-.45-.82.4-1.56.61-1.17.45.82-.4,1.56-.61,1.17ZM221.6,30.34v.59c-.41-.2-.41-.39,0-.59ZM212.84,33.26v.59c-.41-.2-.41-.39,0-.59ZM211.59,33.26v.59c-.41-.2-.41-.39,0-.59ZM139.36,48.49c-3.08-.98-22.46-4.43-22.5-6.74-.02-1.03,5.49-1.98,6.55-2.06,1.71-.13,15.91-.17,16.59.28,1.4.91-.69,6.79-.65,8.52ZM159.06,41.46v.59c-.41-.2-.41-.39,0-.59ZM238.48,52.59c-2.94.39-7.45,0-10.63,0-1.54,0-.38-6.99.05-7.06,5.79-.67,10.25,2.19,15.26,4.17.78,1.08-3.81,2.78-4.68,2.89ZM218.47,46.73v.59c-.41-.2-.41-.39,0-.59ZM249.11,51.42v.59c-.41-.2-.41-.39,0-.59ZM180.01,60.79c.88-.42,1.67.37,1.24.57-.88.42-1.67-.37-1.24-.57ZM58.38,62.54v.59c-.41-.2-.41-.39,0-.59ZM150.62,64.3c-.45-.82.4-1.56.61-1.17.45.82-.4,1.56-.61,1.17ZM163.13,64.3c1.17-.15,2.16,0,2.5,1.16h-2.5s0-1.16,0-1.16ZM109.34,67.23c.92-.95,24.08,1.31,27.48.61l.03,7.59c-9.57-.97-19.41-.89-28.76-3.52,1.05-.99,1.07-4.5,1.25-4.68ZM194.4,67.82c1.37-.04,3.27-.33,3.75,1.16l-3.75-.59v-.57ZM256.93,88.31c-.06,4.05.02,16.11-4.22,18s-13.22-.57-18.03-.99c-37.06-3.2-74.22-4.85-111.26-8.24-2.62-.24-19.37-2.01-20.04-2.9-1.44-6.33-5.41-12.32-1.87-18.66,13.78,4.95,28.77,3.18,43.2,3.98,32.26,1.78,64.07,7.19,96.29,9.39,5.37.37,10.75.74,15.94-.58ZM223.79,83.62c.36-1.12.42-5.67,1.57-5.85l16.1,4.24,6.71,3.37-24.38-1.75ZM254.43,84.8c.68-.64,1.93.53,1.24,1.16s-1.93-.53-1.24-1.16ZM338.92,93.62c8.49.12,15.8,4.53,23.02,8.23-2.43,5.8-1.81,12.67,3.85,16.57,2.97,2.05,6.65,3.54,10.14,1.54,4.94-2.83.4-10.36-1.13-14.07,1.8,2.06,4.79,1.75,7.18,2.64,6.89,2.56,15.06,6.55,20.66,11.11,2.03,1.65,3.37,3.85,5.61,5.33-3.84,4.41-4.96,9.37-1.77,14.5,2.08,3.34,9.6,7.79,13.06,4.2,4.56-4.74-1.07-12.35-4.39-16.41,6.83-1.09,13.66,2.29,19.14,5.8,2.43,1.56,12.01,9.11,12.46,11.43l-20.35,42.79-33.76-16.98c3.34,8.06,13.45,11.01,20.82,15.34,2.09,1.22,11.27,6.12,10.79,8.14-.41,1.73-4.6,3.86-4.09,6.39,6.15-3.41,17.92-9.77,19.86,1.02,1.5,8.34-2.19,15.99-9.55,20.59-2.6-2.51-3.91-6.13-8.44-5.21l3.64,5.1c.99,3.57-7.84,1.43-9.7-.02-.93-.73-2.94-4.58-5.22-3.08-.33.22-2.83,5.74-3.36,6.83-3.41,6.99-6.41,14.42-10.49,21.21-1.35,2.15-9.02,11.57-10.95,12.03-1.31.31-10.9-3.98-13.78-4.46-6.24-1.05-15.35.16-21.44,1.91-4.76,1.37-12.05,5.05-16.72,5.46-1.55.14-4.83-2.19-6.35-3.16-5.75-3.66-12.04-11.56-15.08-17.5-1.77-3.45-2.22-7.33-3.73-10.84,2.07-2.45,7.97,3.47,9.37,4.98,1.65,1.8,2.92,4.35,4.7,6.14,1.47.7,7.01,7.79,8.08,7.59.88-.17,1.8-2.03,1.93-2.89.86-2.27,1.46-18.64,2.19-19.33.25-.24,4.95.54,6.9-1.44,1.47-1.5-1.39-2.67-2.99-3.11-3.12-.85-7.34-.83-10.8-1.6-7.28-1.61-28.7-13.1-33.45-18.45-1.46-1.64-2.96-4.81-3.32-6.89-.56-3.22,3.3-19.06,4.44-23.1.88-3.13,4.67-14.67,6.67-16.44.96-.85,6.22-1.65,7.76-1.55,10.88.72,31.31,11.26,40.1,17.55,5.2,3.72,7.07,8.39,14.95,7.57,1.21-.13,2.28-.88,3.35-1.01,4.63-.59,8.21-1.12,12.05-2.12,3.46-.9,12.53-7.37,11.76-11.02-.07-.34-1.44-2.73-1.75-3.09-2.42-2.83-22.15-11.1-27.05-13.32-8.72-3.96-16.56-7.44-25.07-12.25-3.73-2.11-6.91-5.17-11.42-6.31l11.69-36.28ZM146.55,101.77v.59c-.41-.2-.41-.39,0-.59ZM373.25,115.82c-6.73-.12-8.33-5.75-8.12-11.12,4.35,1.98,7.55,6.63,8.12,11.12ZM185.02,107.05l48.77,4.38-35.33,27.81-13.44-32.19ZM169.6,117.79c.6-.58,1.58-.92,2.31-1.63,1.01-.99,7.02-8.83,8.09-7.94l16.96,50.69c-.85,2.05-4.33,2.23-6.05,4.31-1.45,1.76.07,2.62-2.74,2.07-5.33,3.55-10.43,8.2-15.7,11.7-6.78,4.5-11.3,7.2-19.73,7.88-4.47.36-6.95.68-11.26,1.16-5.45.61-11.1.71-16.54,1.51l-17.47-30.14c1.3-.13,2.66-.33,3.9-.75,4.45-1.5,9.35-2.73,14.03-5.01,16.38-7.99,31.41-21.62,44.2-33.86ZM190.25,171.68c11.94-8.72,23.01-16.49,33.87-26.56,9.87-9.15,19.59-19.21,27.51-29.88,4.27,3.01,8.72,5.84,12.44,9.43,2.98,2.88,8.54,8.79,11,11.95.96,1.23,2.9,4.14,2.21,5.54-3.68,3.99-7.62,7.78-11.35,11.73-5.31,5.61-12.2,13.01-18.68,18.77-4.24,3.76-13.71,11.31-19.41,11.14-8.42-.25-17.42-1.78-26.22-1.81-8.7-.03-17.41.89-25.99.6.56-1.43,3.04-1.43,3.97-2.3,2.85-2.69,6.88-5.84,10.65-8.59ZM214.72,126.95v.59c-.41-.2-.41-.39,0-.59ZM410.78,128.71c1.15-.25,1.21.36,1.77.97,2.79,3.04,5.58,7.2,4.47,11.33-6.68-.68-9.73-7-6.24-12.3ZM315.72,130.47c.78-.39,2.18.94,1.88,1.16-.78.39-2.18-.94-1.88-1.16ZM319.48,135.74c1.17-.9,1.97,1.09.3,1.75-1.48.58-.41-1.66-.3-1.75ZM341.36,144.52c.68-.64,1.93.53,1.24,1.16s-1.93-.53-1.24-1.16ZM107.46,151.54c-3.06-.49-2.21-1.59-1.24-3.51l1.24,3.51ZM316.03,149.2v.59c-.41-.2-.41-.39,0-.59ZM350.11,166.18l-11.24-7.32c3.24-3.47,7.68-5.01,10.31-9.07.15,5.61-1.04,10.84.93,16.39ZM445.17,154.47c-.45-.82.4-1.56.61-1.17.45.82-.4,1.56-.61,1.17ZM98.72,155.64c-.45-.82.4-1.56.61-1.17.45.82-.4,1.56-.61,1.17ZM443.6,155.65v.59c-.41-.2-.41-.39,0-.59ZM92.15,156.82v.59c-.41-.2-.41-.39,0-.59ZM376.39,162.67l-1.25-4.09c1.47.26,2.96,3.32,1.25,4.09ZM382.63,162.09l6.25,2.63c-.99.99-2.19,2.05-3.74,2.05.31-1.94-1.99-2.69-1.4-4.01l-1.11-.67ZM375.13,171.45c-.3-.2-.8-3.37-.63-4.09l2.48,3.22c-.37.5-1.3,1.24-1.86.88ZM357.61,167.94l.32,4.09c-1.6-1.01-2.54-3.13-.32-4.09ZM189.7,168.53v.59c-.41-.2-.41-.39,0-.59ZM368.1,171.9c.61-.6.66-1.96.78-2.78.7-.03,1.69,2.8,1.59,2.93-1.07,1.41-4.29,1.21-5.97,1.16-.48-2.28,1.98.29,3.6-1.31ZM176.26,179.66c.88-.42,1.67.37,1.24.57-.88.42-1.67-.37-1.24-.57ZM418.59,184.92v.59c-.41-.2-.41-.39,0-.59ZM107.58,195.61c.37-.15,1.26.5,1.99.38,39.29-6.45,84.86-9.71,124.49-4.59,9.95,1.29,19.72,4.02,29.61,5.65,1.3.21,2.59.2,3.9.16-.83,11.2-2.45,22.44-3.16,33.64-1.34,21.28-1.34,42.81-2.47,63.86-.26,4.87-.52,9.74-.64,14.62,0,.71-.47,1.03-.91,1.49-.73.78-10.03,7.39-10.79,7.5-1.39.21-6.31-2.65-7.88-3.52-16.58-9.15-32.79-20.8-51.41-25.69-.08-.42.5-.93-.02-1.16-3.79-1.69-10.45-2.81-14.66-3.51,4.19-5.12,7.13-11.16,8.48-17.53.55-2.61,1.47-8.28,1.56-10.85.21-5.57-2.55-11.66-9.59-10.14-.55.12-8.31,5.82-9,6.49-.83.81-.99,2.97-2.69,3.33-1.48-6.95-10.45-33.31-17.53-35.38s-10.33,5.76-11.85,10.52c-.13.39.12,1.36-.94.85-.68-.33-2.51-3.88-3.46-4.96-13.14-14.77-21.5-4.19-17.5,10.81-3.19-.28-4.74-2.89-8.24-3.69-5.55-1.27-10.38.43-10.31,6.45.03,2.2,4.1,11.51,5.31,14.04,2.6,5.44,6.04,11.1,10.43,15.41,16.64,16.33,37.17,30.37,56.28,43.92,3.74,2.65,8.08,7.97,11.9,11.11,11.71,9.63,26.97,20.85,40.13,28.59,8.37,4.93,17.85,8.75,25.83,14.16-9.46,1.21-18.97,3.1-28.46,4.1-8.51.89-17.18.86-25.64,1.44-27.94,1.92-53.88,5.01-80.78-5.43-1.82-.71-10.08-4.11-10.77-5.14l-16.84-160.33c.3-1.27,5.28-2.08,6.75-2.42,6.33-1.43,13.44-2.04,18.9-4.23ZM292.26,213.61v.59c-.41-.2-.41-.39,0-.59ZM145.93,222.4v.59c-.41-.2-.41-.39,0-.59ZM123.36,247.92c-1.32-1.58-3.99-3.72-4.69-5.28-1.07-2.42-3.15-15.72-1.78-17.51,2.37-3.12,4.74-.45,6.85.98,2.69,1.83,8.43,9.01,9.94,12.49,1.01,2.32.63,5.81,1.34,8.65.69,2.77,4.37,13.02,7.29,13.71,4.23,1.01,3.75-5.82,3.13-8.23-.93-3.61-3.53-6.48-4.77-9.13-2.44-5.2-2.75-10.5-.17-15.75,2.54-5.16,4.4-4.17,7.39-.26,3.63,4.75,14.21,29.3,13.23,34.19-.63,3.14-7.78,16.16.81,15.4,5.89-.52,3.81-10.86,4.31-14.69.61-4.68,4.68-7.74,8.19-10.5,1.2-.94,1.09-2.63,3.41-2.4,2.19.22,3.12,2.38,3.21,4.22.25,5.18-2.04,15.68-3.71,20.82-.84,2.58-5.42,9.36-3.64,11.9s8.02,3.43,10.82,4.55c22.36,8.97,43.11,20.6,64.13,31.94,2.02.38,6.43-2.07,8.25-3.18,9.01-5.48,17.93-13.09,26.12-18.82,3.33-2.33,21.73-15.79,24.17-15.44,7.71,8.89,16.48,18.24,17.91,30.21.25,2.13.56,10.97-.3,12.59-5.64,3.08-11.15,6.36-16.77,9.47-4.97,2.75-10.38,5.72-14.95,8.28-6.37,3.57-21.94,10.49-26.04,15.41-1.85,2.22-1.87,6.97-2.59,7.53-.46.36-3.85,1.48-4.55,1.37-1.18-.17-3.1-1.96-4.94-2.45-1.58-.42-3.2-.16-4.45-.52-.53-.15-7.18-5.49-8.73-6.47-12.34-7.83-25.38-14.67-37.33-23.02-15.72-10.99-29.34-24.27-44.4-35.72-14.97-11.38-31.01-21.4-44.69-34.28-5.73-5.4-13.02-17.82-14.96-25.22-1.41-5.41.78-5.32,5.23-3.15,13,6.34,11.61,18.15,18.84,28.62,6.53,9.46,8.99,2.13,7.86-5.6-.89-6.04-5.17-10.23-8.96-14.74ZM415.15,226.5c1.76.44,2.89,1.32,4.85,1.6,4.09.58,9.26-1.47,4.52,3.96-2.11,2.42-5.85,3.5-8.95,1.94-2.71-1.37.08-5.27-.43-7.49ZM326.35,227.67c-.45-.82.4-1.56.61-1.17.45.82-.4,1.56-.61,1.17ZM321.97,229.42l1.24-1.17c.18,1.22.06,1.33-1.24,1.17ZM175.32,248.75v.59c-.41-.2-.41-.39,0-.59ZM128.11,266.9c-1.5-4.39-4.91-8.28-5.63-12.88,3.21,2.57,5.96,6.82,6.27,10.82.05.62.39,2.22-.64,2.06ZM362.31,254.6v.59c-.41-.2-.41-.39,0-.59ZM285.7,257.54c12.97,1.63,31.08-4.62,40.65,5.84-5.41.69-10.69,3.32-15.44,5.75-1.99,1.02-9.96,5.43-11.13,6.56-3.4,3.25,1.15,4.34,3.05,6.44.37.4.64.28.38,1.16l-12.5,5.86-5-31.61ZM366.03,258.99c3.1-.15,14.28,2.2,17.16,3.57,9.53,4.54,15.9,18.45,16.2,28.05.19,5.97-4.69,19.23-8.92,23.74-6.4,6.82-23.34,14.88-32.43,18.82-7.81,3.39-15.53,5.57-23.88,7.49-.62-.44-.7-.48-.69-1.2.04-2.08,1.3-4.69,1.57-6.75,1.49-11.37-1.45-23.61-5.71-34.35-3.89-9.81-11-16.78-21.1-21.22,10.46-8.31,24.19-10.12,37.03-13.33,6.87-1.72,13.45-4.48,20.78-4.83ZM267.57,304.96c2.08-3.86.5-44.1,2.85-44.43,1.58-.23,5.62,1.79,7.78,1.11-.83,4.12-.34,8.32.07,12.52.68,6.92,1.86,14.56,4.23,21.09-1.84.73-14.03,10.62-14.93,9.72ZM165.31,266.31v.59c-.41-.2-.41-.39,0-.59ZM126.23,266.9s1.32-.22,1.24.29c-.98,1.6-1.95.39-1.24-.29ZM161.88,269.25h1.25s-.63,2.34-.63,2.34h-.61s0-2.34,0-2.34ZM164.06,270.41v.59c-.41-.2-.41-.39,0-.59ZM311.97,271.01c.88-.42,1.67.37,1.24.57-.88.42-1.67-.37-1.24-.57ZM306.65,273.93v.59c-.41-.2-.41-.39,0-.59ZM296.64,286.81v.59c-.41-.2-.41-.39,0-.59ZM85.59,289.15c-.45-.82.4-1.56.61-1.17.45.82-.4,1.56-.61,1.17ZM215.34,303.79v.59c-.41-.2-.41-.39,0-.59ZM229.73,308.47v.59c-.41-.2-.41-.39,0-.59ZM386.15,324.04c.22-.15.42-1.9,1.16-.34.52,1.11,1.03,3.26,1.38,4.56,2.83,10.4,6.27,23.89,7.62,34.44.86,6.73.98,14.74-.56,21.31-1.48,1.23-17.35-6.68-19.8-8.1-8.2-4.77-17.66-12.63-22.63-20.39-2.59-4.04-3.99-8.64-6.32-12.8,1.29-1.66,3.62-1.2,5.42-1.92,9.64-3.83,25.49-11.11,33.72-16.77ZM318.37,336.79c.31-.16,1.19.15,1.94-.24.82-.42,3.73-2.72,4.17-2.31-1.05,1.33.26,4.92,1.21,6.03.65.77,1.53.57,2.08.96.62.44.64,1.25,1.52,1.65,4.13,1.88,10.79.34,15.19.15.45,3.59.97,7.18,2.07,10.65,4.74,14.98,22.87,27.5,37.98,32.94,1.36.49,8.98,2.27,9.28,2.72.48.73-.49,3.03.68,3.78.51.32,6.36-.39,7.41.95.89,1.14,2.79,15.83,3.44,18.74,1.84,8.29,4.03,16.6,7.32,24.47-3.35,1.43-6.49.08-9.67-.02-20.96-.64-41.1-1.89-61.89-4.7-12.61-1.71-25.05-4.95-37.74-7.41-8.79-1.7-16.19-2.51-25.02-4.68-4.79-1.18-9.6-2.03-14.26-3.64-.55-.7,1.81-14.59,1.66-17.31-.15-2.89-.39-1.78-.08-4.7.65-6.03.28-14.8,2.06-20.33.6-1.85,3.11-3.5,3.48-6.16.18-1.32-.59-2.99-.24-3.65.31-.58,9.47-7.29,10.77-8.1,10.51-6.62,25.5-14.05,36.63-19.8ZM411.14,355.68c1.43-2.38,9.89-13.31,12.46-13.22,1.63.06-.1,4.76,1.55,5.56-2.29-.57-2.19,4.31-2.94,6.14-2.53,6.21-6.88,11.32-8.94,17.58-.04.06-.97-.6-1.15-.5-.64.37-7.24,9.9-8.61,11.55-.88,1.05-1.77,3-3.37,2.99,1.66-6.22,3.16-12.55,5.45-18.61,1.45-3.83,3.55-8.14,5.55-11.48ZM425.47,346.54v.59c-.41-.2-.41-.39,0-.59ZM408.58,357.66v.59c-.41-.2-.41-.39,0-.59ZM412.26,381.89c4.75-4.06,16.57-13.05,22.5-14.38.51-.11,1.62-.77,1.64.39.02,1.07-7.61,9.09-9.04,10.27-5.9,4.86-12.04,7.37-19.71,8.77-.71-.64,3.92-4.46,4.61-5.04ZM358.55,368.79v.59c-.41-.2-.41-.39,0-.59ZM178.45,379.33v.59c-.41-.2-.41-.39,0-.59ZM421.72,384.6v.59c-.41-.2-.41-.39,0-.59ZM264.12,405.68v.59c-.41-.2-.41-.39,0-.59ZM292.59,464.23l-22.22-38.63,12.55,2.88,2.03,6.88,12.52,23.45c.7,1.59-3.96,6.02-4.88,5.42ZM296.96,431.44l18.76,2.34c.63.51-6.44,13.72-7.2,14.05l-11.56-16.39ZM323.85,435.54s1.32-.22,1.24.29c-.98,1.6-1.95.39-1.24-.29ZM331.36,436.12l10.99,1.73c-1.93,10.45-8.74,19.81-16.05,27.66-8.18,8.77-20.58,19.54-29.64,26.23-27.35,20.2-55.04,42.01-83.67,60.46-17.09,11.01-35.19,20.71-52.05,32.06l-9.97-11.14c-2.76-3.13,1.16-3.52,3.9-5.09,8.17-4.67,17.82-10.26,26.08-15.36,47.87-29.54,99.34-54.34,138.15-96.12,5.42-5.84,10.33-12.86,12.27-20.44ZM345.11,439.63l.63-1.75h.61c.06,1.41.4,2.04-1.24,1.75ZM350.74,438.47l1.87.28c-.84,1.11-1.34.99-1.87-.28ZM354.49,439.06h2.5c-.68,3.55-1,2.56-2.5,0ZM349.8,439.05v.59c-.41-.2-.41-.39,0-.59ZM363.24,440.23c5.63.24,11.4.61,16.83,1.23-.88,6.92-1.43,14.99-4.02,21.6-4.98,12.68-23.57,29.1-33.79,38.62-30.65,28.54-64.04,51.32-98.42,74.75-14.9,10.15-29.27,18.95-44.14,29.52-1.76,1.25-11.18,9.35-12.76,8.73-1.44-2.09-3.64-3.9-5.32-5.85-1.15-1.34-1.79-3.02-2.87-4.34-1.35-1.67-3.82-1.92-3.47-4.42,17.97-9.12,34.58-20.09,51.46-30.83,31.56-20.07,63-39.42,90.53-63.98,14.28-12.73,44.46-41.36,46.44-59.62.23-2.08-.37-3.42-.48-5.4ZM387.01,441.4c1.84-.6,1.95,3.57.93,4.09l-.93-4.09ZM362.62,519.27c-31.26,28.05-67.79,49.98-102.23,74.38-8.67,6.14-13.11,13.51-20.01,20.51-3.08,3.12-7.89,5.81-11.29,8.77-5.23,4.55-10.06,9.84-15.64,14.02-.62.46-4.17,2.82-4.48,2.87-1.99.29-6.8-8.86-8.7-10.46l.31-2.11c2.8-1.76,6.11-3.4,8.81-5.25,6.5-4.43,12.6-10.03,19.1-14.9,24.39-18.25,49.43-36.07,73.96-53.29,29.1-20.43,67.45-46.45,86.03-74.82,7.83-11.95,7.65-17.01,7.41-30.88,1.06-2.65-1.66-8,3.87-6.08,1.15.4.72,1.79,1.16,2.16s1.58,0,1.72.11c.17.14-.61,1.81-.57,2.56.61,12.4.98,24.66-5.81,35.67-8.81,14.29-21.02,25.39-33.64,36.71.66-.62,1.94.52,1.25,1.17s-1.91-.55-1.25-1.17ZM321.04,446.68c-.07,1.74-1.97,2.94-3.14,4.08l3.14-4.08ZM321.97,447.26c.88-.42,1.67.37,1.24.57-.88.42-1.67-.37-1.24-.57ZM304.77,451.35v.59c-.41-.2-.41-.39,0-.59ZM299.77,455.45v.59c-.41-.2-.41-.39,0-.59ZM392.64,463.64c-.45-.82.4-1.56.61-1.17.45.82-.4,1.56-.61,1.17ZM331.66,464.82v.59c-.41-.2-.41-.39,0-.59ZM388.27,470.08c-.45-.82.4-1.56.61-1.17.45.82-.4,1.56-.61,1.17ZM388.26,470.68l-4.06,7.01c-1.36-.95-.72-.91-.18-1.91.31-.57,3.26-6.06,4.24-5.1ZM292.9,473.61l.29.28-2.18,2.04-.29-.28,2.18-2.04ZM306.65,490.01l.29.28-2.18,2.04-.29-.28,2.18-2.04ZM270.93,490.81l.06.93-4.66,2.65,4.6-3.59ZM318.85,490.58s1.32-.22,1.24.29c-.98,1.6-1.95.39-1.24-.29ZM314.47,494.1c.08-.09,2.03-.64,2.5-.59-.5,2.07-3.79,2.1-2.5.59ZM395.23,494.79c.39-.23,1.3-.23,1.69,0,.67.38,6.93,10.54,8.33,12.38,1.95,2.57,4.48,4.86,6.4,7.47,3.57,4.85,6.18,10.16,9.41,15.2,12.65,5.29,25.86,9.61,38.49,14.9,4.97,2.08,10.25,5.26,15.21,7.43,1.63.71,11.65,3.82,11.67,4.87-2.15,1.41-3.33,5.7-5.96,6.14s-7.38-1.48-10-2.32c-6.7-2.14-13.03-4.75-19.5-6.92-12.46-4.18-25.54-7.23-36.85-13.79l-24.37-36.68c-.29-.43-.13-.73.05-1.15s5.02-7.3,5.43-7.53ZM356.99,496.44h1.24c.2.86-.28,1.22-.94,1.75l-.31-1.75ZM312.28,497.03c.62.41-.34.8-.64,1.15-.62-.38.29-.77.64-1.15ZM310.4,498.78v.59c-.41-.2-.41-.39,0-.59ZM306.65,501.71v.59c-.41-.2-.41-.39,0-.59ZM305.4,502.88v.59c-.41-.2-.41-.39,0-.59ZM289.14,503.48c.62.41-.34.8-.64,1.15-.62-.38.29-.77.64-1.15ZM388.25,504.64l.33,1.74c-.95-.6-1.55-1.85-.33-1.74ZM362.93,504.63v.59c-.41-.2-.41-.39,0-.59ZM286.64,505.22v.59c-.41-.2-.41-.39,0-.59ZM273.82,512.84c.68-.64,1.93.53,1.24,1.16s-1.93-.53-1.24-1.16ZM382,518.1c-1.82.11-4.38-3.8-2.18-4.68,1.32-.53,2.47,3.95,2.18,4.68ZM351.05,514.59v.59c-.41-.2-.41-.39,0-.59ZM382.85,553.61c-2.71-2.54-9.1-10.8-10.97-14.03-2.39-4.12-3.72-8.89-6.14-13.02,3.14-3.2,7.01-6.32,10.33-9.62,7.23,9.58,11.71,25.73,22.06,32.76,12.89,8.75,39.6,19.18,54.85,25.21,3.54,1.4,8.09,2.44,11.42,3.96.52.24,1.13-.1.72.94-.18.47-5.34,6.26-6.18,7.11-1.01,1.03-3.76,4.09-5.2,3.73-2.89-2.03-6.2-3.77-9.41-5.3-16.69-7.96-48.85-19.89-61.48-31.73ZM297.89,518.69v.59c-.41-.2-.41-.39,0-.59ZM271,521.62v.59c-.41-.2-.41-.39,0-.59ZM362,528.65l3.12,3.51c-.87.7-3.33-2.59-3.12-3.51ZM255.05,529.8c-.05.06-1.02.17-1.54.59-5,4.04-10.27,8.4-15.96,11.43l17.19-13.18c.53-.08.37,1.09.3,1.16ZM353.38,534.61c.14-.23,2.35-1.03,2.67-1.86,1.05.35,1.23,3.23.94,3.5-.19.18-5.08.73-3.61-1.64ZM321.03,532.74v.59c-.41-.2-.41-.39,0-.59ZM250.99,533.33v.59c-.41-.2-.41-.39,0-.59ZM320.41,534.5v.59c-.41-.2-.41-.39,0-.59ZM362.21,578.8c-2.74-2.49-3.82-6.56-5.74-9.56-5.03-7.89-10.47-15.62-15.65-23.47-.36-.92.31-1.33.82-1.94,1.94-2.33,7.53-4.77,9.72-7.58,1.84,5.27,3.6,11.31,6.02,16.33,1.34,2.77,4.82,8.99,6.6,11.38,2.89,3.88,24.2,13.44,30.1,16.32,16.21,7.89,32.8,15.17,49.17,22.78,1.32,1.76-8.01,8.98-8.72,11.39-.44.36-.9.27-1.42.2-.89-.12-10.75-6.57-13.16-7.64-3.54-1.57-7.64-2.44-11.28-4.08-11.75-5.28-37.89-16.33-46.46-24.13ZM240.36,536.25v.59c-.41-.2-.41-.39,0-.59ZM244.43,538.01c.68-.64,1.93.53,1.24,1.16s-1.93-.53-1.24-1.16ZM312.59,540.94c-.07.06-1.53.4-1.86.3l1.55-1.47c.54-.07.35,1.12.31,1.17ZM231.3,545.63l5.62-2.93c-.92,1.07-2.67,2.39-3.92,3.06-.51.28-1.83,1-1.7-.13ZM403.27,547.37l1.24-1.17c.18,1.22.06,1.33-1.24,1.17ZM408.27,549.72c.33-1.16,1.61-1.4,2.68-1.07l7.32,5.17-10-4.1ZM337.61,551.47c-.12-.11-1.29-2.42-1.25-2.92.99.15,2.15,2.34,1.86,2.92-.2-.03-.52.08-.61,0ZM173.76,550.89c-.45-.82.4-1.56.61-1.17.45.82-.4,1.56-.61,1.17ZM169.07,552.65v.59c-.41-.2-.41-.39,0-.59ZM373.56,555l.93.87c.01.61-1.56-.35-.93-.87ZM421.72,555.58v.59c-.41-.2-.41-.39,0-.59ZM375.44,556.75v.59c-.41-.2-.41-.39,0-.59ZM378.25,559.68c-.07-.06-.41-1.44-.32-1.75l2.19,1.45c-.02.51-1.8.35-1.87.29ZM165.63,559.09c-.71-.68.27-1.88,1.24-.29.08.51-1.2.33-1.24.29ZM368.87,562.6c.44-1.15.6-1.12,1.67-.7,1.57.62,3.85,3.2,5.82,3.93l-7.49-3.23ZM475.5,564.95v.59c-.41-.2-.41-.39,0-.59ZM436.73,565.53v.59c-.41-.2-.41-.39,0-.59ZM145.62,567.28l1.87-1.75c.21,1.11-.73,1.95-1.87,1.75ZM377,566.12l4.37,2.33c-1.65-.22-3.68-.76-4.37-2.33ZM217.22,566.12v.59c-.41-.2-.41-.39,0-.59ZM143.43,569.63v.59c-.41-.2-.41-.39,0-.59ZM385.45,570.22v.59c-.41-.2-.41-.39,0-.59ZM470.81,574.31c-1.47.26-2.24-.47-3.11-1.47l3.12.3v1.17ZM391.07,572.56v.59c-.41-.2-.41-.39,0-.59ZM349.79,573.16c.52.48,1.49,1.61,1.26,2.32-.52-.48-1.49-1.61-1.26-2.32ZM195.96,576.07v.59c-.41-.2-.41-.39,0-.59ZM402.65,578.42c1.5.24,3.63.99,4.37,2.33l-4.37-2.33ZM249.74,580.17v.59c-.41-.2-.41-.39,0-.59ZM114.35,587.19c-1.4.2-2.1-1.23-3.11-2.05l.29-.28,2.82,2.32ZM165.63,589.54c-.45-.82.4-1.56.61-1.17.45.82-.4,1.56-.61,1.17ZM169.38,593.64c.88-.42,1.67.37,1.24.57-.88.42-1.67-.37-1.24-.57ZM218.16,600.66c1.3-1.89,3.87-3.63,6.25-4.09l-6.25,4.09ZM144.05,600.67v.59c-.41-.2-.41-.39,0-.59ZM458.31,606.52c.09-1.5-.53-4.47,1.24-5.26.41,1.58.49,4.26-1.24,5.26ZM216.9,601.83l-1.86.3c.64-.89,1.97-1.46,1.86-.3ZM224.72,607.69v.59c-.41-.2-.41-.39,0-.59ZM458.61,608.28v.59c-.41-.2-.41-.39,0-.59ZM459.56,615.3l-.63-4.68c.87.25,1.86,4.5.63,4.68ZM154.06,611.21v.59c-.41-.2-.41-.39,0-.59ZM472.69,612.38c.88-.42,1.67.37,1.24.57-.88.42-1.67-.37-1.24-.57ZM484.88,617.06v.59c-.41-.2-.41-.39,0-.59ZM185.02,624.68c.68-.64,1.93.53,1.24,1.16s-1.93-.53-1.24-1.16ZM161.25,629.95c.73-.66,2.01.25.31,1.17-.54.07-.35-1.12-.31-1.17ZM458.61,632.87v.59c-.41-.2-.41-.39,0-.59ZM447.04,639.31c.95-1.86,2.38-2.32,2.5,0h-2.5ZM467.06,638.74c.14-.16,2.55-.66,3.12-.59-.54,1.25-1.7,1.98-3.12,1.75.04-.36-.1-1.05,0-1.16ZM459.86,638.73v.59c-.41-.2-.41-.39,0-.59ZM431.41,639.9c2.6-.29,2.6.86,0,.57v-.57Z"/>
      <path d="M337.92,266.31c-.41.2-.41.39,0,.59v-.59Z"/>
    </g>
  </g>
</svg>