<?xml version="1.0" encoding="UTF-8"?>
<svg fill="#B12A1D" id="Layer_2" data-name="Layer 2" xmlns="http://www.w3.org/2000/svg" viewBox="0 0 286.45 631.96">
  <g id="Layer_1-2" data-name="Layer 1">
    <g>
      <path d="M142.72.87c.95.3,4.33,1.95,5.55,2.71s2.2,2.61,3.57,2.79c2.36.31,10.41-2,13.75-2.31,4.88-.45,17.29-.25,21.21,2.36.83.55.43,1.45.58,1.51.19.09,1.08-.39,1.86.28,2.45,2.11,1.97,7.46,1.9,10.49-.31,13.75-2.45,27.56-2.89,41.3-.06,1.91-.49,8.29,1.11,9.19.21.12,3.72-.41,4.91-.3,9.09.84,9.29,14.63,8.88,21.51-.12,1.95-1.37,5.22-1.16,6.87.18,1.36,1.63,1.9,2.23,2.98,1.61,2.91,2.12,8.32.59,11.32-2.6,5.11-15.01,6.47-13.67,1.85.8-2.77,11.3.32,10.32-8.12-.5-4.28-2.22.3-3.49,1.73-1.09,1.24-3.62,3.6-5.12,4.06s-4.01,0-5.08.98c-.52.47-2.04,11.84-2.56,13.77-1.6,5.99-5.49,16.61-8.36,22.05-2.05,3.89-5.2,7.06-6.99,11.08,4.67.77,10.54,1.41,14.92,3.16,12.57,5.02,25.87,20.32,32.24,32.03,1.88,3.45,3.32,9.04,5.15,12.07.65,1.07,1.75.84,2.48,1.54,1.9,1.8,2.74,5.87,1.39,8.24-.94,1.66-5.27,3.05-5.03,4.55.08.52,3.78,5.7,4.46,7.05,7.85,15.67,14.07,38.82,18.14,55.89,2.81,11.81-2.91,14.15-13.32,10.45-5.95-2.12-6.98-5.98-14.22-5.85-8.12.14-15.76-.07-23.96-1.3-.93-.14-4.25-1.86-3.84-.18,2.3,6.47,4.43,13.06,6.11,19.72,5.69,22.58,8.79,46.25,14.2,69.01.69,2.91,3.23,7.05,2.37,9.75-.45,1.4-2.63,2.49-2.35,4.03,3.78,10.05,7.31,20.16,11.03,30.23,6.55,17.74,13.87,36.41,20.54,54.65,3.2,8.74,6.07,18.45,9.39,26.87,8.62,21.82,16.48,42.99,23.2,65.64,1.2,4.06,3.96,12.37,3.24,16.21-.62,3.29-9.37,7.74-12.49,8.73-3.93,1.25-7.22,1.11-11.24,1.34l-.28,1.36,33.83,32.16c1.89,2.56-.96,6.69-4.21,5.37-6.62-2.56-13.23-5.34-19.95-7.6-15.21-5.12-31.53-9.46-47.39-11.71-.76-.11-1.55.43-2.52.24-6.19-1.2-1-12.14-2.27-16.1-9.46-.67-20.51-1.5-29.43-5.01-5.49-2.16-5.59-4.97-7.58-10.2-10.47-27.47-19.99-57.5-28.7-86.07-2.48-8.14-4.58-16.48-6.9-24.67l-8.65,120.48c-.48.63-2.18,1.47-2.96,1.62-7.18,1.42-21.32-.04-28.97-.6-2.38-.17-4.85-1.29-7.34-.99.37,2.9-.36,6.13-.33,8.9.04,3.07,1.47,10.15.78,12.5-.58,1.96-6.56,3.39-8.68,3.94-3.19.82-9.07,2.18-12.18,2.16-.25,0-.17-1.95-1.38-1.09-.05.04.18,1.01-.38,1.15-1.01.26-2.6-.17-3.88.05-13.62,2.33-34.29,8.82-47.1,7.97-1.94-.13-7.63-.92-8.95-1.95-4.57-3.57,3.16-8.31,5.94-10.22,6.65-4.58,14.65-8.42,21.6-12.83,7.63-4.83,14.65-10.98,23-14.59,0-.86-1.73-1.07-2.42-1.29-7.05-2.29-23.06-6.2-27.68-11.92-2.59-3.2-1.65-10.56-1.43-14.64.91-16.51,3.83-35.1,5.93-51.52,4.31-33.72,10.84-65.84,15.93-99.29,1.4-9.19,1.95-18.64,3.5-26.91.48-2.54,3.09-7.8,3.24-9.43.13-1.39-5.6-3.86-6.84-5.03-2.9-2.72-.85-4.84-.56-8.07.41-4.59.04-13.29,1.2-17.06.13-.42,1.03-.41,1.03-.68-.11-11.56,1.96-35.17,6.53-45.8.63-1.47,1.37-3.88,3.3-3.87.05,1.27.62,2.4.6,3.7-.04,2.96-1.63,22.21-2.34,24-.19.48-.69.49-1.12.43-.23,1.04.96.36,1.14.57.17.2-.93,1.33-.99,2.07-.09.97.71,2.24.45,3.35l-5.21,36.78c-.07.88.21,1.44.86,2.01,1.14.99,6.59,3.44,8.35,4.27,16.85,7.87,39.79,11.01,58.31,13.42,14.66,1.91,29.95,3.4,44.63,3.57,10.51.12,21.03-.82,31.59-1.21,1.36-.05,7.55.94,7.83-.35.16-.74-1.79-6.73-2.11-8.24-5.63-26.19-11.05-53.32-15.07-80.71-.48-3.26-.68-6.6-.72-9.9-2.18-1.06-4.74-.91-6.85-1.47-16.09-4.29-34.35-10.62-48.78-18.36-6.84-3.67-26.63-16.71-33.03-16.96-.46-.02-5.67,2.36-7.53,2.74-11,2.2-18.89,2.78-29.81,6.92-1.25.47-7.49,3.64-7.92,3.55-1.78-.37-.22-3.31.37-4.21,1.39-2.11,3.89-2.42,4.64-3.97,1.1-2.27,1.6-7.69,2.57-10.63.92-2.78,2.26-4.52,3.02-7.02-1.39.1-2.84.69-4.25.57-3.63-.3-17.37-7.6-21.19-9.84-1.94-1.14-3.85-3.23-5.83-4.44-1.01,0-4.08,6.69-4.58,7.98-2.32,5.95-2.61,13.42-5.92,18.76-1.3,2.1-4.72,4.26-6.82,5.81-1.16.86-2.63.75-2.77.84-.18.11.09.97-.25,1.27-2.66,2.41-4.41,3.34-4.05,7.74,2.19-.41,4.04,1.03,6.04,1.17,2.71.19,3.69-1.08,6.59.26,2.68,1.24,3.4,3.52,5.21,5.11,4.34,3.81,11.83,6.16,17.09,8.73,4.5,2.2,4.26,3.46,10.12,4.23,23.3,3.05,57.18,2.16,79.59-4.75,1.97-.61,8.16-3.66,9.35-3.61,3.14.12,4.29,2.39,2.52,5.15-.61.95-9.01,4.27-10.71,4.78-18.54,5.6-38.18,5.56-57.24,4.75-17.7-.75-37.5-1.07-52.46-11.81-1.44-1.04-5.81-6.06-6.37-6.29-.78-.32-2.74.4-4.2.25-3.79-.39-11.21-2.15-11.83-6.59-.28-2.03.92-8.21,2.01-9.97,2.56-4.15,8.13-6.18,11.44-9.22,4.13-3.81,3.79-10.75,5.77-16.04.91-2.43,6.42-10.66,6.52-11.31.14-.89-1.2-1.37-1.52-2.32-.72-2.13-.86-5.46.32-7.45,1.52-2.56,3-.34,3.56-.73.22-.16,1.18-4.33,1.46-5.15,1.49-4.21,6.24-16.93,8.85-19.76.31-.33,1.13.21,1.14-.04.01-.16-.58-.68-.27-1.43.57-1.38,5.35-5.74,6.43-7.04.12-.15-.22-.84.16-1.29,2.93-3.49,9.53-9.95,14.5-8.8,1.14.27,2.07,1.28,3.15,1.48,4.99.94,10.59,1.14,15.65,1.84-4.91-5.36-12.1-9.15-15.62-15.65-4.45-8.23-5.64-18.84-7.36-27.94-6.41,1.27-9.99.72-15.02-3.45-1.65-1.37-2.74-5.34-4.18-.02-1.59,5.89,4.24,9.62,9.63,8.49,2.93-.62,5.15-4.38,8.45-3.88-.34,6.66-7.44,11.11-13.91,9.03-7.53-2.42-10.35-8.63-8.33-16.07.44-1.64,2.65-4.31,2.69-5.28.05-1.03-1.29-3.8-1.53-5.34-1.59-10.25-1.86-21.07,5.11-29.58.94-1.15,4.09-3.53,4.2-3.79.24-.55-.4-1.68-.28-2.56.38-2.83,6.94-6.7,8.02-9.26l-1.73-21.19c.96-3.9-1.73-19.67-.02-22.31.19-.3,5.08-3.55,5.86-4.03,10.58-6.51,29.73-13.69,42.13-12.45,2,.2,4.16,1.7,5.04,1.62,2.27-.21,7.64-2.64,10.56-3.18,6.77-1.25,23.65-2.95,29.8-1.03ZM138.61,2.91v.57c.37-.19.37-.38,0-.57ZM145.21,9.23c-.1-.12-2.46-1.47-2.73-1.58-5.41-2.2-25.7-1.25-31.7.14-.74.17-5,1.23-5.15,1.45-.31.43,2.05,6.82-.91,10.26-4.16,4.83-16.97,4.05-14.27-4.52l5.99-6.91c-14.67-.47-27.67,7.45-41.29,11.79l-.91,1.67c.68,3.56.36,7.27.53,10.81.2,4.12.83,8.49.94,12.71.12,4.68-.14,9.4-.02,14.08,5.51-2.38,9.08-6.67,14.71-9.1,7.3-3.14,33.49-7.42,40.4-4.98,1.05.37,2.39,2.02,2.56,2.02.3,0,1.91-2.8,4.63-3.39,9.88.08,20.59-1.85,30.38-1.45,2.18.09,5.07,1.31,6.93,1.35.16,0,.31-1.76,2.54-.71,5.44,4.24,12.7,6.92,18.21,10.93,1.28.93,6.02,8.03,7.03,7.05.98-16.14,2.64-32.31,5.75-48.19-4.18-.62-8.09-3.54-12.32-4.04s-15.4-.23-19.13,1c-3.15,1.04-1.27,2.15-1.48,4.43-.43,4.61-2.4,8.09-7.43,8.13-2.54.02-7.11-.75-8.15-3.48-.57-1.5-.82-4.7,1.45-3.76l-1.14-.85c.61-.47.84-1.29,1.35-1.8.71-.72,4.03-2.09,3.23-3.06ZM160.13,6.93c-.81-.41-1.53.36-1.14.56.81.41,1.53-.36,1.14-.56ZM98.15,8.65c-.81-.41-1.53.36-1.14.56.81.41,1.53-.36,1.14-.56ZM101.31,9.79v.57c.37-.19.37-.38,0-.57ZM151.38,16.53c.62-.67,1.75-5.51.43-5.58-.19-.01-3.3,1.19-3.55,1.32-.72.38-3.15,2.96-4.19,3.55-.41,1.87,5.81,2.34,7.31.71ZM95.29,17.25c4.19.34,7.63-.04,6.03-5.17-.72-.98-.83-.15-1.5.24s-5.41,4.2-4.53,4.93ZM189.11,14.38v.57c.37-.19.37-.38,0-.57ZM144.92,20.12v.57c.37-.19.37-.38,0-.57ZM83.23,47.1c-.81-.41-1.53.36-1.14.56.81.41,1.53-.36,1.14-.56ZM122.83,49.39h-1.72s0,1.14,0,1.14c.79.18,1.53-.31,1.72-1.14ZM172.56,59.34c-4.27-3.55-8.95-6.87-13.57-9.96,1.55,3.06-3.74,16.81-3.4,17.99.41,1.46,5.01,1.62,5.97,3.83.61,1.39.03,2.85.41,4.18.23.8,1.46,1.55,1.9,2.69,3.54,9.05,2.07,15.48,1.45,24.43-.35,5.08.75,10.94-.73,16.47-1.63,6.11-6.43,7.18-11.89,8.49l-.6,20.63c-4.71-1.49-9.69-2.62-14.33-4.32-3.59-1.32-13.57-6.66-16.34-6.6-3.08.06-14.71,4.11-18.1,5.48-6,2.43-11.59,6.87-17.84,9.15-3.89,1.42-1.97-3.62-1.9-4.86.13-2.57.93-20.44.2-21.21-.19-.2-3.94-.65-5.29-1.31-11.82-5.79-11.03-31.47-8.89-42.46,1.07-5.48,3.05-5.69,7.28-8.75-3.86-5.02-6.14-10.93-8.01-16.94-4.67,2.87-8.29,7.23-12.53,10.75l.49,12.21c-.98-.84-2.8-.42-1.71.57.13.12,1.29-.31,1.77.34.86,1.16-.06,2.54.1,3.32.25,1.2,3.57,4.39,2.71,6.67-.35.41-5.13-3.31-5.66-3.8-1.18-1.09-2.3-3.38-2.47-3.52-.45-.36-3.46-.6-4.33-2.35-3.87-.6-6.55,7.14-7.35,10.23-1.12,4.39.58,8.18-.84,12.37l1.12-.3c-.05,1.08.75,6.5,1.24,6.8.63.39,6.36-.04,7.96,1.8.78,1.13-4.92,1.37-5.16,1.72,1.8,7.17,9.32,4.59,14.64,5.16,5.67.61,1.06,3.6,1.53,6.45,2.41,14.62,9.71,26.65,20.6,36.28,6.71,5.93,12.99,8.66,22.11,10.06,17.13,2.62,29.5-.25,45.25-5.76,4.34-1.52,10.7-1.85,13.5-5.57,10.2-13.55,15.34-25.96,19.4-42.44.77-3.12.16-7.92,3.74-10.04,2.03-1.21,6.87-1,8.86-3.46.16-.2,1.88-4.47,1.87-4.73-.08-2.15-6.42-.24-7.73.31-2.07.87-1.38-1.35-.55-2.28,2.61-2.92,6.16-1.62,8.5-2.4,2.65-.89,1.32-16.11-.29-18.49-1.2-1.78-3.08-2.06-5.07-1.21-1.78.76-7.78,12.55-9.12,6.3-.32-1.51,1.57-3.81,1.68-5.77.11-2.12-.62-7.09-1.95-8.67-1.69-2.01-6.44-5.66-8.61-7.46ZM142.34,50.54c-.81-.41-1.53.36-1.14.56.81.41,1.53-.36,1.14-.56ZM147.5,50.54c-.81-.41-1.53.36-1.14.56.81.41,1.53-.36,1.14-.56ZM110.2,64.88c2.12.42,4.15-.36,6.09-.52.81-.07,2.79,1.06,3.09-.35.15-.69-6.34-10.41-5.74-12.9l-1.58,3.86c.35,3.61-1.86,6.36-1.86,9.91ZM187.67,52.26c-.81-.41-1.53.36-1.14.56.81.41,1.53-.36,1.14-.56ZM78.07,56.28c-1.59-.37-.81.56-1.71,1.43l.27.27,1.44-1.7ZM145.21,64.31c-.54.15-1.93-.95-2.29-.58-.71.73,1.58,2.98,2.29.58ZM102.74,64.31h-1.72v1.14h1.72v-1.14ZM95.28,66.6l-.28-1.72c-.61.52-1.05.87-.86,1.72h1.14ZM148.37,65.45v.57c.37-.19.37-.38,0-.57ZM86.39,68.9v.57c.37-.19.37-.38,0-.57ZM134.02,68.9v.57c.37-.19.37-.38,0-.57ZM54.54,69.48c-.81-.41-1.53.36-1.14.56.81.41,1.53-.36,1.14-.56ZM52.82,70.62c-1.01-.55-5.69,2.74-6.31,4,1.6-.05,2.9.87,4.14,1.76s1.98,3.34,3.9,2.83c-.97-2.58-2.08-5.91-1.72-8.6ZM100.74,71.19v.57c.37-.19.37-.38,0-.57ZM147.38,73.1c-9.17-2.24-22.3-1.5-31.72-1.01-11.39.59-22.58,2.18-33.71,4.41-6.34,1.27-7.42,4.32-7.89,10.48-.5,6.6.73,18.34,2.99,24.54.38,1.03,4.08,7.79,4.61,8.32.42.42,7.9,1.26,9.16,1.45,15.05,2.36,41.02,2.75,56.32.32,1.56-.25,9.2-1.96,10.11-2.51,2.44-1.46,1.6-16.11,1.7-19.53.09-2.87,1.24-7.58.92-10.33-.1-.89-2.08-1.53.25-1.41v-.56c-1.95.28-.92-2.15-1.21-3.67-.24-1.27-1.26-6.48-1.79-7.1-.92-1.08-7.44-2.01-9.19-2.48-.41-.11-.48-.88-.57-.9ZM55.4,71.77v.57c.37-.19.37-.38,0-.57ZM49.37,78.65c-.63-.63-1.77.52-1.14,1.14s1.77-.52,1.14-1.14ZM54.54,81.53c-.81-.41-1.53.36-1.14.56.81.41,1.53-.36,1.14-.56ZM38.19,95.87v.57c.37-.19.37-.38,0-.57ZM161.57,97.01v.57c.37-.19.37-.38,0-.57ZM70.32,106.77v.57c.37-.19.37-.38,0-.57ZM186.24,111.36v.57c.37-.19.37-.38,0-.57ZM73.48,112.51c-.81-.41-1.53.36-1.14.56.81.41,1.53-.36,1.14-.56ZM160.42,113.66v.57c.37-.19.37-.38,0-.57ZM186.24,115.95v.57c.37-.19.37-.38,0-.57ZM87.54,122.26v.57c.37-.19.37-.38,0-.57ZM80.65,123.98v.57c.37-.19.37-.38,0-.57ZM96.43,128h-1.14v2.29h1.14v-2.29ZM146.07,128.57v.57c.37-.19.37-.38,0-.57ZM181.65,132.59v.57c.37-.19.37-.38,0-.57ZM86.96,136.61v.57c.37-.19.37-.38,0-.57ZM165.37,164.8c-.14,6.36-.15,12.8.51,19.14.58,5.63,1.78,13.36,2.9,18.9.28,1.37,1.63,3.82,1.91,5.53.48.48.99.65,1.66.47.98-.26,7.09-5.17,8.83-6.14,6-3.35,16.72-6.98,22.3-1.27,1.46,1.5,2.29,2.61,1.98,4.85-.28,2.06-2.17,2.08.44,3.63,3.21,1.9,6.62.15,9.65-1.55-1.12-4.91-3.52-9.67-6.18-13.97-8.92-14.45-20.1-26.53-37.61-29.53-.98-.17-5.94-.79-6.39-.06ZM159.56,168.74c1,4.33-7.56,6.27-8.05,8.89-.24,1.3-.35,5-.38,6.57-.11,7.63.27,18.51.99,26.15.17,1.78,2.26,12.33,3.12,12.32l11.03-10.02c-1.4-2.93-3.2-6.67-3.84-9.83-1.8-8.9-2.16-22.91-1.97-32.37.02-.86.28-1.41-.9-1.71ZM79.21,171.04c.41-.81-.36-1.53-.56-1.14-.41.81.36,1.53.56,1.14ZM59.82,171.45l-.4-.98c-1.15,1.22-2.92,1.98-4.11,3.07-6.63,6.11-14.83,19.4-18.49,27.71-.7,1.59-3.52,7.97-3.51,9.11,0,1.7,7.12,4.37,8.9,5.42,6.91,4.08,13.2,9.94,21.5,10.92.78-5.81,1.82-11.6,3.04-17.34,2.14-10.1,4.67-21.14,9.1-30.5.5-1.06,2.31-5.88,3.66-3.83l-13.79,67.15c3.8-3.39,6.93-7.75,11.24-10.56,4.2-2.74,10.12-4.49,14.15-7.63.47-.37,1.05,0,.72-1.31-3.58-.48-12.47-.02-13.16-4.35-.89-5.58,1.51-24.47,3.19-30.03.62-2.06,2.37-6.57,2.48-9.03.06-1.42-.68-2.61-.55-3.89.12-1.19,1.52-2.26.91-3.2-.09-.14-2.2-1.61-2.34-1.61-.33,0-1.35,1.39-2.17,1.73-6.37,2.67-13.78-.78-20.38-.86ZM150.09,177.92v.57c.37-.19.37-.38,0-.57ZM149.35,226.56c.63.33,2.51-.63,2.61-1.27.06-.4-2.17-6.41-2.46-7.75-1.73-8.07-2.55-19.04-2.49-27.31.02-2.02,1.53-10.02.49-11.15-6.39,2.61-13.58,4.96-20.38,4.6l.3,1.13c-13.3,2.37-26.94.22-39.59-4.01l-4.54,37.24c10.45.1,21.41,2.36,31.77,2.38,7.81.02,15.31-1.21,22.96-1.77,3.53-.26,7.13-.21,10.64.03-2.64,3.9-8.88,2.35-12.05,5.15,1.21.05,2.46-.13,3.67.07,2.23.36,6.51,1.13,8.56,1.68.47.13.42.93.52.98ZM162.43,181.95c-1.2-.16-1.31-.06-1.14,1.14l1.14-1.14ZM85.82,185.38v.57c.37-.19.37-.38,0-.57ZM160.13,222.11c-1.01.8-1.46,1.72-2.26,2.62-.42.48-1.53.74-1.63.92-1.17,1.99,1.01,1.48,2.16,1.9,5.37,1.96,12.7,4.31,17.66,6.46,2.93,1.27,6.34,6.01,9.58,5.84,1.67-.09,8.35-2.24,10.24-2.97,3.02-1.18,11.33-5.55,9.32-9.62-1.52-3.09-4.45-.79-6.42-.03-4.52,1.76-11.41,5.17-16.54,5.24-3.8.06-4.44-1.83-2.3-4.65,6.95-9.17,20.72-4.53,27.81-10.06,3.3-2.58-4.14-5.25-6.53-4.83-1.86.33-5.04,3.51-6.91,4.58-3.74,2.15-15.01,8.95-17.23,2.82-.87-2.4,3.3-6.58,5.16-6.3.57.09-.11,1.44.86,1.17.09-.48-.47-1.06-.4-1.44.16-.84,5.97-2.65,7.17-2.98,4.27-1.18,10.97-.54,11.32-5.93-.81-1.27-2.19-1.23-3.3-1.74-.45-.21-.48-.94-.54-.97-.22-.09-4.1.37-4.73.48-6.67,1.19-26.44,14.7-32.47,19.47.64-.66-.24-1.86-1.14-.28-.07.49,1.1.33,1.14.28ZM72.04,203.75v.57c.37-.19.37-.38,0-.57ZM175.91,208.34v.57c.37-.19.37-.38,0-.57ZM173.9,209.49c-.81-.41-1.53.36-1.14.56.81.41,1.53-.36,1.14-.56ZM188.54,213.5v.57c.37-.19.37-.38,0-.57ZM189.97,214.66c-1.01-.2-1.78.17-2.7.45-.55.17-7.78,2.93-6.48,4.13l9.18-4.58ZM211.2,218.09c.41-.81-.36-1.53-.56-1.14-.41.81.36,1.53.56,1.14ZM179.93,217.52v.57c.37-.19.37-.38,0-.57ZM216.86,221.01c-.29-.17-3.79.99-4.82,1.12s-3.78-.93-4.85.56c-.39.55,2.7,3.75,2.86,5.5.76,8.03-13.11,13.84-19.5,14.58.97,1.26,2.46,1.62,3.33,3.26.42.78,1.09,1.43-.26,1.82-5.36,1.53-22.49-10.15-28.51-12.65-14.37-5.97-44.18-10.17-59.81-9.67-6.75.22-8.2,1.1-13.84,3.95-10.03,5.07-21.14,9.28-25.44,20.75.28.34,6.96-2.19,8.44-2.15.86.02,1.88,1.38,2.43.99.13-.1,0-1.27.97-1.61,2.94-1.03,9.16-.49,12.48-1.31l1.79-3.36c3.59,2.24,8.08,2.03,12.07,3.41,10.17,3.54,21.9,12.98,32.19,17.73,15.15,7,41.26,14.82,57.72,17.44,8.21,1.31,24.39.18,30.81,3.64,4.13,2.23,5.8,4.8,11.32,5.33,8.65.83.63-8.04-.11-10.85-.34-1.31.16-2.28-.05-3.35-2.41-12.14-8.97-25.54-13.26-37.24-.83-2.27-5.14-17.42-5.96-17.89ZM186.24,223.83v.57c.37-.19.37-.38,0-.57ZM143.2,225.55v.57c.37-.19.37-.38,0-.57ZM184.52,225.55v.57c.37-.19.37-.38,0-.57ZM191.69,225.56c-2.03-.19-4.02.47-5.76,1.43-.79.43-1.42-.06-1.12,1.44l6.88-2.86ZM180.5,230.72v.57c.37-.19.37-.38,0-.57ZM169.31,234.16c.41-.81-.36-1.53-.56-1.14-.41.81.36,1.53.56,1.14ZM77.49,234.74c-.81-.41-1.53.36-1.14.56.81.41,1.53-.36,1.14-.56ZM196,239.9v.57c.37-.19.37-.38,0-.57ZM80.65,249.08v.57c.37-.19.37-.38,0-.57ZM165.01,275.48v.57c.37-.19.37-.38,0-.57ZM185.09,280.07v.57c.37-.19.37-.38,0-.57ZM72.04,288.67v.57c.37-.19.37-.38,0-.57ZM240.18,290.4v.57c.37-.19.37-.38,0-.57ZM52.53,319.66v.57c.37-.19.37-.38,0-.57ZM44.73,574.39c.38-3.69,1.33-7.54,1.7-11.21.08-.83-.38-1.71-.31-2.47,4.27-44.77,12.43-88.81,18.11-133.51,2.02-15.89,3.2-31.88,5.68-47.71-.08-2.35-8.07-3.99-9.93-5.3-2.09,14.1-3.28,28.47-5.58,42.61-1.43,8.8-3.82,17.68-5.35,26.53-6.14,35.7-11.19,72.43-14.59,108.46-.36,3.84-1.92,14.08-1.04,17.09.55,1.89,9.97,6.44,11.3,5.52ZM74.34,379.91v.57c.37-.19.37-.38,0-.57ZM102.75,386.23l-13.77-2.87c.25,3.4.25,7.1-.08,10.54-5.32,55.74-17.94,111.48-22.31,167.63-.42,5.34-.72,11.44-1.42,16.69-.09.7-.86,1.58-.86,1.68.08,1.87,12.91,1.27,14.9,2,.5-16.76.1-33.41,2.37-50.13s5.12-32.89,7.16-49.53c.43-3.53,3.26-17.74,3.14-19.38-.02-.33-1.14-.28-1.14-.55.03-2.15,1.39-6.12,1.66-8.66,2.03-19.43,3.7-37.92,7.61-57.23.69-3.41,1.77-6.84,2.73-10.18ZM80.36,383.93c-.08-.08-1.53-.06-1.93.07-1.91.62.16,3.85-.32,5.38l-2.33,26.1c.83.15.74-1.08.87-1.7.69-3.42,4.79-28.8,3.72-29.86ZM145.21,444.18c-1.14-5.33-4.19-10.26-6.18-15.33-5.38-13.68-10.08-27.54-16.64-40.74-3.34-5.07-4.62,2.6-5.02,2.71-1.64.48-.22-2.3-1.41-3.2-.54-.41-1.87.12-2.31.6,1.48,1.55,1.69,5.46,4.01,3.74-.15,1.14-.13,3.7.16,4.72,3.8,13.4,10.63,27.99,15.38,41.48,3.95,11.22,11.36,27.23,13.93,38.24,6.86,29.44,16.3,58.29,26.48,86.56,2.06,5.71,4.07,12.28,6.33,17.77.33.81,1.83,3.8,2.44,4.01,5.74,1.44,11.36,2.8,17.35,3.45l-14.63-31.56c-10.79-27.34-21.76-55.85-31.22-83.08-3.5-10.06-5.94-20.55-10.38-30.26l1.71.87ZM106.18,387.94c.41-.81-.36-1.53-.56-1.14-.41.81.36,1.53.56,1.14ZM113.65,389.67c-.81-.41-1.53.36-1.14.56.81.41,1.53-.36,1.14-.56ZM131.44,389.67h-2.29c.5,1.01.94,2.55,2.29,2.29v-2.29ZM136.89,390.82v.57c.37-.19.37-.38,0-.57ZM152,392.63c-2.69.17-8.77-3.07-9.04,1.38-.02.26.95.21,1.27.96,5.59,13.07,9.03,27.03,14.28,39.64,14.84,35.57,26.43,72.25,41.5,107.7,5.67,13.33,12.14,29.25,18.99,41.83.6,1.1,1.85,3.65,2.92,3.98,1.91.59,3.6-.17,2.93-2.35-5.93-12.52-11.69-25.2-16.25-38.29,2.45,3.26,3.34,7.36,5.03,11.03,4.07,8.81,9.05,17.69,12.78,26.82.32.78.15,1.74.39,2.48.57,1.73,3.09,1.22,2.51-.78-.37-1.29-2.78-4.58-3.49-6.27-5.84-13.82-11.12-26.85-17.42-40.53-1.3-2.81-10.65-23.82-9.76-24.82.26-.29,1.33.35,1.07-.63l-1.75-.38c-2.18-7.12-6.11-13.52-8.68-20.47-3.78-10.22-5.44-19.23-10.36-28.65-1.24-2.37-5.41-10.45-5.94-12.47-.36-1.38.34-2.68.26-2.8-.23-.34-1.86-.34-2.05-2.17-.33-3.23-.18-.84-1.19-2.88-2.61-5.24-4.6-14.37-6.73-20.26-3.84-10.65-8.29-21.12-11.28-32.05ZM196.28,391.39c-3.35.45-6.77.73-10.15.94-1.78.11-2.13-1.37-3.04,1.08.35.53.86-.47,1.16.02.89,1.42,2.14,3.98,2.97,5.59.44.85,1.45,2.76,1.75,3.42.53,1.18,3.73,8.92,3.77,9.42.07.89-2.68,3.2,1.23,1.91-.07.99-.02,1.92.28,2.88,5.11,16.48,15.29,33.43,21.1,49.49,10.32,28.53,22.46,54.14,33.99,81.92,4.51,10.86,6.91,20.47,13.4,30.79.42.67,1.21,2.81,2.09,2.48,2.94-1.09.05-7.87-.5-9.87-5.2-18.71-14.28-36.23-22.09-54.18-13.53-31.09-25.34-62.91-37.55-94.43l-8.43-31.46ZM204.31,391.39c-.11-.11-3.46-.48-2.85.84l4.57,8.91c-.6-1.35-1.38-9.39-1.72-9.75ZM142.91,397.13l-1.43-5.16c-1.61,1.16.09,4.42,1.43,5.16ZM111.92,412.62c.24-4.56,1.5-9.64,1.75-14.08.11-1.9-.98-3.5-.03-5.42-.57.13-1.7,1.51-1.76,1.98-.5,3.81-.18,8.2-.55,12.06l.59,5.47ZM167.1,407.93c-.23-.22-2.4-5.64-.67-5.93-4.43-.61-1.89-10.33-7.45-8.89,2.63,5.52,6.43,10.71,8.04,16.63l1.13-2.02c-.31-.29-.96.29-1.05.2ZM173.27,393.17c-.37-.31-5.16-.45-5.61.88-.65,1.95,1.51,6.92,2.21,9.11,10.56,32.96,26.13,67.48,39.25,99.62,6.14,15.04,11.16,30.56,18.72,44.98l-1.14.85c2.48.61,3.66,4.23,4.79,6.4,2.7,5.19,11.65,29.66,14.39,31.52.7.47,1.17.68,2.04.54l-.25-2.9-10.36-26.94c4.74,8.71,8.58,18.09,13.46,26.71,1.7,3,2.06,1.16,1.35-1.35-1.82-6.49-6.05-12.71-8.55-18.4-9.84-22.37-17-48.37-27.87-69.7-12.08-23.71-21.3-42.37-30.57-67.55-3.35-9.09-7.32-18.83-10.39-27.46-.44-1.24-1.22-6.09-1.47-6.29ZM185.95,400c-1.2-.16-1.31-.06-1.14,1.14l1.14-1.14ZM100.46,432.13c1.29-.44,1.28-2.22,1.54-3.33,1.87-8.07,2.07-16.65,3.61-24.79-1.51.92-2.35,3.9-2.73,5.59-1.53,6.95-.82,15.42-2.43,22.53ZM167.01,420.08l-2.36-7.1-4.52-7.81,3.91,9.56,2.96,5.35ZM118.23,410.9c-.11-.12-1.64-.25-.92.6-.44,8.69-1.21,17.4-1.93,26.08-2.33,27.94-5.25,55.7-7.59,83.61-1.45,17.28-1.82,34.5-2.13,51.8-.07,3.91-1.07,7.81.02,11.7l11.76,1.19c2.64-.59.52-1.99.34-3.25-2.1-15.3-.66-28.17.72-43.12.13-1.42-.11-6.66.31-7.54.04-.08,1.28.77,1.71-.29.14-.44-1.62-.18-1.75-1.71,1.93-15.1,2.4-30.23,3.45-45.35,1.14-16.41,2.8-33.97,3.33-50.93l-3.78-11.72,1.04-1.89c-.29-.24-1.61.66-1.71.58-.68-.51-2.53-9.39-2.88-9.76ZM167.59,411.48c-.81-.41-1.53.36-1.14.56.81.41,1.53-.36,1.14-.56ZM169.03,412.62v.57c.37-.19.37-.38,0-.57ZM170.17,414.92v.57c.37-.19.37-.38,0-.57ZM69.45,454.51l1.5-5.75,4.82-32.12-4.44,20.51c.21,5.11-1.98,10.55-2.44,15.36-.06.61-.41,2.15.56,1.99ZM171.03,417.78c.41-.81-.36-1.53-.56-1.14-.41.81.36,1.53.56,1.14ZM168.16,422.95c.19-.84-.24-1.2-.86-1.71-.25.57.59,2.26.86,1.71ZM172.75,422.37c.41-.81-.36-1.53-.56-1.14-.41.81.36,1.53.56,1.14ZM193.7,421.8v.57c.37-.19.37-.38,0-.57ZM173.32,424.1c.41-.81-.36-1.53-.56-1.14-.41.81.36,1.53.56,1.14ZM168.45,424.11c-.57.4.31.79.59,1.12.57-.38-.27-.76-.59-1.12ZM219.53,428.12v.57c.37-.19.37-.38,0-.57ZM101.02,435.57v-2.86s-.57,0-.57,0l-.58,2.86h1.14ZM177.63,435v.57c.37-.19.37-.38,0-.57ZM100.74,436.15v.57c.37-.19.37-.38,0-.57ZM190.26,436.15v.57c.37-.19.37-.38,0-.57ZM159.55,439.59s-1.21-.22-1.14.28c.9,1.57,1.79.39,1.14-.28ZM192.55,440.74v.57c.37-.19.37-.38,0-.57ZM69.46,455.09c-1.74-.29-.92.43-1.16,1.39-.35,1.4-.63,2.88-.56,4.34,2.42.28.27-4.25,1.72-5.73ZM183.66,457.38c-.63-.63-1.77.52-1.14,1.14s1.77-.52,1.14-1.14ZM67.16,472.3l1.15-10.32c-.78-.15-.87,1.03-.99,1.58-.28,1.32-.62,3.68-.72,5.02-.06.78-.49,3.55.56,3.72ZM105.9,461.97v.57c.37-.19.37-.38,0-.57ZM229.57,464.27c1.25-.49,1.36-.95.28-1.72l-.28,1.72ZM97.01,486.93c-.13-5.25.09-10.53,0-15.78-.9-.01-.96,1.98-1.07,2.66-.62,3.68-1.26,10.02-1.25,13.69,0,1.51.05,1.96,1.96,1.37,1.65-.51.36-1.67.36-1.94ZM231,471.15v.57c.37-.19.37-.38,0-.57ZM66.88,472.89l-.85.85c-.01.6,1.44-.34.85-.85ZM232.15,474.6v.57c.37-.19.37-.38,0-.57ZM234.15,480.33c-.24-1.17-.45-3.01-1.71-3.44.14.93.74,3.12,1.71,3.44ZM234.45,480.91v.57c.37-.19.37-.38,0-.57ZM104.75,482.06v.57c.37-.19.37-.38,0-.57ZM238.17,490.09c-.17-.9-2.52-9.51-4.01-8.03l4.01,8.03ZM74.91,484.92v.57c.37-.19.37-.38,0-.57ZM238.46,490.66v.57c.37-.19.37-.38,0-.57ZM239.04,492.38v.57c.37-.19.37-.38,0-.57ZM246.5,496.4v.57c.37-.19.37-.38,0-.57ZM203.74,501.56c.41-.81-.36-1.53-.56-1.14-.41.81.36,1.53.56,1.14ZM173.33,502.15c-1.2-.16-1.31-.06-1.14,1.14l1.14-1.14ZM204.89,502.72s-1.21-.22-1.14.28c.9,1.57,1.79.39,1.14-.28ZM60.85,542.88c1.86-12.51,4.5-25.22,3.44-37.87l-2.36,20.3c-1.15,5.64-1.8,11.3-2.05,17.01-.05,1.08.14.63.97.57ZM132.58,513.05c-.81-.41-1.53.36-1.14.56.81.41,1.53-.36,1.14-.56ZM249.08,513.62c-.81-.41-1.53.36-1.14.56.81.41,1.53-.36,1.14-.56ZM251.66,521.08v.57c.37-.19.37-.38,0-.57ZM219.23,534.27c.14-1.05.03-1.68-.86-2.28l.3,2.28h.56ZM97.87,536v.57c.37-.19.37-.38,0-.57ZM97.01,544.03c1.39-.52,1.53-1.41.28-2.29l-.28,2.29ZM60.85,543.46c-1.6-.29-.96.34-1.29,1.25-.7,1.93-2.18,17.71-2.2,20.26-.02,2.01,1.13,4.36.63,6.6.8-.19,1.16-3.18,1.16-3.76,0-1.65-.51-2.94-.61-4.53l2.32-19.82ZM214.36,546.9v.57c.37-.19.37-.38,0-.57ZM226.7,549.77c-.19.84.24,1.2.86,1.71.25-.57-.59-2.26-.86-1.71ZM244.2,549.77v.57c.37-.19.37-.38,0-.57ZM227.28,552.06c2.52,6.57,5.14,13.34,9.47,18.92-2.79-6.41-5.18-13.36-9.47-18.92ZM190.54,552.64c-.67-.65-1.85.25-.28,1.14.5.07.32-1.1.28-1.14ZM219.53,552.64v.57c.37-.19.37-.38,0-.57ZM216.66,553.21v.57c.37-.19.37-.38,0-.57ZM123.69,554.93v.57c.37-.19.37-.38,0-.57ZM221.53,557.22c.13-.7-.84-2.94-1.14-2.29-.13.7.84,2.94,1.14,2.29ZM123.4,558.94c.56-.6.79-2.77-.56-2.86v2.87c.19-.03.49.08.56,0ZM221.82,557.8v.57c.37-.19.37-.38,0-.57ZM117.95,558.37v.57c.37-.19.37-.38,0-.57ZM123.4,566.98c-.03-1.43.07-2.88,0-4.31-.03-.7.43-2.13-.57-2,.3,2.18-.48,3.53-1.73,5.16,1.74-.45,1.31.71,2.29,1.15ZM98.15,577.6c.34-2.37,0-6.04,0-8.61,0-.5.97-2.9-.57-3.15.23,2.93-4.42,12.39-.86,13.76.91.35,1.36-1.54,1.43-2ZM55.98,566.98v.57c.37-.19.37-.38,0-.57ZM226.12,566.98c-1.86-2.02-.4,2.94-.25,3.42.84,2.76,2.28,6.53,3.42,9.2.66,1.54,2.9,6.68,3.66,7.69.62.81,2.53.2,3.5.35-3.45-5.18-6.44-9.71-8.88-15.5-.37-.89-1.28-4.95-1.46-5.15ZM123.4,569.85c.41-.81-.36-1.53-.56-1.14-.41.81.36,1.53.56,1.14ZM257.11,583.62c-1.89-2.88-2.5-6.92-5.16-9.18,1.02,2.36,1.93,5.8,3.33,7.86.5.74.64,1.58,1.83,1.32ZM52.81,575.02c-1.09-1.07-2.76,2.5.58,2.87.17-.22-.43-2.72-.58-2.87ZM237.03,580.75l-1.14-1.14c-.16,1.2-.06,1.31,1.14,1.14ZM233.3,580.75v.57c.37-.19.37-.38,0-.57ZM219.24,588.22c-4.25.61-5.29-3.38-8.6-4.59,2.31,4.13.41,6.05,5.96,5.66.54-.04,2.71-.24,2.65-1.07ZM244.49,587.06c.52-.54-1.23-2.67-2.29-2.29-.16.13,1.5,3.1,2.29,2.29ZM75.77,589.36h-3.44v1.14h3.44v-1.14ZM84.31,590.02c-1.11-.83-2.16.21-1.64,1.64h2.29c-.28-.38-.58-1.59-.65-1.64ZM240.47,596.82c-.69-1.77-2.33-1.89-4.02-1.71.58,1.38,2.72,1.64,4.02,1.71ZM223.26,598.54c-.42-1.07-1.84-1.77-2.87-1.71.42,1.07,1.84,1.77,2.87,1.71ZM216.94,606c-.88-2.43-3.44-.71-2.29.58.33.36,1.7-.68,2.29-.58ZM226.69,608.3c-.12-2.51-3.34-2.39-5.16-2.29.92,1.81,3.59,1.35,5.16,2.29ZM38.47,607.73c-.81-.41-1.53.36-1.14.56.81.41,1.53-.36,1.14-.56ZM71.75,611.17c-1.46.28-5.28-1.56-5.16,1.14l5.16-1.14ZM72.62,611.17v.57c.37-.19.37-.38,0-.57ZM232.43,615.18c.41-.81-.36-1.53-.56-1.14-.41.81.36,1.53.56,1.14ZM235.59,615.18v.57c.37-.19.37-.38,0-.57ZM31.01,618.63c-.81-.41-1.53.36-1.14.56.81.41,1.53-.36,1.14-.56ZM24.99,619.77v.57c.37-.19.37-.38,0-.57Z"/>
      <path d="M202.31,531.98c.37.19.37.38,0,.57v-.57Z"/>
      <path d="M208.05,545.75c.37.19.37.38,0,.57v-.57Z"/>
      <path d="M227.27,535.99c-.75-.34-1.56-2.16-1.93-2.94-.55-1.16-1.05-2.71-1.5-3.94,1.86,1.47,2.52,4.7,3.43,6.88Z"/>
      <path d="M229,540.59c.29-.61,1.55,2.17,1.44,2.85l-1.44-2.85Z"/>
      <path d="M227.84,537.71c-.2.39-.97-.34-.56-1.14.2-.39.97.34.56,1.14Z"/>
      <path d="M231,544.03c.37.19.37.38,0,.57v-.57Z"/>
      <rect x="235.4" y="553.06" width=".38" height="2.02" transform="translate(-322.79 328.89) rotate(-45)"/>
    </g>
  </g>
</svg>