<?xml version="1.0" encoding="UTF-8"?>
<svg fill="#C11209" id="Layer_2" data-name="Layer 2" xmlns="http://www.w3.org/2000/svg" viewBox="0 0 159.74 175.33">
  <g id="Layer_1-2" data-name="Layer 1">
    <path d="M90.79,60.21c4.52,2.74,7.5,8.19,10.74,12.03,12.17,14.45,15.46,21.01,23.42,37.99,8.7,18.57,24.89,36.2,33.34,56.25.26.62,1.73,8.24,1.35,8.48l-4.82-2.79c-1.22-7.68-5.59-14.35-8.23-21.56-1.08,3.63-3.84,1.43-4.72,2-.71.45-1.49,4.48-1.24,5.43,1.14,4.33,15.96,13.61,19.01,16.92.64.82-2.09.12-4.81-.75-2.84-.9-5.43-2.45-7.58-4.51-3.91-3.73-7.97-6.96-11.69-11.11-7.08-7.9-18.24-26.29-26.06-30.99-8.32-5-14.87-8.94-22.27-15.68-5.43-4.95-9.05-10.85-14.27-15.72-2.45-2.29-5.12-3.47-7.56-6.18-1.29-1.44-6.18-7.06-4.29-8.68,3.59-3.08,4.03,2.3,5.13,4.03,1.64,2.58,4.67,4.49,6.49,6.92,1.36-.25,1.08-.89,1.29-1.86.52-2.43.24-5.49,1.39-7.95,2.24-4.8,8.6-8.66,13.86-7.62,3.03,3.89-3.72,2.99-6.31,4.31-7.61,3.88-7.84,15.18-1.9,20.67,2.39,2.21,1.29-2.64,1.9-4.64,1.07-3.48,4.48-6.27,7.86-7.45,2.75-.96,4.81.39,3.45,2.29-.73,1.02-6.59,2.33-8.17,5.4-.72,1.4-.95,8.79,0,10.16.73,1.06,7.82,6.81,8.91,6.84-1.19-2.92,3.45-10.95,6.28-9.37,1.53.85-2.4,3.91-2.92,5.44-.67,1.97-.9,5.99.39,7.66,4.99,6.46,11.74,6.63,16.73,11.15,3.93,3.56,19.81,26.8,21.48,27.26,1.94-3.64,3.85-6.86,8.46-5.01l-8.32-14.64c-.48-.2-2.26,2.43-3.34,1-1.87-2.47.78-3.46.59-4.06-.27-.88-5.03-8.02-5.84-7.67-2.2,6.66-5.95-.28-.48-2.08l-7.18-9c-1.53.23-4.95,5.69-6.33,3.67-.13-3.69,3.74-6.04,6.89-6.99l-8.75-17.47c-2.23,3.02-4.12-.32-6.28.33-1.79.54-7.27,7.35-8.63,5.47-.81-1.12-.56-1.59.24-2.55.5-.59,5.41-5.13,6.01-5.52,2.01-1.32,3.49-1.44,5.77-1.05.2-.77-6.88-9.41-8.03-10.83-3.03-3.75-11.01-13.9-14.73-15.88-2.58-1.38-10.06-.96-12.49.63-1.31.86-1.3,2.34-2.23,3.36-.75.81-1.98,1.25-2.62,2.11-2.36,3.21-3.45,6.75-3.95,10.66l-2.68.62c-3.33-2.05,3.7-10.96,4.03-12.91.63-3.73-10.63-8.13-13.73-8.04-3.33.09-8.15,1.85-11.5,2.67l-.82-2.21c-.19-2.66,5.43-2.68,7.42-2.77l-.2-1.42c-1.16.35-2.29.28-3.43-.09-5.02-1.62-15.04-5.08-19.06-8.01-1.76-1.29-6.4-4.84-2.71-6.35.61-.25,9.02,1.94,10.84,2.16.7.09,2.21.73,2.31-.42C23.61,34.31,13.76,22.75,0,16.58l1.01-2.21c1.94-1.5,11.79,4.83,14.99,4.61,8.26,3.09,14.03,9.82,21.59,14.06C29.76,22.18,20.13,12.92,10.63,3.56,9.9,2.62,11.77-.12,12.63,0c8.42,8.14,17.46,15.67,25.83,23.87,5.03,4.93,11.79,11.11,16.08,16.49,3.31,4.14,5.81,10.78,8.59,13.99.78.9,2.34.23,3.24,1.18,1.28,1.34,2.21,4.75,3.82,6.21l.9.34c3.16-5.27,15.29-4.53,19.69-1.86ZM38.87,38.98c-6.37-4.9-12.71-10.3-19.73-14.13l26.89,21.25c1.3-.44,0-1.46-.51-1.99-1.99-2.06-4.57-3.53-6.66-5.13ZM39.58,47.54c-3-1.06-6.06-1.14-9.13-1.75-.52.1-.16.85.08,1.08,1.42,1.34,17.19,6.48,17.9,5.02-2.73-1.04-6.29-3.44-8.85-4.35Z"/>
  </g>
</svg>