<?xml version="1.0" encoding="UTF-8"?>
<svg fill="#37309A" id="Layer_2" data-name="Layer 2" xmlns="http://www.w3.org/2000/svg" viewBox="0 0 66.03 98.12">
  <g id="Layer_1-2" data-name="Layer 1">
    <path d="M23.76,14.35h1.06c1.68-.61,8.97-10.22,10.34-6,.4,1.24-.39,7.61-.78,9.07-1.04,3.83-3.65,6.12-7.75,5.58.34.85.68,1.52.74,2.49.54,7.97,3.66,17.98,6.83,25.57,1.27,3.06,6.27,13.61,8.27,15.49.51.48.8,1.23,1.7,1.03,8.97-7.61,18.3-10.02,21.17,4.18,3.17,15.69-4.68,29.33-22.19,25.79-4.41-.89-6.13-4.02-9.65-6.13-12.3,5.17-27.73-1.7-29.11-15.59-1.13-11.29,6.19-13.75,15.84-14.38,1.04-4.87.68-9.97,1.55-14.87.57-3.19,2.24-6.46,2.62-9.62.69-5.85.03-11.83-1.48-17.44-6.84-1.22-16.03-4.71-19.22-11.38C2.42,5.51,3.14,2.89,0,1.04c2.85-3.1,5.99,1.62,8.58,2.92,5.26,2.64,13.58,3.7,15.17,10.4ZM22.31,17.23c-2.52-6.63-9.95-8.4-15.84-10.79,3.11,5.59,9.82,9.15,15.84,10.79ZM31.66,12.92c-.81-.91-8.98,6.29-4.68,8.62,3.62-1.55,4.33-5.02,4.68-8.62ZM35.98,61.87l-9.35-21.59c-2.07,7.32-3.44,14.74-4.33,22.31,4.7-.41,8.95-1.7,13.67-.72ZM52.55,85.63c2.11,2.18,6.43-10.69,1.08-11.53-1.54-.24-1.17.61-1.02,1.73.51,3.7,1.67,5.9-.07,9.8Z"/>
  </g>
</svg>