<?xml version="1.0" encoding="UTF-8"?>
<svg fill="#4C9E3C" id="Layer_2" data-name="Layer 2" xmlns="http://www.w3.org/2000/svg" viewBox="0 0 58.45 56.33">
  <g id="Layer_1-2" data-name="Layer 1">
    <path d="M34.66,53.4l.48-2.17,7.43-2.86c-8.8,1.67-18.34,2.06-26.14-3.03-9.76-6.38-12.16-20.53-7.71-30.82-3.66,2.16-5.33,6.38-5.74,10.45-1.74,17.19,8.7,30.58,26.59,28.74.98-.1,1.71-1.03,1.47.76-5.97,4.15-16.43.64-21.6-3.58C1.02,44.02-2.96,26.8,2.52,17.3,8.74,6.5,32.94-3.89,44.5,1.44c6.42,2.96,14.27,14.84,13.94,22.05-.19,4.04-4.04,15.54-6.15,19.05-3.45,5.78-10.85,10.46-17.64,10.86ZM32.97,2.54c-7.13.99-19.52,8.27-20.57,16.01-2.73,20.11,12.36,31.62,31.08,24.6,10.7-4.01,14.3-19.09,9.68-28.78-1.93-4.06-8.29-10.92-12.72-11.79-1.07-.21-6.38-.19-7.47-.04Z"/>
    <path d="M34.48,25.14c-5.25,5.25-16.85-14.81-7.55-13.36,4.2.65,10.17,10.74,7.55,13.36ZM32.49,23.17c.8-2.13-4.28-10.35-6.47-8.63.98,3.73,3.34,6.46,6.47,8.63Z"/>
    <path d="M45.24,26.99c5.43,4.8,1.25,13.91-6.28,7.36-8.39-7.29.2-12.74,6.28-7.36ZM38.26,27.49c-.04,1.8,6.49,9.04,7.2,5.38.43-2.18-4.71-6.39-7.2-5.38Z"/>
    <path d="M28.9,28.92h4.32c.44,4.52-8.42,11.19-12.05,7.74-.46-.44-1.53-2.99-1.47-3.66.27-3.14,10.04-9.62,9.21-4.07ZM29.61,31.81l-4.58-1.37-2.61,2.45,1.94,1.7c1.17.31,4.55-1.49,5.24-2.77Z"/>
    <path d="M41.65,13.94c7.87-2.36,2.49,11.3-4.1,8.15-3.51-1.68,2.33-7.62,4.1-8.15Z"/>
  </g>
</svg>