<?xml version="1.0" encoding="UTF-8"?>
<svg fill="#72441E" id="Layer_2" data-name="Layer 2" xmlns="http://www.w3.org/2000/svg" viewBox="0 0 44.79 102.93">
  <g id="Layer_1-2" data-name="Layer 1">
    <path d="M10.18,57.47l9.96-29.28,6.97-12.47c.98,1.53-1.57,3.33-2.17,5.03-.62,1.76-.69,3.99-1.27,5.93-.53,1.78-1.89,3.05-1.95,4.88,2.79-1.55,4.81-4.12,7.19-6.13.57-.48,1.45-1.89,2.16-.72-2.43,4.67-7.05,7.68-10.08,11.52-4.75,6.02-5.9,14.63-7.91,21.96l4.87-8.44c.55.1,2.97-5.8,3.04-2.74-3.94,7.68-8.04,15.8-10.44,24.14-2.88,9.98-2.78,21.39-4.68,31.69-1.79.61-2.19-2.03-2.19-3.26-.03-4.37,3.14-15.08,2.21-18.55-.16-.62-1.55-.61-2.19-2.28-.98-2.54-3.19-15.61-3.49-18.84C-1.36,43.07,6.73,21.32,18.89,9.67,30.2-1.18,45.36-7.18,44.77,15.39c-.41,15.65-7.48,28.33-16.01,40.87-5.76,8.47-13.58,16.36-17.88,25.69-1.31.18-.6-1.5-.4-2.2,2.79-9.8,14.21-20.93,19.86-29.82,8.85-13.92,14.2-30.06,9.01-46.48-5.89-5.92-22.65,12-25.88,16.65C1.02,38.06,2.58,55.31,5.35,75.63c.11.8.2,3.51,1.22,3.44.47-3.37,2.14-7.9,2.19-11.19.04-2.64-1.43-5.41-1.45-7.89-.1-9.69,1.84-23.36,5.96-32.19.12-.25,3.17-6.62,3.38-3.82-1.53,2.82-2.93,6.1-3.78,9.19-.61,2.22-2.69,10.03-2.69,11.71v12.6Z"/>
  </g>
</svg>