<?xml version="1.0" encoding="UTF-8"?>
<svg fill="#1F32B9" id="Layer_2" data-name="Layer 2" xmlns="http://www.w3.org/2000/svg" viewBox="0 0 190.07 456.91">
  <g id="Layer_1-2" data-name="Layer 1">
    <g>
      <path d="M108.46,229.81c-2.09-.42-.9-2.39-1.05-2.53-.52-.49-1.59,1.25-1.28-2.76.66-8.62,12.6-19.85,20.25-23.17-3.04-7.08-5.44-14.46-7.06-22.01-3.28-15.27-4.04-30.64-2.16-46.2.15-1.22.62-2.41.79-3.63-1.21.2-5.11-.47-5.71.4-2.17,7.95-3.79,16.06-4.82,24.26-.25,1.95.44,6.85-1.7,7.99-2.63,1.39-9.27.2-12.43,1.48-6.95.36-20.51-1.17-26.63-4.55-2.99-1.65-1.48-5.64-.85-8.61.71-3.37,3.28-12.65,4.74-15.49.27-.52,2.16-1.34,1.89-1.69-5.71-1.7-10.85-5.46-15.18-9.48-3.82-3.55-5.29-7.44-8.26-11.56-.36-.09-3.86,1.77-4.51,2.15-1.49.87-4.82,3.98-6.2,3.55-2.77-.87-.8-2.95-.51-4.36.44-2.15.58-4.65,1.13-6.87.72-2.89,1.96-5.2,2.76-7.99-4.67-1.04-12.57-3.46-13.07-9.09-.38-4.25.5-13.46.99-17.96.64-5.75,1.68-12.19,4.08-17.32.39-.82.52-1.46.72-1.87,1.48-2.97,2.39-4.68,5.84-5.56,1.5-.38,7.16-.41,7.38-.71.43-.6.59-2.93.18-3.58-1.77-1.04-3.71,1.44-5.32-.56-2.65-3.29,5.19-4.35,5.46-5.15.06-7.32.88-14.65,2.7-21.74.33-1.29,1.91-7.26,2.51-7.81.16-.15,3.56-1.58,3.99-1.7,7.91-2.15,18.95-4.54,27.1-2.84,1.13.24,3.68,1.45,4.41,1.46s3.59-1.61,4.76-1.96c3.84-1.15,13.36-2.71,17.19-2.26.86.1.39.57.81.88l.2-.84c.24-.13,4.87.45,5.51.6,2.13.52,4.9,3,6.12,3.19s2.23-.49,3.34-.46c6.48.2,19.21,3.63,23.17,8.89.39.51,1.03,2.13,1.02,2.74-3.85,9.18-8.09,18.22-10.92,27.8,1.65.27,2.94.52,4.22,1.69.31.28,3.06,3.37,3.15,3.59,1.2,2.69-.6,5.2-3.32,3.71-.81-.44-.26-.92-.4-1.09-.43-.51-1.72-2.18-1.98-2.4-3.63-3.23-4.39,2.12-5.48,4.62,1.84.06,3.48-.92,5.46-.9,4.66.04,8.24,4.19,8.8,8.62s-.86,13.69-3.13,17.74c-.84,1.49-2.98,3.1-3.13,4.51-.08.77.7.49.98,1.12,1.15,2.61,1.48,5.14.51,7.9-.2.56-2.83,4.14-3.19,4.4-2.56,1.87-7.7,1.88-10.09-.39-1.36-1.28-1.51-4.27-1.68-4.44-.09-.09-2.41.35-2.5.44-.31.32.06,4.69-.05,5.6-.77,6.71-3.96,15.46-7.48,21.22-.49.8-3.97,4.68-3.45,5.18l9.35,2.64c3.55,1.6,7.95,2.98,10.89,5.57.94.83,3.32,3.59,4.2,4.66,1.19,1.45,3.7,7.18,4.21,7.6.78.63,2.92-2.48,5.08-.03,3.81,4.33-4.66,8.67-3.61,11.16l6.97,6.97c7.14,8.85,13.43,17.94,19.73,27.47,1.05,1.59,3.61,7.2,5.08,7.5,1.2.24,2.9-.3,4.73.48.75.32,4.5,3.21,4.96,3.8,1,1.28,1.68,5.07,1.23,6.6-.89,3-5.9,2.69-8.01,3.36-3.56,1.14-4.51,3.71-6.86,5.78-4.37,3.87-24.81,17.37-29.8,18.29-.8.15-1.26.04-2.02-.17l5.89,18.8c.27,4.69,4.43,10.66.23,14.5-.82.75-2.38.58-2.12,2.13,3.31,8.66,6.28,17.58,8.86,26.5,5.47,18.87,9.45,37.94,15.1,56.88,5.26,17.59,10.2,35.78,14.78,53.16.51,1.95,2.45,6.36,1.71,7.98-.78,1.7-2.85,1.36-3.97,1.93-.9.46-1.63,1.4-2.45,1.76-7.64,3.37-18.14,3.37-26.24,5.79,1.7,1.85,3.7,3.52,5.33,5.41,5.12,5.91,9.99,13.06,15.47,18.68,1.27,1.3,3.9,1.98,4.1,4.15.46,5.06-5.11,3.43-8.14,2.63-4.88-1.29-9.36-4.04-13.94-5.87-8.24-3.27-16.62-5.6-24.65-9.07-1.49-.64-7.54-2.81-8.12-3.79-1.28-2.16.52-7.36.87-9.82-2.76-.94-5.27-.02-7.8.03-.9.02-1.75-.49-2.53-.46-4.87.22-13.08,3.19-16.65-1.05-2.67-3.17-2.85-17.62-3.37-22.34-1.77-16.18-2.72-31.07-3.79-47.21-.13-2.02.09-4.08,0-6.1-1.19-.34-.95,1.22-1.07,1.98-3.23,20.87-2.11,42.2-4.88,62.66-.3,2.18-1.93,6.76-1.94,8.14,0,1.56,1.87,2.69.32,4.56-2.18,2.61-5.66,1.01-8.23,1.14-2.86.14-5.76.98-8.66.95-.38.23-.02,3.89.07,4.6.36,2.88,2.82,7.95-1.3,9.34-2.79.94-10.48,1.92-13.72,2.29-9.89,1.13-19.95,1.32-29.87,2.58-3.8.49-8.89,2.39-12.64,2.02-3.34-.34-5.27-2.54-2.35-5.2,2.61-2.37,8.6-5.13,11.91-7.06,2.32-1.35,4.54-2.65,6.87-4.06,3.38-2.06,6.76-4.15,10.27-5.98-.02-.34.18-.81-.2-.82-1.67-.03-2.68-.28-4.22-.43-6.31-.61-10.68-1.47-16.97-2.84-4.37-.95-9.75-.33-10.67-6.22,3.87-21.43,8.44-42.63,12.78-63.96,3.75-18.46,8.33-37,11.24-55.77,1.55-10.04,1.97-20.18,4.23-30.07-2.19-.6-4.03-.55-4.22-3.17-.3-4.24,2.55-11.39,2.23-16.05,1.39-.36.24-1.27.3-2.53.27-4.99,2.54-11.02,2.58-15.61.01-1.46-3.21-5.77-.23-5.55,1.38.1,8.74,14.48,11.36,16.76.95.83,4.16,2.62,5.28,1.91,1.39-.88,1.36-6.59.75-7.92-.47-1.02-4.9-3.92-6.22-5.7-.31-.41-1.02-1.54-1.27-2.01-.51-.92,2.14.06.84-1.05-.19-.16-1.15.53-1.26.42-.54-2.48-2.76-8.94,1.86-8.43,2.6.29,2.75,2.28,3.79,3.63.7.91,1.49,1.47,2.17,2.68,1.1,1.98,2.32,7.48,4.29,7.93,2.96.67,4.36-.81,5.14-3.53.23-.82.39-4.24.24-5.01-.08-.4-1.81-5.35-1.99-5.59-.31-.4-5.09-1.98-6.34-2.72-2.67-1.58-8.92-7.68-7.04-10.98.31-.55,2.14-.97,2.75-.95,2.6.06,7.35,3.94,9.06,5.9.33.38,3.57,5.73,3.79,3.76.86-4.32,1.06-7.46-.56-11.63-1.4-3.61-4.72-7.69-7.29-10.18-1.88-1.83-3.35-3.74-6.27-3.88-.6-.03-1.26.4-1.83.41-1.05.03-2.05-.43-3.14-.11-2.5.73-7.69,11.37-8.31,14.25-.11.11-1.08-.59-1.26-.42-.84.77.93.66.85,1.43-.13,1.38-2.66,7.13-4.08,7.38-2.17.38-1.08-3.57-.76-4.58,1.71-5.47,6.08-15.41,10.52-18.99,1.16-.94,6.36-3.34,6.57-3.66,1.72-2.55,1.92-9.91,3.33-13.05.16-1.86-1.97-1.56-3.17-2.24-2.42-1.36-4.59-3.13-7.49-3.89l-3.86-3.29c-2.66,5.65-5.26,11.33-7.86,17.01-2.85,6.23-5.39,12.53-8.16,18.81-.76,1.72-3.8,8.78-4.96,9.37-3.26,1.68-8.46.94-8.74,6.22,1.5.12,2.95.67,4.45.86.95.11,1.8-.28,2.53-.23,2.04.14,3.67,3.78,5.04,5.28,1.11,1.22,2.77,2.98,4,4,2.13,1.77,10.6,6.07,10.96,8.02.36,1.93-.48,2.51-2.32,2.5-1.84-.01-8.53-3.85-10.21-5.12-3.11-2.34-5.41-5.98-7.71-8.76-.4-.49-.44-1.46-.82-1.74-.72-.52-2.17.28-3.16.26-3.33-.09-6.5-1.78-6.87-5.3-.57-5.43,5.5-9.97,10.47-10.16,5.2-13.08,11.01-25.37,17.92-37.61.7-1.25,3.02-4.11,3.31-5.11.21-.72-2.43-4.46-.85-6.76.71-1.02,2.2.05,2.92-.07s6.85-10.78,8.09-12.52c4.36-6.08,9.9-14.12,18.54-11.03.72.26,1.26,1.12,1.71,1.21.97.18,1.66-1.31,1.74,1.46-3.93,14.93-8.66,29.7-12.31,44.6-.67,2.72-1.84,5.25-1.83,8.15.09.48,3.57,2.68,4.37,3.4,6.69,6,12.91,15.86,10.17,25.19-.61,2.07-2.65,3.41-2.76,3.98-.08.41,2.07,4.74,2.3,5.91.88,4.48-.44,13.5-6.36,13.66-.94.03-3.04-.66-3.16.19,1.31,4.75-.6,10.9-6.49,10.29-.49-.05-2.41-.63-2.69-.91-.4-.4-.41-1.47-.54-1.57-.05-.04-.62.38-1.21.18-2.01-.66-4.17-5.27-5.18-7.06-.31-.56-.42-1.02-.97-.31l-4.42,25.71c5.5.66,10.69,2.71,16.08,3.94,5.16,1.18,10.46,1.81,15.62,2.92,4.56.98,9.93,3.26,14.45,3.67,6.48.59,13.72.06,20.24.41,7.41.4,13.15,1.88,20.95.75,8.56-1.24,13.32-5.45,20.25-9.25,1.29-.71,4.09-.78,4.45-1.88l-5-20.37c-1.77.12-1.99,2.39-2.95,3.58-2.01,2.5-6.29,7.01-9.54,7.24s-7.36-2.01-6.27-5.77h-.63s.84-5.89.84-5.89c-14.09,5.77-9.61-5.51-6.32-13.49-1.94-.26-4.72.36-6.53,0ZM102.35,3.48c.3-.59-.27-1.12-.41-.84-.3.59.27,1.12.41.84ZM92.45,3.49v.42c.27-.14.27-.28,0-.42ZM117.94,5.6c-8.26-1.98-17.11-.73-25.29,1.26.85,2.82,2.08,4.48.51,7.45-1.9,3.59-9.64,4.69-11.47.35-1.71-4.06-.02-4.8,2.53-7.6.25-1.12-2.74-1.36-3.59-1.46-6.47-.8-10.98.78-16.97,2.41-2.73.74-7.33.47-7.99,3.79-1.18,5.91-2.07,11.67-2.7,17.55-.14,1.33-1.63,6.82.08,6.83,5.29.02,10.77-.48,16.19-.13,5.12.33,9.65,1.71,14.39,2.37,1.46.2,2.98-.18,4.42.23.87.25.8.99.86,1.01.17.06,2.49-.45,3.54-.36,6.47.57,13.29,3.22,19.78,4.24l20.6-1.23c.21-2.06,1.77-2.99,2.47-4.39,1.91-3.86,7.3-17.35,7.91-21.2.77-4.88-3.98-4.82-7.23-6.62-2.04-.04-8.72-2.77-10.2-2.36-1.11.3-.08,2.52-.65,4-3.47,8.89-19.35,2.47-10.13-4.23.94-.68,2.49-.61,2.93-1.91ZM139.65,8.54v.42c.27-.14.27-.28,0-.42ZM89.23,9.02c-1.89-1.17-6.82,4.86-2.33,4.55,3.35-.23,3.91-1.76,2.33-4.55ZM121.31,8.97c-.56-.58-8.59,3.4-4.01,3.83,2.44.23,4.23-1.36,4.01-3.83ZM114.99,9.81c-.46-.46-1.3.38-.84.84s1.3-.38.84-.84ZM144.92,19.5c1.28.97,2.67-2.89,1.47-3.36-.99-.39-.55,2.9-1.47,3.36ZM147.66,18.24v.42c.27-.14.27-.28,0-.42ZM145.13,19.92v.42c.27-.14.27-.28,0-.42ZM142.18,24.98v.42c.27-.14.27-.28,0-.42ZM65.05,36.36v.42c.27-.14.27-.28,0-.42ZM67.58,36.36v.42c.27-.14.27-.28,0-.42ZM68.84,38.04v.42c.27-.14.27-.28,0-.42ZM58.51,41.41l-.2-2.95c-.82.4-.53,2.67.2,2.95ZM61.47,38.47c-.88-.12-.96-.04-.84.84l.84-.84ZM54.72,39.73c-3.09-.72-3.4,5.44-2.97,7.3.2.86,3.45.73,4.23.7-1.33-2.55-1.41-5.18-1.27-8ZM85.91,41c-2.17-1.18-2.16,2.95-2.75,4.61-1.41,3.99-3.23,8.36-6.94,10.57.83,2.19,8.85,6.74,8.86,8.63.02,2.81-5.74.52-7.07-.09-3.78-1.74-8.12-5.48-12.66-7.58-1.13-.52-2.94-.05-2.39-1.37-5.62-1-12.33-3.13-18.3-3.13-2.07,0-3.15-.2-4.35,1.56-3.42,5.03-5.37,19.04-5.59,25.37-.13,3.56,0,7.08.26,10.68,2.81,1.26,5.73,2.46,8.69,3.32,15.15,4.35,23.81,3.35,38.93,2.84.72-.02,1.54-.58,2.27-.56,2.57.06,2.84,3.73,3.61,5.59.39.93,1.28,1.54,1.53,2.26.61,1.71.22,7.1,1,8.06.03.04.55-.26,1,.02,1.74,1.1.5,1.47.07,2.56-.2.5.4,1.35-.55,1.65-7.45-1.53-15.87-3.31-23-5.99-1.57-.59-4.02-2.51-5.7-2.74-2.53-.33-8.38,3.08-11.07,3.71-.48.65,4.73,5.22,5.46,6.12,1.02,1.25,1.54,3.1,2.79,4.38,7.52,7.66,17.16,10.08,27.79,9.33,5.63-.4,7-2.55,11.47-4.13,2.14-.75,5.14-1.02,7.56-2.13,7.61-3.48,12.79-16.03,14.63-23.64.65-2.68.73-6.44,1.38-8.82.45-1.64,2.58-4.4,4.26-5.02l9.37-3.49c.31-1.9-4.01-1.47-4.22-1.68-.38-.38.16-1.89.87-2.3,3.26-1.86,6.09,1.16,8.02-.41.93-.76,3.57-4.47,4.05-5.64,1.31-3.22,2.38-11.43.88-14.53-.54-1.11-2.81-2.99-4.01-3.18-3.38-.55-8.18,3.59-10.96,4.07-6.77,1.16.59-11.09.29-12.33-.09-.38-.63-.67-1.04-.69l-18.06.5-4.8,9.11c-3.05,4.11-9.5,9.15-14.84,7.06-1.56-.61-6.42-4.78-6.98-6.33-.3-.81-.88-4.17-.98-5.1-.4-3.72-.48-7.73,1.21-11.11ZM58.51,43.1c.3-.59-.27-1.12-.41-.84-.3.59.27,1.12.41.84ZM117.31,44.37v.42c.27-.14.27-.28,0-.42ZM95.18,45.21c-1.31-.22-.65.38-.83,1.04-.91,3.2,1.19,1,.83-1.04ZM64.42,49.85c-.89-.91-2.4.03-.21.84.36.05.24-.8.21-.84ZM101.3,49.42v.42c.27-.14.27-.28,0-.42ZM99.61,50.27v.42c.27-.14.27-.28,0-.42ZM142.18,52.8v.42c.27-.14.27-.28,0-.42ZM91.39,53.64h-1.26s0,.84,0,.84c.58.13,1.12-.23,1.26-.84ZM86.97,55.75v.42c.27-.14.27-.28,0-.42ZM94.33,57.86c-2.32.1.81,2.11,1.69,1.67-.27-1.05-1.86-.43-1.69-1.67ZM88.65,59.54v.42c.27-.14.27-.28,0-.42ZM91.81,60.81c-.59-.3-1.12.27-.84.41.59.3,1.12-.27.84-.41ZM147.02,73.02c.3-.59-.27-1.12-.41-.84-.3.59.27,1.12.41.84ZM147.66,74.29v.42c.27-.14.27-.28,0-.42ZM140.59,92.29c1.2-1,1.54-3.92.71-5.32-1.18-2.01-3.09-1.23-1.02-.25-.64,1.52-6.57,3.86-6.74,4.22-.42.9,2.15,2.56,2.83,2.66.62.1,3.74-.92,4.22-1.32ZM143.87,93.26v.42c.27-.14.27-.28,0-.42ZM134.8,95.78c.3-.59-.27-1.12-.41-.84-.3.59.27,1.12.41.84ZM84.23,100.42c-.36-.92-.7-1-1.26-.2l1.26.2ZM47.13,101.26c.48-.49-.18-1.36-.84-.21-.05.37.81.24.84.21ZM51.35,101.27c-.55-.58-1.95,1.74-2.11,2.1.49.45,2.55-1.63,2.11-2.1ZM80.85,101.27c-.8-.66-1.66,1.49-1.26,2.1.18.4,1.36-2.02,1.26-2.1ZM43.13,102.53v.42c.27-.14.27-.28,0-.42ZM56.62,121.91v.42c.27-.14.27-.28,0-.42ZM135.07,135.97c-2.29-2.17-10.48-6.38-13.57-6.49-.55-.02-1.36-.08-1.7.42l-.62,17.08,1.29,17.5c.69-.39,1.2-.89,1.98-1.18.86-.32,4.04-1.45,3.5-.09h.41c.01-.46-.15-.96.27-1.31.65-.55,3.74-1.81,4.93-2.56,3.09-1.98,6.85-4.4,9.37-7.07.65-.68,2.2-2.88,2.02-3.72-.35-1.58-2.61-5.97-3.58-7.4-.69-1.02-3.43-4.37-4.3-5.19ZM61.04,132.45c-2.4-.2-4.48.05-6.61,1.18-3.69,1.95-9.38,10.41-11.76,14.16-.82,1.29-3.95,6.35-4.21,7.42-.34,1.41,1.67,3.14,2.81,3.97s7.21,4.1,8.39,4.27c.48.07.59-.05.87-.43l10.52-30.58ZM46.5,135.82v.42c.27-.14.27-.28,0-.42ZM105.72,136.25c-3.18,1.36-6.16,3.38-9.59,4.11-2.48.53-12.57,1.14-15,.91-2.59-.25-5.91-1.37-8.47-2.05l-.59.68-2.64,15.45c.26.38,4.53,1.6,5.43,1.85,5.95,1.68,10.55,2.31,16.73,1.8,3.74-.31,7.43-1.33,11.17-1.26l2.95-21.49ZM139.65,137.51v.42c.27-.14.27-.28,0-.42ZM106.98,144.68c-.59-.3-1.12.27-.84.41.59.3,1.12-.27.84-.41ZM105.09,156.05v.42c.27-.14.27-.28,0-.42ZM183.57,202.54c-2.95-2.06-5.97-.35-7.24-1.4-9.77-15.07-19-30.59-31.24-43.81-2.47,1.38-4.11,3.66-6.3,5.44-1.07.88-6.17,4.93-6.97,5.25-.71.29-6.52,2.07-7.07,2.11-1.02.08-2.07-.23-3.01-.61.26.96.64,6.47.88,6.71.11.11,1.11.02,1.61.27,2.51,1.27,6.06,7.58,8.04,9.97.78.94,2.91,1.34,1.7,3.08.56.18.76-.31,1.47.15,1.67,1.09,3.81,4.25,5.43,5.78,3.12,2.95,6.7,6.18,10.12,8.62.81.58.24,1.6,2.47,1.15,2.85-.58,9.57-4.3,12.29-2.41,1.04.72.87,1.73.06,2.52-.72.7-7.52,2.31-9.3,2.92-2.8.96-6.03,2.01-8.75,3.05-1.3.49-3.72,3.04-3.7.13.02-3.29,3.82-3.71,3.82-4.22-.62-.73-1.6-.88-2.31-1.47-1.02-.86-6.03-5.49-6.38-6.19-.1-.2.2-.64.16-.79-.02-.09-.7.08-1.16-.36-4.7-4.44-9.39-11.09-12.6-16.61-.58-1-.81-2.82-2.15-3.45.8,4.59,1.96,9.6,3.49,14,.59,1.69,2.64,7.1,3.49,8.31s3.75,1.76,5.26,3.17c2.08,1.94,8.01,11.33,8.38,13.96.27,1.99-.1,3.48-2.09,1.67-1.48-1.35-1.93-5.99-2.97-7.57-.58-.88-1.54-.77-1.95-1.22-.38-.42-.8-2.22-1.39-3.03-4.73-6.6-11.58-1.38-16.02,2.52s-9.99,9.92-10.06,16.19c1.65.38,5.64,1.01,6.94.07.68-.49,3.94-8.02,5.31-9.86,2.05-2.78,7.52-8.17,9.83-2.81,1.87,4.34-3.1,10.49-6.64,12.74-1.74,1.11-4.56,1.84-5.73,3.12s-5.17,11.04-4.27,11.95c1.7-.03,6.01-1.67,7.15-2.76,1.1-1.05,2.43-6.85,3.44-8.78,1.11-2.14,3.8-5.23,5.99-6.28.66-.31,1.26.11,1.47-.02.1-.06.08-.72.27-.71,4.07.3,1.57,5.56.52,7.66-3.33,6.68-9.58,7.82-9.59,16.57,0,1.91.35,4.5,2.73,4.41,3.47-.14,6.5-5.02,8.62-7.42,1.06-1.8,3.95-9.1,5.85-9.34.63-.08,1.57.48,1.8.35.05-.03-.42-.6-.02-1.03.24-.26,4.41-3.29,4.68-3.41.51-.23,1.19.27,1.23.22.11-.11-.14-.98.69-1.64,2.34-1.87,8.79-5.57,11.69-7.27,1.16-.68,2.65-.73,2.76-.84.22-.22.18-1.06.59-1.51,1.34-1.46,4.75-3.4,6.41-4.76,1.2-.98,2.21-2.33,3.38-3.36l.63.84c0-.55-.57-1.13-.24-1.68.13-.21,3.67-2.51,4.07-2.7,2.15-1,5.29.3,6.76-1.29.43-.46-.17-2.06-.45-2.47-.07-.11-1.73-1.78-1.84-1.85ZM74.74,157.74v.42c.27-.14.27-.28,0-.42ZM75.16,159v.42c.27-.14.27-.28,0-.42ZM76.85,159.42v.42c.27-.14.27-.28,0-.42ZM121.31,165.74c.3-.59-.27-1.12-.41-.84-.3.59.27,1.12.41.84ZM29.01,167.01c-.59-.3-1.12.27-.84.41.59.3,1.12-.27.84-.41ZM122.37,204.52v.42c.27-.14.27-.28,0-.42ZM46.5,205.36v.42c.27-.14.27-.28,0-.42ZM49.24,207.05c.48-.49-.18-1.36-.84-.21-.05.37.81.24.84.21ZM50.51,207.9c-.59-.3-1.12.27-.84.41.59.3,1.12-.27.84-.41ZM52.37,211.51c-.39-.36-2.59-2.85-3.13-2.35,1.05,2.34,2.97,3.9,5.48,4.63-.64-.8-1.58-1.57-2.35-2.28ZM115.63,212.53v.42c.27-.14.27-.28,0-.42ZM52.41,214.21v.42c.27-.14.27-.28,0-.42ZM112.68,215.06v.42c.27-.14.27-.28,0-.42ZM128.9,215.06c-.72-.74-4.31,3.11-4.82,3.82s-3.15,5.87-2.76,6.29c3.78-1.55,8.03-5.78,7.58-10.11ZM54.09,215.9v.42c.27-.14.27-.28,0-.42ZM121.95,218.01v.42c.27-.14.27-.28,0-.42ZM45.45,220.96c-.59-.3-1.12.27-.84.41.59.3,1.12-.27.84-.41ZM47.98,228.54c.4-.5-1.67-3.99-2.52-4.21.03,1.16.89,2.4,1.48,3.38.14.23.4,1.64,1.04.83ZM131.85,227.7c-.9-.22-.94.5-1.36.96-1.1,1.21-2.21,2.85-2.43,4.51,1.75-1.42,2.87-3.44,3.79-5.47ZM23.74,229.81v.42c.27-.14.27-.28,0-.42ZM34.91,230.23c-.59-.3-1.12.27-.84.41.59.3,1.12-.27.84-.41ZM61.46,231.92c-.73-.73-2.15.68-.62,1.26.9.34.75-1.13.62-1.26ZM39.12,235.28c.3-.59-.27-1.12-.41-.84-.3.59.27,1.12.41.84ZM56.2,235.29v.42c.27-.14.27-.28,0-.42ZM36.81,236.55v.42c.27-.14.27-.28,0-.42ZM114.36,239.5v.42c.27-.14.27-.28,0-.42ZM40.18,239.92v.42c.27-.14.27-.28,0-.42ZM42.07,270.28c-6.72-1.77-4.6-.71-5.21,3.92-1.43,10.92-2.13,21.74-3.92,32.65-4.09,24.94-10.09,49.51-15.2,74.15-.78,3.75-1.07,10.81-2.62,14.16-.78,1.68-1.13,5.27-1.58,7.77-.83,4.68-1.63,9.44-2.47,14.02l8.05,2.33,1.05-.54c.59-13.48,4.69-26.35,5.91-39.72l.82.21c-.33-.78-.45-2.07-.36-2.89,3.09-30.66,9.24-61.03,13.46-91.5.67-4.87,1.89-9.67,2.08-14.56ZM42.71,271.53v.42c.27-.14.27-.28,0-.42ZM50.93,273.21c-.54-.9-2.84-1.19-3.91-1.36-.39-.07-.83-.54-1.14.32-.26.72-.23,1.02.62,1.05,1.47.06,2.98.25,4.43,0ZM44.98,422.37c1.39-9.4,2.21-18.92,3.48-28.34,4.46-33.18,10.18-66.2,15.82-99.24,1.05-6.12,1.85-12.29,3.04-18.38l-.67-.57c-1.65.05-10.06-2.48-10.71-1.53-1.44,7.65-2.3,15.35-3.36,23.11-5.43,26.83-9.56,54.14-12.61,81.37-1.43,12.76-2.45,28.06-5.09,40.43-.25,1.16-1.61,1.52-.2,1.94,1.14.34,9.73,1.56,10.3,1.2ZM143.02,274.06v.42c.27-.14.27-.28,0-.42ZM139.02,274.91c-.4-.29-8.8,3.11-9.28,3.57-.73.72-.34,2.04-.2,2.98,1.25,8.18,3.6,16.39,5.15,24.53,3.93,20.56,7.59,41.24,11.12,61.79,2.6,15.13,7.63,29.01,11.91,43.63.4,1.37.67,6.63,2.54,6.76l11.22-2.28c1.1-.71-.33-2.07-.44-3-.09-.78.34-1.24.38-1.68.01-.12-.91-.45-1.34-1.95-1.2-4.22-2.14-8.42-3.46-12.57-6.39-20.11-10.7-39.96-15.29-60.58-4.44-19.98-8.8-39.85-12.57-59.95-.1-.53.1-.81.24-1.26ZM70.32,277.01h-1.26c-.19.18-.27,4.49-.39,5.25-.07.45-.97.19-1.29.23-.33,1.39.84.6,1.26.86l-2.1,18.95,1.08-1.05c.98-8.11,2.39-16.08,2.71-24.24ZM31.96,278.27c.3-.59-.27-1.12-.41-.84-.3.59.27,1.12.41.84ZM76.22,278.28c-.5-.66-.77,0-.84.62-.16,1.32.34,2.73-.42,4.01,1.3.21.67-.33.83-1.05.13-.59.63-3.33.43-3.58ZM88.02,279.12c-3.23-.16-6.54.14-9.69-.42-.69,7.37-1.27,14.77-2.12,22.12-.11.91-.16,2.97-1.25,2.75-.2.69.63.22.77.61.02.07-.12,1.22-.15,1.49-1.65,12.72-3.73,25.36-5.31,38.09-3.06,24.62-6.24,49.21-9.69,73.76-.28,1.97-1.31,3.92-1.04,5.77.63.86,12.32.48,12.88-.77.91-2.02,1.21-10.57,1.29-13.36.33-11.44-.15-21.16.82-32.89,2.13-25.67,4.65-51.51,9.39-77.01,1.25-6.72,3-13.38,4.1-20.13ZM90.12,281.64l-.21-2.1c-.71.48-.19,1.32-.63,2.1h.84ZM96.43,279.98l-4.57-.39c-1.32,5.04.08,10.31.58,15.36,1.02,10.29,1.57,20.75,2.32,31.16.16,2.21,1.22,5.41.74,7.49-.1.44-.74.75-.76,1.36,0,.25.77.14.86.49,1.51,6.17,1,17.51,1.42,24.36,1.17,18.82,1.91,41.83,6.08,59.99.2.87-.55,1.64.28,2.22,2.34.29,4.69.45,6.92-.51.6-.92-1.74-15.46-2-17.91-3.9-36.74-8.58-73.99-11.43-110.79-.33-4.27-.1-8.59-.44-12.83ZM126.37,284.17c-.72-1.18.85-3.8.84-4.01-.06-1.21-3.05.19-3.78.22-.38.5,2.16,3.56,2.94,3.79ZM156.29,325.06c-3.81-14.56-7.46-29.24-11.75-43.67l-.89-1.43c4.04,14.54,7,29.36,11.68,43.74l.96,1.36ZM99.4,280.38c-1.1-.14-.87.12-.8,1.01.25,3.29,1.66,7.07,1.76,10.47l1.57,5.38c.22-5.82-1.3-11.27-2.53-16.86ZM130.59,421.99h9.9c.15,0,.49-.46.56-.7.85-2.63-2.14-10.97-2.42-14.34-1.39-16.67-5.69-32.45-8.78-48.92-3.95-20.98-6.71-41.96-9.86-63.06-.51-3.44-1.22-9.61-2.08-12.67-.44-1.56-.51-1.09-1.44-1.09h-6.95c3.25,13.58,5.01,27.43,6.5,41.3,3.32,12.16,3.77,24.93,5.69,37.34,2.29,14.78,5.71,29.94,7.58,44.68.73,5.77.77,11.69,1.31,17.45ZM52.83,281.22v.42c.27-.14.27-.28,0-.42ZM89.7,282.91c.3-.59-.27-1.12-.41-.84-.3.59.27,1.12.41.84ZM44.82,282.49v.42c.27-.14.27-.28,0-.42ZM75.79,284.18c-.59-.3-1.12.27-.84.41.59.3,1.12-.27.84-.41ZM44.82,285.44v.42c.27-.14.27-.28,0-.42ZM44.61,289.23l-.42-2.94c.44.94-1.28,3.3.42,2.94ZM129.53,288.81v.42c.27-.14.27-.28,0-.42ZM125.32,290.92v.42c.27-.14.27-.28,0-.42ZM44.18,292.18c.3-.59-.27-1.12-.41-.84-.3.59.27,1.12.41.84ZM102.14,298.93v.42c.27-.14.27-.28,0-.42ZM33.02,299.35v.42c.27-.14.27-.28,0-.42ZM63.78,301.88v.42c.27-.14.27-.28,0-.42ZM66.94,304.82v-2.1s-.41,0-.41,0c.02,1.14-1.14,2.4.41,2.1ZM130.38,309.04v.42c.27-.14.27-.28,0-.42ZM130.38,309.88v.42c.27-.14.27-.28,0-.42ZM122.79,311.15v.42c.27-.14.27-.28,0-.42ZM125.74,312.41v.42c.27-.14.27-.28,0-.42ZM130.8,312.83v.42c.27-.14.27-.28,0-.42ZM48.61,314.52v.42c.27-.14.27-.28,0-.42ZM135.01,314.52v.42c.27-.14.27-.28,0-.42ZM83.8,335.17c1.15-6.24,2.24-12.6,2.11-18.96l-1.03,4.43c0,3.86-.9,7.68-1.46,11.41-.09.59-.39,2.89.38,3.12ZM91.6,317.89v.42c.27-.14.27-.28,0-.42ZM29.65,321.26v.42c.27-.14.27-.28,0-.42ZM156.51,326.32v.42c.27-.14.27-.28,0-.42ZM35.75,327.59c-.16-.14-1.58-.27-1.26.62.47,1.3,1.7-.22,1.26-.62ZM157.35,329.69v.42c.27-.14.27-.28,0-.42ZM133.75,330.11v.42c.27-.14.27-.28,0-.42ZM158.4,332.64c.1-.77.02-1.23-.63-1.68-.06.65-.16,1.57.63,1.68ZM87.81,332.22v.42c.27-.14.27-.28,0-.42ZM34.7,333.91v.42c.27-.14.27-.28,0-.42ZM83.8,336.44c-1.25-.19-.72.26-.83,1.05-.19,1.43-.14,2.98-.43,4.42.63.11.52-.79.63-1.26.32-1.4.33-2.84.63-4.22ZM82.75,342.34v.42c.27-.14.27-.28,0-.42ZM36.17,344.44c.21-1.75-.62-1.75-.41,0h.41ZM85.28,344.86v.42c.27-.14.27-.28,0-.42ZM31.12,381.11l4.44-25.92c-.47-3.04.05-6.03.2-9.06l-1.88,9.63c.08,4.19-.55,8.3-1.12,12.44-.52,3.77-1.65,7.78-2,11.49-.04.47-.39,1.51.36,1.42ZM115.41,348.66c-.05-.06-.57.02-.84,0v1.68s.84,0,.84,0c-.07-.41.11-1.55,0-1.68ZM136.28,349.08v.42c.27-.14.27-.28,0-.42ZM115.41,351.61c.3-.59-.27-1.12-.41-.84-.3.59.27,1.12.41.84ZM142.6,352.45v.42c.27-.14.27-.28,0-.42ZM115.63,354.14v.42c.27-.14.27-.28,0-.42ZM119.84,356.24v.42c.27-.14.27-.28,0-.42ZM96.03,359.19c.13-.58-.23-1.12-.84-1.26v1.26s.84,0,.84,0ZM116.47,360.46v.42c.27-.14.27-.28,0-.42ZM54.09,362.14v.42c.27-.14.27-.28,0-.42ZM116.89,363.41v.42c.27-.14.27-.28,0-.42ZM109.51,365.93c.3-.59-.27-1.12-.41-.84-.3.59.27,1.12.41.84ZM117.52,366.36c.21-1.75-.62-1.75-.41,0h.41ZM119.21,375.21c-.58-2.27-.6-4.72-1.24-6.97-.16-.57-.05-1.31-.86-1.45.62,2.42.76,4.93,1.27,7.37.15.72-.47,1.26.83,1.05ZM109.93,368.89c.3-.59-.27-1.12-.41-.84-.3.59.27,1.12.41.84ZM110.35,372.26c.3-.59-.27-1.12-.41-.84-.3.59.27,1.12.41.84ZM110.57,372.68v.42c.27-.14.27-.28,0-.42ZM93.29,374.37v.42c.27-.14.27-.28,0-.42ZM28.8,374.79v.42c.27-.14.27-.28,0-.42ZM111.2,375.21c-.06-.08-.76-.42-.71.42.07,1.27.17,2.53.3,3.8,1.13,0,.55-4.04.42-4.21ZM37.23,376.89v.42c.27-.14.27-.28,0-.42ZM119.63,378.16c.3-.59-.27-1.12-.41-.84-.3.59.27,1.12.41.84ZM31.12,381.96c-1.49-.32-.54,1.78-1.26,2.52,1.49.32.54-1.78,1.26-2.52ZM34.5,381.95c-.67,4.72-2.07,9.55-1.48,14.32l1.47-7.37c-.11-1.88.26-3.73.29-5.58,0-.48.54-1.45-.28-1.36ZM64.63,383.22v.42c.27-.14.27-.28,0-.42ZM29.85,389.54l.42-3.79c-.92.26-1.32,3.37-.42,3.79ZM125.74,390.8v.42c.27-.14.27-.28,0-.42ZM29.43,393.34c-.59-.3-1.12.27-.84.41.59.3,1.12-.27.84-.41ZM125.74,393.75v.42c.27-.14.27-.28,0-.42ZM28.8,394.17v.42c.27-.14.27-.28,0-.42ZM29.01,395.02c-1.14-.19-.74.18-.94.92-.7,2.61-1.5,7.57-1.9,10.35-.65,4.51-1.01,9.05-1.37,13.59l.94-.93,3.27-23.93ZM82.54,397.12v-1.68h-.41v1.68h.41ZM33.22,397.54c.3-.59-.27-1.12-.41-.84-.3.59.27,1.12.41.84ZM174.63,396.7v.42c.27-.14.27-.28,0-.42ZM174.63,399.65v.42c.27-.14.27-.28,0-.42ZM82.54,401.76l-.84.62-1.7,19.4c-.18,1.11,2.05,1.42,2.12.81l.41-20.83ZM25.43,405.55v.42c.27-.14.27-.28,0-.42ZM177.31,407.3c-.41-.26-1.48.03-2.05-.05.41,2.08.52,6.15,3.4,3.96-.19-.6-1.18-3.79-1.35-3.9ZM145.76,410.19c.21-1.75-.62-1.75-.41,0h.41ZM148.29,420.72c.32-.31-1.32-7.74-1.62-8.7-.18-.56-.14-1.28-.9-1.41.09,3.45,1.47,6.66,1.26,10.12.34-.05,1.17.08,1.26,0ZM152.92,413.14c.21-1.75-.62-1.75-.41,0h.41ZM152.93,413.56c.62.75-.44,4.6.63,4.63.7.02.28-2.76.21-3.16-.1-.63-.02-1.3-.84-1.47ZM84.44,414.83v.42c.27-.14.27-.28,0-.42ZM148.5,416.09v.42c.27-.14.27-.28,0-.42ZM123.75,418.29c-.9-1.13-6.08,1.58-7.48-.52.23.59-.1,3.22.01,3.35.3.33,7.26.1,8.41.02.1-.11-.84-2.73-.94-2.85ZM53.79,422.07c-.11-.19-1.72-.76-2.2-1.37-.76-.95-.26-2.11-1.07-2.5l-.43,5.06c.72-.46,3.67.14,3.79,0,.07-.08.05-.94-.09-1.18ZM30.27,419.04c-1.05-.97-1.41,2.39.42,2.11-.14-.4-.35-2.03-.42-2.11ZM79.38,428.31v.42c.27-.14.27-.28,0-.42ZM49.97,429.24c-.73.21-1.83,1.62-1.78,2.44,1.72-1.1,3.74-1.2,5.69-1.46-.9-.88-2.72-1.32-3.9-.98ZM141.54,430.42s.16-.89-.21-.84c-1.15.66-.28,1.32.21.84ZM152.08,430.42l-.84-.84c-.12.88-.04.96.84.84ZM139.44,431.69c-2.64-.05-4.27,2.54-6.74,3.15,1.53,1.72,1.73-.19,2.42-.64l4.32-2.52ZM130.16,434.21c.64-.64-1.25-1.8-1.25-.63,0,.28,1.01.87,1.25.63ZM131.64,435.48v.42c.27-.14.27-.28,0-.42ZM48.82,439.69c-.73-.09-1.42.06-2.13.19s-2.59.42-2.93,1.07c1.48-.3,4.88.96,5.05-1.26ZM24.82,442.2l.2-.81-1.58.53-2.86,1.98c2.46.66,4.83-1.51,7.58-.84-.34-1.29-2.76-.42-3.35-.86ZM19.53,442.64v.42c.27-.14.27-.28,0-.42ZM171.26,444.75v.42c.27-.14.27-.28,0-.42ZM10.04,448.54c-.46-.46-1.3.38-.84.84s1.3-.38.84-.84ZM172.1,454.44v.42c.27-.14.27-.28,0-.42Z"/>
      <path d="M125.95,339.81c.29.15-.25.72-.84.41-.29-.15.25-.72.84-.41Z"/>
    </g>
  </g>
</svg>