<?xml version="1.0" encoding="UTF-8"?>
<svg fill="#1F33B9" id="Layer_2" data-name="Layer 2" xmlns="http://www.w3.org/2000/svg" viewBox="0 0 40.97 60.82">
  <g id="Layer_1-2" data-name="Layer 1">
    <path d="M23.83,12.14c2.23-.97,7.34-7.07,9.03-7.24,8.49-.83-4.77,10.99-5.43,12.99,14.21.74,15.25,5.62,12.05,18.17-1.55,6.08-4.26,11.41-8.43,16.05-11.73,13.08-18.29,11.28-24.32-4.52C5.33,43.92-.09,29,0,26.17c.2-6.04,4.68-8.51,10.14-9-1.44-1.97-6.62-3.82-4.35-6.89s11.02,6.17,11.54,5.46c.06-3.23.54-12.1,2.11-14.64.9-1.45,4.38-1.44,4.38-.12v11.16ZM14.46,20.78c-4.16.2-10.15-.12-10.11,5.35.02,2.36,6.75,21.43,8.16,24.32,2.93,5.97,4.59,8.42,10.95,4.17,7.24-4.85,14.16-19.75,13.28-28.38-.37-3.56-5.43-5.1-8.59-4.01,2.53,1.97,1.05,12.07-2.43,11.47-1.49-.25-4.63-8.19-5.5-10.04-2.18-1.65-5.97,10.01-9.03,5.79-1.51-2.08,3.56-6.17,3.27-8.66Z"/>
  </g>
</svg>