<?xml version="1.0" encoding="UTF-8"?>
<svg fill="#ffffff" id="Layer_2" data-name="Layer 2" xmlns="http://www.w3.org/2000/svg" viewBox="0 0 133.5 106.75">
  <g id="Layer_1-2" data-name="Layer 1">
    <path d="M131.1,60.89l.17,1.97,1.98.16c1.59,1.57-4.35,9.31-5.69,10.93-8.8,10.69-28.16,25.32-41.45,29.31C30.74,119.88-6.68,74.65,1,21.76,1.5,18.27,4.92,2.24,7.67,1.07c1.18-.14,1.18-.11,1.04,1.03-.75,6.16-3.78,12.82-4.29,19.12C8.58,15.84,9.34,7.11,10.99.45l2.12-.45,118.01,57.58c-1.35,2.23-4.23.73-5.7,1.43-1.64.78-6.68,6.88-8.68,8.66-23.81,21.24-52.05,39.13-81.38,14.4C13.7,63.8,14.67,33.86,21.61,8.7l-6.76-4.02c-7.9,19.97-5.05,45.18,2.89,64.77,11.36,28.04,42.56,31.59,68.72,23.38,8.57-2.69,18.37-9.21,25.24-15.08,2.72-2.32,16.22-20.06,19.39-16.87ZM121.78,56.51L23.87,9.7c-7.59,27.97-5.47,64.19,24.93,76.94,18.11,7.6,29.02,4.69,45.12-5.08,7.17-4.35,18.67-13.45,24.28-19.64.62-.68,4.12-4.83,3.58-5.41ZM104.5,89.63l-12.88,5.47-5.84,4.59c6.47-2.04,14.24-4.77,18.72-10.07ZM71.02,99.7c-6.29.33-13.08,0-19.44,0-.51,0-2.07-1.26-3.24-.71-.13,1.05,1.89,1.3,2.58,1.37,2.18.23,5.95.68,7.94.71,3.78.05,11.17-.3,14.98-.72.7-.08,2.71-.32,2.58-1.37-1.85-.74-4.2.65-5.4.71Z"/>
    <path d="M62.01,50.03c1.07,1.09-3.01,8.51-3.95,9.36-1.81,1.63-4.6.95-3.4-1.95.61-1.48,5.23-9.57,7.35-7.41Z"/>
    <path d="M55.53,39.95c.33,2.6-.2,2.87-2.12,4-2.79,1.64-5.93,3.01-8.68,1.02-.21-2.76,10.02-5.79,10.8-5.02Z"/>
    <path d="M72.81,55.07l-.84,8.16-2.29,1.1c-3.68-.95-1.64-10.93,3.12-9.26Z"/>
    <path d="M86.49,62.26c-5.63.99-5.73-12.65-.66-9.05l.66,9.05Z"/>
    <path d="M99.27,52.36c1.5,1.42.25,3.51-1.98,3.15-2.54-.42-5.85-2.32-4.97-5.42,1.13-1.55,5.91,1.28,6.95,2.27Z"/>
    <path d="M39.7,32.02c-2-2.66,9.44-3.08,10.07-1.07,1.31,4.21-8.13,1.26-10.07,1.07Z"/>
  </g>
</svg>