<?xml version="1.0" encoding="UTF-8"?>
<svg fill="#D27400" id="Layer_2" data-name="Layer 2" xmlns="http://www.w3.org/2000/svg" viewBox="0 0 641.99 541.05">
  <g id="Layer_1-2" data-name="Layer 1">
    <g>
      <path d="M478.72,175.24c1.84,2.73,3.24,1.34,5.93,1.76,3.42.53,7.28,3.63,8.49,6.88,2.57,6.94,2.14,12.77.67,19.82-.6,2.87-3.89,11.33-2.61,13.27,1.08,1.64,23.15,5.82,26.45,7.83,2.09,1.57,3,10.44,2.37,13.07-.35,1.45-5.45,10.46-6.59,11.62-.78.8-2.78,2.15-3.83,2.42-1.61.41-10.45-1.81-12.69-2.4-7.64-2-15.1-5.09-22.73-7.13,2.5,3.03,5.65,5.6,8.26,8.52,10.58,11.86,20.33,24.69,29.62,37.52,2.17,2.99,7.01,6.45,6.53,10.56-.23,1.96-1.88,1.09-2.99,1.6-3.19,1.47-8.16,6.73-11.32,9.16-1.32,1.02-7.61,4.71-7.34,5.74.1.39,1.3.74,1.72,1.29,12.67,16.42,24.47,33.47,36.16,50.74,23.71,35.03,43.62,72.51,71.35,104.61,1.36,2.52-.84,7.25-1.98,9.79-1.78,3.97-4.82,7.4-6.53,11.39,6.3-3.46,12.67-6.99,19.11-10.19.94-.47,2.67-.5,2.96-.74.25-.21.2-1.44.93-2.19,1.91-1.97,9.73-6.47,12.55-8.48,1.79-1.28,6.01-5.29,8.18-3.91.59,1.18.93,2.52.23,3.74-8.81,12.56-17.19,25.48-27.22,37.09-5.88,6.8-13.2,12.87-18.67,19.45-1.57,1.89-6.35,9.98-7.5,10.71-1.06.67-2.24.4-3.22.76-2.37.88-1.33,2.29-5.29.45-2.21-1.02-6.23-4.8-8.25-6.53-3.45-2.96-4.22-5.58-9.87-5.31-3.51,3.09-6.96,6.41-10.99,8.86-3.36,2.04-10.07,5.92-13.55,2.97-2.22-1.88-6.72-8.75-9.17-11.63-3.64-4.27-8.09-8.53-11.9-12.83-20.79-23.48-39.96-48.31-60.87-71.71-.51-.57-2.9-4.89-3.69-3.99-.31,6.39-.2,13.2-1.31,19.48-.5,2.84-.87,5.14-3.29,6.94-3.86,2.87-9.81,5.56-14.05,8.11-18.27,11.04-35.5,22.21-55.9,29.51-2.88,1.03-6.98,1.93-10.55,3.07-4.21,1.35-14.52,3.78-17.52,5.26-2,.99-.01,2.17-4.85,1.21-9.2-1.82-21.73-13.15-29.11-19.25-2.52-2.08-4.36-5.55-7.96-5.98l8.79,27.91c2.66,3.92,17.04,9.35,21.95,11.05,2.61.9,10.59,2.19,11.87,4.07,1.7,2.5-2.08,3.64-4.17,4.23-8.8,2.5-34.24,2.65-43.25,1.07-1.64-.29-5.06-2.23-7.14-2.54-.69-.65-1.47-3.86-1.44-4.79.1-3.71-.03-3.02-.67-6.73-2.21-12.77-8.52-38.45-7.54-49.89.09-1.01,1.07-1.89,1-2.79-.25-3.01-10.01-8.81-8.13-12.89,1.31-2.83,12.36-4.31,15.76-5.29,19.05-5.51,38.87-10.21,56.84-18.27,5.38-3.54,14.18-3.55,16.48-10.27,4.49-16.13,9.78-32.04,15.32-47.84-2.43,1.02-4.18,4.45-6.78,5.18-2.97.83-1-3.53-1.18-5.11s-1.99-4.06-2.56-6.02c-5-17.07-8.4-41.12-8.23-58.9.03-2.8,1.14-6.95,1.13-9.96-2.47.86-5.68,1.53-8.27,1.72-4.53.33-2.28-.64-6.77,1.16s-7.02,1.5-11.15-.87c-5.9-3.37-6.37-8.4-3.51-14.36.74-1.54,3.04-3.43,2.99-5.53,0-.33-.99-.34-1.33-1.03-.86-1.74-1.81-4.12-2.54-5.97-3.45-8.76-6.38-17.94-9.24-26.89-2.38,1.56-3.52,5.67-7.05,3.35-.98-.64-4.11-9.86-4.71-11.79-3.22-10.33-4.72-21.15-4.73-31.97l1.13.58c-1.55-7.46,4.83-12.99,9.68-17.64-3.72-1.05-7.1-3.05-10.7-4.39-.91-.34-2.04-.02-2.96-.45-1.4-.65-2.04-4.51-3.1-4.68-11.76,3.14-23.94,3.97-35.93,5.49-22.73,2.89-48.77,8.03-72.78,6.23-2.64-.2-5.69.28-8.51.07-35.96-2.67-79.36-17.98-109.83-37.01-7.48-4.67-10.12-6.01-18.14-9.74C26.12,132.15.79,111.58,7.14,73.24c.32-1.94,3.12-9.64,3.05-10.37-.14-1.56-4.35-4.82-5.46-6.26-10.96-14.19-1.48-23.8,14.38-21.68,2.31.31,4.25,1.2,6.35,1.57,6.57,1.16,9.68-2.62,16.13-3.34,2.47-.28,6.33.3,8.26-.27,1.29-.38,3.99-4.18,5.57-5.24,11.71-7.93,28.42-10.54,42.19-8.14,44.7,7.76,90.51,38.68,125.08,66.68,17.36,14.07,35.75,29.52,52.91,44.94.86.78,6.78,7.57,7.94,6.56-5.07-5.41-9.08-15.3-7-22.64.91-3.23,2.48-5.69,5.86-6.65-11.01-11.97-22.19-24.47-28.61-39.67-.63-4.05,4.23-11.98,6.41-15.54,4.04-6.61,11.92-17.05,19.37-19.9,3.79-1.45,3.71.08,6.6-3.85,8.08-10.96,16.17-20.62,31.3-21.97,2.51-.22,6.76,1.05,7.25.96.4-.08,5.06-4.23,6.35-4.99,3.26-1.93,11.06-5.19,14.17-2.25,3.34,3.15,9.96,16.45,12.37,21.2.95,1.88,2.07,3.93,2.9,5.65,1.2,2.48,2.24,5.77,3.26,8.39.76.57,7.68-4.79,11.37-3.12,3.09,1.4,4.35,12.33,5.69,15.36,11.92-6.68,18,3.2,23.45,12.39,6.22,10.5,14.57,26.97,6.13,38.09-1.36,1.69-6.9,7.66-6.82,9.2s5.04,8.6,6.26,10.14c1.63,2.04,5.62,3.47,3.99,7.27h-13.66c.39,7.67-3.35,14.35-7.4,20.48,10.69-1.35,22.26-.12,32.08,4.63,9.17,4.43,17.93,11.93,24.65,19.44.75.83.4,2.61,1.58,2.11.28-.12,2.03-2.69,2.84-3.42,4.99-4.54,14.14-4.7,19.61-.8,2.54,1.81,3.6,4.76,5.16,7.07h-1.7s0,1.14,0,1.14h1.7s0-1.14,0-1.14ZM325.93,62.34c9.36-10.06,24.28-14.7,34.4-24.02l-17.18-34.22c-4.6.52-9.95,2.51-13.31,5.77-2.24,2.17.97,4.86.95,8.06-.05,5.68-6.6,13.35-12.39,10.66-6.27-2.91,3.97-16.03,3.28-16.64-10.77-.3-19.52,5.75-26.52,13.3-1.02,1.1-6.28,7.32-6.4,8.14-.14.94,2.28,2.52,2.89,3.75,2.9,5.85,1.82,14.51-4.85,17.01-11.32,4.24-8.37-10.63-4.94-16.31l-1.89-.28c-4.64,3.76-8.31,7.26-12.02,11.97-1.97,2.5-4.5,5.91-6.25,8.54-.52.78-.5,1.98-.84,2.47-.46.66-1.6.2-1.77.34-.07.05.55.88.29,1.66-.35,1.07-2.72,2.97-2.47,4.22l28.07,40.77c5.24-7.6,11.47-14.31,17.34-21.35,4.44-5.32,13.08-17.56,18.5-20.82,1.06-.63,1.72.06,1.91-.05.25-.14.7-1.88,1.51-2.16.57-.2,0,1.32.56,1.13.4-.13.4-1.16,1.14-1.95ZM320.53,25.03c5.66-.47,6.66-5.48,5.68-10.24-.94-1.17-4.27,5.85-4.56,6.41-.43.83-1.98,1.13-1.12,3.83ZM187.19,68.47c-18.65-12.72-39.82-24.68-60.74-32.87-19.3-7.55-42.08-15.37-61.42-5.75-2.36,1.17-4.79,2.26-6.81,4,7.64,1.79,15.63,2.59,23.35,4.53,60.11,15.06,108.39,53.22,160.05,84.06,9.55,5.7,19.83,10.14,29.71,15.24-.19-1.1-1.73-2.41-2.56-3.12-26.3-22.76-52.76-46.44-81.56-66.09ZM278.71,37.55v.57c.37-.19.37-.38,0-.57ZM287.52,38.12c-1.22-.92-2.58,3.05-2.85,3.68-1.16,2.8-2.34,6.36-1.66,9.37,5.29.69,6.88-4.44,6.2-8.75-.07-.47-1.5-4.16-1.68-4.3ZM372.31,39.25c.65-.66-.24-1.83-1.13-.28-.07.5,1.09.32,1.13.28ZM44.56,39.83h-3.41v.56h3.41v-.56ZM140.49,69.66c-9.92-5.02-20.38-9.93-30.67-14.01-18.25-7.24-36.99-12.93-56.58-15.1l-1.84,1.28c1.05,1.33,2.74,1.04,4.12,1.46,14.46,4.41,30.31,9.7,44.68,15.28,19.46,7.55,39.53,15.88,57.98,24.35,7.63,3.5,15.12,7.39,22.76,10.89,1.97.35-2.3-2.56-2.47-2.67-11.59-7.78-25.74-15.28-37.97-21.47ZM22.36,42.67c-3.35.29-12.81-2.65-15.08,1.13-1.35,2.25,1.33,7.22,2.66,9.3,3.66,5.75,3.94.34,5.92-2.44,1.52-2.13,4.11-4.27,5.66-6.29.44-.57,1.1-.72.85-1.71ZM291.23,41.53v.57c.37-.19.37-.38,0-.57ZM356.38,42.67c-.8-.41-1.52.36-1.13.56.8.41,1.52-.36,1.13-.56ZM291.23,43.81v.57c.37-.19.37-.38,0-.57ZM37.16,72.25c-.88-8.22,2.43-16.19,3.84-24.21-1.25-.66-10.14-3.19-10.83-3.01-.83.21-6.31,5.92-7.21,7.04-1.09,1.36-5.08,7.18-4.97,8.53.09,1.11,8.36,6.63,9.9,7.56,1.35.81,8.25,5.15,9.27,4.09ZM98.33,46.08v.57c.37-.19.37-.38,0-.57ZM352.39,50.63l-.28-1.7c-1.08.76-.97,1.22.28,1.7ZM129.75,78.76c-21.03-9.12-46.13-19.82-68-26.26-2.12-.63-12.12-3.4-13.42-2.94-.65.23-2.19,4.91-2.53,6.08-.43,1.49-.84,3.58-1.08,5.12-.34,2.17-1.81,14.12-1.36,15.23.24.59,1.03,1.47,1.56,1.88,4.27,3.27,13.63,7.8,18.81,10.78,42.88,24.65,81.28,38.94,128.79,52.16,35.51,9.88,70.77,19.46,106.11,30.45,3.35,1.04,5.02,3.91,6.53-1.11l-16.68-9.25c-14.01-9.33-28.48-18.56-43.24-26.61-9.12-4.97-18.96-9.07-28.49-13.73-28.87-14.14-57.74-29.08-87.02-41.78ZM357.69,127.05c1.66-1.9,16.07-5.07,20.12-6.9,9.91-4.46,28.02-18.51,31.14-29.18,2.4-8.22-12.35-34.18-18.25-40.85-1.35-.35-2.08,1.24-3.19,1.78-10.14,4.91-15.79,9.55-24.34,16.64-5.4,4.48-16.91,15.94-22.95,17.48-8.75,2.24-17.23,3.32-24.94-2.38-.9-.67-1.48-2.77-3.28-2.04l-23.33,27.65c10.2,9.55-3.38,2.01-6.59,3.94-4.03,2.42-1.42,10.86.04,14.26,1.23,2.87,5.39,8.56,8.11,10.1,6.36,3.6,11.21.19,15.78-3.84.52-.46,1.51-.48,1.96-.88,1.01-.89,1.82-4.32,4.58-4.23,1.4,3.37-8.63,11.55-8.46,12.69,7.22,9.36,13.49,18.51,24.97,22.87.73.28,1.94.15,2.23.33.08.05-.69,1.3.32,1.66.49.18.1-1.12.6-1.17.96-.1,7.31,1.87,9.19,2.1,19.67,2.4,45.7-16.08,53.3-33.43.41-.94,2.61-7.24,2.55-7.64-.04-.3-.81-.99-1.28-.8l-12.29,1.41c-5.32,8.37-13.1,15.56-16.08,25.16-4.91,2.84-4.22-7.06-6.73-9.82-.68-3.68-1.57-7.37-2.63-10.97-.44-1.49-2.02-2.27-.57-3.93ZM348.13,50.64v.57c.37-.19.37-.38,0-.57ZM362.07,62.59c-.22-.31-5.85-2.12-7.12-2.84-3.39-1.91-5.24-4.85-7.94-7.42-.83-.79-1.44.03-1.42.3.03.41,3.89,5.2,4.64,6.72,1.73,3.52,3.22,7.83,2.74,11.76.61.69,3.82-3.4,4.44-3.97.8-.74,5.29-3.69,4.66-4.55ZM359.22,55.19c-.8-.41-1.52.36-1.13.56.8.41,1.52-.36,1.13-.56ZM341.58,55.76c-.8-.41-1.52.36-1.13.56.8.41,1.52-.36,1.13-.56ZM338.73,61.44c.41-.8-.36-1.52-.56-1.13-.41.8.36,1.52.56,1.13ZM331.9,65.42c.35-.37.61-2.69.57-3.41-1.46.46-1.16,2.2-1.13,3.41.18-.03.48.08.56,0ZM55.57,138.07c-11.94-14.25-16.99-27.49-18.8-45.77-.39-3.97.21-8.1-.46-12.07-6.87-4.33-13.92-8.27-20.48-13.08-.77.54-.97,1.32-1.27,2.14-3,8.13-2.37,24.16.26,32.44,4.4,13.84,24.26,28.92,36.62,35.64,1.82.99,4.11,1.54,5.93,2.6.36-.98-1.36-1.37-1.8-1.89ZM322.8,71.11c.13-.13.63-1.82.57-2.27-1.09.28-1.28,1.26-1.13,2.27.18-.03.48.08.56,0ZM351.54,69.41v.57c.37-.19.37-.38,0-.57ZM337.6,79.66c-.8-.41-1.52.36-1.13.56.8.41,1.52-.36,1.13-.56ZM311.14,80.79v.57c.37-.19.37-.38,0-.57ZM98.52,113.92c-.63-.4-8.53-3.73-10.78-4.9-15.06-7.78-29.75-16.11-44.31-24.82-.72.97,2.42,21.35,3.1,23.92,3.09,11.71,14.71,27.23,23.27,35.62,3.23,3.17,16.84,6.31,21.85,7.46,17.18,3.93,36.4,6.9,52.75,9.22,40.33,5.71,80.18,8.31,120.69,10.82,7.3.45,14.6,1.59,21.88,2.29.3-1.7-.46-.9-1.33-1.19-26.04-8.92-56.32-14.39-83.13-21.59-29.36-7.88-79.26-21.2-103.97-36.82ZM10.13,100.14v.57c.37-.19.37-.38,0-.57ZM14.4,101.85c-.8-.41-1.52.36-1.13.56.8.41,1.52-.36,1.13-.56ZM240.87,104.13c-.8-.41-1.52.36-1.13.56.8.41,1.52-.36,1.13-.56ZM91.78,109.24c.41-.8-.36-1.52-.56-1.13-.41.8.36,1.52.56,1.13ZM216.69,108.1v.57c.37-.19.37-.38,0-.57ZM403.32,117.21v.57c.37-.19.37-.38,0-.57ZM401.33,121.19c.41-.8-.36-1.52-.56-1.13-.41.8.36,1.52.56,1.13ZM48.83,123.47v.57c.37-.19.37-.38,0-.57ZM53.09,125.18c-.8-.41-1.52.36-1.13.56.8.41,1.52-.36,1.13-.56ZM365.77,136.55v.57c.37-.19.37-.38,0-.57ZM285.25,140.53c.41-.8-.36-1.52-.56-1.13-.41.8.36,1.52.56,1.13ZM286.11,139.97v.57c.37-.19.37-.38,0-.57ZM289.34,142.16c-.09-.1.52-.71.2-1.04l-1.44.56c-.62.53,11.35,9.62,12.32,10.44.59.5,1.04,1.66,1.89,2.38,1.21,1.03,7.72,6.77,9.12,5.38,1.33-1.32-2.85-3.68-3.23-4.16-1.99-2.46-5.52-7.61-6.95-10.42-.35-.69-.58-2.36-.67-2.44-.35-.31-5.56.7-7.08.53-.58-.06-4-1.08-4.15-1.24ZM443.67,173.33c-11.89-15.26-27.79-22.29-47.23-22.5-4.39-.05-3.1,1.31-5.04,3.38-3.7,3.93-10.38,8.39-15.17,11-2.1,1.15-11.76,6.11-13.42,6.5-2.43.57-6.14.52-8.7.69l13.09,6.02c2.89.77,5.85-4.82,7.96-6.88,5.44-5.31,19.87-15.35,27.62-14.54,6.12.64-2.56,3.79-3.64,4.38-12.57,6.89-17.05,10.87-26.23,21.47-.33.38-1.06-.1-1.12.05-2.8,7.36-5.95,15.12-6.32,23.33-.07,1.48,1.61,2.33-.54,2.86,2.41,2.79,2.93,8.96,8.25,5.41,6.06-4.04,3.7-8.04,4.27-13.93.39-4.05,2.15-13.47,4.42-16.64,1.85-2.59,5.25-3.58,7.54-1.03,3.03,3.4-.03,14.81-1.61,18.9-.97,2.5-5.17,8.58-5.15,10.14.01,1.14,1.54,6.76,2.04,8.12,2.12,5.77,7.9,11.78,13.26,5.54,3.87-4.5,1.08-7.03.56-11.97s-.96-13.07.38-17.81c1.15-4.08,2.77-7.06,7.02-3.81,4.84,3.69,4.63,12.6,3.82,18.07-.4,2.7-3.62,8.94-3.61,10.39,0,.32.96,2.67,1.21,3.13,1.88,3.51,4.19,4.74,8.11,3.53,2.15-.66,1.8-1.79,2.95-2.7,3.86-3.07,5.47-2.62,4.56-8.49-1.12-7.23-1.6-12.07.42-19.55.29-1.08,3.76-9.46,4.19-9.77.25-.18,2.14.41,2.27.94,1.03,4.25-2.72,6.97,4.53,7.58-2.64-10.17,1.91-16.06,10.24-20.77.34-1.15-.64-.7-.91-1.05ZM292.08,178.09l-49.78-1.72c-40.33-3.42-80.84-6.65-120.81-13.49-11.06-1.89-22.06-4.45-33.11-6.41l4.4,2.7c34.31,16.08,72.13,28.44,110.25,28.48,18.53.02,36.79-3.61,55.2-5.58,9.27-.99,23.46-.5,31.89-2.82.78-.22,1.77-.07,1.97-1.16ZM396.49,160.45v.57c.37-.19.37-.38,0-.57ZM316.26,163.29v.57c.37-.19.37-.38,0-.57ZM455.95,168.99c-.8-.41-1.52.36-1.13.56.8.41,1.52-.36,1.13-.56ZM215.55,170.12v.57c.37-.19.37-.38,0-.57ZM459.37,245.23c14.5-11.36,26.78-26.12,30-44.82,1.12-6.51,1.57-19.27-7.81-18.33,1.11,3.44,1.52,10.34-2.82,11.7-6.87,2.15-11.17-10.03-3.99-13.59.41-.21,1.09.23,1.12.18,1.3-2.24-3.85-7.57-5.85-8.66-4.04-2.2-11.69-2.22-14.31,1.86-1.64,2.56-.35,3.15,1.42,5.2,1.2,1.39,3.12,2.98,3.86,4.22,2.13,3.53,5.29,11.03-1.42,11.42s-11.3-10.1-10.45-15.75c-6.89.22-11.82,5.34-11.89,12.3-.05,5.57,3.36,3.73,6.96,6,4.08,2.58,7.08,9.69,7.24,14.41.17,4.97-2.49,13.23-5.13,17.07-6.91,10.08-21.6,11.36-32.03,15.8-11.26,4.78-29.01,14.14-38.9,21.13-1.3.92-8.31,8.6-6.36,1.32.42-1.55,3.25-4.63,3.19-5.71-2.98-4.54-9.36-24.92-13.56-26.83-.43-.2-6.77-.84-7.62-.81-3.6.11-14.6,4.13-17.69,6.21-.85.57-5.4,4.66-5.42,5.38,1.07,2.96,3.19,5.91,4.42,8.72,3.71,8.47,9.42,19.93,11.94,28.45s-3.95,5.06-4.94,11.8c-.03.2.06,2.35.13,2.45,1.35,1.79,5.73,2.47,7.92,1.64,4.66-1.75,3.41-1.12,7.88-1.78,21.04-3.11,34.3-11.47,52.5-20.9,17.49-9.06,36.05-17.88,51.6-30.05-.64.65.24,1.84,1.14.28.07-.49-1.09-.32-1.14-.28ZM338.46,176.38v.57c.37-.19.37-.38,0-.57ZM310.86,180.37h-2.27v.56h2.27v-.56ZM458.23,189.47c-.11-3.01-2.11-5.76-4.54-7.39l1.22,4.17,3.32,3.22ZM477.57,183.21c-.77-.77-2.78,2.61-2.86,3.16-.44,2.77,3.09,5.62,3.41.47.04-.57-.42-3.5-.55-3.63ZM481.56,184.35c-.8-.41-1.52.36-1.13.56.8.41,1.52-.36,1.13-.56ZM308.3,185.49v.57c.37-.19.37-.38,0-.57ZM383.11,200.85c1.17-1.16,3.38-12,2.85-14.22-.96.16-1.01,1.11-1.29,1.83-1.46,3.73-1.87,7.76-2.55,11.68-.2,1.14.69,1.02,1,.71ZM360.85,202.63c-11.86-2.31-23.41-6.07-34.92-9.72-4.72,2.68-8.92,6.92-10.37,12.36-2.1,7.89-.34,22.35,1.96,30.16.23.77,1.77,5.24,2.15,5.23l6.82-7.39c8.74-4.07,17.22-8.69,27.2-8.29,2.21.09,12.36,2.41,12.88,2.02s1.19-5.5,4.01-4.54c.37,3.4,2.59,12.56-2.12,13.54-1.61.34-2.75-1.41-4.13-.74,5.74,6.46,9.08,14.54,12.23,22.47,2.25-3.03,6.35-4.38,9.6-6.33,13.07-7.85,26.8-15.39,41.76-19.13,3.38-.84,7.08-.4,10.38-2.43l-6.43-2.39c-1.24-2.24-1.79-1.01-2.7-1.34-1.38-.5-2.65-1.33-4.17-1.43-3.54,5.59-7.25,9.93-14.64,8.23-3.59-.83-5.62-2.95-7.62-5.9-9.42,14.08-22.94.97-23.62-11.39-2.92,1.03-4.03,4.34-7.72,4.51-9.5.43-9.87-10.63-10.56-17.52ZM352.68,196.3v.57c.37-.19.37-.38,0-.57ZM404.17,211.65c1.47-4.73,1.94-10.19-.28-14.8l-.91,8.25,1.18,6.54ZM429.5,217.35v.57c.37-.19.37-.38,0-.57ZM444.57,218.49c-.78.45-2.84,3.21-1.42,3.97l1.42-3.97ZM381.7,219.62v.57c.37-.19.37-.38,0-.57ZM426.93,220.2c-.8-.41-1.52.36-1.13.56.8.41,1.52-.36,1.13-.56ZM434.05,224.75v.57c.37-.19.37-.38,0-.57ZM512.29,229.3c-.62-.62-1.75.51-1.13,1.13s1.75-.51,1.13-1.13ZM475.59,237.83v.57c.37-.19.37-.38,0-.57ZM470.74,242.39l-8.24,5.69c-22.19,17.94-49.79,33.69-75.58,45.62-4.92,2.28-9.76,4.41-14.91,6.12,0,4.67-.88,9.26-.84,13.93.1,13.92,2,28.3,3.42,42.14.54,5.23.84,10.47,1.71,15.65.49.36,4.51-6.31,5.13-7.12,14.99-19.67,43.69-25.17,65.98-33.57,6.35-2.39,14.59-7.12,20.67-8.95.84-.25,1.32.03,2.11.14l-.58-1.13c1.32-.17,9.92-4.12,10.25-4.58.19-.26-1.26-2.49.31-2.79,1.05-.2,4.14,1.08,5.96-.87l24.44-14.24c-2.82-1.41-1.74-2.43-2.55-4.25-.5-1.11-5.18-6.43-6.44-8.36-9.35-14.36-19.97-27.63-30.18-41.53-.39-.53-.59-1.24-.66-1.9ZM507.74,248.07c1.12.5,2.92-.88,2.27-1.7-.09-.11-2.28,1-2.27,1.7ZM444,260.59c.65-.66-.24-1.83-1.13-.28-.07.5,1.09.32,1.13.28ZM415.55,273.68c.41-.8-.36-1.52-.56-1.13-.41.8.36,1.52.56,1.13ZM343.86,286.77c-.8-.41-1.52.36-1.13.56.8.41,1.52-.36,1.13-.56ZM484.38,322.63c-.52-.35-2.21.25-2.24.83-.05,1.13,9.19,12.39,10.79,13.94l-6.71-10.64c-.7-.57-1.66-4.01-1.84-4.14ZM479.78,325.53c-1.61-1.02-15.51,6.61-18.13,7.61,14.69,13.8,24.72,31.6,36.28,47.92,14.19,20.06,29.1,39.71,43.05,59.94,3.81,5.53,7.6,13.05,11.3,18,.36.48,1.53.63,1.83,1.27.26.55-.46,1.46-.28,1.75.05.08.77-.66,1.69.23,4.64,4.49,10.25,14.12,14.46,19.46,2.67,3.39,5.44,6.51,8.31,9.61,1.05,1.14,4.1,5.97,5.69,5.15.97-.5,8.23-8.27,8.41-9.24-.97-2.61-3.87-5.12-5.53-7.45-10.71-15.04-23.61-29.24-32.97-44.91-1.45-2.42-1.35-1.31-2.9-3.3-5.62-7.25-10.69-17.16-16.04-24.92-17.47-25.36-36.49-49.72-52.71-75.88-.6-.97-2.2-5.08-2.45-5.24ZM493.23,325.46v.57c.37-.19.37-.38,0-.57ZM450.26,337.98s-1.2-.22-1.13.28c.89,1.55,1.78.38,1.13-.28ZM493.8,338.54v.57c.37-.19.37-.38,0-.57ZM464.16,371.88c-8.01-9.86-15.68-20.02-22.43-30.8-4.88.42-9.59,3.37-14.58,4.23-.69-.1-1.06.24-.78.9.37.87,3.6,3.42,4.55,4.56.71.86,1,1.98,1.7,2.85,37.36,46.14,74.06,92.44,111.52,138.27,6.71,8.22,11.4,12.8,19.1,20.16.74.71.99,1.56,1.34,1.94,1.17,1.25,1.04-.24,1.61-.76,6.08-5.63,3.47-3.68-.41-8.85-24.74-32.91-47.3-67.59-73.43-99.54-9.13-11.16-19.11-21.77-28.2-32.96ZM443.72,340.82v.57c.37-.19.37-.38,0-.57ZM499.77,347.64c.41-.8-.36-1.52-.56-1.13-.41.8.36,1.52.56,1.13ZM421.81,347.65s-1.2-.22-1.13.28c.89,1.55,1.78.38,1.13-.28ZM416.69,349.93c-1.46-1.17-1.44,1.82.57,2.27.05-.42-.48-2.2-.57-2.27ZM502.33,351.06v.57c.37-.19.37-.38,0-.57ZM412.14,352.76l-1.13-1.13c-.16,1.19-.06,1.29,1.13,1.13ZM503.19,352.77c.25,1.81,1.93,3.32,3.13,4.54-.36-1.66-1.67-3.68-3.13-4.54ZM418.1,372.42c-4.79-5.85-9.3-11.77-13.75-17.89-.54-.14-9.24,5.05-9.6,5.63-.53.85.72,2.22,1.24,2.79,5.86,6.48,12.93,12,19.01,19.12,23.29,27.3,46.39,56,69.4,84.06,12.39,15.11,24.18,30.78,37.27,45.4,2.39,2.67,6.06,5.03,8.24,7.82s7.49,12.85,10.28,14.1c1.45.65,8.03-3.03,9.36-4.29,3.44-3.26,1.12-3.07-.26-4.82-9.98-12.63-23.18-24.3-33.02-37-1.12-1.44-1.64-4.03-1.82-4.18-6.5-5.05-11.53-12.07-16.95-18.59-11.78-14.19-23.22-28.77-35.31-42.67-14.38-16.55-30.1-32.39-44.1-49.47ZM469.61,370.4c.25-1.07-.6-1.35-1.13-1.99-3.43-4.12-7.6-8.11-11.1-12.22,2.36,4.75,6.88,8,9.67,12.51l2.56,1.7ZM506.88,357.9l-.27.27,1.42,1.42.27-.27-1.42-1.42ZM508.59,360.18l-.27.27,1.42,1.42.27-.27-1.42-1.42ZM510.86,363.02l4.56,6.81c-.74-2.61-2.89-4.74-4.56-6.81ZM284.69,459.17c-.25.98.39,1.14.84,1.71,1.05,1.31,4.86,5.51,6.02,6.5,2.35,2.01,2.86-.67,5.08-1.67,2.44-1.1,6.09-1.35,8.63-2.18,12.28-4,24.66-9.39,37.01-13.06,6.26-1.86,12.66-2.72,18.81-5.09,6.19-2.38,10.91-6.17,16.71-8.9,2.02-.95,7.45-1.92,8.05-3.89.39-1.28.06-3.08.41-4.47,2.75-11.1,5.41-22.07,7.94-33.28,1.37-6.08,3.1-12.09,4.59-18.15.03-1.96-6.21-8.45-7.7-10.28-1.79,9.09-5.21,17.76-7.81,26.62-2.98,10.18-5.18,21.7-8.87,31.53-1.54,4.11-3.16,7.15-7.09,9.41-8.66,4.98-21.52,8.14-30.74,12.5-14.69,2.58-29.73,8.74-43.77,11.99-2.05.47-5.85.53-8.13.68ZM515.98,370.42c-.2.69.68,1.79,1.15,2.25.2-.69-.68-1.79-1.15-2.25ZM401.33,385.19c3.78-.99,2.08-6.44-1.14-6.82.69,3.42-2.75,6.55,2.27,5.69l-1.13,1.13ZM399.34,380.65v.57c.37-.19.37-.38,0-.57ZM529.64,384.63v.57c.37-.19.37-.38,0-.57ZM403.32,386.34v.57c.37-.19.37-.38,0-.57ZM408.44,388.05v.57c.37-.19.37-.38,0-.57ZM399.34,388.61v.57c.37-.19.37-.38,0-.57ZM543.01,388.62s-1.2-.21-1.12.28c1.33,3.4,3.75,6.12,5.57,9.22,3.38,5.76,6.84,11.41,10.35,16.96,3.31,5.24,6.26,10.93,10.24,15.65l-13.18-22.38c-3.17-5.4-7.97-11.01-10.94-16.37-.45-.82-.72-3.16-.92-3.36ZM416.93,398.62c-1.99-2.56-4.02-5.1-5.92-7.73-1.68,4.2-1.46,9.03-2.43,13.23-1.24,5.4-3.88,10.83-4.83,16.22-1.8,10.17-.23,18.85-9.86,25.41-13.75,9.36-33.63,15.4-49.38,20.04-13.36,3.94-26.81,7.67-39.91,12.44,2.27,1.23,12.87,11.07,14.25,10.84,11.83-5,23.93-9.37,35.81-14.26,3.22-1.33,6.56-2.65,9.68-3.97,15.65-6.61,30.85-14.2,46.66-20.48,3.52-14.53,6.24-29.31,10.23-43.72.24-.46,1.17-.25,1.16-.68-.04-1.59-4.35-5.91-5.47-7.34ZM398.77,391.46v.57c.37-.19.37-.38,0-.57ZM409.01,392.03v.57c.37-.19.37-.38,0-.57ZM455.67,393.17v.57c.37-.19.37-.38,0-.57ZM445.43,395.44v.57c.37-.19.37-.38,0-.57ZM503.47,397.72v.57c.37-.19.37-.38,0-.57ZM422.95,417.63c0-3.27,2.81-7.83.85-10.8l-1.41,5.97.56,4.83ZM426.36,415.92c-.02-1.97,2.92-5.25-.56-5.68l.56,5.68ZM432.52,416.62c-.28-.16-1.49-.23-1.6-.13-.36.34-1.02,8.37-1.3,9.81-.89,4.7-4.11,19.23-6.2,22.82-.54.94-1.59,1.5-2.06,2.49-.79,1.66-.72,5.05-1.98,6.28-.13.12-2.49,1.79-2.85,2.01-17.2,10.55-41.87,19.49-60.55,28.19-8.09,3.76-15.8,8.35-24.07,11.77l6.42,4.98c4.35-.46,8.69-3.94,12.8-5.66,9.2-3.85,18.5-6.79,27.86-10.83,17.46-7.54,36.14-15.66,52.87-24.57,1.54-.82,2.52.31,3.32-2.58.95-9.43,1.84-18.93,3.27-28.33.29-1.91,1.63-4.73,1.58-6.44-.08-2.85-3.32-4.48-4.95-6.15-.62-.63-2.39-3.55-2.58-3.66ZM397.63,418.2v.57c.37-.19.37-.38,0-.57ZM422.38,419.34c.41-.8-.36-1.52-.56-1.13-.41.8.36,1.52.56,1.13ZM397.06,429.58v.57c.37-.19.37-.38,0-.57ZM441.45,429.58v.57c.37-.19.37-.38,0-.57ZM443.43,435.27c-.46-2.03,2.51-5.63-.56-5.68.45,1.71-1.39,4.71.56,5.68ZM568.33,431.3c-.56.4.31.78.58,1.12.57-.37-.27-.75-.58-1.12ZM397.92,433c-.16.56-3.01,5.18-.86,5.11.65-.02,2.38-4.69.86-5.11ZM572.03,436.98c.19-.83-.24-1.19-.85-1.69-.24.57.59,2.24.85,1.69ZM419.82,436.41v.57c.37-.19.37-.38,0-.57ZM391.94,437.55v.57c.37-.19.37-.38,0-.57ZM442.58,438.12v.57c.37-.19.37-.38,0-.57ZM572.88,438.13c-.56.4.31.78.58,1.12.57-.37-.27-.75-.58-1.12ZM576.58,443.81c-.12-1.55-1.6-2.88-2.56-3.97.52,1.3,1.32,3.25,2.56,3.97ZM368.32,446.65c.41-.8-.36-1.52-.56-1.13-.41.8.36,1.52.56,1.13ZM570.04,446.08v.57c.37-.19.37-.38,0-.57ZM570.61,447.8c.04,1.16.93,2.58,1.72,3.39-.04-1.15-.93-2.58-1.72-3.39ZM371.74,450.64c-4.31,1.64-8.83,3.01-13.05,4.86-.7.31-2.28.55-2.3,1.39l10.92-3.58,4.43-2.67ZM530.21,451.2v.57c.37-.19.37-.38,0-.57ZM336.75,456.89v.57c.37-.19.37-.38,0-.57ZM355.53,456.89v.57c.37-.19.37-.38,0-.57ZM545.85,462.01c-.26-1.08.87-1.99,1.02-2.7.79-3.84-5.46.64-1.02,2.7ZM501.28,459.37c-.26-.29-1.61-1.3-2.06-1.06l3.4,4.27c.12-1.17-.57-2.39-1.33-3.21ZM506.31,468.27v.57c.37-.19.37-.38,0-.57ZM300.9,471.69v.57c.37-.19.37-.38,0-.57ZM415.55,475.1l-.28-1.7c-.6.52-1.04.86-.85,1.7h1.13ZM297.49,475.67v.57c.37-.19.37-.38,0-.57ZM600.77,477.95v.57c.37-.19.37-.38,0-.57ZM293.22,478.52c-.62-.62-1.75.51-1.13,1.13s1.75-.51,1.13-1.13ZM597.07,483.06c.67-.67-2.11-2.86-2.56-3.4-.26.77,1.71,4.25,2.56,3.4ZM627.8,481.36l-4.36,2.46-2.46,2.94c1.67.6,8.01-4.06,6.81-5.41ZM329.63,494.45c-.78-.26-3.57.79-2.84,1.13.78.26,3.57-.79,2.84-1.13ZM596.22,502.41v.57c.37-.19.37-.38,0-.57ZM354.1,506.4c-2.38.35-5.32,1.42-7.42,2.55-.8.43-1.4-.04-1.11,1.42l8.53-3.97ZM343.58,506.96v.57c.37-.19.37-.38,0-.57ZM354.96,508.1v.57c.37-.19.37-.38,0-.57ZM578.29,525.17c.56-1.84-1.53-3.2-2.27-1.42-.06.14,1.88,1.13,2.27,1.42ZM589.97,525.18l-.85.85c-.01.6,1.42-.34.85-.85ZM588.82,526.88v.57c.37-.19.37-.38,0-.57ZM586.26,529.72c1.53.4,2.9-2.27,1.42-2.26-.31,0-1.53,2.18-1.42,2.26ZM339.31,534.85c-.66-.65-1.83.24-.28,1.13.5.07.32-1.09.28-1.13ZM578.58,537.12v.57c.37-.19.37-.38,0-.57Z"/>
      <path d="M420.48,161.79c3.05,3.01,11,14.67,10.45,18.83-.1.79-.77,1.77-1.54,1.96-2.26.56-4.91-5.23-5.99-6.96-2.74-4.4-6.09-10.66-11.07-13.94-1.39-.92-9.14-2.81-4.74-4.93,3.72-1.79,10.28,2.46,12.88,5.03ZM415.27,162.73v.57c.37-.19.37-.38,0-.57Z"/>
      <path d="M401.9,381.79c.18.79-.31,1.51-1.13,1.7v-1.7s1.13,0,1.13,0Z"/>
    </g>
  </g>
</svg>