<svg id="_4uy76r0" xmlns="http://www.w3.org/2000/svg" viewBox="-27.406 -0.122 378.178 738.026" width="378.15555665610145" height="738" style="fill: rgb(193, 18, 9); flex-shrink: 0">
  <g id="_4uy76r1">
    <g>
      <path d="M174.065 3.698c5.74 6.809 6.76 18.013 11.042 25.984l23.354-3.264c2.431-0.172 19.714-0.658 16.154 4.598-0.973 1.444-10.666-0.423-12.986-0.456-2.902-0.047-6.038 1.098-8.767 0.518 0.126 1.788 1.631 2.37 1.944 4.331 0.925 5.806-0.956 15.235-2.948 20.789-0.455 1.287-2.07 2.636-2.18 3.734-0.095 1.035 6.415 16.49 7.34 19.533s0.58 9.414 4.062 9.839c5.191 0.628 7.921-2.636 13.254 1.286 9.301 6.826 10.1 16.741 11.495 27.52 1.396 10.842 3.263 30.063 0.11 40.292-2.039 6.637-8.672 10.136-14.885 12.223-1.537 0.518-8.03 1.553-8.234 2.353 0.219 4.141 7.967 14.513 6.243 18.122-1.537 3.201-8.046-0.487-10.226-1.035-10.429-2.588-21.095-4.078-31.289-7.453l-28.263 22.028c-0.879 0.565-1.726 0.47-2.62 0.016-2.745-1.365-4.642-17.918-5.567-21.605-0.203-2.525 3.278-4.582 5.348-5.758 3.576-2.023 14.932-7.641 18.476-8.002 3.31-0.345 7.795 1.13 11.167 1.286 13.378 0.596 30.834-2.479 43.273-6.951 4.486-1.616 7.216-1.178 9.065-6.794 4.298-13.054 1.098-37.247-2.777-50.379-0.769-2.588-1.333-6.229-3.921-7.327-10.712-4.551-34.694 4.519-45.467 8.849-5.254 2.118-13.128 7.124-17.912 8.566-0.956 0.283-1.554-0.047-2.462-0.172l0.643 1.27-3.277 1.366c-0.282-1.208-0.706-2.338 0.313-3.358s1.772 0.063 2.008 0.016c0.533-0.078-0.565-1.27 0.235-2.307 2.212-2.887 13.739-9.179 17.472-11.015 6.808-3.358 14.21-6.7 21.173-9.899 1.93-0.895 6.916-1.538 7.088-3.515 0.078-0.895-3.591-14.45-4.202-16.334-0.313-0.988-2.823-7.499-3.185-7.735-1.224-0.768-6.023 2.087-8.672 1.774-2.918-0.345-11.119-4.582-13.097-6.81-1.161-1.318-0.69-2.416-0.831-2.652-0.095-0.172-1.051 0.235-1.694-0.689-4.533-6.434-6.21-12.535-7.779-20.179l-3.56 0.032c-0.565 0.55-0.345 13.65-0.596 15.596-0.141 1.003-0.503 1.318-0.769 3.843-0.941 8.504-7.121 13.98-15.542 14.875-3.608 0.393-8.987-1.413-11.732-0.47-0.533 0.188-3.247 3.875-4.392 4.863-5.176 4.408-13.253 5.491-19.588 3.075-0.91-0.345-0.988-1.178-1.444-1.348-6.587-2.464-11.355-3.122-18.491-1.569-1.224 0.267-10.884 3.798-11.246 4.283-3.623 4.879 4.501 26.062 6.18 32.227 1.646 6.024 2.87 12.458 4.58 18.561 1.662 5.946 4.109 11.845 5.63 17.823-6.368 2.181-9.363-4.534-13.959-7.514-1.491-0.972-5.662-3.421-7.167-2.747-5.191 2.322-2.918 19.566-1.709 24.194 0.518 1.961 2.604 7.202 5.19 6.513 0.879-0.235 1.569-1.68 2.494-2.198 2.117-1.192 6.055-1.71 8.22-0.377 0.753 1.067-4.846 4.408-5.632 5.618-0.533 0.832-0.753 1.381 0.345 1.648 1.537 0.377 11.763-4.723 14.712-5.116 1.615-0.22 4.251-0.455 5.457 0.8s0.188 3.138 0.785 4.19c0.141 0.251 1.646 0.643 2.43 1.866 1.678 2.605 3.31 9.179 5.114 12.741 2.352 4.628 7.058 11.673 11.34 14.622 1.27 0.88 20.562 9.54 21.738 9.729 4.156 0.69 20.467-0.11 24.796-0.832 5.615-0.925 23.04-10.465 26.993-14.528 2.352-2.416 2.995-6.213 6.602-7.312 4.799-1.458 3.355 3.64 3.984 4.346 0.095 0.095 1.757-0.47 2.65-0.361 10.413 1.192 22.851 4.738 32.686 7.955 6.305 2.071 13.144 3.954 20.045 6.088 3.843 1.192 6.32-0.565 6.713 5.146 5.834 2.258 12.014 3.75 17.847 5.993 13.3 5.116 24.388 12.458 36.465 19.738 1.819 1.098 5.662 2.306 7.153 3.437 1.318 0.988 2.557 4.66 2.791 4.801 1.333 0.832 7.606-0.407 9.504-0.235 7.356 0.643 14.853 8.489 10.116 15.799-1.976 3.043-5.599 4.189-8.154 6.371-8.987 7.672-15.793 15.894-25.126 23.801-8.657 7.343-17.002 14.983-26.804 20.852l0.031 1.632c10.681-2.479 18.946-2.588 25.392 7.327 5.504 8.489 6.055 24.46-7.544 23.41 7.026 8.331 19.809 22.374 1.317 26.124 5.96 16.083-8.359 28.037-23.087 18.138-13.426-9.022-23.839-26.391-32.982-38.394-1.38-1.82-2.399-4.078-4.079-5.538 0.988 11.093 2.65 22.217 4.032 33.309 0.44 3.546 0.831 7.044 1.253 10.653 0.988 8.394 2.227 16.788 3.232 25.168-0.173 3.891-6.603 5.523-7.153 6.291s3.074 8.896 3.593 10.529c12.83 39.884 21.424 80.709 34.191 120.545 11.34 35.396 24.623 70.385 34.426 106.442 0.471 1.71 0.893 2.385 1.082 2.995 1.254 4.158 3.294 7.359 0 10.999-8.046 8.927-21.079 11.642-32.325 13.934 8.265 16.413 19.949 30.47 31.368 44.669 0.753 2.103 0.658 5.382-2.101 5.79-5.364 0.785-19.778-8.739-25.267-11.47-17.974-8.927-36.78-16.176-53.937-26.72-3.215-3.671-0.345-7.798-0.297-11.925-13.598-2.181-27.32 0.126-39.964-6.653l-4.925-25.496c-0.941-4.017-0.141-8.206-0.156-11.876 0-0.298-1.066-0.11-1.303-1.241-2.321-11.36-2.134-22.924-3.246-34.423-1.083-11.157-3.168-22.17-3.309-33.404-1.741-0.628-1.757 3.295-1.898 4.377-3.671 27.473-6.258 55.245-9.41 82.499-0.658 5.758-1.083 12.223-1.991 17.854-1.161 7.311-7.732 8.127-14.148 8.991-9.63 1.302-20.326 1.161-29.988 1.411-1.976 6.951 1.772 17.432-8.642 18.138-6.179 0.423-14.006-0.942-20.154-1.051-17.221-0.267-34.426 0.14-51.585 1.365-6.431 0.455-24.232 4.095-29.392 1.601-2.478-1.192-2.666-4.44-0.878-6.276 1.364-1.381 8.735-5.021 10.759-3.938l-0.643-1.271c8.422-3.515 16.374-8.347 25.236-10.826 4.406-1.24 8.893-0.972 13.08-3.123 0.11-0.942-3.152-1.178-3.543-1.114-0.848 0.11-1.694 0.942-2.777 1.099-5.035 0.737-3.576-2.087-6.069-3.123-4.314-1.788-13.221-1.035-18.179-2.981-3.01-1.192-2.62-4.078-2.509-6.794 0.784-19.204 6.776-41.484 9.19-60.891 1.427-11.5 2.321-23.096 3.875-34.472 5.819-42.426 16.389-83.738 23.48-125.959 0.313-1.836 3.074-10.842 2.995-11.423-0.158-1.067-3.372-1.695-4.267-2.495-2.775-2.464-1.349-12.802-0.705-16.491s1.349-6.951 1.882-10.667c1.867-12.928 3.921-25.857 5.88-38.755-1.27-0.22-1.914 0.848-2.617 1.663-5.239 5.9-8.5 14.937-16.531 18.169-3.01-4.141 11.967-20.052 15.196-23.127-4.125-2.525-8.532-5.523-12.201-8.63-6.885-5.806-19.794-19.284-22.491-27.755-3.387-10.638 4.361-14.593 13.535-10.23 9.207 4.377 21.064 23.832 25.063 33.122 1.224 2.855 0.893 4.299-1.521 1.521-7.544-8.677-12.28-21.056-22.255-27.99-1.599-1.115-9.881-5.884-9.866-1.413 0 2.62 5.427 10.684 7.277 13.086 4.627 5.978 9.755 9.869 15.527 14.372 3.748 2.934 7.216 7.422 12.234 7.955-1.238-4.754-0.032-3.106 1.019-4.597 0.91-1.302-3.56-8.787-4.438-10.811-3.45-8.002-11.888-26.265-11.01-34.33 0.643-5.853 7.419-12.207 12.861-6.887 5.96 5.821 5.882 17.243 7.856 24.884 0.188 0.753-0.047 2.15 0.974 1.991-0.282-1.27 0.282-1.992 0.658-2.995 2.462-6.386 2.007-17.103 2.65-24.43 0.831-9.477 3.121-19.408 1.993-29.121-0.455-3.954-3.78-5.288-6.838-7.06-6.352-3.671-11.324-4.424-17.629-6.84-4.298-1.648-7.152-8.237-5.85-12.412 0.565-1.82 3.671-1.538 1.849-2.761-4.517-3.043-15.825-6.119-21.58-8.818-23.667-11.093-36.497-26.014-56.462-40.731-5.317-3.923-12.814-5.774-11.026-14.45 0.298-1.458 3.01-5.396 4.109-6.464 2.149-2.071 6.681-4.189 7.481-7.721 1.176-5.146-2.965-20.789-0.863-24.036 0.392-0.596 2.62-0.502 1.585-1.898-0.078-0.11-0.91 0.047-1.067-0.188-1.569-2.353 4.234-19.361 5.757-22.672 6.055-13.195 17.927-27.928 29.611-36.684 1.944-1.458 11.057-6.386 11.45-6.919 0.753-1.02-0.675-3.233 0.595-4.518 5.112-5.193 10.729-10.105 15.826-15.346 11.48-11.815 26.789-31.553 44.056-32.666 3.152-0.204 7.136-0.047 9.74 1.993 1.254 0.972 1.662 3.766 2.728 3.215 0.408-0.22 2.635-4.503 3.655-5.6 1.757-1.915 7.434-6.136 9.913-6.654 1.083-0.22 2.352 0.518 2.649 0.362 0.078-0.047-0.721-1.161-0.061-1.632 1.254-0.925 12.296-4.095 14.271-4.299 3.387-0.345 8.83 1.003 11.074 0.549 2.149-0.439 7.403-4.786 9.943-5.977 2.227-1.051 9.223-3.625 11.465-3.798 4.061-0.298 4.862 0.972 7.121 3.655ZM157.911 6.617l-0.329-1.976c-0.706 0.596-1.208 1.003-0.988 1.976h1.317ZM169.815 6.617c-0.848-2.15-2.086-1.695-3.967-1.303 0.235 1.396 2.886 1.255 3.967 1.303ZM169.722 9.363c-6.808 0.377-13.394 2.258-19.747 4.535 8.987 18.358-22.146 20.837-13.206 2.306 0.44-0.895 1.019-0.533-0.33-1.632-8.046 2.275-18.821 3.577-24.137 10.56 11.089-2.51 21.613 3.625 11.905 14.544 4.282 0.063 7.701-3.06 11.244-4.284 9.175-3.17 15.606-3.106 24.813-3.671 3.921-0.235 5.27-1.051 8.579-1.349 1.835-0.157 8.375 0.863 9.16 0.659 2.823-0.753-1.38-5.993-2.134-7.656-2.102-4.644-3.874-9.461-6.132-14.028ZM146.023 21.805c0.126-0.172-1.083-3.798-1.662-3.938-1.899 0.22-5.349 4.519-2.573 5.256 0.518 0.14 4.093-1.146 4.235-1.333ZM96.241 31.549c5.489-4.911-3.263-4.706-6.57-4.253-15.009 2.071-40.715 32.399-51.365 43.995-1.944 2.118-4.078 5.853-5.992 7.736-3.858 3.781-9.488 6.998-13.567 10.888-16.578 15.848-27.055 36.84-28.105 59.842-0.235 5.13 1.254 11.469 1.379 16.584 0.173 6.967-12.688 13.07-13.08 16.585-0.423 3.891 4.14 4.393 6.399 5.9 8.735 5.853 13.849 11.219 21.518 17.478 9.881 8.081 26.992 18.278 38.692 23.456 9.865 4.361 20.594 7.013 30.02 12.254l10.273-24.805c-1.083-1.805-2.713-0.423-4.046-0.691-7.575-1.49-18.79-6.809-25.613-10.637-6.681-3.75-12.531-8.724-17.235-12.506-5.74-4.598-12.28-9.131-17.551-14.167-2.62-2.495-7.121-6.653-6.948-10.246 0.565-11.799 12.72-32.808 17.973-44.216 4.924-10.684 10.273-21.087 15.229-31.708 2.227-4.786 1.098-6.136 6.149-10.387 4.486-3.781 5.019-0.533 6.979-0.957 11.074-5.428 23.747-13.76 36.544-12.866 8.752 0.628 13.065 7.939 22.835 2.824 7.451-3.906-0.11-5.837-1.254-8.032-0.988-1.883-2.259-12.583-3.325-13.384-4.438 1.725-9.599 3.625-13.88 5.617-2.352 1.098-14.21 8.598-15.857 6.951-0.047-1.35-0.298-2.464 0.675-3.626 0.8-0.972 10.884-6.417 13.175-7.985 7.136-4.864 13.943-10.34 20.811-15.549 5.082-6.715-5.427-5.946-9.708-5.084-8.893 1.788-8.469 3.923-13.691 9.445-5.067 5.351-16.138 14.027-23.292 15.738-5.082 1.223-6.493-1.568-3.732-5.759 2.933-4.44 14.587-12.647 19.51-15.502 1.788-1.035 5.176-1.68 6.618-2.965ZM71.979 32.427c-0.925-0.47-1.757 0.423-1.318 0.644 0.925 0.47 1.757-0.423 1.318-0.644ZM75.289 50.926c7.356-2.934 13.644-8.019 18.49-14.216-6.524 3.875-13.206 8.724-18.49 14.216ZM53.142 53.578v0.658c0.423-0.22 0.423-0.439 0-0.658ZM68.01 82.666c-7.638 1.02-10.445 4.534-14.115 10.686-12.438 20.899-19.731 44.638-30.301 66.243-0.784 1.6-2.367 0.126-1.286 3.906l-3.875 9.744c14.57 5.758 25.503 16.413 39.164 23.849 1.646 0.895 2.697 1.178 4.156 1.93 2.572 1.333 13.236 7.672 15.119 7.342 0.769-0.14 0.643-2.306 1.255-3.138 0.235-0.313 5.222-4.723 5.787-5.114 0.988-0.69 2.918-1.695 4.063-1.9 0.738-0.14 5.458 0.267 6.603 0.41 3.763 0.455 7.371 1.71 11.089 2.118-3.09-4.926-5.725-10.747-7.09-16.711-0.455-1.946-0.267-4.158-0.832-6.118-0.753 0.407-3.811 0.533-3.937 0.69-0.33 0.345 0.893 7.359 0.582 9.507-0.893 6.244-8.908 9.351-14.539 8.034-1.961-0.455-6.195-3.499-7.404-5.162-3.027-4.173-1.459-8.677-2.807-11.736-0.548-1.255-3.09-2.51-4.171-3.766-5.74-6.653-7.105-20.351-6.776-28.995 0.267-6.809 6.368-16.192 14.1-14.733 1.286 0.251 6.979 3.264 7.763 2.495-2.635-8.191-6.242-16.851-7.293-25.324-0.126-0.502-1.098-0.393-1.255-0.956-2.086-7.594-3.906-15.407-4.014-23.316ZM202.877 174.595l-3.309 0.328 3.294 1.663v-1.976ZM186.346 178.549l-1.317-1.318c-0.188 1.381-0.063 1.506 1.317 1.318ZM187.994 177.889v0.66c0.423-0.22 0.423-0.439 0-0.66ZM182.378 179.223c-0.925-0.47-1.757 0.423-1.317 0.643 0.925 0.47 1.757-0.423 1.317-0.643ZM89.168 179.866c-3.639 0.8-7.168 1.506-10.884 2.008-0.831 0.11-2.07-0.565-1.663 0.942 2.259 8.159 15.338 6.998 12.547-2.95ZM92.148 185.169v0.659c0.423-0.22 0.423-0.439 0-0.659ZM207.174 187.805v0.66c0.423-0.22 0.423-0.439 0-0.66ZM87.192 189.798c-0.925-0.47-1.757 0.423-1.317 0.643 0.925 0.47 1.757-0.423 1.317-0.643ZM149.333 197.722c0.25 0.313 1.757-1.161 1.301-1.978-0.25-0.313-1.757 1.161-1.301 1.978ZM108.021 197.722v0.658c0.423-0.22 0.423-0.439 0-0.658ZM230.214 264.984c-2.134-12.128-3.763-25.105-7.058-36.964-1.662-5.978-6.603-21.213-9.567-26.14-0.91-1.522-7.419-4.551-8.03-4.111-0.188 0.126-1.961 3.671-1.914 4.157s3.763 6.841 4.439 8.159c2.839 5.571 5.912 11.454 8.313 17.415 1.882 4.66 4.406 11.172 5.943 15.88 1.851 5.663 6.07 26.94 3.969 31.709-1.396 3.17-9.143 2.823-11.857 3.358-15.778 3.122-36.967 8.049-52.949 7.279-4.972-0.235-4.799-1.428-5.835-6.135-2.948-13.415-4.659-27.488-7.999-40.872-0.69-2.746-3.858-14.717-5.017-16.13-0.973-1.178-9.363-6.543-10.541-5.648 1.757 3.06 3.639 6.167 4.581 9.619 10.068 36.746 11.732 78.497-27.81 97.748-6.666 3.248-13.598 5.005-21.078 4.378-0.063 2.055 0.173 4.141-0.079 6.197-3.31 27.442-6.666 54.663-10.555 82.027-0.44 3.043-3.733 11.579-1.27 13.964 1.522 1.49 13.144 5.036 15.73 5.414 29.124 4.268 55.27 3.483 84.334-0.565 10.493-1.458 21.66-4.598 31.916-5.821 4.659-0.55 2.682 0.581 7.481-1.757 0.675-0.33 1.491-1.585 1.694-1.601 0.455 0 1.522 2.275 2.635 1.977 0.518-0.14 0.69-1.553 1.507-1.977 2.321-1.255 8.58-2.37 11.527-3.515 5.678-2.196 11.419-5.978 17.644-6.479 1.129-4.519-1.254-9.194-1.851-13.557-5.098-37.389-7.999-75.03-14.02-112.246-0.753-4.66-1.474-12.38-2.62-16.458-0.158-0.565-1.176-0.487-1.286-0.958-0.33-1.444 0.956-5.9 0.627-7.719-0.078-0.455-1.019-0.423-1.051-0.612ZM219.063 197.722v0.658c0.423-0.22 0.423-0.439 0-0.658ZM113.51 208.406c-0.518-0.22-1.726 0.581-3.169 0.283-3.763-0.768-9.583-4.017-13.221-5.68 0.675 3.499 2.07 6.574 1.976 10.261-0.203 8.064-10.068 31.914-14.569 38.817-0.988 1.522-5.112 5.46-6.573 6.464l14.084 6.716c3.671 2.213 5.128 6.653 5.129 10.795 0 12.144-2.807 26.03-2.117 37.733 0.015 0.298-1.146 0.204-1.255 0.723-0.11 0.533-0.769 7.391-0.706 7.782 0.078 0.613 2.384 0.69 3.075 1.003 8.172-4.141 16.233-7.955 23.181-14.073 11.074-9.744 16.389-19.706 17.377-34.454 0.831-12.207-3.623-46.929-9.097-57.678-2.948-5.789-7.779-4.644-13.189-7.279-0.8-0.393-0.848-1.381-0.943-1.413ZM251.732 254.488c-0.675-13.854 0.032-27.85-2.242-41.563-9.301-5.726-19.904-8.817-30.74-9.9 0.848 3.608 11.057 22.892 9.833 24.398-0.267 0.313-1.522-0.393-1.239 0.721l2.023 0.423 6.572 33.954 9.645-5.883 6.148-2.166ZM242.871 206.319v0.66c0.423-0.22 0.423-0.439 0-0.66ZM149.991 228.144c1.569 5.053 3.623 9.979 5.096 15.062 1.098 3.798 2.65 9.382 3.467 13.07 1.569 7.107 2.51 14.466 3.436 21.684l0.861 0.941c19.26-3.468 39.1-4.534 58.251-7.736-0.973-22.672-11.309-44.403-21.863-64.172-2.51 2.087-3.874 5.476-6.258 7.612-7.168 6.434-22.538 13.525-32.089 13.523h-10.901ZM246.84 208.311v0.66c0.423-0.22 0.423-0.439 0-0.66ZM258.728 215.577v0.658c0.423-0.22 0.423-0.439 0-0.658ZM282.019 225.037c-3.623-1.663-8.908-2.981-12.831-4.706-1.238-0.55-4.768-3.875-5.849-2.118-0.925 8.254-2.18 16.49-1.662 24.837 0.313 5.13 1.961 9.696 1.411 15.235-0.158 1.6-1.506 0.407-1.38 1.6l1.318 0.329c-1.443 3.106-3.042 3.279-6.321 3.03-3.78-0.298-3.042-2.118-4.941-3.061-2.321-1.146-8.815 5.084-10.602 6.621-1.254 1.083-3.686 1.223-3.842 3.954-0.158 2.998 1.991 12.207 2.509 16.02 0.345 2.51 0.361 5.758 0.784 8.409 0.8 4.974 2.102 9.979 2.917 14.953 10.837-9.807 21.22-20.052 33.564-27.928l16.985-9.132c0.219-1.115-0.267-1.365-1.129-1.835-2.039-1.13-6.555-2.023-9.238-3.327-5.254-2.541-11.685-6.606-16.593-9.87-1.961-1.302 1.333-1.648 2.667-1.363 4.501 0.942 12.422 5.444 17.33 7.154 3.355 1.161 18.225 4.253 18.82 6.982 0.219 1.035-0.863 1.333-1.489 1.742-12.846 8.237-24.215 12.834-36.387 22.782-8.109 6.621-15.903 13.447-22.929 21.197-2.117 3.593 1.035 19.078 2.007 23.691 10.744 12.802 21.032 25.386 33.092 36.966 3.639 3.499 5.52 6.872 10.761 9.085 7.921 3.341 13.989-1.428 13.017-9.728-0.675-5.806-5.067-3.843-9.082-5.461-5.489-2.228-22.867-19.456-25.235-25.008-2.635-6.198-0.879-12.317 6.21-8.191 5.897 3.436 18.726 16.976 23.81 22.468 2.196 2.385 2.886 5.993 6.398 5.821 7.261-0.377 7.561-2.479 4.376-7.986-2.352-4.064-9.488-12.552-13.253-15.205-3.529-2.479-15.746-6.606-15.761-10.715-0.032-7.798 13.598 2.903 15.933 3.969 1.522 0.69 11.748 3.798 12.767 3.546 4.799-1.178 1.788-12.192-0.314-15.329-0.471-0.69-4.674-5.586-5.019-5.711-7.529-2.715-35.822 3.843-17.675-11.265 2.29-1.898 6.587-3.875 8.673-5.57 14.664-11.94 27.776-25.417 40.606-39.24 0.595-0.643 0.8-1.883 1.521-2.59 1.835-1.773 6.148-1.381 6.384-2.558 0.69-3.483-6.478-6.244-9.081-6.777-6.571-1.318-8.359-0.911-14.711-3.797-13.331-6.056-25.283-15.878-38.521-21.95ZM91.49 219.546v0.659c0.423-0.22 0.423-0.439 0-0.659ZM90.486 224.834c0.158-0.157 0.738-2.118 0.659-2.635-1.27 0.33-1.491 1.458-1.301 2.635 0.219-0.032 0.548 0.095 0.642 0ZM89.827 227.486c0.471-0.925-0.423-1.757-0.644-1.318-0.471 0.925 0.423 1.757 0.644 1.318ZM213.12 231.455v0.659c0.423-0.22 0.423-0.439 0-0.659ZM227.328 232.773c0.471-0.925-0.423-1.757-0.642-1.318-0.471 0.925 0.423 1.757 0.642 1.318ZM86.534 233.448l-0.346 1.96c1.003-0.674 1.646-2.087 0.346-1.96ZM83.553 242.03v0.66c0.423-0.22 0.423-0.439 0-0.66ZM327.486 244.681v0.66c0.423-0.22 0.423-0.439 0-0.66ZM341.681 247.992c-0.925-0.47-1.757 0.423-1.319 0.644 0.925 0.47 1.757-0.423 1.319-0.644ZM90.172 267.165v0.659c0.423-0.22 0.423-0.439 0-0.659ZM141.396 270.476c-0.925-0.47-1.757 0.423-1.318 0.644 0.925 0.47 1.757-0.423 1.318-0.644ZM236.253 271.135v0.658c0.423-0.22 0.423-0.439 0-0.658ZM160.232 273.111v0.66c0.423-0.22 0.423-0.439 0-0.66ZM158.915 277.081v0.658c0.423-0.22 0.423-0.439 0-0.658ZM321.527 280.392v0.66c0.423-0.22 0.423-0.439 0-0.66ZM321.198 285.68c0.471-0.925-0.423-1.757-0.643-1.319-0.471 0.925 0.423 1.757 0.643 1.319ZM263.354 293.619v0.659c0.423-0.22 0.423-0.439 0-0.659ZM71.916 310.218c-0.267-0.172-1.646-0.172-1.866-0.046-3.529 2.196 4.454 26.437 6.069 30.548 0.282 0.705 0.188 1.977 1.145 1.819-0.219-7.264-0.831-15.438-2.165-22.609-0.298-1.6-2.243-9.099-3.183-9.712ZM78.267 320.73v0.659c0.423-0.22 0.423-0.439 0-0.659ZM284.607 351.373c-3.074-2.95-7.575-5.869-9.694-9.476-1.914 0.69 1.051 3.86 1.649 4.628 1.411 1.805 18.601 18.828 19.493 17.84 0.658-0.722-3.263-3.734-3.355-4.755-2.933-2.353-5.474-5.711-8.109-8.237ZM77.609 343.199v0.659c0.423-0.22 0.423-0.439 0-0.659ZM302.69 345.192c0.471-0.925-0.423-1.757-0.643-1.318-0.471 0.925 0.423 1.757 0.643 1.318ZM72.324 347.827v0.659c0.423-0.22 0.423-0.439 0-0.659ZM56.781 349.162c-0.925-0.47-1.757 0.423-1.318 0.642 0.925 0.47 1.757-0.423 1.318-0.642ZM289.14 353.131v0.659c0.423-0.22 0.423-0.439 0-0.659ZM272.937 376.932c0.471-0.925-0.423-1.757-0.643-1.318-0.471 0.925 0.423 1.757 0.643 1.318ZM80.244 388.84v0.66c0.423-0.22 0.423-0.439 0-0.66ZM251.796 447.678l-4.956-21.809-2.039 2.683c2.337 5.695 3.639 11.767 5.599 17.573 0.345 1.02-0.58 1.898 1.396 1.553ZM238.558 427.187c-1.867-1.992-1.146 4.001 0.659 3.97-0.078-0.674-0.518-3.828-0.659-3.97ZM310.5 671.747c1.192-1.93-0.956-4.377-1.411-5.978-7.606-26.845-19.323-52.812-28.576-79.203-16.436-46.914-30.192-95.08-42.19-143.469-1.254-5.036-1.757-10.324-3.403-15.25-1.631 1.961-14.037 4.864-14.147 6.259 2.494 4.989 5.019 10.292 6.869 15.55 12.375 34.941 21.848 73.554 31.588 109.295 7.811 28.665 17.094 56.28 26.882 84.161 2.054 5.853 6.117 13.085 7.905 18.671 1.003 3.153 1.646 10.919 3.042 13.352 1.491 2.588 13.049-2.793 13.426-3.404ZM214.436 429.839v0.659c0.423-0.22 0.423-0.439 0-0.659ZM250.793 430.498v0.659c0.423-0.22 0.423-0.439 0-0.659ZM240.55 434.468c0.267-0.863-0.988-3.326-1.302-2.636-0.173 1.178 0.032 2.322 1.302 2.636ZM205.512 437.778c-5.458-2.087-5.301 4.738-1.114 2.024 0.408-0.267 1.208-1.946 1.114-2.024ZM198.846 439.159c-1.788-0.283-4.423-0.407-5.081 1.741-0.721 2.353 0.11 9.32-0.157 12.396-0.376 4.551-1.238 10.465-2.274 14.905-0.203 0.848-1.364 1.585-1.49 2.384-0.595 3.468 9.426 26.297 10.398 32.997 0.11 0.768-0.69 1.805-0.548 2.196 0.126 0.361 2.855 3.86 3.638 6.59 10.038 35.177 18.022 71.076 28.828 106.064 5.082 16.475 12.798 32.683 18.648 48.796 1.396 3.86 2.196 7.955 3.293 11.908 2.243 1.083 16.264 1.365 17.52-0.015 1.114-1.208-2.18-1.788-2.918-2.683-2.117-2.573-1.772-6.464-2.698-9.195-12.955-38.457-26.93-75.046-37.703-114.363-2.635-9.617-4.109-19.487-6.573-29.136-3.984-15.533-9.723-30.753-13.895-46.27-3.387-12.647-6.055-25.528-8.988-38.283ZM190.972 440.744c-0.956 3.373 0.706 10.982 0 14.873l1.178-5.13 0.815-10.387c-0.392-1.003-1.867 0.22-1.993 0.66ZM41.661 671.104c3.999 0.423 8.893 2.087 12.814 2.118 1.114 0 2.462 0.126 2.87-1.145l31.683-227.552c-0.078-2.008-7.889-3.233-9.787-3.483l-4.659 35.914c-1.129 0.895-1.333 4.534-1.772 6.936-4.423 23.912-10.461 47.399-14.555 71.404-4.298 25.198-6.54 50.506-10.179 75.783-1.914 13.32-4.941 26.61-6.447 40.01ZM242.526 443.05c1.003-1.003-1.961-2.823-1.96-0.988 0 0.439 1.584 1.365 1.96 0.988ZM181.72 445.702l-0.314-3.954c-1.443 0.942-0.141 2.433-0.329 3.954h0.643ZM173.125 443.065l-22.804 2.637c-0.784 0.047-1.301 0.298-1.554 1.083-1.051 3.201 0.126 13.65-0.063 17.791-1.599 34.173-8.03 68.926-10.916 103.115-2.305 27.269-5.412 59.323-4.986 86.672 0.141 8.944 2.337 18.703 0 27.41l17.847-0.659c0.015-7.72-1.129-15.628-1.066-23.347 0.11-13.587 2.415-27.442 3.074-41.092 1.224-25.119 0.471-48.106 4.234-73.005 3.183-21.056 5.709-42.646 9.035-63.827 1.944-12.332 5.05-24.492 7.183-36.778ZM95.113 444.383c-0.141-0.14-1.443 0.078-1.977 0l-1.976 19.173c0.925 0.157 0.973-1.178 1.13-1.835 0.486-2.023 3.466-16.725 2.839-17.338ZM129.508 447.02c-6.463 0.439-12.783-0.658-19.167-1.318 1.129 20.601-3.263 40.7-5.362 61.096-5.159 36.447-9.238 72.88-14.368 109.281-1.098 7.766-1.741 15.596-2.744 23.379l-1.318-0.675v1.991s1.318-0.674 1.318-0.673l-3.984 37.373c0 0.8 0.345 1.302 1.113 1.538 1.741 0.55 8.204 1.255 10.447 1.396 3.403 0.22 6.87-0.095 10.271 0.031-0.392-14.593 1.819-28.995 3.043-43.429 4.548-54.005 8.014-110.363 16.626-164.04 1.396-8.677 2.76-17.306 4.125-25.95ZM146.023 446.36c-2.462-1.93-2.494 9.869-0.988 10.575-0.126-1.757 1.944-9.822 0.988-10.575ZM136.769 447.036c-2.745-0.33-2.745 0.972 0 0.642v-0.642ZM244.188 451.648v0.659c0.423-0.22 0.423-0.439 0-0.659ZM257.066 453.641c0.471-0.925-0.423-1.757-0.643-1.317-0.471 0.925 0.423 1.757 0.643 1.317ZM174.771 453.641v0.658c0.423-0.22 0.423-0.439 0-0.658ZM227.657 455.617v0.66c0.423-0.22 0.423-0.439 0-0.66ZM191.303 456.277v0.658c0.423-0.22 0.423-0.439 0-0.658ZM187.664 467.527c0.471-0.925-0.423-1.757-0.643-1.318-0.471 0.925 0.423 1.757 0.643 1.318ZM170.145 476.784v0.659c0.423-0.22 0.423-0.439 0-0.659ZM170.82 478.102v0.659c0.423-0.22 0.423-0.439 0-0.659ZM263.684 484.048c0.471-0.925-0.423-1.757-0.643-1.318-0.471 0.925 0.423 1.757 0.643 1.318ZM177.093 485.382c-0.925-0.47-1.757 0.423-1.318 0.642 0.925 0.47 1.757-0.423 1.318-0.642ZM180.072 486.7v0.658c0.423-0.22 0.423-0.439 0-0.658ZM216.742 488.018c0.471-0.925-0.423-1.757-0.643-1.318-0.471 0.925 0.423 1.757 0.643 1.318ZM214.436 489.351v0.659c0.423-0.22 0.423-0.439 0-0.659ZM84.211 490.669v0.659c0.423-0.22 0.423-0.439 0-0.659ZM177.751 497.275c0.471-0.925-0.423-1.757-0.643-1.318-0.471 0.925 0.423 1.757 0.643 1.318ZM177.751 499.926v-1.977s-0.643 0-0.643 0l-0.673 1.977h1.316ZM176.435 508.524c0.753-0.768-0.282-2.134-1.319-0.33-0.078 0.581 1.27 0.377 1.319 0.33ZM176.435 509.182h-1.319s0 2.636 0 2.637h0.644s0.675-2.636 0.675-2.637ZM173.14 525.045c1.286-0.251 1.129-1.381 1.333-2.337 0.658-3.043 0.392-7.092 0.643-10.23l-1.976 12.567ZM191.962 513.812v0.658c0.423-0.22 0.423-0.439 0-0.658ZM191.648 521.752c-0.25-0.283 0.25-3.906-1.319-3.971 0.032 1.805-0.188 3.656 0.158 5.461 0.235 1.318 1.286 4.331 2.478 5.114 0.486-1.083-1.003-4.943-0.659-5.287 0.141-0.14 1.051 0.078 1.49 0 1.364-0.204 0.816-3.185-2.148-1.334ZM198.58 523.069v0.658c0.423-0.22 0.423-0.439 0-0.658ZM174.442 527.039c-0.721-0.722-2.039 0.596-1.317 1.317s2.039-0.596 1.317-1.317ZM173.298 531.541c-0.611-0.957 0.503-2.636-0.816-2.526l1.976 2.966c0.095-0.613-0.956-0.11-1.16-0.456ZM182.708 531.667v0.659c0.423-0.22 0.423-0.439 0-0.659ZM134.448 532.986v0.657c0.423-0.22 0.423-0.439 0-0.657ZM205.778 619.42c-2.65-8.409-3.355-17.949-4.814-26.625-2.886-17.196-4.909-39.053-10.179-55.307-0.219-0.69-0.173-1.992-1.114-1.836l-2.007 22.782c7.356 34.674 10.806 69.883 17.142 104.574 0.784 4.299 1.114 9.351 1.459 13.744 0.58 1.741 10.524 1.992 12.172 1.742 0.893-0.14 1.129 0.377 0.988-1.004-2.823-10.89-7.356-21.684-9.647-32.698-1.646-7.907-1.944-18.797-4-25.355ZM182.378 538.93v-2.635h-0.643v2.635h0.643ZM245.836 536.955h-1.318c-0.219 0.972 0.298 1.381 0.989 1.975l0.329-1.975ZM246.495 541.583c0.33-2.746-0.973-2.746-0.643 0h0.643ZM96.446 542.243c0.471-0.925-0.423-1.757-0.643-1.318-0.471 0.925 0.423 1.757 0.643 1.318ZM181.391 541.583v0.66c0.423-0.22 0.423-0.439 0-0.66ZM182.378 544.234h-1.317s0 2.636 0 2.637h0.643s0.675-2.636 0.674-2.637ZM163.196 554.15l0.659-6.604c-1.129 0-1.238 2.181-1.317 2.964-0.078 0.722-0.518 3.656 0.658 3.64ZM181.061 556.128l0.659-7.264c-1.522 0.88-1.882 4.253-1.82 5.804 0.047 1.223-0.831 1.695 1.161 1.46ZM156.265 555.468v0.66c0.423-0.22 0.423-0.439 0-0.66ZM163.196 558.12c0.471-0.925-0.423-1.757-0.643-1.318-0.471 0.925 0.423 1.757 0.643 1.318ZM179.727 560.756l0.661-3.954c-0.423-0.911-1.819 2.871-1.304 3.954h0.643ZM179.084 562.089c0.235 1.255-2.212 3.923-0.345 3.954 1.003 0 1.192-3.043 0.988-3.954h-0.643ZM89.827 568.036c0.33-2.746-0.973-2.746-0.644 0h0.644ZM89.168 571.331c0.471-0.925-0.423-1.757-0.643-1.318-0.471 0.925 0.423 1.757 0.643 1.318ZM53.801 573.983v0.659c0.423-0.22 0.423-0.439 0-0.659ZM87.867 574.657c1.051 3.561-2.886 6.024 0.328 8.583-0.298-2.134 0.33-4.095 0.345-6.26 0-0.753 0.423-2.495-0.673-2.323ZM87.192 589.862v-3.955s-0.658 0-0.658 0l-0.674 3.955h1.316ZM270.961 624.896l-11.559-35.034-1.662 0.658c1.788 6.088 4.392 11.877 6.148 17.981l7.073 16.395ZM86.204 591.18v0.658c0.423-0.22 0.423-0.439 0-0.658ZM128.833 597.141c-2.337-0.502-0.848 2.793-1.977 3.955 2.134 0.518 1.333-2.84 1.977-3.955ZM174.113 599.777v0.659c0.423-0.22 0.423-0.439 0-0.659ZM84.211 600.436v0.66c0.423-0.22 0.423-0.439 0-0.66ZM85.2 604.405s0.25-1.396-0.328-1.318c-1.804 1.035-0.44 2.071 0.328 1.318ZM248.156 603.747v0.658c0.423-0.22 0.423-0.439 0-0.658ZM84.542 606.383c0.471-0.925-0.423-1.757-0.644-1.318-0.471 0.925 0.423 1.757 0.644 1.318ZM127.517 607.042c0.471-0.925-0.423-1.757-0.645-1.318-0.471 0.925 0.423 1.757 0.645 1.318ZM211.456 607.717l-0.313-1.978c-1.254 0.88-1.129 1.428 0.313 1.978ZM127.517 611.011v-2.636h-0.645v2.636h0.645ZM126.528 611.686v0.659c0.423-0.22 0.423-0.439 0-0.659ZM69.015 612.345v0.659c0.423-0.22 0.423-0.439 0-0.659ZM125.523 652.668l1.318-35.036c-1.192 0.251-1.238 1.302-1.349 2.29-0.518 4.864-1.098 11.045-1.317 15.863-0.203 4.331-0.503 11.83 0.032 15.911 0.126 0.957 0.503 2.055 1.316 0.972ZM300.369 628.866v0.66c0.423-0.22 0.423-0.439 0-0.66ZM80.919 632.177v0.658c0.423-0.22 0.423-0.439 0-0.658ZM215.095 636.146v0.659c0.423-0.22 0.423-0.439 0-0.659ZM160.562 675.152l-0.11-36.636-1.867-1.051c-0.047 5.884-0.548 11.642-0.658 17.509-0.11 5.382-0.658 12.458-0.032 17.887 0.219 1.898 0.518 2.541 2.682 2.274ZM220.051 654.661c-1.93-5.178-1.537-11.249-4.956-15.847 0.769 4.801 2.023 9.696 3.577 14.309 0.345 1.02-0.58 1.898 1.394 1.553ZM79.586 640.774v0.66c0.423-0.22 0.423-0.439 0-0.66ZM78.597 646.062c1.788-0.596 0.956-1.24 0.644-2.635h-0.644s0 2.636 0 2.635ZM78.926 646.721v0.659c0.423-0.22 0.423-0.439 0-0.659ZM75.947 674.493l2.65-26.454-1.819 4.457c-0.015 6.056-3.01 10.951-3.278 17.071-0.11 2.306-0.188 4.361 2.462 4.926ZM124.88 676.485c1.396-0.283 0.925-1.13 1.036-1.945 0.611-4.644 0.925-14.733-0.283-18.969-0.25-0.895-0.25-2.008-1.411-2.213 1.867 7.689 0.893 15.376 0.658 23.143ZM216.083 658.63c-0.925-0.47-1.757 0.423-1.317 0.644 0.925 0.47 1.757-0.423 1.317-0.644ZM220.396 658.63v0.66c0.423-0.22 0.423-0.439 0-0.66ZM221.714 661.267v0.658c0.423-0.22 0.423-0.439 0-0.658ZM241.209 673.175l-3.952-7.265c-0.376 1.223 2.305 8.833 3.952 7.265ZM114.952 672.515c0.471-0.925-0.423-1.757-0.643-1.318-0.471 0.925 0.423 1.757 0.643 1.318ZM66.034 673.834c0.471-0.925-0.423-1.757-0.643-1.319-0.471 0.925 0.423 1.757 0.643 1.319ZM114.952 673.834c-1.726-0.157-1.098-0.078-1.301 1.004-0.455 2.306-0.126 4.628 0 6.935 1.554 0.095 1.161 0.22 1.318-0.989 0.282-2.15-0.188-4.738 0-6.95ZM286.159 677.803c0.548-0.581-1.083-2.464-1.976-2.636-0.188 1.146 1.019 3.656 1.976 2.636ZM248.486 687.736h-3.968s0 3.295 0 3.294c2.18-0.22 4.047-0.737 3.953-3.294ZM278.223 687.736c-0.925-0.47-1.757 0.423-1.316 0.642 0.925 0.47 1.757-0.423 1.316-0.642ZM65.376 693.666c0.188-1.098-0.518-1.961-1.615-1.992-0.392 0-6.524 1.977-7.638 2.337-0.611 0.204-2.352 0.613-1.303 1.632 1.176 1.13 1.333-1.083 1.616-1.192 1.208-0.455 8.061 0.14 8.955-0.8ZM288.481 694.999v0.659c0.423-0.22 0.423-0.439 0-0.659ZM101.403 698.31v0.66c0.423-0.22 0.423-0.439 0-0.66ZM42.242 700.962c-1.459-0.015-3.45-0.377-3.968 1.302 1.459 0.015 3.45 0.377 3.968-1.302ZM277.894 708.901c-0.658 0.455 0.361 0.911 0.674 1.302 0.658-0.439-0.313-0.88-0.674-1.302ZM299.711 713.514v0.659c0.423-0.22 0.423-0.439 0-0.659ZM305.011 721.453v0.659c0.423-0.22 0.423-0.439 0-0.659ZM306.329 722.771v0.659c0.423-0.22 0.423-0.439 0-0.659Z" fill="#1F5F68" style="fill: rgb(193, 18, 9)" />
      <path d="M143.968 88.55c-2.635 1.553-8.815-3.577-9.833-2.573-1.584 6.731-1.474 14.905-4.346 21.15-0.235 0.502-0.158 1.898-1.269 1.318-1.035-0.533-1.569-3.17-1.679-4.313-0.173-1.632 0.423-8.849 0.691-10.561 0.611-4.001 2.18-11.642 7.088-12.096 3.058-0.283 12.955 4.943 9.364 7.075Z" fill="#1F5F68" style="fill: rgb(193, 18, 9)" />
      <path d="M159.996 91.187c-3.372-2.15 4.454-6.684 5.225-7.689 0.392-0.502 3.2-5.633 3.434-6.308 0.91-2.557 0.69-12.725 5.112-10.747 5.458 2.433-0.471 15.705-3.309 19.173-1.631 2.008-7.905 7.202-10.477 5.554ZM161.565 89.287v0.66c0.423-0.22 0.423-0.439 0-0.66Z" fill="#1F5F68" style="fill: rgb(193, 18, 9)" />
      <path d="M171.321 98.371c-3.639-3.671-1.208-12.113 2.792-7.091 3.748 4.706-0.33 9.572-2.792 7.091Z" fill="#1F5F68" style="fill: rgb(193, 18, 9)" />
      <path d="M142.557 102.012c1.208 1.458 2.18 8.191-1.474 7.798-5.536-0.596-2.525-12.63 1.474-7.798Z" fill="#1F5F68" style="fill: rgb(193, 18, 9)" />
    </g>
  </g>
</svg>