<svg id="_h9d4970" xmlns="http://www.w3.org/2000/svg" viewBox="0 0 486.45 281.09" width="486.45" height="281.09">
  <g id="_h9d4971">
    <g>
      <path d="M139.8,260.45c.28-19.98,12.12-44.64,35.03-52.98,7.67-2.79,14.67-1.55,18.18,3.7l5.3-11.96,3.69-1.34-6.63,27.12-2.93,1.07c-.85-12.47-6.44-18.67-17.13-14.78-14.2,5.17-23.48,25.21-24.8,41.31-1.51,18.25,5.3,24.96,17.8,20.6,10.03-3.46,16.47-12.43,22.15-24.06l2.84.48c-7.86,17.53-17.61,26.57-27.55,29.81-17.51,5.71-26.13-3.74-25.94-18.96Z" fill="#B12A1D" />
      <path d="M224.61,244.07l5.49-17.62c1.04-3.22,2.18-7.04,2.18-9.79,0-2.46-.85-3.95-3.69-3.29-7.1,1.64-15.43,18.02-19.78,34.84l-4.17,16.09-8.52,3.1,17.32-66.7c1.23-4.61.09-4.96-3.69-3.86l-4.35,1.3.76-3.3c5.77-2.2,13.25-5.58,19.12-9.52l.57.36c-1.04,2.75-2.65,7.31-3.41,10.33l-7.67,29.39h.28c4.26-8.56,9.75-16.24,16.28-18.62,8.71-3.17,11.26,3.38,8.52,12.33l-6.91,22.68c-1.04,3.31-2.84,8.99-.57,9.2,3.98.35,7.86-8.92,10.79-15.95l2.75.33c-2.65,6.46-7,18.45-15.43,20.48-5.96,1.41-8.99-1.74-5.87-11.78Z" fill="#B12A1D" />
      <path d="M251.31,223.94c4.07-16.72,15.9-30.68,27.93-34.59,8.52-2.72,10.79,1.66,10.13,6.44-1.04,7.38-9.09,17.98-28.87,26.6-.09.41,0,.19-.09.6-1.99,11.52,1.99,15.65,8.05,13.83,5.49-1.62,10.41-7.39,15.62-19.51l2.84-.09c-5.4,13.89-11.83,22.39-21.2,25.8-11.55,4.2-18.46-2.46-14.39-19.09ZM261.25,219.09c13.82-6.26,18.74-14.96,19.97-19.67.95-3.56.66-8.1-4.07-6.38-7.01,2.55-13.16,15.01-15.9,25.67l.09-.04-.09.41Z" fill="#B12A1D" />
      <path d="M299.68,216.93c0-7.19,3.41-18.28,12.59-30.71l-.28-.46c-2.18,1.93-4.35,3.19-6.44,3.86-1.89.69-3.69.78-5.11.63l-3.69,11.57-2.75.05,5.68-19.01,2.08-.76c3.41.18,5.49.37,8.71-.8,3.31-1.21,6.53-3.32,9.94-6.93l1.51,1.15c-5.58,8.09-13.82,25-13.82,36.08,0,5.58,2.08,9.84,6.53,8.23,2.27-.83,4.83-3.08,7.29-6.06-.76-2.28-1.14-5.08-.95-8.27.66-13.3,9.56-34.81,16.38-37.29,2.84-1.03,4.73,1.59,4.73,6.32,0,7.95-5.49,22.54-12.97,34.35,1.23,2.68,3.69,3.86,7.86,2.35,8.52-3.1,15.81-14.37,17.99-30.78-4.64-3.52-7.01-6.63-7.01-10.32s2.46-6.67,5.3-7.7c4.64-1.69,5.4,3.34,5.4,8.83,0,18.84-8.99,41.23-24.42,46.85-5.11,1.86-8.52,1.02-10.7-1.5-3.88,4.73-8.14,8.36-12.21,9.84-6.06,2.21-11.64-.21-11.64-9.49ZM328.07,205.08c5.87-9.71,10.6-21.47,10.89-27.06.09-2.69-.85-4.33-3.41-3.3-1.61.68-3.41,2.09-5.21,8.43-1.04,3.79-2.37,10.42-2.56,16.65,0,1.89,0,3.69.28,5.29Z" fill="#B12A1D" />
    </g>
    <g>
      <g>
        <path d="M60.08,156.13l-.49,12.25-31.02,11.46-.81,20.39,27.54-10.17-.49,12.36-27.54,10.17-.96,24.07,32.08-11.85-.49,12.25-51.51,19.02,3.24-81.33,50.44-18.63Z" fill="#B12A1D" stroke="#B12A1D" stroke-width="2.64" stroke-miterlimit="10" />
        <path d="M112.64,136.72l21.11,72.33-19.52,7.21-5.6-19.51-25.12,9.28-7.35,24.29-12.37,4.57,27.59-90.32,21.26-7.85ZM105.54,185.92l-7.78-26.94-10.19,33.57,17.97-6.64Z" fill="#B12A1D" stroke="#B12A1D" stroke-width="2.64" stroke-miterlimit="10" />
        <path d="M191.01,107.78l-.49,12.25-19.04,7.03-2.75,69.07-19.33,7.14,2.75-69.07-18.94,6.99.49-12.25,57.3-21.16Z" fill="#B12A1D" stroke="#B12A1D" stroke-width="2.64" stroke-miterlimit="10" />
        <path d="M250.51,129.29l-1.48,37.19-19.42,7.17,1.47-36.87-19.59-36.57,20.78-7.67,12.81,25.08,15.31-35.46,13.24-4.89-23.11,52.02Z" fill="#B12A1D" stroke="#B12A1D" stroke-width="2.64" stroke-miterlimit="10" />
        <path d="M342.16,89.68l-.19,4.77c-1.02,25.59-18.19,45.61-36.94,52.53-18.75,6.92-34.82-.82-33.8-26.41l.19-4.77c1.04-26.24,18.28-45.32,36.93-52.21,18.65-6.89,34.85-.16,33.81,26.08ZM291.06,108.02l-.26,6.51c-.76,19.08,4.76,23.88,14.72,20.21,9.86-3.64,16.03-12.76,16.79-31.84l.26-6.51c.79-19.74-4.84-24.28-14.7-20.64-9.95,3.68-16.02,12.54-16.8,32.27Z" fill="#B12A1D" stroke="#B12A1D" stroke-width="2.64" stroke-miterlimit="10" />
        <path d="M414.7,25.18l-2.22,55.74c-.64,16.05-12.08,30.85-31.89,38.17-19.71,7.28-30.4.65-29.76-15.4l2.22-55.74,19.52-7.21-2.19,55.08c-.39,9.87,2.49,14.04,10.7,11.01,8.41-3.1,11.52-9.49,11.91-19.36l2.19-55.08,19.52-7.21Z" fill="#B12A1D" stroke="#B12A1D" stroke-width="2.64" stroke-miterlimit="10" />
        <path d="M456.34,9.8c17.2-6.35,29.43-4.88,28.76,11.82-.34,8.57-4.67,16.9-15.52,23.9,10.82-1.65,14.95,2.38,14.46,14.64l-.79,19.84-19.52,7.21.79-19.84c.58-14.53-5.51-12.28-12.37-9.64l-7.54,2.78-1.36,34.27-19.42,7.17,3.24-81.33,29.28-10.81ZM466.04,29.4c.31-7.7-3.32-9.89-11.44-6.89l-8.6,3.18-.92,23.1,8.6-3.18c8.12-3,12.05-8.51,12.36-16.21Z" fill="#B12A1D" stroke="#B12A1D" stroke-width="2.64" stroke-miterlimit="10" />
      </g>
      <g>
        <path d="M55.08,151.13l-.49,12.25-31.02,11.46-.81,20.39,27.54-10.17-.49,12.36-27.54,10.17-.96,24.07,32.08-11.85-.49,12.25L1.4,251.08l3.24-81.33,50.44-18.63Z" fill="#FFFFFF" stroke="#B12A1D" stroke-width="2.64" stroke-miterlimit="10" />
        <path d="M107.64,131.72l21.11,72.33-19.52,7.21-5.6-19.51-25.12,9.28-7.35,24.29-12.37,4.57,27.59-90.32,21.26-7.85ZM100.54,180.92l-7.78-26.94-10.19,33.57,17.97-6.64Z" fill="#FFFFFF" stroke="#B12A1D" stroke-width="2.64" stroke-miterlimit="10" />
        <path d="M186.01,102.78l-.49,12.25-19.04,7.03-2.75,69.07-19.33,7.14,2.75-69.07-18.94,6.99.49-12.25,57.3-21.16Z" fill="#FFFFFF" stroke="#B12A1D" stroke-width="2.64" stroke-miterlimit="10" />
        <path d="M245.51,124.29l-1.48,37.19-19.42,7.17,1.47-36.87-19.59-36.57,20.78-7.67,12.81,25.08,15.31-35.46,13.24-4.89-23.11,52.02Z" fill="#FFFFFF" stroke="#B12A1D" stroke-width="2.64" stroke-miterlimit="10" />
        <path d="M337.16,84.68l-.19,4.77c-1.02,25.59-18.19,45.61-36.94,52.53-18.75,6.92-34.82-.82-33.8-26.41l.19-4.77c1.04-26.24,18.28-45.32,36.93-52.21,18.65-6.89,34.85-.16,33.81,26.08ZM286.06,103.02l-.26,6.51c-.76,19.08,4.76,23.88,14.72,20.21,9.86-3.64,16.03-12.76,16.79-31.84l.26-6.51c.79-19.74-4.84-24.28-14.7-20.64-9.95,3.68-16.02,12.54-16.8,32.27Z" fill="#FFFFFF" stroke="#B12A1D" stroke-width="2.64" stroke-miterlimit="10" />
        <path d="M409.7,20.18l-2.22,55.74c-.64,16.05-12.08,30.85-31.89,38.17-19.71,7.28-30.4.65-29.76-15.4l2.22-55.74,19.52-7.21-2.19,55.08c-.39,9.87,2.49,14.04,10.7,11.01,8.41-3.1,11.52-9.49,11.91-19.36l2.19-55.08,19.52-7.21Z" fill="#FFFFFF" stroke="#B12A1D" stroke-width="2.64" stroke-miterlimit="10" />
        <path d="M451.34,4.8c17.2-6.35,29.43-4.88,28.76,11.82-.34,8.57-4.67,16.9-15.52,23.9,10.82-1.65,14.95,2.38,14.46,14.64l-.79,19.84-19.52,7.21.79-19.84c.58-14.53-5.51-12.28-12.37-9.64l-7.54,2.78-1.36,34.27-19.42,7.17,3.24-81.33,29.28-10.81ZM461.04,24.4c.31-7.7-3.32-9.89-11.44-6.89l-8.6,3.18-.92,23.1,8.6-3.18c8.12-3,12.05-8.51,12.36-16.21Z" fill="#FFFFFF" stroke="#B12A1D" stroke-width="2.64" stroke-miterlimit="10" />
      </g>
    </g>
  </g>
</svg>