<svg id="_tbl3zl0" xmlns="http://www.w3.org/2000/svg" viewBox="57.095 0 474.716 354.008" width="474.70386052303866" height="354" style="flex-shrink: 0">
  <g id="_tbl3zl1">
    <g>
      <g>
        <path d="M106.12 179.66c13.225-4.893 20.952-2.58 20.518 8.343-0.612 15.381-12.138 27.827-29.251 34.163l-9.877 3.652-8.484 28.464-15.559 5.756 21.741-72.632 20.92-7.738ZM111.513 194.291c0.193-4.804-2.6-5.925-8.041-3.918l-5.989 2.217-6.713 22.289 7.937-2.934c7.542-2.789 12.476-9.351 12.814-17.654Z" fill="#C11209" />
        <path d="M61.825 261.771l22.506-75.187 21.419-7.924c8.395-3.104 14.521-3.321 18.191-0.645 2.672 1.951 3.936 5.32 3.751 10.036-0.604 15.276-11.8 28.408-29.951 35.115l-9.378 3.466-8.483 28.464-18.055 6.675ZM86.061 188.213l-20.976 70.084 13.056-4.829 8.484-28.464 10.375-3.837c17.314-6.401 27.987-18.815 28.559-33.204 0.161-3.958-0.813-6.723-2.874-8.231-3.027-2.201-8.629-1.878-16.211 0.919l-0.37-0.999 0.37 0.999-20.429 7.553ZM89.136 216.62l7.478-24.844 6.488-2.403c3.509-1.298 5.997-1.354 7.622-0.177 1.328 0.967 1.948 2.692 1.852 5.127h0c-0.346 8.658-5.393 15.615-13.507 18.613l-9.941 3.676ZM98.344 193.404l-5.94 19.734 5.932-2.193c7.277-2.692 11.808-8.932 12.115-16.703h0c0.064-1.685-0.266-2.797-0.982-3.321-0.974-0.709-2.922-0.556-5.635 0.452l-5.49 2.031Z" fill="#C11209" />
      </g>
      <g>
        <path d="M156.202 161.135l-21.821 72.664-15.632 5.78 21.741-72.632 15.712-5.812Z" fill="#C11209" />
        <path d="M117.123 241.32l22.506-75.187 18.216-6.731-22.587 75.219-18.127 6.707ZM141.36 167.761l-20.977 70.084 13.137-4.861 21.048-70.108-13.216 4.885Z" fill="#C11209" />
      </g>
      <g>
        <path d="M208.676 165.585l-15.093 5.578c1.666-11.124 0.056-14.921-6.085-12.648-10.891 4.031-20.3 28.609-20.864 42.942-0.306 7.602 2.173 10.826 9.096 8.263 5.369-1.983 10.81-7.876 14.859-20.911l14.392-5.32c-6.512 21.096-18.127 31.85-30.652 36.485-15.012 5.554-22.86-1.362-22.288-15.873 0.861-21.588 16.243-48.125 37.171-55.864 14.392-5.32 21.757 0.137 19.464 17.348Z" fill="#C11209" />
        <path d="M165.008 222.94c-3.196 0-5.94-0.798-8.137-2.402-4.161-3.031-6.198-8.73-5.892-16.477 0.829-20.895 15.543-48.561 37.863-56.815 7.51-2.781 13.177-2.701 16.839 0.241 3.888 3.112 5.248 9.254 4.049 18.251l-0.081 0.637-17.378 6.425 0.266-1.782c0.982-6.546 0.757-10.455-0.676-11.624-0.757-0.613-2.101-0.572-3.993 0.129-10.367 3.837-19.624 28.15-20.171 41.982-0.153 3.918 0.467 6.417 1.851 7.425 1.175 0.854 3.131 0.79 5.812-0.202 5.948-2.201 10.73-9.004 14.207-20.225l0.153-0.5 16.903-6.247-0.636 2.063c-5.916 19.17-16.445 31.672-31.295 37.17-3.55 1.314-6.802 1.967-9.692 1.967ZM198.453 147.342c-2.487 0-5.449 0.637-8.878 1.903-21.5 7.948-35.674 34.687-36.471 54.905-0.282 7.005 1.457 12.084 5.014 14.671 3.59 2.612 9.063 2.668 15.841 0.161 13.66-5.054 23.52-16.396 29.332-33.728l-11.849 4.385c-3.679 11.592-8.838 18.686-15.342 21.088-3.437 1.274-5.989 1.249-7.8-0.072-2.028-1.475-2.922-4.498-2.728-9.23 0.571-14.341 10.086-39.653 21.564-43.901 2.688-0.992 4.677-0.927 6.069 0.217 1.996 1.628 2.519 5.208 1.682 11.818l12.823-4.74c0.95-7.852-0.177-13.124-3.357-15.671-1.497-1.201-3.469-1.806-5.892-1.806Z" fill="#C11209" />
      </g>
      <g>
        <path d="M240.824 129.841l-10.246 34.196 31.488-42.047 12.992-4.805-31.473 41.782 11.752 30.1-15.946 5.901-10.053-26.683-10.247 34.196-15.559 5.756 21.741-72.632 15.559-5.756Z" fill="#C11209" />
        <path d="M201.898 209.97l22.506-75.187 18.054-6.675-9.144 30.496 28.084-37.501 16.686-6.167-33.3 44.208 11.937 30.56-17.949 6.642-9.313-24.731-9.498 31.688-18.055 6.675ZM226.134 136.411l-20.976 70.084 13.064-4.828 9.675-32.269-0.056 0.072 11.357-37.887-13.056 4.828ZM229.885 166.729l10.118 26.876 13.941-5.151-11.574-29.649 29.645-39.363-9.297 3.435-32.833 43.852Z" fill="#C11209" />
      </g>
      <g>
        <path d="M313.944 139.144l-9.619 31.81-15.632 5.779 9.973-33.059-5.345-33.252 16.099-5.957 3.292 23.24 18.956-31.471 11.277-4.167-29.001 47.069Z" fill="#C11209" />
        <path d="M287.059 178.475l10.52-34.873-5.449-33.873 18.159-6.715 3.059 21.588 17.604-29.23 14.52-5.369-30.546 49.584-9.732 32.181-18.135 6.707ZM294.513 111.123l5.248 32.624-9.426 31.245 13.136-4.853 9.507-31.43 27.456-44.563-8.034 2.975-20.308 33.712-3.525-24.901-14.046 5.191Z" fill="#C11209" />
      </g>
      <g>
        <path d="M391.86 97.5c-0.829 20.806-16.01 47.948-37.163 55.775-13.611 5.03-23.23 0.234-22.586-15.937 0.829-20.806 15.849-47.892 37.244-55.799 13.458-4.974 23.15-0.21 22.513 15.961ZM346.688 134.791c-0.33 8.392 2.946 10.713 9.015 8.464 12.13-4.49 21.049-30.173 21.564-43.2 0.33-8.392-3.027-10.592-9.015-8.375-12.211 4.514-21.049 30.092-21.564 43.111Z" fill="#C11209" />
        <path d="M345.287 156.25c-3.276 0-6.093-0.83-8.363-2.483-4.153-3.023-6.19-8.722-5.876-16.477 0.829-20.854 15.567-48.488 37.936-56.759 7.51-2.773 13.748-2.588 18.047 0.54 4.161 3.031 6.206 8.722 5.9 16.469-0.829 20.943-16.243 48.738-37.856 56.735-3.574 1.322-6.85 1.983-9.772 1.983ZM378.635 80.708c-2.632 0-5.634 0.605-8.918 1.822-20.864 7.715-35.747 34.591-36.552 54.849-0.282 7.013 1.449 12.084 5.007 14.671 3.695 2.692 9.281 2.765 16.155 0.226 20.815-7.698 35.666-34.558 36.471-54.816h0c0.282-6.997-1.457-12.068-5.023-14.656-1.908-1.395-4.314-2.088-7.14-2.088ZM351.872 145.117c-1.336 0-2.479-0.339-3.413-1.015-2.093-1.524-3.018-4.587-2.834-9.351h0c0.507-12.825 9.345-39.298 22.257-44.071 3.26-1.209 5.828-1.153 7.622 0.153 2.085 1.516 3.01 4.547 2.825 9.263-0.515 12.858-9.353 39.387-22.264 44.159-1.562 0.58-2.962 0.871-4.201 0.87ZM347.75 134.831h0c-0.153 3.95 0.499 6.489 1.956 7.546 1.183 0.863 3.075 0.822 5.627-0.121 11.116-4.111 20.324-28.464 20.871-42.249 0.153-3.894-0.499-6.409-1.947-7.457-1.191-0.863-3.083-0.822-5.635 0.121-11.116 4.111-20.324 28.408-20.872 42.16Z" fill="#C11209" />
      </g>
      <g>
        <path d="M458.371 49.391l-15.913 53.341c-3.711 12.398-13.096 22.934-27.102 28.109-18.199 6.731-25.009-1.346-20.413-16.654l13.958-46.506 15.559-5.755-14.328 48.101c-2.817 9.222-1.071 13.398 6.238 10.697 5.836-2.16 8.862-7.07 11.245-14.921l15.197-50.665 15.559-5.755Z" fill="#C11209" />
        <path d="M404.151 134.291c-4.21 0-6.802-1.346-8.379-2.837-3.63-3.418-4.266-9.496-1.843-17.574l14.11-47.013 18.047-6.674-14.94 50.14c-2.036 6.675-1.095 8.851-0.354 9.553 1.111 1.048 3.445 0.492 5.208-0.161 5.023-1.862 8.098-5.981 10.601-14.236l15.35-51.173 18.046-6.675-16.525 55.381c-3.968 13.253-14.086 23.748-27.746 28.802-4.805 1.782-8.597 2.451-11.575 2.451ZM409.77 68.496l-13.805 45.997c-2.149 7.15-1.698 12.624 1.264 15.413 3.244 3.055 9.385 3.031 17.765-0.065 13.032-4.821 22.675-14.816 26.45-27.416l15.301-51.293-13.064 4.829-15.044 50.156c-2.721 8.972-6.166 13.503-11.897 15.615-3.389 1.249-5.884 1.153-7.405-0.29-1.988-1.878-2.053-5.707-0.217-11.721l13.716-46.054-13.064 4.829Z" fill="#C11209" />
      </g>
      <g>
        <path d="M471.483 81.918l-9.184 30.616-15.559 5.756 21.741-72.632 20.614-7.626c12.211-4.514 20.188-2.813 19.761 7.933-0.306 7.779-4.443 17.315-17.08 24.748 8.154-0.774 10.593 3.402 7.236 14.55l-4.677 15.421-15.559 5.756 5.377-17.751c3.453-11.608 0-11.455-7.55-8.666l-5.136 1.895ZM493.49 52.768c0.177-4.458-2.302-5.78-7.663-3.797l-5.055 1.871-6.182 20.628 6.77-2.499c7.623-2.821 11.848-8.948 12.138-16.203Z" fill="#C11209" />
        <path d="M445.106 120.023l22.506-75.187 21.113-7.811c8.106-2.999 14.022-3.2 17.588-0.605 2.568 1.87 3.783 5.095 3.606 9.577-0.217 5.409-2.455 15.332-14.529 23.668 2.036 0.274 3.55 1.04 4.588 2.313 2.069 2.531 2.085 6.844 0.056 13.583l-4.829 15.929-18.063 6.683 6.005-19.798c1.779-5.981 1.409-7.932 0.781-8.521-1.071-1.008-5.039 0.459-6.947 1.169l-4.636 1.717-9.185 30.616-18.054 6.675ZM469.342 46.464l-20.976 70.084 13.064-4.828 9.184-30.617 5.635-2.079c3.743-1.387 7.26-2.483 9.135-0.726 1.634 1.532 1.57 4.724-0.201 10.689l-4.757 15.703 13.056-4.828 4.524-14.913c1.755-5.828 1.867-9.738 0.33-11.617-1.111-1.354-3.22-1.87-6.456-1.563l-4.781 0.451 4.137-2.435c5.964-3.507 16.05-11.278 16.558-23.869 0.145-3.732-0.773-6.344-2.729-7.771-2.914-2.12-8.307-1.822-15.6 0.879l-20.115 7.44ZM472.948 73.211l6.947-23.184 5.554-2.055c3.34-1.233 5.731-1.282 7.292-0.145 1.288 0.943 1.9 2.62 1.804 4.982h0c-0.314 7.892-5.111 14.301-12.839 17.162l-8.766 3.24ZM481.634 51.656l-5.418 18.081 4.766-1.765c6.995-2.588 11.164-8.142 11.446-15.244 0.064-1.612-0.25-2.676-0.934-3.176-0.918-0.669-2.753-0.524-5.305 0.419l-4.555 1.685Z" fill="#C11209" />
      </g>
      <g>
        <path d="M221.377 232.662l-15.092 5.578c1.666-11.124 0.056-14.921-6.085-12.648-10.891 4.031-20.3 28.609-20.864 42.942-0.306 7.602 2.173 10.818 9.096 8.263 5.369-1.983 10.81-7.876 14.859-20.911l14.392-5.32c-6.512 21.096-18.127 31.85-30.652 36.485-15.012 5.554-22.86-1.362-22.28-15.873 0.861-21.588 16.243-48.125 37.171-55.864 14.392-5.32 21.757 0.137 19.463 17.348Z" fill="#C11209" />
        <path d="M177.702 290.017c-3.196 0-5.94-0.798-8.138-2.402-4.161-3.031-6.198-8.73-5.892-16.477 0.829-20.895 15.543-48.561 37.864-56.815 7.51-2.773 13.177-2.701 16.839 0.242 3.888 3.112 5.248 9.254 4.049 18.25l-0.081 0.637-17.378 6.425 0.265-1.782c0.982-6.546 0.757-10.455-0.676-11.624-0.757-0.613-2.093-0.572-3.992 0.129-10.367 3.837-19.624 28.15-20.172 41.983-0.153 3.918 0.467 6.417 1.852 7.424 1.175 0.854 3.131 0.79 5.811-0.201 5.948-2.201 10.73-9.004 14.207-20.226l0.153-0.5 16.904-6.247-0.636 2.063c-5.916 19.17-16.445 31.672-31.296 37.171-3.55 1.314-6.802 1.967-9.691 1.967ZM211.155 214.42c-2.487 0-5.449 0.637-8.879 1.902-21.5 7.948-35.666 34.687-36.471 54.905-0.282 7.005 1.457 12.084 5.015 14.671 3.59 2.612 9.063 2.668 15.841 0.161 13.66-5.054 23.52-16.396 29.331-33.728l-11.848 4.386c-3.679 11.592-8.838 18.686-15.35 21.088-3.437 1.274-5.989 1.249-7.8-0.073-2.028-1.475-2.922-4.49-2.729-9.23 0.571-14.341 10.086-39.653 21.564-43.901 2.688-0.992 4.677-0.927 6.07 0.217 1.996 1.628 2.519 5.208 1.682 11.818l12.822-4.74c0.95-7.852-0.177-13.124-3.356-15.671-1.497-1.201-3.469-1.806-5.892-1.805Z" fill="#C11209" />
      </g>
      <g>
        <path d="M253.526 196.919l-8.742 29.068 18.514-6.844 8.741-29.068 15.632-5.78-21.822 72.663-15.712 5.813 9.804-32.568-18.433 6.82-9.723 32.535-15.559 5.756 21.741-72.632 15.559-5.755Z" fill="#C11209" />
        <path d="M214.6 277.047l22.505-75.187 18.055-6.675-8.742 29.069 16.01-5.925 8.742-29.069 18.135-6.706-22.586 75.219-18.216 6.739 9.804-32.567-15.929 5.892-9.724 32.535-18.054 6.675ZM238.836 203.489l-20.976 70.084 13.056-4.829 9.723-32.535 20.936-7.739-9.804 32.567 13.209-4.885 21.049-70.108-13.137 4.861-8.741 29.069-21.009 7.771 8.742-29.069-13.056 4.829Z" fill="#C11209" />
      </g>
      <g>
        <path d="M336.675 166.165l-3.268 10.939-23.021 8.513-5.474 18.218 21.782-8.053-3.276 11.028-21.782 8.053-6.447 21.507 25.822-9.552-3.268 10.939-41.381 15.3 21.741-72.632 38.58-14.268Z" fill="#C11209" />
        <path d="M274.72 254.814l22.505-75.187 41.076-15.187-4.033 13.495-23.021 8.512-4.709 15.663 21.773-8.053-4.032 13.583-21.781 8.053-5.683 18.952 25.822-9.552-4.033 13.494-43.876 16.227ZM298.956 181.256l-20.976 70.084 38.885-14.381 2.512-8.392-25.822 9.552 7.212-24.062 21.781-8.053 2.52-8.481-21.79 8.061 6.247-20.773 23.02-8.513 2.512-8.392-36.085 13.342Z" fill="#C11209" />
      </g>
      <g>
        <path d="M343.903 163.497l15.092-5.578-5.57 43.659 22.989-50.1 14.778-5.466-4.081 42.853 21.5-49.294 10.729-3.966-33.798 77.097-14.159 5.232 4.339-47.424-25.492 55.252-14.859 5.497 8.516-67.746Z" fill="#C11209" />
        <path d="M334.107 232.847l8.814-70.124 17.338-6.417-4.91 38.501 20.276-44.184 16.783-6.207-3.606 37.904 19.02-43.595 13.507-4.998-34.982 79.806-16.163 5.973 3.928-42.958-23.094 50.044-16.911 6.255ZM344.877 164.271l-8.218 65.36 12.798-4.732 27.899-60.451-4.75 51.89 12.155-4.49 32.607-74.381-7.96 2.943-23.987 54.985 4.548-47.803-12.774 4.724-25.71 56.025 6.222-48.818-12.838 4.748Z" fill="#C11209" />
      </g>
    </g>
    <g>
      <g>
        <path d="M102.095 176.435c13.225-4.893 20.944-2.58 20.518 8.343-0.612 15.381-12.138 27.827-29.251 34.164l-9.876 3.652-8.492 28.464-15.56 5.755 21.741-72.631 20.92-7.739ZM107.488 191.066c0.193-4.804-2.6-5.925-8.041-3.918l-5.988 2.217-6.713 22.29 7.936-2.935c7.542-2.789 12.484-9.351 12.814-17.654Z" fill="#FFFFFF" />
        <path d="M57.8 258.547l22.506-75.187 21.419-7.924c8.395-3.104 14.521-3.321 18.191-0.645 2.672 1.951 3.936 5.32 3.751 10.036-0.604 15.276-11.8 28.408-29.951 35.114l-9.377 3.467-8.492 28.464L57.8 258.547ZM82.037 184.988l-20.977 70.084 13.056-4.829 8.492-28.464 10.376-3.837c17.314-6.401 27.987-18.815 28.558-33.204 0.161-3.958-0.813-6.723-2.873-8.23-3.027-2.201-8.629-1.878-16.211 0.919l-20.429 7.553ZM85.112 213.396l7.477-24.845 6.488-2.402c3.509-1.298 5.997-1.354 7.623-0.177 1.328 0.967 1.948 2.692 1.851 5.126h0c-0.346 8.658-5.393 15.615-13.507 18.614l-9.941 3.676ZM94.32 190.179l-5.94 19.734 5.932-2.192c7.277-2.692 11.808-8.932 12.114-16.703 0.064-1.685-0.266-2.797-0.982-3.321-0.974-0.709-2.922-0.556-5.635 0.451l-5.489 2.031Z" fill="#C11209" />
      </g>
      <g>
        <path d="M152.178 157.91l-21.822 72.664-15.631 5.78 21.741-72.631 15.712-5.813Z" fill="#FFFFFF" />
        <path d="M113.099 238.095l22.505-75.187 18.208-6.731-22.586 75.219-18.127 6.707ZM137.335 164.537l-20.976 70.084 13.136-4.861 21.049-70.108-13.217 4.885Z" fill="#C11209" />
      </g>
      <g>
        <path d="M204.651 162.36l-15.092 5.579c1.666-11.124 0.056-14.921-6.086-12.648-10.891 4.031-20.3 28.609-20.863 42.942-0.306 7.602 2.173 10.826 9.095 8.262 5.369-1.983 10.81-7.876 14.859-20.91l14.392-5.321c-6.512 21.096-18.127 31.85-30.651 36.485-15.012 5.554-22.86-1.362-22.289-15.872 0.861-21.588 16.243-48.125 37.172-55.864 14.392-5.32 21.757 0.137 19.463 17.347Z" fill="#FFFFFF" />
        <path d="M160.984 219.716c-3.196 0-5.94-0.798-8.138-2.403-4.161-3.031-6.198-8.73-5.892-16.477 0.829-20.895 15.543-48.561 37.864-56.815 7.51-2.781 13.177-2.701 16.839 0.242 3.888 3.112 5.248 9.254 4.048 18.25l-0.08 0.637-17.378 6.425 0.265-1.781c0.982-6.546 0.757-10.455-0.676-11.625-0.757-0.613-2.101-0.572-3.992 0.129-10.367 3.837-19.624 28.15-20.172 41.983-0.153 3.918 0.467 6.417 1.851 7.424 1.175 0.854 3.131 0.79 5.812-0.201 5.948-2.201 10.73-9.004 14.207-20.226l0.153-0.5 16.903-6.247-0.636 2.064c-5.916 19.17-16.445 31.672-31.295 37.17-3.55 1.314-6.802 1.967-9.691 1.967ZM194.428 144.118c-2.487 0-5.449 0.637-8.878 1.902-21.5 7.948-35.666 34.687-36.471 54.905-0.282 7.005 1.457 12.084 5.015 14.671 3.59 2.612 9.063 2.668 15.84 0.162 13.66-5.054 23.52-16.396 29.332-33.728l-11.849 4.385c-3.679 11.592-8.838 18.686-15.349 21.088-3.437 1.274-5.989 1.249-7.8-0.073-2.028-1.475-2.922-4.498-2.729-9.23 0.571-14.341 10.086-39.653 21.564-43.901 2.688-0.992 4.677-0.927 6.069 0.218 1.996 1.628 2.519 5.208 1.682 11.817l12.815-4.74c0.95-7.852-0.177-13.124-3.349-15.671-1.497-1.201-3.469-1.806-5.892-1.805Z" fill="#C11209" />
      </g>
      <g>
        <path d="M236.8 126.617l-10.247 34.196 31.48-42.048 12.992-4.804-31.473 41.781 11.752 30.101-15.945 5.9-10.054-26.682-10.246 34.195-15.56 5.756 21.741-72.631 15.56-5.756Z" fill="#FFFFFF" />
        <path d="M197.873 206.745l22.506-75.187 18.055-6.674-9.144 30.495 28.083-37.5 16.687-6.167-33.3 44.207 11.937 30.56-17.95 6.643-9.313-24.732-9.498 31.689-18.055 6.674ZM222.11 133.187l-20.977 70.084 13.056-4.829 9.675-32.261-0.056 0.073 11.358-37.888-13.056 4.829ZM225.861 163.505l10.126 26.876 13.941-5.151-11.575-29.649 29.645-39.363-9.296 3.434-32.833 43.853Z" fill="#C11209" />
      </g>
      <g>
        <path d="M309.927 135.92l-9.619 31.809-15.632 5.78 9.974-33.059-5.345-33.253 16.098-5.957 3.292 23.241 18.956-31.471 11.277-4.168-29.001 47.069Z" fill="#FFFFFF" />
        <path d="M283.034 175.25l10.521-34.873-5.45-33.873 18.16-6.715 3.058 21.588 17.604-29.23 14.521-5.369-30.547 49.585-9.732 32.18-18.135 6.707ZM290.488 107.899l5.248 32.623-9.426 31.246 13.137-4.853 9.506-31.431 27.456-44.562-8.033 2.975-20.308 33.711-3.526-24.901-14.046 5.192Z" fill="#C11209" />
      </g>
      <g>
        <path d="M387.836 94.275c-0.829 20.806-16.01 47.948-37.164 55.776-13.611 5.03-23.23 0.234-22.586-15.937 0.829-20.806 15.849-47.892 37.244-55.8 13.458-4.974 23.15-0.21 22.514 15.961ZM342.663 131.566c-0.33 8.392 2.946 10.713 9.015 8.465 12.13-4.49 21.049-30.173 21.564-43.2 0.33-8.392-3.027-10.592-9.015-8.376-12.211 4.514-21.049 30.092-21.564 43.111Z" fill="#FFFFFF" />
        <path d="M341.263 153.025c-3.276 0-6.093-0.83-8.363-2.482-4.153-3.023-6.19-8.722-5.876-16.478 0.829-20.854 15.567-48.488 37.936-56.758 7.51-2.773 13.748-2.588 18.046 0.54 4.161 3.031 6.206 8.722 5.9 16.469-0.829 20.943-16.243 48.738-37.855 56.734-3.574 1.322-6.85 1.983-9.772 1.983ZM374.611 77.484c-2.632 0-5.634 0.605-8.919 1.822-20.864 7.715-35.747 34.591-36.551 54.848-0.282 7.013 1.449 12.084 5.006 14.672 3.695 2.692 9.281 2.765 16.155 0.225 20.815-7.698 35.666-34.558 36.471-54.816h0c0.282-6.997-1.457-12.068-5.023-14.655-1.908-1.395-4.314-2.088-7.139-2.088ZM347.847 141.893c-1.336 0-2.479-0.339-3.413-1.016-2.093-1.524-3.018-4.587-2.833-9.351h0c0.507-12.825 9.345-39.298 22.256-44.07 3.26-1.209 5.828-1.153 7.623 0.153 2.085 1.516 3.01 4.547 2.825 9.262-0.507 12.858-9.353 39.387-22.264 44.159-1.562 0.58-2.962 0.871-4.202 0.871ZM343.726 131.607h0c-0.153 3.95 0.499 6.489 1.956 7.545 1.183 0.863 3.075 0.822 5.626-0.121 11.116-4.111 20.324-28.464 20.872-42.249 0.153-3.894-0.499-6.409-1.948-7.456-1.191-0.863-3.083-0.822-5.643 0.121-11.116 4.111-20.324 28.408-20.871 42.16Z" fill="#C11209" />
      </g>
      <g>
        <path d="M454.347 46.166l-15.914 53.341c-3.711 12.398-13.096 22.934-27.102 28.11-18.199 6.731-25.009-1.346-20.412-16.655l13.957-46.505 15.559-5.756-14.328 48.101c-2.817 9.222-1.071 13.398 6.247 10.698 5.836-2.16 8.862-7.07 11.244-14.922l15.197-50.664 15.56-5.756Z" fill="#FFFFFF" />
        <path d="M400.127 131.067c-4.21 0-6.802-1.346-8.379-2.838-3.63-3.418-4.266-9.496-1.844-17.573l14.111-47.013 18.046-6.675-14.939 50.149c-2.036 6.675-1.095 8.851-0.355 9.552 1.111 1.048 3.445 0.492 5.208-0.161 5.023-1.862 8.098-5.981 10.601-14.236l15.35-51.172 18.047-6.675-16.526 55.38c-3.968 13.253-14.078 23.748-27.745 28.803-4.805 1.782-8.597 2.451-11.575 2.451ZM405.745 65.271l-13.804 45.997c-2.149 7.15-1.698 12.624 1.263 15.413 3.244 3.055 9.385 3.031 17.765-0.064 13.032-4.821 22.675-14.816 26.45-27.416l15.302-51.294-13.064 4.829-15.044 50.157c-2.721 8.972-6.166 13.503-11.897 15.614-3.389 1.249-5.876 1.153-7.405-0.29-1.98-1.878-2.053-5.707-0.218-11.721l13.716-46.053-13.064 4.828Z" fill="#C11209" />
      </g>
      <g>
        <path d="M467.459 78.693l-9.184 30.617-15.56 5.755 21.741-72.631 20.615-7.626c12.211-4.514 20.188-2.813 19.76 7.932-0.306 7.779-4.443 17.315-17.08 24.748 8.154-0.774 10.593 3.402 7.236 14.55l-4.676 15.422-15.56 5.755 5.377-17.751c3.453-11.608 0-11.455-7.55-8.665l-5.135 1.894ZM489.465 49.544c0.177-4.458-2.302-5.78-7.662-3.797l-5.055 1.87-6.182 20.629 6.769-2.499c7.623-2.821 11.848-8.948 12.138-16.203Z" fill="#FFFFFF" />
        <path d="M441.081 116.798l22.506-75.186 21.113-7.812c8.106-2.999 14.022-3.2 17.588-0.604 2.568 1.87 3.783 5.095 3.606 9.576-0.217 5.409-2.455 15.324-14.529 23.668 2.036 0.274 3.55 1.04 4.588 2.314 2.069 2.531 2.085 6.844 0.056 13.583l-4.829 15.929-18.063 6.682 6.005-19.798c1.779-5.981 1.409-7.932 0.781-8.521-1.071-1.008-5.039 0.459-6.947 1.169l-4.636 1.717-9.184 30.617-18.055 6.674ZM465.318 43.24l-20.977 70.084 13.064-4.829 9.184-30.616 5.635-2.08c3.743-1.387 7.26-2.483 9.136-0.725 1.626 1.532 1.57 4.724-0.201 10.689l-4.757 15.703 13.055-4.829 4.524-14.913c1.755-5.828 1.867-9.738 0.33-11.616-1.111-1.354-3.22-1.87-6.455-1.564l-4.782 0.451 4.138-2.434c5.964-3.507 16.05-11.278 16.557-23.869 0.145-3.732-0.773-6.344-2.729-7.771-2.914-2.12-8.315-1.814-15.599 0.878l-20.115 7.441ZM468.924 69.987l6.946-23.184 5.554-2.056c3.34-1.233 5.731-1.282 7.293-0.145 1.288 0.943 1.9 2.62 1.803 4.982-0.314 7.892-5.111 14.301-12.839 17.162l-8.765 3.241ZM477.609 48.431l-5.417 18.082 4.765-1.766c6.995-2.588 11.164-8.142 11.446-15.244 0.064-1.612-0.25-2.676-0.926-3.176-0.918-0.669-2.753-0.524-5.304 0.42l-4.556 1.684Z" fill="#C11209" />
      </g>
      <g>
        <path d="M217.353 229.438l-15.093 5.578c1.666-11.124 0.056-14.921-6.085-12.648-10.891 4.031-20.3 28.609-20.864 42.942-0.306 7.602 2.173 10.818 9.096 8.263 5.369-1.983 10.81-7.876 14.859-20.911l14.392-5.321c-6.512 21.096-18.127 31.85-30.652 36.485-15.012 5.554-22.86-1.362-22.28-15.872 0.861-21.588 16.243-48.125 37.172-55.864 14.392-5.32 21.757 0.137 19.463 17.348Z" fill="#FFFFFF" />
        <path d="M173.677 286.793c-3.196 0-5.94-0.798-8.137-2.402-4.161-3.031-6.198-8.73-5.892-16.477 0.829-20.895 15.543-48.561 37.863-56.816 7.51-2.781 13.177-2.701 16.839 0.242 3.888 3.112 5.248 9.254 4.049 18.251l-0.08 0.637-17.379 6.424 0.266-1.781c0.982-6.546 0.757-10.455-0.676-11.624-0.757-0.613-2.093-0.572-3.993 0.128-10.367 3.837-19.624 28.15-20.171 41.983-0.153 3.918 0.467 6.417 1.851 7.425 1.175 0.854 3.131 0.79 5.812-0.202 5.948-2.201 10.73-9.004 14.207-20.225l0.153-0.5 16.903-6.248-0.636 2.064c-5.916 19.17-16.445 31.672-31.295 37.17-3.55 1.314-6.802 1.967-9.692 1.967ZM207.13 211.195c-2.487 0-5.449 0.637-8.878 1.902-21.5 7.948-35.666 34.687-36.471 54.905-0.282 7.005 1.457 12.084 5.014 14.672 3.59 2.612 9.063 2.668 15.841 0.161 13.66-5.054 23.52-16.396 29.332-33.728l-11.849 4.385c-3.679 11.592-8.838 18.686-15.35 21.088-3.437 1.274-5.989 1.249-7.799-0.072-2.028-1.475-2.922-4.49-2.729-9.23 0.571-14.341 10.086-39.653 21.564-43.902 2.688-0.992 4.677-0.927 6.069 0.218 1.996 1.628 2.519 5.208 1.682 11.818l12.815-4.74c0.95-7.852-0.177-13.124-3.349-15.671-1.497-1.201-3.469-1.806-5.892-1.806Z" fill="#C11209" />
      </g>
      <g>
        <path d="M249.501 193.694l-8.741 29.069 18.513-6.844 8.742-29.069 15.631-5.78-21.821 72.664-15.712 5.812 9.804-32.567-18.433 6.82-9.724 32.535-15.559 5.755 21.741-72.631 15.559-5.756Z" fill="#FFFFFF" />
        <path d="M210.575 273.822l22.506-75.186 18.054-6.675-8.741 29.069 16.01-5.925 8.741-29.069 18.135-6.707-22.586 75.219-18.215 6.739 9.804-32.567-15.93 5.893-9.723 32.535-18.055 6.674ZM234.811 200.264l-20.976 70.084 13.056-4.829 9.723-32.535 20.937-7.738-9.804 32.567 13.208-4.885 21.049-70.108-13.136 4.861-8.742 29.068-21.008 7.771 8.741-29.069-13.056 4.829Z" fill="#C11209" />
      </g>
      <g>
        <path d="M332.65 162.941l-3.268 10.939-23.021 8.512-5.473 18.219 21.781-8.053-3.276 11.027-21.781 8.053-6.448 21.508 25.822-9.553-3.268 10.939-41.381 15.3 21.741-72.631 38.58-14.268Z" fill="#FFFFFF" />
        <path d="M270.695 251.59l22.506-75.187 41.075-15.187-4.033 13.494-23.021 8.513-4.708 15.663 21.773-8.054-4.033 13.584-21.781 8.053-5.683 18.952 25.822-9.553-4.033 13.494-43.876 16.228ZM294.931 178.031l-20.976 70.084 38.886-14.381 2.511-8.392-25.822 9.553 7.212-24.063 21.782-8.053 2.519-8.48-21.789 8.061 6.246-20.774 23.021-8.512 2.511-8.392-36.085 13.341Z" fill="#C11209" />
      </g>
      <g>
        <path d="M339.878 160.272l15.093-5.578-5.571 43.66 22.989-50.101 14.779-5.465-4.081 42.853 21.499-49.294 10.73-3.966-33.799 77.097-14.159 5.232 4.339-47.424-25.492 55.251-14.859 5.498 8.516-67.746Z" fill="#FFFFFF" />
        <path d="M330.082 229.623l8.814-70.124 17.338-6.417-4.91 38.5 20.276-44.183 16.783-6.207-3.606 37.903 19.02-43.595 13.507-4.998-34.982 79.806-16.163 5.974 3.928-42.958-23.093 50.043-16.912 6.256ZM340.852 161.046l-8.218 65.361 12.798-4.732 27.899-60.451-4.749 51.89 12.154-4.491 32.608-74.38-7.961 2.942-23.987 54.986 4.548-47.803-12.774 4.724-25.709 56.025 6.222-48.819-12.839 4.748Z" fill="#C11209" />
      </g>
    </g>
    <g>
      <line x1="57.817" y1="174.686" x2="531.08" y2="1.023" />
      <rect x="49.649" y="88.168" width="504.124" height="2.184" transform="translate(-19.52 107.9) rotate(-20.1)" fill="#C11209" />
    </g>
    <g>
      <line x1="57.817" y1="352.983" x2="531.08" y2="179.321" />
      <rect x="64.396" y="269.08" width="504.124" height="2.184" transform="translate(-95.58 121.39) rotate(-20.1)" fill="#C11209" />
    </g>
  </g>
</svg>