<?xml version="1.0" encoding="UTF-8"?>
<svg id="Layer_1" xmlns="http://www.w3.org/2000/svg" version="1.1" viewBox="0 0 1078.5 640.908">
  <!-- Generator: Adobe Illustrator 30.5.1, SVG Export Plug-In . SVG Version: 2.1.4 Build 3)  -->
  <defs>
    <style>
      .st0, .st1 {
        fill: #c11209;
      }

      .st2 {
        stroke-width: 5px;
      }

      .st2, .st3 {
        fill: #fff;
        stroke: #c11209;
        stroke-miterlimit: 10;
      }

      .st3 {
        stroke-width: 9.874px;
      }

      .st1 {
        font-family: ControlUprightTrial-Medium, 'Control Upright Trial';
        font-size: 41.056px;
        font-weight: 500;
      }
    </style>
  </defs>
  <rect class="st2" x="-14.659" y="161.016" width="629.362" height="60.024" rx="30.012" ry="30.012" transform="translate(-47.242 114.134) rotate(-20)"/>
  <circle class="st0" cx="41.678" cy="283.094" r="4.428"/>
  <circle class="st0" cx="554.365" cy="95.101" r="4.428"/>
  <text class="st1" transform="translate(72.37 288.843) rotate(-20) scale(1.064 .94) skewX(-17.817)"><tspan x="0" y="0">CHEF-INSPIRED DAILY</tspan></text>
  <g>
    <path class="st0" d="M214.367,308.291v40.172l-109.85,39.982v72.877l97.406-35.453v40.528l-97.406,35.453v113.049l-71.457,26.008v-266.626l181.307-65.99Z"/>
    <path class="st0" d="M324.902,268.06v266.626l-71.101,25.879v-266.626l71.101-25.879Z"/>
    <path class="st0" d="M472.778,214.238c72.88-26.526,108.784-18.619,108.784,30.795,0,29.15-18.128,53.168-47.992,72.925,36.261-5.021,60.436,5.022,60.436,40.927,0,46.57-30.22,88.855-115.896,120.038l-104.518,38.041V250.338l99.185-36.1ZM509.396,275.209c0-24.529-14.575-28.823-41.237-19.119l-23.109,8.411v68.967l23.109-8.411c26.662-9.704,41.237-25.32,41.237-49.848ZM521.84,383.375c0-27.73-15.645-33.055-51.193-20.116l-25.597,9.316v78.21l25.597-9.316c35.905-13.068,51.193-30.366,51.193-58.093Z"/>
    <path class="st0" d="M813.677,90.16v40.172l-114.117,41.535v66.834l101.316-36.876v40.528l-101.316,36.876v78.921l118.027-42.958v40.172l-189.484,68.967V157.704l185.574-67.544Z"/>
    <path class="st0" d="M967.585,34.143c63.28-23.032,109.136-19.815,109.136,34.934,0,28.084-14.927,55.913-54.39,80.23,40.172-6.799,56.169,5.864,56.169,46.036v65.057l-71.809,26.136v-65.057c0-47.637-22.4-39.485-47.64-29.941l-27.728,10.092v112.338l-71.457,26.008V73.349l107.719-39.206ZM1006.691,97.053c0-25.24-13.866-31.926-43.73-21.056l-31.638,11.515v75.722l31.638-11.515c29.864-10.869,43.73-29.426,43.73-54.666Z"/>
  </g>
  <g>
    <path class="st3" d="M189.682,292.591v40.172l-109.85,39.982v72.877l97.406-35.453v40.528l-97.406,35.453v113.049l-71.457,26.008v-266.626l181.307-65.99Z"/>
    <path class="st3" d="M300.216,252.359v266.626l-71.101,25.879v-266.626l71.101-25.879Z"/>
    <path class="st3" d="M448.092,198.537c72.88-26.526,108.784-18.619,108.784,30.795,0,29.15-18.128,53.168-47.992,72.925,36.261-5.021,60.436,5.022,60.436,40.927,0,46.57-30.22,88.855-115.896,120.038l-104.518,38.041V234.637l99.185-36.1ZM484.71,259.509c0-24.529-14.575-28.823-41.237-19.119l-23.109,8.411v68.967l23.109-8.411c26.662-9.704,41.237-25.32,41.237-49.848ZM497.154,367.674c0-27.73-15.645-33.055-51.193-20.116l-25.597,9.316v78.21l25.597-9.316c35.905-13.068,51.193-30.366,51.193-58.093Z"/>
    <path class="st3" d="M788.992,74.46v40.172l-114.117,41.535v66.834l101.316-36.876v40.528l-101.316,36.876v78.921l118.027-42.958v40.172l-189.484,68.967V142.003l185.574-67.544Z"/>
    <path class="st3" d="M942.899,18.442c63.28-23.032,109.136-19.815,109.136,34.934,0,28.084-14.927,55.913-54.39,80.23,40.172-6.799,56.169,5.864,56.169,46.036v65.057l-71.809,26.136v-65.057c0-47.637-22.4-39.485-47.64-29.941l-27.728,10.092v112.338l-71.457,26.008V57.648l107.719-39.206ZM982.005,81.353c0-25.24-13.866-31.926-43.73-21.056l-31.638,11.515v75.722l31.638-11.515c29.864-10.869,43.73-29.426,43.73-54.666Z"/>
  </g>
</svg>