<?xml version="1.0" encoding="UTF-8"?>
<svg id="Layer_2" data-name="Layer 2" xmlns="http://www.w3.org/2000/svg" viewBox="0 0 496.47 273.82">
  
  <g id="Layer_1-2" data-name="Layer 1">
    <g>
      <path fill="#fff" d="M188.14,259.29l8.77-35.3c1.6-6.61,1.3-8.63-4.96-6.74l.69-2.54,21.51-7.83c9.23-3.36,18.23-3.35,15.48,8.47-1.6,6.99-8.31,12.25-14.64,15.47,7.02-1.71,13.65,1.82,11.36,11.65-2.36,10.17-10.98,17.73-23.34,22.22l-25.02,9.11.61-2.51c6.56-2.77,7.86-5.22,9.53-12.01ZM202.4,261.96c7.47-2.72,13.88-8.94,15.94-18,2.14-9.09-1.68-12.28-9.3-9.5l-8.85,3.22-5.57,22.62c-1.3,5.12,4.27,2.94,7.78,1.67ZM222.38,216.48c1.3-5.5-.69-9.36-8.08-6.67l-7.93,2.89-5.42,21.72,8.16-2.97c8.24-3,12.05-9.57,13.27-14.97Z"/>
      <path fill="#fff" d="M231.84,242.17c0-10.91,9.15-29.79,23.64-35.07,7.47-2.72,12.58.07,12.58,8.23,0,11.44-9.46,29.91-23.57,35.04-7.47,2.72-12.66-.04-12.66-8.2ZM239.46,240.77c0,5.03,1.68,8.16,6.1,6.55,9.46-3.44,14.95-22.45,14.95-30.68,0-4.96-1.68-8.08-6.1-6.47-9.38,3.41-14.95,22.45-14.95,30.61Z"/>
      <path fill="#fff" d="M268.98,234.83c0-3.97,2.44-6.68,4.73-7.44,1.98-.72,3.89.03,3.89,2.7,0,1.75-1.37,4.16-4.35,6.46.92.51,2.29.23,3.43-.26,3.58-1.53,7.17-7.34,10.6-20.48l1.6-6.15c1.83-7,1.37-10.95-2.06-10.39-4.12.66-6.64,7.83-8.39,12.66l-2.36-.21c2.82-7.66,5.64-14.18,12.28-16.6,3.66-1.33,7.7-.59,8.39,3.28,2.36-5.06,5.19-8.22,8.77-9.52,5.19-1.89,7.32,1.15,7.32,4.58-.08,3.61-2.52,6.25-4.96,7.14-1.98.72-3.97.15-3.97-2.37,0-2.06,1.53-4.9,4.81-7.16-.69-.36-1.75-.43-3.13.07-3.89,1.42-7.17,6.19-10.98,20.7l-1.6,6.07c-1.83,7-1.6,11.26,1.83,10.7,3.97-.6,6.64-8.06,8.39-12.89l2.36.21c-2.82,7.66-5.72,14.59-12.36,16.62-2.97.93-7.32.45-8.24-3.18-2.59,5.06-5.64,8.23-8.77,9.37-4.35,1.58-7.25-.34-7.25-3.92Z"/>
    </g>
    <g>
      <path fill="#fff" d="M46.23,174.82c-6.18,2.18-10.08,6.93-10.29,12.24-.2,5.1,3.07,6.56,11.11,7.86,12.02,1.76,18.4,6.56,17.99,16.86-.57,14.42-10.73,30.46-30.83,37.88-18.65,6.89-30.48.36-28.71-17.82l18.17-6.71c-.92,11.24,2.81,15.52,11.89,12.17,7.34-2.71,10.53-8.48,10.72-13.25s-2.86-6.96-11-8.22c-10.88-1.75-17.18-6.16-16.73-17.43.65-16.37,13.38-30.05,29.14-35.87,16.43-6.07,26.74-1.97,26.31,15.93l-17.68,6.53c.36-9-2.44-12.88-10.07-10.17Z"/>
      <path fill="#fff" d="M133.64,131.65l-1.79,80.79-18.36,6.78.49-21.76-25.03,9.24-13.53,26.58-12.85,4.75,50.2-98.67,20.87-7.71ZM114.36,185.35l.72-30.08-18.7,36.71,17.97-6.64Z"/>
      <path fill="#fff" d="M190.45,110.67l-6.25,58.82,31.66-68.21,26.38-9.74-27.11,90.14-18.84,6.96,20.52-68.26-34.34,73.37-17.01,6.28,6.31-62.8-20.51,68.05-11.98,4.42,27.01-90.1,24.16-8.92Z"/>
      <path fill="#fff" d="M281.19,77.16c16.43-6.07,26.02-3.2,25.49,10.35-.76,19.08-15.08,34.52-36.34,42.37l-12.27,4.53-10.55,35.31-19.33,7.14,27.01-90.1,25.99-9.6ZM287.89,95.31c.24-5.96-3.23-7.35-9.99-4.86l-7.44,2.75-8.34,27.65,9.86-3.64c9.37-3.46,15.51-11.6,15.92-21.9Z"/>
      <path fill="#fff" d="M343.03,54.32l-22.95,76.53,29.38-10.85-4.16,13.61-48.61,17.95,27.01-90.1,19.33-7.14Z"/>
      <path fill="#fff" d="M430.19,22.14l-4.06,13.57-28.6,10.56-6.8,22.6,27.06-9.99-4.07,13.68-27.06,9.99-8.01,26.68,32.08-11.85-4.06,13.57-51.41,18.98,27.01-90.1,47.93-17.7Z"/>
      <path fill="#fff" d="M448.7,61.67l-11.41,37.98-19.33,7.14,27.01-90.1,25.61-9.46c15.17-5.6,25.08-3.49,24.55,9.84-.38,9.65-5.52,21.48-21.22,30.7,10.13-.96,13.16,4.22,8.99,18.05l-5.81,19.13-19.33,7.14,6.68-22.02c4.29-14.4,0-14.21-9.38-10.75l-6.38,2.35ZM476.04,25.51c.22-5.53-2.86-7.17-9.52-4.71l-6.28,2.32-7.68,25.59,8.41-3.1c9.47-3.5,14.72-11.1,15.08-20.1Z"/>
    </g>
    <g>
      <path fill="#a82e4a" d="M42.23,171.82c-6.18,2.18-10.08,6.93-10.29,12.24-.2,5.1,3.07,6.56,11.11,7.86,12.02,1.76,18.4,6.56,17.99,16.86-.57,14.42-10.73,30.46-30.83,37.88-18.65,6.89-30.48.36-28.71-17.82l18.17-6.71c-.92,11.24,2.81,15.52,11.89,12.17,7.34-2.71,10.53-8.48,10.72-13.25s-2.86-6.96-11-8.22c-10.88-1.75-17.18-6.16-16.73-17.43.65-16.37,13.38-30.05,29.14-35.87,16.43-6.07,26.74-1.97,26.31,15.93l-17.68,6.53c.36-9-2.44-12.88-10.07-10.17Z"/>
      <path fill="#a82e4a" d="M129.64,128.65l-1.79,80.79-18.36,6.78.49-21.76-25.03,9.24-13.53,26.58-12.85,4.75,50.2-98.67,20.87-7.71ZM110.36,182.35l.72-30.08-18.7,36.71,17.97-6.64Z"/>
      <path fill="#a82e4a" d="M186.45,107.67l-6.25,58.82,31.66-68.21,26.38-9.74-27.11,90.14-18.84,6.96,20.52-68.26-34.34,73.37-17.01,6.28,6.31-62.8-20.51,68.05-11.98,4.42,27.01-90.1,24.16-8.92Z"/>
      <path fill="#a82e4a" d="M277.19,74.16c16.43-6.07,26.02-3.2,25.49,10.35-.76,19.08-15.08,34.52-36.34,42.37l-12.27,4.53-10.55,35.31-19.33,7.14,27.01-90.1,25.99-9.6ZM283.89,92.31c.24-5.96-3.23-7.35-9.99-4.86l-7.44,2.75-8.34,27.65,9.86-3.64c9.37-3.46,15.51-11.6,15.92-21.9Z"/>
      <path fill="#a82e4a" d="M339.03,51.32l-22.95,76.53,29.38-10.85-4.16,13.61-48.61,17.95,27.01-90.1,19.33-7.14Z"/>
      <path fill="#a82e4a" d="M426.19,19.14l-4.06,13.57-28.6,10.56-6.8,22.6,27.06-9.99-4.07,13.68-27.06,9.99-8.01,26.68,32.08-11.85-4.06,13.57-51.41,18.98,27.01-90.1,47.93-17.7Z"/>
      <path fill="#a82e4a" d="M444.7,58.67l-11.41,37.98-19.33,7.14,27.01-90.1,25.61-9.46c15.17-5.6,25.08-3.49,24.55,9.84-.38,9.65-5.52,21.48-21.22,30.7,10.13-.96,13.16,4.22,8.99,18.05l-5.81,19.13-19.33,7.14,6.68-22.02c4.29-14.4,0-14.21-9.38-10.75l-6.38,2.35ZM472.04,22.51c.22-5.53-2.86-7.17-9.52-4.71l-6.28,2.32-7.68,25.59,8.41-3.1c9.47-3.5,14.72-11.1,15.08-20.1Z"/>
    </g>
  </g>
</svg>