<?xml version="1.0" encoding="UTF-8"?>
<svg id="Layer_2" data-name="Layer 2" xmlns="http://www.w3.org/2000/svg" viewBox="0 0 74.22 97.54">
  <g id="Layer_1-2" data-name="Layer 1">
    <path d="M66.2,23.71c-9.16-11.82-21.45-1.57-32.27.95.72-3.91,1.79-7.78,3.26-11.48.98-2.46,7.09-11.8,5.37-12.99-2.19-1.5-6.72,6.52-7.47,8.01-2.5,4.96-4.54,10.9-4.77,16.47-7.03-1.47-9.45-5.22-17.56-4.24C-2.34,22.25.15,34.97,2.59,46.28c1.41,2.14,5.06-1.98,7.43-.58,4.71,7.17,5.92,14.86.85,22.16l-1.48-.44-2.19-7.38c-2.06-1.33-4.77,2.37-5.48,4.05-3.87,9.19-.82,22.03,5.23,29.67,4.86,6.14,17.71.69,23.76,1.11,2.51.18,5.78,2.1,8.69,2.44,22.26,2.63,30.35-17.8,33.92-35.76,2.3-11.54.27-28.29-7.12-37.84ZM65.05,77.03c-3.31,10.3-12.84,18.38-24.12,16.59-2.63-.43-6.47-3.04-8.17-3.22-5.59-.59-15.04,4.2-20.99,1.42-.54-.25-4.33-4.54-4.8-5.28-3.17-4.92-3.49-13.06-2.56-18.67,1.89-.09,2.01,1.89,3.65,3.18,6.61,5.23,9.44,2.18,16.8.53,6.92,12.68,19.01,10.25,26.08-.74,3.49-5.43,6.3-17.61,4.02-23.65-4.04-10.74-19.25-9.38-25.04-.94-3-2.12-5.44-5.8-9.36-6.41-4.86-.76-10.18.45-14.71,2.11.89-6.17-4.46-12.55,2.61-16.46,7.47-4.14,11.57.2,17.77,2.91,1.3.57,4.97,1.06,5.37,1.47.81.81.89,6.91,4.43,2.97l.04-4.2c9.28-3.25,20.63-12.15,27.98-.62,9.25,14.55,5.96,33.57,1,49.01Z"/>
  </g>
</svg>