<?xml version="1.0" encoding="UTF-8"?>
<svg id="Layer_2" data-name="Layer 2" xmlns="http://www.w3.org/2000/svg" viewBox="0 0 799.73 439.56">
  <defs>
    <style>
      .cls-1, .cls-2 {
        fill: #b12a1d;
      }

      .cls-1, .cls-2, .cls-3 {
        stroke: #b12a1d;
        stroke-linejoin: round;
      }

      .cls-2, .cls-3 {
        stroke-width: 2.64px;
      }

      .cls-3 {
        fill: #fff;
      }
    </style>
  </defs>
  <g id="Layer_1-2" data-name="Layer 1">
    <g>
      <path class="cls-2" d="M64.6,332.73c.11-12.33-4.13-15.89-11.86-13.04-9.57,3.53-15.1,13.27-15.84,31.92l-.26,6.51c-.74,18.54,3.99,24.17,13.94,20.49,8.41-3.1,14.01-9.87,15.5-25.92l17.1-6.32c-2.63,25.33-15.9,38.13-33.19,44.52-19.42,7.17-33.95-1.14-32.93-26.73l.19-4.77c1.04-26.24,17.31-44.96,35.86-51.81,17.1-6.32,29.93-3.25,30.41,18.15l-18.94,6.99Z"/>
      <path class="cls-2" d="M113.58,286.12l-1.29,32.53,23-8.49,1.29-32.53,19.33-7.14-3.24,81.33-19.33,7.14,1.45-36.43-23,8.49-1.45,36.43-19.42,7.17,3.24-81.33,19.42-7.17Z"/>
      <path class="cls-2" d="M219.29,247.08l-.49,12.25-31.02,11.46-.81,20.39,27.54-10.17-.49,12.36-27.54,10.17-.96,24.07,32.08-11.85-.49,12.25-51.51,19.02,3.24-81.33,50.44-18.63Z"/>
      <path class="cls-2" d="M281.13,224.24l-.49,12.25-29.86,11.03-.89,22.23,26.48-9.78-.49,12.36-26.48,9.78-1.37,34.48-19.42,7.17,3.24-81.33,49.28-18.2Z"/>
      <path class="cls-2" d="M315.48,246.28l-.62,15.51-27.54,10.17.62-15.51,27.54-10.17Z"/>
      <path class="cls-2" d="M347.22,199.84l-3.24,81.33-19.33,7.14,3.24-81.33,19.33-7.14Z"/>
      <path class="cls-2" d="M384.13,186.21l21.75,46.78,2.21-55.63,12.47-4.6-3.24,81.33-20.78,7.67-24.38-52.43-2.48,62.35-12.47,4.6,3.24-81.33,23.67-8.74Z"/>
      <path class="cls-2" d="M446.06,182.68c-.25,6.18,3.76,5.98,14.55,5.2,19.1-1.5,26.29,2.15,25.67,17.77-.54,13.66-10.64,28.07-29.19,34.93-17.78,6.57-30.42,1.3-30.06-17.32l18.36-6.78c.03,11.32,4.26,14.88,12.86,11.7,7.15-2.64,10.78-7.61,10.99-12.93.23-5.86-3.15-7.06-14.6-6.25-16.71,1.26-25.15-2.15-24.57-16.57.6-15.18,12.08-28.5,26.68-33.89,17.49-6.46,27.88-1.85,28.35,15.07l-17.78,6.57c-.46-9.87-4.38-12.06-11.14-9.56-5.9,2.18-9.86,6.1-10.1,12.06Z"/>
      <path class="cls-2" d="M527.14,133.4c18.46-6.82,29.85-3.65,29.16,13.81-.69,17.35-10.93,28.18-31.13,35.64l-9.95,3.67-1.27,31.88-19.42,7.17,3.24-81.33,29.38-10.85ZM537.27,154.02c.34-8.57-3.85-10.86-11.87-7.9l-8.7,3.21-.99,24.94,8.7-3.21c8.02-2.96,12.52-8.47,12.87-17.04Z"/>
      <path class="cls-2" d="M586.18,111.6l-3.24,81.33-19.33,7.14,3.24-81.33,19.33-7.14Z"/>
      <path class="cls-2" d="M628.7,95.9c17.2-6.35,29.42-4.88,28.76,11.82-.34,8.57-4.67,16.9-15.52,23.9,10.82-1.65,14.95,2.39,14.46,14.64l-.79,19.84-19.52,7.21.79-19.84c.58-14.53-5.51-12.28-12.38-9.64l-7.54,2.78-1.36,34.27-19.42,7.17,3.24-81.33,29.28-10.81ZM638.39,115.5c.31-7.7-3.32-9.89-11.44-6.89l-8.6,3.18-.92,23.1,8.6-3.18c8.12-3,12.05-8.51,12.36-16.21Z"/>
      <path class="cls-2" d="M720.98,61.82l-.49,12.25-31.02,11.46-.81,20.39,27.54-10.17-.49,12.36-27.54,10.17-.96,24.07,32.08-11.85-.49,12.25-51.51,19.02,3.24-81.33,50.44-18.63Z"/>
      <path class="cls-2" d="M758.56,47.94c25.51-9.42,39.15-.46,38.19,23.61l-.19,4.77c-.94,23.64-15.63,43.49-41.24,52.94l-25.03,9.24,3.24-81.33,25.03-9.24ZM752.47,62.26l-2.26,56.82,4.73-1.75c13.05-4.82,21.17-12.84,21.96-32.58l.26-6.51c.81-20.39-6.91-22.56-19.95-17.74l-4.73,1.75Z"/>
    </g>
    <g>
      <path class="cls-3" d="M59.49,327.52c.11-12.33-4.13-15.89-11.86-13.04-9.57,3.53-15.1,13.27-15.84,31.92l-.26,6.51c-.74,18.54,3.99,24.17,13.94,20.49,8.41-3.1,14.01-9.87,15.5-25.92l17.1-6.32c-2.63,25.33-15.9,38.13-33.19,44.52-19.42,7.17-33.95-1.14-32.93-26.73l.19-4.77c1.04-26.24,17.31-44.96,35.86-51.81,17.1-6.32,29.93-3.25,30.41,18.15l-18.94,6.99Z"/>
      <path class="cls-3" d="M108.47,280.91l-1.29,32.53,23-8.49,1.29-32.53,19.33-7.14-3.24,81.33-19.33,7.14,1.45-36.43-23,8.49-1.45,36.43-19.42,7.17,3.24-81.33,19.42-7.17Z"/>
      <path class="cls-3" d="M214.18,241.87l-.49,12.25-31.02,11.45-.81,20.39,27.54-10.17-.49,12.36-27.54,10.17-.96,24.07,32.08-11.85-.49,12.25-51.51,19.02,3.24-81.33,50.44-18.63Z"/>
      <path class="cls-3" d="M276.02,219.03l-.49,12.25-29.86,11.03-.89,22.23,26.48-9.78-.49,12.36-26.48,9.78-1.37,34.48-19.42,7.17,3.24-81.33,49.28-18.2Z"/>
      <path class="cls-3" d="M310.37,241.07l-.62,15.51-27.54,10.17.62-15.51,27.54-10.17Z"/>
      <path class="cls-3" d="M342.11,194.63l-3.24,81.33-19.33,7.14,3.24-81.33,19.33-7.14Z"/>
      <path class="cls-3" d="M379.02,181l21.75,46.78,2.21-55.63,12.47-4.6-3.24,81.33-20.78,7.67-24.38-52.43-2.48,62.35-12.47,4.6,3.24-81.33,23.67-8.74Z"/>
      <path class="cls-3" d="M440.95,177.47c-.25,6.18,3.76,5.98,14.55,5.2,19.1-1.5,26.29,2.15,25.67,17.77-.54,13.66-10.64,28.07-29.19,34.93-17.78,6.57-30.42,1.3-30.06-17.32l18.36-6.78c.03,11.32,4.26,14.88,12.86,11.7,7.15-2.64,10.78-7.61,10.99-12.93.23-5.86-3.15-7.06-14.6-6.25-16.71,1.26-25.15-2.15-24.57-16.57.6-15.18,12.08-28.5,26.68-33.89,17.49-6.46,27.88-1.85,28.35,15.07l-17.78,6.57c-.46-9.87-4.38-12.06-11.14-9.56-5.9,2.18-9.86,6.1-10.1,12.06Z"/>
      <path class="cls-3" d="M522.03,128.19c18.46-6.82,29.85-3.65,29.16,13.81-.69,17.35-10.93,28.18-31.13,35.64l-9.95,3.67-1.27,31.88-19.42,7.17,3.24-81.33,29.38-10.85ZM532.16,148.81c.34-8.57-3.85-10.86-11.87-7.9l-8.7,3.21-.99,24.94,8.7-3.21c8.02-2.96,12.52-8.47,12.87-17.04Z"/>
      <path class="cls-3" d="M581.07,106.39l-3.24,81.33-19.33,7.14,3.24-81.33,19.33-7.14Z"/>
      <path class="cls-3" d="M623.58,90.69c17.2-6.35,29.42-4.88,28.76,11.82-.34,8.57-4.67,16.9-15.52,23.9,10.82-1.65,14.95,2.39,14.46,14.64l-.79,19.84-19.52,7.21.79-19.84c.58-14.53-5.51-12.28-12.38-9.64l-7.54,2.78-1.36,34.27-19.42,7.17,3.24-81.33,29.28-10.81ZM633.28,110.29c.31-7.7-3.32-9.89-11.44-6.89l-8.6,3.18-.92,23.1,8.6-3.18c8.12-3,12.05-8.51,12.36-16.21Z"/>
      <path class="cls-3" d="M715.86,56.61l-.49,12.25-31.02,11.46-.81,20.39,27.54-10.17-.49,12.36-27.54,10.17-.96,24.07,32.08-11.85-.49,12.25-51.51,19.02,3.24-81.33,50.44-18.63Z"/>
      <path class="cls-3" d="M753.45,42.73c25.51-9.42,39.15-.46,38.19,23.61l-.19,4.77c-.94,23.64-15.63,43.49-41.24,52.94l-25.03,9.24,3.24-81.33,25.03-9.24ZM747.36,57.05l-2.26,56.82,4.73-1.75c13.05-4.82,21.17-12.84,21.96-32.58l.26-6.51c.81-20.39-6.91-22.56-19.95-17.74l-4.73,1.75Z"/>
    </g>
    <g>
      <line class="cls-1" x1="1.11" y1="293.64" x2="790" y2="1.92"/>
      <polygon class="cls-1" points="1.57 294.91 .64 292.36 789.53 .64 790.46 3.19 1.57 294.91"/>
    </g>
    <g>
      <line class="cls-1" x1="9.73" y1="437.65" x2="798.62" y2="145.93"/>
      <polygon class="cls-1" points="10.2 438.92 9.26 436.38 798.15 144.66 799.09 147.2 10.2 438.92"/>
    </g>
  </g>
</svg>