<?xml version="1.0" encoding="UTF-8"?>
<svg id="Layer_2" data-name="Layer 2" xmlns="http://www.w3.org/2000/svg" viewBox="0 0 218.88 226.25">
  <defs>
    <style>
      .cls-1 {
        fill: #6c4626;
      }
    </style>
  </defs>
  <g id="Layer_1-2" data-name="Layer 1">
    <g>
      <path class="cls-1" d="M22.34,48.37l-.88-2.48C1.69,48.84-3.25,70.6,1.9,87.55c1.27,4.17,2.74,8.05,7.97,7.48,5.66-.61,7.66-17.12,9.7-22.63,1.55-4.19,4.22-7.84,5.21-12.23,11.47,3.24,18.45,14.04,26.16,21.58,1.27,1.24,4.21,1.17,4.62,1.83.66,1.05,0,5.3.73,7.67,1.2,3.9,4.21,6.32,4.6,10.23-15.75-9.11-24.44,2.85-23.26,18.76.2,2.67,2.35,5.75,2.29,6.44-.11,1.22-2.89,2.36-3.35,4.11-.18.67.9,12.48,1.16,13.89,1.38,7.61,9.76,11.18,16.72,9.74.68.69.96,15.34,1.86,18.15,1.65,5.18,8.83,5.36,9.66,6.54.37.52-.58,9.17.7,12.8,4.44,12.61,21.11,11.12,29.08,2.53,3.19,11.5,15.87,12.62,25.88,9.57,1.91,1.49.8,11.45,7.31,13.39,4.21,1.26,16.67-1.26,20.3-3.74,2.29-1.56,1.13-4.69,4.6-3.73.02,16.27,20.08,15.84,30.32,7.74,2.67,8.42,11.17,8.84,19.17,8.55,21.09-.78,18.71-22.91,4.89-32.59,6.21-13.91.15-28.71-16.93-27.59-.34-2.55,2.05-3.32,2.54-5.83,2.43-12.43-6.35-20.14-18.03-19.99,4.82-6.29-3.02-17.6-2.32-21.11.33-1.67,3.84-3.58,4.63-6.9,2.01-8.52-2.51-15.27-8.73-20.41-2.24-1.85-6.26-2.97-6.48-3.26-.43-.57,2.4-7.15-1.05-13.75-2.47-4.72-7.44-6.12-9.16-8.91-3.03-4.9-.14-9.49-7.22-14.73-11.14-8.24-28.62-4.41-33.71,8.99-10.12-4.38-24.97-.01-27.64,11.67-10.08-4.44-20.96-5.62-28.35,3.87-1.47-3.81-5.19-9.28-9.05-10.35l.16-2.44,2.39-2.01c-5.21-7.48-17.89-18.85-26.92-12.47ZM7.99,89.85c-6.27-16.5-1.26-46.84,21.92-36.12-1.38,3.37-8.53,2.47-10.41,4.73-1.17,1.4-4.95,10.99-5.68,13.36-1.8,5.77-.96,14.15-5.83,18.04ZM143.13,56.67c1.29,1.77,1.88,6.95,1.74,9.25-1.11,19.06-30.63,18.22-25.6-3.56,2.2-9.52,18.44-13.14,23.86-5.69ZM115.13,80.81c-5.49-1.54-6.99,4.35-11.01,5.15-15.65,3.08-17.83-13.96-7.97-19.6,11.13-6.36,18.67,3.97,18.99,14.45ZM146.99,79.13c1.46-1.6,2.48-5.17,3-7.36,5.64.72,8.69,12.57,5.17,16.17-2.51,2.56-11.86,3.02-14.34.08-4.46-5.29,3.97-6.48,6.17-8.89ZM71.51,73.36c20.08,2.28,7.78,24.8-5.88,20.15-4.87-1.66-6.42-21.54,5.88-20.15ZM110.09,106.5c-2.16-1.89.19-16.19,2.38-18.65,3.61-4.06,17.36-5.79,20.65-1.13,2.45,3.47.76,6.43,7.82,8.95-2.93,1.4-5.03-.79-8.63.28-1.64.49-8.93,4.94-10.72,6.2-3.79,2.68-2.4,6.74-11.5,4.34ZM78.98,100.16l8.59-11.5,15.94,2.48c-.71,4.59,1.1,11.88-.23,15.97-.63,1.95-11.46,10.03-8.82,16.31-6.64-.28-2.04-6.44-2.58-10.85-.69-5.7-7.25-11.55-12.9-12.4ZM149.97,111.8c-4.58-22.36,21.13-24.08,21.51-2.96.19,10.61-15.29.27-21.51,2.96ZM125.67,106.85l10.57-5.24c15.24,10.05,4.7,12.94.55,23.47-1.24,3.16-1.36,6.73-2.33,9.96l-6.44-1.31c1.49-3.27,3.96-7.1,3.8-10.85-.24-5.52-8.39-12.21-6.15-16.03ZM75.79,104.7c5.34.44,10.87,5.46,9.11,11.03-.22.7-6.17,9.82-6.67,10.17-4.87,3.4-12.61,3.82-15.4-2.48-5.5-12.39-.6-19.83,12.96-18.72ZM44.13,122.12c-1.07-8.47.61-20.43,11.57-16.72l.03,18.01c-4.79-.35-6.48-3.99-11.6-1.29ZM113.83,111.81c22.9,4.85,3.26,34.95-9.74,18.12-6.19-8.02-.31-21.07,9.11-14.3l.63-3.82ZM160.67,117.22c12.49,2.77,12.12,29.79-2.32,30.8-22.95,1.6-20.73-35.9,2.32-30.8ZM74.15,134.07c2-2.05,11.43-4.71,14.33-7.99l11.14,8.94c-10.62-3.29-13.62,2.37-16.21,11.68-6.4.64-14.35-7.41-9.26-12.63ZM45.72,146.34c-2.36-2.35-1.96-10.61-.88-13.83,3.99-11.89,19.21-.57,14.09,11.52-1.87,4.42-10.2,5.3-13.21,2.3ZM134.48,164.72c-21.07-.68-16.52-29.75,1.68-24.25,8.19,2.47-.6,8.71-1.4,12.26-.86,3.78.01,8.12-.28,11.99ZM107.06,157.94c-1.42,1.62-7.12,2-9.31,1.61-7.48-1.32-7.86-13.41-4.66-18.8,6.78-1.64,17.44-1.28,16.98,7.8-.06,1.25-2.47,8.77-3.01,9.38ZM178.72,145.58c11.84,2.51,9.41,22.09-3.46,20.4-12.57-1.65-7.76-22.78,3.46-20.4ZM160.31,153.1c.99,22.53-28.18,19.54-16.79-2.01l16.79,2.01ZM81.57,154.42c-1.87,1.77,11.55,21.29-10.98,19.34-10.13-.88-11.41-6.78-9.65-16.11,1.57-8.37,18.76-7.07,24.48-3.9l-3.85.67ZM104.84,172.42c-3.44-3.6,10.23-20.79,13.6-6.49,2.75,11.67-6.03,7.21-13.6,6.49ZM90.6,163.43l7.59,1.44c-.53,2.62,1.36,8.58.73,10.26-.41,1.08-2.87,2.41-3.75,3.88-3.37,5.68-6.32,14.77-13.58,16.21-7.55,1.5-11.04-6.29-10.24-12.89.85-2.45,8.23-2.95,11.11-4.43,5.3-2.72,9.1-8.37,8.14-14.47ZM129.63,210.87c-3.26-3.97-1.86-22.09-2.91-27.41-.58-2.91-3.37-3.91-3.66-5.37-.22-1.08,3.26-9.23,4.39-9.48l12.19,2.57c-5.33,7.97-5.13,14.22.76,21.82,4.22,5.45,9.64,4.46,6.01,12.71-2.14,4.85-14.1,8.43-16.78,5.16ZM187.4,171.18c11.71-1.51,17.29,4.33,15.41,16.05-1.82,11.38-21.71,11.55-19.23-4.99.79-5.27,6.53-6.35,3.81-11.06ZM165.15,172.78c4.61,4.81-1.06,19.57-7.06,21.38-6.86,2.06-14.14-3.74-14.65-10.74-.86-12.01,5.4-8.85,13.35-9.95,2.36-.33,5.28-3.9,8.35-.69ZM174.51,172.46l5.14,1.92c-4.73,3.94-4.01,9.28-3.86,14.87l-3.87-.02,2.59-16.77ZM103.82,197.96c-3.48-3.36-6.28-14.22-1.03-17.86,3.13-2.32,12.87,1.67,16.93,2.61,1.86,2.6.24,13.58-2.55,15.69-2.6,1.98-11.08,1.75-13.35-.44ZM174.88,195.98c5.71,1.67,5.82,10.19,3.81,14.89-4.03,9.44-23.48,7.29-17.6-7.27,2.73-6.76,5.95-9.91,13.78-7.62ZM209.05,218.63c-24.56,10.92-26.01-25.52-3.2-18.78,6.51,1.92,6.92,13.9,3.2,18.78Z"/>
      <path class="cls-1" d="M22.54,40.4c.6.55,1.44.75,2.16,1.09l2.64-1.37c-2.25-5.75-4.08-12.27-1.61-18.37,1.52-3.73,14.25-13.26,13.22-10.02-4.37,7.61-9.2,15.73-10.27,24.61-.43,3.54,4.13,1.37,6.4,1.86.59-10.7,6.19-20.95,12.38-29.58,1.44-2,7.99-6.21,4.45-8.54-10.43-1.24-26.62,9.82-31.56,18.86-3.18,5.82-2.77,16.88,2.2,21.44Z"/>
    </g>
  </g>
</svg>