<?xml version="1.0" encoding="UTF-8"?>
<svg id="Layer_2" data-name="Layer 2" xmlns="http://www.w3.org/2000/svg" viewBox="0 0 63.87 116.44">
  <defs>
    <style>
      .cls-1 {
        fill: #6c4626;
      }
    </style>
  </defs>
  <g id="Layer_1-2" data-name="Layer 1">
    <path class="cls-1" d="M41.76,34.62c1.93,3.27,8.56,1.12,11.83,1.62,15.07,2.28,9.76,29.52,7.56,39.78-3.06,14.28-13.14,53.73-33.99,35.86-6.97-5.97-22.24-40.39-22.87-49.72-.37-5.43.89-9.63,5.78-12.65,2.7-1.67,5.75-1,6.96-2.96-6.87-.84-24.29-15.11-13.67-19.75l14.83,8.03c-2.07-9.13-6.35-18.98-1.76-28.09,5.39-5.56,9.73,10.71,11.02,13.58.62,1.39-.55,2.11,2.44,1.64-.37-4.92,8.09-30.5,13.78-19.04,4.27,8.59-3.19,29.54-1.91,31.7ZM34.56,37.16c1.75-7.93,4.98-15.2,3.51-23.39-2.16.84-2.77,5.86-3.18,7.92-.62,3.16-1.35,8.15-1.53,11.35-.07,1.27-.75,4.44,1.2,4.12ZM24.04,32.49l-3.49-12.86c-.32,2.36.28,4.55.76,6.83.32,1.53.83,5.83,2.73,6.03ZM20.53,40.7l-10.52-4.68c1.1,2.22,3.52,4.4,5.78,5.32.98.4,4.97,1.6,4.74-.64ZM55.45,42.06c-7.25-4.43-17.46,8.9-22.87,10.1s-20.12-2.96-22.32,4.57c-2.83,9.69,6.03,21.98,9.13,30.76,3.57.75,2.25-4.98,5.83-6.44,3.61-1.45,2.07,7.1.57,8.8-1.33,1.51-3.89.98-4.09,1.17-1.9,1.82,12.4,30.08,22.77,17.49,7.1-8.61,16.25-48.56,13.71-59.14-.31-1.28-2.2-6.97-2.74-7.3Z"/>
    <path class="cls-1" d="M33.99,78.15c2.47,1.18,5.64,9.57,2.33,10.5-4.75,1.32-7.16-8.59-2.33-10.5Z"/>
    <polygon class="cls-1" points="34.46 70.97 30.05 70.37 29.9 61.75 34.02 62.88 34.46 70.97"/>
    <path class="cls-1" d="M22.77,71.01l-3.4.09c-.54-10.65,9.46-13.03,3.4-.09Z"/>
    <path class="cls-1" d="M47.44,62.91c-2.01,2.09-5.71-3.35-6.47-4.7l2.38-3.47c2.01,1.03,5.76,6.42,4.09,8.16Z"/>
    <path class="cls-1" d="M43.37,73.45c3.72-.96,7.28,4.86,3.47,5.85s-7.28-4.86-3.47-5.85Z"/>
    <path class="cls-1" d="M49.8,54.72v-3.5c5.85-.44,5.85,3.94,0,3.5Z"/>
  </g>
</svg>