<svg xmlns="http://www.w3.org/2000/svg" viewBox="0 0 200 200"><path d="M 100.00 26.00 A 17.71 17.71 0 0 1 134.39 34.48 A 17.71 17.71 0 0 1 160.90 57.96 A 17.71 17.71 0 0 1 173.46 91.08 A 17.71 17.71 0 0 1 169.19 126.24 A 17.71 17.71 0 0 1 149.07 155.39 A 17.71 17.71 0 0 1 117.71 171.85 A 17.71 17.71 0 0 1 82.29 171.85 A 17.71 17.71 0 0 1 50.93 155.39 A 17.71 17.71 0 0 1 30.81 126.24 A 17.71 17.71 0 0 1 26.54 91.08 A 17.71 17.71 0 0 1 39.10 57.96 A 17.71 17.71 0 0 1 65.61 34.48 A 17.71 17.71 0 0 1 100.00 26.00 Z" fill="#FFFFFF" stroke="#1F33B9" stroke-width="4" stroke-linejoin="round"/></svg>