<?xml version="1.0" encoding="UTF-8"?>
<svg id="Layer_2" data-name="Layer 2" xmlns="http://www.w3.org/2000/svg" viewBox="0 0 292.78 210.76">
  <defs>
    <style>
      .cls-1 {
        fill: #c11209;
      }

      .cls-1, .cls-2 {
        stroke: #c11209;
        stroke-miterlimit: 10;
        stroke-width: 2.64px;
      }

      .cls-3, .cls-2 {
        fill: #fff;
      }
    </style>
  </defs>
  <g id="Layer_1-2" data-name="Layer 1">
    <g>
      <path class="cls-3" d="M49.74,209.1c3.34-1.44,4.5-2.62,5.43-6.52l5.16-21.15c.89-3.66.49-4.5-2.98-3.46l.4-1.66,12.82-4.67c5.56-2.02,10.28-1.6,9.12,4.91-.85,4.76-4.27,8.1-8.86,10.48,4.81-.33,5.79,1.72,4.76,5.7l-.67,2.82c-.53,2.02-1.07,4.79.71,4.15,1.42-.52,2.63-3.45,3.87-7.2l1.6.04c-1.25,3.57-2.4,8.09-6.72,9.52-4.01,1.32-4.81-1.46-4.14-4.1l.67-2.65c1.56-6.13.22-7.6-4.5-6.02-1.47.49-2.89.96-4.36,1.63l-2.45,10.02c-.89,3.66-.45,4.48,3.03,3.44l-.4,1.66-12.91,4.7.4-1.66ZM75.11,178.01c.76-4.06-.89-5.91-5.61-4.19l-3.56,1.3-3.29,13.53c1.29-.29,2.31-.58,3.52-1.01,4.54-1.65,7.97-4.28,8.95-9.62Z"/>
      <path class="cls-3" d="M83.65,187.28c1.91-7.86,7.48-14.43,13.13-16.26,4.01-1.28,5.07.78,4.76,3.03-.49,3.47-4.27,8.46-13.57,12.51-.04.19,0,.09-.04.28-.93,5.41.94,7.36,3.78,6.5,2.58-.76,4.9-3.47,7.34-9.17l1.33-.04c-2.54,6.53-5.56,10.53-9.97,12.13-5.43,1.98-8.68-1.16-6.77-8.98ZM88.33,185c6.5-2.94,8.81-7.04,9.39-9.25.45-1.68.31-3.81-1.91-3-3.29,1.2-6.19,7.06-7.48,12.07l.04-.02-.04.2Z"/>
      <path class="cls-3" d="M116.05,170.9l-.98,3.92-11.71,4.26.98-3.92,11.71-4.26Z"/>
      <path class="cls-3" d="M116.01,184.98c3.34-1.44,4.5-2.62,5.43-6.52l5.16-21.15c.89-3.66.45-4.48-3.03-3.44l.4-1.66,14.2-5.17c5.83-2.12,9.88-.79,8.46,5.65-1.42,6.44-7.08,10.59-12.95,13.04-1.78.74-3.87,1.41-5.56,1.85l-2.27,9.28c-.89,3.66-.45,4.48,3.03,3.44l-.4,1.66-12.86,4.68.4-1.66ZM141.91,153.97c.76-3.88-.49-6.32-5.3-4.57l-4.45,1.62-3.56,14.6c1.29-.34,2.49-.64,3.69-1.08,4.98-1.81,8.46-4.68,9.61-10.58Z"/>
      <path class="cls-3" d="M146.22,169.4l6.41-24.63c.58-2.21.04-2.33-1.74-1.82l-2.05.61.36-1.55c2.71-1.03,6.23-2.62,8.99-4.47l.27.17c-.49,1.29-1.25,3.44-1.6,4.86l-6.72,25.68c-.71,2.66-1.02,4.33,0,4.32,1.51-.06,3.16-3.69,4.67-7.04l1.29.15c-1.78,3.76-3.56,8.29-7.17,9.29-2.58.72-3.92-.93-2.71-5.55Z"/>
      <path class="cls-3" d="M158.28,163.76c0-6.46,4.9-16.92,12.02-19.51,2.76-1,4.63-.39,5.07,1.4l.09-.03.8-3.1,4.01-1.46-4.67,17.9c-.27,1.03-.58,2.26-.58,3.01,0,.93.44,1.4,1.2,1.12,1.42-.52,2.67-3.42,4.05-7.22l1.38.08c-1.51,4.07-2.85,8.11-6.41,9.41-2.27.83-3.87-.06-3.74-2.51l-.18.02c-1.25,2.54-2.89,4.97-6.23,6.19-4.54,1.65-6.81-.9-6.81-5.31ZM163,161.87c-.27,4.06,1.02,5.73,3.16,4.95,2.89-1.05,5.25-5.78,6.05-8.83l2.36-9.05c.09-2.66-.98-4.36-3.38-3.49-4.72,1.72-7.83,10.77-8.19,16.42Z"/>
      <path class="cls-3" d="M184.67,155.58l4.18-15.9-4.58,1.67.49-1.91,4.54-1.65,1.83-7.16,4.05-1.47-1.82,7.16,5.56-2.03-.53,1.93-5.47,1.99-4.05,15.45c-.62,2.45-.98,4.41.36,4.5,2.4.19,4.14-4.67,5.16-7.49l1.38.12c-1.65,4.47-2.89,8.35-7.21,9.7-2.36.72-5.12-.09-3.87-4.91Z"/>
      <path class="cls-3" d="M199.36,145.16c1.91-7.86,7.48-14.43,13.13-16.26,4.01-1.28,5.07.78,4.76,3.03-.49,3.47-4.27,8.45-13.57,12.51-.04.19,0,.09-.04.28-.93,5.41.93,7.36,3.78,6.5,2.58-.76,4.9-3.47,7.34-9.17l1.34-.04c-2.54,6.53-5.56,10.53-9.97,12.13-5.43,1.98-8.68-1.16-6.77-8.98ZM204.03,142.88c6.5-2.94,8.81-7.04,9.39-9.25.44-1.68.31-3.81-1.91-3-3.29,1.2-6.19,7.06-7.48,12.07l.04-.02-.04.2Z"/>
      <path class="cls-3" d="M219.25,141.48c0-6.5,4.76-16.78,11.71-19.3,2.71-.99,4.32-.28,5.16,1.37l.09-.03,2.58-10.11c.58-2.21.04-2.33-1.74-1.82l-2.05.61.36-1.55c2.71-1.03,6.23-2.62,8.99-4.47l.27.17c-.49,1.29-1.25,3.44-1.6,4.86l-6.68,25.66c-.27,1.03-.62,2.27-.62,3.17,0,.94.4,1.32,1.11,1.06,1.51-.55,2.71-3.3,4.18-7.35l1.38.12c-1.47,4.01-2.85,8.16-6.54,9.5-2.18.79-3.87.16-3.6-2.61l-.18.02c-1.29,2.52-3.12,5.05-6.28,6.2-4.27,1.55-6.54-1.05-6.54-5.5ZM232.96,135.91l2.4-9.24c.04-2.38-1.42-4.07-3.78-3.21-4.45,1.62-7.88,10.61-7.97,16.61-.04,3.31,1.07,5.31,3.47,4.43,2.98-1.09,5.12-5.65,5.88-8.59Z"/>
    </g>
    <g>
      <path class="cls-1" d="M57.92,84.41l-.49,12.25-29.86,11.03-.89,22.23,26.48-9.78-.49,12.36-26.48,9.78-1.37,34.48-19.42,7.17,3.24-81.33,49.28-18.2Z"/>
      <path class="cls-1" d="M87.97,73.31l-3.24,81.33-19.33,7.14,3.24-81.33,19.33-7.14Z"/>
      <path class="cls-1" d="M128.16,58.47c19.81-7.32,29.31-4.52,28.71,10.55-.35,8.89-5.49,16.03-13.72,21.73,9.76-1.15,16.1,2.17,15.66,13.13-.57,14.21-9.16,26.78-32.45,35.38l-28.41,10.49,3.24-81.33,26.96-9.96ZM139.23,110.58c.34-8.46-3.78-10.25-13.45-6.68l-6.96,2.57-.95,23.86,6.96-2.57c9.76-3.6,14.06-8.72,14.4-17.17ZM137.22,77.46c.3-7.48-3.55-8.95-10.79-6.27l-6.28,2.32-.84,21.04,6.28-2.32c7.25-2.68,11.33-7.29,11.63-14.77Z"/>
      <path class="cls-1" d="M220.83,24.25l-.49,12.25-31.02,11.45-.81,20.39,27.54-10.17-.49,12.36-27.54,10.17-.96,24.07,32.08-11.85-.49,12.25-51.51,19.02,3.24-81.33,50.44-18.63Z"/>
      <path class="cls-1" d="M262.67,8.8c17.2-6.35,29.42-4.88,28.76,11.82-.34,8.57-4.67,16.9-15.52,23.9,10.82-1.65,14.95,2.38,14.46,14.64l-.79,19.84-19.52,7.21.79-19.84c.58-14.53-5.51-12.28-12.38-9.64l-7.54,2.78-1.36,34.27-19.42,7.17,3.24-81.33,29.28-10.81ZM272.36,28.4c.31-7.7-3.32-9.89-11.44-6.89l-8.6,3.18-.92,23.1,8.6-3.18c8.12-3,12.05-8.51,12.36-16.21Z"/>
    </g>
    <g>
      <path class="cls-2" d="M53.92,80.41l-.49,12.25-29.86,11.03-.89,22.23,26.48-9.78-.49,12.36-26.48,9.78-1.37,34.48-19.42,7.17,3.24-81.33,49.28-18.2Z"/>
      <path class="cls-2" d="M83.97,69.31l-3.24,81.33-19.33,7.14,3.24-81.33,19.33-7.14Z"/>
      <path class="cls-2" d="M124.16,54.47c19.81-7.32,29.31-4.52,28.71,10.55-.35,8.89-5.49,16.03-13.72,21.73,9.76-1.15,16.1,2.17,15.66,13.13-.57,14.21-9.16,26.78-32.45,35.38l-28.41,10.49,3.24-81.33,26.96-9.96ZM135.23,106.58c.34-8.46-3.78-10.25-13.45-6.68l-6.96,2.57-.95,23.86,6.96-2.57c9.76-3.6,14.06-8.72,14.4-17.17ZM133.22,73.46c.3-7.48-3.55-8.95-10.79-6.27l-6.28,2.32-.84,21.04,6.28-2.32c7.25-2.68,11.33-7.29,11.63-14.77Z"/>
      <path class="cls-2" d="M216.83,20.25l-.49,12.25-31.02,11.45-.81,20.39,27.54-10.17-.49,12.36-27.54,10.17-.96,24.07,32.08-11.85-.49,12.25-51.51,19.02,3.24-81.33,50.44-18.63Z"/>
      <path class="cls-2" d="M258.67,4.8c17.2-6.35,29.42-4.88,28.76,11.82-.34,8.57-4.67,16.9-15.52,23.9,10.82-1.65,14.95,2.38,14.46,14.64l-.79,19.84-19.52,7.21.79-19.84c.58-14.53-5.51-12.28-12.38-9.64l-7.54,2.78-1.36,34.27-19.42,7.17,3.24-81.33,29.28-10.81ZM268.36,24.4c.31-7.7-3.32-9.89-11.44-6.89l-8.6,3.18-.92,23.1,8.6-3.18c8.12-3,12.05-8.51,12.36-16.21Z"/>
    </g>
  </g>
</svg>