<?xml version="1.0" encoding="UTF-8"?>
<svg id="Layer_2" data-name="Layer 2" xmlns="http://www.w3.org/2000/svg" viewBox="0 0 588.89 439.15">
  <defs>
    <style>
      .cls-1 {
        fill: #694078;
      }

      .cls-2 {
        fill: #fff;
      }
    </style>
  </defs>
  <g id="Layer_1-2" data-name="Layer 1">
    <g>
      <g>
        <path class="cls-1" d="M60.48,222.87c16.43-6.07,26.03-3.2,25.49,10.35-.76,19.08-15.08,34.52-36.34,42.38l-12.27,4.53-10.54,35.31-19.33,7.14,27.01-90.1,25.99-9.6ZM67.18,241.02c.24-5.96-3.23-7.35-9.99-4.86l-7.44,2.75-8.34,27.65,9.86-3.64c9.37-3.46,15.5-11.6,15.92-21.9Z"/>
        <path class="cls-1" d="M5.45,324.73l27.96-93.27,26.61-9.83c10.43-3.85,18.04-4.12,22.6-.8,3.32,2.42,4.89,6.6,4.66,12.45-.75,18.95-14.66,35.24-37.21,43.56l-11.65,4.3-10.54,35.31-22.43,8.28ZM35.56,233.48l-26.06,86.94,16.22-5.99,10.54-35.31,12.89-4.76c21.51-7.94,34.77-23.34,35.48-41.19.2-4.91-1.01-8.34-3.57-10.21-3.76-2.73-10.72-2.33-20.14,1.14l-.46-1.24.46,1.24-25.38,9.37ZM39.38,268.72l9.29-30.82,8.06-2.98c4.36-1.61,7.45-1.68,9.47-.22,1.65,1.2,2.42,3.34,2.3,6.36h0c-.43,10.74-6.7,19.37-16.78,23.09l-12.35,4.56ZM50.82,239.92l-7.38,24.48,7.37-2.72c9.04-3.34,14.67-11.08,15.05-20.72h0c.08-2.09-.33-3.47-1.22-4.12-1.21-.88-3.63-.69-7,.56l-6.82,2.52Z"/>
      </g>
      <g>
        <path class="cls-1" d="M122.7,199.89l-27.11,90.14-19.42,7.17,27.01-90.1,19.52-7.21Z"/>
        <path class="cls-1" d="M74.15,299.36l27.96-93.27,22.63-8.35-28.06,93.31-22.52,8.32ZM104.26,208.11l-26.06,86.94,16.32-6.03,26.15-86.97-16.42,6.06Z"/>
      </g>
      <g>
        <path class="cls-1" d="M187.89,205.41l-18.75,6.92c2.07-13.8.07-18.51-7.56-15.69-13.53,5-25.22,35.49-25.92,53.27-.38,9.43,2.7,13.43,11.3,10.25,6.67-2.46,13.43-9.77,18.46-25.94l17.88-6.6c-8.09,26.17-22.52,39.51-38.08,45.26-18.65,6.89-28.4-1.69-27.69-19.69,1.07-26.78,20.18-59.7,46.18-69.3,17.88-6.6,27.03.17,24.18,21.52Z"/>
        <path class="cls-1" d="M133.64,276.56c-3.97,0-7.38-.99-10.11-2.98-5.17-3.76-7.7-10.83-7.32-20.44,1.03-25.92,19.31-60.24,47.04-70.48,9.33-3.45,16.37-3.35,20.92.3,4.83,3.86,6.52,11.48,5.03,22.64l-.1.79-21.59,7.97.33-2.21c1.22-8.12.94-12.97-.84-14.42-.94-.76-2.61-.71-4.96.16-12.88,4.76-24.38,34.92-25.06,52.08-.19,4.86.58,7.96,2.3,9.21,1.46,1.06,3.89.98,7.22-.25,7.39-2.73,13.33-11.17,17.65-25.09l.19-.62,21-7.75-.79,2.56c-7.35,23.78-20.43,39.29-38.88,46.11-4.41,1.63-8.45,2.44-12.04,2.44ZM175.19,182.78c-3.09,0-6.77.79-11.03,2.36-26.71,9.86-44.32,43.03-45.31,68.11-.35,8.69,1.81,14.99,6.23,18.2,4.46,3.24,11.26,3.31,19.68.2,16.97-6.27,29.22-20.34,36.44-41.84l-14.72,5.44c-4.57,14.38-10.98,23.18-19.06,26.16-4.27,1.58-7.44,1.55-9.69-.09-2.52-1.83-3.63-5.58-3.39-11.45.71-17.79,12.53-49.19,26.79-54.46,3.34-1.23,5.81-1.15,7.54.27,2.48,2.02,3.13,6.46,2.09,14.66l15.93-5.88c1.18-9.74-.22-16.28-4.17-19.44-1.86-1.49-4.31-2.24-7.32-2.24Z"/>
      </g>
      <g>
        <path class="cls-1" d="M227.83,161.07l-12.73,42.42,39.12-52.16,16.14-5.96-39.1,51.83,14.6,37.34-19.81,7.32-12.49-33.1-12.73,42.42-19.33,7.14,27.01-90.1,19.33-7.14Z"/>
        <path class="cls-1" d="M179.47,260.47l27.96-93.27,22.43-8.28-11.36,37.83,34.89-46.52,20.73-7.65-41.37,54.84,14.83,37.91-22.3,8.24-11.57-30.68-11.8,39.31-22.43,8.28ZM209.58,169.22l-26.06,86.94,16.23-5.99,12.02-40.03-.07.09,14.11-47-16.22,5.99ZM214.24,206.83l12.57,33.34,17.32-6.39-14.38-36.78,36.83-48.83-11.55,4.26-40.79,54.4Z"/>
      </g>
      <g>
        <path class="cls-1" d="M318.67,172.61l-11.95,39.46-19.42,7.17,12.39-41.01-6.64-41.25,20-7.39,4.09,28.83,23.55-39.04,14.01-5.17-36.03,58.39Z"/>
        <path class="cls-1" d="M285.27,221.4l13.07-43.26-6.77-42.02,22.56-8.33,3.8,26.78,21.87-36.26,18.04-6.66-37.95,61.51-12.09,39.92-22.53,8.32ZM294.53,137.85l6.52,40.47-11.71,38.76,16.32-6.02,11.81-38.99,34.11-55.28-9.98,3.69-25.23,41.82-4.38-30.89-17.45,6.44Z"/>
      </g>
      <g>
        <path class="cls-1" d="M415.47,120.95c-1.03,25.81-19.89,59.48-46.17,69.19-16.91,6.24-28.86.29-28.06-19.77,1.03-25.81,19.69-59.41,46.27-69.22,16.72-6.17,28.76-.26,27.97,19.8ZM359.35,167.21c-.41,10.41,3.66,13.29,11.2,10.5,15.07-5.57,26.15-37.43,26.79-53.59.41-10.41-3.76-13.14-11.2-10.39-15.17,5.6-26.15,37.33-26.79,53.48Z"/>
        <path class="cls-1" d="M357.61,193.83c-4.07,0-7.57-1.03-10.39-3.08-5.16-3.75-7.69-10.82-7.3-20.44,1.03-25.87,19.34-60.15,47.13-70.41,9.33-3.44,17.08-3.21,22.42.67,5.17,3.76,7.71,10.82,7.33,20.43-1.03,25.98-20.18,60.46-47.03,70.38-4.44,1.64-8.51,2.46-12.14,2.46ZM399.04,100.12c-3.27,0-7,.75-11.08,2.26-25.92,9.57-44.41,42.91-45.41,68.04-.35,8.7,1.8,14.99,6.22,18.2,4.59,3.34,11.53,3.43,20.07.28,25.86-9.55,44.31-42.87,45.31-68h0c.35-8.68-1.81-14.97-6.24-18.18-2.37-1.73-5.36-2.59-8.87-2.59ZM365.79,180.02c-1.66,0-3.08-.42-4.24-1.26-2.6-1.89-3.75-5.69-3.52-11.6h0c.63-15.91,11.61-48.75,27.65-54.67,4.05-1.5,7.24-1.43,9.47.19,2.59,1.88,3.74,5.64,3.51,11.49-.64,15.95-11.62,48.86-27.66,54.78-1.94.72-3.68,1.08-5.22,1.08ZM360.67,167.26h0c-.19,4.9.62,8.05,2.43,9.36,1.47,1.07,3.82,1.02,6.99-.15,13.81-5.1,25.25-35.31,25.93-52.41.19-4.83-.62-7.95-2.42-9.25-1.48-1.07-3.83-1.02-7,.15-13.81,5.1-25.25,35.24-25.93,52.3Z"/>
      </g>
      <g>
        <path class="cls-1" d="M498.1,61.27l-19.77,66.17c-4.61,15.38-16.27,28.45-33.67,34.87-22.61,8.35-31.07-1.67-25.36-20.66l17.34-57.69,19.33-7.14-17.8,59.67c-3.5,11.44-1.33,16.62,7.75,13.27,7.25-2.68,11.01-8.77,13.97-18.51l18.88-62.85,19.33-7.14Z"/>
        <path class="cls-1" d="M430.74,166.59c-5.23,0-8.45-1.67-10.41-3.52-4.51-4.24-5.3-11.78-2.29-21.8l17.53-58.32,22.42-8.28-18.56,62.2c-2.53,8.28-1.36,10.98-.44,11.85,1.38,1.3,4.28.61,6.47-.2,6.24-2.31,10.06-7.42,13.17-17.66l19.07-63.48,22.42-8.28-20.53,68.7c-4.93,16.44-17.5,29.46-34.47,35.73-5.97,2.21-10.68,3.04-14.38,3.04ZM437.72,84.97l-17.15,57.06c-2.67,8.87-2.11,15.66,1.57,19.12,4.03,3.79,11.66,3.76,22.07-.08,16.19-5.98,28.17-18.38,32.86-34.01l19.01-63.63-16.23,5.99-18.69,62.22c-3.38,11.13-7.66,16.75-14.78,19.37-4.21,1.55-7.31,1.43-9.2-.36-2.47-2.33-2.55-7.08-.27-14.54l17.04-57.13-16.23,5.99Z"/>
      </g>
      <g>
        <path class="cls-1" d="M514.39,101.62l-11.41,37.98-19.33,7.14,27.01-90.1,25.61-9.46c15.17-5.6,25.08-3.49,24.55,9.84-.38,9.65-5.52,21.48-21.22,30.7,10.13-.96,13.16,4.22,8.99,18.05l-5.81,19.13-19.33,7.14,6.68-22.02c4.29-14.4,0-14.21-9.38-10.75l-6.38,2.35ZM541.73,65.46c.22-5.53-2.86-7.17-9.52-4.71l-6.28,2.32-7.68,25.59,8.41-3.1c9.47-3.5,14.72-11.1,15.08-20.1Z"/>
        <path class="cls-1" d="M481.62,148.89l27.96-93.27,26.23-9.69c10.07-3.72,17.42-3.97,21.85-.75,3.19,2.32,4.7,6.32,4.48,11.88-.27,6.71-3.05,19.02-18.05,29.36,2.53.34,4.41,1.29,5.7,2.87,2.57,3.14,2.59,8.49.07,16.85l-6,19.76-22.44,8.29,7.46-24.56c2.21-7.42,1.75-9.84.97-10.57-1.33-1.25-6.26.57-8.63,1.45l-5.76,2.13-11.41,37.98-22.43,8.28ZM511.73,57.64l-26.06,86.94,16.23-5.99,11.41-37.98,7-2.58c4.65-1.72,9.02-3.08,11.35-.9,2.03,1.9,1.95,5.86-.25,13.26l-5.91,19.48,16.22-5.99,5.62-18.5c2.18-7.23,2.32-12.08.41-14.41-1.38-1.68-4-2.32-8.02-1.94l-5.94.56,5.14-3.02c7.41-4.35,19.94-13.99,20.57-29.61.18-4.63-.96-7.87-3.39-9.64-3.62-2.63-10.32-2.26-19.38,1.09l-24.99,9.23ZM516.21,90.82l8.63-28.76,6.9-2.55c4.15-1.53,7.12-1.59,9.06-.18,1.6,1.17,2.36,3.25,2.24,6.18h0c-.39,9.79-6.35,17.74-15.95,21.29l-10.89,4.02ZM527,64.08l-6.73,22.43,5.92-2.19c8.69-3.21,13.87-10.1,14.22-18.91.08-2-.31-3.32-1.16-3.94-1.14-.83-3.42-.65-6.59.52l-5.66,2.09Z"/>
      </g>
      <g>
        <path class="cls-1" d="M203.67,288.62l-18.75,6.92c2.07-13.8.07-18.51-7.56-15.69-13.53,5-25.22,35.49-25.92,53.27-.38,9.43,2.7,13.42,11.3,10.25,6.67-2.46,13.43-9.77,18.46-25.94l17.88-6.6c-8.09,26.17-22.52,39.51-38.08,45.26-18.65,6.89-28.4-1.69-27.68-19.69,1.07-26.78,20.18-59.7,46.18-69.3,17.88-6.6,27.03.17,24.18,21.52Z"/>
        <path class="cls-1" d="M149.41,359.77c-3.97,0-7.38-.99-10.11-2.98-5.17-3.76-7.7-10.83-7.32-20.44,1.03-25.92,19.31-60.24,47.04-70.48,9.33-3.44,16.37-3.35,20.92.3,4.83,3.86,6.52,11.48,5.03,22.64l-.1.79-21.59,7.97.33-2.21c1.22-8.12.94-12.97-.84-14.42-.94-.76-2.6-.71-4.96.16-12.88,4.76-24.38,34.92-25.06,52.08-.19,4.86.58,7.96,2.3,9.21,1.46,1.06,3.89.98,7.22-.25,7.39-2.73,13.33-11.17,17.65-25.09l.19-.62,21-7.75-.79,2.56c-7.35,23.78-20.43,39.29-38.88,46.11-4.41,1.63-8.45,2.44-12.04,2.44ZM190.97,265.99c-3.09,0-6.77.79-11.03,2.36-26.71,9.86-44.31,43.03-45.31,68.11-.35,8.69,1.81,14.99,6.23,18.2,4.46,3.24,11.26,3.31,19.68.2,16.97-6.27,29.22-20.34,36.44-41.84l-14.72,5.44c-4.57,14.38-10.98,23.18-19.07,26.16-4.27,1.58-7.44,1.55-9.69-.09-2.52-1.83-3.63-5.57-3.39-11.45.71-17.79,12.53-49.19,26.79-54.46,3.34-1.23,5.81-1.15,7.54.27,2.48,2.02,3.13,6.46,2.09,14.66l15.93-5.88c1.18-9.74-.22-16.28-4.17-19.44-1.86-1.49-4.31-2.24-7.32-2.24Z"/>
      </g>
      <g>
        <path class="cls-1" d="M243.61,244.28l-10.86,36.06,23-8.49,10.86-36.06,19.42-7.17-27.11,90.14-19.52,7.21,12.18-40.4-22.9,8.46-12.08,40.36-19.33,7.14,27.01-90.1,19.33-7.14Z"/>
        <path class="cls-1" d="M195.25,343.68l27.96-93.27,22.43-8.28-10.86,36.06,19.89-7.35,10.86-36.06,22.53-8.32-28.06,93.31-22.63,8.36,12.18-40.4-19.79,7.31-12.08,40.36-22.43,8.28ZM225.36,252.43l-26.06,86.94,16.22-5.99,12.08-40.36,26.01-9.6-12.18,40.4,16.41-6.06,26.15-86.97-16.32,6.03-10.86,36.06-26.1,9.64,10.86-36.06-16.22,5.99Z"/>
      </g>
      <g>
        <path class="cls-1" d="M346.91,206.13l-4.06,13.57-28.6,10.56-6.8,22.6,27.06-9.99-4.07,13.68-27.06,9.99-8.01,26.68,32.08-11.85-4.06,13.57-51.41,18.98,27.01-90.1,47.93-17.7Z"/>
        <path class="cls-1" d="M269.94,316.1l27.96-93.27,51.03-18.84-5.01,16.74-28.6,10.56-5.85,19.43,27.05-9.99-5.01,16.85-27.06,9.99-7.06,23.51,32.08-11.85-5.01,16.74-54.51,20.13ZM300.05,224.85l-26.06,86.94,48.31-17.84,3.12-10.41-32.08,11.85,8.96-29.85,27.06-9.99,3.13-10.52-27.07,10,7.76-25.77,28.6-10.56,3.12-10.41-44.83,16.55Z"/>
      </g>
      <g>
        <path class="cls-1" d="M355.89,202.82l18.75-6.92-6.92,54.16,28.56-62.15,18.36-6.78-5.07,53.16,26.71-61.15,13.33-4.92-41.99,95.64-17.59,6.49,5.39-58.83-31.67,68.54-18.46,6.82,10.58-84.04Z"/>
        <path class="cls-1" d="M343.72,288.85l10.95-86.99,21.54-7.96-6.1,47.76,25.19-54.81,20.85-7.7-4.48,47.02,23.63-54.08,16.78-6.2-43.46,99-20.08,7.41,4.88-53.29-28.69,62.08-21.01,7.76ZM357.1,203.78l-10.21,81.08,15.9-5.87,34.66-74.99-5.9,64.37,15.1-5.57,40.51-92.27-9.89,3.65-29.8,68.21,5.65-59.3-15.87,5.86-31.94,69.5,7.73-60.56-15.95,5.89Z"/>
      </g>
    </g>
    <g>
      <g>
        <path class="cls-2" d="M55.48,218.87c16.43-6.07,26.02-3.2,25.49,10.35-.76,19.08-15.08,34.52-36.34,42.38l-12.27,4.53-10.55,35.31-19.33,7.14,27.01-90.1,25.99-9.6ZM62.18,237.02c.24-5.96-3.23-7.35-9.99-4.86l-7.44,2.75-8.34,27.65,9.86-3.64c9.37-3.46,15.51-11.6,15.92-21.9Z"/>
        <path class="cls-1" d="M.45,320.73l27.96-93.27,26.61-9.83c10.43-3.85,18.04-4.12,22.6-.8,3.32,2.42,4.89,6.6,4.66,12.45-.75,18.95-14.66,35.24-37.21,43.56l-11.65,4.3-10.55,35.31L.45,320.73ZM30.56,229.48l-26.06,86.94,16.22-5.99,10.55-35.31,12.89-4.76c21.51-7.94,34.77-23.34,35.48-41.19.2-4.91-1.01-8.34-3.57-10.21-3.76-2.73-10.72-2.33-20.14,1.14l-25.38,9.37ZM34.38,264.72l9.29-30.82,8.06-2.98c4.36-1.61,7.45-1.68,9.47-.22,1.65,1.2,2.42,3.34,2.3,6.36h0c-.43,10.74-6.7,19.37-16.78,23.09l-12.35,4.56ZM45.82,235.92l-7.38,24.48,7.37-2.72c9.04-3.34,14.67-11.08,15.05-20.72.08-2.09-.33-3.47-1.22-4.12-1.21-.88-3.63-.69-7,.56l-6.82,2.52Z"/>
      </g>
      <g>
        <path class="cls-2" d="M117.7,195.89l-27.11,90.14-19.42,7.17,27.01-90.1,19.52-7.21Z"/>
        <path class="cls-1" d="M69.15,295.36l27.96-93.27,22.62-8.35-28.06,93.31-22.52,8.32ZM99.26,204.11l-26.06,86.94,16.32-6.03,26.15-86.97-16.42,6.06Z"/>
      </g>
      <g>
        <path class="cls-2" d="M182.89,201.41l-18.75,6.92c2.07-13.8.07-18.51-7.56-15.69-13.53,5-25.22,35.49-25.92,53.27-.38,9.43,2.7,13.43,11.3,10.25,6.67-2.46,13.43-9.77,18.46-25.94l17.88-6.6c-8.09,26.17-22.52,39.51-38.08,45.26-18.65,6.89-28.4-1.69-27.69-19.69,1.07-26.78,20.18-59.7,46.18-69.3,17.88-6.6,27.03.17,24.18,21.52Z"/>
        <path class="cls-1" d="M128.64,272.56c-3.97,0-7.38-.99-10.11-2.98-5.17-3.76-7.7-10.83-7.32-20.44,1.03-25.92,19.31-60.24,47.04-70.48,9.33-3.45,16.37-3.35,20.92.3,4.83,3.86,6.52,11.48,5.03,22.64l-.1.79-21.59,7.97.33-2.21c1.22-8.12.94-12.97-.84-14.42-.94-.76-2.61-.71-4.96.16-12.88,4.76-24.38,34.92-25.06,52.08-.19,4.86.58,7.96,2.3,9.21,1.46,1.06,3.89.98,7.22-.25,7.39-2.73,13.33-11.17,17.65-25.09l.19-.62,21-7.75-.79,2.56c-7.35,23.78-20.43,39.29-38.88,46.11-4.41,1.63-8.45,2.44-12.04,2.44ZM170.19,178.78c-3.09,0-6.77.79-11.03,2.36-26.71,9.86-44.31,43.03-45.31,68.11-.35,8.69,1.81,14.99,6.23,18.2,4.46,3.24,11.26,3.31,19.68.2,16.97-6.27,29.22-20.34,36.44-41.84l-14.72,5.44c-4.57,14.38-10.98,23.18-19.07,26.16-4.27,1.58-7.44,1.55-9.69-.09-2.52-1.83-3.63-5.58-3.39-11.45.71-17.79,12.53-49.19,26.79-54.46,3.34-1.23,5.81-1.15,7.54.27,2.48,2.02,3.13,6.46,2.09,14.66l15.92-5.88c1.18-9.74-.22-16.28-4.16-19.44-1.86-1.49-4.31-2.24-7.32-2.24Z"/>
      </g>
      <g>
        <path class="cls-2" d="M222.83,157.07l-12.73,42.42,39.11-52.16,16.14-5.96-39.1,51.83,14.6,37.34-19.81,7.32-12.49-33.1-12.73,42.42-19.33,7.14,27.01-90.1,19.33-7.14Z"/>
        <path class="cls-1" d="M174.47,256.47l27.96-93.27,22.43-8.28-11.36,37.83,34.89-46.52,20.73-7.65-41.37,54.84,14.83,37.91-22.3,8.24-11.57-30.68-11.8,39.31-22.43,8.28ZM204.58,165.22l-26.06,86.94,16.22-5.99,12.02-40.02-.07.09,14.11-47-16.22,5.99ZM209.24,202.83l12.58,33.34,17.32-6.39-14.38-36.78,36.83-48.83-11.55,4.26-40.79,54.4Z"/>
      </g>
      <g>
        <path class="cls-2" d="M313.68,168.61l-11.95,39.46-19.42,7.17,12.39-41.01-6.64-41.25,20-7.39,4.09,28.83,23.55-39.04,14.01-5.17-36.03,58.39Z"/>
        <path class="cls-1" d="M280.27,217.4l13.07-43.26-6.77-42.02,22.56-8.33,3.8,26.78,21.87-36.26,18.04-6.66-37.95,61.51-12.09,39.92-22.53,8.32ZM289.53,133.85l6.52,40.47-11.71,38.76,16.32-6.02,11.81-38.99,34.11-55.28-9.98,3.69-25.23,41.82-4.38-30.89-17.45,6.44Z"/>
      </g>
      <g>
        <path class="cls-2" d="M410.47,116.95c-1.03,25.81-19.89,59.48-46.17,69.19-16.91,6.24-28.86.29-28.06-19.77,1.03-25.81,19.69-59.41,46.27-69.22,16.72-6.17,28.76-.26,27.97,19.8ZM354.35,163.21c-.41,10.41,3.66,13.29,11.2,10.5,15.07-5.57,26.15-37.43,26.79-53.59.41-10.41-3.76-13.14-11.2-10.39-15.17,5.6-26.15,37.33-26.79,53.48Z"/>
        <path class="cls-1" d="M352.61,189.83c-4.07,0-7.57-1.03-10.39-3.08-5.16-3.75-7.69-10.82-7.3-20.44,1.03-25.87,19.34-60.15,47.13-70.41,9.33-3.44,17.08-3.21,22.42.67,5.17,3.76,7.71,10.82,7.33,20.43-1.03,25.98-20.18,60.46-47.03,70.38-4.44,1.64-8.51,2.46-12.14,2.46ZM394.04,96.12c-3.27,0-7,.75-11.08,2.26-25.92,9.57-44.41,42.91-45.41,68.04-.35,8.7,1.8,14.99,6.22,18.2,4.59,3.34,11.53,3.43,20.07.28,25.86-9.55,44.31-42.87,45.31-68h0c.35-8.68-1.81-14.97-6.24-18.18-2.37-1.73-5.36-2.59-8.87-2.59ZM360.79,176.02c-1.66,0-3.08-.42-4.24-1.26-2.6-1.89-3.75-5.69-3.52-11.6h0c.63-15.91,11.61-48.75,27.65-54.67,4.05-1.5,7.24-1.43,9.47.19,2.59,1.88,3.74,5.64,3.51,11.49-.63,15.95-11.62,48.86-27.66,54.78-1.94.72-3.68,1.08-5.22,1.08ZM355.67,163.26h0c-.19,4.9.62,8.05,2.43,9.36,1.47,1.07,3.82,1.02,6.99-.15,13.81-5.1,25.25-35.31,25.93-52.41.19-4.83-.62-7.95-2.42-9.25-1.48-1.07-3.83-1.02-7.01.15-13.81,5.1-25.25,35.24-25.93,52.3Z"/>
      </g>
      <g>
        <path class="cls-2" d="M493.1,57.27l-19.77,66.17c-4.61,15.38-16.27,28.45-33.67,34.87-22.61,8.35-31.07-1.67-25.36-20.66l17.34-57.69,19.33-7.14-17.8,59.67c-3.5,11.44-1.33,16.62,7.76,13.27,7.25-2.68,11.01-8.77,13.97-18.51l18.88-62.85,19.33-7.14Z"/>
        <path class="cls-1" d="M425.74,162.59c-5.23,0-8.45-1.67-10.41-3.52-4.51-4.24-5.3-11.78-2.29-21.8l17.53-58.32,22.42-8.28-18.56,62.21c-2.53,8.28-1.36,10.98-.44,11.85,1.38,1.3,4.28.61,6.47-.2,6.24-2.31,10.06-7.42,13.17-17.66l19.07-63.48,22.42-8.28-20.53,68.7c-4.93,16.44-17.49,29.46-34.47,35.73-5.97,2.21-10.68,3.04-14.38,3.04ZM432.72,80.97l-17.15,57.06c-2.67,8.87-2.11,15.66,1.57,19.12,4.03,3.79,11.66,3.76,22.07-.08,16.19-5.98,28.17-18.38,32.86-34.01l19.01-63.63-16.23,5.99-18.69,62.22c-3.38,11.13-7.66,16.75-14.78,19.37-4.21,1.55-7.3,1.43-9.2-.36-2.46-2.33-2.55-7.08-.27-14.54l17.04-57.13-16.23,5.99Z"/>
      </g>
      <g>
        <path class="cls-2" d="M509.39,97.62l-11.41,37.98-19.33,7.14,27.01-90.1,25.61-9.46c15.17-5.6,25.08-3.49,24.55,9.84-.38,9.65-5.52,21.48-21.22,30.7,10.13-.96,13.16,4.22,8.99,18.05l-5.81,19.13-19.33,7.14,6.68-22.02c4.29-14.4,0-14.21-9.38-10.75l-6.38,2.35ZM536.73,61.46c.22-5.53-2.86-7.17-9.52-4.71l-6.28,2.32-7.68,25.59,8.41-3.1c9.47-3.5,14.72-11.1,15.08-20.1Z"/>
        <path class="cls-1" d="M476.62,144.89l27.96-93.27,26.23-9.69c10.07-3.72,17.42-3.97,21.85-.75,3.19,2.32,4.7,6.32,4.48,11.88-.27,6.71-3.05,19.01-18.05,29.36,2.53.34,4.41,1.29,5.7,2.87,2.57,3.14,2.59,8.49.07,16.85l-6,19.76-22.44,8.29,7.46-24.56c2.21-7.42,1.75-9.84.97-10.57-1.33-1.25-6.26.57-8.63,1.45l-5.76,2.13-11.41,37.98-22.43,8.28ZM506.73,53.64l-26.06,86.94,16.23-5.99,11.41-37.98,7-2.58c4.65-1.72,9.02-3.08,11.35-.9,2.02,1.9,1.95,5.86-.25,13.26l-5.91,19.48,16.22-5.99,5.62-18.5c2.18-7.23,2.32-12.08.41-14.41-1.38-1.68-4-2.32-8.02-1.94l-5.94.56,5.14-3.02c7.41-4.35,19.94-13.99,20.57-29.61.18-4.63-.96-7.87-3.39-9.64-3.62-2.63-10.33-2.25-19.38,1.09l-24.99,9.23ZM511.21,86.82l8.63-28.76,6.9-2.55c4.15-1.53,7.12-1.59,9.06-.18,1.6,1.17,2.36,3.25,2.24,6.18-.39,9.79-6.35,17.74-15.95,21.29l-10.89,4.02ZM522,60.08l-6.73,22.43,5.92-2.19c8.69-3.21,13.87-10.1,14.22-18.91.08-2-.31-3.32-1.15-3.94-1.14-.83-3.42-.65-6.59.52l-5.66,2.09Z"/>
      </g>
      <g>
        <path class="cls-2" d="M198.67,284.62l-18.75,6.92c2.07-13.8.07-18.51-7.56-15.69-13.53,5-25.22,35.49-25.92,53.27-.38,9.43,2.7,13.42,11.3,10.25,6.67-2.46,13.43-9.77,18.46-25.94l17.88-6.6c-8.09,26.17-22.52,39.51-38.08,45.26-18.65,6.89-28.4-1.69-27.68-19.69,1.07-26.78,20.18-59.7,46.18-69.3,17.88-6.6,27.03.17,24.18,21.52Z"/>
        <path class="cls-1" d="M144.41,355.77c-3.97,0-7.38-.99-10.11-2.98-5.17-3.76-7.7-10.83-7.32-20.44,1.03-25.92,19.31-60.24,47.04-70.48,9.33-3.45,16.37-3.35,20.92.3,4.83,3.86,6.52,11.48,5.03,22.64l-.1.79-21.59,7.97.33-2.21c1.22-8.12.94-12.97-.84-14.42-.94-.76-2.6-.71-4.96.16-12.88,4.76-24.38,34.92-25.06,52.08-.19,4.86.58,7.96,2.3,9.21,1.46,1.06,3.89.98,7.22-.25,7.39-2.73,13.33-11.17,17.65-25.09l.19-.62,21-7.75-.79,2.56c-7.35,23.78-20.43,39.29-38.88,46.11-4.41,1.63-8.45,2.44-12.04,2.44ZM185.97,261.99c-3.09,0-6.77.79-11.03,2.36-26.71,9.86-44.31,43.03-45.31,68.11-.35,8.69,1.81,14.99,6.23,18.2,4.46,3.24,11.26,3.31,19.68.2,16.97-6.27,29.22-20.34,36.44-41.84l-14.72,5.44c-4.57,14.38-10.98,23.18-19.07,26.16-4.27,1.58-7.44,1.55-9.69-.09-2.52-1.83-3.63-5.57-3.39-11.45.71-17.79,12.53-49.19,26.79-54.46,3.34-1.23,5.81-1.15,7.54.27,2.48,2.02,3.13,6.46,2.09,14.66l15.92-5.88c1.18-9.74-.22-16.28-4.16-19.44-1.86-1.49-4.31-2.24-7.32-2.24Z"/>
      </g>
      <g>
        <path class="cls-2" d="M238.61,240.28l-10.86,36.06,23-8.49,10.86-36.06,19.42-7.17-27.11,90.14-19.52,7.21,12.18-40.4-22.9,8.46-12.08,40.36-19.33,7.14,27.01-90.1,19.33-7.14Z"/>
        <path class="cls-1" d="M190.25,339.68l27.96-93.27,22.43-8.28-10.86,36.06,19.89-7.35,10.86-36.06,22.53-8.32-28.06,93.31-22.63,8.36,12.18-40.4-19.79,7.31-12.08,40.36-22.43,8.28ZM220.36,248.43l-26.06,86.94,16.22-5.99,12.08-40.36,26.01-9.6-12.18,40.4,16.41-6.06,26.15-86.97-16.32,6.03-10.86,36.06-26.1,9.64,10.86-36.06-16.22,5.99Z"/>
      </g>
      <g>
        <path class="cls-2" d="M341.91,202.13l-4.06,13.57-28.6,10.56-6.8,22.6,27.06-9.99-4.07,13.68-27.06,9.99-8.01,26.68,32.08-11.85-4.06,13.57-51.41,18.98,27.01-90.1,47.93-17.7Z"/>
        <path class="cls-1" d="M264.94,312.1l27.96-93.27,51.03-18.84-5.01,16.74-28.6,10.56-5.85,19.43,27.05-9.99-5.01,16.85-27.06,9.99-7.06,23.51,32.08-11.85-5.01,16.74-54.51,20.13ZM295.05,220.85l-26.06,86.94,48.31-17.84,3.12-10.41-32.08,11.85,8.96-29.85,27.06-9.99,3.13-10.52-27.07,10,7.76-25.77,28.6-10.56,3.12-10.41-44.83,16.55Z"/>
      </g>
      <g>
        <path class="cls-2" d="M350.89,198.82l18.75-6.92-6.92,54.16,28.56-62.15,18.36-6.78-5.07,53.16,26.71-61.15,13.33-4.92-41.99,95.64-17.59,6.49,5.39-58.83-31.67,68.54-18.46,6.82,10.58-84.04Z"/>
        <path class="cls-1" d="M338.72,284.85l10.95-86.99,21.54-7.96-6.1,47.76,25.19-54.81,20.85-7.7-4.48,47.02,23.63-54.08,16.78-6.2-43.46,99-20.08,7.41,4.88-53.29-28.69,62.08-21.01,7.76ZM352.1,199.78l-10.21,81.08,15.9-5.87,34.66-74.99-5.9,64.37,15.1-5.57,40.51-92.27-9.89,3.65-29.8,68.21,5.65-59.3-15.87,5.86-31.94,69.5,7.73-60.56-15.95,5.89Z"/>
      </g>
    </g>
    <g>
      <line class="cls-2" x1=".47" y1="216.7" x2="588.43" y2="1.27"/>
      <rect class="cls-1" x="-18.65" y="107.63" width="626.19" height="2.71" transform="translate(-19.52 107.9) rotate(-20.11)"/>
    </g>
    <g>
      <line class="cls-2" x1=".47" y1="437.88" x2="588.43" y2="222.45"/>
      <rect class="cls-1" x="-18.65" y="328.81" width="626.19" height="2.71" transform="translate(-95.58 121.39) rotate(-20.11)"/>
    </g>
  </g>
</svg>