<svg id="_0x14ub0" xmlns="http://www.w3.org/2000/svg" viewBox="153.582 -9.094 485.046 517.105" width="485" height="517.0939379916705" style="flex-shrink: 0">
  <g id="_0x14ub1">
    <g>
      <path d="M458.319 343.598c9.497 0.931 3.973 12.216 0.517 17.15-1.074 1.528-4.723 5.762-6.133 7.029-2.29 2.065-9.385 5.529-10.379 7.22-1.195 2.036-1.491 8.772 0.477 10.452s10.845 0.821 12.243-0.577c0.273-0.273 1.795-6.098 2.342-7.382 2.169-5.095 5.473-11.699 10.034-15.073 10.126-7.485 10.287 4.719 7.34 11.73-0.994 2.361-4.338 7.06-6.153 8.913-2.382 2.441-7.946 4.294-8.616 7.08-0.376 1.54 0.689 7.525 1.408 9.044 1.936 4.053 6.711 2.766 10.106 1.824 12.002-3.303 13.887-24.825 17.363-25.979 4.165-1.379 2.554 4.021 2.746 4.282 0.101 0.141 2.109 0.497 3.143 1.6 1.592 1.7 1.905 5.075 4.065 6.606 1.399-1.508 0.112-3.372 0.417-5.167 0.882-5.115 6.803-4.587 6.799-0.79v9.097c2.534-0.353 3.315-2.189 2.514-4.386 5.817-1.002 11.494-0.011 17.242 0.02 33.511 0.192 68.48-1.379 101.747 0.609 1.298 0.08 9.365 0.931 9.742 1.255 1.215 1.054-1.319 1.54-1.756 1.672-10.744 3.26-30.144 0.882-41.781 1.071-5.139 0.08-10.824 1.014-15.852 1.025-20.819 0.072-41.721-0.345-62.427-2.521 0.396 0.87-0.73 2.987-0.629 3.119 0.192 0.253 3.901 1.784 5.351 3.148 0.85 0.801 7.147 8.568 7.228 9.148 0.71 4.952-8.07 4.547-7.552 6.856 0.152 0.658 5.605 5.561 5.961 7.22 1.215-0.79 1.095-2.258 1.632-3.28 0.333-0.638 1.115-2.37 1.235-2.562 1.023-1.591 4.074-4.415 5.941-3.01 3.082 2.309-0.77 10.584-0.954 13.867 1.267-0.284 5.705-4.923 6.093-5.003 3.042-0.669 7.541 1.063 7.053 4.759-0.305 2.361-1.126 1.551-1.632 2.341-1.663 2.574-2.109 4.234-5.858 4.82-0.161 1.074 1.5 0.678 2.181 0.617 1.704-0.152 6.619-1.824 7.136 1.034 0.557 3.111-4.611 3.271-5.283 4.619-0.333 0.678 0.457 4.03 0.833 4.851 8.251 7.718 15.579 19.072 23.657 26.557 1.339 1.247 4.065 1.844 4.774 2.918 0.87 1.327 3.111 7.494 3.689 9.329 1.885 6.017 4.803 16.742-2.93 19.585-2.068 0.758-2.706 0.052-4.094 0.276-34.746 5.541-75.108 2.47-110.695 2.947-63.269 0.85-126.895 4.943-190.265 2.574-14.625-0.546-35.708-4.791-49.506-1.856-3.042 0.649-4.542 3.464-7.705 0.345s0.264-10.848 0.954-14.606c0.577-3.151 1.278-11.13 2.29-13.39 0.618-1.379 4.855-4.751 5.952-6.146 2.686-3.424 5.128-6.767 7.854-10.171 6.05-7.557 11.626-15.407 18.509-22.283-4.866-3.676-14.717-5.024-11.413-12.669 4.935-11.454 15.659-17.452 24.61-25.281-10.006-0.902-19.928 1.014-29.842 1.298-16.349 0.465-33.623-1.023-50.253-1.267-4.43-0.072-8.94 0.73-14.455 0.618-1.936-0.04-11.057-0.233-10.319-3.444 0.376-1.64 6.326-1.853 7.957-1.985 20.405-1.672 40.434 0.02 60.776 0.414 10.824 0.213 21.64-1.255 32.364 0.597-0.781-1.488-0.781-3.007-0.577-4.638 1.235-10.007 8.615-25.31 11.91-35.165 3.042-9.116 5.432-18.494 8.647-27.559-0.112-0.597-8.727-6.218-10.005-6.908-5.97-3.231-12.649-5.621-18.59-9.036-4.887-2.815-6.122-3.231-5.857-9.257 0.224-5.216 4.987-17.107 8.535-20.955 1.235-1.347 5.576-3.091 5.3-4.111l-23.637-22.506c-3.881-4.719-8.17-9.297-10.928-14.838-6.507 3.88-23.737-0.233-21.934-9.703 0.526-2.786 6.021-7.14 8.544-8.427 1.327-0.678 4.033-0.781 4.694-1.752 1.623-2.39 2.787-9.763 3.901-12.893 0.85-2.401 1.945-5.357 3.051-7.617 2.798-5.733 15.326-22.869 20.425-26.031 2.433-1.508 4.976-2.085 7.745-1.367-1.247-2.898-9.79-1.528-10.097-4.708-0.233-2.45 2.494-2.41 3.631-3.628 9.517-10.231 27.742-18.526 41.953-19.264 7.42-0.385 11.566 1.479 18.354 2.987 2.798 0.618 2.847-1.62 4.858 3.292 9.425 23.104 6.679 59.757 3.424 84.331-0.698 5.236-2.787 10.808-2.999 16.214 2.333 2.855 4.438 5.966 6.86 8.732 7.966 9.096 16.513 17.917 24.439 27.174 5.068 5.925 11.859 12.801 16.219 18.931 2.514 3.524 10.776 16.935 10.733 20.499-0.02 2.097-1.824 7.686-0.902 9.188 5.027 3.24 9.397 7.393 14.191 10.926 35.407 26.1 69.351 53.194 103.864 80.057 2.149 1.672 9.273 5.288 10.066 7.189 1.804 4.354-2.614 3.544-4.096 4.418-0.741 0.437-0.962 2.341-2.686 3.584-10.086 7.281-39.917 7.433-52.069 4.691-5.645-1.275-17.972-6.126-23.131-8.893-1.752-0.942-7.489-5.986-8.443-5.985-3.103 1.295-5.211 4.113-8.058 5.773-4.197 2.461-15.162 7.85-19.612 8.042-15.55 0.669-6.326-23.406-5.637-32.037-0.549-1.206-9.598-5.288-11.574-6.594-1.227-0.801-4.226-3.079-5.372-4.042-1.347-1.123-7.886-7.373-8.506-8.435-2.149-3.688 2.675-8.203 0.689-9.47-0.305-0.192-6.162-0.87-7.216-0.942-10.075-0.629-29.526-0.902-39.176 0.434-2.482 0.345-6.254 0.942-8.21 2.452-2.766 2.137-9.081 9.987-10.523 12.79-0.333 0.649-1.175 1.094-1.356 1.724-0.293 1.054 3.183 12.468 3.629 15.03 0.233 1.367 0.365 3.817 0.597 5.61 0.598 4.498 2.634 21.188-0.08 23.954-1.6 1.631-12.833-0.842-15.459-1.508-5.168-1.315-9.569-4.498-14.717-5.785l-27.449 35.685c2.93 0.437 5.556-1.287 8.323 0.04 0.598 0.284 0.325 1.235 0.778 1.224 2.097-0.04 0.83-1.824 0.945-1.893 0.506-0.293 10.034-0.101 11.646-0.032 18.164 0.73 36.357 2.674 54.571 3.191 3.76 0.112 7.845-1.508 10.715 0.589l-0.324-1.238c4.915 0.962 9.802 0.04 14.737-0.029 59.822-0.821 119.526-5.268 179.581-6.899 9.833-0.264 19.724 0.313 29.578 0.032 9.061-0.264 18.164-1.804 27.285-1.275l-14.453-18.811-1.247 0.316c-0.376 3.007 1.367 7.089-3.203 7.546-9.357-3.748-21.701-6.147-29.922-12.095-1.278-0.922-1.752-2.41-2.686-2.956-1.52-0.882-5.332-0.365-4.054-4.073 0.101-0.293 2.807-4.538 3.183-5.003 2.97-3.737 6.001-5.368 10.948-5.064-1.816-2.694-8.222-2.875-7.44-7.048 0.549-2.907 3.042-2.754 5.381-1.864 2.646 1.014 4.754 3.969 7.067 5.477-0.649-2.533-2.758-3.059-4.37-5.043-2.229-2.766-3.709-6.279-6.314-8.801-1.215-0.589-21.833 5.894-25.918 4.627-3.375-1.043-2.565-10.087-0.994-12.678 0.721-1.186 1.956-1.359 2.249-1.775 0.121-0.172 1.014-3.068 1.451-3.616-2.057-0.638-4.622-2.137-5.027-4.403-3.852 3.941-5.372 7.97-10.635 10.38-13.714 6.29-19.928-0.609-20.759-14.128-10.307 2.441-19.948-0.313-18.193-12.561-5.513 1.508-11.706 3.068-16.929-0.333-2.514-1.64-3.973-7.749-3.769-10.575 0.08-1.074 3.111-10.797 3.669-12.072 0.506-1.155 1.215-2.574 1.784-3.789 0.741-1.58 6.567-12.276 7.176-12.669 0.184-0.121 1.106 0.597 1.155 0.546 0.85-4.334 6.823-9.338 10.382-11.911 7.805-5.653 15.182-7.81 24.76-5.064 3.263-8.263 9-15.993 13.766-23.621-5.961-6.664-6.538-15.881-8.891-24.176-3.953-13.968-9.405-29.391-9.029-44.017 0.02-0.842 0.506-1.924 1.034-2.605l-1.238 0.336c-0.305-3.544-0.152-6.939-0.092-10.411 0.011-0.709-0.537-2.005-0.465-2.089 0.244-0.284 1.471 0.405 1.166-0.666-2.482 0.204-0.914-4.659-0.974-6.595-0.313-9.995-1.491-20.074-1.56-30.092-0.052-7.646 0.678-15.315 1.276-22.929-2.189 1.499-3.223 4.102-4.996 5.974-1.459 1.54-5.717 4.527-6.326 5.593-1.267 2.197-2.89 23.65-3.102 27.651-0.284 5.207 0 10.403 0.043 15.607-5.292 1.936-0.224 1.853 0 2.651 0.213 5.236 0.141 11.061 0.597 16.237 0.293 3.432 2.646 12.155 1.54 14.749-1.207 2.815-10.836 5.408-13.959 6.115-27.63 6.29-59.388 6.959-86.337-2.49-1.997-0.698-9.589-3.404-10.784-4.294-1.063-0.79-0.79-2.045-1.115-2.33-0.365-0.313-1.724-0.092-2.709-0.741s-4.631-3.576-4.996-4.426c-0.425-1.014-0.882-9.45-0.953-11.546-0.698-18.486-0.121-36.675-2.574-55.19-0.284-2.105-1.095-8.68-1.744-10.179-0.801-1.844-6.05-5.653-7.601-7.465-2.594-3.027-5.901-7.818-6.912-11.607-2.117-0.233-3.427 1.936-5.476 2.361-6.07 1.275-12.7-2.513-14.432-8.499-0.974-3.352-0.213-7.301-0.934-9.734-0.353-1.206-2.494-2.401-3.304-3.604-5.424-8.094-9.345-18.474-6.963-28.249 1.146-4.719 2.979-6.259 7.015-8.375 0.273-0.141 0.405-0.962 1.003-1.195 5.837-2.321 8.768 2.826 11.353 2.614 1.195-0.101 5.372-4.498 6.751-5.299-1.643-5.661-3.476-11.342-4.867-17.067-2.87-11.831-5.949-24.917-7.633-36.917-0.75-5.388-3.042-13.571 1.948-17.339 3.579-2.706 14.576-5.661 19.319-7.049 14.769-4.314 33.916-8.964 48.986-5.015 1.916 0.506 8.607 4.073 9.104 4.073 0.842 0 4.571-2.349 5.978-2.797 8.078-2.594 17.547-4.374 26.022-4.751 11.554-0.506 28.98 1.063 38.819 8.194 0.569 0.405 0.425 1.195 0.488 1.235 0.445 0.293 8.23-3.748 10.348-1.243l-0.333-1.235c8.627-0.477 17.992-0.425 26.515 1.436 1.683 0.365 7.986 2.269 8.687 3.375 1.339 2.105 0.06 3.817 0.02 5.609-0.405 19.324-7.104 39.47-8.888 58.947-0.345 1.772 1.704 2.37 2.218 3.423 2.169 4.406-3.042 1.571-3.424 1.876-0.273 0.213-1.683 4.771-0.245 5.064 1.632 0.333 6.113-1.965 8.696-1.976 4.522-0.02 8.371 2.025 10.015 6.35s0.121 19.66-1.095 24.563c-0.801 3.231-3.933 8.913-4.206 11.535-0.224 2.229 1.491 4.222 1.299 6.836-0.08 1.083-1.408 5.825-2.028 6.799-3.792 5.986-13.206 5.601-18.731 2.309l-3.142 6.896c3.64 0.922 7.076 0.517 10.804 1.448 6.739 1.68 18.429 8.103 24.55 11.862 8.342 5.124 13.229 9.47 17.067 18.707 0.638 1.528 2.738 7.201 2.75 8.456 0.02 3.797-3.6 4.438-4.197 5.448-0.75 1.275 4.907 12.052 5.828 14.344 3.011 7.494 5.849 15.323 8.535 22.9 4.458 12.6 8.736 25.494 11.543 38.609 6.63 1.367 9.417 2.775 10.23 9.854s-2.565 11.77-9.225 14.281c-1.235 0.465-3.243-0.112-4.116 0.902-0.629 0.73-1.247 4.759-1.876 6.279-4.005 9.694-14.2 22.739-20.767 31.327-3.628 4.739-7.765 9.033-11.302 13.827 3.608 8.114 7.877 15.993 10.857 24.388 1.135 3.191 3.709 9.987 3.74 13.086 0.072 7.729-5.748 5.075-7.653-0.394l-11.606-30.761c-1.439-0.994-5.059 3.929-5.889 5.075-1.431 1.985-2.606 4.65-4.036 6.635-0.557 0.781-0.658 1.743-1.985 1.459-0.698-0.83 1.643-7.445 2.2-8.783 4.318-10.239 13.045-17.949 19.897-26.586 9.173-11.578 18.457-23.366 25.268-36.847 0.506-1.014 0.253-2.217 0.954-3.436 1.885-3.251 11.91-4.731 8.676-11.707-1.704-3.656-3.832 0.497-7.216-1.559-1.772-1.083-3.689-9.418-4.41-11.952-0.345-1.215-0.052-2.634-0.437-3.961-6.274-21.401-15.142-42.135-22.005-63.352l-1.359-0.101c-9.336 6.17-19.583 7.962-25.734 18.219-2.189 3.645-3.548 8.387-5.544 12.034-2.646 4.843-6.892 8.812-8.495 14.158 2.738 6.178 5.271 12.388 8.656 18.241 4.145 7.172 10.319 13.339 12.407 21.493 0.224 0.87-0.405 1.873-0.213 2.706 0.445 1.864 2.554 2.137 1.468 5.508l-24.771 40.556c-0.092 1.054 5.556 4.406 6.851 5.529 6.507 5.673 13.786 14.778 11.931 23.831-1.298 1.893-3.772-5.46-4.298-6.359-3.861-6.635-16.797-20.703-24.427-22.018-13.269-2.289-26.01 13.755-31.442 24.123-1.612 3.079-6.093 12.155-6.783 15.074-0.609 2.622 0.293 8.568 3.336 9.469 2.494 0.738 7.805-0.994 10.227-2.076 4.622-2.065 2.269-2.634 3.892-5.552 0.922-1.652 0.669-0.678 1.551-2.895 0.526-1.315 1.844-6.098 2.118-6.291 0.101-0.08 1.795 0.91 2.505 0.63 0.353-1.226-1.339-1.7-1.175-2.715 0.437-2.706 8.96-11.182 11.715-12.195 0.902-0.333 1.795-0.08 2.646-0.152-0.264 0.577 0.891 0.577 0.629 0ZM434.458 2.889c-6.619-3.007-13.867-4.162-21.043-5.023-1.632-0.192-7.725-1.307-8.138-1.295-0.325 0-0.264 1.175-0.75 1.286-2.393 0.566-7.573 0.293-10.491 0.707-7.136 1.034-13.683 2.45-20.434 5.003 1.014 4.771 1.976 7.12-0.437 11.802-5.2 10.067-25.493 8.123-16.866-4.934 1.307-1.976 6.76-5.793 7.185-6.624 0.517-1.014-0.445-0.83-0.862-0.993-10.207-3.981-20.658-2.189-31.29-1.011l-36.926 9.53-0.617 0.649c2.585 5.42 2.241 11.707 3.203 17.492 2.077 12.388 4.967 24.724 6.762 37.169 0.506 3.536 1.319 8.275 0.71 11.526l14.016-7.634c12.692-7.201 26.079-6.511 40.273-6.819 28.047-0.597 56.297 0.345 84.168-0.545 5.231-0.172 17.656-2.866 21.925-0.578 1.034 0.557 0.445 1.631 0.649 1.68 0.121 0.032 1.074-0.517 2.077-0.132 1.652 0.618 2.807 1.996 4.542 2.117l10.603-58.269c-0.273-0.437-8.049-2.361-9.092-2.53-4.045-0.658-11.818-1.54-15.863-1.571-2.766-0.02-9.762 0.304-12.235 0.974-0.598 0.161-0.942 0.457-0.761 1.194 0.325 1.315 1.764 2.958 2.088 4.831 2.16 12.336-12.629 12.264-20.85 9.542-9.902-3.283-2.31-11.434 3.387-14.729 0.678-0.396 5.645-1.904 5.047-2.783ZM469.621 3.518c-0.882-0.457-1.672 0.396-1.247 0.618 0.882 0.457 1.672-0.396 1.247-0.618ZM365.076 5.391v0.629c0.405-0.213 0.405-0.416 0-0.629ZM370.925 11.549c0.244-0.537-0.994-3.829-1.44-4.285-2.048-2.077-2.706 0.213-3.315 0.62-1.459 0.962-3.648 2.016-4.803 3.22-1.339 1.399-4.318 5.661-1.319 6.21 5.576 1.014 7.236-1.002 9.75-5.187 0.253-0.425 1.074-0.457 1.138-0.566ZM441.218 16.544c2.585-2.594 0.526-9.834-2.666-9.878-2.221-0.032-11.149 4.162-12.548 6.291-0.801 1.215-1.885 3.159-0.101 3.828 2.666 0.994 13.49 1.591 15.315-0.232ZM468.11 69.028c-1.135-0.842-6.843-5.428-7.55-5.276-1.459 3.556-7.268 8.608-8.141 11.891-0.264 0.982 0.365 1.904-0.213 3.604-1.227 3.616-9.954 11.566-13.398 12.994-5.424 2.249-16.989 2.815-22.554 1.307-3.476-0.942-13.895-7.364-16.329-10.035-1.945-2.157-5.768-13.976-8.676-9.289-2.565 4.133-2.726 8.051-6.782 12.052-13.338 13.138-36.673 18.466-48.877 1.287-3.235-4.547-5.585-9.722-7.013-15.059-10.155 4.214-19.035 10.937-28.21 16.974l-0.293 0.325c1.916 2.835 5.148 5.276 4.378 9.093-1.885 1.904-9.874-6.896-11.614-8.151-0.781-0.557-4.562-2.958-5.12-3.01-1.683-0.172-5.616 4.193-6.162 5.54-1.58 3.921 0.83 12.882 2.675 16.734 0.589 1.226 4.49 7.132 5.444 7.746 1.988 1.307 2.137-1.014 4.065-1.64 3.729-1.215 6.518 0.537 8.19 3.797-2.109 2.237-2.919-1.379-5.849-0.272-2.413 0.91-3.295 2.189-0.649 3.636 5.596 3.068 18.213-4.932 20.322-1.792 1.095 1.631-4.137 5.529-5.433 6.166-5.858 2.855-13.401 3.837-19.046 0.104-0.669 6.339 5.889 11.831 11.749 8.921 1.267-0.629 3.375-3.524 4.58-2.976 9.589 13.359 21.439 25.029 37.302 30.474l2.879-7.847c-0.121-0.566-8.331-3.961-9.65-4.811-0.537-0.345-4.591-3.495-4.763-3.748-0.293-0.445 0.618-1.488 0.606-2.076 0-0.373-1.086-0.253-1.255-0.802-2.241-7.494 7.004-37.709 13.844-42.489 0.761-0.537 2.758-1.996 2.464-0.048-0.313 2.065-2.959 6.35-3.792 8.771-3.944 11.414-5.636 23.498-6.639 35.498 7.521 2.237 15.355 6.066 22.948 7.841 4.45 1.034 9.974 1.712 14.568 2.379 2.137 0.313 6.274-0.77 7.124 1.671l0.598-1.154c17.09 0.537 35.7-1.672 51.634-8.143 1.612-0.658 10.339-4.65 10.937-5.42 1.135-1.479-1.692-6.026-2.261-7.867-0.721-2.329-1.135-5.227-1.876-7.537-2.261-7.02-8.779-20.591-9.618-26.829-0.598-4.426 2.606-2.634 4.398 0.04 7.512 11.233 11.678 28.197 16.168 40.949 0.152 3.007-2.818 5.104-5.039 6.805-3.729 2.855-8.07 4.446-12.424 6.097-0.244 4.598-0.184 9.249 0.859 13.715 0.87-1.508 2.666-1.652 3.772-2.513 6.153-4.759 12.031-10.969 16.521-17.368 1.652-2.349 12.712-19.994 12.611-21.229-2.241-1.944-5.636-2.513-7.36-5.087-1.592-2.381-3.921-9.076 0.244-9.662 3.7-0.517 3.66 5.256 7.633 6.158 2.453 0.557 9.922 0.052 11.198-2.369 1.52-2.875-5.97-6.715-5.978-7.221-0.04-2.45 5.585-0.87 7.032-0.124 0.962 0.506 1.531 2.594 2.971 1.663 1.258-0.81 3.72-14.898 3.832-17.207 0.618-12.761-3.407-13.399-14.616-8.956-1.864 0.738-3.111 2.927-5.485 2.321-2.798-4.294 2.634-14.209 1.816-17.251-0.112-0.396-1.135 0.172-1.683-0.089-0.73-0.365-0.741-0.974-1.043-1.194ZM416.883 65.007h-1.888s0 1.873 0 1.873c1.531 0.405 1.227-0.669 1.888-1.873ZM455.176 65.636c-2.614-0.313-2.614 0.922 0 0.618v-0.618ZM375.426 68.764s-1.327-0.224-1.247 0.316l1.572 2.186c-0.052-0.537-0.244-2.41-0.325-2.502ZM404.314 73.161c0.273-0.91-2.117-5.4-3.134-4.386 0.83 1.551 1.379 3.596 3.134 4.386ZM367.265 69.404l-1.885 0.302c0.842 1.186 1.347 1.063 1.885-0.302ZM350.936 74.416c-0.092-1.62-0.922-3.717-2.502-4.394-0.132 1.784 0.882 3.625 2.502 4.394ZM366.952 71.277v0.629c0.405-0.213 0.405-0.416 0-0.629ZM434.771 71.906v0.626c0.405-0.213 0.405-0.416 0-0.626ZM478.104 110.181v0.626c0.405-0.213 0.405-0.416 0-0.626ZM471.192 121.472v0.629c0.405-0.213 0.405-0.416 0-0.629ZM484.694 124.614c-0.73-0.718-9.437 3.444-11.304 3.444-3.396 7.353 10.026 6.339 11.172 1.132 0.333-1.499 0.092-3.068 0.132-4.576ZM337.446 147.828v0.629c0.405-0.213 0.405-0.416 0-0.629ZM484.875 193.191c3.588-3.312 11.281-8.78 15.55-11.758 1.612-1.123 9.509-5.024 9.325-6.207-0.052-0.313-2.89-4.843-3.387-5.449-6.923-8.427-28.299-17.724-38.791-20.218-0.942-0.224-3.579-1.732-3.932-1.7-1.752 0.152-0.638 6.451-0.65 7.847-0.101 18.879 1.327 38.965 2.201 58.352 0.072 1.508 0.721 9.846 0.954 10.34 0.132 0.264 0.741 0.77 0.942 0.618 2.778-6.979 4.915-14.525 8.92-20.896 1.612-2.553 6.823-9.045 8.848-10.917ZM301.329 246.965c0.08-1.315-0.172-2.734 0.064-4.032 3.7-20.743 6.222-41.475 4.338-62.796-0.264-3.007-2.626-23.254-3.436-24.167l-16.148-3.007c-5.837 0-23.424 4.558-28.575 7.281-0.457 0.244-1.744 0.994-1.439 1.379 7.621 2.005 12.275 8.913 15.53 15.587 4.763 9.783 10.824 31.48 9.517 42.397-0.184 1.56-2.16 6.442-1.724 7.181 0.08 0.141 1.551 0.669 2.141 1.318 2.838 3.059 5.34 5.641 8.431 8.528 3.72 3.475 7.978 6.299 11.301 10.34ZM354.717 158.504c-0.112-0.121-3.019-0.75-3.132-0.629-1.5 1.519 4.976 2.634 3.132 0.629ZM428.497 157.866v0.626c0.405-0.213 0.405-0.416 0-0.626ZM424.404 161.005l0.324-1.875-1.571 0.617 1.247 1.247ZM344.044 168.539c-6.63-0.092-12.031-4.498-17.575-7.534 2.088 11.09 3.6 21.886 5.007 32.948l1.276 37.626c2.746 4.254 7.754 6.402 12.387 8.326 24.663 10.239 56.225 10.3 81.93 5.63 5.191-0.942 10.339-2.217 15.559-2.967-4.206-24.471-1.692-49.621 1.876-74.037-0.264-0.345-7.621 3.383-7.865 3.748-1.824 2.663 2.341 13.551-3.155 14.461-3.143 0.517-9.874-3.656-12.781-5.388-0.934-0.557-3.284-2.746-3.507-2.746-0.273 0-2.068 2.269-2.879 2.758-8.291 4.963-31.422 3.576-40.899 1.427-2.718-0.618-7.136-2.947-9.537-2.898-3.172 0.06-12.519 5.236-15.418 7.204-3.304 2.249-5.829 7.373-7.59-0.65l3.16-17.896ZM362.249 161.014l-1.885 0.304c0.842 1.186 1.347 1.063 1.885-0.304ZM419.385 162.249l-1.247-1.244c-0.184 1.307-0.06 1.427 1.247 1.244ZM368.523 162.26c-0.689-0.689-1.936 0.566-1.247 1.247s1.936-0.566 1.247-1.247ZM243.251 162.889v0.627c0.405-0.213 0.405-0.416 0-0.627ZM400.554 165.391c-0.184-2.542-6.446-2.005-6.903-0.922-0.73 1.752 2.129 0.253 2.807 0.293 1.379 0.08 2.666 0.83 4.096 0.638ZM373.237 164.145v0.629c0.405-0.213 0.405-0.416 0-0.629ZM402.123 165.4v0.629c0.405-0.213 0.405-0.416 0-0.629ZM339.635 166.029c-0.882-0.457-1.672 0.396-1.247 0.617 0.882 0.457 1.672-0.396 1.247-0.617ZM405.57 166.029h-1.876s0 0.618 0 0.617l1.876 0.638v-1.255ZM393.01 166.655c-0.689-0.689-1.936 0.566-1.247 1.246s1.936-0.566 1.247-1.246ZM240.738 167.284v0.629c0.405-0.213 0.405-0.416 0-0.629ZM378.569 169.157v-1.873s-0.618 0-0.621 0l-0.637 1.873h1.258ZM371.666 177.94c7.124 0.689 14.476 2.49 21.66 2.157 4.803-0.224 12.244-1.611 16.967-2.766 0.83-0.204 1.6 0.04 2.18-0.951l-17.251-7.801c-4.278 1.672-8.544 3.797-12.884 5.279-2.807 0.951-7.825 1.387-9.862 2.675-0.638 0.405-1.106-0.04-0.802 1.407ZM371.666 170.423c-1.307-0.181-1.431-0.06-1.247 1.247l1.247-1.247ZM420.643 174.18l-0.933-3.128-1.572 1.864 2.505 1.264ZM445.76 171.678c-0.882-0.457-1.672 0.396-1.247 0.621 0.882 0.457 1.672-0.396 1.247-0.621ZM360.991 174.801c1.186 0.204 2.088-0.73 1.876-1.876l-1.876 1.876ZM253.975 177.584c-0.882-0.781-4.815-4.102-5.616-3.97-1.298 1.439-3.151 2.341-4.51 3.677-6.498 6.382-19.483 24.885-22.563 33.292-1.419 3.86-3.163 15.283-7.207 16.641-2.068 0.698-3.568 0.244-6.01 1.528-1.095 0.577-3.295 2.258-4.309 3.111-1.126 0.931 1.034 3.191 1.896 3.728 2.482 1.571 9.509 2.401 12.528 2.531 0.264 0.011 0.08-2.097 2.18-0.911 2.077 2.855 5.128 4.983 7.509 7.525 3.812 4.073 6.892 8.367 10.969 11.627 11.494 9.197 21.327 20.611 32.677 29.495 7.429 5.813 15.366 9.694 23.232 14.433 2.028 1.226 11.333 8.235 12.448 8.031 1.419-0.253 4.094-3.495 6.71-2.379-0.618 1.307-1.988 1.985-2.758 3.2-6.142 9.694-16.918 35.653-17.302 46.763-0.04 1.186 0.405 6.939 1.186 7.473 1.804 1.247 10.227-3.625 11.009-5.377 0.842-1.893 0.649-8.215 1.106-10.816 1.063-6.078 3.812-14.2 6.739-19.621 0.71-1.315 4.795-7.729 5.645-8.151 6.892-3.424 6.587 8.263 6.274 11.911-0.658 7.677-5.737 16.357-9.802 22.837-2.229 3.564-4.996 4.193-2.582 9.634s7.866 3.412 11.35 0.385c3.163-2.746 1.399-7.261 1.744-11.435 0.465-5.52 4.967-21.918 11.597-22.363 0.79-0.052 1.258 0.08 1.876 0.577 4.045 3.191-0.721 19.011-2.577 23.265-1.247 2.866-5.26 7.565-5.361 9.743-0.161 3.372 1.896 8.841 5.525 9.61 4.803 1.023 8.707-6.442 10.936-9.55 0.618-0.862 4.033-4.567 4.186-4.871 0.092-0.172-0.557-1.327-0.264-2.41 1.367-5.196 4.674-11.121 6.124-17.23 0.822-3.452 2.442-10.412 1.508-13.551-0.781-2.614-7.147-11.495-9.141-14.077-3.151-4.081-13.654-16.843-17.121-19.6-1.451-1.155-3.772-1.295-5.809-3.303-3.091-3.027-5.665-8.68-8.472-12.245-12.275-15.588-27.774-31.551-42.502-44.281-3.6-3.111-13.735-9.915-15.952-13.462-0.618-0.994 0.121-2.128-0.549-2.53-0.75-0.445-1.551 0.345-2.482 0.009-6.113-2.189-5.556-6.17 1.893-4.427 4.045 0.942 7.461 5.236 11.264 6.627-0.305-0.73-0.618-1.336-0.64-2.18-0.437-14.341-5.424-29.038-16.582-38.962ZM355.65 174.809v0.629c0.405-0.213 0.405-0.416 0-0.629ZM446.389 174.821c-1.307-0.181-1.431-0.06-1.247 1.243l1.247-1.243ZM355.337 176.064c-0.152-0.161-4.206 0.497-4.361 0.661-0.284 0.284 0.092 2.37-0.028 3.099 0.994-0.497 6.001-2.065 4.389-3.76ZM426.917 177.949c0.204-1.186-0.73-2.085-1.876-1.873l1.876 1.873ZM431.315 180.45c0.313-2.614-0.922-2.614-0.617 0h0.617ZM331.16 208.69v0.626c0.405-0.213 0.405-0.416 0-0.626ZM213.734 220.61v0.629c0.405-0.213 0.405-0.416 0-0.629ZM487.449 282.515c-3.111-5.825-5.432-9.257-8.94-14.626-1.997-3.059-3.364-7.505-6.375-9.622l9.417 34.507c1.451 0.353 1.034-0.284 1.428-0.79 1.287-1.64 5.777-7.344 5.495-8.84-0.08-0.445-0.934-0.445-1.034-0.618ZM474.01 273.947c0.457-0.882-0.396-1.672-0.62-1.247-0.457 0.882 0.396 1.672 0.62 1.247ZM313.889 349.242c0.305-0.304 3.6-6.664 4.025-7.597 1.772-3.941 4.349-11.931 4.033-16.104-0.072-0.91 0.253-1.347-0.83-2.005-1.339 0.91-1.063 2.663-2.81 2.165-0.922 6.836-5.292 13.988-5.665 21.373-0.032 0.597-0.152 3.544 1.236 2.177ZM510.753 327.91v0.629c0.405-0.213 0.405-0.416 0-0.629ZM291.884 337.36c-3.792 0.032-7.084-3.869-10.227-5.165-0.669-0.273-0.638-0.882-1.359 0.101-2.525 7.962-3.984 16.377-6.406 24.348-3.304 10.877-7.532 25.057-11.638 35.44-0.618 1.571-1.399 2.866-2.361 4.222 5.981 4.073 11.698-5.268 15.386 1.247 2.565-3.788 7.044-14.08 11.477-15.487 1.612-0.506 8.19-1.712 9.951-1.873 3.192-0.293 8.049-0.152 11.192-0.232 12.732-0.345 26.05-0.333 38.627 1.266 0.204-3.007 3.031-4.932 2.534-8.122-2.738 1.083-4.47 3.728-7.377 4.851-4.895 1.884-10.348-0.546-12.844-5.035-0.934-1.672-0.85-3.464-2.066-4.82-6.65 6.928-17.271 4.619-19.158-5.035-13.735 9.033-19.532 6.816-18.193-10.34 0.405-5.207 2.838-10.139 2.462-15.346ZM432.887 334.809v0.626c0.405-0.213 0.405-0.416 0-0.626ZM337.282 338.474c-0.569-0.89 0.305-2.401-0.466-3.027-1.905 1.468-1.247 5.003-4.085 4.394 1.795 2.065-0.284 5.621-0.545 8.548-0.161 1.752-0.08 3.504-0.072 5.259 2.565-1.936 2.554-6.259 3.556-8.66 0.333-0.801 1.451-0.669 1.463-1.126 0.032-1.64-1.491-3.961 1.266-4.963 0.092-0.577-0.914-0.121-1.106-0.425ZM432.258 337.949v0.626c0.405-0.213 0.405-0.416 0-0.626ZM339.635 342.334c0.457-0.882-0.396-1.672-0.618-1.246-0.457 0.882 0.396 1.672 0.618 1.246ZM389.442 365.367c-0.405-0.325-0.569-1.235-1.123-1.672-7.998-6.33-16.441-12.092-23.548-19.468-1.925 6.563-2.959 13.37-4.843 19.942-2.807 9.763-7.725 19.781-10.127 29.466-0.437 1.772 1.988 1.315 1.155 3.918l0.934-1.247c2.353 1.508 17.15 14.189 18.517 13.178 0.224-1.206 0.589-2.47 1.155-3.564 2.169-4.214 5.484-10.159 8.555-13.399 0.902-0.951 2.807-1.508 3.813-2.502 1.146 3.26 1.632 0 1.936-0.04 3.031-0.396 11.606 6.339 14.068 8.507 3.042 2.683 13.867 13.896 14.768 17.237 1.936 7.192-4.846 9.217-8.828 13.795l-0.293 1.904c11.261 3.372 24.51 10.059 36.174 11.222 8.495 0.85 22.715 0.425 31.028-1.468 1.367-0.313 9.193-2.978 9.397-3.797 0.213-0.89-0.781-1.336-1.31-1.824-7.369-6.816-17.848-13.663-25.938-19.921-21.64-16.754-44.002-33.283-65.51-50.29ZM457.69 347.996c-6.964 2.927-10.563 11.314-12.548 18.189 5.524-4.831 11.505-10.636 12.548-18.189ZM457.377 354.266v0.626c0.405-0.213 0.405-0.416 0-0.626ZM422.215 354.892v0.629c0.405-0.213 0.405-0.416 0-0.629ZM462.729 380.618c4.51-3.688 8.434-8.984 8.776-15.059-4.955 3.343-7.156 9.51-8.776 15.059ZM443.559 368.07v0.629c0.405-0.213 0.405-0.416 0-0.629ZM337.75 376.85c0.457-0.882-0.396-1.672-0.617-1.244-0.457 0.882 0.396 1.672 0.617 1.244ZM429.126 376.224v0.626c0.405-0.213 0.405-0.416 0-0.626ZM457.377 379.992v0.626c0.405-0.213 0.405-0.416 0-0.626ZM303.53 384.387v0.629c0.405-0.213 0.405-0.416 0-0.629ZM486.578 391.903c1.56-1.72 7.429 1.853 7.521-0.304 0.02-0.385-3.396-5.721-4.065-6.583l-3.456 6.887ZM628.808 388.143v0.63c0.405-0.213 0.405-0.416 0-0.63ZM390.965 397.725c-0.678-0.669-5.007-1.215-5.8-3.291-8.018 14.149-11.658 30.253-13.45 46.369 3.792 1.479 4.976 0.313 8.121-0.914 0.649-0.253 1.439 0.253 1.591 0.213 0.477-0.132 4.51-5.296 7.783-5.245l20.048-16.397-0.545-2.878c-5.119-5.337-11.181-9.875-16.369-15.143-0.974-0.994-1.014-2.349-1.371-2.702ZM518.607 403.823c0.101-2.157-3.496-6.106-5.372-6.299-3.255-0.333-3.243 3.969-4.186 4.912-0.284 0.284-6.579 3.059-7.248 3.15-5.473 0.73-2.565-4.222-6.932-3.463-3.123 3.495-6.843 6.511-5.768 11.747 9.153-5.044 19.655-6.807 29.506-10.047ZM271.824 398.82c-0.77-0.629-2.473 1.275-1.885 1.872 0.962 0.974 2.008-1.772 1.885-1.872ZM488.776 406.345v0.629c0.405-0.213 0.405-0.416 0-0.629ZM276.851 419.531c-0.072-0.08-1.195 0.08-1.764-1.063-1.175-2.381-0.87-5.997-2.321-8.355-2.117 1.347-1.52 3.981-4.085 2.51 0.032 0.87 0.721 1.571 0.336 2.494-0.801 1.956-11.959 10.644-14.364 12.043-2.818 1.64-5.544 2.349-8.331 3.596-0.589 0.264-1.816 0.204-0.873 1.304 1.175 1.379 18.285 6.939 21.347 8.174-0.465 2.148-1.571 2.826 1.247 2.502l-0.305-1.884c9.842 2.562 10.48 3.757 9.753-7.23-0.224-3.383-2.028-8.387-1.947-11.305 0.04-1.379 1.408-2.634 1.287-2.774ZM243.556 425.793c0.141-0.141 0.698-2.016 0.626-2.502-1.207 0.304-1.408 1.387-1.247 2.502 0.204-0.032 0.526 0.092 0.621 0ZM368.21 423.908v0.627c0.405-0.213 0.405-0.416 0-0.627ZM279.985 429.57c-0.882-0.457-1.672 0.396-1.247 0.617 0.882 0.457 1.672-0.396 1.247-0.617ZM516.093 435.211c-0.87-0.172-0.801-0.132-1.307 0.396-0.73 0.781-3.832 5.055-3.436 5.882 9.253 5.693 20.313 8.154 30.491 11.903-0.569-2.37-2.505-15.162-3.731-16.033-0.273-0.192-6.182-0.801-6.659-0.761-1.043 0.08-0.678 2.855-0.922 3.627-3.143 1.267-3.689-3.059-4.126-3.182-3.091-0.862-11.321 6.888-10.31-1.832ZM255.182 438.967v0.629c0.405-0.213 0.405-0.416 0-0.629ZM272.441 443.991c0.457-0.882-0.396-1.672-0.617-1.244-0.457 0.882 0.396 1.672 0.617 1.244ZM458.632 443.365v0.626c0.405-0.213 0.405-0.416 0-0.626ZM468.678 445.875v0.629c0.405-0.213 0.405-0.416 0-0.629ZM531.482 452.774v0.626c0.405-0.213 0.405-0.416 0-0.626ZM538.181 496.234l33.215-2.338c0.698-0.385-0.204-7.324-0.477-8.378-0.233-0.89-3.344-8.528-3.648-8.901-0.902-1.083-11.971-0.658-14.352-0.529-18.153 1.043-36.033 1.287-54.097 1.784-75.809 2.057-151.707 8.924-227.312 4.526-11.353-0.658-23.14-1.853-34.504-1.984-5.99-0.072-11.991-0.526-17.889 0.629 0.465 2.766-1.997 14.918-1.014 16.325s10.928 0.264 13.226 0.316c16.208 0.333 33.134 2.329 49.587 2.815 57.412 1.672 114.539-2.987 172.051-3.82 23.172-0.333 46.88 0.101 69.716 0.092 2.514 0 13.126-1.135 14.484-0.557 0.537 0.224-0.011 1.186 0.598 1.146 0.577 0.092 0.121-0.91 0.425-1.106ZM225.351 476.625c-0.882-0.457-1.672 0.396-1.247 0.618 0.882 0.457 1.672-0.396 1.247-0.618ZM323.935 481.64c0.457-0.882-0.396-1.672-0.62-1.246-0.457 0.882 0.396 1.672 0.62 1.246ZM212.487 497.328v0.629c0.405-0.213 0.405-0.416 0-0.629ZM436.659 501.714v0.629c0.405-0.213 0.405-0.416 0-0.629ZM315.469 502.969v0.629c0.405-0.213 0.405-0.416 0-0.629ZM341.206 504.227v0.626c0.405-0.213 0.405-0.416 0-0.626Z" fill="#B12A1D" />
      <path d="M458.319 343.598s-0.618-0.032-0.629 0c0.376-0.032 0.224-0.04 0.629 0Z" fill="#B12A1D" />
      <path d="M340.821 424.486c-0.141 0.152-0.842 0.02-1.175 0.06-0.284 1.054 1.207 0.284 1.296 0.991 0.385 2.775-2.626 7.778-4.775 9.645-6.78 5.925-25.513 13.258-34.369 11.787-6.021-1.002-8.736-5.592-8.567-11.382 0.244-8.094 8.038-34.062 12.833-40.524 4.237-5.721 13.034-1.743 17.819 1.608 6.093 4.265 11.393 10.969 14.12 17.888 0.437 1.114 3.172 9.55 2.818 9.927ZM308.233 404.461c-0.954-1.002-1.074 0.224-1.319 0.87-3.812 10.452-6.265 23.377-6.871 34.478 0.457 1.956 10.126 0.77 12.082 0.233l16.197-6.098c1.278-1.379-7.785-5.621-8.828-6.552-2.037-1.812-2.718-3.536-3.264-5.704-0.052-0.181-0.982 0.264-1.651-0.626-1.014-1.347-2.626-5.055-3.336-6.776-0.669-1.62-2.675-9.47-3.03-9.834ZM318.603 414.508c0.132 1.64 1.327 3.303 2.523 4.365-0.882-2.065-0.112-3.424-2.523-4.365ZM333.99 427.685c-0.882-0.457-1.672 0.396-1.247 0.618 0.882 0.457 1.672-0.396 1.247-0.618Z" fill="#B12A1D" />
      <path d="M345.92 445.867c4.025 0.06 9.253-6.916 11.514-1.236 1.207 3.019-3.243 5.115-3.243 5.946 0 0.437 3.821 5.997 4.41 7.413 5.849 14.252-7.147 12.712-17.111 10.817-3.315-0.629-17.86-5.529-19.29-8.011-1.106-1.924 1.014-5.621 2.373-7.08s5.432-3.231 5.616-3.504c0.485-0.718-2.077-2.835-0.304-4.345 3.335-2.835 5.829 3.596 8.948 1.082 1.652-1.327 1.976-12.925 6.682-9.794 2.525 1.672 1.106 6.299 0.394 8.712ZM341.094 458.852c-1.195-0.781-2.654-1.58-3.68-2.281-1.146-0.79-2.827-3.616-4.358-3.564-1.034 0.04-7.36 3.88-7.854 5.115-0.457 1.143 0.73 0.951 1.227 1.235 1.247 0.689 2.554 1.315 3.912 1.773 2.057 0.689 24.266 5.945 24.376 3.88 0.011-1.864-3.516-11.314-4.723-11.598-3.508-0.821 1.408 6.218-2.209 7.838-2.554 1.143-4.602-1.034-6.691-2.398ZM350.632 465.952v0.626c0.405-0.213 0.405-0.416 0-0.626Z" fill="#B12A1D" />
      <path d="M425.639 100.174c1.278 1.965-2.534 3.047-4.085 3.128-2.281 0.112-3.263-0.781-5.076-1.082-0.741-0.121-1.712 0.577-2.362 0.476-0.485-0.072-0.325-1.407-0.689-1.307-1.175 0.353-1.612 1.379-3.792 1.336-1.885-0.04-3.528-0.609-6.234-0.678-13.025-0.313-26.202-0.537-38.975 2.502-5.231-2.795 4.065-6.411 6.619-7.212 11.87-3.748 35.619-1.944 47.987 0.336 0.741 0.132 6.415 2.217 6.598 2.51Z" fill="#B12A1D" />
    </g>
  </g>
</svg>