<svg id="_t4vrjx0" xmlns="http://www.w3.org/2000/svg" viewBox="26.903 0.492 408.182 344.003" width="408.1781772944339" height="344" style="flex-shrink: 0">
  <g id="_t4vrjx1">
    <g>
      <path d="M331.486 111.639c1.172 1.739 2.064 0.853 3.778 1.121 2.179 0.338 4.638 2.313 5.408 4.383 1.637 4.421 1.363 8.135 0.428 12.626-0.382 1.828-2.478 7.218-1.664 8.454 0.688 1.045 14.749 3.707 16.852 4.989 1.331 1 1.911 6.651 1.509 8.326-0.223 0.924-3.472 6.663-4.198 7.403-0.497 0.509-1.771 1.37-2.44 1.541-1.026 0.261-6.657-1.153-8.085-1.528-4.867-1.274-9.62-3.243-14.48-4.543 1.593 1.93 3.6 3.567 5.262 5.428 6.741 7.556 12.952 15.73 18.87 23.903 1.383 1.905 4.466 4.109 4.16 6.727-0.147 1.248-1.198 0.695-1.904 1.02-2.033 0.937-5.198 4.288-7.212 5.835-0.841 0.649-4.848 3-4.676 3.656 0.064 0.248 0.829 0.471 1.096 0.823 8.072 10.461 15.59 21.322 23.036 32.324 15.106 22.317 27.79 46.194 45.457 66.644 0.867 1.606-0.536 4.619-1.262 6.237-1.134 2.529-3.071 4.714-4.16 7.256 4.014-2.205 8.072-4.453 12.175-6.492 0.598-0.299 1.701-0.318 1.885-0.472 0.159-0.134 0.127-0.917 0.593-1.395 1.217-1.255 6.199-4.122 7.996-5.402 1.14-0.815 3.829-3.37 5.211-2.491 0.376 0.751 0.592 1.606 0.146 2.383-5.613 8.001-10.952 16.233-17.342 23.629-3.747 4.332-8.409 8.199-11.893 12.391-1 1.204-4.046 6.358-4.779 6.822-0.675 0.427-1.427 0.255-2.051 0.484-1.51 0.561-0.847 1.458-3.37 0.287-1.408-0.649-3.969-3.058-5.256-4.16-2.198-1.886-2.689-3.555-6.289-3.383-2.236 1.969-4.434 4.084-7.001 5.644-2.141 1.3-6.416 3.771-8.633 1.893-1.415-1.198-4.281-5.574-5.842-7.409-2.319-2.72-5.154-5.434-7.581-8.174-13.245-14.959-25.458-30.777-38.779-45.684-0.325-0.363-1.848-3.115-2.351-2.542-0.197 4.071-0.127 8.409-0.835 12.411-0.319 1.809-0.554 3.275-2.096 4.42-2.459 1.828-6.25 3.543-8.951 5.167-11.64 7.034-22.616 14.149-35.613 18.8-1.835 0.657-4.447 1.23-6.722 1.956-2.682 0.86-9.25 2.408-11.161 3.35-1.274 0.631-0.006 1.382-3.09 0.771-5.861-1.16-13.844-8.378-18.546-12.263-1.606-1.325-2.778-3.535-5.071-3.809l5.6 17.78c1.694 2.497 10.856 5.956 13.985 7.04 1.663 0.573 6.747 1.396 7.562 2.592 1.083 1.592-1.325 2.319-2.657 2.695-5.606 1.592-21.814 1.688-27.554 0.682-1.045-0.185-3.223-1.42-4.549-1.619-0.44-0.414-0.937-2.459-0.917-3.051 0.064-2.363-0.019-1.924-0.427-4.287-1.408-8.135-5.428-24.495-4.804-31.784 0.058-0.643 0.682-1.204 0.637-1.777-0.159-1.917-6.378-5.612-5.18-8.211 0.835-1.803 7.875-2.746 10.041-3.371 12.136-3.511 24.764-6.505 36.213-11.639 3.428-2.255 9.034-2.261 10.498-6.542 2.86-10.276 6.231-20.412 9.76-30.478-1.548 0.649-2.663 2.835-4.319 3.3-1.892 0.529-0.637-2.249-0.752-3.255s-1.268-2.586-1.63-3.835c-3.185-10.875-5.352-26.196-5.244-37.523 0.019-1.784 0.726-4.428 0.72-6.346-1.574 0.548-3.619 0.975-5.268 1.096-2.886 0.21-1.453-0.408-4.313 0.739s-4.472 0.955-7.104-0.554c-3.759-2.147-4.058-5.351-2.236-9.148 0.472-0.981 1.937-2.185 1.904-3.523 0-0.21-0.63-0.216-0.847-0.657-0.548-1.108-1.154-2.625-1.618-3.803-2.198-5.58-4.064-11.429-5.887-17.13-1.516 0.994-2.242 3.613-4.492 2.134-0.624-0.408-2.619-6.281-3-7.511-2.051-6.581-3.007-13.474-3.013-20.367l0.719 0.37c-0.987-4.753 3.077-8.276 6.167-11.239-2.37-0.669-4.523-1.943-6.816-2.796-0.58-0.216-1.3-0.012-1.886-0.287-0.892-0.414-1.3-2.874-1.975-2.982-7.492 2.001-15.252 2.529-22.891 3.499-14.481 1.841-31.071 5.115-46.366 3.968-1.682-0.128-3.625 0.178-5.423 0.045-22.909-1.701-50.559-11.454-69.971-23.578-4.765-2.975-6.448-3.829-11.556-6.205C43.14 84.188 27.003 71.083 31.049 46.659c0.204-1.236 1.987-6.141 1.942-6.607-0.089-0.994-2.771-3.07-3.478-3.988-6.982-9.04-0.943-15.162 9.161-13.811 1.471 0.198 2.707 0.765 4.045 0.999 4.186 0.739 6.167-1.669 10.277-2.127 1.574-0.178 4.032 0.191 5.263-0.172 0.822-0.242 2.542-2.663 3.548-3.339 7.46-5.051 18.106-6.715 26.879-5.185 28.478 4.943 57.663 24.642 79.687 42.479 11.06 8.963 22.776 18.806 33.708 28.63 0.548 0.497 4.319 4.823 5.058 4.179-3.23-3.447-5.784-9.747-4.459-14.423 0.58-2.057 1.58-3.625 3.733-4.236-7.014-7.626-14.137-15.589-18.227-25.273-0.401-2.58 2.695-7.632 4.084-9.9 2.574-4.211 7.594-10.862 12.34-12.677 2.414-0.924 2.364 0.051 4.205-2.453 5.148-6.982 10.302-13.136 19.941-13.996 1.599-0.14 4.307 0.669 4.618 0.611 0.255-0.051 3.223-2.695 4.046-3.179 2.077-1.23 7.046-3.306 9.027-1.433 2.128 2.007 6.346 10.48 7.881 13.506 0.606 1.198 1.319 2.504 1.848 3.599 0.765 1.58 1.427 3.675 2.077 5.345 0.484 0.363 4.893-3.052 7.243-1.988 1.969 0.892 2.771 7.855 3.625 9.785 7.594-4.256 11.468 2.039 14.94 7.893 3.963 6.689 9.282 17.182 3.905 24.266-0.867 1.077-4.396 4.88-4.345 5.862s3.211 5.479 3.988 6.459c1.038 1.3 3.58 2.211 2.543 4.632h-8.703c0.249 4.887-2.134 9.142-4.714 13.047 6.81-0.86 14.181-0.076 20.437 2.95 5.842 2.822 11.423 7.6 15.704 12.384 0.478 0.529 0.255 1.663 1.007 1.345 0.179-0.076 1.293-1.714 1.809-2.179 3.179-2.892 9.009-2.994 12.493-0.51 1.618 1.153 2.294 3.032 3.288 4.504h-1.083s0 0.727 0 0.726h1.083s0-0.727 0-0.726ZM234.145 39.715c5.963-6.409 15.469-9.365 21.917-15.303l-10.946-21.8c-2.93 0.331-6.339 1.599-8.479 3.676-1.427 1.382 0.618 3.096 0.604 5.134-0.032 3.619-4.205 8.505-7.893 6.791-3.994-1.854 2.529-10.212 2.089-10.6-6.862-0.191-12.436 3.663-16.895 8.473-0.65 0.701-4.001 4.663-4.077 5.185-0.089 0.599 1.453 1.606 1.841 2.39 1.848 3.727 1.16 9.243-3.09 10.835-7.212 2.701-5.332-6.772-3.147-10.39l-1.204-0.178c-2.956 2.395-5.294 4.625-7.658 7.626-1.255 1.592-2.867 3.765-3.982 5.44-0.331 0.497-0.319 1.262-0.535 1.574-0.293 0.421-1.019 0.128-1.127 0.216-0.044 0.032 0.351 0.561 0.184 1.058-0.223 0.681-1.732 1.892-1.573 2.689l17.882 25.972c3.338-4.841 7.307-9.117 11.048-13.601 2.828-3.389 8.333-11.187 11.785-13.264 0.675-0.401 1.096 0.038 1.218-0.032 0.159-0.089 0.446-1.198 0.962-1.376 0.363-0.128 0 0.841 0.357 0.721 0.255-0.082 0.255-0.739 0.726-1.243ZM230.705 15.946c3.606-0.299 4.243-3.491 3.618-6.524-0.598-0.745-2.72 3.727-2.904 4.083-0.274 0.529-1.262 0.719-0.714 2.441ZM145.755 43.619c-11.881-8.103-25.369-15.722-38.696-20.94-12.296-4.81-26.809-9.792-39.13-3.663-1.503 0.745-3.052 1.44-4.338 2.548 4.867 1.14 9.958 1.65 14.876 2.886 38.296 9.594 69.054 33.905 101.966 53.552 6.085 3.631 12.634 6.459 18.927 9.708-0.121-0.701-1.102-1.536-1.631-1.987-16.756-14.5-33.612-29.585-51.96-42.104ZM204.062 23.921v0.364c0.235-0.121 0.235-0.242 0-0.364ZM209.675 24.285c-0.777-0.586-1.644 1.943-1.816 2.344-0.739 1.784-1.491 4.052-1.057 5.97 3.37 0.439 4.383-2.828 3.949-5.575-0.044-0.299-0.955-2.65-1.07-2.739ZM263.694 25.005c0.414-0.421-0.153-1.166-0.72-0.179-0.044 0.318 0.694 0.204 0.72 0.179ZM54.888 25.374h-2.172v0.357h2.172v-0.357ZM116.004 44.378c-6.32-3.198-12.984-6.326-19.539-8.925-11.626-4.612-23.566-8.237-36.047-9.621l-1.172 0.817c0.669 0.847 1.746 0.663 2.625 0.929 9.212 2.81 19.31 6.179 28.465 9.734 12.397 4.81 25.184 10.116 36.938 15.513 4.861 2.229 9.633 4.708 14.5 6.938 1.255 0.223-1.465-1.631-1.574-1.701-7.384-4.957-16.399-9.734-24.19-13.678ZM40.745 27.184c-2.134 0.185-8.161-1.688-9.608 0.719-0.86 1.434 0.847 4.6 1.696 5.925 2.332 3.663 2.51 0.216 3.771-1.555 0.968-1.357 2.619-2.72 3.606-4.006 0.281-0.363 0.701-0.459 0.541-1.09ZM212.038 26.457v0.363c0.235-0.121 0.235-0.242 0-0.363ZM253.545 27.184c-0.51-0.261-0.968 0.229-0.72 0.356 0.51 0.261 0.968-0.229 0.72-0.356ZM212.038 27.909v0.364c0.235-0.121 0.235-0.242 0-0.364ZM50.173 46.028c-0.56-5.237 1.548-10.314 2.447-15.424-0.797-0.421-6.46-2.033-6.9-1.917-0.529 0.134-4.02 3.771-4.593 4.485-0.694 0.867-3.237 4.574-3.166 5.434 0.058 0.707 5.326 4.224 6.307 4.816 0.86 0.516 5.256 3.281 5.905 2.606ZM89.144 29.356v0.363c0.235-0.121 0.235-0.242 0-0.363ZM251.003 32.255l-0.179-1.084c-0.688 0.484-0.618 0.777 0.179 1.084ZM109.161 50.175c-13.398-5.81-29.389-12.627-43.322-16.729-1.351-0.401-7.721-2.166-8.549-1.874-0.414 0.146-1.395 3.128-1.612 3.874-0.274 0.949-0.536 2.281-0.688 3.262-0.217 1.382-1.154 8.995-0.866 9.702 0.153 0.376 0.656 0.937 0.994 1.198 2.72 2.083 8.684 4.969 11.983 6.867 27.318 15.704 51.783 24.807 82.05 33.23 22.623 6.294 45.086 12.397 67.602 19.399 2.134 0.663 3.199 2.491 4.16-0.707l-10.627-5.894c-8.925-5.944-18.144-11.824-27.547-16.952-5.81-3.166-12.079-5.778-18.151-8.746-18.393-9.008-36.785-18.526-55.439-26.617ZM254.379 80.939c1.058-1.21 10.238-3.23 12.818-4.396 6.314-2.842 17.851-11.792 19.84-18.59 1.529-5.237-7.868-21.775-11.628-26.023-0.86-0.223-1.325 0.79-2.032 1.134-6.46 3.128-10.059 6.084-15.507 10.6-3.44 2.854-10.773 10.154-14.621 11.136-5.575 1.427-10.977 2.115-15.888-1.516-0.574-0.427-0.943-1.765-2.09-1.3l-14.863 17.615c6.498 6.084-2.153 1.28-4.199 2.51-2.567 1.542-0.905 6.918 0.025 9.084 0.783 1.828 3.434 5.453 5.167 6.435 4.052 2.293 7.142 0.121 10.053-2.446 0.331-0.293 0.962-0.306 1.249-0.561 0.644-0.567 1.16-2.752 2.918-2.695 0.892 2.147-5.498 7.358-5.389 8.085 4.6 5.963 8.594 11.792 15.907 14.569 0.465 0.178 1.236 0.096 1.421 0.21 0.051 0.032-0.44 0.828 0.204 1.058 0.313 0.114 0.064-0.713 0.382-0.745 0.612-0.064 4.657 1.191 5.855 1.337 12.531 1.529 29.115-10.244 33.957-21.297 0.261-0.599 1.663-4.612 1.625-4.867-0.026-0.191-0.516-0.631-0.816-0.509l-7.83 0.898c-3.39 5.332-8.346 9.912-10.245 16.028-3.128 1.809-2.689-4.498-4.287-6.255-0.433-2.345-1-4.695-1.676-6.989-0.281-0.949-1.287-1.446-0.363-2.504ZM248.289 32.261v0.363c0.235-0.121 0.235-0.242 0-0.363ZM257.17 39.874c-0.14-0.198-3.727-1.35-4.536-1.809-2.16-1.217-3.338-3.09-5.059-4.727-0.529-0.503-0.917 0.019-0.905 0.191 0.019 0.261 2.478 3.313 2.956 4.281 1.102 2.243 2.051 4.989 1.746 7.491 0.389 0.439 2.434-2.166 2.829-2.529 0.51-0.471 3.37-2.351 2.969-2.898ZM255.354 35.159c-0.51-0.261-0.968 0.229-0.72 0.357 0.51 0.261 0.968-0.229 0.72-0.357ZM244.116 35.523c-0.51-0.261-0.968 0.229-0.72 0.357 0.51 0.261 0.968-0.229 0.72-0.357ZM242.3 39.141c0.261-0.509-0.229-0.968-0.357-0.72-0.261 0.509 0.229 0.968 0.357 0.72ZM237.949 41.676c0.223-0.236 0.389-1.714 0.363-2.171-0.93 0.293-0.739 1.402-0.72 2.171 0.115-0.019 0.305 0.051 0.357 0ZM61.902 87.959c-7.607-9.078-10.824-17.513-11.976-29.158-0.249-2.529 0.134-5.16-0.294-7.69-4.377-2.758-8.868-5.269-13.048-8.332-0.49 0.344-0.618 0.841-0.809 1.363-1.911 5.179-1.51 15.391 0.166 20.666 2.803 8.817 15.456 18.424 23.33 22.706 1.16 0.631 2.619 0.981 3.778 1.656 0.229-0.625-0.867-0.873-1.147-1.204ZM232.151 45.301c0.083-0.082 0.401-1.16 0.363-1.446-0.694 0.178-0.815 0.803-0.72 1.446 0.115-0.019 0.305 0.051 0.357 0ZM250.461 44.218v0.364c0.235-0.121 0.235-0.242 0-0.364ZM241.58 50.748c-0.51-0.261-0.968 0.229-0.72 0.357 0.51 0.261 0.968-0.229 0.72-0.357ZM224.723 51.468v0.364c0.235-0.121 0.235-0.242 0-0.364ZM89.266 72.575c-0.401-0.255-5.435-2.376-6.868-3.122-9.595-4.957-18.953-10.263-28.23-15.812-0.459 0.618 1.542 13.601 1.975 15.239 1.969 7.46 9.372 17.347 14.825 22.691 2.057 2.019 10.729 4.02 13.921 4.753 10.945 2.504 23.19 4.396 33.606 5.874 25.694 3.637 51.082 5.294 76.89 6.892 4.65 0.287 9.302 1.013 13.939 1.46 0.191-1.083-0.293-0.573-0.847-0.759-16.59-5.682-35.88-9.167-52.961-13.754-18.705-5.02-50.496-13.505-66.238-23.456ZM32.953 63.795v0.364c0.235-0.121 0.235-0.242 0-0.364ZM35.673 64.885c-0.51-0.261-0.968 0.229-0.719 0.356 0.51 0.261 0.968-0.229 0.719-0.356ZM179.955 66.337c-0.51-0.261-0.968 0.229-0.72 0.357 0.51 0.261 0.968-0.229 0.72-0.357ZM84.971 69.593c0.261-0.509-0.229-0.968-0.357-0.72-0.261 0.509 0.229 0.968 0.357 0.72ZM164.55 68.866v0.364c0.235-0.121 0.235-0.242 0-0.364ZM283.449 74.67v0.363c0.235-0.121 0.235-0.242 0-0.363ZM282.182 77.206c0.261-0.509-0.229-0.968-0.357-0.72-0.261 0.509 0.229 0.968 0.357 0.72ZM57.609 78.658v0.364c0.235-0.121 0.235-0.242 0-0.364ZM60.322 79.747c-0.51-0.261-0.968 0.229-0.719 0.357 0.51 0.261 0.968-0.229 0.719-0.357ZM259.527 86.991v0.363c0.235-0.121 0.235-0.242 0-0.363ZM208.229 89.527c0.261-0.509-0.229-0.968-0.357-0.721-0.261 0.509 0.229 0.968 0.357 0.721ZM208.777 89.17v0.363c0.235-0.121 0.235-0.242 0-0.363ZM210.834 90.564c-0.058-0.064 0.331-0.452 0.128-0.661l-0.917 0.356c-0.395 0.338 7.231 6.129 7.848 6.651 0.376 0.318 0.662 1.058 1.204 1.517 0.771 0.657 4.919 4.313 5.811 3.427 0.847-0.841-1.816-2.345-2.059-2.65-1.268-1.567-3.516-4.848-4.427-6.639-0.223-0.439-0.369-1.504-0.427-1.554-0.223-0.198-3.542 0.446-4.51 0.338-0.369-0.038-2.549-0.688-2.645-0.791ZM309.156 110.422c-7.575-9.722-17.705-14.2-30.09-14.334-2.797-0.032-1.975 0.835-3.21 2.153-2.358 2.504-6.613 5.345-9.665 7.008-1.338 0.733-7.492 3.893-8.55 4.141-1.548 0.363-3.912 0.331-5.543 0.439l8.339 3.836c1.841 0.491 3.727-3.07 5.072-4.383 3.466-3.383 12.659-9.779 17.596-9.263 3.899 0.408-1.631 2.415-2.318 2.79-8.008 4.39-10.862 6.925-16.711 13.678-0.21 0.242-0.675-0.064-0.714 0.032-1.784 4.689-3.791 9.632-4.027 14.862-0.044 0.943 1.026 1.484-0.343 1.823 1.535 1.777 1.867 5.708 5.256 3.446 3.861-2.574 2.358-5.122 2.72-8.874 0.249-2.58 1.37-8.582 2.816-10.601 1.178-1.65 3.345-2.281 4.804-0.656 1.931 2.166-0.019 9.435-1.026 12.04-0.618 1.592-3.294 5.466-3.281 6.46 0.006 0.727 0.981 4.306 1.299 5.173 1.351 3.675 5.033 7.505 8.449 3.53 2.466-2.866 0.688-4.478 0.357-7.626s-0.612-8.326 0.241-11.346c0.733-2.599 1.764-4.498 4.473-2.428 3.083 2.351 2.95 8.027 2.433 11.512-0.255 1.72-2.306 5.696-2.3 6.62 0 0.204 0.612 1.701 0.771 1.993 1.198 2.236 2.669 3.02 5.167 2.249 1.37-0.421 1.146-1.14 1.879-1.72 2.459-1.956 3.484-1.669 2.906-5.408-0.714-4.606-1.019-7.689 0.267-12.455 0.185-0.688 2.396-6.027 2.669-6.224 0.159-0.114 1.363 0.261 1.447 0.599 0.656 2.708-1.732 4.44 2.886 4.829-1.682-6.479 1.217-10.231 6.524-13.232 0.217-0.733-0.408-0.446-0.58-0.669ZM212.58 113.454l-31.714-1.095c-25.694-2.179-51.502-4.236-76.967-8.594-7.046-1.204-14.054-2.835-21.094-4.084l2.804 1.72c21.858 10.244 45.953 18.118 70.239 18.144 11.805 0.012 23.439-2.3 35.167-3.555 5.906-0.631 14.946-0.318 20.316-1.797 0.497-0.14 1.128-0.044 1.255-0.739ZM279.098 102.217v0.363c0.235-0.121 0.235-0.242 0-0.363ZM227.985 104.026v0.363c0.235-0.121 0.235-0.242 0-0.363ZM316.979 107.658c-0.51-0.261-0.968 0.229-0.719 0.356 0.51 0.261 0.968-0.229 0.719-0.356ZM163.824 108.377v0.363c0.235-0.121 0.235-0.242 0-0.363ZM319.158 156.227c9.238-7.237 17.061-16.64 19.113-28.553 0.714-4.148 1-12.277-4.976-11.678 0.707 2.191 0.968 6.587-1.796 7.454-4.377 1.37-7.116-6.389-2.543-8.658 0.261-0.134 0.694 0.146 0.714 0.115 0.829-1.427-2.453-4.823-3.727-5.517-2.574-1.402-7.448-1.414-9.117 1.185-1.045 1.631-0.223 2.007 0.905 3.313 0.765 0.885 1.987 1.899 2.459 2.688 1.357 2.249 3.37 7.027-0.904 7.275s-7.199-6.435-6.658-10.033c-4.389 0.14-7.53 3.402-7.575 7.836-0.032 3.549 2.141 2.376 4.434 3.822 2.599 1.644 4.511 6.173 4.613 9.18 0.108 3.166-1.586 8.428-3.269 10.875-4.403 6.421-13.761 7.237-20.406 10.066-7.173 3.045-18.482 9.008-24.782 13.461-0.829 0.586-5.294 5.479-4.052 0.841 0.267-0.987 2.071-2.95 2.033-3.638-1.899-2.892-5.963-15.876-8.64-17.093-0.274-0.128-4.313-0.535-4.854-0.515-2.294 0.07-9.302 2.631-11.27 3.956-0.542 0.363-3.44 2.968-3.453 3.427 0.682 1.886 2.033 3.765 2.815 5.555 2.364 5.396 6.001 12.697 7.607 18.125s-2.517 3.224-3.147 7.517c-0.019 0.128 0.038 1.497 0.083 1.56 0.86 1.14 3.651 1.574 5.046 1.046 2.969-1.115 2.172-0.713 5.02-1.134 13.404-1.981 21.852-7.307 33.447-13.315 11.143-5.772 22.967-11.39 32.874-19.144-0.408 0.414 0.153 1.172 0.726 0.178 0.044-0.312-0.694-0.204-0.726-0.178ZM242.128 112.365v0.364c0.235-0.121 0.235-0.242 0-0.364ZM224.545 114.907h-1.447v0.357h1.447v-0.357ZM318.432 120.704c-0.07-1.917-1.344-3.669-2.893-4.708l0.777 2.657 2.116 2.051ZM330.754 116.716c-0.49-0.491-1.771 1.663-1.823 2.013-0.281 1.765 1.969 3.581 2.172 0.3 0.026-0.363-0.267-2.229-0.349-2.313ZM333.295 117.442c-0.51-0.261-0.968 0.229-0.719 0.358 0.51 0.261 0.968-0.229 0.719-0.358ZM222.913 118.169v0.363c0.235-0.121 0.235-0.242 0-0.363ZM270.574 127.954c0.745-0.739 2.153-7.645 1.816-9.059-0.612 0.102-0.644 0.707-0.822 1.166-0.93 2.376-1.192 4.943-1.624 7.441-0.127 0.727 0.44 0.649 0.636 0.452ZM256.393 129.088c-7.556-1.472-14.914-3.867-22.248-6.192-3.007 1.707-5.683 4.408-6.606 7.874-1.338 5.027-0.217 14.238 1.249 19.213 0.147 0.491 1.128 3.338 1.369 3.333l4.345-4.709c5.568-2.593 10.97-5.536 17.329-5.281 1.408 0.058 7.875 1.536 8.205 1.287s0.758-3.504 2.555-2.892c0.235 2.166 1.65 8.001-1.351 8.626-1.026 0.216-1.752-0.898-2.631-0.472 3.657 4.116 5.784 9.263 7.792 14.316 1.433-1.93 4.046-2.79 6.116-4.034 8.327-5.001 17.074-9.804 26.605-12.187 2.153-0.535 4.511-0.255 6.613-1.548l-4.097-1.522c-0.79-1.427-1.14-0.643-1.72-0.853-0.879-0.318-1.688-0.847-2.656-0.912-2.256 3.561-4.619 6.326-9.328 5.244-2.288-0.529-3.58-1.879-4.854-3.759-6.001 8.97-14.615 0.618-15.048-7.256-1.86 0.657-2.567 2.765-4.918 2.873-6.053 0.274-6.288-6.772-6.728-11.161ZM251.187 125.056v0.363c0.235-0.121 0.235-0.242 0-0.363ZM283.991 134.834c0.937-3.014 1.236-6.491-0.179-9.428l-0.579 5.256 0.752 4.166ZM300.128 138.465v0.364c0.235-0.121 0.235-0.242 0-0.364ZM309.729 139.192c-0.497 0.287-1.81 2.045-0.905 2.529l0.905-2.529ZM269.675 139.911v0.364c0.235-0.121 0.235-0.242 0-0.364ZM298.491 140.281c-0.51-0.261-0.968 0.229-0.719 0.357 0.51 0.261 0.968-0.229 0.719-0.357ZM303.027 143.18v0.363c0.235-0.121 0.235-0.242 0-0.363ZM352.873 146.079c-0.395-0.395-1.115 0.325-0.72 0.72s1.115-0.325 0.72-0.72ZM329.492 151.513v0.363c0.235-0.121 0.235-0.242 0-0.363ZM326.402 154.418l-5.249 3.624c-14.137 11.429-31.721 21.462-48.152 29.063-3.135 1.452-6.218 2.81-9.499 3.899 0 2.975-0.56 5.899-0.535 8.875 0.064 8.868 1.274 18.029 2.179 26.845 0.344 3.332 0.536 6.67 1.089 9.97 0.313 0.229 2.874-4.02 3.269-4.535 9.55-12.531 27.834-16.035 42.035-21.387 4.046-1.522 9.295-4.536 13.168-5.702 0.536-0.159 0.841 0.019 1.345 0.09l-0.37-0.72c0.841-0.108 6.32-2.625 6.531-2.917 0.121-0.166-0.803-1.586 0.197-1.778 0.669-0.128 2.637 0.688 3.797-0.555l15.57-9.071c-1.796-0.898-1.108-1.548-1.624-2.708-0.319-0.707-3.3-4.096-4.104-5.325-5.957-9.149-12.722-17.602-19.227-26.457-0.249-0.338-0.376-0.79-0.42-1.211ZM349.974 158.036c0.714 0.318 1.86-0.561 1.446-1.083-0.058-0.07-1.453 0.637-1.446 1.083ZM309.366 166.012c0.414-0.421-0.153-1.166-0.72-0.178-0.044 0.318 0.694 0.204 0.72 0.178ZM291.241 174.351c0.261-0.509-0.229-0.968-0.357-0.719-0.261 0.509 0.229 0.968 0.357 0.719ZM245.568 182.691c-0.51-0.261-0.968 0.229-0.719 0.356 0.51 0.261 0.968-0.229 0.719-0.356ZM335.091 205.536c-0.331-0.223-1.408 0.159-1.427 0.529-0.032 0.719 5.855 7.893 6.875 8.88l-4.275-6.778c-0.446-0.363-1.058-2.555-1.173-2.638ZM332.161 207.383c-1.026-0.649-9.882 4.211-11.55 4.849 9.359 8.792 15.749 20.132 23.113 30.527 9.04 12.78 18.54 25.298 27.427 38.186 2.427 3.523 4.842 8.314 7.199 11.467 0.229 0.306 0.975 0.401 1.166 0.809 0.166 0.35-0.293 0.93-0.178 1.115 0.032 0.051 0.49-0.421 1.076 0.147 2.956 2.86 6.53 8.995 9.213 12.397 1.701 2.159 3.466 4.148 5.294 6.122 0.669 0.727 2.612 3.803 3.625 3.281 0.618-0.318 5.244-5.269 5.358-5.886-0.618-1.663-2.466-3.262-3.524-4.747-6.823-9.581-15.042-18.628-21.004-28.61-0.923-1.542-0.86-0.835-1.848-2.103-3.58-4.619-6.81-10.932-10.218-15.875-11.13-16.156-23.247-31.675-33.582-48.34-0.382-0.618-1.401-3.236-1.561-3.339ZM340.73 207.339v0.363c0.235-0.121 0.235-0.242 0-0.363ZM313.354 215.314s-0.765-0.14-0.719 0.179c0.567 0.987 1.134 0.242 0.719-0.179ZM341.093 215.671v0.364c0.235-0.121 0.235-0.242 0-0.364ZM322.21 236.911c-5.103-6.281-9.99-12.754-14.29-19.622-3.109 0.268-6.109 2.147-9.289 2.696-0.44-0.064-0.675 0.153-0.496 0.573 0.235 0.555 2.294 2.179 2.898 2.905 0.452 0.548 0.637 1.262 1.084 1.815 23.802 29.395 47.183 58.89 71.047 88.087 4.275 5.237 7.263 8.155 12.168 12.844 0.472 0.452 0.63 0.994 0.854 1.236 0.745 0.797 0.662-0.153 1.026-0.485 3.873-3.587 2.211-2.345-0.262-5.638-15.762-20.966-30.134-43.059-46.781-63.413-5.816-7.11-12.174-13.869-17.965-20.998ZM309.188 217.124v0.363c0.235-0.121 0.235-0.242 0-0.363ZM344.897 221.469c0.261-0.509-0.229-0.968-0.357-0.72-0.261 0.509 0.229 0.968 0.357 0.72ZM295.229 221.475s-0.765-0.14-0.72 0.178c0.567 0.987 1.134 0.242 0.72-0.178ZM291.968 222.927c-0.93-0.745-0.917 1.16 0.363 1.447 0.032-0.268-0.305-1.402-0.363-1.447ZM346.528 223.648v0.362c0.235-0.121 0.235-0.242 0-0.362ZM289.068 224.731l-0.719-0.721c-0.102 0.758-0.038 0.821 0.719 0.721ZM347.076 224.737c0.159 1.153 1.23 2.115 1.993 2.892-0.229-1.058-1.064-2.345-1.993-2.892ZM292.865 237.255c-3.052-3.727-5.925-7.498-8.76-11.396-0.344-0.089-5.887 3.217-6.115 3.585-0.337 0.541 0.459 1.414 0.79 1.778 3.733 4.128 8.238 7.645 12.11 12.181 14.838 17.392 29.554 35.676 44.215 53.551 7.893 9.626 15.405 19.609 23.744 28.923 1.523 1.701 3.861 3.204 5.25 4.982s4.772 8.186 6.549 8.983c0.923 0.414 5.116-1.93 5.963-2.734 2.192-2.077 0.714-1.956-0.166-3.07-6.358-8.046-14.767-15.481-21.036-23.571-0.714-0.917-1.045-2.567-1.16-2.664-4.141-3.217-7.345-7.689-10.799-11.842-7.505-9.04-14.793-18.328-22.496-27.184-9.161-10.543-19.176-20.635-28.095-31.516ZM325.682 235.969c0.159-0.681-0.382-0.86-0.72-1.268-2.185-2.625-4.842-5.167-7.072-7.785 1.503 3.026 4.383 5.097 6.161 7.969l1.631 1.084ZM349.426 228.005l-0.172 0.172 0.905 0.905 0.172-0.173-0.905-0.904ZM350.516 229.458l-0.172 0.172 0.904 0.904 0.172-0.172-0.904-0.904ZM351.961 231.267l2.906 4.338c-0.472-1.663-1.841-3.02-2.906-4.338ZM207.872 292.52c-0.159 0.625 0.249 0.727 0.535 1.09 0.669 0.835 3.096 3.511 3.835 4.141 1.497 1.28 1.822-0.427 3.236-1.064 1.555-0.701 3.88-0.86 5.499-1.389 7.823-2.548 15.71-5.982 23.579-8.32 3.988-1.185 8.066-1.733 11.983-3.242 3.944-1.516 6.95-3.931 10.645-5.67 1.287-0.605 4.746-1.223 5.13-2.478 0.249-0.815 0.038-1.962 0.261-2.848 1.752-7.072 3.446-14.06 5.058-21.202 0.873-3.873 1.975-7.702 2.924-11.563 0.019-1.248-3.956-5.383-4.905-6.549-1.14 5.79-3.319 11.314-4.976 16.959-1.899 6.485-3.3 13.824-5.651 20.086-0.981 2.618-2.013 4.555-4.517 5.995-5.517 3.173-13.71 5.185-19.584 7.964-9.359 1.644-18.941 5.568-27.885 7.638-1.306 0.299-3.727 0.338-5.18 0.434ZM355.224 235.981c-0.127 0.439 0.433 1.14 0.733 1.434 0.127-0.439-0.433-1.14-0.733-1.434ZM282.182 245.39c2.408-0.631 1.325-4.103-0.726-4.344 0.44 2.179-1.752 4.173 1.445 3.625l-0.719 0.719ZM280.914 242.498v0.363c0.235-0.121 0.235-0.242 0-0.363ZM363.926 245.034v0.363c0.235-0.121 0.235-0.242 0-0.363ZM283.449 246.123v0.363c0.235-0.121 0.235-0.242 0-0.363ZM286.712 247.213v0.362c0.235-0.121 0.235-0.242 0-0.362ZM280.914 247.569v0.363c0.235-0.121 0.235-0.242 0-0.363ZM372.444 247.575s-0.765-0.134-0.713 0.179c0.847 2.166 2.389 3.899 3.548 5.874 2.153 3.669 4.357 7.269 6.594 10.805 2.109 3.338 3.988 6.963 6.524 9.97l-8.397-14.258c-2.019-3.44-5.078-7.014-6.97-10.429-0.287-0.523-0.459-2.013-0.586-2.141ZM292.12 253.946c-1.268-1.631-2.561-3.249-3.771-4.924-1.07 2.676-0.93 5.752-1.549 8.429-0.79 3.44-2.472 6.9-3.077 10.332-1.146 6.479-0.147 12.009-6.281 16.189-8.76 5.963-21.426 9.811-31.459 12.766-8.511 2.51-17.081 4.887-25.427 7.925 1.447 0.783 8.199 7.052 9.079 6.906 7.536-3.185 15.245-5.969 22.814-9.085 2.051-0.847 4.179-1.688 6.167-2.529 9.97-4.211 19.654-9.046 29.726-13.047 2.242-9.257 3.976-18.672 6.518-27.853 0.153-0.293 0.745-0.159 0.739-0.433-0.026-1.013-2.771-3.765-3.485-4.676ZM280.551 249.385v0.363c0.235-0.121 0.235-0.242 0-0.363ZM287.075 249.748v0.363c0.235-0.121 0.235-0.242 0-0.363ZM316.801 250.474v0.364c0.235-0.121 0.235-0.242 0-0.364ZM310.277 251.921v0.363c0.235-0.121 0.235-0.242 0-0.363ZM347.253 253.373v0.363c0.235-0.121 0.235-0.242 0-0.363ZM295.956 266.057c0-2.083 1.79-4.989 0.541-6.88l-0.898 3.803 0.357 3.077ZM298.128 264.967c-0.012-1.255 1.86-3.345-0.356-3.618l0.356 3.618ZM302.053 265.414c-0.179-0.102-0.949-0.146-1.02-0.084-0.229 0.216-0.65 5.332-0.828 6.25-0.567 2.994-2.619 12.251-3.95 14.538-0.344 0.599-1.013 0.955-1.313 1.587-0.504 1.058-0.459 3.217-1.261 4-0.083 0.076-1.586 1.14-1.816 1.281-10.958 6.721-26.674 12.417-38.575 17.958-5.154 2.395-10.066 5.319-15.335 7.498l4.09 3.173c2.771-0.293 5.537-2.51 8.155-3.606 5.861-2.453 11.786-4.326 17.749-6.899 11.124-4.803 23.024-9.976 33.683-15.652 0.981-0.523 1.606 0.198 2.115-1.644 0.606-6.008 1.172-12.059 2.083-18.048 0.185-1.217 1.038-3.014 1.007-4.103-0.051-1.816-2.115-2.854-3.154-3.918-0.395-0.401-1.523-2.261-1.644-2.331ZM279.824 266.42v0.364c0.235-0.121 0.235-0.242 0-0.364ZM295.592 267.146c0.261-0.509-0.229-0.968-0.357-0.72-0.261 0.509 0.229 0.968 0.357 0.72ZM279.461 273.67v0.363c0.235-0.121 0.235-0.242 0-0.363ZM307.742 273.67v0.363c0.235-0.121 0.235-0.242 0-0.363ZM309.003 277.295c-0.293-1.294 1.599-3.587-0.357-3.619 0.287 1.089-0.885 3 0.357 3.619ZM388.575 274.765c-0.357 0.255 0.197 0.497 0.37 0.714 0.363-0.236-0.172-0.478-0.37-0.714ZM280.009 275.849c-0.102 0.357-1.918 3.3-0.548 3.255 0.414-0.012 1.516-2.988 0.548-3.255ZM390.932 278.384c0.121-0.529-0.153-0.758-0.541-1.077-0.153 0.363 0.376 1.427 0.541 1.077ZM293.961 278.021v0.363c0.235-0.121 0.235-0.242 0-0.363ZM276.199 278.747v0.364c0.235-0.121 0.235-0.242 0-0.364ZM308.461 279.111v0.363c0.235-0.121 0.235-0.242 0-0.363ZM391.474 279.117c-0.357 0.255 0.197 0.497 0.369 0.713 0.363-0.236-0.172-0.478-0.369-0.713ZM393.831 282.735c-0.076-0.987-1.019-1.835-1.631-2.529 0.331 0.828 0.841 2.071 1.631 2.529ZM261.151 284.545c0.261-0.509-0.229-0.968-0.357-0.721-0.261 0.509 0.229 0.968 0.357 0.721ZM389.665 284.182v0.363c0.235-0.121 0.235-0.242 0-0.363ZM390.028 285.277c0.026 0.739 0.592 1.644 1.096 2.16-0.026-0.733-0.592-1.644-1.096-2.16ZM263.331 287.086c-2.746 1.045-5.625 1.917-8.315 3.097-0.446 0.198-1.453 0.35-1.465 0.885l6.957-2.281 2.823-1.701ZM364.29 287.443v0.363c0.235-0.121 0.235-0.242 0-0.363ZM241.038 291.068v0.363c0.235-0.121 0.235-0.242 0-0.363ZM253.003 291.068v0.363c0.235-0.121 0.235-0.242 0-0.363ZM374.254 294.33c-0.166-0.688 0.554-1.268 0.649-1.72 0.504-2.446-3.478 0.408-0.649 1.72ZM345.858 292.648c-0.166-0.185-1.026-0.828-1.312-0.675l2.167 2.72c0.076-0.745-0.363-1.522-0.849-2.045ZM349.063 298.318v0.363c0.235-0.121 0.235-0.242 0-0.363ZM218.199 300.497v0.363c0.235-0.121 0.235-0.242 0-0.363ZM291.241 302.669l-0.178-1.083c-0.382 0.331-0.662 0.548-0.542 1.083h0.72ZM216.026 303.032v0.363c0.235-0.121 0.235-0.242 0-0.363ZM409.243 304.485v0.362c0.235-0.121 0.235-0.242 0-0.362ZM213.306 304.847c-0.395-0.395-1.115 0.325-0.72 0.721s1.115-0.325 0.72-0.721ZM406.885 307.74c0.427-0.427-1.344-1.822-1.631-2.166-0.166 0.491 1.09 2.708 1.631 2.166ZM426.463 306.657l-2.778 1.567-1.567 1.873c1.064 0.382 5.103-2.586 4.338-3.446ZM236.502 314.996c-0.497-0.166-2.274 0.503-1.809 0.72 0.497 0.166 2.274-0.503 1.809-0.72ZM406.343 320.067v0.364c0.235-0.121 0.235-0.242 0-0.364ZM252.092 322.609c-1.516 0.223-3.39 0.905-4.727 1.625-0.51 0.274-0.892-0.026-0.707 0.904l5.434-2.529ZM245.389 322.966v0.363c0.235-0.121 0.235-0.242 0-0.363ZM252.64 323.692v0.364c0.235-0.121 0.235-0.242 0-0.364ZM394.921 334.567c0.357-1.172-0.975-2.039-1.447-0.905-0.038 0.089 1.198 0.719 1.447 0.905ZM402.361 334.573l-0.541 0.542c-0.006 0.382 0.905-0.216 0.541-0.542ZM401.629 335.656v0.363c0.235-0.121 0.235-0.242 0-0.363ZM399.999 337.465c0.975 0.255 1.848-1.446 0.904-1.439-0.197 0-0.975 1.388-0.904 1.439ZM242.67 340.733c-0.421-0.414-1.166 0.153-0.179 0.721 0.319 0.044 0.204-0.695 0.179-0.721ZM395.106 342.179v0.364c0.235-0.121 0.235-0.242 0-0.364Z" fill="#B12A1D" />
      <path d="M294.382 103.07c1.943 1.917 7.008 9.345 6.657 11.996-0.064 0.503-0.49 1.128-0.981 1.249-1.439 0.357-3.128-3.332-3.816-4.434-1.746-2.803-3.88-6.791-7.052-8.881-0.885-0.586-5.823-1.79-3.02-3.141 2.37-1.14 6.549 1.567 8.206 3.205ZM291.063 103.669v0.364c0.235-0.121 0.235-0.242 0-0.364Z" fill="#B12A1D" />
      <path d="M282.545 243.225c0.115 0.503-0.197 0.962-0.72 1.082v-1.082s0.72 0 0.72 0Z" fill="#B12A1D" />
    </g>
  </g>
</svg>