<?xml version="1.0" encoding="UTF-8"?>
<svg id="Layer_2" data-name="Layer 2" xmlns="http://www.w3.org/2000/svg" viewBox="0 0 576.18 291.37">
  <defs>
    <style>
      .cls-1 {
        fill: #fff;
      }

      .cls-1, .cls-2 {
        stroke: #4c9e3c;
        stroke-miterlimit: 10;
        stroke-width: 2.64px;
      }

      .cls-2 {
        fill: #4c9e3c;
      }
    </style>
  </defs>
  <g id="Layer_1-2" data-name="Layer 1">
    <g>
      <path class="cls-2" d="M44.85,245.08l-1.48,37.19-19.42,7.17,1.47-36.87-19.59-36.57,20.78-7.67,12.81,25.08,15.31-35.46,13.24-4.89-23.11,52.02Z"/>
      <path class="cls-2" d="M136.5,205.47l-.19,4.77c-1.02,25.59-18.19,45.61-36.94,52.53-18.75,6.92-34.82-.82-33.8-26.41l.19-4.77c1.04-26.24,18.28-45.32,36.93-52.21,18.65-6.89,34.85-.16,33.81,26.08ZM85.4,223.8l-.26,6.51c-.76,19.08,4.76,23.88,14.72,20.21,9.86-3.64,16.03-12.76,16.79-31.84l.26-6.51c.79-19.74-4.84-24.28-14.7-20.64-9.95,3.68-16.02,12.54-16.8,32.27Z"/>
      <path class="cls-2" d="M209.04,140.97l-2.22,55.74c-.64,16.05-12.08,30.85-31.89,38.17-19.71,7.28-30.4.65-29.76-15.4l2.22-55.74,19.52-7.21-2.19,55.08c-.39,9.87,2.49,14.04,10.7,11.01,8.41-3.1,11.52-9.49,11.91-19.36l2.19-55.08,19.52-7.21Z"/>
      <path class="cls-2" d="M250.69,125.59c17.2-6.35,29.43-4.88,28.76,11.81-.34,8.57-4.67,16.9-15.52,23.9,10.82-1.65,14.95,2.39,14.46,14.64l-.79,19.84-19.52,7.21.79-19.84c.58-14.53-5.51-12.28-12.37-9.64l-7.54,2.78-1.36,34.27-19.42,7.17,3.24-81.33,29.28-10.81ZM260.38,145.19c.31-7.7-3.32-9.89-11.44-6.89l-8.6,3.18-.92,23.1,8.6-3.18c8.12-3,12.05-8.51,12.36-16.21Z"/>
      <path class="cls-2" d="M353.31,116.22c.11-12.33-4.13-15.89-11.86-13.04-9.57,3.53-15.1,13.27-15.84,31.92l-.26,6.51c-.74,18.54,3.99,24.17,13.94,20.49,8.41-3.1,14.01-9.87,15.5-25.92l17.1-6.32c-2.63,25.33-15.9,38.13-33.19,44.52-19.42,7.17-33.95-1.14-32.93-26.73l.19-4.77c1.04-26.24,17.31-44.96,35.86-51.81,17.1-6.32,29.93-3.25,30.41,18.15l-18.94,6.99Z"/>
      <path class="cls-2" d="M420.94,62.72l21.11,72.33-19.52,7.21-5.6-19.51-25.12,9.28-7.35,24.29-12.37,4.57,27.59-90.32,21.26-7.85ZM413.84,111.92l-7.78-26.94-10.19,33.57,17.97-6.64Z"/>
      <path class="cls-2" d="M481.82,40.24c17.2-6.35,29.43-4.88,28.76,11.82-.34,8.57-4.67,16.9-15.52,23.9,10.82-1.65,14.95,2.39,14.46,14.64l-.79,19.84-19.52,7.21.79-19.84c.58-14.53-5.51-12.28-12.37-9.64l-7.54,2.78-1.36,34.27-19.42,7.17,3.24-81.33,29.28-10.81ZM491.51,59.84c.31-7.7-3.32-9.89-11.44-6.89l-8.6,3.18-.92,23.1,8.6-3.18c8.12-3,12.05-8.51,12.36-16.21Z"/>
      <path class="cls-2" d="M574.78,5.91l-.49,12.25-19.04,7.03-2.75,69.07-19.33,7.14,2.75-69.07-18.94,6.99.49-12.25,57.3-21.16Z"/>
    </g>
    <g>
      <path class="cls-1" d="M40.9,241.1l-1.48,37.19-19.42,7.17,1.47-36.87L1.88,212.02l20.78-7.67,12.81,25.08,15.31-35.46,13.24-4.89-23.11,52.02Z"/>
      <path class="cls-1" d="M132.55,201.49l-.19,4.77c-1.02,25.59-18.19,45.61-36.94,52.53-18.75,6.92-34.82-.82-33.8-26.41l.19-4.77c1.04-26.24,18.28-45.32,36.93-52.21,18.65-6.89,34.85-.16,33.81,26.08ZM81.45,219.82l-.26,6.51c-.76,19.08,4.76,23.88,14.72,20.21,9.86-3.64,16.03-12.76,16.79-31.84l.26-6.51c.79-19.74-4.84-24.28-14.7-20.64-9.95,3.68-16.02,12.54-16.8,32.27Z"/>
      <path class="cls-1" d="M205.09,136.98l-2.22,55.74c-.64,16.05-12.08,30.85-31.89,38.17-19.71,7.28-30.4.65-29.76-15.4l2.22-55.74,19.52-7.21-2.19,55.08c-.39,9.87,2.49,14.04,10.7,11.01,8.41-3.1,11.52-9.49,11.91-19.36l2.19-55.08,19.52-7.21Z"/>
      <path class="cls-1" d="M246.74,121.6c17.2-6.35,29.43-4.88,28.76,11.81-.34,8.57-4.67,16.9-15.52,23.9,10.82-1.65,14.95,2.39,14.46,14.64l-.79,19.84-19.52,7.21.79-19.84c.58-14.53-5.51-12.28-12.37-9.64l-7.54,2.78-1.36,34.27-19.42,7.17,3.24-81.33,29.28-10.81ZM256.43,141.21c.31-7.7-3.32-9.89-11.44-6.89l-8.6,3.18-.92,23.1,8.6-3.18c8.12-3,12.05-8.51,12.36-16.21Z"/>
      <path class="cls-1" d="M349.36,112.23c.11-12.33-4.13-15.89-11.86-13.04-9.57,3.53-15.1,13.27-15.84,31.92l-.26,6.51c-.74,18.54,3.99,24.17,13.94,20.49,8.41-3.1,14.01-9.87,15.5-25.92l17.1-6.32c-2.63,25.33-15.9,38.13-33.19,44.52-19.42,7.17-33.95-1.14-32.93-26.73l.19-4.77c1.04-26.24,17.31-44.96,35.86-51.81,17.1-6.32,29.93-3.25,30.41,18.15l-18.94,6.99Z"/>
      <path class="cls-1" d="M416.99,58.73l21.11,72.33-19.52,7.21-5.6-19.51-25.12,9.28-7.35,24.29-12.37,4.57,27.59-90.32,21.26-7.85ZM409.89,107.94l-7.78-26.94-10.19,33.57,17.97-6.64Z"/>
      <path class="cls-1" d="M477.87,36.25c17.2-6.35,29.43-4.88,28.76,11.82-.34,8.57-4.67,16.9-15.52,23.9,10.82-1.65,14.95,2.39,14.46,14.64l-.79,19.84-19.52,7.21.79-19.84c.58-14.53-5.51-12.28-12.37-9.64l-7.54,2.78-1.36,34.27-19.42,7.17,3.24-81.33,29.28-10.81ZM487.56,55.86c.31-7.7-3.32-9.89-11.44-6.89l-8.6,3.18-.92,23.1,8.6-3.18c8.12-3,12.05-8.51,12.36-16.21Z"/>
      <path class="cls-1" d="M570.83,1.93l-.49,12.25-19.04,7.03-2.75,69.07-19.33,7.14,2.75-69.07-18.94,6.99.49-12.25,57.3-21.16Z"/>
    </g>
  </g>
</svg>