<?xml version="1.0" encoding="UTF-8"?>
<svg id="Layer_2" data-name="Layer 2" xmlns="http://www.w3.org/2000/svg" viewBox="0 0 543.95 276.51">
  <defs>
    <style>
      .cls-1, .cls-2 {
        fill: #b12a1d;
      }

      .cls-2, .cls-3 {
        stroke: #b12a1d;
        stroke-miterlimit: 10;
        stroke-width: 2.64px;
      }

      .cls-3 {
        fill: #fff;
      }
    </style>
  </defs>
  <g id="Layer_1-2" data-name="Layer 1">
    <g>
      <path class="cls-1" d="M171.14,265.94l5.21-20.63c.98-3.78.76-4.86-2.89-3.75l.4-1.66,12.11-4.41c9.3-3.39,15.98-.03,13.22,12.06-2.89,12.63-11.13,18.56-20.43,21.95l-13.53,4.92.4-1.66c3.83-1.62,4.45-2.73,5.52-6.81ZM178.04,267.93l.67-.24c9.44-3.43,13.84-10.87,15.71-18.89,1.83-8.01-.09-14.52-9.39-11.14l-2.98,1.09-6.94,27.41c-.53,2.2.53,2.65,2.94,1.78Z"/>
      <path class="cls-1" d="M200.47,254.25c0-6.45,4.9-16.92,12.02-19.51,2.76-1,4.63-.39,5.07,1.4l.09-.03.8-3.1,4.01-1.46-4.67,17.9c-.27,1.03-.58,2.26-.58,3.01,0,.93.45,1.4,1.2,1.12,1.42-.52,2.67-3.42,4.05-7.22l1.38.08c-1.51,4.07-2.85,8.11-6.41,9.41-2.27.83-3.87-.06-3.74-2.51l-.18.02c-1.25,2.55-2.89,4.97-6.23,6.19-4.54,1.65-6.81-.9-6.81-5.31ZM205.19,252.35c-.27,4.06,1.02,5.73,3.16,4.95,2.89-1.05,5.25-5.78,6.05-8.84l2.36-9.05c.09-2.66-.98-4.36-3.38-3.49-4.72,1.72-7.83,10.77-8.19,16.42Z"/>
      <path class="cls-1" d="M228.42,245.32l3.12-11.28c.4-1.53,1.25-4.19.18-4.29-1.87-.17-3.65,4.18-4.99,7.47l-1.29-.15c1.2-3.02,3.16-8.63,7.17-9.6,2.8-.67,4.14.81,2.85,5.51l-3.12,11.28c-.4,1.53-1.25,4.19-.18,4.29,1.87.17,3.65-4.18,4.94-7.45l1.34.14c-1.2,3.02-3.16,8.63-7.17,9.6-2.8.66-4.14-.81-2.85-5.51ZM233.27,220.23c0-1.65,1.47-3.65,3.16-4.27,1.51-.55,2.54.15,2.54,1.66,0,1.78-1.6,3.7-3.16,4.27-1.51.55-2.54-.1-2.54-1.66Z"/>
      <path class="cls-1" d="M241.41,240.59l6.41-24.63c.58-2.21.04-2.33-1.74-1.82l-2.05.61.36-1.55c2.71-1.03,6.23-2.62,8.99-4.47l.27.17c-.49,1.29-1.25,3.44-1.6,4.86l-6.72,25.68c-.71,2.66-1.02,4.33,0,4.32,1.51-.06,3.16-3.69,4.67-7.04l1.29.15c-1.78,3.76-3.56,8.28-7.17,9.28-2.58.72-3.92-.93-2.71-5.55Z"/>
      <path class="cls-1" d="M250.44,248.34c-.09-2.5,1.56-4.35,3.16-4.89,1.38-.46,2.36.21,2.36,1.46-.04,1.22-.89,3.04-3.03,4.66.85,1.07,2.63,1.54,5.12.63,5.61-2.04,7.83-10.11,9.66-15.93l1.47-4.72h-.09c-2.18,4.83-5.03,9.34-8.59,10.64-4.09,1.49-5.3-1.54-4.01-5.75l3.25-10.66c.49-1.56,1.33-4.23.27-4.33-1.87-.17-3.69,4.19-5.07,7.5l-1.29-.15c1.25-3.03,3.29-8.68,7.25-9.63,2.8-.67,4.23.82,2.76,5.54l-2.58,8.28c-.49,1.51-1.02,3.31-1.02,4.56,0,1.16.4,1.86,1.74,1.55,3.34-.77,7.25-8.38,9.26-16.19l2-7.76,3.92-1.43-5.47,20.73c-2.18,8.18-5.3,16.35-13.49,19.33-4,1.46-7.43.03-7.57-3.43Z"/>
      <path class="cls-1" d="M286.18,228.88c3.34-1.44,4.5-2.62,5.43-6.52l5.03-20.66c.93-3.86.85-5.07-2.89-3.93l.4-1.66,25.01-9.1-2.09,9.4-1.38.5c.53-4.65.4-6.96-4.63-5.13l-8.77,3.19-3.16,12.99,5.07-1.85c2.63-.96,3.74-2.52,4.9-6.01l.49-1.56,1.34-.49-3.47,14.17-1.33.49.22-1.42c.53-3.31.04-4.24-2.58-3.29l-5.07,1.85-2.67,10.9c-.93,3.95-.09,4.35,3.65,3.21l-.4,1.66-13.49,4.91.4-1.66Z"/>
      <path class="cls-1" d="M318.53,212.52l3.12-11.28c.4-1.53,1.25-4.19.18-4.29-1.87-.17-3.65,4.18-4.98,7.47l-1.29-.15c1.2-3.02,3.16-8.63,7.17-9.6,2.8-.67,4.14.81,2.85,5.51l-3.12,11.28c-.4,1.53-1.25,4.19-.18,4.29,1.87.17,3.65-4.18,4.94-7.45l1.33.14c-1.2,3.02-3.16,8.63-7.17,9.6-2.8.66-4.14-.81-2.85-5.51ZM323.38,187.43c0-1.65,1.47-3.65,3.16-4.27,1.51-.55,2.54.15,2.54,1.66,0,1.78-1.6,3.7-3.16,4.27-1.51.55-2.54-.1-2.54-1.66Z"/>
      <path class="cls-1" d="M339.49,191.98h.13c1.69-2.53,3.74-4.88,6.68-5.95,4.76-1.73,7.3,1.62,5.61,8.91-1.78,7.68-7.03,14.53-12.51,16.53-3.56,1.3-7.3.57-8.28-1.57l7.03-26.82c.58-2.17.04-2.33-1.74-1.82l-2.05.61.36-1.55c2.71-1.03,6.23-2.62,8.99-4.47l.27.17c-.49,1.29-1.11,2.99-1.6,4.86l-2.89,11.11ZM339.32,210.16c3.96-1.35,6.54-7.19,7.88-12.44,1.42-5.68,1.38-10.34-2.4-8.96-3.38,1.23-5.7,5.77-6.85,9.08l-2.31,8.85c-.22,2.66,1.07,4.33,3.69,3.46Z"/>
      <path class="cls-1" d="M355.51,194.16c1.91-7.86,7.48-14.43,13.13-16.26,4.01-1.28,5.07.78,4.76,3.03-.49,3.47-4.27,8.45-13.57,12.51-.04.19,0,.09-.04.28-.93,5.41.93,7.36,3.78,6.5,2.58-.76,4.9-3.47,7.34-9.17l1.33-.04c-2.54,6.53-5.56,10.53-9.97,12.13-5.43,1.98-8.68-1.16-6.76-8.98ZM360.19,191.88c6.5-2.94,8.81-7.04,9.39-9.25.45-1.68.31-3.81-1.91-3-3.29,1.2-6.19,7.06-7.48,12.07l.04-.02-.04.19Z"/>
      <path class="cls-1" d="M380.92,179.71c.45-1.76,1.07-4.35-.09-4.29-1.56.08-3.12,3.67-4.58,7.01l-1.29-.15c1.33-2.89,3.38-8.31,6.9-9.19,2.54-.61,3.43,1.07,2.27,5.72l.22-.04c1.78-4.7,3.69-8.11,7.25-9.23,2.67-.84,3.96.61,3.74,2.91-.18,1.93-1.51,3.22-2.76,3.67-1.29.43-2.49-.03-2.45-1.51.04-.95.62-2.27,2.23-3.88-.31.02-.67.07-.98.18-1.33.44-2.63,1.71-3.6,3.36-2.67,4.58-4.85,12.27-5.79,15.64l-1.74,6.24-4.01,1.46,4.67-17.9Z"/>
    </g>
    <g>
      <path class="cls-2" d="M77.29,215.48l-.19,4.77c-1.02,25.59-18.19,45.61-36.94,52.53s-34.81-.82-33.8-26.41l.19-4.77c1.04-26.24,18.28-45.32,36.93-52.21s34.85-.16,33.81,26.08ZM26.2,233.81l-.26,6.51c-.76,19.08,4.76,23.88,14.71,20.21,9.86-3.64,16.03-12.76,16.79-31.84l.26-6.51c.79-19.74-4.84-24.28-14.7-20.64-9.95,3.68-16.02,12.54-16.8,32.27Z"/>
      <path class="cls-2" d="M112.25,164.86l21.75,46.78,2.21-55.63,12.47-4.6-3.24,81.33-20.78,7.67-24.38-52.43-2.48,62.35-12.47,4.6,3.24-81.33,23.67-8.74Z"/>
      <path class="cls-2" d="M211.97,128.03l-.49,12.25-31.02,11.45-.81,20.39,27.54-10.17-.49,12.36-27.54,10.17-.96,24.07,32.08-11.85-.49,12.25-51.51,19.02,3.24-81.33,50.44-18.63Z"/>
      <path class="cls-2" d="M285.31,129.47c.11-12.33-4.13-15.89-11.86-13.04-9.57,3.53-15.1,13.27-15.84,31.92l-.26,6.51c-.74,18.54,3.99,24.17,13.94,20.49,8.41-3.1,14.01-9.87,15.5-25.92l17.1-6.32c-2.63,25.33-15.9,38.13-33.19,44.52-19.42,7.17-33.95-1.14-32.93-26.73l.19-4.77c1.04-26.24,17.31-44.96,35.86-51.81,17.1-6.32,29.93-3.25,30.41,18.15l-18.94,6.99Z"/>
      <path class="cls-2" d="M334.29,82.86l-1.29,32.53,23-8.49,1.29-32.53,19.33-7.14-3.24,81.33-19.33,7.14,1.45-36.43-23,8.49-1.45,36.43-19.42,7.17,3.24-81.33,19.42-7.17Z"/>
      <path class="cls-2" d="M440.01,43.82l-.49,12.25-31.02,11.45-.81,20.39,27.54-10.17-.49,12.36-27.54,10.17-.96,24.07,32.08-11.85-.49,12.25-51.51,19.02,3.24-81.33,50.44-18.63Z"/>
      <path class="cls-2" d="M447.35,41.11l19.52-7.21,8.04,49.28,14.29-57.52,18.36-6.78,9.8,47.99,12.23-56.12,12.56-4.64-19.18,87.21-18.17,6.71-10.88-51.86-15.4,61.56-18.46,6.82-12.71-75.44Z"/>
    </g>
    <g>
      <path class="cls-3" d="M72.29,211.45l-.19,4.77c-1.02,25.59-18.19,45.61-36.94,52.53s-34.81-.82-33.8-26.41l.19-4.77c1.04-26.24,18.28-45.32,36.93-52.21s34.85-.16,33.81,26.08ZM21.2,229.78l-.26,6.51c-.76,19.08,4.76,23.88,14.71,20.21,9.86-3.64,16.03-12.76,16.79-31.84l.26-6.51c.79-19.74-4.84-24.28-14.7-20.64-9.95,3.68-16.02,12.54-16.8,32.27Z"/>
      <path class="cls-3" d="M107.25,160.83l21.75,46.78,2.21-55.63,12.47-4.6-3.24,81.33-20.78,7.67-24.38-52.43-2.48,62.35-12.47,4.6,3.24-81.33,23.67-8.74Z"/>
      <path class="cls-3" d="M206.97,124l-.49,12.25-31.02,11.45-.81,20.39,27.54-10.17-.49,12.36-27.54,10.17-.96,24.07,32.08-11.85-.49,12.25-51.51,19.02,3.24-81.33,50.44-18.63Z"/>
      <path class="cls-3" d="M280.31,125.44c.11-12.33-4.13-15.89-11.86-13.04-9.57,3.53-15.1,13.27-15.84,31.92l-.26,6.51c-.74,18.54,3.99,24.17,13.94,20.49,8.41-3.1,14.01-9.87,15.5-25.92l17.1-6.32c-2.63,25.33-15.9,38.13-33.19,44.52-19.42,7.17-33.95-1.14-32.93-26.73l.19-4.77c1.04-26.24,17.31-44.96,35.86-51.81,17.1-6.32,29.93-3.25,30.41,18.15l-18.94,6.99Z"/>
      <path class="cls-3" d="M329.29,78.83l-1.29,32.53,23-8.49,1.29-32.53,19.33-7.14-3.24,81.33-19.33,7.14,1.45-36.43-23,8.49-1.45,36.43-19.42,7.17,3.24-81.33,19.42-7.17Z"/>
      <path class="cls-3" d="M435.01,39.79l-.49,12.25-31.02,11.45-.81,20.39,27.54-10.17-.49,12.36-27.54,10.17-.96,24.07,32.08-11.85-.49,12.25-51.51,19.02,3.24-81.33,50.44-18.63Z"/>
      <path class="cls-3" d="M442.35,37.08l19.52-7.21,8.04,49.28,14.29-57.52,18.36-6.78,9.8,47.99,12.23-56.12,12.56-4.64-19.18,87.21-18.17,6.71-10.88-51.86-15.4,61.56-18.46,6.82-12.71-75.44Z"/>
    </g>
  </g>
</svg>