<?xml version="1.0" encoding="UTF-8"?>
<svg id="Layer_2" data-name="Layer 2" xmlns="http://www.w3.org/2000/svg" viewBox="0 0 953.67 62.24">
  <defs>
    <style>
      .cls-1 {
        fill: #fff;
      }
    </style>
  </defs>
  <g id="Layer_1-2" data-name="Layer 1">
    <rect x="0" y="0" width="953.67" height="62.24" rx="31.12" ry="31.12" fill="#B12A1D"/>
    <g>
      <path class="cls-1" d="M56.83,23.18c0,2.47,1.79,3.32,6.9,4.55,8.43,2.13,11.66,4.51,11.66,10.56,0,5.45-4.43,9.45-11.96,9.45s-13.2-3.75-13.54-11.41h6.77c.3,5.19,2.85,6.98,6.94,6.98,3.41,0,5.49-1.4,5.49-4.17s-1.58-3.79-7.41-5.24c-6.73-1.75-10.81-4.17-10.81-9.79s4.64-9.15,10.98-9.15c7.11,0,11.88,3.06,12.43,10.3h-6.43c-.43-4.47-2.68-5.87-5.87-5.87-2.94,0-5.15.98-5.15,3.79Z"/>
      <path class="cls-1" d="M105.78,15.35v21.67c0,6.26-4.68,10.73-12.94,10.73s-12.98-4.47-12.98-10.73V15.35h7.02v21.41c0,4.3,1.87,6.51,5.96,6.51s5.92-2.21,5.92-6.51V15.35h7.02Z"/>
      <path class="cls-1" d="M124.47,15.35c7.15,0,12.26,2.85,12.26,9.62s-4.3,9.49-12.26,9.49h-5.58v12.81h-6.98V15.35h12.56ZM129.79,24.93c0-3.36-1.92-5.11-5.87-5.11h-5.02v10.22h5.02c3.96,0,5.87-1.75,5.87-5.11Z"/>
      <path class="cls-1" d="M153.76,15.35c7.15,0,12.26,2.85,12.26,9.62s-4.3,9.49-12.26,9.49h-5.58v12.81h-6.98V15.35h12.56ZM159.08,24.93c0-3.36-1.92-5.11-5.87-5.11h-5.02v10.22h5.02c3.96,0,5.87-1.75,5.87-5.11Z"/>
      <path class="cls-1" d="M199.05,30.33v1.96c0,9.71-6.9,15.45-14.98,15.45s-15.03-5.75-15.03-15.45v-1.96c0-9.96,6.94-15.37,15.03-15.37s14.98,5.41,14.98,15.37ZM176.15,30.25v2.38c0,7.66,3.32,10.64,7.92,10.64s7.92-2.98,7.92-10.64v-2.38c0-7.92-3.36-10.81-7.92-10.81s-7.92,2.89-7.92,10.81Z"/>
      <path class="cls-1" d="M216.25,15.35c6.81,0,12,2.3,12,8.85,0,3.32-1.83,5.96-6,7.15,4.26.98,6.22,3.19,6.22,8.05v7.88h-6.98v-7.79c0-5.83-2.85-6-6.26-6h-4.34v13.79h-6.98V15.35h12.34ZM221.36,24.46c0-3.15-1.75-4.64-5.66-4.64h-4.81v9.45h4.81c3.92,0,5.66-1.66,5.66-4.81Z"/>
      <path class="cls-1" d="M256.48,15.35v4.47h-8.68v27.46h-6.98v-27.46h-8.68v-4.47h24.35Z"/>
      <path class="cls-1" d="M265.59,23.18c0,2.47,1.79,3.32,6.9,4.55,8.43,2.13,11.66,4.51,11.66,10.56,0,5.45-4.43,9.45-11.96,9.45s-13.2-3.75-13.54-11.41h6.77c.3,5.19,2.85,6.98,6.94,6.98,3.41,0,5.49-1.4,5.49-4.17s-1.58-3.79-7.41-5.24c-6.73-1.75-10.81-4.17-10.81-9.79s4.64-9.15,10.98-9.15c7.11,0,11.88,3.06,12.43,10.3h-6.43c-.43-4.47-2.68-5.87-5.87-5.87-2.94,0-5.15.98-5.15,3.79Z"/>
      <path class="cls-1" d="M324.25,30.21v17.07h-4.26l-1.02-3.49c-1.79,2.72-4.73,3.96-8.77,3.96-7.79,0-14.13-5.75-14.13-15.45v-1.96c0-9.96,6.56-15.37,14.6-15.37,7.02,0,12.77,3.06,13.32,11.32h-6.98c-.3-5.28-2.89-6.85-6.34-6.85-4.51,0-7.49,3.15-7.49,10.81v2.38c0,7.53,3.02,10.64,7.87,10.64,3.83,0,6.43-1.96,6.43-6.51v-2.13h-6.43v-4.43h13.2Z"/>
      <path class="cls-1" d="M356.09,15.35v21.67c0,6.26-4.68,10.73-12.94,10.73s-12.98-4.47-12.98-10.73V15.35h7.02v21.41c0,4.3,1.87,6.51,5.96,6.51s5.92-2.21,5.92-6.51V15.35h7.02Z"/>
      <path class="cls-1" d="M384.57,15.35v4.47h-8.68v27.46h-6.98v-27.46h-8.68v-4.47h24.35Z"/>
      <path class="cls-1" d="M413.81,15.35l10.68,31.93h-7.07l-2.94-8.94h-11.54l-2.98,8.94h-4.98l10.68-31.93h8.13ZM413,33.91l-4.3-13.03-4.3,13.03h8.6Z"/>
      <path class="cls-1" d="M437.14,15.35l11.66,23.03V15.35h5.07v31.93h-7.66l-12.94-25.54v25.54h-5.07V15.35h8.94Z"/>
      <path class="cls-1" d="M470.77,15.35c10.26,0,16.52,5.53,16.52,14.98v1.96c0,9.24-6.22,14.98-16.52,14.98h-10.6V15.35h10.6ZM467.15,19.82v22.99h3.24c5.75,0,9.79-2.34,9.79-10.17v-2.38c0-8.09-4.04-10.43-9.79-10.43h-3.24Z"/>
      <path class="cls-1" d="M511.42,15.35c10.26,0,16.52,5.53,16.52,14.98v1.96c0,9.24-6.22,14.98-16.52,14.98h-10.6V15.35h10.6ZM507.8,19.82v22.99h3.24c5.75,0,9.79-2.34,9.79-10.17v-2.38c0-8.09-4.04-10.43-9.79-10.43h-3.24Z"/>
      <path class="cls-1" d="M539.9,15.35v31.93h-6.98V15.35h6.98Z"/>
      <path class="cls-1" d="M573.11,30.21v17.07h-4.26l-1.02-3.49c-1.79,2.72-4.73,3.96-8.77,3.96-7.79,0-14.13-5.75-14.13-15.45v-1.96c0-9.96,6.56-15.37,14.6-15.37,7.02,0,12.77,3.06,13.32,11.32h-6.98c-.3-5.28-2.89-6.85-6.34-6.85-4.51,0-7.49,3.15-7.49,10.81v2.38c0,7.53,3.02,10.64,7.87,10.64,3.83,0,6.43-1.96,6.43-6.51v-2.13h-6.43v-4.43h13.2Z"/>
      <path class="cls-1" d="M600.78,15.35v4.47h-14.6v8.6h13.2v4.43h-13.2v9.96h15.07v4.47h-22.05V15.35h21.58Z"/>
      <path class="cls-1" d="M611.67,23.18c0,2.47,1.79,3.32,6.9,4.55,8.43,2.13,11.66,4.51,11.66,10.56,0,5.45-4.43,9.45-11.96,9.45s-13.2-3.75-13.54-11.41h6.77c.3,5.19,2.85,6.98,6.94,6.98,3.41,0,5.49-1.4,5.49-4.17s-1.58-3.79-7.41-5.24c-6.73-1.75-10.81-4.17-10.81-9.79s4.64-9.15,10.98-9.15c7.11,0,11.88,3.06,12.43,10.3h-6.43c-.43-4.47-2.68-5.87-5.87-5.87-2.94,0-5.15.98-5.15,3.79Z"/>
      <path class="cls-1" d="M657.22,15.35v4.47h-8.68v27.46h-6.98v-27.46h-8.68v-4.47h24.35Z"/>
      <path class="cls-1" d="M668.67,15.35v31.93h-6.98V15.35h6.98Z"/>
      <path class="cls-1" d="M672.55,15.35h7.11l8.39,25.58,8.39-25.58h5.07l-10.56,31.93h-7.83l-10.56-31.93Z"/>
      <path class="cls-1" d="M726.74,15.35v4.47h-14.6v8.6h13.2v4.43h-13.2v9.96h15.07v4.47h-22.05V15.35h21.58Z"/>
      <path class="cls-1" d="M748.53,15.35v12.94h11.88v-12.94h6.98v31.93h-6.98v-14.52h-11.88v14.52h-6.98V15.35h6.98Z"/>
      <path class="cls-1" d="M795.27,15.35v4.47h-14.6v8.6h13.2v4.43h-13.2v9.96h15.07v4.47h-22.05V15.35h21.58Z"/>
      <path class="cls-1" d="M817.58,15.35l10.68,31.93h-7.07l-2.94-8.94h-11.54l-2.98,8.94h-4.98l10.68-31.93h8.13ZM816.77,33.91l-4.3-13.03-4.3,13.03h8.6Z"/>
      <path class="cls-1" d="M838.95,15.35v27.46h13.79v4.47h-20.77V15.35h6.98Z"/>
      <path class="cls-1" d="M880.24,15.35v4.47h-8.68v27.46h-6.98v-27.46h-8.68v-4.47h24.35Z"/>
      <path class="cls-1" d="M891.52,15.35v12.94h11.88v-12.94h6.98v31.93h-6.98v-14.52h-11.88v14.52h-6.98V15.35h6.98Z"/>
    </g>
    <circle class="cls-1" cx="29.54" cy="31.12" r="4.59"/>
    <circle class="cls-1" cx="924.14" cy="31.12" r="4.59"/>
  </g>
</svg>