<?xml version="1.0" encoding="UTF-8"?>
<svg id="Layer_2" data-name="Layer 2" xmlns="http://www.w3.org/2000/svg" viewBox="0 0 233.97 375.89">
  <defs>
    <style>
      .cls-1 {
        fill: #6c4626;
      }
    </style>
  </defs>
  <g id="Layer_1-2" data-name="Layer 1">
    <path class="cls-1" d="M231.28,2.63c-3.43,4.7-6.28,9.45-8.79,14.75-7.84,16.53-13.95,33.94-20.87,50.56-1.77,4.26-5.88,8.86-7.39,13.61l5.84-2.09,2.84,3.34-44.63,57.13,11.19-7.25c18.58-23.52,36.83-46.24,60.63-64.72l3.88,5.23c-14.44,9-23.67,24.72-34.97,37.42-13.55,15.22-27.94,28.23-39.49,45.1-1.43,2.09-1.25,2.73,1.2.95,7.85-5.7,15.45-11.78,23.09-17.75,2.67-1.48,5.12-1.15,7.64.58.69,1.96-9.07,6.09-11.09,7.54-5.35,3.85-22.54,17.42-25.06,22.37-1.97,3.88-2.4,10.18-5.83,14.07l3.15,4.38c-1.11,3.51-1.75,2.53-4.48,1.04-2.17.62-1.1,19.91-7.13,19.48l9.73,10.8-5.53,14.98c-31.62,44.38-68.16,86.11-92.15,135.34-2.56,2.81-7.21,1.08-7.63-2.57-.52-4.49,2.59-22.16,4.29-26.62,1.76-4.61,6.49-15.64,11.02-9.34-2.84,5.65-5.38,12.14-6.55,18.38-.31,1.64-1.52,3.33.32,4.71,3.9-9.15,9.16-17.78,14.63-26.09,10.81-16.45,22.64-32.66,33.82-48.94,1.64-2.39,3.9-4.26,5.76-6.45-1.96-2.04-3.21-1.89-2.43-5.22,6.37-1.28,7.43.38,10.91-6.34l-5.71-6.95c-11-2.25-5.56-7.64,1.8-4.97l8.38,6.93c9.21-12.02,17.7-22.89,22.21-37.64-5.12-.49-8.26-6.5-11.07-8.05-2.68-1.47-8.38-1.09-11.47-3.04l-8.09,7.62c12.14,15.25,6.73,12.49-2.73,23.33-26.16,29.97-41.9,72.64-66.83,105.62-8.93,11.81-20.69,20.45-29.76,32.03l-8.44-3c4.71-3.09,3.72-8.94,5.57-13.68,3.5-8.95,8.47-18.52,12.42-27.36-5.91,1.8-7.17,8.7-13.49,10.91-2.43.85-7.11.97-9.63-.05-2.03-1.5,5.86-18.2,7-20.93,13.5-32.26,27.83-64.73,39.66-97.33,5.81-16.01,7.61-27.53,16.41-43.25,1.45-2.59-.04-5.48,3.92-7.24,5.77-2.56,17.85,5.95,20.79,4.54l19.91-24.66,4.34-2.05c1.32-10.21,4.09-19.34,5.11-29.73,1.22-12.43-.03-25.13,1.4-37.55l4.75,2.33c.42,12.88-.07,25.78-.05,38.65,0,1.8-.07,3.04,2.05,1.98,2.87-1.94,6.64-16.21,7.42-20.01.34-1.69-.5-5.12.03-5.95.61-.97,3.33-.72,4.31-1.93.9-1.12,1.54-7.5,2.76-10.27,5.11-11.6,12.13-23.94,19.6-33.77l3.44,1.15c-7.45,14.54-16.39,27.84-21.54,43.53-1.9,5.8-1.21,12.86.85,18.57,2.54-4.79,3.35-10.39,5.21-15.39,1.19-3.21,2.85-8.08,4.03-10.91,1.89-4.52,15.62-29.11,18.81-30.84l5.28,1.39c-10.25,19.54-15.8,40.69-21.23,61.86-.33,1.28-1.69,3.42,0,3.92,13.47-14.3,15.82-34.49,24.94-51.17,3.87-7.07,8.02-13.77,11.92-20.6,11.01-19.3,23.78-37.63,34.58-57.07l5.25,2.63ZM178.9,93.61c4.95-4.5,6.5-9.64,9.69-15,.54-.91,2.41-1.5,3.22-2.97,1.16-2.11,6.74-15.72,5.1-16.49-6.31,9.76-12.36,19.63-17.2,30.27-.59,1.3-2.76,3.52-.8,4.19ZM183.63,99.96c-5.67-2.31-6.49,7.75-10.54,10.51,4.83-.82,6.71-7.64,10.54-10.51ZM142.44,139.88l9.47-23.06,1.7-12.19c-4.64,8.28-7.72,17.43-10.14,26.58-.55,2.07-2.26,6.91-1.02,8.66ZM129.3,131.95l-10.32,20.52c-1.92,3.83-14.37,14.51-18.22,19.18-2.52,3.05-5.17,6.11-6.88,9.73l14.2,8.47c-2.57,4.28-1.75,9.66-6.34,12.61,2.92,2.13,2.08.06,3.41-1.48,3.65-4.23,23.04-34.49,23.1-38.17.03-1.57-1.68-2.16-1.42-5.03.64-7.2,5.03-14.01,4.17-23.29-.13-1.44.98-1.8-1.7-2.54ZM118.75,200.9c5.61-1.64,15.23,7.57,18.04,2.74l12.99-54.78c-1.91-.43-5,3-6.01,4.32-13.02,16.82-23.04,36.07-35.98,52.97,1.48,5.76,6.95-4.08,10.96-5.25ZM98.07,200.23c.1-3.17.78-5.1,1.66-8.06l-.8-1.48c-4.52-4.62-10.44-2.76-12.42-3.79-1.42-.73-1.56-3.15-3.14-4.09-1.54-.91-9.89-3.37-11.38-2.68-6.31,8.06-10.85,19.73-14.61,29.56-13.47,35.28-25.45,71.2-40.39,106.33-3.11,7.3-7.72,14.29-10.91,21.59,2.05,1.45,1.65.98,3.02-.14,3.5-2.86,6.14-7.97,10.71-10.11l5.01,1.87c-.48-4.56,3.34-6.43,4.59-9.4,3.51-8.38,5.22-20.61,9.19-28.51,2.87-5.71,7.2-10.66,10.02-17.33,10.22-24.18,10.55-46.27,29.33-68.01.7-.82,1.36-1.69,2.28-2.27l4.12,1.89-9.5,13.67c8.89,1.59,14.25,1.4,20.51,9.02-3.46,6.73-3.78,1.29-6.92-.79-6.43-4.23-11.15-3.91-17.57-.35l-5.02,10.01c.4,1.49,18.82.24,21.28,7.44.96,2.82-.5,9.43-3.77,5.68-1.33-1.53-.44-3.34-.96-4.08-3.6-5.1-13.18-2.59-18.16-5.88-2.55,8.93-4.29,19.9-7.73,28.43s-9.51,17.44-13.19,26.29c-8.76,21.06-16.62,42.57-25.46,63.69-.53,1.26-3.12,4.25-.28,4.47,1.34.1,17.63-16.29,19.42-18.47,5.06-6.19,9.51-16.06,14.21-23.12,6.12-9.19,14.33-16.63,17.64-27.55l-12.88-5.81c4.09-3.43,9.93-1.19,13.74,1.66,6.93-4,9.3-10.75,3.77-17.14-3.4-3.93-6.09-2.34-9.55-5.57,8.12-3.37,11.64-.62,17.1,5.29,2.9-6.6,6.91-15.25,10.91-21.39,5.81-8.94,16.4-17.92,22.69-26.86-5.04-3.77-7.68-13.04-12.74-16.15-3.43-2.11-11.35-.42-15.33-2.72-2.89-6.94,7.41-2.81,11.22-2.91,3.55-.09.28-1.88.29-2.2Z"/>
  </g>
</svg>