<svg id="_01fd4a0" xmlns="http://www.w3.org/2000/svg" viewBox="0 0 522.831 430.008" width="522.8240785449863" height="430" style="flex-shrink: 0">
  <g id="_01fd4a1">
    <g>
      <g>
        <path d="M48.014 376.97l7.532-29.845c1.418-5.475 1.09-7.034-4.183-5.431l0.576-2.4 17.52-6.37c13.461-4.899 23.121-0.044 19.124 17.443-4.183 18.258-16.102 26.842-29.554 31.742l-19.576 7.122 0.576-2.401c5.539-2.339 6.443-3.951 7.985-9.86ZM58.001 379.841l0.966-0.355c13.656-4.97 20.028-15.716 22.73-27.329 2.641-11.579-0.133-21.004-13.585-16.106l-4.315 1.568-10.05 39.644c-0.771 3.18 0.771 3.836 4.254 2.578Z" fill="#D27400" />
        <path d="M91.348 354.442c2.765-11.375 10.82-20.871 19-23.52 5.796-1.851 7.338 1.125 6.894 4.385-0.709 5.023-6.186 12.225-19.638 18.09-0.062 0.283 0 0.133-0.062 0.408-1.356 7.831 1.356 10.648 5.477 9.399 3.731-1.098 7.081-5.023 10.625-13.262l1.932-0.062c-3.669 9.444-8.047 15.228-14.427 17.549-7.86 2.861-12.557-1.674-9.783-12.987ZM98.11 351.147c9.402-4.261 12.752-10.179 13.585-13.377 0.647-2.427 0.452-5.51-2.765-4.332-4.768 1.736-8.95 10.205-10.82 17.452l0.062-0.027-0.062 0.284Z" fill="#D27400" />
        <path d="M118.651 353.078c-0.195-3.402 1.808-5.679 3.731-6.449 1.799-0.718 3.545-0.062 3.545 2.188 0 1.674-1.223 3.854-4.121 5.555 1.285 1.851 3.926 1.922 6.505 1.045 3.545-1.161 7.019-4.297 7.018-7.831s-3.155-4.199-6.309-5.103c-2.898-0.815-5.858-1.922-6.248-6.166-0.452-4.988 4.121-11.481 10.944-13.899 7.151-2.534 9.083 1.462 9.27 3.774 0.257 2.994-1.613 5.156-3.412 5.944-1.737 0.762-3.474 0.301-3.474-1.825-0.062-1.462 1.028-3.597 3.607-5.563-1.285-1.267-3.217-1.276-5.92-0.231-3.288 1.258-5.991 4.819-5.928 7.761 0.062 2.613 2.446 3.039 4.954 3.862 3.217 1.019 7.338 1.577 7.532 6.786 0.257 6.733-5.734 12.261-11.529 14.431-4.954 1.869-9.854 1.01-10.174-4.279Z" fill="#D27400" />
        <path d="M146.017 334.554c2.774-11.375 10.82-20.871 18.999-23.52 5.796-1.851 7.338 1.125 6.895 4.385-0.709 5.023-6.186 12.225-19.638 18.09-0.062 0.283 0 0.133-0.062 0.407-1.356 7.831 1.356 10.648 5.477 9.4 3.731-1.098 7.081-5.023 10.625-13.262l1.932-0.062c-3.669 9.452-8.047 15.228-14.427 17.549-7.86 2.861-12.557-1.674-9.793-12.987ZM152.778 331.259c9.402-4.261 12.752-10.179 13.585-13.377 0.647-2.418 0.452-5.51-2.773-4.332-4.768 1.736-8.95 10.205-10.821 17.452l0.062-0.027-0.062 0.284Z" fill="#D27400" />
        <path d="M182.784 313.647c0.647-2.551 1.542-6.29-0.133-6.201-2.251 0.115-4.511 5.306-6.637 10.144l-1.87-0.222c1.932-4.181 4.892-12.021 9.978-13.288 3.669-0.886 4.963 1.541 3.288 8.265l0.319-0.053c2.579-6.795 5.344-11.729 10.493-13.35 3.864-1.214 5.734 0.877 5.405 4.217-0.257 2.799-2.189 4.66-3.996 5.315-1.87 0.62-3.607-0.035-3.545-2.188 0.062-1.373 0.904-3.287 3.217-5.617-0.452 0.035-0.966 0.097-1.418 0.257-1.932 0.638-3.802 2.48-5.22 4.855-3.864 6.618-7.019 17.744-8.374 22.616l-2.508 9.028-5.796 2.108 6.762-25.894Z" fill="#D27400" />
        <path d="M207.642 319.539c0-5.537 3.545-13.067 8.826-21.235l-0.195-0.248c-2.446 2.179-5.858 3.482-8.241 3.189l-2.508 7.867-1.87 0.035 3.864-12.925 1.356-0.487c4.378 0.337 8.374-0.47 12.752-5.28l1.028 0.78c-4.121 6.325-9.269 18.178-9.341 24.317-0.062 4.27 2.322 5.528 5.539 4.359 4.511-1.639 10.82-8.442 12.619-20.305-3.155-2.454-4.697-4.217-4.767-6.697-0.133-2.977 1.799-4.908 3.606-5.564 3.031-1.098 3.545 2.055 3.669 4.784 0.647 12.518-6.372 29.296-17.068 33.185-4.892 1.781-9.269 0.345-9.269-5.767Z" fill="#D27400" />
        <path d="M237.834 301.148c2.765-11.375 10.82-20.871 19-23.521 5.796-1.851 7.338 1.125 6.894 4.385-0.709 5.023-6.186 12.225-19.638 18.09-0.062 0.283 0 0.133-0.062 0.408-1.356 7.831 1.356 10.648 5.477 9.399 3.731-1.098 7.081-5.023 10.625-13.262l1.932-0.062c-3.669 9.452-8.047 15.228-14.427 17.55-7.86 2.861-12.557-1.674-9.792-12.987ZM244.596 297.852c9.402-4.261 12.752-10.179 13.585-13.377 0.647-2.427 0.452-5.51-2.765-4.332-4.768 1.736-8.95 10.205-10.82 17.452l0.062-0.026-0.062 0.283Z" fill="#D27400" />
        <path d="M266.617 295.823c0-9.399 6.895-24.264 16.935-27.923 3.926-1.426 6.248-0.408 7.471 1.985l0.133-0.045 3.73-14.617c0.833-3.198 0.062-3.375-2.507-2.631l-2.96 0.886 0.514-2.25c3.926-1.497 9.012-3.792 13.009-6.467l0.39 0.248c-0.709 1.869-1.799 4.97-2.322 7.025l-9.659 37.119c-0.39 1.497-0.904 3.287-0.904 4.58 0 1.355 0.576 1.914 1.613 1.541 2.189-0.797 3.926-4.775 6.052-10.639l1.994 0.177c-2.127 5.794-4.121 11.8-9.464 13.749-3.155 1.152-5.601 0.239-5.22-3.765l-0.257 0.035c-1.87 3.641-4.511 7.309-9.083 8.965-6.186 2.25-9.464-1.515-9.465-7.955ZM286.459 287.771l3.474-13.368c0.062-3.437-2.065-5.882-5.477-4.642-6.443 2.348-11.396 15.352-11.529 24.025-0.062 4.793 1.542 7.681 5.024 6.414 4.316-1.568 7.408-8.168 8.499-12.429Z" fill="#D27400" />
        <path d="M322.385 277.149l7.408-29.801c1.356-5.581 1.09-7.291-4.183-5.688l0.576-2.143 18.158-6.609c7.79-2.835 15.393-2.835 13.071 7.149-1.356 5.9-7.019 10.347-12.362 13.058 5.929-1.444 11.529 1.533 9.598 9.833-1.994 8.575-9.269 14.963-19.709 18.754l-21.118 7.681 0.514-2.117c5.539-2.339 6.629-4.412 8.047-10.144ZM334.428 279.39c6.31-2.294 11.724-7.548 13.461-15.193 1.799-7.672-1.418-10.365-7.86-8.017l-7.471 2.72-4.697 19.091c-1.09 4.323 3.607 2.489 6.567 1.408ZM351.301 241.005c1.09-4.651-0.576-7.902-6.824-5.625l-6.699 2.436-4.573 18.337 6.894-2.507c6.957-2.534 10.173-8.079 11.202-12.641Z" fill="#D27400" />
        <path d="M359.79 256.774c2.774-11.375 10.82-20.871 19-23.521 5.796-1.851 7.338 1.125 6.895 4.386-0.709 5.023-6.186 12.225-19.638 18.089-0.062 0.283 0 0.133-0.062 0.408-1.356 7.831 1.356 10.648 5.476 9.399 3.731-1.098 7.081-5.023 10.626-13.262l1.932-0.062c-3.669 9.444-8.047 15.228-14.427 17.541-7.86 2.861-12.557-1.674-9.793-12.987ZM366.552 253.478c9.402-4.261 12.752-10.179 13.585-13.377 0.647-2.427 0.452-5.51-2.774-4.341-4.768 1.736-8.95 10.205-10.82 17.452l0.062-0.026-0.062 0.283Z" fill="#D27400" />
        <path d="M389.93 253.15l6.052-22.997-6.637 2.409 0.709-2.772 6.566-2.392 2.641-10.365 5.858-2.135-2.641 10.365 8.046-2.933-0.771 2.791-7.922 2.879-5.858 22.351c-0.904 3.544-1.418 6.378 0.514 6.511 3.474 0.283 5.991-6.75 7.471-10.825l1.994 0.177c-2.384 6.467-4.183 12.083-10.431 14.032-3.412 1.045-7.408-0.133-5.6-7.105Z" fill="#D27400" />
        <path d="M412.208 245.045l6.053-22.998-6.638 2.41 0.709-2.773 6.567-2.392 2.641-10.365 5.857-2.135-2.641 10.365 8.047-2.932-0.771 2.79-7.922 2.879-5.858 22.351c-0.904 3.552-1.418 6.378 0.514 6.511 3.474 0.283 5.991-6.75 7.47-10.834l1.994 0.177c-2.384 6.467-4.183 12.083-10.43 14.033-3.412 1.045-7.408-0.133-5.601-7.105Z" fill="#D27400" />
        <path d="M433.459 229.967c2.774-11.375 10.82-20.871 19-23.52 5.796-1.851 7.338 1.125 6.894 4.385-0.709 5.023-6.186 12.225-19.638 18.089-0.062 0.283 0 0.133-0.062 0.408-1.356 7.831 1.356 10.648 5.477 9.399 3.731-1.098 7.081-5.023 10.625-13.262l1.932-0.062c-3.669 9.444-8.047 15.228-14.427 17.55-7.86 2.861-12.557-1.674-9.792-12.987ZM440.22 226.671c9.402-4.261 12.752-10.179 13.586-13.377 0.647-2.427 0.452-5.51-2.774-4.332-4.768 1.736-8.95 10.205-10.82 17.452l0.062-0.026-0.062 0.283Z" fill="#D27400" />
        <path d="M470.227 209.06c0.647-2.551 1.542-6.29-0.133-6.201-2.251 0.115-4.511 5.306-6.638 10.143l-1.87-0.221c1.932-4.181 4.892-12.021 9.979-13.289 3.669-0.886 4.963 1.541 3.287 8.266l0.319-0.054c2.579-6.795 5.344-11.729 10.493-13.35 3.864-1.214 5.734 0.877 5.406 4.208-0.257 2.799-2.189 4.66-3.997 5.315-1.87 0.62-3.607-0.035-3.545-2.188 0.062-1.373 0.904-3.287 3.217-5.616-0.452 0.035-0.966 0.097-1.418 0.257-1.932 0.638-3.802 2.48-5.22 4.854-3.864 6.618-7.019 17.753-8.374 22.617l-2.508 9.027-5.796 2.109 6.762-25.895Z" fill="#D27400" />
      </g>
      <g>
        <path d="M137.279 177.407l-0.709 17.727-43.201 15.946-1.285 32.148 38.309-14.138-0.709 17.877-38.309 14.139-1.985 49.875-28.101 10.374 4.688-117.628 71.311-26.32Z" fill="#D27400" stroke="#D27400" stroke-width="4.31" stroke-miterlimit="10" />
        <path d="M180.755 161.355l-4.688 117.628-27.968 10.32 4.688-117.627 27.968-10.321Z" fill="#D27400" stroke="#D27400" stroke-width="4.31" stroke-miterlimit="10" />
        <path d="M238.915 139.881c28.659-10.577 42.413-6.538 41.544 15.264-0.514 12.863-7.949 23.184-19.85 31.431 14.117-1.657 23.298 3.145 22.66 18.985-0.815 20.544-13.257 38.74-46.95 51.177l-41.11 15.175 4.688-117.627 39.009-14.396ZM254.928 215.261c0.487-12.234-5.468-14.83-19.451-9.665l-10.067 3.721-1.374 34.505 10.067-3.721c14.126-5.218 20.338-12.606 20.825-24.84ZM252.013 167.352c0.434-10.826-5.131-12.943-15.623-9.071l-9.084 3.357-1.214 30.431 9.083-3.358c10.484-3.871 16.403-10.533 16.829-21.359Z" fill="#D27400" stroke="#D27400" stroke-width="4.31" stroke-miterlimit="10" />
        <path d="M372.995 90.387l-0.709 17.726-44.886 16.566-1.178 29.483 39.851-14.706-0.708 17.877-39.852 14.706-1.383 34.824 46.419-17.133-0.709 17.726-74.519 27.507 4.688-117.628 72.986-26.939Z" fill="#D27400" stroke="#D27400" stroke-width="4.31" stroke-miterlimit="10" />
        <path d="M433.53 68.045c24.884-9.187 42.572-7.06 41.615 17.088-0.496 12.394-6.762 24.442-22.456 34.568 15.659-2.383 21.632 3.446 20.923 21.172l-1.143 28.703-28.243 10.427 1.143-28.703c0.833-21.013-7.976-17.762-17.91-13.944l-10.909 4.022-1.976 49.566-28.101 10.373 4.688-117.627 42.369-15.636ZM447.558 96.402c0.443-11.136-4.803-14.298-16.545-9.966l-12.442 4.597-1.329 33.407 12.442-4.598c11.742-4.332 17.431-12.305 17.874-23.44Z" fill="#D27400" stroke="#D27400" stroke-width="4.31" stroke-miterlimit="10" />
      </g>
      <g>
        <path d="M131.492 171.622l-0.709 17.727-43.201 15.946-1.285 32.149 38.309-14.139-0.708 17.877-38.31 14.139-1.985 49.875-28.101 10.374 4.688-117.628 71.311-26.32Z" fill="#FFFFFF" stroke="#D27400" stroke-width="4.31" stroke-miterlimit="10" />
        <path d="M174.968 155.57l-4.688 117.628-27.968 10.32 4.688-117.627 27.968-10.321Z" fill="#FFFFFF" stroke="#D27400" stroke-width="4.31" stroke-miterlimit="10" />
        <path d="M233.128 134.096c28.659-10.577 42.413-6.538 41.545 15.264-0.514 12.863-7.949 23.184-19.851 31.431 14.117-1.657 23.298 3.145 22.66 18.985-0.815 20.544-13.257 38.74-46.95 51.177l-41.11 15.176 4.688-117.628 39.01-14.396ZM249.142 209.476c0.487-12.234-5.468-14.83-19.452-9.665l-10.067 3.721-1.374 34.505 10.067-3.721c14.126-5.218 20.338-12.606 20.826-24.84ZM246.226 161.559c0.434-10.826-5.131-12.943-15.623-9.072l-9.084 3.358-1.214 30.43 9.084-3.358c10.484-3.871 16.403-10.533 16.828-21.358Z" fill="#FFFFFF" stroke="#D27400" stroke-width="4.31" stroke-miterlimit="10" />
        <path d="M367.208 84.602l-0.709 17.727-44.885 16.566-1.179 29.482 39.852-14.706-0.709 17.877-39.852 14.706-1.382 34.824 46.418-17.133-0.709 17.727-74.519 27.506 4.688-117.627 72.986-26.94Z" fill="#FFFFFF" stroke="#D27400" stroke-width="4.31" stroke-miterlimit="10" />
        <path d="M427.743 62.26c24.884-9.187 42.572-7.06 41.615 17.089-0.496 12.394-6.762 24.442-22.456 34.567 15.659-2.383 21.632 3.446 20.923 21.173l-1.143 28.702-28.243 10.427 1.143-28.703c0.833-21.013-7.976-17.762-17.909-13.943l-10.909 4.021-1.977 49.566-28.1 10.373 4.688-117.627 42.368-15.636ZM441.771 90.617c0.443-11.136-4.803-14.298-16.545-9.966l-12.442 4.598-1.329 33.406 12.442-4.597c11.742-4.332 17.431-12.305 17.874-23.441Z" fill="#FFFFFF" stroke="#D27400" stroke-width="4.31" stroke-miterlimit="10" />
      </g>
    </g>
    <g>
      <line x1="0.984" y1="192.538" x2="522.024" y2="1.692" stroke="#D27400" stroke-miterlimit="10" />
      <rect x="-9.59" y="85.098" width="554.897" height="2.401" transform="translate(-19.7 108.16) rotate(-20.1)" fill="#D27400" stroke="#D27400" stroke-miterlimit="10" />
    </g>
    <g>
      <line x1="0.984" y1="428.307" x2="522.024" y2="237.461" stroke="#D27400" stroke-miterlimit="10" />
      <rect x="0.853" y="322.717" width="554.897" height="2.401" transform="translate(-111.22 124.4) rotate(-20.1)" fill="#D27400" stroke="#D27400" stroke-miterlimit="10" />
    </g>
  </g>
</svg>