<?xml version="1.0" encoding="UTF-8"?>
<svg fill="#B12A1D" id="Layer_2" data-name="Layer 2" xmlns="http://www.w3.org/2000/svg" viewBox="0 0 122.08 121.23">
  <g id="Layer_1-2" data-name="Layer 1">
    <g>
      <path d="M95.94,30.09l-1.84,2.5c.56-.73,1.19-1.51,1.85-2.31v-.19Z"/>
      <path d="M112.32,21.13c1.7-2.97,1.63-7.81.13-10.55C109.69,5.53,100.66-.64,94.84.05c-1.97,1.3,1.69,3.65,2.49,4.77,3.45,4.81,6.68,11.7,7.01,17.67h0c-2.82,1.62-5.89,4.81-8.39,7.79l-.92,1.06c-.68.19-.34.74-.97,1.31v.02s-.02,0-.02,0c-1.35,1.23-3.24,1.78-3.8,3.23-4.12-5.29-9.44-3.31-15.07-.84-1.48-6.52-9.76-8.95-15.41-6.51-2.84-7.47-12.59-9.61-18.8-5.02-3.95,2.93-2.34,5.49-4.03,8.22-.96,1.55-3.73,2.33-5.11,4.97-1.92,3.68-.34,7.35-.58,7.67-.13.16-2.37.78-3.62,1.81-3.47,2.87-5.99,6.64-4.86,11.39.43,1.85,2.39,2.92,2.58,3.85.39,1.96-3.99,8.27-1.3,11.78-6.51-.09-11.41,4.21-10.06,11.14.28,1.4,1.61,1.83,1.42,3.26-9.53-.63-12.91,7.63-9.44,15.39-7.71,5.4-9.04,17.74,2.73,18.17,4.46.17,9.2-.07,10.69-4.76,5.71,4.51,16.9,4.76,16.91-4.32,1.93-.53,1.29,1.21,2.56,2.08,2.03,1.38,8.97,2.79,11.32,2.09,3.64-1.08,3.02-6.64,4.08-7.47,5.59,1.7,12.66,1.08,14.44-5.34,4.44,4.8,13.74,5.63,16.22-1.41.71-2.02.18-6.85.39-7.14.46-.65,4.47-.75,5.39-3.64.5-1.57.66-9.74,1.04-10.13,3.88.81,8.55-1.18,9.32-5.43.14-.79.75-7.37.65-7.75-.26-.97-1.81-1.61-1.87-2.29-.04-.38,1.16-2.1,1.27-3.59.66-8.87-4.19-15.54-12.97-10.46.22-2.18,1.9-3.53,2.57-5.71.4-1.32.03-3.69.4-4.27.23-.37,1.51-.98,2.22-1.67,4.3-4.21,8.55-9.58,14.95-11.39.55,2.45,2.04,4.49,2.91,6.83,1.14,3.07,2.25,12.28,5.41,12.62,2.91.32,3.73-1.85,4.44-4.18,2.67-8.78.48-19.88-8.7-22.73ZM82.2,35.95c6.85-.78,5.99,10.31,3.28,11.24-7.62,2.59-14.48-9.97-3.28-11.24ZM73.24,44.49l4.79,6.41c-3.15.47-6.81,3.73-7.2,6.91-.3,2.46,2.27,5.9-1.43,6.06,1.47-3.5-4.57-8.01-4.93-9.1-.73-2.28.27-6.35-.12-8.9l8.89-1.38ZM80.72,69.81c2.84,2.91-1.59,7.4-5.16,7.05-1.45-5.19-3.12-8.35-9.05-6.52l6.22-4.99c1.62,1.84,6.88,3.32,7.99,4.46ZM58.59,57.4l.35,2.13c5.26-3.78,8.54,3.5,5.08,7.98-7.24,9.38-18.2-7.41-5.43-10.11ZM63.61,91.2c-4.23.4-9.13,2.89-7.59-3.62,1.88-7.97,9.5,1.62,7.59,3.62ZM68.46,32.05c5.49,3.14,4.28,12.65-4.45,10.93-2.25-.45-3.08-3.73-6.14-2.87.18-5.85,4.38-11.61,10.59-8.06ZM59.35,44.03c1.22,1.37,2.53,9.35,1.33,10.4-5.07,1.34-4.3-.93-6.42-2.42-.99-.7-5.06-3.19-5.97-3.46-2.01-.6-3.18.63-4.81-.16,3.93-1.4,2.99-3.05,4.35-4.99,1.84-2.59,9.51-1.63,11.52.63ZM50.67,69.62l-3.59.74c-.54-1.81-.6-3.8-1.3-5.56-2.31-5.87-8.19-7.48.31-13.09l5.89,2.92c1.25,2.13-3.29,5.86-3.43,8.94-.09,2.09,1.29,4.23,2.12,6.05ZM32.67,80.43l9.36-1.12c6.36,12.02-9.91,13.69-9.36,1.12ZM32.47,60.42c12.85-2.85,14.09,18.07,1.29,17.17-8.05-.56-8.26-15.63-1.29-17.17ZM42.25,26.64c3.02-4.15,12.08-2.13,13.31,3.18,2.8,12.15-13.66,12.62-14.28,1.99-.08-1.29.25-4.18.97-5.17ZM38.42,35.07c.29,1.22.86,3.21,1.67,4.1,1.23,1.35,5.93,2.01,3.44,4.96-1.38,1.64-6.59,1.39-7.99-.04-1.97-2.01-.27-8.62,2.88-9.02ZM38.44,57.39c-3.48-1.49-12.11,4.27-12-1.65.21-11.78,14.55-10.81,12,1.65ZM22.4,76.24c6.26-1.33,8.94,10.45,1.93,11.37-7.18.95-8.53-9.97-1.93-11.37ZM21.88,92.3l2.87-1.07,1.44,9.35h-2.15c.07-3.1.48-6.08-2.16-8.28ZM5.48,116.98c-2.07-2.72-1.85-9.4,1.78-10.47,12.73-3.76,11.92,16.56-1.78,10.47ZM8.96,99.47c-1.05-6.54,2.07-9.8,8.6-8.96-1.52,2.63,1.68,3.23,2.12,6.17,1.39,9.23-9.7,9.13-10.72,2.79ZM22.41,112.65c-1.11-2.62-1.05-7.37,2.13-8.3,4.37-1.28,6.17.48,7.69,4.25,3.28,8.12-7.57,9.31-9.82,4.05ZM33.91,103.33c-3.35-1.01-6.51-9.24-3.94-11.92,1.72-1.79,3.35.2,4.66.38,4.43.61,7.93-1.15,7.45,5.55-.28,3.9-4.35,7.14-8.17,5.99ZM51.4,97.36c-.59,2.97.2,13.08-1.62,15.29-1.5,1.82-8.17-.17-9.36-2.88-2.03-4.59.99-4.05,3.35-7.08,3.28-4.24,3.39-7.72.42-12.17l6.8-1.44c.63.14,2.57,4.68,2.45,5.29-.16.81-1.72,1.37-2.04,2.99ZM47.08,86.91c-.16-2.16.32-4.58-.16-6.69-.45-1.98-5.35-5.46-.78-6.84,10.15-3.06,12.69,13.15.94,13.53ZM64.17,105.45c-1.26,1.22-6,1.35-7.44.24-1.56-1.18-2.46-7.3-1.42-8.75,2.26-.52,7.69-2.75,9.44-1.46,2.93,2.04,1.37,8.09-.58,9.97ZM62.37,83.13c-.3-.34-1.64-4.54-1.68-5.24-.25-5.06,5.69-5.26,9.47-4.35,1.78,3.01,1.57,9.75-2.6,10.49-1.22.21-4.4,0-5.19-.9ZM76.57,103.92c-4.05-.81-5.69-5.88-7.57-9.05-.49-.82-1.87-1.56-2.1-2.16-.35-.94.71-4.26.41-5.72l4.24-.8c-.54,3.4,1.58,6.55,4.54,8.07,1.61.82,5.72,1.1,6.2,2.47.44,3.68-1.51,8.02-5.72,7.19ZM91.01,53.82c6.12-2.07,7.05,4.6,6.46,9.33-2.86-1.51-3.8.52-6.47.72v-10.05ZM97.07,68.95c.6,1.79.83,6.4-.49,7.71-1.68,1.67-6.33,1.18-7.37-1.28-2.85-6.75,5.64-13.06,7.86-6.43ZM82.71,91.95c-12.57,1.09-5.08-9.8-6.13-10.78l-2.14-.38c3.19-1.77,12.77-2.49,13.65,2.18.98,5.2.26,8.49-5.38,8.98ZM87.04,63.87c-1.56,3.52-5.88,3.28-8.59,1.39-.28-.2-3.6-5.29-3.72-5.68-.99-3.1,2.1-5.9,5.08-6.15,7.56-.62,10.29,3.54,7.23,10.44Z"/>
    </g>
  </g>
</svg>